<svg width="262" height="113" viewBox="0 0 262 113" fill="none" xmlns="http://www.w3.org/2000/svg">
<rect x="3" y="1" width="257" height="110" rx="10" fill="#EBEBFF"/>
<path d="M18.5098 29.2529C21.4219 29.2529 23.2539 27.2568 23.2539 24.0713V24.0576C23.2539 20.8721 21.415 18.8828 18.5098 18.8828C15.6045 18.8828 13.7588 20.8652 13.7588 24.0576V24.0713C13.7588 27.2568 15.5771 29.2529 18.5098 29.2529ZM18.5098 27.5029C16.8828 27.5029 15.8643 26.1562 15.8643 24.0713V24.0576C15.8643 21.9658 16.9033 20.6328 18.5098 20.6328C20.1094 20.6328 21.1484 21.9658 21.1484 24.0576V24.0713C21.1484 26.1562 20.1162 27.5029 18.5098 27.5029ZM24.6096 31.4951H26.6057V27.7969H26.7287C27.1115 28.6172 27.9524 29.1162 28.9846 29.1162C30.8918 29.1162 32.0402 27.6602 32.0402 25.2402V25.2266C32.0402 22.8271 30.8645 21.3506 28.9846 21.3506C27.9182 21.3506 27.1184 21.8291 26.7287 22.6357H26.6057V21.4736H24.6096V31.4951ZM28.301 27.4619C27.2551 27.4619 26.5852 26.6211 26.5852 25.2402V25.2266C26.5852 23.8457 27.2483 23.0049 28.301 23.0049C29.3606 23.0049 30.01 23.8457 30.01 25.2266V25.2402C30.01 26.6211 29.3537 27.4619 28.301 27.4619ZM36.2602 29.1572C38.1879 29.1572 39.5619 28.1865 39.5619 26.6963V26.6895C39.5619 25.5752 38.8578 24.9463 37.3539 24.625L36.1029 24.3584C35.3236 24.1875 35.0434 23.9551 35.0434 23.5518V23.5449C35.0434 23.0391 35.5356 22.7178 36.226 22.7178C36.9711 22.7178 37.4154 23.0938 37.5248 23.4971L37.5317 23.5312H39.3842V23.5039C39.3022 22.2939 38.2084 21.3096 36.2328 21.3096C34.3529 21.3096 33.0951 22.2529 33.0951 23.668V23.6748C33.0951 24.8027 33.8061 25.5068 35.2416 25.8145L36.4994 26.0811C37.2651 26.252 37.5658 26.5049 37.5658 26.9082V26.9219C37.5658 27.4209 37.0463 27.749 36.2807 27.749C35.4945 27.749 35.0365 27.4141 34.8793 26.9492L34.8656 26.9219H32.9037L32.9106 26.9492C33.0541 28.2412 34.2162 29.1572 36.2602 29.1572ZM42.2233 29.1709C42.9274 29.1709 43.4264 28.6582 43.4264 27.9814C43.4264 27.3047 42.9274 26.7988 42.2233 26.7988C41.526 26.7988 41.0201 27.3047 41.0201 27.9814C41.0201 28.6582 41.526 29.1709 42.2233 29.1709ZM46.6825 29.1709C47.3866 29.1709 47.8856 28.6582 47.8856 27.9814C47.8856 27.3047 47.3866 26.7988 46.6825 26.7988C45.9852 26.7988 45.4793 27.3047 45.4793 27.9814C45.4793 28.6582 45.9852 29.1709 46.6825 29.1709ZM51.1416 29.1709C51.8457 29.1709 52.3448 28.6582 52.3448 27.9814C52.3448 27.3047 51.8457 26.7988 51.1416 26.7988C50.4444 26.7988 49.9385 27.3047 49.9385 27.9814C49.9385 28.6582 50.4444 29.1709 51.1416 29.1709ZM56.8608 29H59.0278L59.7592 26.6074H63.2387L63.9702 29H66.144L62.7124 19.1357H60.2856L56.8608 29ZM61.4409 21.1045H61.5639L62.767 25.0625H60.2309L61.4409 21.1045ZM67.2809 29H69.277V18.5957H67.2809V29ZM74.2557 31.6455C76.5321 31.6455 77.9745 30.5312 77.9745 28.7676V21.4736H75.9784V22.7041H75.8827C75.4794 21.8564 74.6727 21.3506 73.6405 21.3506C71.7128 21.3506 70.5438 22.8408 70.5438 25.0557V25.0693C70.5438 27.209 71.7128 28.6719 73.6063 28.6719C74.6522 28.6719 75.4452 28.2412 75.8622 27.4482H75.9852V28.8496C75.9852 29.7246 75.3632 30.2236 74.2967 30.2236C73.4081 30.2236 72.8885 29.9229 72.7792 29.4854L72.7723 29.458H70.7967V29.4922C70.9608 30.7705 72.1708 31.6455 74.2557 31.6455ZM74.2831 27.1406C73.203 27.1406 72.5878 26.2998 72.5878 25.0625V25.0488C72.5878 23.8115 73.2098 22.9707 74.2831 22.9707C75.3563 22.9707 76.0057 23.8115 76.0057 25.0488V25.0625C76.0057 26.2998 75.3632 27.1406 74.2831 27.1406ZM82.9053 29.1572C85.2227 29.1572 86.6173 27.6943 86.6173 25.2402V25.2266C86.6173 22.793 85.2022 21.3096 82.9053 21.3096C80.6085 21.3096 79.1934 22.7998 79.1934 25.2266V25.2402C79.1934 27.6875 80.588 29.1572 82.9053 29.1572ZM82.9053 27.5918C81.8389 27.5918 81.2374 26.7236 81.2374 25.2402V25.2266C81.2374 23.7568 81.8458 22.875 82.9053 22.875C83.9581 22.875 84.5733 23.7568 84.5733 25.2266V25.2402C84.5733 26.7236 83.9649 27.5918 82.9053 27.5918ZM93.7241 29.1162C94.7837 29.1162 95.5835 28.6445 95.9731 27.8311H96.0962V29H98.0923V18.5957H96.0962V22.6768H95.9731C95.5972 21.8564 94.7563 21.3506 93.7241 21.3506C91.8169 21.3506 90.6685 22.8066 90.6685 25.2266V25.2402C90.6685 27.6465 91.8442 29.1162 93.7241 29.1162ZM94.4009 27.4619C93.3481 27.4619 92.6987 26.6279 92.6987 25.2402V25.2266C92.6987 23.8525 93.3481 23.0049 94.4009 23.0049C95.4536 23.0049 96.1167 23.8525 96.1167 25.2334V25.2471C96.1167 26.6279 95.4604 27.4619 94.4009 27.4619ZM103.057 29.1572C105.258 29.1572 106.229 27.8857 106.462 26.9424L106.475 26.874H104.616L104.595 26.915C104.459 27.2021 103.973 27.667 103.098 27.667C102.039 27.667 101.376 26.9492 101.355 25.7119H106.537V25.0898C106.537 22.8135 105.17 21.3096 102.975 21.3096C100.781 21.3096 99.3796 22.8477 99.3796 25.2402V25.2471C99.3796 27.6602 100.767 29.1572 103.057 29.1572ZM103.009 22.8066C103.878 22.8066 104.5 23.3672 104.623 24.4609H101.376C101.499 23.3945 102.141 22.8066 103.009 22.8066ZM110.251 29.1572C111.324 29.1572 112.09 28.6582 112.432 27.8379H112.555V29H114.551V21.4736H112.555V25.8213C112.555 26.8398 112.021 27.5029 111.037 27.5029C110.094 27.5029 109.69 26.9492 109.69 25.8828V21.4736H107.694V26.3408C107.694 28.1318 108.562 29.1572 110.251 29.1572ZM122.656 29.1572C124.857 29.1572 125.827 27.8857 126.06 26.9424L126.074 26.874H124.214L124.194 26.915C124.057 27.2021 123.572 27.667 122.697 27.667C121.637 27.667 120.974 26.9492 120.953 25.7119H126.135V25.0898C126.135 22.8135 124.768 21.3096 122.574 21.3096C120.379 21.3096 118.978 22.8477 118.978 25.2402V25.2471C118.978 27.6602 120.366 29.1572 122.656 29.1572ZM122.608 22.8066C123.476 22.8066 124.098 23.3672 124.221 24.4609H120.974C121.097 23.3945 121.74 22.8066 122.608 22.8066ZM127.361 29H129.357V24.7891C129.357 23.7227 130.075 23.0732 131.21 23.0732C131.517 23.0732 131.825 23.1211 132.126 23.1895V21.4463C131.927 21.3916 131.647 21.3506 131.38 21.3506C130.403 21.3506 129.719 21.8291 129.48 22.6426H129.357V21.4736H127.361V29ZM133.119 29H135.115V24.7891C135.115 23.7227 135.833 23.0732 136.968 23.0732C137.275 23.0732 137.583 23.1211 137.884 23.1895V21.4463C137.685 21.3916 137.405 21.3506 137.138 21.3506C136.161 21.3506 135.477 21.8291 135.238 22.6426H135.115V21.4736H133.119V29ZM140.723 29.1162C141.707 29.1162 142.5 28.6992 142.883 28.002H143.006V29H144.975V23.8594C144.975 22.2529 143.847 21.3096 141.851 21.3096C139.957 21.3096 138.713 22.1846 138.556 23.5039L138.549 23.5654H140.394L140.408 23.5381C140.565 23.0938 141.023 22.8408 141.741 22.8408C142.561 22.8408 143.006 23.21 143.006 23.8594V24.4814L141.187 24.5908C139.314 24.7002 138.269 25.4932 138.269 26.8467V26.8604C138.269 28.2275 139.287 29.1162 140.723 29.1162ZM140.217 26.7373V26.7236C140.217 26.1768 140.634 25.8555 141.488 25.8008L143.006 25.7051V26.2588C143.006 27.0518 142.315 27.6602 141.393 27.6602C140.702 27.6602 140.217 27.3115 140.217 26.7373ZM149.208 29.1162C150.268 29.1162 151.068 28.6445 151.457 27.8311H151.58V29H153.576V18.5957H151.58V22.6768H151.457C151.081 21.8564 150.24 21.3506 149.208 21.3506C147.301 21.3506 146.152 22.8066 146.152 25.2266V25.2402C146.152 27.6465 147.328 29.1162 149.208 29.1162ZM149.885 27.4619C148.832 27.4619 148.183 26.6279 148.183 25.2402V25.2266C148.183 23.8525 148.832 23.0049 149.885 23.0049C150.938 23.0049 151.601 23.8525 151.601 25.2334V25.2471C151.601 26.6279 150.944 27.4619 149.885 27.4619ZM158.576 29.1572C160.893 29.1572 162.287 27.6943 162.287 25.2402V25.2266C162.287 22.793 160.872 21.3096 158.576 21.3096C156.279 21.3096 154.864 22.7998 154.864 25.2266V25.2402C154.864 27.6875 156.258 29.1572 158.576 29.1572ZM158.576 27.5918C157.509 27.5918 156.908 26.7236 156.908 25.2402V25.2266C156.908 23.7568 157.516 22.875 158.576 22.875C159.628 22.875 160.244 23.7568 160.244 25.2266V25.2402C160.244 26.7236 159.635 27.5918 158.576 27.5918ZM164.087 25.7461H165.913L166.097 19.1289H163.91L164.087 25.7461ZM165.003 29.1982C165.776 29.1982 166.248 28.7607 166.248 28.0566C166.248 27.3457 165.776 26.9082 165.003 26.9082C164.238 26.9082 163.759 27.3457 163.759 28.0566C163.759 28.7607 164.238 29.1982 165.003 29.1982Z" fill="#180B5A"/>
<path d="M14.084 48H14.875V40.9746H14.9512L19.8965 48H20.6699V39.5449H19.8789V46.5645H19.8027L14.875 39.5449H14.084V48ZM25.5236 40.7109C26.1975 40.7109 26.59 40.125 26.59 39.2051V39.1348H25.9514V39.1816C25.9514 39.7676 25.7639 40.1074 25.4592 40.1074C25.2717 40.1074 25.1311 40.0195 24.885 39.7676L24.8029 39.6797C24.4807 39.3516 24.1936 39.1523 23.7834 39.1523C23.1096 39.1523 22.717 39.7383 22.717 40.6582V40.7285H23.3557V40.6816C23.3557 40.0957 23.5432 39.7559 23.8479 39.7559C24.0354 39.7559 24.176 39.8438 24.4221 40.0957L24.5041 40.1836C24.8205 40.5117 25.1135 40.7109 25.5236 40.7109ZM24.0764 48.1055C25.008 48.1055 25.7639 47.666 26.1389 46.916H26.2092V48H26.9885V43.6875C26.9885 42.3574 26.1272 41.584 24.6506 41.584C23.344 41.584 22.3889 42.2285 22.2248 43.2363L22.219 43.2598H22.9983L23.0041 43.248C23.1682 42.6211 23.7717 42.2754 24.6272 42.2754C25.6467 42.2754 26.2092 42.7676 26.2092 43.6934V44.2852L24.2404 44.4141C22.7815 44.5137 21.967 45.1523 21.967 46.248V46.2598C21.967 47.3848 22.8576 48.1055 24.0764 48.1055ZM22.758 46.248V46.2363C22.758 45.5215 23.2736 45.1172 24.3459 45.0469L26.2092 44.918V45.6504C26.2092 46.6523 25.3537 47.4258 24.2229 47.4258C23.3733 47.4258 22.758 46.9688 22.758 46.248ZM31.0746 48.1055C32.8383 48.1055 33.9457 46.8574 33.9457 44.8477V44.8359C33.9457 42.8262 32.8383 41.584 31.0746 41.584C29.311 41.584 28.2094 42.8262 28.2094 44.8359V44.8477C28.2094 46.8574 29.311 48.1055 31.0746 48.1055ZM31.0746 47.4141C29.7738 47.4141 29.0004 46.4414 29.0004 44.8477V44.8359C29.0004 43.2422 29.7738 42.2754 31.0746 42.2754C32.3754 42.2754 33.1488 43.2422 33.1488 44.8359V44.8477C33.1488 46.4414 32.3754 47.4141 31.0746 47.4141ZM40.5535 48.1055C41.995 48.1055 42.8739 47.3379 43.12 46.2246L43.1317 46.1777L42.3582 46.1836L42.3465 46.2129C42.1239 46.9746 41.4793 47.4141 40.5477 47.4141C39.2996 47.4141 38.4969 46.4004 38.4969 44.8301V44.8184C38.4969 43.2656 39.2938 42.2754 40.5477 42.2754C41.5145 42.2754 42.1707 42.8086 42.3582 43.5352L42.3641 43.5527L43.1317 43.5469V43.5234C42.9383 42.416 41.995 41.584 40.5477 41.584C38.8075 41.584 37.7059 42.8496 37.7059 44.8184V44.8301C37.7059 46.8281 38.8133 48.1055 40.5535 48.1055ZM46.878 48.1055C48.6416 48.1055 49.7491 46.8574 49.7491 44.8477V44.8359C49.7491 42.8262 48.6416 41.584 46.878 41.584C45.1143 41.584 44.0127 42.8262 44.0127 44.8359V44.8477C44.0127 46.8574 45.1143 48.1055 46.878 48.1055ZM46.878 47.4141C45.5772 47.4141 44.8037 46.4414 44.8037 44.8477V44.8359C44.8037 43.2422 45.5772 42.2754 46.878 42.2754C48.1787 42.2754 48.9522 43.2422 48.9522 44.8359V44.8477C48.9522 46.4414 48.1787 47.4141 46.878 47.4141ZM50.9993 48H51.7727V44.25C51.7727 43.0605 52.5286 42.2754 53.6418 42.2754C54.7375 42.2754 55.2825 42.8906 55.2825 44.0918V48H56.0559V43.8984C56.0559 42.4277 55.2532 41.584 53.8469 41.584C52.8625 41.584 52.1829 42.0352 51.8489 42.7969H51.7727V41.6895H50.9993V48ZM59.6967 48.1055C61.0737 48.1055 62.1342 47.3438 62.1342 46.2598V46.248C62.1342 45.3398 61.5424 44.8477 60.3237 44.5547L59.4506 44.3496C58.6128 44.1504 58.226 43.8516 58.226 43.3359V43.3242C58.226 42.6973 58.8764 42.2344 59.7026 42.2344C60.5405 42.2344 61.1264 42.6328 61.267 43.2188H62.0288C61.8823 42.2227 60.9799 41.584 59.7085 41.584C58.437 41.584 57.435 42.3398 57.435 43.3594V43.3652C57.435 44.25 57.9799 44.7363 59.1518 45.0117L60.0307 45.2227C60.9506 45.4395 61.3432 45.7617 61.3432 46.3066V46.3184C61.3432 46.9746 60.646 47.4492 59.7202 47.4492C58.8061 47.4492 58.2026 47.0449 58.0327 46.418H57.2358C57.3647 47.4492 58.3198 48.1055 59.6967 48.1055ZM65.9098 48.1055C67.3044 48.1055 68.2243 47.3438 68.4704 46.4883L68.488 46.4414H67.7087L67.6852 46.4824C67.4801 46.9746 66.8473 47.4082 65.9274 47.4082C64.6735 47.4082 63.8649 46.5234 63.8415 45.0469H68.5817V44.7188C68.5817 42.8496 67.5387 41.584 65.8454 41.584C64.152 41.584 63.0505 42.8848 63.0505 44.8535V44.8652C63.0505 46.8457 64.1403 48.1055 65.9098 48.1055ZM65.8454 42.2754C66.9294 42.2754 67.7087 43.0137 67.7965 44.4141H63.8473C63.9469 43.0488 64.7555 42.2754 65.8454 42.2754ZM72.3983 50.2031C74.0565 50.2031 75.1405 49.3008 75.1405 47.9238V41.6895H74.3612V42.9668H74.3085C73.9452 42.123 73.1659 41.584 72.1932 41.584C70.5643 41.584 69.5214 42.873 69.5214 44.6777V44.6895C69.5214 46.5 70.5585 47.7715 72.1815 47.7715C73.1483 47.7715 73.9217 47.291 74.2967 46.459H74.3729V47.8711C74.3729 48.8906 73.6171 49.5117 72.3983 49.5117C71.4374 49.5117 70.7811 49.1309 70.6405 48.5801L70.6346 48.5742H69.8319L69.826 48.5801C69.9901 49.5586 70.951 50.2031 72.3983 50.2031ZM72.3339 47.0801C71.0741 47.0801 70.3124 46.1016 70.3124 44.6895V44.6777C70.3124 43.2656 71.0741 42.2754 72.3339 42.2754C73.5819 42.2754 74.3846 43.2773 74.3846 44.6895V44.7012C74.3846 46.1133 73.5995 47.0801 72.3339 47.0801ZM78.8692 48.1055C79.8477 48.1055 80.5567 47.6602 80.8673 46.8984H80.9376V48H81.711V41.6895H80.9376V45.4395C80.9376 46.6348 80.2345 47.4141 79.0567 47.4141C77.9727 47.4141 77.4278 46.7754 77.4278 45.5977V41.6895H76.6544V45.791C76.6544 47.2383 77.4512 48.1055 78.8692 48.1055ZM83.7112 40.377C84.0218 40.377 84.2796 40.125 84.2796 39.8086C84.2796 39.4922 84.0218 39.2402 83.7112 39.2402C83.3948 39.2402 83.137 39.4922 83.137 39.8086C83.137 40.125 83.3948 40.377 83.7112 40.377ZM83.3186 48H84.0921V41.6895H83.3186V48ZM85.6997 48H86.4731V44.127C86.4731 43.0957 87.1763 42.2754 88.0903 42.2754C88.9634 42.2754 89.5376 42.8672 89.5376 43.7754V48H90.311V43.998C90.311 43.0195 90.9614 42.2754 91.9341 42.2754C92.8833 42.2754 93.3813 42.8262 93.3813 43.8574V48H94.1606V43.6816C94.1606 42.3457 93.4282 41.584 92.1626 41.584C91.2544 41.584 90.5161 42.0703 90.1938 42.8262H90.1177C89.8481 42.0703 89.2153 41.584 88.3306 41.584C87.4692 41.584 86.8188 42.0469 86.5493 42.8027H86.4731V41.6895H85.6997V48ZM98.2233 48.1055C99.987 48.1055 101.094 46.8574 101.094 44.8477V44.8359C101.094 42.8262 99.987 41.584 98.2233 41.584C96.4597 41.584 95.3581 42.8262 95.3581 44.8359V44.8477C95.3581 46.8574 96.4597 48.1055 98.2233 48.1055ZM98.2233 47.4141C96.9226 47.4141 96.1491 46.4414 96.1491 44.8477V44.8359C96.1491 43.2422 96.9226 42.2754 98.2233 42.2754C99.5241 42.2754 100.298 43.2422 100.298 44.8359V44.8477C100.298 46.4414 99.5241 47.4141 98.2233 47.4141ZM104.466 48.1055C105.843 48.1055 106.903 47.3438 106.903 46.2598V46.248C106.903 45.3398 106.311 44.8477 105.093 44.5547L104.22 44.3496C103.382 44.1504 102.995 43.8516 102.995 43.3359V43.3242C102.995 42.6973 103.645 42.2344 104.472 42.2344C105.309 42.2344 105.895 42.6328 106.036 43.2188H106.798C106.651 42.2227 105.749 41.584 104.477 41.584C103.206 41.584 102.204 42.3398 102.204 43.3594V43.3652C102.204 44.25 102.749 44.7363 103.921 45.0117L104.8 45.2227C105.72 45.4395 106.112 45.7617 106.112 46.3066V46.3184C106.112 46.9746 105.415 47.4492 104.489 47.4492C103.575 47.4492 102.972 47.0449 102.802 46.418H102.005C102.134 47.4492 103.089 48.1055 104.466 48.1055ZM111.021 48H111.794V39.1758H111.021V48ZM115.974 48.1055C117.738 48.1055 118.845 46.8574 118.845 44.8477V44.8359C118.845 42.8262 117.738 41.584 115.974 41.584C114.21 41.584 113.109 42.8262 113.109 44.8359V44.8477C113.109 46.8574 114.21 48.1055 115.974 48.1055ZM115.974 47.4141C114.673 47.4141 113.9 46.4414 113.9 44.8477V44.8359C113.9 43.2422 114.673 42.2754 115.974 42.2754C117.275 42.2754 118.048 43.2422 118.048 44.8359V44.8477C118.048 46.4414 117.275 47.4141 115.974 47.4141ZM122.627 48.1055C124.068 48.1055 124.947 47.3379 125.193 46.2246L125.205 46.1777L124.431 46.1836L124.42 46.2129C124.197 46.9746 123.552 47.4141 122.621 47.4141C121.373 47.4141 120.57 46.4004 120.57 44.8301V44.8184C120.57 43.2656 121.367 42.2754 122.621 42.2754C123.588 42.2754 124.244 42.8086 124.431 43.5352L124.437 43.5527L125.205 43.5469V43.5234C125.011 42.416 124.068 41.584 122.621 41.584C120.881 41.584 119.779 42.8496 119.779 44.8184V44.8301C119.779 46.8281 120.886 48.1055 122.627 48.1055ZM128.143 48.1055C129.074 48.1055 129.83 47.666 130.205 46.916H130.275V48H131.055V43.6875C131.055 42.3574 130.193 41.584 128.717 41.584C127.41 41.584 126.455 42.2285 126.291 43.2363L126.285 43.2598H127.064L127.07 43.248C127.234 42.6211 127.838 42.2754 128.693 42.2754C129.713 42.2754 130.275 42.7676 130.275 43.6934V44.2852L128.307 44.4141C126.848 44.5137 126.033 45.1523 126.033 46.248V46.2598C126.033 47.3848 126.924 48.1055 128.143 48.1055ZM126.824 46.248V46.2363C126.824 45.5215 127.34 45.1172 128.412 45.0469L130.275 44.918V45.6504C130.275 46.6523 129.42 47.4258 128.289 47.4258C127.439 47.4258 126.824 46.9688 126.824 46.248ZM132.651 48H133.424V39.1758H132.651V48ZM135.483 40.377C135.793 40.377 136.051 40.125 136.051 39.8086C136.051 39.4922 135.793 39.2402 135.483 39.2402C135.166 39.2402 134.909 39.4922 134.909 39.8086C134.909 40.125 135.166 40.377 135.483 40.377ZM135.09 48H135.864V41.6895H135.09V48ZM137.249 48H142.047V47.3496H138.18V47.2793L142.036 42.2812V41.6895H137.254V42.3398H141.116V42.4102L137.249 47.4141V48ZM145.143 48.1055C146.075 48.1055 146.831 47.666 147.206 46.916H147.276V48H148.055V43.6875C148.055 42.3574 147.194 41.584 145.718 41.584C144.411 41.584 143.456 42.2285 143.292 43.2363L143.286 43.2598H144.065L144.071 43.248C144.235 42.6211 144.839 42.2754 145.694 42.2754C146.714 42.2754 147.276 42.7676 147.276 43.6934V44.2852L145.307 44.4141C143.848 44.5137 143.034 45.1523 143.034 46.248V46.2598C143.034 47.3848 143.925 48.1055 145.143 48.1055ZM143.825 46.248V46.2363C143.825 45.5215 144.341 45.1172 145.413 45.0469L147.276 44.918V45.6504C147.276 46.6523 146.421 47.4258 145.29 47.4258C144.44 47.4258 143.825 46.9688 143.825 46.248ZM149.593 48H150.366V44.0625C150.366 43.043 151.093 42.3223 152.077 42.3223C152.317 42.3223 152.522 42.3457 152.751 42.4043V41.6426C152.599 41.6074 152.388 41.584 152.159 41.584C151.304 41.584 150.688 42.0059 150.442 42.7266H150.366V41.6895H149.593V48ZM158.228 48.1055C159.16 48.1055 159.915 47.666 160.29 46.916H160.361V48H161.14V43.6875C161.14 42.3574 160.279 41.584 158.802 41.584C157.496 41.584 156.54 42.2285 156.376 43.2363L156.371 43.2598H157.15L157.156 43.248C157.32 42.6211 157.923 42.2754 158.779 42.2754C159.798 42.2754 160.361 42.7676 160.361 43.6934V44.2852L158.392 44.4141C156.933 44.5137 156.119 45.1523 156.119 46.248V46.2598C156.119 47.3848 157.009 48.1055 158.228 48.1055ZM156.91 46.248V46.2363C156.91 45.5215 157.425 45.1172 158.497 45.0469L160.361 44.918V45.6504C160.361 46.6523 159.505 47.4258 158.374 47.4258C157.525 47.4258 156.91 46.9688 156.91 46.248ZM165.504 50.0918H166.277V46.7695H166.353C166.699 47.584 167.514 48.1055 168.469 48.1055C170.068 48.1055 171.14 46.8047 171.14 44.8477V44.8359C171.14 42.8906 170.068 41.584 168.469 41.584C167.502 41.584 166.722 42.0996 166.353 42.9434H166.277V41.6895H165.504V50.0918ZM168.31 47.4141C167.068 47.4141 166.265 46.4062 166.265 44.8477V44.8359C166.265 43.2832 167.068 42.2754 168.31 42.2754C169.558 42.2754 170.349 43.2773 170.349 44.8359V44.8477C170.349 46.4121 169.558 47.4141 168.31 47.4141ZM175.004 40.7988L176.334 38.8652H175.408L174.307 40.7988H175.004ZM174.125 48.1055C175.057 48.1055 175.813 47.666 176.188 46.916H176.258V48H177.037V43.6875C177.037 42.3574 176.176 41.584 174.699 41.584C173.393 41.584 172.438 42.2285 172.273 43.2363L172.268 43.2598H173.047L173.053 43.248C173.217 42.6211 173.82 42.2754 174.676 42.2754C175.695 42.2754 176.258 42.7676 176.258 43.6934V44.2852L174.289 44.4141C172.83 44.5137 172.016 45.1523 172.016 46.248V46.2598C172.016 47.3848 172.906 48.1055 174.125 48.1055ZM172.807 46.248V46.2363C172.807 45.5215 173.322 45.1172 174.395 45.0469L176.258 44.918V45.6504C176.258 46.6523 175.402 47.4258 174.272 47.4258C173.422 47.4258 172.807 46.9688 172.807 46.248ZM181.135 50.2031C182.793 50.2031 183.877 49.3008 183.877 47.9238V41.6895H183.098V42.9668H183.045C182.682 42.123 181.903 41.584 180.93 41.584C179.301 41.584 178.258 42.873 178.258 44.6777V44.6895C178.258 46.5 179.295 47.7715 180.918 47.7715C181.885 47.7715 182.658 47.291 183.033 46.459H183.11V47.8711C183.11 48.8906 182.354 49.5117 181.135 49.5117C180.174 49.5117 179.518 49.1309 179.377 48.5801L179.371 48.5742H178.569L178.563 48.5801C178.727 49.5586 179.688 50.2031 181.135 50.2031ZM181.071 47.0801C179.811 47.0801 179.049 46.1016 179.049 44.6895V44.6777C179.049 43.2656 179.811 42.2754 181.071 42.2754C182.319 42.2754 183.121 43.2773 183.121 44.6895V44.7012C183.121 46.1133 182.336 47.0801 181.071 47.0801ZM185.872 40.377C186.182 40.377 186.44 40.125 186.44 39.8086C186.44 39.4922 186.182 39.2402 185.872 39.2402C185.555 39.2402 185.297 39.4922 185.297 39.8086C185.297 40.125 185.555 40.377 185.872 40.377ZM185.479 48H186.252V41.6895H185.479V48ZM187.86 48H188.633V44.25C188.633 43.0605 189.389 42.2754 190.503 42.2754C191.598 42.2754 192.143 42.8906 192.143 44.0918V48H192.917V43.8984C192.917 42.4277 192.114 41.584 190.708 41.584C189.723 41.584 189.044 42.0352 188.71 42.7969H188.633V41.6895H187.86V48ZM196.177 48.1055C197.108 48.1055 197.864 47.666 198.239 46.916H198.309V48H199.089V43.6875C199.089 42.3574 198.227 41.584 196.751 41.584C195.444 41.584 194.489 42.2285 194.325 43.2363L194.319 43.2598H195.098L195.104 43.248C195.268 42.6211 195.872 42.2754 196.727 42.2754C197.747 42.2754 198.309 42.7676 198.309 43.6934V44.2852L196.341 44.4141C194.882 44.5137 194.067 45.1523 194.067 46.248V46.2598C194.067 47.3848 194.958 48.1055 196.177 48.1055ZM194.858 46.248V46.2363C194.858 45.5215 195.374 45.1172 196.446 45.0469L198.309 44.918V45.6504C198.309 46.6523 197.454 47.4258 196.323 47.4258C195.473 47.4258 194.858 46.9688 194.858 46.248ZM207.988 50.0918H208.761V41.6895H207.988V42.9785H207.929C207.542 42.123 206.74 41.584 205.79 41.584C204.191 41.584 203.136 42.8789 203.136 44.8359V44.8477C203.136 46.8047 204.197 48.1055 205.79 48.1055C206.769 48.1055 207.566 47.6133 207.911 46.7988H207.988V50.0918ZM205.954 47.4141C204.712 47.4141 203.927 46.418 203.927 44.8535V44.8418C203.927 43.2715 204.712 42.2754 205.949 42.2754C207.191 42.2754 208.005 43.2891 208.005 44.8418V44.8477C208.005 46.3945 207.191 47.4141 205.954 47.4141ZM212.484 48.1055C213.462 48.1055 214.171 47.6602 214.482 46.8984H214.552V48H215.326V41.6895H214.552V45.4395C214.552 46.6348 213.849 47.4141 212.671 47.4141C211.587 47.4141 211.042 46.7754 211.042 45.5977V41.6895H210.269V45.791C210.269 47.2383 211.066 48.1055 212.484 48.1055ZM219.441 48.1055C220.836 48.1055 221.756 47.3438 222.002 46.4883L222.019 46.4414H221.24L221.217 46.4824C221.011 46.9746 220.379 47.4082 219.459 47.4082C218.205 47.4082 217.396 46.5234 217.373 45.0469H222.113V44.7188C222.113 42.8496 221.07 41.584 219.377 41.584C217.683 41.584 216.582 42.8848 216.582 44.8535V44.8652C216.582 46.8457 217.672 48.1055 219.441 48.1055ZM219.377 42.2754C220.461 42.2754 221.24 43.0137 221.328 44.4141H217.379C217.478 43.0488 218.287 42.2754 219.377 42.2754ZM228.738 48.1055C230.133 48.1055 231.053 47.3438 231.299 46.4883L231.317 46.4414H230.537L230.514 46.4824C230.309 46.9746 229.676 47.4082 228.756 47.4082C227.502 47.4082 226.693 46.5234 226.67 45.0469H231.41V44.7188C231.41 42.8496 230.367 41.584 228.674 41.584C226.981 41.584 225.879 42.8848 225.879 44.8535V44.8652C225.879 46.8457 226.969 48.1055 228.738 48.1055ZM228.674 42.2754C229.758 42.2754 230.537 43.0137 230.625 44.4141H226.676C226.775 43.0488 227.584 42.2754 228.674 42.2754ZM234.787 48.1055C236.164 48.1055 237.225 47.3438 237.225 46.2598V46.248C237.225 45.3398 236.633 44.8477 235.414 44.5547L234.541 44.3496C233.703 44.1504 233.317 43.8516 233.317 43.3359V43.3242C233.317 42.6973 233.967 42.2344 234.793 42.2344C235.631 42.2344 236.217 42.6328 236.358 43.2188H237.119C236.973 42.2227 236.071 41.584 234.799 41.584C233.528 41.584 232.526 42.3398 232.526 43.3594V43.3652C232.526 44.25 233.071 44.7363 234.242 45.0117L235.121 45.2227C236.041 45.4395 236.434 45.7617 236.434 46.3066V46.3184C236.434 46.9746 235.737 47.4492 234.811 47.4492C233.897 47.4492 233.293 47.0449 233.123 46.418H232.326C232.455 47.4492 233.41 48.1055 234.787 48.1055ZM240.497 48.041C240.684 48.041 240.86 48.0234 241.036 47.9941V47.3262C240.877 47.3438 240.76 47.3496 240.585 47.3496C239.87 47.3496 239.594 47.0273 239.594 46.2539V42.3398H241.036V41.6895H239.594V40.0488H238.792V41.6895H237.778V42.3398H238.792V46.4297C238.792 47.5781 239.29 48.041 240.497 48.041ZM244.77 40.7988L246.1 38.8652H245.175L244.073 40.7988H244.77ZM243.891 48.1055C244.823 48.1055 245.579 47.666 245.954 46.916H246.024V48H246.803V43.6875C246.803 42.3574 245.942 41.584 244.466 41.584C243.159 41.584 242.204 42.2285 242.04 43.2363L242.034 43.2598H242.813L242.819 43.248C242.983 42.6211 243.587 42.2754 244.442 42.2754C245.462 42.2754 246.024 42.7676 246.024 43.6934V44.2852L244.055 44.4141C242.596 44.5137 241.782 45.1523 241.782 46.248V46.2598C241.782 47.3848 242.673 48.1055 243.891 48.1055ZM242.573 46.248V46.2363C242.573 45.5215 243.089 45.1172 244.161 45.0469L246.024 44.918V45.6504C246.024 46.6523 245.169 47.4258 244.038 47.4258C243.188 47.4258 242.573 46.9688 242.573 46.248ZM13.9902 72.0918H14.7637V68.7695H14.8398C15.1855 69.584 16 70.1055 16.9551 70.1055C18.5547 70.1055 19.627 68.8047 19.627 66.8477V66.8359C19.627 64.8906 18.5547 63.584 16.9551 63.584C15.9883 63.584 15.209 64.0996 14.8398 64.9434H14.7637V63.6895H13.9902V72.0918ZM16.7969 69.4141C15.5547 69.4141 14.752 68.4062 14.752 66.8477V66.8359C14.752 65.2832 15.5547 64.2754 16.7969 64.2754C18.0449 64.2754 18.8359 65.2773 18.8359 66.8359V66.8477C18.8359 68.4121 18.0449 69.4141 16.7969 69.4141ZM20.8713 70H21.6447V66.0625C21.6447 65.043 22.3713 64.3223 23.3557 64.3223C23.5959 64.3223 23.801 64.3457 24.0295 64.4043V63.6426C23.8772 63.6074 23.6662 63.584 23.4377 63.584C22.5822 63.584 21.967 64.0059 21.7209 64.7266H21.6447V63.6895H20.8713V70ZM27.2895 70.1055C29.0531 70.1055 30.1606 68.8574 30.1606 66.8477V66.8359C30.1606 64.8262 29.0531 63.584 27.2895 63.584C25.5258 63.584 24.4242 64.8262 24.4242 66.8359V66.8477C24.4242 68.8574 25.5258 70.1055 27.2895 70.1055ZM27.2895 69.4141C25.9887 69.4141 25.2153 68.4414 25.2153 66.8477V66.8359C25.2153 65.2422 25.9887 64.2754 27.2895 64.2754C28.5903 64.2754 29.3637 65.2422 29.3637 66.8359V66.8477C29.3637 68.4414 28.5903 69.4141 27.2895 69.4141ZM33.942 70.1055C35.3834 70.1055 36.2623 69.3379 36.5084 68.2246L36.5201 68.1777L35.7467 68.1836L35.735 68.2129C35.5123 68.9746 34.8678 69.4141 33.9362 69.4141C32.6881 69.4141 31.8854 68.4004 31.8854 66.8301V66.8184C31.8854 65.2656 32.6823 64.2754 33.9362 64.2754C34.903 64.2754 35.5592 64.8086 35.7467 65.5352L35.7526 65.5527L36.5201 65.5469V65.5234C36.3268 64.416 35.3834 63.584 33.9362 63.584C32.1959 63.584 31.0944 64.8496 31.0944 66.8184V66.8301C31.0944 68.8281 32.2018 70.1055 33.942 70.1055ZM39.8797 70.1055C40.8582 70.1055 41.5672 69.6602 41.8778 68.8984H41.9481V70H42.7215V63.6895H41.9481V67.4395C41.9481 68.6348 41.245 69.4141 40.0672 69.4141C38.9832 69.4141 38.4383 68.7754 38.4383 67.5977V63.6895H37.6649V67.791C37.6649 69.2383 38.4618 70.1055 39.8797 70.1055ZM44.294 70H45.0674V66.0625C45.0674 65.043 45.794 64.3223 46.7784 64.3223C47.0186 64.3223 47.2237 64.3457 47.4522 64.4043V63.6426C47.2998 63.6074 47.0889 63.584 46.8604 63.584C46.0049 63.584 45.3897 64.0059 45.1436 64.7266H45.0674V63.6895H44.294V70ZM49.9856 70.1055C50.9172 70.1055 51.6731 69.666 52.0481 68.916H52.1184V70H52.8977V65.6875C52.8977 64.3574 52.0364 63.584 50.5598 63.584C49.2532 63.584 48.2981 64.2285 48.134 65.2363L48.1282 65.2598H48.9075L48.9133 65.248C49.0774 64.6211 49.6809 64.2754 50.5364 64.2754C51.5559 64.2754 52.1184 64.7676 52.1184 65.6934V66.2852L50.1497 66.4141C48.6907 66.5137 47.8762 67.1523 47.8762 68.248V68.2598C47.8762 69.3848 48.7668 70.1055 49.9856 70.1055ZM48.6672 68.248V68.2363C48.6672 67.5215 49.1829 67.1172 50.2551 67.0469L52.1184 66.918V67.6504C52.1184 68.6523 51.2629 69.4258 50.1321 69.4258C49.2825 69.4258 48.6672 68.9688 48.6672 68.248ZM54.435 70H55.2085V66.25C55.2085 65.0605 55.9643 64.2754 57.0776 64.2754C58.1733 64.2754 58.7182 64.8906 58.7182 66.0918V70H59.4917V65.8984C59.4917 64.4277 58.6889 63.584 57.2827 63.584C56.2983 63.584 55.6186 64.0352 55.2846 64.7969H55.2085V63.6895H54.435V70ZM63.361 70.1055C64.3337 70.1055 65.113 69.5898 65.4821 68.7402H65.5524V70H66.3317V61.1758H65.5524V64.9199H65.4821C65.1305 64.1055 64.3161 63.584 63.361 63.584C61.7614 63.584 60.695 64.8848 60.695 66.8418V66.8535C60.695 68.7988 61.7673 70.1055 63.361 70.1055ZM63.5251 69.4141C62.277 69.4141 61.486 68.4121 61.486 66.8477V66.8359C61.486 65.2773 62.277 64.2754 63.5251 64.2754C64.7673 64.2754 65.57 65.2832 65.57 66.8359V66.8477C65.57 68.4062 64.7673 69.4141 63.5251 69.4141ZM70.5116 70.1055C72.2753 70.1055 73.3827 68.8574 73.3827 66.8477V66.8359C73.3827 64.8262 72.2753 63.584 70.5116 63.584C68.7479 63.584 67.6464 64.8262 67.6464 66.8359V66.8477C67.6464 68.8574 68.7479 70.1055 70.5116 70.1055ZM70.5116 69.4141C69.2108 69.4141 68.4374 68.4414 68.4374 66.8477V66.8359C68.4374 65.2422 69.2108 64.2754 70.5116 64.2754C71.8124 64.2754 72.5858 65.2422 72.5858 66.8359V66.8477C72.5858 68.4414 71.8124 69.4141 70.5116 69.4141ZM75.2423 70.0469C75.588 70.0469 75.8575 69.7715 75.8575 69.4316C75.8575 69.0859 75.588 68.8105 75.2423 68.8105C74.8966 68.8105 74.6212 69.0859 74.6212 69.4316C74.6212 69.7715 74.8966 70.0469 75.2423 70.0469ZM80.4849 70H81.2876V66.8125H83.4849C85.0962 66.8125 86.1978 65.7461 86.1978 64.1758V64.1641C86.1978 62.5938 85.0962 61.5449 83.4849 61.5449H80.4849V70ZM83.2974 62.2598C84.5981 62.2598 85.3833 62.9805 85.3833 64.1699V64.1816C85.3833 65.377 84.5981 66.0977 83.2974 66.0977H81.2876V62.2598H83.2974ZM89.7507 70.1055C91.5144 70.1055 92.6218 68.8574 92.6218 66.8477V66.8359C92.6218 64.8262 91.5144 63.584 89.7507 63.584C87.987 63.584 86.8855 64.8262 86.8855 66.8359V66.8477C86.8855 68.8574 87.987 70.1055 89.7507 70.1055ZM89.7507 69.4141C88.4499 69.4141 87.6765 68.4414 87.6765 66.8477V66.8359C87.6765 65.2422 88.4499 64.2754 89.7507 64.2754C91.0515 64.2754 91.8249 65.2422 91.8249 66.8359V66.8477C91.8249 68.4414 91.0515 69.4141 89.7507 69.4141ZM93.872 70H94.6454V66.0625C94.6454 65.043 95.372 64.3223 96.3564 64.3223C96.5966 64.3223 96.8017 64.3457 97.0302 64.4043V63.6426C96.8778 63.6074 96.6669 63.584 96.4384 63.584C95.5829 63.584 94.9677 64.0059 94.7216 64.7266H94.6454V63.6895H93.872V70ZM101.189 70H101.968V64.3398H103.445V63.6895H101.968V62.8984C101.968 62.166 102.302 61.7676 103.029 61.7676C103.21 61.7676 103.386 61.7793 103.503 61.7969V61.1699C103.31 61.1348 103.117 61.1172 102.888 61.1172C101.786 61.1172 101.189 61.709 101.189 62.8809V63.6895H100.14V64.3398H101.189V70ZM106.095 70.1055C107.027 70.1055 107.783 69.666 108.158 68.916H108.228V70H109.007V65.6875C109.007 64.3574 108.146 63.584 106.669 63.584C105.363 63.584 104.408 64.2285 104.244 65.2363L104.238 65.2598H105.017L105.023 65.248C105.187 64.6211 105.791 64.2754 106.646 64.2754C107.666 64.2754 108.228 64.7676 108.228 65.6934V66.2852L106.259 66.4141C104.8 66.5137 103.986 67.1523 103.986 68.248V68.2598C103.986 69.3848 104.877 70.1055 106.095 70.1055ZM104.777 68.248V68.2363C104.777 67.5215 105.293 67.1172 106.365 67.0469L108.228 66.918V67.6504C108.228 68.6523 107.373 69.4258 106.242 69.4258C105.392 69.4258 104.777 68.9688 104.777 68.248ZM112.103 70H112.924L115.279 63.6895H114.453L112.549 69.1621H112.478L110.568 63.6895H109.748L112.103 70ZM118.58 70.1055C120.344 70.1055 121.451 68.8574 121.451 66.8477V66.8359C121.451 64.8262 120.344 63.584 118.58 63.584C116.816 63.584 115.715 64.8262 115.715 66.8359V66.8477C115.715 68.8574 116.816 70.1055 118.58 70.1055ZM118.58 69.4141C117.279 69.4141 116.506 68.4414 116.506 66.8477V66.8359C116.506 65.2422 117.279 64.2754 118.58 64.2754C119.881 64.2754 120.654 65.2422 120.654 66.8359V66.8477C120.654 68.4414 119.881 69.4141 118.58 69.4141ZM122.701 70H123.475V66.0625C123.475 65.043 124.201 64.3223 125.186 64.3223C125.426 64.3223 125.631 64.3457 125.86 64.4043V63.6426C125.707 63.6074 125.496 63.584 125.268 63.584C124.412 63.584 123.797 64.0059 123.551 64.7266H123.475V63.6895H122.701V70ZM125.762 72.0449H126.348L127.192 68.9277H126.295L125.762 72.0449ZM133.97 70.041C134.157 70.041 134.333 70.0234 134.509 69.9941V69.3262C134.35 69.3438 134.233 69.3496 134.057 69.3496C133.343 69.3496 133.067 69.0273 133.067 68.2539V64.3398H134.509V63.6895H133.067V62.0488H132.264V63.6895H131.251V64.3398H132.264V68.4297C132.264 69.5781 132.762 70.041 133.97 70.041ZM138.144 70.1055C139.538 70.1055 140.458 69.3438 140.704 68.4883L140.722 68.4414H139.942L139.919 68.4824C139.714 68.9746 139.081 69.4082 138.161 69.4082C136.907 69.4082 136.099 68.5234 136.075 67.0469H140.815V66.7188C140.815 64.8496 139.772 63.584 138.079 63.584C136.386 63.584 135.284 64.8848 135.284 66.8535V66.8652C135.284 68.8457 136.374 70.1055 138.144 70.1055ZM138.079 64.2754C139.163 64.2754 139.942 65.0137 140.03 66.4141H136.081C136.181 65.0488 136.989 64.2754 138.079 64.2754ZM142.071 70H142.845V66.25C142.845 65.0605 143.601 64.2754 144.714 64.2754C145.81 64.2754 146.355 64.8906 146.355 66.0918V70H147.128V65.8984C147.128 64.4277 146.325 63.584 144.919 63.584C143.935 63.584 143.255 64.0352 142.921 64.7969H142.845V63.6895H142.071V70ZM150.734 70.041C150.921 70.041 151.097 70.0234 151.273 69.9941V69.3262C151.115 69.3438 150.997 69.3496 150.822 69.3496C150.107 69.3496 149.831 69.0273 149.831 68.2539V64.3398H151.273V63.6895H149.831V62.0488H149.029V63.6895H148.015V64.3398H149.029V68.4297C149.029 69.5781 149.527 70.041 150.734 70.041ZM154.908 70.1055C156.302 70.1055 157.222 69.3438 157.468 68.4883L157.486 68.4414H156.707L156.683 68.4824C156.478 68.9746 155.845 69.4082 154.925 69.4082C153.671 69.4082 152.863 68.5234 152.839 67.0469H157.58V66.7188C157.58 64.8496 156.537 63.584 154.843 63.584C153.15 63.584 152.048 64.8848 152.048 66.8535V66.8652C152.048 68.8457 153.138 70.1055 154.908 70.1055ZM154.843 64.2754C155.927 64.2754 156.707 65.0137 156.795 66.4141H152.845C152.945 65.0488 153.754 64.2754 154.843 64.2754ZM161.662 70H162.436V66.25C162.436 65.0605 163.191 64.2754 164.305 64.2754C165.4 64.2754 165.945 64.8906 165.945 66.0918V70H166.719V65.8984C166.719 64.4277 165.916 63.584 164.51 63.584C163.525 63.584 162.846 64.0352 162.512 64.7969H162.436V63.6895H161.662V70ZM170.787 70.1055C172.551 70.1055 173.658 68.8574 173.658 66.8477V66.8359C173.658 64.8262 172.551 63.584 170.787 63.584C169.024 63.584 167.922 64.8262 167.922 66.8359V66.8477C167.922 68.8574 169.024 70.1055 170.787 70.1055ZM170.787 69.4141C169.487 69.4141 168.713 68.4414 168.713 66.8477V66.8359C168.713 65.2422 169.487 64.2754 170.787 64.2754C172.088 64.2754 172.862 65.2422 172.862 66.8359V66.8477C172.862 68.4414 172.088 69.4141 170.787 69.4141ZM176.444 70H177.264L179.62 63.6895H178.793L176.889 69.1621H176.819L174.909 63.6895H174.088L176.444 70ZM182.1 70.1055C183.032 70.1055 183.788 69.666 184.163 68.916H184.233V70H185.012V65.6875C185.012 64.3574 184.151 63.584 182.674 63.584C181.368 63.584 180.413 64.2285 180.249 65.2363L180.243 65.2598H181.022L181.028 65.248C181.192 64.6211 181.796 64.2754 182.651 64.2754C183.671 64.2754 184.233 64.7676 184.233 65.6934V66.2852L182.264 66.4141C180.805 66.5137 179.991 67.1523 179.991 68.248V68.2598C179.991 69.3848 180.882 70.1055 182.1 70.1055ZM180.782 68.248V68.2363C180.782 67.5215 181.298 67.1172 182.37 67.0469L184.233 66.918V67.6504C184.233 68.6523 183.378 69.4258 182.247 69.4258C181.397 69.4258 180.782 68.9688 180.782 68.248ZM186.55 70H187.323V66.127C187.323 65.0957 188.026 64.2754 188.94 64.2754C189.813 64.2754 190.388 64.8672 190.388 65.7754V70H191.161V65.998C191.161 65.0195 191.811 64.2754 192.784 64.2754C193.733 64.2754 194.231 64.8262 194.231 65.8574V70H195.011V65.6816C195.011 64.3457 194.278 63.584 193.013 63.584C192.104 63.584 191.366 64.0703 191.044 64.8262H190.968C190.698 64.0703 190.065 63.584 189.181 63.584C188.319 63.584 187.669 64.0469 187.399 64.8027H187.323V63.6895H186.55V70ZM199.067 70.1055C200.462 70.1055 201.382 69.3438 201.628 68.4883L201.646 68.4414H200.866L200.843 68.4824C200.638 68.9746 200.005 69.4082 199.085 69.4082C197.831 69.4082 197.023 68.5234 196.999 67.0469H201.739V66.7188C201.739 64.8496 200.696 63.584 199.003 63.584C197.31 63.584 196.208 64.8848 196.208 66.8535V66.8652C196.208 68.8457 197.298 70.1055 199.067 70.1055ZM199.003 64.2754C200.087 64.2754 200.866 65.0137 200.954 66.4141H197.005C197.105 65.0488 197.913 64.2754 199.003 64.2754ZM202.995 70H203.769V66.25C203.769 65.0605 204.525 64.2754 205.638 64.2754C206.734 64.2754 207.279 64.8906 207.279 66.0918V70H208.052V65.8984C208.052 64.4277 207.249 63.584 205.843 63.584C204.859 63.584 204.179 64.0352 203.845 64.7969H203.769V63.6895H202.995V70ZM211.658 70.041C211.845 70.041 212.021 70.0234 212.197 69.9941V69.3262C212.039 69.3438 211.921 69.3496 211.746 69.3496C211.031 69.3496 210.755 69.0273 210.755 68.2539V64.3398H212.197V63.6895H210.755V62.0488H209.953V63.6895H208.939V64.3398H209.953V68.4297C209.953 69.5781 210.451 70.041 211.658 70.041ZM215.832 70.1055C217.226 70.1055 218.146 69.3438 218.392 68.4883L218.41 68.4414H217.631L217.607 68.4824C217.402 68.9746 216.769 69.4082 215.849 69.4082C214.595 69.4082 213.787 68.5234 213.763 67.0469H218.504V66.7188C218.504 64.8496 217.461 63.584 215.767 63.584C214.074 63.584 212.972 64.8848 212.972 66.8535V66.8652C212.972 68.8457 214.062 70.1055 215.832 70.1055ZM215.767 64.2754C216.851 64.2754 217.631 65.0137 217.718 66.4141H213.769C213.869 65.0488 214.677 64.2754 215.767 64.2754ZM222.586 70H223.359V66.127C223.359 65.0957 224.063 64.2754 224.977 64.2754C225.85 64.2754 226.424 64.8672 226.424 65.7754V70H227.197V65.998C227.197 65.0195 227.848 64.2754 228.82 64.2754C229.77 64.2754 230.268 64.8262 230.268 65.8574V70H231.047V65.6816C231.047 64.3457 230.315 63.584 229.049 63.584C228.141 63.584 227.402 64.0703 227.08 64.8262H227.004C226.734 64.0703 226.102 63.584 225.217 63.584C224.356 63.584 223.705 64.0469 223.436 64.8027H223.359V63.6895H222.586V70ZM234.301 70.1055C235.233 70.1055 235.989 69.666 236.364 68.916H236.434V70H237.213V65.6875C237.213 64.3574 236.352 63.584 234.875 63.584C233.569 63.584 232.614 64.2285 232.45 65.2363L232.444 65.2598H233.223L233.229 65.248C233.393 64.6211 233.996 64.2754 234.852 64.2754C235.871 64.2754 236.434 64.7676 236.434 65.6934V66.2852L234.465 66.4141C233.006 66.5137 232.192 67.1523 232.192 68.248V68.2598C232.192 69.3848 233.082 70.1055 234.301 70.1055ZM232.983 68.248V68.2363C232.983 67.5215 233.498 67.1172 234.571 67.0469L236.434 66.918V67.6504C236.434 68.6523 235.578 69.4258 234.448 69.4258C233.598 69.4258 232.983 68.9688 232.983 68.248ZM239.178 62.377C239.489 62.377 239.747 62.125 239.747 61.8086C239.747 61.4922 239.489 61.2402 239.178 61.2402C238.862 61.2402 238.604 61.4922 238.604 61.8086C238.604 62.125 238.862 62.377 239.178 62.377ZM238.786 70H239.559V63.6895H238.786V70ZM243.288 70.1055C244.665 70.1055 245.725 69.3438 245.725 68.2598V68.248C245.725 67.3398 245.134 66.8477 243.915 66.5547L243.042 66.3496C242.204 66.1504 241.817 65.8516 241.817 65.3359V65.3242C241.817 64.6973 242.468 64.2344 243.294 64.2344C244.132 64.2344 244.718 64.6328 244.858 65.2188H245.62C245.473 64.2227 244.571 63.584 243.3 63.584C242.028 63.584 241.026 64.3398 241.026 65.3594V65.3652C241.026 66.25 241.571 66.7363 242.743 67.0117L243.622 67.2227C244.542 67.4395 244.934 67.7617 244.934 68.3066V68.3184C244.934 68.9746 244.237 69.4492 243.311 69.4492C242.397 69.4492 241.794 69.0449 241.624 68.418H240.827C240.956 69.4492 241.911 70.1055 243.288 70.1055ZM16.0762 92.041C16.2637 92.041 16.4395 92.0234 16.6152 91.9941V91.3262C16.457 91.3438 16.3398 91.3496 16.1641 91.3496C15.4492 91.3496 15.1738 91.0273 15.1738 90.2539V86.3398H16.6152V85.6895H15.1738V84.0488H14.3711V85.6895H13.3574V86.3398H14.3711V90.4297C14.3711 91.5781 14.8691 92.041 16.0762 92.041ZM19.4709 92.1055C20.4025 92.1055 21.1584 91.666 21.5334 90.916H21.6037V92H22.383V87.6875C22.383 86.3574 21.5217 85.584 20.0451 85.584C18.7385 85.584 17.7834 86.2285 17.6193 87.2363L17.6135 87.2598H18.3928L18.3986 87.248C18.5627 86.6211 19.1662 86.2754 20.0217 86.2754C21.0412 86.2754 21.6037 86.7676 21.6037 87.6934V88.2852L19.635 88.4141C18.176 88.5137 17.3615 89.1523 17.3615 90.248V90.2598C17.3615 91.3848 18.2522 92.1055 19.4709 92.1055ZM18.1525 90.248V90.2363C18.1525 89.5215 18.6682 89.1172 19.7404 89.0469L21.6037 88.918V89.6504C21.6037 90.6523 20.7483 91.4258 19.6174 91.4258C18.7678 91.4258 18.1525 90.9688 18.1525 90.248ZM23.9203 92H24.6938V88.0625C24.6938 87.043 25.4203 86.3223 26.4047 86.3223C26.6449 86.3223 26.85 86.3457 27.0785 86.4043V85.6426C26.9262 85.6074 26.7153 85.584 26.4867 85.584C25.6313 85.584 25.016 86.0059 24.7699 86.7266H24.6938V85.6895H23.9203V92ZM30.1393 92.1055C31.1119 92.1055 31.8912 91.5898 32.2604 90.7402H32.3307V92H33.11V83.1758H32.3307V86.9199H32.2604C31.9088 86.1055 31.0944 85.584 30.1393 85.584C28.5397 85.584 27.4733 86.8848 27.4733 88.8418V88.8535C27.4733 90.7988 28.5455 92.1055 30.1393 92.1055ZM30.3033 91.4141C29.0553 91.4141 28.2643 90.4121 28.2643 88.8477V88.8359C28.2643 87.2773 29.0553 86.2754 30.3033 86.2754C31.5455 86.2754 32.3483 87.2832 32.3483 88.8359V88.8477C32.3483 90.4062 31.5455 91.4141 30.3033 91.4141ZM37.284 92.1055C38.6785 92.1055 39.5985 91.3438 39.8446 90.4883L39.8621 90.4414H39.0828L39.0594 90.4824C38.8543 90.9746 38.2215 91.4082 37.3016 91.4082C36.0477 91.4082 35.2391 90.5234 35.2157 89.0469H39.9559V88.7188C39.9559 86.8496 38.9129 85.584 37.2196 85.584C35.5262 85.584 34.4246 86.8848 34.4246 88.8535V88.8652C34.4246 90.8457 35.5145 92.1055 37.284 92.1055ZM37.2196 86.2754C38.3035 86.2754 39.0828 87.0137 39.1707 88.4141H35.2215C35.3211 87.0488 36.1297 86.2754 37.2196 86.2754ZM41.6573 89.3223H42.4014L42.4659 83.5391H41.587L41.6573 89.3223ZM42.0264 92.082C42.4131 92.082 42.6827 91.8066 42.6827 91.4258C42.6827 91.0391 42.4131 90.7637 42.0264 90.7637C41.6455 90.7637 41.3702 91.0391 41.3702 91.4258C41.3702 91.8066 41.6455 92.082 42.0264 92.082Z" fill="#180B5A"/>
</svg>
