<svg width="285" height="113" viewBox="0 0 285 113" fill="none" xmlns="http://www.w3.org/2000/svg">
<rect width="285" height="113" rx="10" fill="#EBEBFF"/>
<path d="M20.5098 29.2529C23.4219 29.2529 25.2539 27.2568 25.2539 24.0713V24.0576C25.2539 20.8721 23.415 18.8828 20.5098 18.8828C17.6045 18.8828 15.7588 20.8652 15.7588 24.0576V24.0713C15.7588 27.2568 17.5771 29.2529 20.5098 29.2529ZM20.5098 27.5029C18.8828 27.5029 17.8643 26.1562 17.8643 24.0713V24.0576C17.8643 21.9658 18.9033 20.6328 20.5098 20.6328C22.1094 20.6328 23.1484 21.9658 23.1484 24.0576V24.0713C23.1484 26.1562 22.1162 27.5029 20.5098 27.5029ZM26.6096 31.4951H28.6057V27.7969H28.7287C29.1115 28.6172 29.9524 29.1162 30.9846 29.1162C32.8918 29.1162 34.0402 27.6602 34.0402 25.2402V25.2266C34.0402 22.8271 32.8645 21.3506 30.9846 21.3506C29.9182 21.3506 29.1184 21.8291 28.7287 22.6357H28.6057V21.4736H26.6096V31.4951ZM30.301 27.4619C29.2551 27.4619 28.5852 26.6211 28.5852 25.2402V25.2266C28.5852 23.8457 29.2483 23.0049 30.301 23.0049C31.3606 23.0049 32.01 23.8457 32.01 25.2266V25.2402C32.01 26.6211 31.3537 27.4619 30.301 27.4619ZM38.2602 29.1572C40.1879 29.1572 41.5619 28.1865 41.5619 26.6963V26.6895C41.5619 25.5752 40.8578 24.9463 39.3539 24.625L38.1029 24.3584C37.3236 24.1875 37.0434 23.9551 37.0434 23.5518V23.5449C37.0434 23.0391 37.5356 22.7178 38.226 22.7178C38.9711 22.7178 39.4154 23.0938 39.5248 23.4971L39.5317 23.5312H41.3842V23.5039C41.3022 22.2939 40.2084 21.3096 38.2328 21.3096C36.3529 21.3096 35.0951 22.2529 35.0951 23.668V23.6748C35.0951 24.8027 35.8061 25.5068 37.2416 25.8145L38.4994 26.0811C39.2651 26.252 39.5658 26.5049 39.5658 26.9082V26.9219C39.5658 27.4209 39.0463 27.749 38.2807 27.749C37.4945 27.749 37.0365 27.4141 36.8793 26.9492L36.8656 26.9219H34.9037L34.9106 26.9492C35.0541 28.2412 36.2162 29.1572 38.2602 29.1572ZM44.2233 29.1709C44.9274 29.1709 45.4264 28.6582 45.4264 27.9814C45.4264 27.3047 44.9274 26.7988 44.2233 26.7988C43.526 26.7988 43.0201 27.3047 43.0201 27.9814C43.0201 28.6582 43.526 29.1709 44.2233 29.1709ZM48.6825 29.1709C49.3866 29.1709 49.8856 28.6582 49.8856 27.9814C49.8856 27.3047 49.3866 26.7988 48.6825 26.7988C47.9852 26.7988 47.4793 27.3047 47.4793 27.9814C47.4793 28.6582 47.9852 29.1709 48.6825 29.1709ZM53.1416 29.1709C53.8457 29.1709 54.3448 28.6582 54.3448 27.9814C54.3448 27.3047 53.8457 26.7988 53.1416 26.7988C52.4444 26.7988 51.9385 27.3047 51.9385 27.9814C51.9385 28.6582 52.4444 29.1709 53.1416 29.1709ZM58.8608 29H61.0278L61.7592 26.6074H65.2387L65.9702 29H68.144L64.7124 19.1357H62.2856L58.8608 29ZM63.4409 21.1045H63.5639L64.767 25.0625H62.2309L63.4409 21.1045ZM69.2809 29H71.277V18.5957H69.2809V29ZM76.2557 31.6455C78.5321 31.6455 79.9745 30.5312 79.9745 28.7676V21.4736H77.9784V22.7041H77.8827C77.4794 21.8564 76.6727 21.3506 75.6405 21.3506C73.7128 21.3506 72.5438 22.8408 72.5438 25.0557V25.0693C72.5438 27.209 73.7128 28.6719 75.6063 28.6719C76.6522 28.6719 77.4452 28.2412 77.8622 27.4482H77.9852V28.8496C77.9852 29.7246 77.3632 30.2236 76.2967 30.2236C75.4081 30.2236 74.8885 29.9229 74.7792 29.4854L74.7723 29.458H72.7967V29.4922C72.9608 30.7705 74.1708 31.6455 76.2557 31.6455ZM76.2831 27.1406C75.203 27.1406 74.5878 26.2998 74.5878 25.0625V25.0488C74.5878 23.8115 75.2098 22.9707 76.2831 22.9707C77.3563 22.9707 78.0057 23.8115 78.0057 25.0488V25.0625C78.0057 26.2998 77.3632 27.1406 76.2831 27.1406ZM84.9053 29.1572C87.2227 29.1572 88.6173 27.6943 88.6173 25.2402V25.2266C88.6173 22.793 87.2022 21.3096 84.9053 21.3096C82.6085 21.3096 81.1934 22.7998 81.1934 25.2266V25.2402C81.1934 27.6875 82.588 29.1572 84.9053 29.1572ZM84.9053 27.5918C83.8389 27.5918 83.2374 26.7236 83.2374 25.2402V25.2266C83.2374 23.7568 83.8458 22.875 84.9053 22.875C85.9581 22.875 86.5733 23.7568 86.5733 25.2266V25.2402C86.5733 26.7236 85.9649 27.5918 84.9053 27.5918ZM95.7241 29.1162C96.7837 29.1162 97.5835 28.6445 97.9731 27.8311H98.0962V29H100.092V18.5957H98.0962V22.6768H97.9731C97.5972 21.8564 96.7563 21.3506 95.7241 21.3506C93.8169 21.3506 92.6685 22.8066 92.6685 25.2266V25.2402C92.6685 27.6465 93.8442 29.1162 95.7241 29.1162ZM96.4009 27.4619C95.3481 27.4619 94.6987 26.6279 94.6987 25.2402V25.2266C94.6987 23.8525 95.3481 23.0049 96.4009 23.0049C97.4536 23.0049 98.1167 23.8525 98.1167 25.2334V25.2471C98.1167 26.6279 97.4604 27.4619 96.4009 27.4619ZM105.057 29.1572C107.258 29.1572 108.229 27.8857 108.462 26.9424L108.475 26.874H106.616L106.595 26.915C106.459 27.2021 105.973 27.667 105.098 27.667C104.039 27.667 103.376 26.9492 103.355 25.7119H108.537V25.0898C108.537 22.8135 107.17 21.3096 104.975 21.3096C102.781 21.3096 101.38 22.8477 101.38 25.2402V25.2471C101.38 27.6602 102.767 29.1572 105.057 29.1572ZM105.009 22.8066C105.878 22.8066 106.5 23.3672 106.623 24.4609H103.376C103.499 23.3945 104.141 22.8066 105.009 22.8066ZM112.251 29.1572C113.324 29.1572 114.09 28.6582 114.432 27.8379H114.555V29H116.551V21.4736H114.555V25.8213C114.555 26.8398 114.021 27.5029 113.037 27.5029C112.094 27.5029 111.69 26.9492 111.69 25.8828V21.4736H109.694V26.3408C109.694 28.1318 110.562 29.1572 112.251 29.1572ZM124.656 29.1572C126.857 29.1572 127.827 27.8857 128.06 26.9424L128.074 26.874H126.214L126.194 26.915C126.057 27.2021 125.572 27.667 124.697 27.667C123.637 27.667 122.974 26.9492 122.953 25.7119H128.135V25.0898C128.135 22.8135 126.768 21.3096 124.574 21.3096C122.379 21.3096 120.978 22.8477 120.978 25.2402V25.2471C120.978 27.6602 122.366 29.1572 124.656 29.1572ZM124.608 22.8066C125.476 22.8066 126.098 23.3672 126.221 24.4609H122.974C123.097 23.3945 123.74 22.8066 124.608 22.8066ZM129.361 29H131.357V24.7891C131.357 23.7227 132.075 23.0732 133.21 23.0732C133.517 23.0732 133.825 23.1211 134.126 23.1895V21.4463C133.927 21.3916 133.647 21.3506 133.38 21.3506C132.403 21.3506 131.719 21.8291 131.48 22.6426H131.357V21.4736H129.361V29ZM135.119 29H137.115V24.7891C137.115 23.7227 137.833 23.0732 138.968 23.0732C139.275 23.0732 139.583 23.1211 139.884 23.1895V21.4463C139.685 21.3916 139.405 21.3506 139.138 21.3506C138.161 21.3506 137.477 21.8291 137.238 22.6426H137.115V21.4736H135.119V29ZM142.723 29.1162C143.707 29.1162 144.5 28.6992 144.883 28.002H145.006V29H146.975V23.8594C146.975 22.2529 145.847 21.3096 143.851 21.3096C141.957 21.3096 140.713 22.1846 140.556 23.5039L140.549 23.5654H142.394L142.408 23.5381C142.565 23.0938 143.023 22.8408 143.741 22.8408C144.561 22.8408 145.006 23.21 145.006 23.8594V24.4814L143.187 24.5908C141.314 24.7002 140.269 25.4932 140.269 26.8467V26.8604C140.269 28.2275 141.287 29.1162 142.723 29.1162ZM142.217 26.7373V26.7236C142.217 26.1768 142.634 25.8555 143.488 25.8008L145.006 25.7051V26.2588C145.006 27.0518 144.315 27.6602 143.393 27.6602C142.702 27.6602 142.217 27.3115 142.217 26.7373ZM151.208 29.1162C152.268 29.1162 153.068 28.6445 153.457 27.8311H153.58V29H155.576V18.5957H153.58V22.6768H153.457C153.081 21.8564 152.24 21.3506 151.208 21.3506C149.301 21.3506 148.152 22.8066 148.152 25.2266V25.2402C148.152 27.6465 149.328 29.1162 151.208 29.1162ZM151.885 27.4619C150.832 27.4619 150.183 26.6279 150.183 25.2402V25.2266C150.183 23.8525 150.832 23.0049 151.885 23.0049C152.938 23.0049 153.601 23.8525 153.601 25.2334V25.2471C153.601 26.6279 152.944 27.4619 151.885 27.4619ZM160.576 29.1572C162.893 29.1572 164.287 27.6943 164.287 25.2402V25.2266C164.287 22.793 162.872 21.3096 160.576 21.3096C158.279 21.3096 156.864 22.7998 156.864 25.2266V25.2402C156.864 27.6875 158.258 29.1572 160.576 29.1572ZM160.576 27.5918C159.509 27.5918 158.908 26.7236 158.908 25.2402V25.2266C158.908 23.7568 159.516 22.875 160.576 22.875C161.628 22.875 162.244 23.7568 162.244 25.2266V25.2402C162.244 26.7236 161.635 27.5918 160.576 27.5918ZM166.087 25.7461H167.913L168.097 19.1289H165.91L166.087 25.7461ZM167.003 29.1982C167.776 29.1982 168.248 28.7607 168.248 28.0566C168.248 27.3457 167.776 26.9082 167.003 26.9082C166.238 26.9082 165.759 27.3457 165.759 28.0566C165.759 28.7607 166.238 29.1982 167.003 29.1982Z" fill="#180B5A"/>
<path d="M16.084 48H16.875V40.9746H16.9512L21.8965 48H22.6699V39.5449H21.8789V46.5645H21.8027L16.875 39.5449H16.084V48ZM27.5236 40.7109C28.1975 40.7109 28.59 40.125 28.59 39.2051V39.1348H27.9514V39.1816C27.9514 39.7676 27.7639 40.1074 27.4592 40.1074C27.2717 40.1074 27.1311 40.0195 26.885 39.7676L26.8029 39.6797C26.4807 39.3516 26.1936 39.1523 25.7834 39.1523C25.1096 39.1523 24.717 39.7383 24.717 40.6582V40.7285H25.3557V40.6816C25.3557 40.0957 25.5432 39.7559 25.8479 39.7559C26.0354 39.7559 26.176 39.8438 26.4221 40.0957L26.5041 40.1836C26.8205 40.5117 27.1135 40.7109 27.5236 40.7109ZM26.0764 48.1055C27.008 48.1055 27.7639 47.666 28.1389 46.916H28.2092V48H28.9885V43.6875C28.9885 42.3574 28.1272 41.584 26.6506 41.584C25.344 41.584 24.3889 42.2285 24.2248 43.2363L24.219 43.2598H24.9983L25.0041 43.248C25.1682 42.6211 25.7717 42.2754 26.6272 42.2754C27.6467 42.2754 28.2092 42.7676 28.2092 43.6934V44.2852L26.2404 44.4141C24.7815 44.5137 23.967 45.1523 23.967 46.248V46.2598C23.967 47.3848 24.8576 48.1055 26.0764 48.1055ZM24.758 46.248V46.2363C24.758 45.5215 25.2736 45.1172 26.3459 45.0469L28.2092 44.918V45.6504C28.2092 46.6523 27.3537 47.4258 26.2229 47.4258C25.3733 47.4258 24.758 46.9688 24.758 46.248ZM33.0746 48.1055C34.8383 48.1055 35.9457 46.8574 35.9457 44.8477V44.8359C35.9457 42.8262 34.8383 41.584 33.0746 41.584C31.311 41.584 30.2094 42.8262 30.2094 44.8359V44.8477C30.2094 46.8574 31.311 48.1055 33.0746 48.1055ZM33.0746 47.4141C31.7738 47.4141 31.0004 46.4414 31.0004 44.8477V44.8359C31.0004 43.2422 31.7738 42.2754 33.0746 42.2754C34.3754 42.2754 35.1488 43.2422 35.1488 44.8359V44.8477C35.1488 46.4414 34.3754 47.4141 33.0746 47.4141ZM42.5535 48.1055C43.995 48.1055 44.8739 47.3379 45.12 46.2246L45.1317 46.1777L44.3582 46.1836L44.3465 46.2129C44.1239 46.9746 43.4793 47.4141 42.5477 47.4141C41.2996 47.4141 40.4969 46.4004 40.4969 44.8301V44.8184C40.4969 43.2656 41.2938 42.2754 42.5477 42.2754C43.5145 42.2754 44.1707 42.8086 44.3582 43.5352L44.3641 43.5527L45.1317 43.5469V43.5234C44.9383 42.416 43.995 41.584 42.5477 41.584C40.8075 41.584 39.7059 42.8496 39.7059 44.8184V44.8301C39.7059 46.8281 40.8133 48.1055 42.5535 48.1055ZM48.878 48.1055C50.6416 48.1055 51.7491 46.8574 51.7491 44.8477V44.8359C51.7491 42.8262 50.6416 41.584 48.878 41.584C47.1143 41.584 46.0127 42.8262 46.0127 44.8359V44.8477C46.0127 46.8574 47.1143 48.1055 48.878 48.1055ZM48.878 47.4141C47.5772 47.4141 46.8037 46.4414 46.8037 44.8477V44.8359C46.8037 43.2422 47.5772 42.2754 48.878 42.2754C50.1787 42.2754 50.9522 43.2422 50.9522 44.8359V44.8477C50.9522 46.4414 50.1787 47.4141 48.878 47.4141ZM52.9993 48H53.7727V44.25C53.7727 43.0605 54.5286 42.2754 55.6418 42.2754C56.7375 42.2754 57.2825 42.8906 57.2825 44.0918V48H58.0559V43.8984C58.0559 42.4277 57.2532 41.584 55.8469 41.584C54.8625 41.584 54.1829 42.0352 53.8489 42.7969H53.7727V41.6895H52.9993V48ZM61.6967 48.1055C63.0737 48.1055 64.1342 47.3438 64.1342 46.2598V46.248C64.1342 45.3398 63.5424 44.8477 62.3237 44.5547L61.4506 44.3496C60.6128 44.1504 60.226 43.8516 60.226 43.3359V43.3242C60.226 42.6973 60.8764 42.2344 61.7026 42.2344C62.5405 42.2344 63.1264 42.6328 63.267 43.2188H64.0288C63.8823 42.2227 62.9799 41.584 61.7085 41.584C60.437 41.584 59.435 42.3398 59.435 43.3594V43.3652C59.435 44.25 59.9799 44.7363 61.1518 45.0117L62.0307 45.2227C62.9506 45.4395 63.3432 45.7617 63.3432 46.3066V46.3184C63.3432 46.9746 62.646 47.4492 61.7202 47.4492C60.8061 47.4492 60.2026 47.0449 60.0327 46.418H59.2358C59.3647 47.4492 60.3198 48.1055 61.6967 48.1055ZM67.9098 48.1055C69.3044 48.1055 70.2243 47.3438 70.4704 46.4883L70.488 46.4414H69.7087L69.6852 46.4824C69.4801 46.9746 68.8473 47.4082 67.9274 47.4082C66.6735 47.4082 65.8649 46.5234 65.8415 45.0469H70.5817V44.7188C70.5817 42.8496 69.5387 41.584 67.8454 41.584C66.152 41.584 65.0505 42.8848 65.0505 44.8535V44.8652C65.0505 46.8457 66.1403 48.1055 67.9098 48.1055ZM67.8454 42.2754C68.9294 42.2754 69.7087 43.0137 69.7965 44.4141H65.8473C65.9469 43.0488 66.7555 42.2754 67.8454 42.2754ZM74.3983 50.2031C76.0565 50.2031 77.1405 49.3008 77.1405 47.9238V41.6895H76.3612V42.9668H76.3085C75.9452 42.123 75.1659 41.584 74.1932 41.584C72.5643 41.584 71.5214 42.873 71.5214 44.6777V44.6895C71.5214 46.5 72.5585 47.7715 74.1815 47.7715C75.1483 47.7715 75.9217 47.291 76.2967 46.459H76.3729V47.8711C76.3729 48.8906 75.6171 49.5117 74.3983 49.5117C73.4374 49.5117 72.7811 49.1309 72.6405 48.5801L72.6346 48.5742H71.8319L71.826 48.5801C71.9901 49.5586 72.951 50.2031 74.3983 50.2031ZM74.3339 47.0801C73.0741 47.0801 72.3124 46.1016 72.3124 44.6895V44.6777C72.3124 43.2656 73.0741 42.2754 74.3339 42.2754C75.5819 42.2754 76.3846 43.2773 76.3846 44.6895V44.7012C76.3846 46.1133 75.5995 47.0801 74.3339 47.0801ZM80.8692 48.1055C81.8477 48.1055 82.5567 47.6602 82.8673 46.8984H82.9376V48H83.711V41.6895H82.9376V45.4395C82.9376 46.6348 82.2345 47.4141 81.0567 47.4141C79.9727 47.4141 79.4278 46.7754 79.4278 45.5977V41.6895H78.6544V45.791C78.6544 47.2383 79.4512 48.1055 80.8692 48.1055ZM85.7112 40.377C86.0218 40.377 86.2796 40.125 86.2796 39.8086C86.2796 39.4922 86.0218 39.2402 85.7112 39.2402C85.3948 39.2402 85.137 39.4922 85.137 39.8086C85.137 40.125 85.3948 40.377 85.7112 40.377ZM85.3186 48H86.0921V41.6895H85.3186V48ZM87.6997 48H88.4731V44.127C88.4731 43.0957 89.1763 42.2754 90.0903 42.2754C90.9634 42.2754 91.5376 42.8672 91.5376 43.7754V48H92.311V43.998C92.311 43.0195 92.9614 42.2754 93.9341 42.2754C94.8833 42.2754 95.3813 42.8262 95.3813 43.8574V48H96.1606V43.6816C96.1606 42.3457 95.4282 41.584 94.1626 41.584C93.2544 41.584 92.5161 42.0703 92.1938 42.8262H92.1177C91.8481 42.0703 91.2153 41.584 90.3306 41.584C89.4692 41.584 88.8188 42.0469 88.5493 42.8027H88.4731V41.6895H87.6997V48ZM100.223 48.1055C101.987 48.1055 103.094 46.8574 103.094 44.8477V44.8359C103.094 42.8262 101.987 41.584 100.223 41.584C98.4597 41.584 97.3581 42.8262 97.3581 44.8359V44.8477C97.3581 46.8574 98.4597 48.1055 100.223 48.1055ZM100.223 47.4141C98.9226 47.4141 98.1491 46.4414 98.1491 44.8477V44.8359C98.1491 43.2422 98.9226 42.2754 100.223 42.2754C101.524 42.2754 102.298 43.2422 102.298 44.8359V44.8477C102.298 46.4414 101.524 47.4141 100.223 47.4141ZM106.466 48.1055C107.843 48.1055 108.903 47.3438 108.903 46.2598V46.248C108.903 45.3398 108.311 44.8477 107.093 44.5547L106.22 44.3496C105.382 44.1504 104.995 43.8516 104.995 43.3359V43.3242C104.995 42.6973 105.645 42.2344 106.472 42.2344C107.309 42.2344 107.895 42.6328 108.036 43.2188H108.798C108.651 42.2227 107.749 41.584 106.477 41.584C105.206 41.584 104.204 42.3398 104.204 43.3594V43.3652C104.204 44.25 104.749 44.7363 105.921 45.0117L106.8 45.2227C107.72 45.4395 108.112 45.7617 108.112 46.3066V46.3184C108.112 46.9746 107.415 47.4492 106.489 47.4492C105.575 47.4492 104.972 47.0449 104.802 46.418H104.005C104.134 47.4492 105.089 48.1055 106.466 48.1055ZM113.021 48H113.794V39.1758H113.021V48ZM117.974 48.1055C119.738 48.1055 120.845 46.8574 120.845 44.8477V44.8359C120.845 42.8262 119.738 41.584 117.974 41.584C116.21 41.584 115.109 42.8262 115.109 44.8359V44.8477C115.109 46.8574 116.21 48.1055 117.974 48.1055ZM117.974 47.4141C116.673 47.4141 115.9 46.4414 115.9 44.8477V44.8359C115.9 43.2422 116.673 42.2754 117.974 42.2754C119.275 42.2754 120.048 43.2422 120.048 44.8359V44.8477C120.048 46.4414 119.275 47.4141 117.974 47.4141ZM124.627 48.1055C126.068 48.1055 126.947 47.3379 127.193 46.2246L127.205 46.1777L126.431 46.1836L126.42 46.2129C126.197 46.9746 125.552 47.4141 124.621 47.4141C123.373 47.4141 122.57 46.4004 122.57 44.8301V44.8184C122.57 43.2656 123.367 42.2754 124.621 42.2754C125.588 42.2754 126.244 42.8086 126.431 43.5352L126.437 43.5527L127.205 43.5469V43.5234C127.011 42.416 126.068 41.584 124.621 41.584C122.881 41.584 121.779 42.8496 121.779 44.8184V44.8301C121.779 46.8281 122.886 48.1055 124.627 48.1055ZM130.143 48.1055C131.074 48.1055 131.83 47.666 132.205 46.916H132.275V48H133.055V43.6875C133.055 42.3574 132.193 41.584 130.717 41.584C129.41 41.584 128.455 42.2285 128.291 43.2363L128.285 43.2598H129.064L129.07 43.248C129.234 42.6211 129.838 42.2754 130.693 42.2754C131.713 42.2754 132.275 42.7676 132.275 43.6934V44.2852L130.307 44.4141C128.848 44.5137 128.033 45.1523 128.033 46.248V46.2598C128.033 47.3848 128.924 48.1055 130.143 48.1055ZM128.824 46.248V46.2363C128.824 45.5215 129.34 45.1172 130.412 45.0469L132.275 44.918V45.6504C132.275 46.6523 131.42 47.4258 130.289 47.4258C129.439 47.4258 128.824 46.9688 128.824 46.248ZM134.651 48H135.424V39.1758H134.651V48ZM137.483 40.377C137.793 40.377 138.051 40.125 138.051 39.8086C138.051 39.4922 137.793 39.2402 137.483 39.2402C137.166 39.2402 136.909 39.4922 136.909 39.8086C136.909 40.125 137.166 40.377 137.483 40.377ZM137.09 48H137.864V41.6895H137.09V48ZM139.249 48H144.047V47.3496H140.18V47.2793L144.036 42.2812V41.6895H139.254V42.3398H143.116V42.4102L139.249 47.4141V48ZM147.143 48.1055C148.075 48.1055 148.831 47.666 149.206 46.916H149.276V48H150.055V43.6875C150.055 42.3574 149.194 41.584 147.718 41.584C146.411 41.584 145.456 42.2285 145.292 43.2363L145.286 43.2598H146.065L146.071 43.248C146.235 42.6211 146.839 42.2754 147.694 42.2754C148.714 42.2754 149.276 42.7676 149.276 43.6934V44.2852L147.307 44.4141C145.848 44.5137 145.034 45.1523 145.034 46.248V46.2598C145.034 47.3848 145.925 48.1055 147.143 48.1055ZM145.825 46.248V46.2363C145.825 45.5215 146.341 45.1172 147.413 45.0469L149.276 44.918V45.6504C149.276 46.6523 148.421 47.4258 147.29 47.4258C146.44 47.4258 145.825 46.9688 145.825 46.248ZM151.593 48H152.366V44.0625C152.366 43.043 153.093 42.3223 154.077 42.3223C154.317 42.3223 154.522 42.3457 154.751 42.4043V41.6426C154.599 41.6074 154.388 41.584 154.159 41.584C153.304 41.584 152.688 42.0059 152.442 42.7266H152.366V41.6895H151.593V48ZM160.228 48.1055C161.16 48.1055 161.915 47.666 162.29 46.916H162.361V48H163.14V43.6875C163.14 42.3574 162.279 41.584 160.802 41.584C159.496 41.584 158.54 42.2285 158.376 43.2363L158.371 43.2598H159.15L159.156 43.248C159.32 42.6211 159.923 42.2754 160.779 42.2754C161.798 42.2754 162.361 42.7676 162.361 43.6934V44.2852L160.392 44.4141C158.933 44.5137 158.119 45.1523 158.119 46.248V46.2598C158.119 47.3848 159.009 48.1055 160.228 48.1055ZM158.91 46.248V46.2363C158.91 45.5215 159.425 45.1172 160.497 45.0469L162.361 44.918V45.6504C162.361 46.6523 161.505 47.4258 160.374 47.4258C159.525 47.4258 158.91 46.9688 158.91 46.248ZM167.504 50.0918H168.277V46.7695H168.353C168.699 47.584 169.514 48.1055 170.469 48.1055C172.068 48.1055 173.14 46.8047 173.14 44.8477V44.8359C173.14 42.8906 172.068 41.584 170.469 41.584C169.502 41.584 168.722 42.0996 168.353 42.9434H168.277V41.6895H167.504V50.0918ZM170.31 47.4141C169.068 47.4141 168.265 46.4062 168.265 44.8477V44.8359C168.265 43.2832 169.068 42.2754 170.31 42.2754C171.558 42.2754 172.349 43.2773 172.349 44.8359V44.8477C172.349 46.4121 171.558 47.4141 170.31 47.4141ZM177.004 40.7988L178.334 38.8652H177.408L176.307 40.7988H177.004ZM176.125 48.1055C177.057 48.1055 177.813 47.666 178.188 46.916H178.258V48H179.037V43.6875C179.037 42.3574 178.176 41.584 176.699 41.584C175.393 41.584 174.438 42.2285 174.273 43.2363L174.268 43.2598H175.047L175.053 43.248C175.217 42.6211 175.82 42.2754 176.676 42.2754C177.695 42.2754 178.258 42.7676 178.258 43.6934V44.2852L176.289 44.4141C174.83 44.5137 174.016 45.1523 174.016 46.248V46.2598C174.016 47.3848 174.906 48.1055 176.125 48.1055ZM174.807 46.248V46.2363C174.807 45.5215 175.322 45.1172 176.395 45.0469L178.258 44.918V45.6504C178.258 46.6523 177.402 47.4258 176.272 47.4258C175.422 47.4258 174.807 46.9688 174.807 46.248ZM183.135 50.2031C184.793 50.2031 185.877 49.3008 185.877 47.9238V41.6895H185.098V42.9668H185.045C184.682 42.123 183.903 41.584 182.93 41.584C181.301 41.584 180.258 42.873 180.258 44.6777V44.6895C180.258 46.5 181.295 47.7715 182.918 47.7715C183.885 47.7715 184.658 47.291 185.033 46.459H185.11V47.8711C185.11 48.8906 184.354 49.5117 183.135 49.5117C182.174 49.5117 181.518 49.1309 181.377 48.5801L181.371 48.5742H180.569L180.563 48.5801C180.727 49.5586 181.688 50.2031 183.135 50.2031ZM183.071 47.0801C181.811 47.0801 181.049 46.1016 181.049 44.6895V44.6777C181.049 43.2656 181.811 42.2754 183.071 42.2754C184.319 42.2754 185.121 43.2773 185.121 44.6895V44.7012C185.121 46.1133 184.336 47.0801 183.071 47.0801ZM187.872 40.377C188.182 40.377 188.44 40.125 188.44 39.8086C188.44 39.4922 188.182 39.2402 187.872 39.2402C187.555 39.2402 187.297 39.4922 187.297 39.8086C187.297 40.125 187.555 40.377 187.872 40.377ZM187.479 48H188.252V41.6895H187.479V48ZM189.86 48H190.633V44.25C190.633 43.0605 191.389 42.2754 192.503 42.2754C193.598 42.2754 194.143 42.8906 194.143 44.0918V48H194.917V43.8984C194.917 42.4277 194.114 41.584 192.708 41.584C191.723 41.584 191.044 42.0352 190.71 42.7969H190.633V41.6895H189.86V48ZM198.177 48.1055C199.108 48.1055 199.864 47.666 200.239 46.916H200.309V48H201.089V43.6875C201.089 42.3574 200.227 41.584 198.751 41.584C197.444 41.584 196.489 42.2285 196.325 43.2363L196.319 43.2598H197.098L197.104 43.248C197.268 42.6211 197.872 42.2754 198.727 42.2754C199.747 42.2754 200.309 42.7676 200.309 43.6934V44.2852L198.341 44.4141C196.882 44.5137 196.067 45.1523 196.067 46.248V46.2598C196.067 47.3848 196.958 48.1055 198.177 48.1055ZM196.858 46.248V46.2363C196.858 45.5215 197.374 45.1172 198.446 45.0469L200.309 44.918V45.6504C200.309 46.6523 199.454 47.4258 198.323 47.4258C197.473 47.4258 196.858 46.9688 196.858 46.248ZM209.988 50.0918H210.761V41.6895H209.988V42.9785H209.929C209.542 42.123 208.74 41.584 207.79 41.584C206.191 41.584 205.136 42.8789 205.136 44.8359V44.8477C205.136 46.8047 206.197 48.1055 207.79 48.1055C208.769 48.1055 209.566 47.6133 209.911 46.7988H209.988V50.0918ZM207.954 47.4141C206.712 47.4141 205.927 46.418 205.927 44.8535V44.8418C205.927 43.2715 206.712 42.2754 207.949 42.2754C209.191 42.2754 210.005 43.2891 210.005 44.8418V44.8477C210.005 46.3945 209.191 47.4141 207.954 47.4141ZM214.484 48.1055C215.462 48.1055 216.171 47.6602 216.482 46.8984H216.552V48H217.326V41.6895H216.552V45.4395C216.552 46.6348 215.849 47.4141 214.671 47.4141C213.587 47.4141 213.042 46.7754 213.042 45.5977V41.6895H212.269V45.791C212.269 47.2383 213.066 48.1055 214.484 48.1055ZM221.441 48.1055C222.836 48.1055 223.756 47.3438 224.002 46.4883L224.019 46.4414H223.24L223.217 46.4824C223.011 46.9746 222.379 47.4082 221.459 47.4082C220.205 47.4082 219.396 46.5234 219.373 45.0469H224.113V44.7188C224.113 42.8496 223.07 41.584 221.377 41.584C219.683 41.584 218.582 42.8848 218.582 44.8535V44.8652C218.582 46.8457 219.672 48.1055 221.441 48.1055ZM221.377 42.2754C222.461 42.2754 223.24 43.0137 223.328 44.4141H219.379C219.478 43.0488 220.287 42.2754 221.377 42.2754ZM230.738 48.1055C232.133 48.1055 233.053 47.3438 233.299 46.4883L233.317 46.4414H232.537L232.514 46.4824C232.309 46.9746 231.676 47.4082 230.756 47.4082C229.502 47.4082 228.693 46.5234 228.67 45.0469H233.41V44.7188C233.41 42.8496 232.367 41.584 230.674 41.584C228.981 41.584 227.879 42.8848 227.879 44.8535V44.8652C227.879 46.8457 228.969 48.1055 230.738 48.1055ZM230.674 42.2754C231.758 42.2754 232.537 43.0137 232.625 44.4141H228.676C228.775 43.0488 229.584 42.2754 230.674 42.2754ZM236.787 48.1055C238.164 48.1055 239.225 47.3438 239.225 46.2598V46.248C239.225 45.3398 238.633 44.8477 237.414 44.5547L236.541 44.3496C235.703 44.1504 235.317 43.8516 235.317 43.3359V43.3242C235.317 42.6973 235.967 42.2344 236.793 42.2344C237.631 42.2344 238.217 42.6328 238.358 43.2188H239.119C238.973 42.2227 238.071 41.584 236.799 41.584C235.528 41.584 234.526 42.3398 234.526 43.3594V43.3652C234.526 44.25 235.071 44.7363 236.242 45.0117L237.121 45.2227C238.041 45.4395 238.434 45.7617 238.434 46.3066V46.3184C238.434 46.9746 237.737 47.4492 236.811 47.4492C235.897 47.4492 235.293 47.0449 235.123 46.418H234.326C234.455 47.4492 235.41 48.1055 236.787 48.1055ZM242.497 48.041C242.684 48.041 242.86 48.0234 243.036 47.9941V47.3262C242.877 47.3438 242.76 47.3496 242.585 47.3496C241.87 47.3496 241.594 47.0273 241.594 46.2539V42.3398H243.036V41.6895H241.594V40.0488H240.792V41.6895H239.778V42.3398H240.792V46.4297C240.792 47.5781 241.29 48.041 242.497 48.041ZM246.77 40.7988L248.1 38.8652H247.175L246.073 40.7988H246.77ZM245.891 48.1055C246.823 48.1055 247.579 47.666 247.954 46.916H248.024V48H248.803V43.6875C248.803 42.3574 247.942 41.584 246.466 41.584C245.159 41.584 244.204 42.2285 244.04 43.2363L244.034 43.2598H244.813L244.819 43.248C244.983 42.6211 245.587 42.2754 246.442 42.2754C247.462 42.2754 248.024 42.7676 248.024 43.6934V44.2852L246.055 44.4141C244.596 44.5137 243.782 45.1523 243.782 46.248V46.2598C243.782 47.3848 244.673 48.1055 245.891 48.1055ZM244.573 46.248V46.2363C244.573 45.5215 245.089 45.1172 246.161 45.0469L248.024 44.918V45.6504C248.024 46.6523 247.169 47.4258 246.038 47.4258C245.188 47.4258 244.573 46.9688 244.573 46.248ZM15.9902 72.0918H16.7637V68.7695H16.8398C17.1855 69.584 18 70.1055 18.9551 70.1055C20.5547 70.1055 21.627 68.8047 21.627 66.8477V66.8359C21.627 64.8906 20.5547 63.584 18.9551 63.584C17.9883 63.584 17.209 64.0996 16.8398 64.9434H16.7637V63.6895H15.9902V72.0918ZM18.7969 69.4141C17.5547 69.4141 16.752 68.4062 16.752 66.8477V66.8359C16.752 65.2832 17.5547 64.2754 18.7969 64.2754C20.0449 64.2754 20.8359 65.2773 20.8359 66.8359V66.8477C20.8359 68.4121 20.0449 69.4141 18.7969 69.4141ZM22.8713 70H23.6447V66.0625C23.6447 65.043 24.3713 64.3223 25.3557 64.3223C25.5959 64.3223 25.801 64.3457 26.0295 64.4043V63.6426C25.8772 63.6074 25.6662 63.584 25.4377 63.584C24.5822 63.584 23.967 64.0059 23.7209 64.7266H23.6447V63.6895H22.8713V70ZM29.2895 70.1055C31.0531 70.1055 32.1606 68.8574 32.1606 66.8477V66.8359C32.1606 64.8262 31.0531 63.584 29.2895 63.584C27.5258 63.584 26.4242 64.8262 26.4242 66.8359V66.8477C26.4242 68.8574 27.5258 70.1055 29.2895 70.1055ZM29.2895 69.4141C27.9887 69.4141 27.2153 68.4414 27.2153 66.8477V66.8359C27.2153 65.2422 27.9887 64.2754 29.2895 64.2754C30.5903 64.2754 31.3637 65.2422 31.3637 66.8359V66.8477C31.3637 68.4414 30.5903 69.4141 29.2895 69.4141ZM35.942 70.1055C37.3834 70.1055 38.2623 69.3379 38.5084 68.2246L38.5201 68.1777L37.7467 68.1836L37.735 68.2129C37.5123 68.9746 36.8678 69.4141 35.9362 69.4141C34.6881 69.4141 33.8854 68.4004 33.8854 66.8301V66.8184C33.8854 65.2656 34.6823 64.2754 35.9362 64.2754C36.903 64.2754 37.5592 64.8086 37.7467 65.5352L37.7526 65.5527L38.5201 65.5469V65.5234C38.3268 64.416 37.3834 63.584 35.9362 63.584C34.1959 63.584 33.0944 64.8496 33.0944 66.8184V66.8301C33.0944 68.8281 34.2018 70.1055 35.942 70.1055ZM41.8797 70.1055C42.8582 70.1055 43.5672 69.6602 43.8778 68.8984H43.9481V70H44.7215V63.6895H43.9481V67.4395C43.9481 68.6348 43.245 69.4141 42.0672 69.4141C40.9832 69.4141 40.4383 68.7754 40.4383 67.5977V63.6895H39.6649V67.791C39.6649 69.2383 40.4618 70.1055 41.8797 70.1055ZM46.294 70H47.0674V66.0625C47.0674 65.043 47.794 64.3223 48.7784 64.3223C49.0186 64.3223 49.2237 64.3457 49.4522 64.4043V63.6426C49.2998 63.6074 49.0889 63.584 48.8604 63.584C48.0049 63.584 47.3897 64.0059 47.1436 64.7266H47.0674V63.6895H46.294V70ZM51.9856 70.1055C52.9172 70.1055 53.6731 69.666 54.0481 68.916H54.1184V70H54.8977V65.6875C54.8977 64.3574 54.0364 63.584 52.5598 63.584C51.2532 63.584 50.2981 64.2285 50.134 65.2363L50.1282 65.2598H50.9075L50.9133 65.248C51.0774 64.6211 51.6809 64.2754 52.5364 64.2754C53.5559 64.2754 54.1184 64.7676 54.1184 65.6934V66.2852L52.1497 66.4141C50.6907 66.5137 49.8762 67.1523 49.8762 68.248V68.2598C49.8762 69.3848 50.7668 70.1055 51.9856 70.1055ZM50.6672 68.248V68.2363C50.6672 67.5215 51.1829 67.1172 52.2551 67.0469L54.1184 66.918V67.6504C54.1184 68.6523 53.2629 69.4258 52.1321 69.4258C51.2825 69.4258 50.6672 68.9688 50.6672 68.248ZM56.435 70H57.2085V66.25C57.2085 65.0605 57.9643 64.2754 59.0776 64.2754C60.1733 64.2754 60.7182 64.8906 60.7182 66.0918V70H61.4917V65.8984C61.4917 64.4277 60.6889 63.584 59.2827 63.584C58.2983 63.584 57.6186 64.0352 57.2846 64.7969H57.2085V63.6895H56.435V70ZM65.361 70.1055C66.3337 70.1055 67.113 69.5898 67.4821 68.7402H67.5524V70H68.3317V61.1758H67.5524V64.9199H67.4821C67.1305 64.1055 66.3161 63.584 65.361 63.584C63.7614 63.584 62.695 64.8848 62.695 66.8418V66.8535C62.695 68.7988 63.7673 70.1055 65.361 70.1055ZM65.5251 69.4141C64.277 69.4141 63.486 68.4121 63.486 66.8477V66.8359C63.486 65.2773 64.277 64.2754 65.5251 64.2754C66.7673 64.2754 67.57 65.2832 67.57 66.8359V66.8477C67.57 68.4062 66.7673 69.4141 65.5251 69.4141ZM72.5116 70.1055C74.2753 70.1055 75.3827 68.8574 75.3827 66.8477V66.8359C75.3827 64.8262 74.2753 63.584 72.5116 63.584C70.7479 63.584 69.6464 64.8262 69.6464 66.8359V66.8477C69.6464 68.8574 70.7479 70.1055 72.5116 70.1055ZM72.5116 69.4141C71.2108 69.4141 70.4374 68.4414 70.4374 66.8477V66.8359C70.4374 65.2422 71.2108 64.2754 72.5116 64.2754C73.8124 64.2754 74.5858 65.2422 74.5858 66.8359V66.8477C74.5858 68.4414 73.8124 69.4141 72.5116 69.4141ZM77.2423 70.0469C77.588 70.0469 77.8575 69.7715 77.8575 69.4316C77.8575 69.0859 77.588 68.8105 77.2423 68.8105C76.8966 68.8105 76.6212 69.0859 76.6212 69.4316C76.6212 69.7715 76.8966 70.0469 77.2423 70.0469ZM82.4849 70H83.2876V66.8125H85.4849C87.0962 66.8125 88.1978 65.7461 88.1978 64.1758V64.1641C88.1978 62.5938 87.0962 61.5449 85.4849 61.5449H82.4849V70ZM85.2974 62.2598C86.5981 62.2598 87.3833 62.9805 87.3833 64.1699V64.1816C87.3833 65.377 86.5981 66.0977 85.2974 66.0977H83.2876V62.2598H85.2974ZM91.7507 70.1055C93.5144 70.1055 94.6218 68.8574 94.6218 66.8477V66.8359C94.6218 64.8262 93.5144 63.584 91.7507 63.584C89.987 63.584 88.8855 64.8262 88.8855 66.8359V66.8477C88.8855 68.8574 89.987 70.1055 91.7507 70.1055ZM91.7507 69.4141C90.4499 69.4141 89.6765 68.4414 89.6765 66.8477V66.8359C89.6765 65.2422 90.4499 64.2754 91.7507 64.2754C93.0515 64.2754 93.8249 65.2422 93.8249 66.8359V66.8477C93.8249 68.4414 93.0515 69.4141 91.7507 69.4141ZM95.872 70H96.6454V66.0625C96.6454 65.043 97.372 64.3223 98.3564 64.3223C98.5966 64.3223 98.8017 64.3457 99.0302 64.4043V63.6426C98.8778 63.6074 98.6669 63.584 98.4384 63.584C97.5829 63.584 96.9677 64.0059 96.7216 64.7266H96.6454V63.6895H95.872V70ZM103.189 70H103.968V64.3398H105.445V63.6895H103.968V62.8984C103.968 62.166 104.302 61.7676 105.029 61.7676C105.21 61.7676 105.386 61.7793 105.503 61.7969V61.1699C105.31 61.1348 105.117 61.1172 104.888 61.1172C103.786 61.1172 103.189 61.709 103.189 62.8809V63.6895H102.14V64.3398H103.189V70ZM108.095 70.1055C109.027 70.1055 109.783 69.666 110.158 68.916H110.228V70H111.007V65.6875C111.007 64.3574 110.146 63.584 108.669 63.584C107.363 63.584 106.408 64.2285 106.244 65.2363L106.238 65.2598H107.017L107.023 65.248C107.187 64.6211 107.791 64.2754 108.646 64.2754C109.666 64.2754 110.228 64.7676 110.228 65.6934V66.2852L108.259 66.4141C106.8 66.5137 105.986 67.1523 105.986 68.248V68.2598C105.986 69.3848 106.877 70.1055 108.095 70.1055ZM106.777 68.248V68.2363C106.777 67.5215 107.293 67.1172 108.365 67.0469L110.228 66.918V67.6504C110.228 68.6523 109.373 69.4258 108.242 69.4258C107.392 69.4258 106.777 68.9688 106.777 68.248ZM114.103 70H114.924L117.279 63.6895H116.453L114.549 69.1621H114.478L112.568 63.6895H111.748L114.103 70ZM120.58 70.1055C122.344 70.1055 123.451 68.8574 123.451 66.8477V66.8359C123.451 64.8262 122.344 63.584 120.58 63.584C118.816 63.584 117.715 64.8262 117.715 66.8359V66.8477C117.715 68.8574 118.816 70.1055 120.58 70.1055ZM120.58 69.4141C119.279 69.4141 118.506 68.4414 118.506 66.8477V66.8359C118.506 65.2422 119.279 64.2754 120.58 64.2754C121.881 64.2754 122.654 65.2422 122.654 66.8359V66.8477C122.654 68.4414 121.881 69.4141 120.58 69.4141ZM124.701 70H125.475V66.0625C125.475 65.043 126.201 64.3223 127.186 64.3223C127.426 64.3223 127.631 64.3457 127.86 64.4043V63.6426C127.707 63.6074 127.496 63.584 127.268 63.584C126.412 63.584 125.797 64.0059 125.551 64.7266H125.475V63.6895H124.701V70ZM127.762 72.0449H128.348L129.192 68.9277H128.295L127.762 72.0449ZM135.97 70.041C136.157 70.041 136.333 70.0234 136.509 69.9941V69.3262C136.35 69.3438 136.233 69.3496 136.057 69.3496C135.343 69.3496 135.067 69.0273 135.067 68.2539V64.3398H136.509V63.6895H135.067V62.0488H134.264V63.6895H133.251V64.3398H134.264V68.4297C134.264 69.5781 134.762 70.041 135.97 70.041ZM140.144 70.1055C141.538 70.1055 142.458 69.3438 142.704 68.4883L142.722 68.4414H141.942L141.919 68.4824C141.714 68.9746 141.081 69.4082 140.161 69.4082C138.907 69.4082 138.099 68.5234 138.075 67.0469H142.815V66.7188C142.815 64.8496 141.772 63.584 140.079 63.584C138.386 63.584 137.284 64.8848 137.284 66.8535V66.8652C137.284 68.8457 138.374 70.1055 140.144 70.1055ZM140.079 64.2754C141.163 64.2754 141.942 65.0137 142.03 66.4141H138.081C138.181 65.0488 138.989 64.2754 140.079 64.2754ZM144.071 70H144.845V66.25C144.845 65.0605 145.601 64.2754 146.714 64.2754C147.81 64.2754 148.355 64.8906 148.355 66.0918V70H149.128V65.8984C149.128 64.4277 148.325 63.584 146.919 63.584C145.935 63.584 145.255 64.0352 144.921 64.7969H144.845V63.6895H144.071V70ZM152.734 70.041C152.921 70.041 153.097 70.0234 153.273 69.9941V69.3262C153.115 69.3438 152.997 69.3496 152.822 69.3496C152.107 69.3496 151.831 69.0273 151.831 68.2539V64.3398H153.273V63.6895H151.831V62.0488H151.029V63.6895H150.015V64.3398H151.029V68.4297C151.029 69.5781 151.527 70.041 152.734 70.041ZM156.908 70.1055C158.302 70.1055 159.222 69.3438 159.468 68.4883L159.486 68.4414H158.707L158.683 68.4824C158.478 68.9746 157.845 69.4082 156.925 69.4082C155.671 69.4082 154.863 68.5234 154.839 67.0469H159.58V66.7188C159.58 64.8496 158.537 63.584 156.843 63.584C155.15 63.584 154.048 64.8848 154.048 66.8535V66.8652C154.048 68.8457 155.138 70.1055 156.908 70.1055ZM156.843 64.2754C157.927 64.2754 158.707 65.0137 158.795 66.4141H154.845C154.945 65.0488 155.754 64.2754 156.843 64.2754ZM163.662 70H164.436V66.25C164.436 65.0605 165.191 64.2754 166.305 64.2754C167.4 64.2754 167.945 64.8906 167.945 66.0918V70H168.719V65.8984C168.719 64.4277 167.916 63.584 166.51 63.584C165.525 63.584 164.846 64.0352 164.512 64.7969H164.436V63.6895H163.662V70ZM172.787 70.1055C174.551 70.1055 175.658 68.8574 175.658 66.8477V66.8359C175.658 64.8262 174.551 63.584 172.787 63.584C171.024 63.584 169.922 64.8262 169.922 66.8359V66.8477C169.922 68.8574 171.024 70.1055 172.787 70.1055ZM172.787 69.4141C171.487 69.4141 170.713 68.4414 170.713 66.8477V66.8359C170.713 65.2422 171.487 64.2754 172.787 64.2754C174.088 64.2754 174.862 65.2422 174.862 66.8359V66.8477C174.862 68.4414 174.088 69.4141 172.787 69.4141ZM178.444 70H179.264L181.62 63.6895H180.793L178.889 69.1621H178.819L176.909 63.6895H176.088L178.444 70ZM184.1 70.1055C185.032 70.1055 185.788 69.666 186.163 68.916H186.233V70H187.012V65.6875C187.012 64.3574 186.151 63.584 184.674 63.584C183.368 63.584 182.413 64.2285 182.249 65.2363L182.243 65.2598H183.022L183.028 65.248C183.192 64.6211 183.796 64.2754 184.651 64.2754C185.671 64.2754 186.233 64.7676 186.233 65.6934V66.2852L184.264 66.4141C182.805 66.5137 181.991 67.1523 181.991 68.248V68.2598C181.991 69.3848 182.882 70.1055 184.1 70.1055ZM182.782 68.248V68.2363C182.782 67.5215 183.298 67.1172 184.37 67.0469L186.233 66.918V67.6504C186.233 68.6523 185.378 69.4258 184.247 69.4258C183.397 69.4258 182.782 68.9688 182.782 68.248ZM188.55 70H189.323V66.127C189.323 65.0957 190.026 64.2754 190.94 64.2754C191.813 64.2754 192.388 64.8672 192.388 65.7754V70H193.161V65.998C193.161 65.0195 193.811 64.2754 194.784 64.2754C195.733 64.2754 196.231 64.8262 196.231 65.8574V70H197.011V65.6816C197.011 64.3457 196.278 63.584 195.013 63.584C194.104 63.584 193.366 64.0703 193.044 64.8262H192.968C192.698 64.0703 192.065 63.584 191.181 63.584C190.319 63.584 189.669 64.0469 189.399 64.8027H189.323V63.6895H188.55V70ZM201.067 70.1055C202.462 70.1055 203.382 69.3438 203.628 68.4883L203.646 68.4414H202.866L202.843 68.4824C202.638 68.9746 202.005 69.4082 201.085 69.4082C199.831 69.4082 199.023 68.5234 198.999 67.0469H203.739V66.7188C203.739 64.8496 202.696 63.584 201.003 63.584C199.31 63.584 198.208 64.8848 198.208 66.8535V66.8652C198.208 68.8457 199.298 70.1055 201.067 70.1055ZM201.003 64.2754C202.087 64.2754 202.866 65.0137 202.954 66.4141H199.005C199.105 65.0488 199.913 64.2754 201.003 64.2754ZM204.995 70H205.769V66.25C205.769 65.0605 206.525 64.2754 207.638 64.2754C208.734 64.2754 209.279 64.8906 209.279 66.0918V70H210.052V65.8984C210.052 64.4277 209.249 63.584 207.843 63.584C206.859 63.584 206.179 64.0352 205.845 64.7969H205.769V63.6895H204.995V70ZM213.658 70.041C213.845 70.041 214.021 70.0234 214.197 69.9941V69.3262C214.039 69.3438 213.921 69.3496 213.746 69.3496C213.031 69.3496 212.755 69.0273 212.755 68.2539V64.3398H214.197V63.6895H212.755V62.0488H211.953V63.6895H210.939V64.3398H211.953V68.4297C211.953 69.5781 212.451 70.041 213.658 70.041ZM217.832 70.1055C219.226 70.1055 220.146 69.3438 220.392 68.4883L220.41 68.4414H219.631L219.607 68.4824C219.402 68.9746 218.769 69.4082 217.849 69.4082C216.595 69.4082 215.787 68.5234 215.763 67.0469H220.504V66.7188C220.504 64.8496 219.461 63.584 217.767 63.584C216.074 63.584 214.972 64.8848 214.972 66.8535V66.8652C214.972 68.8457 216.062 70.1055 217.832 70.1055ZM217.767 64.2754C218.851 64.2754 219.631 65.0137 219.718 66.4141H215.769C215.869 65.0488 216.677 64.2754 217.767 64.2754ZM224.586 70H225.359V66.127C225.359 65.0957 226.063 64.2754 226.977 64.2754C227.85 64.2754 228.424 64.8672 228.424 65.7754V70H229.197V65.998C229.197 65.0195 229.848 64.2754 230.82 64.2754C231.77 64.2754 232.268 64.8262 232.268 65.8574V70H233.047V65.6816C233.047 64.3457 232.315 63.584 231.049 63.584C230.141 63.584 229.402 64.0703 229.08 64.8262H229.004C228.734 64.0703 228.102 63.584 227.217 63.584C226.356 63.584 225.705 64.0469 225.436 64.8027H225.359V63.6895H224.586V70ZM236.301 70.1055C237.233 70.1055 237.989 69.666 238.364 68.916H238.434V70H239.213V65.6875C239.213 64.3574 238.352 63.584 236.875 63.584C235.569 63.584 234.614 64.2285 234.45 65.2363L234.444 65.2598H235.223L235.229 65.248C235.393 64.6211 235.996 64.2754 236.852 64.2754C237.871 64.2754 238.434 64.7676 238.434 65.6934V66.2852L236.465 66.4141C235.006 66.5137 234.192 67.1523 234.192 68.248V68.2598C234.192 69.3848 235.082 70.1055 236.301 70.1055ZM234.983 68.248V68.2363C234.983 67.5215 235.498 67.1172 236.571 67.0469L238.434 66.918V67.6504C238.434 68.6523 237.578 69.4258 236.448 69.4258C235.598 69.4258 234.983 68.9688 234.983 68.248ZM241.178 62.377C241.489 62.377 241.747 62.125 241.747 61.8086C241.747 61.4922 241.489 61.2402 241.178 61.2402C240.862 61.2402 240.604 61.4922 240.604 61.8086C240.604 62.125 240.862 62.377 241.178 62.377ZM240.786 70H241.559V63.6895H240.786V70ZM245.288 70.1055C246.665 70.1055 247.725 69.3438 247.725 68.2598V68.248C247.725 67.3398 247.134 66.8477 245.915 66.5547L245.042 66.3496C244.204 66.1504 243.817 65.8516 243.817 65.3359V65.3242C243.817 64.6973 244.468 64.2344 245.294 64.2344C246.132 64.2344 246.718 64.6328 246.858 65.2188H247.62C247.473 64.2227 246.571 63.584 245.3 63.584C244.028 63.584 243.026 64.3398 243.026 65.3594V65.3652C243.026 66.25 243.571 66.7363 244.743 67.0117L245.622 67.2227C246.542 67.4395 246.934 67.7617 246.934 68.3066V68.3184C246.934 68.9746 246.237 69.4492 245.311 69.4492C244.397 69.4492 243.794 69.0449 243.624 68.418H242.827C242.956 69.4492 243.911 70.1055 245.288 70.1055ZM18.0762 92.041C18.2637 92.041 18.4395 92.0234 18.6152 91.9941V91.3262C18.457 91.3438 18.3398 91.3496 18.1641 91.3496C17.4492 91.3496 17.1738 91.0273 17.1738 90.2539V86.3398H18.6152V85.6895H17.1738V84.0488H16.3711V85.6895H15.3574V86.3398H16.3711V90.4297C16.3711 91.5781 16.8691 92.041 18.0762 92.041ZM21.4709 92.1055C22.4025 92.1055 23.1584 91.666 23.5334 90.916H23.6037V92H24.383V87.6875C24.383 86.3574 23.5217 85.584 22.0451 85.584C20.7385 85.584 19.7834 86.2285 19.6193 87.2363L19.6135 87.2598H20.3928L20.3986 87.248C20.5627 86.6211 21.1662 86.2754 22.0217 86.2754C23.0412 86.2754 23.6037 86.7676 23.6037 87.6934V88.2852L21.635 88.4141C20.176 88.5137 19.3615 89.1523 19.3615 90.248V90.2598C19.3615 91.3848 20.2522 92.1055 21.4709 92.1055ZM20.1525 90.248V90.2363C20.1525 89.5215 20.6682 89.1172 21.7404 89.0469L23.6037 88.918V89.6504C23.6037 90.6523 22.7483 91.4258 21.6174 91.4258C20.7678 91.4258 20.1525 90.9688 20.1525 90.248ZM25.9203 92H26.6938V88.0625C26.6938 87.043 27.4203 86.3223 28.4047 86.3223C28.6449 86.3223 28.85 86.3457 29.0785 86.4043V85.6426C28.9262 85.6074 28.7153 85.584 28.4867 85.584C27.6313 85.584 27.016 86.0059 26.7699 86.7266H26.6938V85.6895H25.9203V92ZM32.1393 92.1055C33.1119 92.1055 33.8912 91.5898 34.2604 90.7402H34.3307V92H35.11V83.1758H34.3307V86.9199H34.2604C33.9088 86.1055 33.0944 85.584 32.1393 85.584C30.5397 85.584 29.4733 86.8848 29.4733 88.8418V88.8535C29.4733 90.7988 30.5455 92.1055 32.1393 92.1055ZM32.3033 91.4141C31.0553 91.4141 30.2643 90.4121 30.2643 88.8477V88.8359C30.2643 87.2773 31.0553 86.2754 32.3033 86.2754C33.5455 86.2754 34.3483 87.2832 34.3483 88.8359V88.8477C34.3483 90.4062 33.5455 91.4141 32.3033 91.4141ZM39.284 92.1055C40.6785 92.1055 41.5985 91.3438 41.8446 90.4883L41.8621 90.4414H41.0828L41.0594 90.4824C40.8543 90.9746 40.2215 91.4082 39.3016 91.4082C38.0477 91.4082 37.2391 90.5234 37.2157 89.0469H41.9559V88.7188C41.9559 86.8496 40.9129 85.584 39.2196 85.584C37.5262 85.584 36.4246 86.8848 36.4246 88.8535V88.8652C36.4246 90.8457 37.5145 92.1055 39.284 92.1055ZM39.2196 86.2754C40.3035 86.2754 41.0828 87.0137 41.1707 88.4141H37.2215C37.3211 87.0488 38.1297 86.2754 39.2196 86.2754ZM43.6573 89.3223H44.4014L44.4659 83.5391H43.587L43.6573 89.3223ZM44.0264 92.082C44.4131 92.082 44.6827 91.8066 44.6827 91.4258C44.6827 91.0391 44.4131 90.7637 44.0264 90.7637C43.6455 90.7637 43.3702 91.0391 43.3702 91.4258C43.3702 91.8066 43.6455 92.082 44.0264 92.082Z" fill="#180B5A"/>
</svg>
