<svg width="42" height="42" viewBox="0 0 42 42" fill="none" xmlns="http://www.w3.org/2000/svg">
<rect width="42" height="42" rx="5" fill="#EBEBFF"/>
<path d="M32.8186 31.2197V11.0418C32.8186 10.5096 32.6947 10.3903 32.158 10.3903C31.7772 10.3903 31.4009 10.3903 31.0018 10.3903C31.0018 9.9315 31.0018 9.514 31.0018 9.10108C30.9972 8.66981 30.8596 8.53217 30.4375 8.53217C30.0337 8.53217 29.6254 8.53217 29.2033 8.53217C29.2033 8.09631 29.1941 7.70175 29.2079 7.30259C29.2171 7.05484 29.1391 6.87132 28.928 6.74286H9.44748C9.22726 6.89426 9.17679 7.1099 9.17679 7.36682C9.18138 15.2398 9.18138 23.1082 9.18138 30.9811C9.18138 31.4766 9.30984 31.6051 9.80993 31.6097C10.1953 31.6097 10.5853 31.6097 10.9982 31.6097V32.5365C10.9982 33.3898 11.0257 33.4173 11.8699 33.4173H12.8013C12.8013 33.8853 12.8013 34.3212 12.8013 34.7524C12.8013 35.1149 12.9481 35.2571 13.306 35.2571C19.642 35.2571 25.9734 35.2571 32.3094 35.2571C32.6489 35.2571 32.8186 35.1103 32.8186 34.7754C32.8232 33.6513 32.8232 32.5273 32.8232 31.4032C32.8232 31.3436 32.8186 31.2794 32.8186 31.2197ZM10.0577 30.7288V7.59163H28.3591V7.93573C28.3591 11.8722 28.3591 18.3137 28.3591 22.42C28.3591 22.4842 28.3591 22.5484 28.3591 22.6173V30.7288H10.0577ZM11.8562 32.541V31.6097H28.5747C29.084 31.6097 29.2033 31.4904 29.2033 30.9903V23.1173C29.2125 23.0439 29.2033 22.9659 29.2033 22.8879V22.553C29.2033 22.4934 29.2079 22.4337 29.2033 22.3741V9.40847H30.1576V9.75716C30.1576 14.1662 30.1576 21.1904 30.1576 25.861V26.8061C30.1576 28.6137 30.1576 30.4168 30.1576 32.2245V32.541H11.8562ZM31.9515 34.1193C31.9515 34.2157 31.9423 34.312 31.9377 34.3992H13.6547V33.4128H30.3503C30.8871 33.4128 31.0018 33.2981 31.0018 32.7613V11.262H31.9515V30.4398C31.9515 30.4948 31.9515 30.5545 31.9515 30.6095V31.1371C31.9515 31.2151 31.9469 31.2931 31.9515 31.3711C31.9515 32.2887 31.9515 33.2017 31.9515 34.1193Z" fill="#15112B"/>
<path d="M30.1531 26.5858V26.8061C30.1485 26.7327 30.1531 26.6593 30.1531 26.5858Z" fill="#15112B"/>
<path d="M30.1531 25.861V26.0674C30.1531 25.9986 30.1485 25.9298 30.1531 25.861Z" fill="#15112B"/>
<path d="M11.333 13.1706C11.333 11.9364 11.333 10.7023 11.333 9.46811C11.333 9.00014 11.4615 8.87167 11.9249 8.87167C13.6913 8.87167 15.4576 8.87167 17.224 8.87167C17.669 8.87167 17.8113 9.0139 17.8113 9.44976C17.8113 11.9364 17.8113 14.4231 17.8113 16.9144C17.8113 17.3548 17.6736 17.4925 17.2286 17.4925C15.4531 17.4925 13.6775 17.4925 11.8974 17.4925C11.4661 17.4925 11.3285 17.3594 11.3285 16.9327C11.333 15.6756 11.333 14.4231 11.333 13.1706ZM12.191 9.74798C12.191 12.0557 12.191 14.336 12.191 16.6208C13.7876 16.6208 15.3705 16.6208 16.9533 16.6208C16.9533 14.3176 16.9533 12.042 16.9533 9.74798C15.3613 9.74798 13.7876 9.74798 12.191 9.74798Z" fill="#15112B"/>
<path d="M23.0049 11.6382C21.8625 11.6382 20.7156 11.6382 19.5731 11.6382C19.1327 11.6382 18.9951 11.496 18.9905 11.0556C18.9905 10.5004 18.9859 9.94068 18.9905 9.38554C18.9905 9.03685 19.1556 8.87168 19.5043 8.87168C21.8488 8.86709 24.1932 8.86709 26.5377 8.87168C26.9001 8.87168 27.0653 9.03685 27.0699 9.40389C27.0745 9.96821 27.0745 10.5371 27.0699 11.1014C27.0653 11.4822 26.9047 11.6428 26.5239 11.6428C25.3494 11.6428 24.1749 11.6382 23.0049 11.6382ZM26.1844 9.75257C24.0602 9.75257 21.9635 9.75257 19.8576 9.75257C19.8576 10.1013 19.8576 10.4316 19.8576 10.7757C21.9727 10.7757 24.0694 10.7757 26.1844 10.7757C26.1844 10.427 26.1844 10.0967 26.1844 9.75257Z" fill="#15112B"/>
<path d="M21.3258 21.5483C19.642 21.5483 17.9582 21.5483 16.2745 21.5483C16.1735 21.5483 16.068 21.5528 15.9671 21.5299C15.7377 21.484 15.6046 21.3326 15.6138 21.0986C15.623 20.8784 15.7514 20.7408 15.9716 20.6995C16.0634 20.6811 16.1552 20.6857 16.2469 20.6857C19.6329 20.6857 23.0188 20.6857 26.4001 20.6857C26.4276 20.6857 26.4552 20.6857 26.4827 20.6857C26.8406 20.6903 27.0562 20.8555 27.0516 21.1216C27.0516 21.3877 26.836 21.5528 26.4781 21.5528C24.7668 21.5483 23.0463 21.5483 21.3258 21.5483Z" fill="#15112B"/>
<path d="M21.3029 27.6181C19.6099 27.6181 17.9169 27.6181 16.224 27.6135C16.0955 27.6135 15.9349 27.6181 15.8523 27.5493C15.7422 27.453 15.6229 27.2786 15.6367 27.1501C15.6505 27.0217 15.8019 26.884 15.9258 26.7969C16.0037 26.7418 16.1414 26.7602 16.2515 26.7602C19.6466 26.7602 23.0417 26.7602 26.4322 26.7602C26.4689 26.7602 26.5056 26.7602 26.5423 26.7602C26.8589 26.7739 27.0608 26.9391 27.0608 27.1869C27.0608 27.4438 26.8497 27.6181 26.5194 27.6181C24.7805 27.6227 23.0417 27.6181 21.3029 27.6181Z" fill="#15112B"/>
<path d="M21.3303 22.7182C23.0141 22.7182 24.6979 22.7182 26.3771 22.7182C26.478 22.7182 26.5836 22.7136 26.6845 22.7274C26.9277 22.7549 27.0515 22.9201 27.0561 23.1403C27.0561 23.3559 26.9277 23.5027 26.7074 23.5532C26.6524 23.567 26.5973 23.5578 26.5423 23.5578C23.0738 23.5578 19.6053 23.5578 16.1367 23.5578C16.0358 23.5578 15.9303 23.544 15.8431 23.5027C15.6642 23.4202 15.5908 23.2596 15.6275 23.0669C15.6596 22.8696 15.7789 22.7503 15.9762 22.7274C16.0771 22.7136 16.1826 22.7182 16.2836 22.7182C17.9674 22.7182 19.6511 22.7182 21.3303 22.7182Z" fill="#15112B"/>
<path d="M21.335 19.502C19.6236 19.502 17.9123 19.502 16.201 19.4974C16.068 19.4974 15.889 19.4974 15.8064 19.4194C15.7055 19.3185 15.6183 19.1212 15.6459 18.9974C15.6734 18.8689 15.8431 18.7588 15.9716 18.6762C16.0358 18.6349 16.1505 18.6624 16.2469 18.6624C19.642 18.6624 23.0325 18.6624 26.4276 18.6624C26.4735 18.6624 26.5194 18.6624 26.5652 18.6624C26.8589 18.6716 27.0562 18.8368 27.0607 19.0799C27.0653 19.3277 26.8726 19.4974 26.5744 19.502C25.1338 19.5066 23.6932 19.502 22.2525 19.502C21.9452 19.502 21.6423 19.502 21.335 19.502Z" fill="#15112B"/>
<path d="M21.3303 24.7369C23.0508 24.7369 24.7713 24.7369 26.4918 24.7415C26.6248 24.7415 26.7946 24.7598 26.8772 24.8424C26.9735 24.9388 27.0607 25.1269 27.0286 25.2462C26.9919 25.3746 26.8313 25.4847 26.7028 25.5673C26.634 25.6132 26.5239 25.5857 26.4276 25.5857C23.0325 25.5857 19.6419 25.5857 16.2468 25.5857C16.2101 25.5857 16.1734 25.5857 16.1367 25.5857C15.7926 25.5765 15.5999 25.4159 15.6137 25.1452C15.6229 24.8929 15.8202 24.7369 16.1413 24.7369C17.871 24.7369 19.6006 24.7369 21.3303 24.7369Z" fill="#15112B"/>
<path d="M23.0371 15.4646C21.9038 15.4646 20.7706 15.4646 19.6374 15.4646C19.5456 15.4646 19.4493 15.4646 19.3621 15.4508C19.1419 15.4095 19.0134 15.2719 19.0042 15.0517C18.9951 14.8315 19.1189 14.6846 19.3346 14.6296C19.4309 14.6066 19.5364 14.6066 19.6374 14.6066C21.9038 14.6066 24.1703 14.6066 26.4413 14.6066C26.5056 14.6066 26.5698 14.6021 26.6386 14.6112C26.891 14.6388 27.0699 14.8177 27.0745 15.0379C27.0745 15.2627 26.9001 15.4508 26.6432 15.4646C26.3175 15.4829 25.9917 15.4738 25.666 15.4738C24.7851 15.4646 23.9088 15.4646 23.0371 15.4646Z" fill="#15112B"/>
<path d="M23.0096 13.6523C21.8305 13.6523 20.6514 13.6615 19.4677 13.6432C19.3254 13.6432 19.1419 13.5422 19.0639 13.4275C18.9997 13.3358 19.0043 13.1064 19.0777 13.0284C19.1786 12.9137 19.3713 12.8265 19.5227 12.8265C21.0551 12.8127 22.5875 12.8173 24.1244 12.8173C24.9411 12.8173 25.7624 12.8082 26.579 12.8265C26.7258 12.8311 26.9139 12.9412 27.0057 13.0605C27.0699 13.1477 27.0516 13.3771 26.9828 13.4596C26.891 13.5652 26.7029 13.6432 26.5561 13.6432C25.3678 13.6569 24.1887 13.6523 23.0096 13.6523Z" fill="#15112B"/>
<path d="M23.0049 17.4879C21.8625 17.4879 20.7201 17.4879 19.5777 17.4833C19.4584 17.4833 19.3024 17.4879 19.2336 17.4236C19.1235 17.3089 18.9996 17.1254 19.018 16.997C19.0409 16.8685 19.2244 16.7538 19.3575 16.6575C19.4125 16.6162 19.5181 16.6437 19.6052 16.6437C21.8809 16.6437 24.1565 16.6437 26.4367 16.6437C26.8588 16.6437 27.0653 16.7813 27.0653 17.0612C27.0653 17.3411 26.8496 17.4879 26.4367 17.4879C25.2897 17.4879 24.1473 17.4879 23.0049 17.4879Z" fill="#15112B"/>
<path d="M12.884 21.5437C12.5399 21.5437 12.1958 21.5483 11.8517 21.5437C11.5213 21.5391 11.3424 21.3877 11.3378 21.1262C11.3332 20.8463 11.5122 20.6857 11.8563 20.6857C12.5445 20.6811 13.2327 20.6811 13.9163 20.6857C14.242 20.6903 14.4209 20.8509 14.4209 21.117C14.4209 21.3831 14.242 21.5391 13.9163 21.5483C13.5722 21.5529 13.2281 21.5437 12.884 21.5437Z" fill="#15112B"/>
<path d="M12.8838 27.6181C12.5306 27.6181 12.1773 27.6227 11.824 27.6181C11.5166 27.6135 11.3423 27.4576 11.3377 27.2006C11.3331 26.9391 11.4983 26.7648 11.8011 26.7602C12.5168 26.751 13.2325 26.751 13.9482 26.7602C14.2602 26.7648 14.4254 26.9299 14.4208 27.1914C14.4208 27.4576 14.2373 27.6135 13.9115 27.6181C13.572 27.6227 13.2279 27.6181 12.8838 27.6181Z" fill="#15112B"/>
<path d="M12.8747 19.502C12.5123 19.502 12.1498 19.5066 11.7874 19.502C11.4983 19.4974 11.3377 19.3415 11.3332 19.0891C11.3332 18.8414 11.5029 18.667 11.7782 18.6624C12.5123 18.6578 13.2463 18.6578 13.9758 18.6624C14.2511 18.667 14.4209 18.846 14.4163 19.0937C14.4117 19.3369 14.2557 19.4929 13.985 19.4974C13.618 19.5066 13.2463 19.502 12.8747 19.502Z" fill="#15112B"/>
<path d="M12.8701 25.5857C12.5169 25.5857 12.1636 25.5903 11.8103 25.5857C11.4983 25.5765 11.3332 25.4251 11.3332 25.1636C11.3332 24.9066 11.5075 24.7415 11.8103 24.7415C12.5169 24.7369 13.2234 24.7369 13.9254 24.7415C14.2282 24.7415 14.4117 24.9021 14.4163 25.1544C14.4209 25.4251 14.2511 25.5811 13.9208 25.5903C13.5767 25.5903 13.2234 25.5857 12.8701 25.5857Z" fill="#15112B"/>
<path d="M12.8838 23.5624C12.5214 23.5624 12.1589 23.567 11.7965 23.5624C11.512 23.5578 11.3423 23.4018 11.3377 23.1495C11.3331 22.8925 11.4937 22.7274 11.7781 22.7228C12.5122 22.7182 13.2463 22.7182 13.9758 22.7228C14.2602 22.7274 14.4254 22.8925 14.4208 23.1449C14.4162 23.3926 14.2465 23.5578 13.9666 23.5624C13.6041 23.567 13.2463 23.5624 12.8838 23.5624Z" fill="#15112B"/>
</svg>
