<svg width="174" height="68" viewBox="0 0 174 68" fill="none" xmlns="http://www.w3.org/2000/svg">
<rect width="174" height="68" rx="10" fill="#EBEBFF"/>
<rect x="10.5" y="28.5" width="153" height="27" rx="3.5" fill="#EBEBEB" stroke="#686674"/>
<path d="M13.2051 24H14.5176V16.6758H17.1719V15.5449H10.5449V16.6758H13.2051V24ZM19.7522 24.123C21.3811 24.123 22.26 23.1855 22.4709 22.3477L22.4826 22.2949L21.258 22.3008L21.2346 22.3477C21.0822 22.6758 20.5959 23.0801 19.7815 23.0801C18.7326 23.0801 18.0647 22.3711 18.0412 21.1523H22.5529V20.707C22.5529 18.7969 21.4631 17.5137 19.6877 17.5137C17.9123 17.5137 16.7639 18.8438 16.7639 20.8301V20.8359C16.7639 22.8516 17.8889 24.123 19.7522 24.123ZM19.6936 18.5566C20.5549 18.5566 21.1936 19.1074 21.2932 20.2441H18.0588C18.1701 19.1484 18.8264 18.5566 19.6936 18.5566ZM23.7153 24H24.9867V15.1406H23.7153V24ZM29.1432 24.123C30.7721 24.123 31.651 23.1855 31.8619 22.3477L31.8737 22.2949L30.649 22.3008L30.6256 22.3477C30.4733 22.6758 29.9869 23.0801 29.1725 23.0801C28.1237 23.0801 27.4557 22.3711 27.4323 21.1523H31.944V20.707C31.944 18.7969 30.8541 17.5137 29.0787 17.5137C27.3033 17.5137 26.1549 18.8438 26.1549 20.8301V20.8359C26.1549 22.8516 27.2799 24.123 29.1432 24.123ZM29.0846 18.5566C29.9459 18.5566 30.5846 19.1074 30.6842 20.2441H27.4498C27.5612 19.1484 28.2174 18.5566 29.0846 18.5566ZM33.4989 24H34.7645V18.6387H36.1649V17.6367H34.7528V17.0273C34.7528 16.3828 35.0282 16.043 35.7313 16.043C35.9305 16.043 36.1004 16.0547 36.2176 16.0723V15.1406C36.0008 15.1055 35.7547 15.082 35.4676 15.082C34.1434 15.082 33.4989 15.7031 33.4989 16.9688V17.6367H32.45V18.6387H33.4989V24ZM39.6358 24.123C41.4991 24.123 42.6416 22.875 42.6416 20.8242V20.8125C42.6416 18.7617 41.4932 17.5137 39.6358 17.5137C37.7725 17.5137 36.6241 18.7676 36.6241 20.8125V20.8242C36.6241 22.875 37.7666 24.123 39.6358 24.123ZM39.6358 23.0625C38.5401 23.0625 37.9248 22.2363 37.9248 20.8242V20.8125C37.9248 19.4004 38.5401 18.5742 39.6358 18.5742C40.7256 18.5742 41.3467 19.4004 41.3467 20.8125V20.8242C41.3467 22.2305 40.7256 23.0625 39.6358 23.0625ZM43.7512 24H45.0227V20.2676C45.0227 19.2422 45.6028 18.6035 46.5344 18.6035C47.4661 18.6035 47.9055 19.125 47.9055 20.1797V24H49.1711V19.8809C49.1711 18.3633 48.386 17.5137 46.9622 17.5137C46.0364 17.5137 45.427 17.9238 45.1165 18.6035H45.0227V17.6367H43.7512V24ZM53.2104 24.123C54.8393 24.123 55.7182 23.1855 55.9292 22.3477L55.9409 22.2949L54.7163 22.3008L54.6928 22.3477C54.5405 22.6758 54.0542 23.0801 53.2397 23.0801C52.1909 23.0801 51.5229 22.3711 51.4995 21.1523H56.0112V20.707C56.0112 18.7969 54.9213 17.5137 53.146 17.5137C51.3706 17.5137 50.2221 18.8438 50.2221 20.8301V20.8359C50.2221 22.8516 51.3471 24.123 53.2104 24.123ZM53.1518 18.5566C54.0131 18.5566 54.6518 19.1074 54.7514 20.2441H51.517C51.6284 19.1484 52.2846 18.5566 53.1518 18.5566Z" fill="black"/>
<path d="M19.082 48.1094H19.9375C19.0879 47.0254 18.4551 44.6934 18.4551 42.6426C18.4551 40.6094 19.0879 38.2598 19.9375 37.1758H19.082C17.9336 38.6934 17.418 40.4688 17.418 42.6426C17.418 44.8223 17.9395 46.5918 19.082 48.1094ZM24.0061 46.1406C25.799 46.1406 27.0764 45.1328 27.0764 43.7148V43.7031C27.0764 42.6602 26.344 41.793 25.26 41.541V41.5176C26.1858 41.2305 26.7717 40.5273 26.7717 39.6367V39.625C26.7717 38.3477 25.6057 37.4043 24.0061 37.4043C22.4065 37.4043 21.2404 38.3477 21.2404 39.625V39.6367C21.2404 40.5273 21.8264 41.2305 22.7522 41.5176V41.541C21.6682 41.793 20.9358 42.6602 20.9358 43.7031V43.7148C20.9358 45.1328 22.2131 46.1406 24.0061 46.1406ZM24.0061 41.125C22.9865 41.125 22.2893 40.5449 22.2893 39.7246V39.7129C22.2893 38.8926 22.9865 38.3125 24.0061 38.3125C25.0256 38.3125 25.7229 38.8926 25.7229 39.7129V39.7246C25.7229 40.5449 25.0256 41.125 24.0061 41.125ZM24.0061 45.2207C22.84 45.2207 22.008 44.5645 22.008 43.6504V43.6387C22.008 42.7129 22.8342 42.0508 24.0061 42.0508C25.1779 42.0508 26.0041 42.7129 26.0041 43.6387V43.6504C26.0041 44.5645 25.1721 45.2207 24.0061 45.2207ZM31.1508 46.1992C32.8676 46.1992 34.0922 45.0098 34.0922 43.3047V43.293C34.0922 41.6582 32.9496 40.4688 31.3617 40.4688C30.5942 40.4688 29.932 40.7793 29.557 41.3477H29.4633L29.7504 38.4883H33.6235V37.5449H28.9184L28.4731 42.4023H29.3871C29.4926 42.2031 29.6274 42.0391 29.7738 41.8984C30.1371 41.5527 30.6176 41.3828 31.1801 41.3828C32.2758 41.3828 33.061 42.1855 33.061 43.3105V43.3223C33.061 44.4648 32.2875 45.2676 31.1625 45.2676C30.1723 45.2676 29.4399 44.623 29.3403 43.8145L29.3344 43.7676H28.3207L28.3266 43.832C28.4496 45.1855 29.5746 46.1992 31.1508 46.1992ZM35.9401 48.1094C37.0826 46.5918 37.6041 44.8223 37.6041 42.6426C37.6041 40.4688 37.0885 38.6934 35.9401 37.1758H35.0846C35.9342 38.2598 36.567 40.6094 36.567 42.6426C36.567 44.6934 35.9342 47.0254 35.0846 48.1094H35.9401ZM45.2901 37.3457C43.585 37.3457 42.3311 38.5703 42.3311 40.2578V40.2695C42.3311 41.8926 43.5147 43.0996 45.1026 43.0996C46.2452 43.0996 47.042 42.4844 47.3526 41.793H47.4639C47.4639 41.8574 47.4639 41.9277 47.458 41.9922C47.3936 43.7559 46.7666 45.2559 45.2315 45.2559C44.376 45.2559 43.7842 44.8164 43.5264 44.1074L43.503 44.043H42.4424L42.46 44.1191C42.7471 45.3672 43.8018 46.1992 45.2198 46.1992C47.2705 46.1992 48.4717 44.5117 48.4717 41.6289V41.6172C48.4717 38.4355 46.837 37.3457 45.2901 37.3457ZM45.2842 42.1797C44.1885 42.1797 43.3916 41.3711 43.3916 40.2461V40.2344C43.3916 39.1387 44.2412 38.2773 45.3018 38.2773C46.3741 38.2773 47.212 39.1562 47.212 40.2695V40.2754C47.212 41.377 46.3799 42.1797 45.2842 42.1797ZM55.4897 37.3457C53.7846 37.3457 52.5307 38.5703 52.5307 40.2578V40.2695C52.5307 41.8926 53.7143 43.0996 55.3022 43.0996C56.4448 43.0996 57.2417 42.4844 57.5522 41.793H57.6635C57.6635 41.8574 57.6635 41.9277 57.6577 41.9922C57.5932 43.7559 56.9663 45.2559 55.4311 45.2559C54.5756 45.2559 53.9838 44.8164 53.726 44.1074L53.7026 44.043H52.642L52.6596 44.1191C52.9467 45.3672 54.0014 46.1992 55.4194 46.1992C57.4702 46.1992 58.6713 44.5117 58.6713 41.6289V41.6172C58.6713 38.4355 57.0366 37.3457 55.4897 37.3457ZM55.4838 42.1797C54.3881 42.1797 53.5913 41.3711 53.5913 40.2461V40.2344C53.5913 39.1387 54.4409 38.2773 55.5014 38.2773C56.5737 38.2773 57.4116 39.1562 57.4116 40.2695V40.2754C57.4116 41.377 56.5795 42.1797 55.4838 42.1797ZM62.734 46.1992C64.4508 46.1992 65.6755 45.0098 65.6755 43.3047V43.293C65.6755 41.6582 64.5329 40.4688 62.945 40.4688C62.1774 40.4688 61.5153 40.7793 61.1403 41.3477H61.0465L61.3337 38.4883H65.2067V37.5449H60.5016L60.0563 42.4023H60.9704C61.0758 42.2031 61.2106 42.0391 61.3571 41.8984C61.7204 41.5527 62.2008 41.3828 62.7633 41.3828C63.859 41.3828 64.6442 42.1855 64.6442 43.3105V43.3223C64.6442 44.4648 63.8708 45.2676 62.7458 45.2676C61.7555 45.2676 61.0231 44.623 60.9235 43.8145L60.9176 43.7676H59.904L59.9098 43.832C60.0329 45.1855 61.1579 46.1992 62.734 46.1992ZM69.955 46.1992C71.66 46.1992 72.9139 44.9746 72.9139 43.2871V43.2754C72.9139 41.6523 71.7303 40.4453 70.1425 40.4453C68.9999 40.4453 68.203 41.0605 67.8925 41.752H67.7811C67.7811 41.6875 67.7811 41.6172 67.787 41.5527C67.8514 39.7891 68.4784 38.2891 70.0135 38.2891C70.869 38.2891 71.4608 38.7285 71.7186 39.4375L71.7421 39.502H72.8026L72.785 39.4258C72.4979 38.1777 71.4432 37.3457 70.0253 37.3457C67.9745 37.3457 66.7733 39.0332 66.7733 41.916V41.9277C66.7733 45.1094 68.4081 46.1992 69.955 46.1992ZM68.0331 43.2754V43.2695C68.0331 42.168 68.8651 41.3652 69.9608 41.3652C71.0565 41.3652 71.8534 42.1738 71.8534 43.2988V43.3105C71.8534 44.4062 71.0038 45.2676 69.9432 45.2676C68.871 45.2676 68.0331 44.3887 68.0331 43.2754ZM78.0606 46H79.0919V44.248H80.293V43.3047H79.0919V37.5449H77.5626C76.379 39.3086 75.0841 41.3711 73.9415 43.2871V44.248H78.0606V46ZM75.0196 43.3105V43.2402C75.9395 41.6875 77.047 39.9414 77.9962 38.5234H78.0665V43.3105H75.0196ZM81.4319 43.0703H85.3694V42.1211H81.4319V43.0703ZM89.6431 46.1406C91.3364 46.1406 92.5786 45.0977 92.5786 43.6855V43.6738C92.5786 42.4727 91.7407 41.7051 90.5103 41.5996V41.5762C91.5649 41.3535 92.3032 40.6387 92.3032 39.5957V39.584C92.3032 38.3008 91.2427 37.4043 89.6313 37.4043C88.0493 37.4043 86.9595 38.3242 86.8247 39.7012L86.8188 39.7598H87.8325L87.8384 39.7012C87.9263 38.8457 88.6353 38.3184 89.6313 38.3184C90.6626 38.3184 91.2427 38.8281 91.2427 39.7129V39.7246C91.2427 40.5684 90.5396 41.1895 89.5317 41.1895H88.5181V42.0801H89.5786C90.7622 42.0801 91.5063 42.6602 91.5063 43.6973V43.709C91.5063 44.6055 90.7505 45.2266 89.6431 45.2266C88.5181 45.2266 87.7505 44.6523 87.6685 43.8203L87.6626 43.7617H86.6489L86.6548 43.832C86.7661 45.168 87.897 46.1406 89.6431 46.1406ZM93.8815 46H99.3542V45.0508H95.3464V44.957L97.2683 42.9707C98.7976 41.3945 99.2136 40.6914 99.2136 39.7246V39.7129C99.2136 38.3477 98.0827 37.3457 96.6062 37.3457C94.989 37.3457 93.8288 38.4238 93.823 39.9238L93.8347 39.9297L94.8425 39.9355L94.8483 39.9238C94.8483 38.9277 95.5222 38.2656 96.5358 38.2656C97.5319 38.2656 98.1355 38.9336 98.1355 39.8242V39.8359C98.1355 40.5742 97.819 41.0137 96.7409 42.1797L93.8815 45.2734V46ZM102.784 46H103.839V37.5449H102.79L100.54 39.1621V40.2754L102.69 38.7168H102.784V46ZM107.942 46H108.997V37.5449H107.948L105.698 39.1621V40.2754L107.849 38.7168H107.942V46Z" fill="black"/>
</svg>
