<svg width="285" height="113" viewBox="0 0 285 113" fill="none" xmlns="http://www.w3.org/2000/svg">
<rect width="285" height="113" rx="10" fill="#EBEBFF"/>
<rect x="66.5" y="52.5" width="153" height="27" rx="3.5" fill="#EBEBEB" stroke="#686674"/>
<path d="M69.2051 48H70.5176V40.6758H73.1719V39.5449H66.5449V40.6758H69.2051V48ZM75.7522 48.123C77.3811 48.123 78.26 47.1855 78.4709 46.3477L78.4826 46.2949L77.258 46.3008L77.2346 46.3477C77.0822 46.6758 76.5959 47.0801 75.7815 47.0801C74.7326 47.0801 74.0647 46.3711 74.0412 45.1523H78.5529V44.707C78.5529 42.7969 77.4631 41.5137 75.6877 41.5137C73.9123 41.5137 72.7639 42.8438 72.7639 44.8301V44.8359C72.7639 46.8516 73.8889 48.123 75.7522 48.123ZM75.6936 42.5566C76.5549 42.5566 77.1936 43.1074 77.2932 44.2441H74.0588C74.1701 43.1484 74.8264 42.5566 75.6936 42.5566ZM79.7153 48H80.9867V39.1406H79.7153V48ZM85.1432 48.123C86.7721 48.123 87.651 47.1855 87.8619 46.3477L87.8737 46.2949L86.649 46.3008L86.6256 46.3477C86.4733 46.6758 85.9869 47.0801 85.1725 47.0801C84.1237 47.0801 83.4557 46.3711 83.4323 45.1523H87.944V44.707C87.944 42.7969 86.8541 41.5137 85.0787 41.5137C83.3033 41.5137 82.1549 42.8438 82.1549 44.8301V44.8359C82.1549 46.8516 83.2799 48.123 85.1432 48.123ZM85.0846 42.5566C85.9459 42.5566 86.5846 43.1074 86.6842 44.2441H83.4498C83.5612 43.1484 84.2174 42.5566 85.0846 42.5566ZM89.4989 48H90.7645V42.6387H92.1649V41.6367H90.7528V41.0273C90.7528 40.3828 91.0282 40.043 91.7313 40.043C91.9305 40.043 92.1004 40.0547 92.2176 40.0723V39.1406C92.0008 39.1055 91.7547 39.082 91.4676 39.082C90.1434 39.082 89.4989 39.7031 89.4989 40.9688V41.6367H88.45V42.6387H89.4989V48ZM95.6358 48.123C97.4991 48.123 98.6416 46.875 98.6416 44.8242V44.8125C98.6416 42.7617 97.4932 41.5137 95.6358 41.5137C93.7725 41.5137 92.6241 42.7676 92.6241 44.8125V44.8242C92.6241 46.875 93.7666 48.123 95.6358 48.123ZM95.6358 47.0625C94.5401 47.0625 93.9248 46.2363 93.9248 44.8242V44.8125C93.9248 43.4004 94.5401 42.5742 95.6358 42.5742C96.7256 42.5742 97.3467 43.4004 97.3467 44.8125V44.8242C97.3467 46.2305 96.7256 47.0625 95.6358 47.0625ZM99.7512 48H101.023V44.2676C101.023 43.2422 101.603 42.6035 102.534 42.6035C103.466 42.6035 103.906 43.125 103.906 44.1797V48H105.171V43.8809C105.171 42.3633 104.386 41.5137 102.962 41.5137C102.036 41.5137 101.427 41.9238 101.116 42.6035H101.023V41.6367H99.7512V48ZM109.21 48.123C110.839 48.123 111.718 47.1855 111.929 46.3477L111.941 46.2949L110.716 46.3008L110.693 46.3477C110.54 46.6758 110.054 47.0801 109.24 47.0801C108.191 47.0801 107.523 46.3711 107.499 45.1523H112.011V44.707C112.011 42.7969 110.921 41.5137 109.146 41.5137C107.371 41.5137 106.222 42.8438 106.222 44.8301V44.8359C106.222 46.8516 107.347 48.123 109.21 48.123ZM109.152 42.5566C110.013 42.5566 110.652 43.1074 110.751 44.2441H107.517C107.628 43.1484 108.285 42.5566 109.152 42.5566Z" fill="black"/>
<path d="M75.082 72.1094H75.9375C75.0879 71.0254 74.4551 68.6934 74.4551 66.6426C74.4551 64.6094 75.0879 62.2598 75.9375 61.1758H75.082C73.9336 62.6934 73.418 64.4688 73.418 66.6426C73.418 68.8223 73.9395 70.5918 75.082 72.1094ZM80.0061 70.1406C81.799 70.1406 83.0764 69.1328 83.0764 67.7148V67.7031C83.0764 66.6602 82.344 65.793 81.26 65.541V65.5176C82.1858 65.2305 82.7717 64.5273 82.7717 63.6367V63.625C82.7717 62.3477 81.6057 61.4043 80.0061 61.4043C78.4065 61.4043 77.2404 62.3477 77.2404 63.625V63.6367C77.2404 64.5273 77.8264 65.2305 78.7522 65.5176V65.541C77.6682 65.793 76.9358 66.6602 76.9358 67.7031V67.7148C76.9358 69.1328 78.2131 70.1406 80.0061 70.1406ZM80.0061 65.125C78.9865 65.125 78.2893 64.5449 78.2893 63.7246V63.7129C78.2893 62.8926 78.9865 62.3125 80.0061 62.3125C81.0256 62.3125 81.7229 62.8926 81.7229 63.7129V63.7246C81.7229 64.5449 81.0256 65.125 80.0061 65.125ZM80.0061 69.2207C78.84 69.2207 78.008 68.5645 78.008 67.6504V67.6387C78.008 66.7129 78.8342 66.0508 80.0061 66.0508C81.1779 66.0508 82.0041 66.7129 82.0041 67.6387V67.6504C82.0041 68.5645 81.1721 69.2207 80.0061 69.2207ZM87.1508 70.1992C88.8676 70.1992 90.0922 69.0098 90.0922 67.3047V67.293C90.0922 65.6582 88.9496 64.4688 87.3617 64.4688C86.5942 64.4688 85.932 64.7793 85.557 65.3477H85.4633L85.7504 62.4883H89.6235V61.5449H84.9184L84.4731 66.4023H85.3871C85.4926 66.2031 85.6274 66.0391 85.7738 65.8984C86.1371 65.5527 86.6176 65.3828 87.1801 65.3828C88.2758 65.3828 89.061 66.1855 89.061 67.3105V67.3223C89.061 68.4648 88.2875 69.2676 87.1625 69.2676C86.1723 69.2676 85.4399 68.623 85.3403 67.8145L85.3344 67.7676H84.3207L84.3266 67.832C84.4496 69.1855 85.5746 70.1992 87.1508 70.1992ZM91.9401 72.1094C93.0826 70.5918 93.6041 68.8223 93.6041 66.6426C93.6041 64.4688 93.0885 62.6934 91.9401 61.1758H91.0846C91.9342 62.2598 92.567 64.6094 92.567 66.6426C92.567 68.6934 91.9342 71.0254 91.0846 72.1094H91.9401ZM101.29 61.3457C99.585 61.3457 98.3311 62.5703 98.3311 64.2578V64.2695C98.3311 65.8926 99.5147 67.0996 101.103 67.0996C102.245 67.0996 103.042 66.4844 103.353 65.793H103.464C103.464 65.8574 103.464 65.9277 103.458 65.9922C103.394 67.7559 102.767 69.2559 101.231 69.2559C100.376 69.2559 99.7842 68.8164 99.5264 68.1074L99.503 68.043H98.4424L98.46 68.1191C98.7471 69.3672 99.8018 70.1992 101.22 70.1992C103.271 70.1992 104.472 68.5117 104.472 65.6289V65.6172C104.472 62.4355 102.837 61.3457 101.29 61.3457ZM101.284 66.1797C100.189 66.1797 99.3916 65.3711 99.3916 64.2461V64.2344C99.3916 63.1387 100.241 62.2773 101.302 62.2773C102.374 62.2773 103.212 63.1562 103.212 64.2695V64.2754C103.212 65.377 102.38 66.1797 101.284 66.1797ZM111.49 61.3457C109.785 61.3457 108.531 62.5703 108.531 64.2578V64.2695C108.531 65.8926 109.714 67.0996 111.302 67.0996C112.445 67.0996 113.242 66.4844 113.552 65.793H113.664C113.664 65.8574 113.664 65.9277 113.658 65.9922C113.593 67.7559 112.966 69.2559 111.431 69.2559C110.576 69.2559 109.984 68.8164 109.726 68.1074L109.703 68.043H108.642L108.66 68.1191C108.947 69.3672 110.001 70.1992 111.419 70.1992C113.47 70.1992 114.671 68.5117 114.671 65.6289V65.6172C114.671 62.4355 113.037 61.3457 111.49 61.3457ZM111.484 66.1797C110.388 66.1797 109.591 65.3711 109.591 64.2461V64.2344C109.591 63.1387 110.441 62.2773 111.501 62.2773C112.574 62.2773 113.412 63.1562 113.412 64.2695V64.2754C113.412 65.377 112.58 66.1797 111.484 66.1797ZM118.734 70.1992C120.451 70.1992 121.675 69.0098 121.675 67.3047V67.293C121.675 65.6582 120.533 64.4688 118.945 64.4688C118.177 64.4688 117.515 64.7793 117.14 65.3477H117.047L117.334 62.4883H121.207V61.5449H116.502L116.056 66.4023H116.97C117.076 66.2031 117.211 66.0391 117.357 65.8984C117.72 65.5527 118.201 65.3828 118.763 65.3828C119.859 65.3828 120.644 66.1855 120.644 67.3105V67.3223C120.644 68.4648 119.871 69.2676 118.746 69.2676C117.756 69.2676 117.023 68.623 116.924 67.8145L116.918 67.7676H115.904L115.91 67.832C116.033 69.1855 117.158 70.1992 118.734 70.1992ZM125.955 70.1992C127.66 70.1992 128.914 68.9746 128.914 67.2871V67.2754C128.914 65.6523 127.73 64.4453 126.142 64.4453C125 64.4453 124.203 65.0605 123.892 65.752H123.781C123.781 65.6875 123.781 65.6172 123.787 65.5527C123.851 63.7891 124.478 62.2891 126.014 62.2891C126.869 62.2891 127.461 62.7285 127.719 63.4375L127.742 63.502H128.803L128.785 63.4258C128.498 62.1777 127.443 61.3457 126.025 61.3457C123.974 61.3457 122.773 63.0332 122.773 65.916V65.9277C122.773 69.1094 124.408 70.1992 125.955 70.1992ZM124.033 67.2754V67.2695C124.033 66.168 124.865 65.3652 125.961 65.3652C127.057 65.3652 127.853 66.1738 127.853 67.2988V67.3105C127.853 68.4062 127.004 69.2676 125.943 69.2676C124.871 69.2676 124.033 68.3887 124.033 67.2754ZM134.061 70H135.092V68.248H136.293V67.3047H135.092V61.5449H133.563C132.379 63.3086 131.084 65.3711 129.941 67.2871V68.248H134.061V70ZM131.02 67.3105V67.2402C131.94 65.6875 133.047 63.9414 133.996 62.5234H134.066V67.3105H131.02ZM137.432 67.0703H141.369V66.1211H137.432V67.0703ZM145.643 70.1406C147.336 70.1406 148.579 69.0977 148.579 67.6855V67.6738C148.579 66.4727 147.741 65.7051 146.51 65.5996V65.5762C147.565 65.3535 148.303 64.6387 148.303 63.5957V63.584C148.303 62.3008 147.243 61.4043 145.631 61.4043C144.049 61.4043 142.959 62.3242 142.825 63.7012L142.819 63.7598H143.833L143.838 63.7012C143.926 62.8457 144.635 62.3184 145.631 62.3184C146.663 62.3184 147.243 62.8281 147.243 63.7129V63.7246C147.243 64.5684 146.54 65.1895 145.532 65.1895H144.518V66.0801H145.579C146.762 66.0801 147.506 66.6602 147.506 67.6973V67.709C147.506 68.6055 146.75 69.2266 145.643 69.2266C144.518 69.2266 143.75 68.6523 143.668 67.8203L143.663 67.7617H142.649L142.655 67.832C142.766 69.168 143.897 70.1406 145.643 70.1406ZM149.882 70H155.354V69.0508H151.346V68.957L153.268 66.9707C154.798 65.3945 155.214 64.6914 155.214 63.7246V63.7129C155.214 62.3477 154.083 61.3457 152.606 61.3457C150.989 61.3457 149.829 62.4238 149.823 63.9238L149.835 63.9297L150.842 63.9355L150.848 63.9238C150.848 62.9277 151.522 62.2656 152.536 62.2656C153.532 62.2656 154.135 62.9336 154.135 63.8242V63.8359C154.135 64.5742 153.819 65.0137 152.741 66.1797L149.882 69.2734V70ZM158.784 70H159.839V61.5449H158.79L156.54 63.1621V64.2754L158.69 62.7168H158.784V70ZM163.942 70H164.997V61.5449H163.948L161.698 63.1621V64.2754L163.849 62.7168H163.942V70Z" fill="black"/>
</svg>
