<svg width="285" height="159" viewBox="0 0 285 159" fill="none" xmlns="http://www.w3.org/2000/svg">
<rect width="285" height="159" rx="10" fill="#FAF9FF"/>
<rect x="8" y="11" width="270" height="137" rx="4" fill="#EBEBFF"/>
<path opacity="0.8" d="M13 79H273" stroke="#A29ACD"/>
<path d="M264.946 44.9141C264.946 44.6484 264.845 44.4219 264.642 44.2188L258.547 38.2588C258.375 38.0869 258.164 38.001 257.914 38.0011C257.406 38.0011 257 38.3918 257 38.8996C257 39.1496 257.102 39.3762 257.274 39.5558L262.774 44.9144L257.275 50.2746C257.111 50.4465 257.002 50.6731 257.002 50.9231C257.002 51.4387 257.408 51.8293 257.916 51.8292C258.166 51.8291 258.377 51.7432 258.549 51.5713L264.642 45.6094C264.853 45.4063 264.946 45.1797 264.946 44.9141Z" fill="#A29ACD"/>
<path d="M264.946 111.914C264.946 111.648 264.845 111.422 264.642 111.219L258.547 105.259C258.375 105.087 258.164 105.001 257.914 105.001C257.406 105.001 257 105.392 257 105.9C257 106.15 257.102 106.376 257.274 106.556L262.774 111.914L257.275 117.275C257.111 117.446 257.002 117.673 257.002 117.923C257.002 118.439 257.408 118.829 257.916 118.829C258.166 118.829 258.377 118.743 258.549 118.571L264.642 112.609C264.853 112.406 264.946 112.18 264.946 111.914Z" fill="#A29ACD"/>
<path d="M23.9922 99.7754C23.9922 100.176 24.3242 100.518 24.7148 100.518H28.0156L29.5781 111.24C29.7832 112.627 30.5156 113.496 31.9316 113.496H43.3281C43.709 113.496 44.041 113.184 44.041 112.764C44.041 112.344 43.709 112.031 43.3281 112.031H32.0977C31.541 112.031 31.1992 111.641 31.1113 111.045L30.9551 110.02H43.3477C44.7734 110.02 45.5059 109.141 45.7109 107.744L46.4922 102.578C46.5117 102.451 46.5312 102.295 46.5312 102.207C46.5312 101.738 46.1797 101.416 45.6426 101.416H29.7051L29.5098 100.176C29.4121 99.4238 29.1387 99.043 28.1426 99.043H24.7148C24.3242 99.043 23.9922 99.3848 23.9922 99.7754ZM31.1113 116.66C31.1113 117.549 31.8145 118.242 32.7031 118.242C33.582 118.242 34.2852 117.549 34.2852 116.66C34.2852 115.781 33.582 115.078 32.7031 115.078C31.8145 115.078 31.1113 115.781 31.1113 116.66ZM40.2422 116.66C40.2422 117.549 40.9551 118.242 41.834 118.242C42.7227 118.242 43.4258 117.549 43.4258 116.66C43.4258 115.781 42.7227 115.078 41.834 115.078C40.9551 115.078 40.2422 115.781 40.2422 116.66Z" fill="#180B5A"/>
<path d="M59.2373 108H60.7686V104.712L61.876 103.454L65.1846 108H67.0986L62.9561 102.415L66.7705 98.1357H64.959L60.8779 102.798H60.7686V98.1357H59.2373V108ZM68.9055 99.25C69.4113 99.25 69.8352 98.833 69.8352 98.3271C69.8352 97.8145 69.4113 97.3975 68.9055 97.3975C68.3928 97.3975 67.9758 97.8145 67.9758 98.3271C67.9758 98.833 68.3928 99.25 68.9055 99.25ZM68.1604 108H69.6369V100.576H68.1604V108ZM74.1918 108.048C74.4789 108.048 74.7524 108.014 74.9916 107.973V106.79C74.7865 106.811 74.6567 106.817 74.4311 106.817C73.6996 106.817 73.3988 106.489 73.3988 105.689V101.745H74.9916V100.576H73.3988V98.7031H71.8881V100.576H70.726V101.745H71.8881V106.045C71.8881 107.474 72.558 108.048 74.1918 108.048ZM82.4403 108.123C83.4793 108.123 84.2928 107.645 84.7235 106.831H84.8397V108H86.3162V97.6641H84.8397V101.752H84.7235C84.327 100.952 83.4588 100.446 82.4403 100.446C80.5535 100.446 79.3641 101.93 79.3641 104.281V104.295C79.3641 106.626 80.5741 108.123 82.4403 108.123ZM82.8641 106.858C81.62 106.858 80.8748 105.888 80.8748 104.295V104.281C80.8748 102.688 81.62 101.718 82.8641 101.718C84.0946 101.718 84.8602 102.695 84.8602 104.281V104.295C84.8602 105.881 84.1014 106.858 82.8641 106.858ZM91.2334 108.144C93.1338 108.144 94.1592 107.05 94.4053 106.072L94.419 106.011L92.9903 106.018L92.9629 106.072C92.7852 106.455 92.2178 106.927 91.2676 106.927C90.044 106.927 89.2647 106.1 89.2373 104.678H94.501V104.158C94.501 101.93 93.2295 100.433 91.1582 100.433C89.087 100.433 87.7471 101.984 87.7471 104.302V104.309C87.7471 106.66 89.0596 108.144 91.2334 108.144ZM91.1651 101.649C92.17 101.649 92.9151 102.292 93.0313 103.618H89.2579C89.3877 102.34 90.1534 101.649 91.1651 101.649ZM103.604 108.239C106.188 108.239 107.863 106.619 107.863 104.117V102.894H103.816V104.131H106.352V104.35C106.338 105.867 105.238 106.886 103.624 106.886C101.772 106.886 100.61 105.423 100.61 103.064V103.051C100.61 100.727 101.765 99.25 103.59 99.25C104.944 99.25 105.887 99.9062 106.243 101.075L106.263 101.144H107.794L107.781 101.075C107.425 99.168 105.832 97.8965 103.59 97.8965C100.829 97.8965 99.0444 99.9268 99.0444 103.058V103.071C99.0444 106.243 100.808 108.239 103.604 108.239ZM110.169 99.25C110.674 99.25 111.098 98.833 111.098 98.3271C111.098 97.8145 110.674 97.3975 110.169 97.3975C109.656 97.3975 109.239 97.8145 109.239 98.3271C109.239 98.833 109.656 99.25 110.169 99.25ZM109.424 108H110.9V100.576H109.424V108ZM112.481 108H118.374V106.831H114.32V106.715L118.333 101.595V100.576H112.509V101.745H116.583V101.861L112.481 107.036V108ZM123.519 108H125.05V104.63H127.361C129.295 104.63 130.635 103.311 130.635 101.383V101.369C130.635 99.4346 129.295 98.1357 127.361 98.1357H123.519V108ZM126.978 99.4277C128.304 99.4277 129.076 100.146 129.076 101.376V101.39C129.076 102.627 128.304 103.345 126.978 103.345H125.05V99.4277H126.978ZM133.795 108.123C134.78 108.123 135.559 107.699 135.997 106.947H136.113V108H137.583V102.921C137.583 101.362 136.53 100.433 134.664 100.433C132.975 100.433 131.806 101.246 131.628 102.463L131.622 102.511H133.05L133.057 102.483C133.235 101.957 133.775 101.656 134.595 101.656C135.6 101.656 136.113 102.107 136.113 102.921V103.577L134.103 103.693C132.333 103.803 131.334 104.575 131.334 105.901V105.915C131.334 107.262 132.38 108.123 133.795 108.123ZM132.811 105.854V105.84C132.811 105.17 133.276 104.801 134.301 104.739L136.113 104.623V105.259C136.113 106.216 135.299 106.94 134.192 106.94C133.392 106.94 132.811 106.537 132.811 105.854ZM141.967 108.144C143.73 108.144 145.043 107.207 145.043 105.833V105.819C145.043 104.746 144.359 104.138 142.93 103.803L141.755 103.536C140.921 103.338 140.579 103.051 140.579 102.586V102.572C140.579 101.978 141.167 101.574 141.98 101.574C142.814 101.574 143.341 101.964 143.484 102.483V102.497H144.899V102.49C144.769 101.28 143.682 100.433 141.987 100.433C140.305 100.433 139.102 101.362 139.102 102.654V102.661C139.102 103.748 139.752 104.384 141.153 104.705L142.336 104.979C143.197 105.177 143.546 105.491 143.546 105.956V105.97C143.546 106.578 142.91 106.995 141.994 106.995C141.112 106.995 140.572 106.619 140.387 106.059L140.381 106.052H138.897V106.059C139.041 107.303 140.175 108.144 141.967 108.144ZM149.153 108.048C149.44 108.048 149.714 108.014 149.953 107.973V106.79C149.748 106.811 149.618 106.817 149.392 106.817C148.661 106.817 148.36 106.489 148.36 105.689V101.745H149.953V100.576H148.36V98.7031H146.85V100.576H145.687V101.745H146.85V106.045C146.85 107.474 147.519 108.048 149.153 108.048ZM154.31 108.144C156.21 108.144 157.235 107.05 157.482 106.072L157.495 106.011L156.067 106.018L156.039 106.072C155.861 106.455 155.294 106.927 154.344 106.927C153.12 106.927 152.341 106.1 152.314 104.678H157.577V104.158C157.577 101.93 156.306 100.433 154.234 100.433C152.163 100.433 150.823 101.984 150.823 104.302V104.309C150.823 106.66 152.136 108.144 154.31 108.144ZM154.241 101.649C155.246 101.649 155.991 102.292 156.108 103.618H152.334C152.464 102.34 153.23 101.649 154.241 101.649ZM159.001 108H160.485V97.6641H159.001V108Z" fill="#180B5A"/>
<path d="M59.043 126H60.5547V122.818H62.2305L63.8887 126H65.6172L63.7715 122.59C64.7734 122.227 65.3652 121.301 65.3652 120.182V120.17C65.3652 118.559 64.2754 117.545 62.459 117.545H59.043V126ZM60.5547 121.658V118.77H62.2715C63.2324 118.77 63.8125 119.32 63.8125 120.205V120.217C63.8125 121.125 63.2559 121.658 62.3008 121.658H60.5547ZM69.3752 126.838H70.0608V125.865C71.6193 125.754 72.7971 124.922 72.7971 123.48V123.469C72.7971 122.203 71.9533 121.57 70.3889 121.207L70.0608 121.131V118.857C70.7639 118.957 71.2502 119.373 71.3264 120.059L71.3322 120.07L72.6916 120.064V120.059C72.6389 118.717 71.5842 117.803 70.0608 117.68V116.695H69.3752V117.68C67.8459 117.785 66.7502 118.658 66.7502 120V120.012C66.7502 121.23 67.5705 121.91 69.0764 122.256L69.3752 122.326V124.693C68.4963 124.6 68.0627 124.143 67.9631 123.504L67.9572 123.492L66.5979 123.498L66.592 123.504C66.6389 124.922 67.8225 125.766 69.3752 125.865V126.838ZM68.1623 119.906V119.895C68.1623 119.391 68.5783 118.951 69.3752 118.857V120.973C68.508 120.744 68.1623 120.398 68.1623 119.906ZM71.385 123.609V123.621C71.385 124.201 70.9748 124.617 70.0608 124.693V122.484C71.0627 122.736 71.385 123.053 71.385 123.609ZM78.9596 126H80.4713V117.545H78.9655L76.7565 119.098V120.521L78.86 119.033H78.9596V126ZM84.4813 126H85.993V117.545H84.4871L82.2782 119.098V120.521L84.3817 119.033H84.4813V126ZM87.4307 128.232H88.4268L89.4463 124.711H87.9405L87.4307 128.232ZM93.7317 126.211C95.7415 126.211 96.9602 124.506 96.9602 121.775V121.764C96.9602 119.033 95.7415 117.334 93.7317 117.334C91.7219 117.334 90.5149 119.033 90.5149 121.764V121.775C90.5149 124.506 91.7219 126.211 93.7317 126.211ZM93.7317 124.986C92.6536 124.986 92.0383 123.779 92.0383 121.775V121.764C92.0383 119.76 92.6536 118.564 93.7317 118.564C94.8098 118.564 95.4368 119.76 95.4368 121.764V121.775C95.4368 123.779 94.8098 124.986 93.7317 124.986ZM101.205 117.334C99.3706 117.334 98.0639 118.588 98.0639 120.305V120.316C98.0639 121.922 99.2006 123.105 100.824 123.105C101.984 123.105 102.722 122.514 103.033 121.846H103.15C103.15 121.91 103.144 121.975 103.144 122.039C103.08 123.656 102.511 124.969 101.169 124.969C100.425 124.969 99.9038 124.582 99.6811 123.99L99.6635 123.932H98.1753L98.187 123.996C98.4565 125.291 99.6167 126.211 101.169 126.211C103.296 126.211 104.58 124.523 104.58 121.676V121.664C104.58 118.617 103.009 117.334 101.205 117.334ZM101.199 121.945C100.238 121.945 99.5405 121.242 99.5405 120.264V120.252C99.5405 119.309 100.285 118.564 101.216 118.564C102.154 118.564 102.886 119.32 102.886 120.287V120.299C102.886 121.254 102.154 121.945 101.199 121.945Z" fill="#686674"/>
<path d="M23.9922 32.7754C23.9922 33.1758 24.3242 33.5176 24.7148 33.5176H28.0156L29.5781 44.2402C29.7832 45.627 30.5156 46.4961 31.9316 46.4961H43.3281C43.709 46.4961 44.041 46.1836 44.041 45.7637C44.041 45.3438 43.709 45.0312 43.3281 45.0312H32.0977C31.541 45.0312 31.1992 44.6406 31.1113 44.0449L30.9551 43.0195H43.3477C44.7734 43.0195 45.5059 42.1406 45.7109 40.7441L46.4922 35.5781C46.5117 35.4512 46.5312 35.2949 46.5312 35.207C46.5312 34.7383 46.1797 34.416 45.6426 34.416H29.7051L29.5098 33.1758C29.4121 32.4238 29.1387 32.043 28.1426 32.043H24.7148C24.3242 32.043 23.9922 32.3848 23.9922 32.7754ZM31.1113 49.6602C31.1113 50.5488 31.8145 51.2422 32.7031 51.2422C33.582 51.2422 34.2852 50.5488 34.2852 49.6602C34.2852 48.7812 33.582 48.0781 32.7031 48.0781C31.8145 48.0781 31.1113 48.7812 31.1113 49.6602ZM40.2422 49.6602C40.2422 50.5488 40.9551 51.2422 41.834 51.2422C42.7227 51.2422 43.4258 50.5488 43.4258 49.6602C43.4258 48.7812 42.7227 48.0781 41.834 48.0781C40.9551 48.0781 40.2422 48.7812 40.2422 49.6602Z" fill="#180B5A"/>
<path d="M59.2373 41H60.7686V37.7119L61.876 36.4541L65.1846 41H67.0986L62.9561 35.415L66.7705 31.1357H64.959L60.8779 35.7979H60.7686V31.1357H59.2373V41ZM68.9055 32.25C69.4113 32.25 69.8352 31.833 69.8352 31.3271C69.8352 30.8145 69.4113 30.3975 68.9055 30.3975C68.3928 30.3975 67.9758 30.8145 67.9758 31.3271C67.9758 31.833 68.3928 32.25 68.9055 32.25ZM68.1604 41H69.6369V33.5762H68.1604V41ZM74.1918 41.0479C74.4789 41.0479 74.7524 41.0137 74.9916 40.9727V39.79C74.7865 39.8105 74.6567 39.8174 74.4311 39.8174C73.6996 39.8174 73.3988 39.4893 73.3988 38.6895V34.7451H74.9916V33.5762H73.3988V31.7031H71.8881V33.5762H70.726V34.7451H71.8881V39.0449C71.8881 40.4736 72.558 41.0479 74.1918 41.0479ZM82.4403 41.123C83.4793 41.123 84.2928 40.6445 84.7235 39.8311H84.8397V41H86.3162V30.6641H84.8397V34.752H84.7235C84.327 33.9521 83.4588 33.4463 82.4403 33.4463C80.5535 33.4463 79.3641 34.9297 79.3641 37.2812V37.2949C79.3641 39.626 80.5741 41.123 82.4403 41.123ZM82.8641 39.8584C81.62 39.8584 80.8748 38.8877 80.8748 37.2949V37.2812C80.8748 35.6885 81.62 34.7178 82.8641 34.7178C84.0946 34.7178 84.8602 35.6953 84.8602 37.2812V37.2949C84.8602 38.8809 84.1014 39.8584 82.8641 39.8584ZM91.2334 41.1436C93.1338 41.1436 94.1592 40.0498 94.4053 39.0723L94.419 39.0107L92.9903 39.0176L92.9629 39.0723C92.7852 39.4551 92.2178 39.9268 91.2676 39.9268C90.044 39.9268 89.2647 39.0996 89.2373 37.6777H94.501V37.1582C94.501 34.9297 93.2295 33.4326 91.1582 33.4326C89.087 33.4326 87.7471 34.9844 87.7471 37.3018V37.3086C87.7471 39.6602 89.0596 41.1436 91.2334 41.1436ZM91.1651 34.6494C92.17 34.6494 92.9151 35.292 93.0313 36.6182H89.2579C89.3877 35.3398 90.1534 34.6494 91.1651 34.6494ZM103.604 41.2393C106.188 41.2393 107.863 39.6191 107.863 37.1172V35.8936H103.816V37.1309H106.352V37.3496C106.338 38.8672 105.238 39.8857 103.624 39.8857C101.772 39.8857 100.61 38.4229 100.61 36.0645V36.0508C100.61 33.7266 101.765 32.25 103.59 32.25C104.944 32.25 105.887 32.9062 106.243 34.0752L106.263 34.1436H107.794L107.781 34.0752C107.425 32.168 105.832 30.8965 103.59 30.8965C100.829 30.8965 99.0444 32.9268 99.0444 36.0576V36.0713C99.0444 39.2432 100.808 41.2393 103.604 41.2393ZM110.169 32.25C110.674 32.25 111.098 31.833 111.098 31.3271C111.098 30.8145 110.674 30.3975 110.169 30.3975C109.656 30.3975 109.239 30.8145 109.239 31.3271C109.239 31.833 109.656 32.25 110.169 32.25ZM109.424 41H110.9V33.5762H109.424V41ZM112.481 41H118.374V39.8311H114.32V39.7148L118.333 34.5947V33.5762H112.509V34.7451H116.583V34.8613L112.481 40.0361V41ZM123.519 41H125.05V37.6299H127.361C129.295 37.6299 130.635 36.3105 130.635 34.3828V34.3691C130.635 32.4346 129.295 31.1357 127.361 31.1357H123.519V41ZM126.978 32.4277C128.304 32.4277 129.076 33.1455 129.076 34.376V34.3896C129.076 35.627 128.304 36.3447 126.978 36.3447H125.05V32.4277H126.978ZM133.795 41.123C134.78 41.123 135.559 40.6992 135.997 39.9473H136.113V41H137.583V35.9209C137.583 34.3623 136.53 33.4326 134.664 33.4326C132.975 33.4326 131.806 34.2461 131.628 35.4629L131.622 35.5107H133.05L133.057 35.4834C133.235 34.957 133.775 34.6562 134.595 34.6562C135.6 34.6562 136.113 35.1074 136.113 35.9209V36.5771L134.103 36.6934C132.333 36.8027 131.334 37.5752 131.334 38.9014V38.915C131.334 40.2617 132.38 41.123 133.795 41.123ZM132.811 38.8535V38.8398C132.811 38.1699 133.276 37.8008 134.301 37.7393L136.113 37.623V38.2588C136.113 39.2158 135.299 39.9404 134.192 39.9404C133.392 39.9404 132.811 39.5371 132.811 38.8535ZM141.967 41.1436C143.73 41.1436 145.043 40.207 145.043 38.833V38.8193C145.043 37.7461 144.359 37.1377 142.93 36.8027L141.755 36.5361C140.921 36.3379 140.579 36.0508 140.579 35.5859V35.5723C140.579 34.9775 141.167 34.5742 141.98 34.5742C142.814 34.5742 143.341 34.9639 143.484 35.4834V35.4971H144.899V35.4902C144.769 34.2803 143.682 33.4326 141.987 33.4326C140.305 33.4326 139.102 34.3623 139.102 35.6543V35.6611C139.102 36.748 139.752 37.3838 141.153 37.7051L142.336 37.9785C143.197 38.1768 143.546 38.4912 143.546 38.9561V38.9697C143.546 39.5781 142.91 39.9951 141.994 39.9951C141.112 39.9951 140.572 39.6191 140.387 39.0586L140.381 39.0518H138.897V39.0586C139.041 40.3027 140.175 41.1436 141.967 41.1436ZM149.153 41.0479C149.44 41.0479 149.714 41.0137 149.953 40.9727V39.79C149.748 39.8105 149.618 39.8174 149.392 39.8174C148.661 39.8174 148.36 39.4893 148.36 38.6895V34.7451H149.953V33.5762H148.36V31.7031H146.85V33.5762H145.687V34.7451H146.85V39.0449C146.85 40.4736 147.519 41.0479 149.153 41.0479ZM154.31 41.1436C156.21 41.1436 157.235 40.0498 157.482 39.0723L157.495 39.0107L156.067 39.0176L156.039 39.0723C155.861 39.4551 155.294 39.9268 154.344 39.9268C153.12 39.9268 152.341 39.0996 152.314 37.6777H157.577V37.1582C157.577 34.9297 156.306 33.4326 154.234 33.4326C152.163 33.4326 150.823 34.9844 150.823 37.3018V37.3086C150.823 39.6602 152.136 41.1436 154.31 41.1436ZM154.241 34.6494C155.246 34.6494 155.991 35.292 156.108 36.6182H152.334C152.464 35.3398 153.23 34.6494 154.241 34.6494ZM159.001 41H160.485V30.6641H159.001V41Z" fill="#180B5A"/>
<path d="M59.043 59H60.5547V55.8184H62.2305L63.8887 59H65.6172L63.7715 55.5898C64.7734 55.2266 65.3652 54.3008 65.3652 53.1816V53.1699C65.3652 51.5586 64.2754 50.5449 62.459 50.5449H59.043V59ZM60.5547 54.6582V51.7695H62.2715C63.2324 51.7695 63.8125 52.3203 63.8125 53.2051V53.2168C63.8125 54.125 63.2559 54.6582 62.3008 54.6582H60.5547ZM69.3752 59.8379H70.0608V58.8652C71.6193 58.7539 72.7971 57.9219 72.7971 56.4805V56.4688C72.7971 55.2031 71.9533 54.5703 70.3889 54.207L70.0608 54.1309V51.8574C70.7639 51.957 71.2502 52.373 71.3264 53.0586L71.3322 53.0703L72.6916 53.0645V53.0586C72.6389 51.7168 71.5842 50.8027 70.0608 50.6797V49.6953H69.3752V50.6797C67.8459 50.7852 66.7502 51.6582 66.7502 53V53.0117C66.7502 54.2305 67.5705 54.9102 69.0764 55.2559L69.3752 55.3262V57.6934C68.4963 57.5996 68.0627 57.1426 67.9631 56.5039L67.9572 56.4922L66.5979 56.498L66.592 56.5039C66.6389 57.9219 67.8225 58.7656 69.3752 58.8652V59.8379ZM68.1623 52.9062V52.8945C68.1623 52.3906 68.5783 51.9512 69.3752 51.8574V53.9727C68.508 53.7441 68.1623 53.3984 68.1623 52.9062ZM71.385 56.6094V56.6211C71.385 57.2012 70.9748 57.6172 70.0608 57.6934V55.4844C71.0627 55.7363 71.385 56.0527 71.385 56.6094ZM78.9596 59H80.4713V50.5449H78.9655L76.7565 52.0977V53.5215L78.86 52.0332H78.9596V59ZM84.4813 59H85.993V50.5449H84.4871L82.2782 52.0977V53.5215L84.3817 52.0332H84.4813V59ZM87.4307 61.2324H88.4268L89.4463 57.7109H87.9405L87.4307 61.2324ZM93.7317 59.2109C95.7415 59.2109 96.9602 57.5059 96.9602 54.7754V54.7637C96.9602 52.0332 95.7415 50.334 93.7317 50.334C91.7219 50.334 90.5149 52.0332 90.5149 54.7637V54.7754C90.5149 57.5059 91.7219 59.2109 93.7317 59.2109ZM93.7317 57.9863C92.6536 57.9863 92.0383 56.7793 92.0383 54.7754V54.7637C92.0383 52.7598 92.6536 51.5645 93.7317 51.5645C94.8098 51.5645 95.4368 52.7598 95.4368 54.7637V54.7754C95.4368 56.7793 94.8098 57.9863 93.7317 57.9863ZM101.205 50.334C99.3706 50.334 98.0639 51.5879 98.0639 53.3047V53.3164C98.0639 54.9219 99.2006 56.1055 100.824 56.1055C101.984 56.1055 102.722 55.5137 103.033 54.8457H103.15C103.15 54.9102 103.144 54.9746 103.144 55.0391C103.08 56.6562 102.511 57.9688 101.169 57.9688C100.425 57.9688 99.9038 57.582 99.6811 56.9902L99.6635 56.9316H98.1753L98.187 56.9961C98.4565 58.291 99.6167 59.2109 101.169 59.2109C103.296 59.2109 104.58 57.5234 104.58 54.6758V54.6641C104.58 51.6172 103.009 50.334 101.205 50.334ZM101.199 54.9453C100.238 54.9453 99.5405 54.2422 99.5405 53.2637V53.252C99.5405 52.3086 100.285 51.5645 101.216 51.5645C102.154 51.5645 102.886 52.3203 102.886 53.2871V53.2988C102.886 54.2539 102.154 54.9453 101.199 54.9453Z" fill="#686674"/>
</svg>
