<svg width="285" height="187" viewBox="0 0 285 187" fill="none" xmlns="http://www.w3.org/2000/svg">
<rect width="285" height="187" rx="10" fill="#EBEBFF"/>
<path d="M25.6709 27H27.4346V18.6191H30.4766V17.1357H22.6357V18.6191H25.6709V27ZM32.4201 27.123C33.4045 27.123 34.1975 26.6992 34.6076 25.9746H34.7238V27H36.4055V21.8936C36.4055 20.3145 35.3254 19.3848 33.4045 19.3848C31.6272 19.3848 30.424 20.2188 30.26 21.4766L30.2531 21.5381H31.8596L31.8664 21.5107C32.0373 21.0186 32.5432 20.7383 33.3225 20.7383C34.2385 20.7383 34.7238 21.1484 34.7238 21.8936V22.5361L32.8029 22.6523C30.9846 22.7617 29.966 23.541 29.966 24.874V24.8877C29.966 26.248 30.9983 27.123 32.4201 27.123ZM31.6477 24.8057V24.792C31.6477 24.1768 32.092 23.8281 33.0422 23.7666L34.7238 23.6572V24.2588C34.7238 25.1475 33.965 25.8174 32.9397 25.8174C32.1877 25.8174 31.6477 25.4414 31.6477 24.8057ZM38.0414 27H39.7436V22.6592C39.7436 21.5928 40.4887 20.916 41.6235 20.916C41.9174 20.916 42.1977 20.957 42.4711 21.0117V19.4873C42.307 19.4395 42.0404 19.4053 41.7807 19.4053C40.7963 19.4053 40.1127 19.877 39.8598 20.6768H39.7436V19.5283H38.0414V27ZM46.4655 27.1504C48.4957 27.1504 49.4938 25.9814 49.733 25.0176L49.7535 24.9561H48.1334L48.1129 25.0039C47.9489 25.3457 47.4225 25.8105 46.4996 25.8105C45.3444 25.8105 44.6198 25.0312 44.5992 23.6914H49.8219V23.1309C49.8219 20.875 48.5094 19.3848 46.3834 19.3848C44.2574 19.3848 42.8971 20.9229 42.8971 23.2744V23.2812C42.8971 25.6602 44.2438 27.1504 46.4655 27.1504ZM46.4039 20.7178C47.3541 20.7178 48.0446 21.3262 48.1608 22.5498H44.6129C44.7428 21.3604 45.4537 20.7178 46.4039 20.7178ZM51.6629 27H53.3651V20.8477H54.9578V19.5283H53.3377V18.8857C53.3377 18.1748 53.6453 17.792 54.4451 17.792C54.6844 17.792 54.8963 17.8057 55.0262 17.8262V16.6367C54.7528 16.5889 54.4451 16.5684 54.0828 16.5684C52.4217 16.5684 51.6629 17.2998 51.6629 18.79V19.5283H50.4393V20.8477H51.6629V27ZM57.9952 27.123C58.9795 27.123 59.7725 26.6992 60.1827 25.9746H60.2989V27H61.9805V21.8936C61.9805 20.3145 60.9004 19.3848 58.9795 19.3848C57.2022 19.3848 55.9991 20.2188 55.835 21.4766L55.8282 21.5381H57.4346L57.4414 21.5107C57.6123 21.0186 58.1182 20.7383 58.8975 20.7383C59.8135 20.7383 60.2989 21.1484 60.2989 21.8936V22.5361L58.378 22.6523C56.5596 22.7617 55.5411 23.541 55.5411 24.874V24.8877C55.5411 26.248 56.5733 27.123 57.9952 27.123ZM57.2227 24.8057V24.792C57.2227 24.1768 57.667 23.8281 58.6172 23.7666L60.2989 23.6572V24.2588C60.2989 25.1475 59.5401 25.8174 58.5147 25.8174C57.7627 25.8174 57.2227 25.4414 57.2227 24.8057ZM66.4397 27.1504C68.2786 27.1504 69.6116 26.2002 69.6116 24.7783V24.7646C69.6116 23.6777 68.9211 23.0557 67.4583 22.7275L66.2483 22.4609C65.4417 22.2764 65.1272 22.0098 65.1272 21.5723V21.5654C65.1272 21.0049 65.6741 20.6357 66.4329 20.6357C67.2327 20.6357 67.7249 21.0186 67.8479 21.4902L67.8547 21.5107H69.4543V21.4971C69.345 20.2871 68.2581 19.3848 66.4397 19.3848C64.676 19.3848 63.4456 20.3145 63.4456 21.6611V21.668C63.4456 22.7686 64.1223 23.4385 65.5442 23.7529L66.7542 24.0264C67.5745 24.2109 67.9026 24.498 67.9026 24.9355V24.9492C67.9026 25.5098 67.3147 25.8926 66.467 25.8926C65.6194 25.8926 65.1204 25.5303 64.9426 25.0107L64.9358 24.9971H63.2473V25.0107C63.3909 26.2754 64.5393 27.1504 66.4397 27.1504ZM76.9372 27.123C77.9899 27.123 78.7965 26.6445 79.2067 25.8311H79.3229V27H81.0319V16.6367H79.3229V20.7178H79.2067C78.8171 19.9111 77.9626 19.4053 76.9372 19.4053C75.0436 19.4053 73.8747 20.8818 73.8747 23.2607V23.2744C73.8747 25.6396 75.0641 27.123 76.9372 27.123ZM77.4704 25.6875C76.3083 25.6875 75.6042 24.7783 75.6042 23.2744V23.2607C75.6042 21.7568 76.3151 20.8408 77.4704 20.8408C78.6256 20.8408 79.3503 21.7637 79.3503 23.2607V23.2744C79.3503 24.7715 78.6325 25.6875 77.4704 25.6875ZM85.9901 27.1504C88.2255 27.1504 89.5858 25.6875 89.5858 23.2676V23.2539C89.5858 20.8477 88.2186 19.3848 85.9901 19.3848C83.7684 19.3848 82.3944 20.8545 82.3944 23.2539V23.2676C82.3944 25.6875 83.7479 27.1504 85.9901 27.1504ZM85.9901 25.7695C84.8075 25.7695 84.1307 24.8467 84.1307 23.2744V23.2607C84.1307 21.6885 84.8075 20.7588 85.9901 20.7588C87.1659 20.7588 87.8426 21.6885 87.8426 23.2607V23.2744C87.8426 24.8467 87.1727 25.7695 85.9901 25.7695ZM94.389 27H98.0872C101.04 27 102.729 25.1885 102.729 22.0303V22.0166C102.729 18.9268 101.02 17.1357 98.0872 17.1357H94.389V27ZM96.1526 25.5166V18.6191H97.8548C99.7893 18.6191 100.931 19.877 100.931 22.0439V22.0576C100.931 24.2725 99.8167 25.5166 97.8548 25.5166H96.1526ZM105.042 18.2773C105.595 18.2773 106.053 17.833 106.053 17.2725C106.053 16.7188 105.595 16.2676 105.042 16.2676C104.481 16.2676 104.023 16.7188 104.023 17.2725C104.023 17.833 104.481 18.2773 105.042 18.2773ZM104.187 27H105.889V19.5283H104.187V27ZM109.61 27.123C110.594 27.123 111.387 26.6992 111.798 25.9746H111.914V27H113.595V21.8936C113.595 20.3145 112.515 19.3848 110.594 19.3848C108.817 19.3848 107.614 20.2188 107.45 21.4766L107.443 21.5381H109.05L109.056 21.5107C109.227 21.0186 109.733 20.7383 110.512 20.7383C111.428 20.7383 111.914 21.1484 111.914 21.8936V22.5361L109.993 22.6523C108.175 22.7617 107.156 23.541 107.156 24.874V24.8877C107.156 26.248 108.188 27.123 109.61 27.123ZM108.838 24.8057V24.792C108.838 24.1768 109.282 23.8281 110.232 23.7666L111.914 23.6572V24.2588C111.914 25.1475 111.155 25.8174 110.13 25.8174C109.378 25.8174 108.838 25.4414 108.838 24.8057Z" fill="black"/>
<path d="M26.8203 50.1406C28.5137 50.1406 29.7559 49.0977 29.7559 47.6855V47.6738C29.7559 46.4727 28.918 45.7051 27.6875 45.5996V45.5762C28.7422 45.3535 29.4805 44.6387 29.4805 43.5957V43.584C29.4805 42.3008 28.4199 41.4043 26.8086 41.4043C25.2266 41.4043 24.1367 42.3242 24.002 43.7012L23.9961 43.7598H25.0098L25.0156 43.7012C25.1035 42.8457 25.8125 42.3184 26.8086 42.3184C27.8398 42.3184 28.4199 42.8281 28.4199 43.7129V43.7246C28.4199 44.5684 27.7168 45.1895 26.709 45.1895H25.6953V46.0801H26.7559C27.9395 46.0801 28.6836 46.6602 28.6836 47.6973V47.709C28.6836 48.6055 27.9277 49.2266 26.8203 49.2266C25.6953 49.2266 24.9277 48.6523 24.8457 47.8203L24.8398 47.7617H23.8262L23.832 47.832C23.9434 49.168 25.0742 50.1406 26.8203 50.1406ZM33.9358 50.1406C35.6291 50.1406 36.8713 49.0977 36.8713 47.6855V47.6738C36.8713 46.4727 36.0334 45.7051 34.8029 45.5996V45.5762C35.8576 45.3535 36.5959 44.6387 36.5959 43.5957V43.584C36.5959 42.3008 35.5354 41.4043 33.924 41.4043C32.342 41.4043 31.2522 42.3242 31.1174 43.7012L31.1115 43.7598H32.1252L32.1311 43.7012C32.219 42.8457 32.9279 42.3184 33.924 42.3184C34.9553 42.3184 35.5354 42.8281 35.5354 43.7129V43.7246C35.5354 44.5684 34.8322 45.1895 33.8244 45.1895H32.8108V46.0801H33.8713C35.0549 46.0801 35.799 46.6602 35.799 47.6973V47.709C35.799 48.6055 35.0432 49.2266 33.9358 49.2266C32.8108 49.2266 32.0432 48.6523 31.9611 47.8203L31.9553 47.7617H30.9416L30.9475 47.832C31.0588 49.168 32.1897 50.1406 33.9358 50.1406ZM39.7504 45.9922C40.8285 45.9922 41.4848 45.1133 41.4848 43.7129V43.707C41.4848 42.3066 40.8285 41.4336 39.7504 41.4336C38.6723 41.4336 38.0219 42.3066 38.0219 43.707V43.7129C38.0219 45.1133 38.6723 45.9922 39.7504 45.9922ZM40.3832 50L46.1371 41.5449H45.1879L39.434 50H40.3832ZM39.7504 45.2949C39.1703 45.2949 38.8363 44.7031 38.8363 43.7129V43.707C38.8363 42.7168 39.1703 42.1309 39.7504 42.1309C40.3305 42.1309 40.6703 42.7168 40.6703 43.707V43.7129C40.6703 44.7031 40.3305 45.2949 39.7504 45.2949ZM45.809 50.1113C46.8871 50.1113 47.5434 49.2324 47.5434 47.832V47.8262C47.5434 46.4258 46.8871 45.5527 45.809 45.5527C44.7309 45.5527 44.0805 46.4258 44.0805 47.8262V47.832C44.0805 49.2324 44.7309 50.1113 45.809 50.1113ZM45.809 49.4141C45.2289 49.4141 44.8949 48.8223 44.8949 47.832V47.8262C44.8949 46.8359 45.2289 46.25 45.809 46.25C46.3891 46.25 46.7289 46.8359 46.7289 47.8262V47.832C46.7289 48.8223 46.3891 49.4141 45.809 49.4141Z" fill="#686674"/>
<path d="M56.0781 81H57.1328V77.9824H59.2656C60.8535 77.9824 61.9785 76.8633 61.9785 75.2578V75.2461C61.9785 73.6406 60.8535 72.5449 59.2656 72.5449H56.0781V81ZM58.9961 73.4824C60.2031 73.4824 60.9004 74.1445 60.9004 75.2578V75.2695C60.9004 76.3828 60.2031 77.0449 58.9961 77.0449H57.1328V73.4824H58.9961ZM63.1701 81H64.1897V77.0859C64.1897 76.1602 64.8811 75.5449 65.8537 75.5449C66.0764 75.5449 66.2697 75.5684 66.4807 75.6035V74.6133C66.3811 74.5957 66.1643 74.5723 65.9709 74.5723C65.1154 74.5723 64.5236 74.959 64.2834 75.6211H64.1897V74.6836H63.1701V81ZM69.7524 81.1113C71.5512 81.1113 72.6645 79.8691 72.6645 77.8477V77.8359C72.6645 75.8086 71.5512 74.5723 69.7524 74.5723C67.9535 74.5723 66.8403 75.8086 66.8403 77.8359V77.8477C66.8403 79.8691 67.9535 81.1113 69.7524 81.1113ZM69.7524 80.209C68.557 80.209 67.8832 79.3359 67.8832 77.8477V77.8359C67.8832 76.3418 68.557 75.4746 69.7524 75.4746C70.9477 75.4746 71.6215 76.3418 71.6215 77.8359V77.8477C71.6215 79.3359 70.9477 80.209 69.7524 80.209ZM76.0826 81.0469C76.2819 81.0469 76.4752 81.0234 76.6744 80.9883V80.1211C76.4869 80.1387 76.3873 80.1445 76.2057 80.1445C75.5494 80.1445 75.2916 79.8457 75.2916 79.1016V75.5273H76.6744V74.6836H75.2916V73.0488H74.2369V74.6836H73.2408V75.5273H74.2369V79.3594C74.2369 80.5664 74.7819 81.0469 76.0826 81.0469ZM80.6785 73.8047L82.0321 71.8125H80.825L79.7879 73.8047H80.6785ZM80.2918 81.1113C82.0907 81.1113 83.2039 79.8691 83.2039 77.8477V77.8359C83.2039 75.8086 82.0907 74.5723 80.2918 74.5723C78.493 74.5723 77.3797 75.8086 77.3797 77.8359V77.8477C77.3797 79.8691 78.493 81.1113 80.2918 81.1113ZM80.2918 80.209C79.0965 80.209 78.4227 79.3359 78.4227 77.8477V77.8359C78.4227 76.3418 79.0965 75.4746 80.2918 75.4746C81.4871 75.4746 82.161 76.3418 82.161 77.8359V77.8477C82.161 79.3359 81.4871 80.209 80.2918 80.209ZM86.6221 81.0469C86.8213 81.0469 87.0147 81.0234 87.2139 80.9883V80.1211C87.0264 80.1387 86.9268 80.1445 86.7452 80.1445C86.0889 80.1445 85.8311 79.8457 85.8311 79.1016V75.5273H87.2139V74.6836H85.8311V73.0488H84.7764V74.6836H83.7803V75.5273H84.7764V79.3594C84.7764 80.5664 85.3213 81.0469 86.6221 81.0469ZM88.8684 73.4648C89.2551 73.4648 89.5715 73.1484 89.5715 72.7617C89.5715 72.375 89.2551 72.0586 88.8684 72.0586C88.4817 72.0586 88.1653 72.375 88.1653 72.7617C88.1653 73.1484 88.4817 73.4648 88.8684 73.4648ZM88.3528 81H89.3723V74.6836H88.3528V81ZM90.8862 83.1094H91.9057V80.0039H91.9995C92.3452 80.6777 93.101 81.1113 93.9682 81.1113C95.5737 81.1113 96.6167 79.8281 96.6167 77.8477V77.8359C96.6167 75.8672 95.5678 74.5723 93.9682 74.5723C93.0893 74.5723 92.3862 74.9883 91.9995 75.6914H91.9057V74.6836H90.8862V83.1094ZM93.7338 80.209C92.5854 80.209 91.8823 79.3066 91.8823 77.8477V77.8359C91.8823 76.377 92.5854 75.4746 93.7338 75.4746C94.8881 75.4746 95.5737 76.3652 95.5737 77.8359V77.8477C95.5737 79.3184 94.8881 80.209 93.7338 80.209ZM100.398 81.1113C102.197 81.1113 103.31 79.8691 103.31 77.8477V77.8359C103.31 75.8086 102.197 74.5723 100.398 74.5723C98.5993 74.5723 97.486 75.8086 97.486 77.8359V77.8477C97.486 79.8691 98.5993 81.1113 100.398 81.1113ZM100.398 80.209C99.2028 80.209 98.529 79.3359 98.529 77.8477V77.8359C98.529 76.3418 99.2028 75.4746 100.398 75.4746C101.593 75.4746 102.267 76.3418 102.267 77.8359V77.8477C102.267 79.3359 101.593 80.209 100.398 80.209ZM109.783 81.1113C110.662 81.1113 111.365 80.6953 111.752 79.9922H111.846V81H112.865V72.1758H111.846V75.6797H111.752C111.406 75.0059 110.65 74.5723 109.783 74.5723C108.178 74.5723 107.135 75.8555 107.135 77.8359V77.8477C107.135 79.8164 108.184 81.1113 109.783 81.1113ZM110.018 80.209C108.863 80.209 108.178 79.3184 108.178 77.8477V77.8359C108.178 76.3652 108.863 75.4746 110.018 75.4746C111.166 75.4746 111.869 76.377 111.869 77.8359V77.8477C111.869 79.3066 111.166 80.209 110.018 80.209ZM116.992 81.1113C118.481 81.1113 119.383 80.2676 119.6 79.4121L119.612 79.3652H118.592L118.569 79.418C118.399 79.7988 117.871 80.2031 117.016 80.2031C115.891 80.2031 115.17 79.4414 115.141 78.1348H119.688V77.7363C119.688 75.8496 118.645 74.5723 116.928 74.5723C115.211 74.5723 114.098 75.9082 114.098 77.8594V77.8652C114.098 79.8457 115.188 81.1113 116.992 81.1113ZM116.922 75.4805C117.854 75.4805 118.545 76.0723 118.651 77.3203H115.158C115.27 76.1191 115.985 75.4805 116.922 75.4805ZM126.969 81.1113C128.569 81.1113 129.618 79.8164 129.618 77.8477V77.8359C129.618 75.8555 128.575 74.5723 126.969 74.5723C126.102 74.5723 125.346 75.0059 125.001 75.6797H124.907V72.1758H123.887V81H124.907V79.9922H125.001C125.387 80.6953 126.091 81.1113 126.969 81.1113ZM126.735 80.209C125.587 80.209 124.883 79.3066 124.883 77.8477V77.8359C124.883 76.377 125.587 75.4746 126.735 75.4746C127.889 75.4746 128.575 76.3652 128.575 77.8359V77.8477C128.575 79.3184 127.889 80.209 126.735 80.209ZM132.526 81.1113C133.376 81.1113 134.038 80.7422 134.436 80.0684H134.53V81H135.55V76.6758C135.55 75.3633 134.688 74.5723 133.147 74.5723C131.8 74.5723 130.839 75.2402 130.675 76.2305L130.669 76.2656H131.688L131.694 76.248C131.858 75.7559 132.356 75.4746 133.112 75.4746C134.056 75.4746 134.53 75.8965 134.53 76.6758V77.25L132.72 77.3613C131.249 77.4492 130.417 78.0996 130.417 79.2246V79.2363C130.417 80.3848 131.325 81.1113 132.526 81.1113ZM131.46 79.2129V79.2012C131.46 78.5742 131.882 78.2344 132.843 78.1758L134.53 78.0703V78.6445C134.53 79.5469 133.774 80.2266 132.737 80.2266C132.005 80.2266 131.46 79.8516 131.46 79.2129ZM137.544 73.4648C137.931 73.4648 138.247 73.1484 138.247 72.7617C138.247 72.375 137.931 72.0586 137.544 72.0586C137.157 72.0586 136.841 72.375 136.841 72.7617C136.841 73.1484 137.157 73.4648 137.544 73.4648ZM137.028 81H138.048V74.6836H137.028V81ZM139.058 81H140.201L141.701 78.6152H141.794L143.288 81H144.484L142.31 77.8008L144.454 74.6836H143.312L141.829 77.0332H141.736L140.236 74.6836H139.035L141.22 77.8418L139.058 81ZM147.181 81.1113C148.031 81.1113 148.693 80.7422 149.091 80.0684H149.185V81H150.205V76.6758C150.205 75.3633 149.343 74.5723 147.802 74.5723C146.455 74.5723 145.494 75.2402 145.33 76.2305L145.324 76.2656H146.343L146.349 76.248C146.513 75.7559 147.011 75.4746 147.767 75.4746C148.71 75.4746 149.185 75.8965 149.185 76.6758V77.25L147.375 77.3613C145.904 77.4492 145.072 78.0996 145.072 79.2246V79.2363C145.072 80.3848 145.98 81.1113 147.181 81.1113ZM146.115 79.2129V79.2012C146.115 78.5742 146.537 78.2344 147.498 78.1758L149.185 78.0703V78.6445C149.185 79.5469 148.429 80.2266 147.392 80.2266C146.66 80.2266 146.115 79.8516 146.115 79.2129ZM155.049 81H156.068V75.5273H157.504V74.6836H156.068V74.0098C156.068 73.3184 156.361 72.9609 157.088 72.9609C157.269 72.9609 157.439 72.9668 157.562 72.9902V72.1758C157.352 72.1348 157.129 72.1172 156.883 72.1172C155.682 72.1172 155.049 72.7207 155.049 73.9805V74.6836H154V75.5273H155.049V81ZM159.106 73.4648C159.492 73.4648 159.809 73.1484 159.809 72.7617C159.809 72.375 159.492 72.0586 159.106 72.0586C158.719 72.0586 158.402 72.375 158.402 72.7617C158.402 73.1484 158.719 73.4648 159.106 73.4648ZM158.59 81H159.61V74.6836H158.59V81ZM163.455 81.1113C164.334 81.1113 165.037 80.6953 165.424 79.9922H165.518V81H166.537V72.1758H165.518V75.6797H165.424C165.078 75.0059 164.323 74.5723 163.455 74.5723C161.85 74.5723 160.807 75.8555 160.807 77.8359V77.8477C160.807 79.8164 161.856 81.1113 163.455 81.1113ZM163.69 80.209C162.536 80.209 161.85 79.3184 161.85 77.8477V77.8359C161.85 76.3652 162.536 75.4746 163.69 75.4746C164.838 75.4746 165.541 76.377 165.541 77.8359V77.8477C165.541 79.3066 164.838 80.209 163.69 80.209ZM170.665 81.1113C172.153 81.1113 173.055 80.2676 173.272 79.4121L173.284 79.3652H172.264L172.241 79.418C172.071 79.7988 171.544 80.2031 170.688 80.2031C169.563 80.2031 168.842 79.4414 168.813 78.1348H173.36V77.7363C173.36 75.8496 172.317 74.5723 170.6 74.5723C168.883 74.5723 167.77 75.9082 167.77 77.8594V77.8652C167.77 79.8457 168.86 81.1113 170.665 81.1113ZM170.594 75.4805C171.526 75.4805 172.217 76.0723 172.323 77.3203H168.831C168.942 76.1191 169.657 75.4805 170.594 75.4805ZM174.593 81H175.612V72.1758H174.593V81ZM177.7 73.4648C178.087 73.4648 178.403 73.1484 178.403 72.7617C178.403 72.375 178.087 72.0586 177.7 72.0586C177.313 72.0586 176.997 72.375 176.997 72.7617C176.997 73.1484 177.313 73.4648 177.7 73.4648ZM177.185 81H178.204V74.6836H177.185V81ZM182.05 81.1113C182.929 81.1113 183.632 80.6953 184.019 79.9922H184.113V81H185.132V72.1758H184.113V75.6797H184.019C183.673 75.0059 182.917 74.5723 182.05 74.5723C180.445 74.5723 179.402 75.8555 179.402 77.8359V77.8477C179.402 79.8164 180.45 81.1113 182.05 81.1113ZM182.284 80.209C181.13 80.209 180.445 79.3184 180.445 77.8477V77.8359C180.445 76.3652 181.13 75.4746 182.284 75.4746C183.433 75.4746 184.136 76.377 184.136 77.8359V77.8477C184.136 79.3066 183.433 80.209 182.284 80.209ZM188.415 81.1113C189.265 81.1113 189.927 80.7422 190.326 80.0684H190.419V81H191.439V76.6758C191.439 75.3633 190.578 74.5723 189.037 74.5723C187.689 74.5723 186.728 75.2402 186.564 76.2305L186.558 76.2656H187.578L187.583 76.248C187.747 75.7559 188.246 75.4746 189.001 75.4746C189.945 75.4746 190.419 75.8965 190.419 76.6758V77.25L188.609 77.3613C187.138 77.4492 186.306 78.0996 186.306 79.2246V79.2363C186.306 80.3848 187.214 81.1113 188.415 81.1113ZM187.349 79.2129V79.2012C187.349 78.5742 187.771 78.2344 188.732 78.1758L190.419 78.0703V78.6445C190.419 79.5469 189.663 80.2266 188.626 80.2266C187.894 80.2266 187.349 79.8516 187.349 79.2129ZM195.226 81.1113C196.105 81.1113 196.808 80.6953 197.195 79.9922H197.289V81H198.308V72.1758H197.289V75.6797H197.195C196.849 75.0059 196.093 74.5723 195.226 74.5723C193.621 74.5723 192.578 75.8555 192.578 77.8359V77.8477C192.578 79.8164 193.627 81.1113 195.226 81.1113ZM195.461 80.209C194.306 80.209 193.621 79.3184 193.621 77.8477V77.8359C193.621 76.3652 194.306 75.4746 195.461 75.4746C196.609 75.4746 197.312 76.377 197.312 77.8359V77.8477C197.312 79.3066 196.609 80.209 195.461 80.209ZM202.435 81.1113C203.924 81.1113 204.826 80.2676 205.043 79.4121L205.055 79.3652H204.035L204.012 79.418C203.842 79.7988 203.314 80.2031 202.459 80.2031C201.334 80.2031 200.613 79.4414 200.584 78.1348H205.131V77.7363C205.131 75.8496 204.088 74.5723 202.371 74.5723C200.654 74.5723 199.541 75.9082 199.541 77.8594V77.8652C199.541 79.8457 200.631 81.1113 202.435 81.1113ZM202.365 75.4805C203.297 75.4805 203.988 76.0723 204.094 77.3203H200.601C200.713 76.1191 201.428 75.4805 202.365 75.4805ZM207.137 81.0586C207.559 81.0586 207.898 80.7129 207.898 80.2969C207.898 79.875 207.559 79.5352 207.137 79.5352C206.721 79.5352 206.375 79.875 206.375 80.2969C206.375 80.7129 206.721 81.0586 207.137 81.0586Z" fill="black"/>
<path d="M56.0781 149H57.1328V145.982H59.2656C60.8535 145.982 61.9785 144.863 61.9785 143.258V143.246C61.9785 141.641 60.8535 140.545 59.2656 140.545H56.0781V149ZM58.9961 141.482C60.2031 141.482 60.9004 142.145 60.9004 143.258V143.27C60.9004 144.383 60.2031 145.045 58.9961 145.045H57.1328V141.482H58.9961ZM63.1701 149H64.1897V145.086C64.1897 144.16 64.8811 143.545 65.8537 143.545C66.0764 143.545 66.2697 143.568 66.4807 143.604V142.613C66.3811 142.596 66.1643 142.572 65.9709 142.572C65.1154 142.572 64.5236 142.959 64.2834 143.621H64.1897V142.684H63.1701V149ZM69.7524 149.111C71.5512 149.111 72.6645 147.869 72.6645 145.848V145.836C72.6645 143.809 71.5512 142.572 69.7524 142.572C67.9535 142.572 66.8403 143.809 66.8403 145.836V145.848C66.8403 147.869 67.9535 149.111 69.7524 149.111ZM69.7524 148.209C68.557 148.209 67.8832 147.336 67.8832 145.848V145.836C67.8832 144.342 68.557 143.475 69.7524 143.475C70.9477 143.475 71.6215 144.342 71.6215 145.836V145.848C71.6215 147.336 70.9477 148.209 69.7524 148.209ZM76.0826 149.047C76.2819 149.047 76.4752 149.023 76.6744 148.988V148.121C76.4869 148.139 76.3873 148.145 76.2057 148.145C75.5494 148.145 75.2916 147.846 75.2916 147.102V143.527H76.6744V142.684H75.2916V141.049H74.2369V142.684H73.2408V143.527H74.2369V147.359C74.2369 148.566 74.7819 149.047 76.0826 149.047ZM80.6785 141.805L82.0321 139.812H80.825L79.7879 141.805H80.6785ZM80.2918 149.111C82.0907 149.111 83.2039 147.869 83.2039 145.848V145.836C83.2039 143.809 82.0907 142.572 80.2918 142.572C78.493 142.572 77.3797 143.809 77.3797 145.836V145.848C77.3797 147.869 78.493 149.111 80.2918 149.111ZM80.2918 148.209C79.0965 148.209 78.4227 147.336 78.4227 145.848V145.836C78.4227 144.342 79.0965 143.475 80.2918 143.475C81.4871 143.475 82.161 144.342 82.161 145.836V145.848C82.161 147.336 81.4871 148.209 80.2918 148.209ZM86.6221 149.047C86.8213 149.047 87.0147 149.023 87.2139 148.988V148.121C87.0264 148.139 86.9268 148.145 86.7452 148.145C86.0889 148.145 85.8311 147.846 85.8311 147.102V143.527H87.2139V142.684H85.8311V141.049H84.7764V142.684H83.7803V143.527H84.7764V147.359C84.7764 148.566 85.3213 149.047 86.6221 149.047ZM88.8684 141.465C89.2551 141.465 89.5715 141.148 89.5715 140.762C89.5715 140.375 89.2551 140.059 88.8684 140.059C88.4817 140.059 88.1653 140.375 88.1653 140.762C88.1653 141.148 88.4817 141.465 88.8684 141.465ZM88.3528 149H89.3723V142.684H88.3528V149ZM90.8862 151.109H91.9057V148.004H91.9995C92.3452 148.678 93.101 149.111 93.9682 149.111C95.5737 149.111 96.6167 147.828 96.6167 145.848V145.836C96.6167 143.867 95.5678 142.572 93.9682 142.572C93.0893 142.572 92.3862 142.988 91.9995 143.691H91.9057V142.684H90.8862V151.109ZM93.7338 148.209C92.5854 148.209 91.8823 147.307 91.8823 145.848V145.836C91.8823 144.377 92.5854 143.475 93.7338 143.475C94.8881 143.475 95.5737 144.365 95.5737 145.836V145.848C95.5737 147.318 94.8881 148.209 93.7338 148.209ZM100.398 149.111C102.197 149.111 103.31 147.869 103.31 145.848V145.836C103.31 143.809 102.197 142.572 100.398 142.572C98.5993 142.572 97.486 143.809 97.486 145.836V145.848C97.486 147.869 98.5993 149.111 100.398 149.111ZM100.398 148.209C99.2028 148.209 98.529 147.336 98.529 145.848V145.836C98.529 144.342 99.2028 143.475 100.398 143.475C101.593 143.475 102.267 144.342 102.267 145.836V145.848C102.267 147.336 101.593 148.209 100.398 148.209ZM109.783 149.111C110.662 149.111 111.365 148.695 111.752 147.992H111.846V149H112.865V140.176H111.846V143.68H111.752C111.406 143.006 110.65 142.572 109.783 142.572C108.178 142.572 107.135 143.855 107.135 145.836V145.848C107.135 147.816 108.184 149.111 109.783 149.111ZM110.018 148.209C108.863 148.209 108.178 147.318 108.178 145.848V145.836C108.178 144.365 108.863 143.475 110.018 143.475C111.166 143.475 111.869 144.377 111.869 145.836V145.848C111.869 147.307 111.166 148.209 110.018 148.209ZM116.992 149.111C118.481 149.111 119.383 148.268 119.6 147.412L119.612 147.365H118.592L118.569 147.418C118.399 147.799 117.871 148.203 117.016 148.203C115.891 148.203 115.17 147.441 115.141 146.135H119.688V145.736C119.688 143.85 118.645 142.572 116.928 142.572C115.211 142.572 114.098 143.908 114.098 145.859V145.865C114.098 147.846 115.188 149.111 116.992 149.111ZM116.922 143.48C117.854 143.48 118.545 144.072 118.651 145.32H115.158C115.27 144.119 115.985 143.48 116.922 143.48ZM125.563 149.111C126.413 149.111 127.075 148.742 127.473 148.068H127.567V149H128.587V144.676C128.587 143.363 127.725 142.572 126.184 142.572C124.837 142.572 123.876 143.24 123.712 144.23L123.706 144.266H124.725L124.731 144.248C124.895 143.756 125.393 143.475 126.149 143.475C127.092 143.475 127.567 143.896 127.567 144.676V145.25L125.757 145.361C124.286 145.449 123.454 146.1 123.454 147.225V147.236C123.454 148.385 124.362 149.111 125.563 149.111ZM124.497 147.213V147.201C124.497 146.574 124.919 146.234 125.88 146.176L127.567 146.07V146.645C127.567 147.547 126.811 148.227 125.774 148.227C125.042 148.227 124.497 147.852 124.497 147.213ZM130.101 149H131.12V140.176H130.101V149ZM134.913 149.047C135.112 149.047 135.306 149.023 135.505 148.988V148.121C135.317 148.139 135.218 148.145 135.036 148.145C134.38 148.145 134.122 147.846 134.122 147.102V143.527H135.505V142.684H134.122V141.049H133.067V142.684H132.071V143.527H133.067V147.359C133.067 148.566 133.612 149.047 134.913 149.047ZM138.355 149.111C139.204 149.111 139.867 148.742 140.265 148.068H140.359V149H141.378V144.676C141.378 143.363 140.517 142.572 138.976 142.572C137.628 142.572 136.667 143.24 136.503 144.23L136.497 144.266H137.517L137.523 144.248C137.687 143.756 138.185 143.475 138.941 143.475C139.884 143.475 140.359 143.896 140.359 144.676V145.25L138.548 145.361C137.077 145.449 136.245 146.1 136.245 147.225V147.236C136.245 148.385 137.154 149.111 138.355 149.111ZM137.288 147.213V147.201C137.288 146.574 137.71 146.234 138.671 146.176L140.359 146.07V146.645C140.359 147.547 139.603 148.227 138.566 148.227C137.833 148.227 137.288 147.852 137.288 147.213ZM146.222 149H147.242V143.527H148.677V142.684H147.242V142.01C147.242 141.318 147.535 140.961 148.261 140.961C148.443 140.961 148.613 140.967 148.736 140.99V140.176C148.525 140.135 148.302 140.117 148.056 140.117C146.855 140.117 146.222 140.721 146.222 141.98V142.684H145.174V143.527H146.222V149ZM150.279 141.465C150.666 141.465 150.982 141.148 150.982 140.762C150.982 140.375 150.666 140.059 150.279 140.059C149.893 140.059 149.576 140.375 149.576 140.762C149.576 141.148 149.893 141.465 150.279 141.465ZM149.764 149H150.783V142.684H149.764V149ZM154.629 149.111C155.508 149.111 156.211 148.695 156.598 147.992H156.692V149H157.711V140.176H156.692V143.68H156.598C156.252 143.006 155.496 142.572 154.629 142.572C153.024 142.572 151.981 143.855 151.981 145.836V145.848C151.981 147.816 153.029 149.111 154.629 149.111ZM154.863 148.209C153.709 148.209 153.024 147.318 153.024 145.848V145.836C153.024 144.365 153.709 143.475 154.863 143.475C156.012 143.475 156.715 144.377 156.715 145.836V145.848C156.715 147.307 156.012 148.209 154.863 148.209ZM161.838 149.111C163.327 149.111 164.229 148.268 164.446 147.412L164.457 147.365H163.438L163.414 147.418C163.244 147.799 162.717 148.203 161.862 148.203C160.737 148.203 160.016 147.441 159.987 146.135H164.534V145.736C164.534 143.85 163.491 142.572 161.774 142.572C160.057 142.572 158.944 143.908 158.944 145.859V145.865C158.944 147.846 160.034 149.111 161.838 149.111ZM161.768 143.48C162.7 143.48 163.391 144.072 163.496 145.32H160.004C160.116 144.119 160.83 143.48 161.768 143.48ZM165.766 149H166.786V140.176H165.766V149ZM168.874 141.465C169.261 141.465 169.577 141.148 169.577 140.762C169.577 140.375 169.261 140.059 168.874 140.059C168.487 140.059 168.171 140.375 168.171 140.762C168.171 141.148 168.487 141.465 168.874 141.465ZM168.358 149H169.378V142.684H168.358V149ZM173.224 149.111C174.103 149.111 174.806 148.695 175.192 147.992H175.286V149H176.306V140.176H175.286V143.68H175.192C174.847 143.006 174.091 142.572 173.224 142.572C171.618 142.572 170.575 143.855 170.575 145.836V145.848C170.575 147.816 171.624 149.111 173.224 149.111ZM173.458 148.209C172.304 148.209 171.618 147.318 171.618 145.848V145.836C171.618 144.365 172.304 143.475 173.458 143.475C174.606 143.475 175.31 144.377 175.31 145.836V145.848C175.31 147.307 174.606 148.209 173.458 148.209ZM179.589 149.111C180.439 149.111 181.101 148.742 181.499 148.068H181.593V149H182.613V144.676C182.613 143.363 181.751 142.572 180.21 142.572C178.863 142.572 177.902 143.24 177.738 144.23L177.732 144.266H178.751L178.757 144.248C178.921 143.756 179.419 143.475 180.175 143.475C181.118 143.475 181.593 143.896 181.593 144.676V145.25L179.782 145.361C178.312 145.449 177.48 146.1 177.48 147.225V147.236C177.48 148.385 178.388 149.111 179.589 149.111ZM178.523 147.213V147.201C178.523 146.574 178.945 146.234 179.905 146.176L181.593 146.07V146.645C181.593 147.547 180.837 148.227 179.8 148.227C179.068 148.227 178.523 147.852 178.523 147.213ZM186.4 149.111C187.279 149.111 187.982 148.695 188.369 147.992H188.462V149H189.482V140.176H188.462V143.68H188.369C188.023 143.006 187.267 142.572 186.4 142.572C184.794 142.572 183.751 143.855 183.751 145.836V145.848C183.751 147.816 184.8 149.111 186.4 149.111ZM186.634 148.209C185.48 148.209 184.794 147.318 184.794 145.848V145.836C184.794 144.365 185.48 143.475 186.634 143.475C187.783 143.475 188.486 144.377 188.486 145.836V145.848C188.486 147.307 187.783 148.209 186.634 148.209ZM193.609 149.111C195.097 149.111 196 148.268 196.216 147.412L196.228 147.365H195.209L195.185 147.418C195.015 147.799 194.488 148.203 193.632 148.203C192.507 148.203 191.787 147.441 191.757 146.135H196.304V145.736C196.304 143.85 195.261 142.572 193.545 142.572C191.828 142.572 190.714 143.908 190.714 145.859V145.865C190.714 147.846 191.804 149.111 193.609 149.111ZM193.539 143.48C194.47 143.48 195.162 144.072 195.267 145.32H191.775C191.886 144.119 192.601 143.48 193.539 143.48ZM198.31 149.059C198.732 149.059 199.072 148.713 199.072 148.297C199.072 147.875 198.732 147.535 198.31 147.535C197.894 147.535 197.549 147.875 197.549 148.297C197.549 148.713 197.894 149.059 198.31 149.059Z" fill="black"/>
<path d="M56.0781 115H57.1328V111.982H59.2656C60.8535 111.982 61.9785 110.863 61.9785 109.258V109.246C61.9785 107.641 60.8535 106.545 59.2656 106.545H56.0781V115ZM58.9961 107.482C60.2031 107.482 60.9004 108.145 60.9004 109.258V109.27C60.9004 110.383 60.2031 111.045 58.9961 111.045H57.1328V107.482H58.9961ZM63.1701 115H64.1897V111.086C64.1897 110.16 64.8811 109.545 65.8537 109.545C66.0764 109.545 66.2697 109.568 66.4807 109.604V108.613C66.3811 108.596 66.1643 108.572 65.9709 108.572C65.1154 108.572 64.5236 108.959 64.2834 109.621H64.1897V108.684H63.1701V115ZM69.7524 115.111C71.5512 115.111 72.6645 113.869 72.6645 111.848V111.836C72.6645 109.809 71.5512 108.572 69.7524 108.572C67.9535 108.572 66.8403 109.809 66.8403 111.836V111.848C66.8403 113.869 67.9535 115.111 69.7524 115.111ZM69.7524 114.209C68.557 114.209 67.8832 113.336 67.8832 111.848V111.836C67.8832 110.342 68.557 109.475 69.7524 109.475C70.9477 109.475 71.6215 110.342 71.6215 111.836V111.848C71.6215 113.336 70.9477 114.209 69.7524 114.209ZM76.0826 115.047C76.2819 115.047 76.4752 115.023 76.6744 114.988V114.121C76.4869 114.139 76.3873 114.145 76.2057 114.145C75.5494 114.145 75.2916 113.846 75.2916 113.102V109.527H76.6744V108.684H75.2916V107.049H74.2369V108.684H73.2408V109.527H74.2369V113.359C74.2369 114.566 74.7819 115.047 76.0826 115.047ZM80.6785 107.805L82.0321 105.812H80.825L79.7879 107.805H80.6785ZM80.2918 115.111C82.0907 115.111 83.2039 113.869 83.2039 111.848V111.836C83.2039 109.809 82.0907 108.572 80.2918 108.572C78.493 108.572 77.3797 109.809 77.3797 111.836V111.848C77.3797 113.869 78.493 115.111 80.2918 115.111ZM80.2918 114.209C79.0965 114.209 78.4227 113.336 78.4227 111.848V111.836C78.4227 110.342 79.0965 109.475 80.2918 109.475C81.4871 109.475 82.161 110.342 82.161 111.836V111.848C82.161 113.336 81.4871 114.209 80.2918 114.209ZM86.6221 115.047C86.8213 115.047 87.0147 115.023 87.2139 114.988V114.121C87.0264 114.139 86.9268 114.145 86.7452 114.145C86.0889 114.145 85.8311 113.846 85.8311 113.102V109.527H87.2139V108.684H85.8311V107.049H84.7764V108.684H83.7803V109.527H84.7764V113.359C84.7764 114.566 85.3213 115.047 86.6221 115.047ZM88.8684 107.465C89.2551 107.465 89.5715 107.148 89.5715 106.762C89.5715 106.375 89.2551 106.059 88.8684 106.059C88.4817 106.059 88.1653 106.375 88.1653 106.762C88.1653 107.148 88.4817 107.465 88.8684 107.465ZM88.3528 115H89.3723V108.684H88.3528V115ZM90.8862 117.109H91.9057V114.004H91.9995C92.3452 114.678 93.101 115.111 93.9682 115.111C95.5737 115.111 96.6167 113.828 96.6167 111.848V111.836C96.6167 109.867 95.5678 108.572 93.9682 108.572C93.0893 108.572 92.3862 108.988 91.9995 109.691H91.9057V108.684H90.8862V117.109ZM93.7338 114.209C92.5854 114.209 91.8823 113.307 91.8823 111.848V111.836C91.8823 110.377 92.5854 109.475 93.7338 109.475C94.8881 109.475 95.5737 110.365 95.5737 111.836V111.848C95.5737 113.318 94.8881 114.209 93.7338 114.209ZM100.398 115.111C102.197 115.111 103.31 113.869 103.31 111.848V111.836C103.31 109.809 102.197 108.572 100.398 108.572C98.5993 108.572 97.486 109.809 97.486 111.836V111.848C97.486 113.869 98.5993 115.111 100.398 115.111ZM100.398 114.209C99.2028 114.209 98.529 113.336 98.529 111.848V111.836C98.529 110.342 99.2028 109.475 100.398 109.475C101.593 109.475 102.267 110.342 102.267 111.836V111.848C102.267 113.336 101.593 114.209 100.398 114.209ZM109.783 115.111C110.662 115.111 111.365 114.695 111.752 113.992H111.846V115H112.865V106.176H111.846V109.68H111.752C111.406 109.006 110.65 108.572 109.783 108.572C108.178 108.572 107.135 109.855 107.135 111.836V111.848C107.135 113.816 108.184 115.111 109.783 115.111ZM110.018 114.209C108.863 114.209 108.178 113.318 108.178 111.848V111.836C108.178 110.365 108.863 109.475 110.018 109.475C111.166 109.475 111.869 110.377 111.869 111.836V111.848C111.869 113.307 111.166 114.209 110.018 114.209ZM116.992 115.111C118.481 115.111 119.383 114.268 119.6 113.412L119.612 113.365H118.592L118.569 113.418C118.399 113.799 117.871 114.203 117.016 114.203C115.891 114.203 115.17 113.441 115.141 112.135H119.688V111.736C119.688 109.85 118.645 108.572 116.928 108.572C115.211 108.572 114.098 109.908 114.098 111.859V111.865C114.098 113.846 115.188 115.111 116.992 115.111ZM116.922 109.48C117.854 109.48 118.545 110.072 118.651 111.32H115.158C115.27 110.119 115.985 109.48 116.922 109.48ZM123.829 115H124.848V111.086C124.848 110.195 125.475 109.475 126.301 109.475C127.098 109.475 127.614 109.961 127.614 110.711V115H128.633V110.939C128.633 110.137 129.214 109.475 130.092 109.475C130.983 109.475 131.411 109.938 131.411 110.869V115H132.43V110.635C132.43 109.311 131.71 108.572 130.421 108.572C129.548 108.572 128.827 109.012 128.487 109.68H128.393C128.1 109.023 127.503 108.572 126.647 108.572C125.821 108.572 125.223 108.965 124.942 109.645H124.848V108.684H123.829V115ZM136.78 107.805L138.134 105.812H136.927L135.89 107.805H136.78ZM136.44 115.111C137.929 115.111 138.831 114.268 139.048 113.412L139.059 113.365H138.04L138.017 113.418C137.847 113.799 137.319 114.203 136.464 114.203C135.339 114.203 134.618 113.441 134.589 112.135H139.136V111.736C139.136 109.85 138.093 108.572 136.376 108.572C134.659 108.572 133.546 109.908 133.546 111.859V111.865C133.546 113.846 134.636 115.111 136.44 115.111ZM136.37 109.48C137.302 109.48 137.993 110.072 138.099 111.32H134.606C134.718 110.119 135.433 109.48 136.37 109.48ZM142.642 115.111C143.521 115.111 144.224 114.695 144.61 113.992H144.704V115H145.724V106.176H144.704V109.68H144.61C144.265 109.006 143.509 108.572 142.642 108.572C141.036 108.572 139.993 109.855 139.993 111.836V111.848C139.993 113.816 141.042 115.111 142.642 115.111ZM142.876 114.209C141.722 114.209 141.036 113.318 141.036 111.848V111.836C141.036 110.365 141.722 109.475 142.876 109.475C144.025 109.475 144.728 110.377 144.728 111.836V111.848C144.728 113.307 144.025 114.209 142.876 114.209ZM147.812 107.465C148.199 107.465 148.515 107.148 148.515 106.762C148.515 106.375 148.199 106.059 147.812 106.059C147.425 106.059 147.109 106.375 147.109 106.762C147.109 107.148 147.425 107.465 147.812 107.465ZM147.296 115H148.316V108.684H147.296V115ZM151.564 115.111C152.414 115.111 153.076 114.742 153.474 114.068H153.568V115H154.587V110.676C154.587 109.363 153.726 108.572 152.185 108.572C150.837 108.572 149.877 109.24 149.712 110.23L149.707 110.266H150.726L150.732 110.248C150.896 109.756 151.394 109.475 152.15 109.475C153.093 109.475 153.568 109.896 153.568 110.676V111.25L151.757 111.361C150.287 111.449 149.455 112.1 149.455 113.225V113.236C149.455 114.385 150.363 115.111 151.564 115.111ZM150.498 113.213V113.201C150.498 112.574 150.919 112.234 151.88 112.176L153.568 112.07V112.645C153.568 113.547 152.812 114.227 151.775 114.227C151.043 114.227 150.498 113.852 150.498 113.213ZM159.432 115H160.451V109.527H161.887V108.684H160.451V108.01C160.451 107.318 160.744 106.961 161.471 106.961C161.652 106.961 161.822 106.967 161.945 106.99V106.176C161.734 106.135 161.512 106.117 161.266 106.117C160.064 106.117 159.432 106.721 159.432 107.98V108.684H158.383V109.527H159.432V115ZM163.488 107.465C163.875 107.465 164.192 107.148 164.192 106.762C164.192 106.375 163.875 106.059 163.488 106.059C163.102 106.059 162.785 106.375 162.785 106.762C162.785 107.148 163.102 107.465 163.488 107.465ZM162.973 115H163.992V108.684H162.973V115ZM167.838 115.111C168.717 115.111 169.42 114.695 169.807 113.992H169.901V115H170.92V106.176H169.901V109.68H169.807C169.461 109.006 168.705 108.572 167.838 108.572C166.233 108.572 165.19 109.855 165.19 111.836V111.848C165.19 113.816 166.239 115.111 167.838 115.111ZM168.073 114.209C166.918 114.209 166.233 113.318 166.233 111.848V111.836C166.233 110.365 166.918 109.475 168.073 109.475C169.221 109.475 169.924 110.377 169.924 111.836V111.848C169.924 113.307 169.221 114.209 168.073 114.209ZM175.047 115.111C176.536 115.111 177.438 114.268 177.655 113.412L177.667 113.365H176.647L176.624 113.418C176.454 113.799 175.926 114.203 175.071 114.203C173.946 114.203 173.225 113.441 173.196 112.135H177.743V111.736C177.743 109.85 176.7 108.572 174.983 108.572C173.266 108.572 172.153 109.908 172.153 111.859V111.865C172.153 113.846 173.243 115.111 175.047 115.111ZM174.977 109.48C175.909 109.48 176.6 110.072 176.706 111.32H173.213C173.325 110.119 174.04 109.48 174.977 109.48ZM178.975 115H179.995V106.176H178.975V115ZM182.083 107.465C182.47 107.465 182.786 107.148 182.786 106.762C182.786 106.375 182.47 106.059 182.083 106.059C181.696 106.059 181.38 106.375 181.38 106.762C181.38 107.148 181.696 107.465 182.083 107.465ZM181.567 115H182.587V108.684H181.567V115ZM186.433 115.111C187.312 115.111 188.015 114.695 188.402 113.992H188.495V115H189.515V106.176H188.495V109.68H188.402C188.056 109.006 187.3 108.572 186.433 108.572C184.827 108.572 183.784 109.855 183.784 111.836V111.848C183.784 113.816 184.833 115.111 186.433 115.111ZM186.667 114.209C185.513 114.209 184.827 113.318 184.827 111.848V111.836C184.827 110.365 185.513 109.475 186.667 109.475C187.816 109.475 188.519 110.377 188.519 111.836V111.848C188.519 113.307 187.816 114.209 186.667 114.209ZM192.798 115.111C193.648 115.111 194.31 114.742 194.708 114.068H194.802V115H195.822V110.676C195.822 109.363 194.96 108.572 193.419 108.572C192.072 108.572 191.111 109.24 190.947 110.23L190.941 110.266H191.96L191.966 110.248C192.13 109.756 192.628 109.475 193.384 109.475C194.328 109.475 194.802 109.896 194.802 110.676V111.25L192.992 111.361C191.521 111.449 190.689 112.1 190.689 113.225V113.236C190.689 114.385 191.597 115.111 192.798 115.111ZM191.732 113.213V113.201C191.732 112.574 192.154 112.234 193.115 112.176L194.802 112.07V112.645C194.802 113.547 194.046 114.227 193.009 114.227C192.277 114.227 191.732 113.852 191.732 113.213ZM199.609 115.111C200.488 115.111 201.191 114.695 201.578 113.992H201.671V115H202.691V106.176H201.671V109.68H201.578C201.232 109.006 200.476 108.572 199.609 108.572C198.004 108.572 196.961 109.855 196.961 111.836V111.848C196.961 113.816 198.009 115.111 199.609 115.111ZM199.843 114.209C198.689 114.209 198.004 113.318 198.004 111.848V111.836C198.004 110.365 198.689 109.475 199.843 109.475C200.992 109.475 201.695 110.377 201.695 111.836V111.848C201.695 113.307 200.992 114.209 199.843 114.209ZM206.818 115.111C208.306 115.111 209.209 114.268 209.426 113.412L209.437 113.365H208.418L208.394 113.418C208.224 113.799 207.697 114.203 206.842 114.203C205.717 114.203 204.996 113.441 204.967 112.135H209.514V111.736C209.514 109.85 208.471 108.572 206.754 108.572C205.037 108.572 203.924 109.908 203.924 111.859V111.865C203.924 113.846 205.014 115.111 206.818 115.111ZM206.748 109.48C207.68 109.48 208.371 110.072 208.476 111.32H204.984C205.096 110.119 205.81 109.48 206.748 109.48ZM211.52 115.059C211.941 115.059 212.281 114.713 212.281 114.297C212.281 113.875 211.941 113.535 211.52 113.535C211.104 113.535 210.758 113.875 210.758 114.297C210.758 114.713 211.104 115.059 211.52 115.059Z" fill="black"/>
<rect x="22.5" y="64.5" width="26" height="26" rx="3.5" fill="#614CCB" stroke="#614CCB"/>
<rect x="22.5" y="132.5" width="26" height="26" rx="3.5" fill="#EBEBEB" stroke="#614CCB"/>
<rect x="22.5" y="98.5" width="26" height="26" rx="3.5" fill="#EBEBEB" stroke="#614CCB"/>
<path d="M40.9999 71L34.7708 83.2334" stroke="#EEEEFF" stroke-width="2" stroke-linecap="round" stroke-linejoin="round"/>
<path d="M29 77L34.3447 83.2564" stroke="#EEEEFF" stroke-width="2" stroke-linecap="round" stroke-linejoin="round"/>
<rect x="55" y="43" width="191" height="7" rx="3.5" fill="#D9D9D9"/>
<path d="M53 46.5C53 44.567 54.567 43 56.5 43H131V50H56.5C54.567 50 53 48.433 53 46.5V46.5Z" fill="#180B5A"/>
</svg>
