<svg width="244" height="172" viewBox="0 0 244 172" fill="none" xmlns="http://www.w3.org/2000/svg">
<rect width="244" height="172" rx="10" fill="#EBEBFF"/>
<path d="M13.6709 28H15.4346V19.6191H18.4766V18.1357H10.6357V19.6191H13.6709V28ZM20.4201 28.123C21.4045 28.123 22.1975 27.6992 22.6076 26.9746H22.7238V28H24.4055V22.8936C24.4055 21.3145 23.3254 20.3848 21.4045 20.3848C19.6272 20.3848 18.424 21.2188 18.26 22.4766L18.2531 22.5381H19.8596L19.8664 22.5107C20.0373 22.0186 20.5432 21.7383 21.3225 21.7383C22.2385 21.7383 22.7238 22.1484 22.7238 22.8936V23.5361L20.8029 23.6523C18.9846 23.7617 17.966 24.541 17.966 25.874V25.8877C17.966 27.248 18.9983 28.123 20.4201 28.123ZM19.6477 25.8057V25.792C19.6477 25.1768 20.092 24.8281 21.0422 24.7666L22.7238 24.6572V25.2588C22.7238 26.1475 21.965 26.8174 20.9397 26.8174C20.1877 26.8174 19.6477 26.4414 19.6477 25.8057ZM26.0414 28H27.7436V23.6592C27.7436 22.5928 28.4887 21.916 29.6235 21.916C29.9174 21.916 30.1977 21.957 30.4711 22.0117V20.4873C30.307 20.4395 30.0404 20.4053 29.7807 20.4053C28.7963 20.4053 28.1127 20.877 27.8598 21.6768H27.7436V20.5283H26.0414V28ZM34.4655 28.1504C36.4957 28.1504 37.4938 26.9814 37.733 26.0176L37.7535 25.9561H36.1334L36.1129 26.0039C35.9489 26.3457 35.4225 26.8105 34.4996 26.8105C33.3444 26.8105 32.6198 26.0312 32.5992 24.6914H37.8219V24.1309C37.8219 21.875 36.5094 20.3848 34.3834 20.3848C32.2574 20.3848 30.8971 21.9229 30.8971 24.2744V24.2812C30.8971 26.6602 32.2438 28.1504 34.4655 28.1504ZM34.4039 21.7178C35.3541 21.7178 36.0446 22.3262 36.1608 23.5498H32.6129C32.7428 22.3604 33.4537 21.7178 34.4039 21.7178ZM39.6629 28H41.3651V21.8477H42.9578V20.5283H41.3377V19.8857C41.3377 19.1748 41.6453 18.792 42.4451 18.792C42.6844 18.792 42.8963 18.8057 43.0262 18.8262V17.6367C42.7528 17.5889 42.4451 17.5684 42.0828 17.5684C40.4217 17.5684 39.6629 18.2998 39.6629 19.79V20.5283H38.4393V21.8477H39.6629V28ZM45.9952 28.123C46.9795 28.123 47.7725 27.6992 48.1827 26.9746H48.2989V28H49.9805V22.8936C49.9805 21.3145 48.9004 20.3848 46.9795 20.3848C45.2022 20.3848 43.9991 21.2188 43.835 22.4766L43.8282 22.5381H45.4346L45.4414 22.5107C45.6123 22.0186 46.1182 21.7383 46.8975 21.7383C47.8135 21.7383 48.2989 22.1484 48.2989 22.8936V23.5361L46.378 23.6523C44.5596 23.7617 43.5411 24.541 43.5411 25.874V25.8877C43.5411 27.248 44.5733 28.123 45.9952 28.123ZM45.2227 25.8057V25.792C45.2227 25.1768 45.667 24.8281 46.6172 24.7666L48.2989 24.6572V25.2588C48.2989 26.1475 47.5401 26.8174 46.5147 26.8174C45.7627 26.8174 45.2227 26.4414 45.2227 25.8057ZM54.4397 28.1504C56.2786 28.1504 57.6116 27.2002 57.6116 25.7783V25.7646C57.6116 24.6777 56.9211 24.0557 55.4583 23.7275L54.2483 23.4609C53.4417 23.2764 53.1272 23.0098 53.1272 22.5723V22.5654C53.1272 22.0049 53.6741 21.6357 54.4329 21.6357C55.2327 21.6357 55.7249 22.0186 55.8479 22.4902L55.8547 22.5107H57.4543V22.4971C57.345 21.2871 56.2581 20.3848 54.4397 20.3848C52.676 20.3848 51.4456 21.3145 51.4456 22.6611V22.668C51.4456 23.7686 52.1223 24.4385 53.5442 24.7529L54.7542 25.0264C55.5745 25.2109 55.9026 25.498 55.9026 25.9355V25.9492C55.9026 26.5098 55.3147 26.8926 54.467 26.8926C53.6194 26.8926 53.1204 26.5303 52.9426 26.0107L52.9358 25.9971H51.2473V26.0107C51.3909 27.2754 52.5393 28.1504 54.4397 28.1504ZM64.9372 28.123C65.9899 28.123 66.7965 27.6445 67.2067 26.8311H67.3229V28H69.0319V17.6367H67.3229V21.7178H67.2067C66.8171 20.9111 65.9626 20.4053 64.9372 20.4053C63.0436 20.4053 61.8747 21.8818 61.8747 24.2607V24.2744C61.8747 26.6396 63.0641 28.123 64.9372 28.123ZM65.4704 26.6875C64.3083 26.6875 63.6042 25.7783 63.6042 24.2744V24.2607C63.6042 22.7568 64.3151 21.8408 65.4704 21.8408C66.6256 21.8408 67.3503 22.7637 67.3503 24.2607V24.2744C67.3503 25.7715 66.6325 26.6875 65.4704 26.6875ZM73.9901 28.1504C76.2255 28.1504 77.5858 26.6875 77.5858 24.2676V24.2539C77.5858 21.8477 76.2186 20.3848 73.9901 20.3848C71.7684 20.3848 70.3944 21.8545 70.3944 24.2539V24.2676C70.3944 26.6875 71.7479 28.1504 73.9901 28.1504ZM73.9901 26.7695C72.8075 26.7695 72.1307 25.8467 72.1307 24.2744V24.2607C72.1307 22.6885 72.8075 21.7588 73.9901 21.7588C75.1659 21.7588 75.8426 22.6885 75.8426 24.2607V24.2744C75.8426 25.8467 75.1727 26.7695 73.9901 26.7695ZM82.389 28H86.0872C89.0403 28 90.7288 26.1885 90.7288 23.0303V23.0166C90.7288 19.9268 89.0198 18.1357 86.0872 18.1357H82.389V28ZM84.1526 26.5166V19.6191H85.8548C87.7893 19.6191 88.9309 20.877 88.9309 23.0439V23.0576C88.9309 25.2725 87.8167 26.5166 85.8548 26.5166H84.1526ZM93.0415 19.2773C93.5952 19.2773 94.0532 18.833 94.0532 18.2725C94.0532 17.7188 93.5952 17.2676 93.0415 17.2676C92.481 17.2676 92.0229 17.7188 92.0229 18.2725C92.0229 18.833 92.481 19.2773 93.0415 19.2773ZM92.187 28H93.8892V20.5283H92.187V28ZM97.6101 28.123C98.5944 28.123 99.3874 27.6992 99.7976 26.9746H99.9138V28H101.595V22.8936C101.595 21.3145 100.515 20.3848 98.5944 20.3848C96.8171 20.3848 95.614 21.2188 95.4499 22.4766L95.4431 22.5381H97.0495L97.0564 22.5107C97.2272 22.0186 97.7331 21.7383 98.5124 21.7383C99.4284 21.7383 99.9138 22.1484 99.9138 22.8936V23.5361L97.9929 23.6523C96.1745 23.7617 95.156 24.541 95.156 25.874V25.8877C95.156 27.248 96.1882 28.123 97.6101 28.123ZM96.8376 25.8057V25.792C96.8376 25.1768 97.2819 24.8281 98.2321 24.7666L99.9138 24.6572V25.2588C99.9138 26.1475 99.155 26.8174 98.1296 26.8174C97.3776 26.8174 96.8376 26.4414 96.8376 25.8057Z" fill="black"/>
<path d="M14.8203 51.1406C16.5137 51.1406 17.7559 50.0977 17.7559 48.6855V48.6738C17.7559 47.4727 16.918 46.7051 15.6875 46.5996V46.5762C16.7422 46.3535 17.4805 45.6387 17.4805 44.5957V44.584C17.4805 43.3008 16.4199 42.4043 14.8086 42.4043C13.2266 42.4043 12.1367 43.3242 12.002 44.7012L11.9961 44.7598H13.0098L13.0156 44.7012C13.1035 43.8457 13.8125 43.3184 14.8086 43.3184C15.8398 43.3184 16.4199 43.8281 16.4199 44.7129V44.7246C16.4199 45.5684 15.7168 46.1895 14.709 46.1895H13.6953V47.0801H14.7559C15.9395 47.0801 16.6836 47.6602 16.6836 48.6973V48.709C16.6836 49.6055 15.9277 50.2266 14.8203 50.2266C13.6953 50.2266 12.9277 49.6523 12.8457 48.8203L12.8398 48.7617H11.8262L11.832 48.832C11.9434 50.168 13.0742 51.1406 14.8203 51.1406ZM21.9358 51.1406C23.6291 51.1406 24.8713 50.0977 24.8713 48.6855V48.6738C24.8713 47.4727 24.0334 46.7051 22.8029 46.5996V46.5762C23.8576 46.3535 24.5959 45.6387 24.5959 44.5957V44.584C24.5959 43.3008 23.5354 42.4043 21.924 42.4043C20.342 42.4043 19.2522 43.3242 19.1174 44.7012L19.1115 44.7598H20.1252L20.1311 44.7012C20.219 43.8457 20.9279 43.3184 21.924 43.3184C22.9553 43.3184 23.5354 43.8281 23.5354 44.7129V44.7246C23.5354 45.5684 22.8322 46.1895 21.8244 46.1895H20.8108V47.0801H21.8713C23.0549 47.0801 23.799 47.6602 23.799 48.6973V48.709C23.799 49.6055 23.0432 50.2266 21.9358 50.2266C20.8108 50.2266 20.0432 49.6523 19.9611 48.8203L19.9553 48.7617H18.9416L18.9475 48.832C19.0588 50.168 20.1897 51.1406 21.9358 51.1406ZM27.7504 46.9922C28.8285 46.9922 29.4848 46.1133 29.4848 44.7129V44.707C29.4848 43.3066 28.8285 42.4336 27.7504 42.4336C26.6723 42.4336 26.0219 43.3066 26.0219 44.707V44.7129C26.0219 46.1133 26.6723 46.9922 27.7504 46.9922ZM28.3832 51L34.1371 42.5449H33.1879L27.434 51H28.3832ZM27.7504 46.2949C27.1703 46.2949 26.8363 45.7031 26.8363 44.7129V44.707C26.8363 43.7168 27.1703 43.1309 27.7504 43.1309C28.3305 43.1309 28.6703 43.7168 28.6703 44.707V44.7129C28.6703 45.7031 28.3305 46.2949 27.7504 46.2949ZM33.809 51.1113C34.8871 51.1113 35.5434 50.2324 35.5434 48.832V48.8262C35.5434 47.4258 34.8871 46.5527 33.809 46.5527C32.7309 46.5527 32.0805 47.4258 32.0805 48.8262V48.832C32.0805 50.2324 32.7309 51.1113 33.809 51.1113ZM33.809 50.4141C33.2289 50.4141 32.8949 49.8223 32.8949 48.832V48.8262C32.8949 47.8359 33.2289 47.25 33.809 47.25C34.3891 47.25 34.7289 47.8359 34.7289 48.8262V48.832C34.7289 49.8223 34.3891 50.4141 33.809 50.4141Z" fill="#686674"/>
<path d="M44.0781 82H45.1328V78.9824H47.2656C48.8535 78.9824 49.9785 77.8633 49.9785 76.2578V76.2461C49.9785 74.6406 48.8535 73.5449 47.2656 73.5449H44.0781V82ZM46.9961 74.4824C48.2031 74.4824 48.9004 75.1445 48.9004 76.2578V76.2695C48.9004 77.3828 48.2031 78.0449 46.9961 78.0449H45.1328V74.4824H46.9961ZM51.1701 82H52.1897V78.0859C52.1897 77.1602 52.8811 76.5449 53.8537 76.5449C54.0764 76.5449 54.2697 76.5684 54.4807 76.6035V75.6133C54.3811 75.5957 54.1643 75.5723 53.9709 75.5723C53.1154 75.5723 52.5236 75.959 52.2834 76.6211H52.1897V75.6836H51.1701V82ZM57.7524 82.1113C59.5512 82.1113 60.6645 80.8691 60.6645 78.8477V78.8359C60.6645 76.8086 59.5512 75.5723 57.7524 75.5723C55.9535 75.5723 54.8403 76.8086 54.8403 78.8359V78.8477C54.8403 80.8691 55.9535 82.1113 57.7524 82.1113ZM57.7524 81.209C56.557 81.209 55.8832 80.3359 55.8832 78.8477V78.8359C55.8832 77.3418 56.557 76.4746 57.7524 76.4746C58.9477 76.4746 59.6215 77.3418 59.6215 78.8359V78.8477C59.6215 80.3359 58.9477 81.209 57.7524 81.209ZM64.0826 82.0469C64.2819 82.0469 64.4752 82.0234 64.6744 81.9883V81.1211C64.4869 81.1387 64.3873 81.1445 64.2057 81.1445C63.5494 81.1445 63.2916 80.8457 63.2916 80.1016V76.5273H64.6744V75.6836H63.2916V74.0488H62.2369V75.6836H61.2408V76.5273H62.2369V80.3594C62.2369 81.5664 62.7819 82.0469 64.0826 82.0469ZM68.6785 74.8047L70.0321 72.8125H68.825L67.7879 74.8047H68.6785ZM68.2918 82.1113C70.0907 82.1113 71.2039 80.8691 71.2039 78.8477V78.8359C71.2039 76.8086 70.0907 75.5723 68.2918 75.5723C66.493 75.5723 65.3797 76.8086 65.3797 78.8359V78.8477C65.3797 80.8691 66.493 82.1113 68.2918 82.1113ZM68.2918 81.209C67.0965 81.209 66.4227 80.3359 66.4227 78.8477V78.8359C66.4227 77.3418 67.0965 76.4746 68.2918 76.4746C69.4871 76.4746 70.161 77.3418 70.161 78.8359V78.8477C70.161 80.3359 69.4871 81.209 68.2918 81.209ZM74.6221 82.0469C74.8213 82.0469 75.0147 82.0234 75.2139 81.9883V81.1211C75.0264 81.1387 74.9268 81.1445 74.7452 81.1445C74.0889 81.1445 73.8311 80.8457 73.8311 80.1016V76.5273H75.2139V75.6836H73.8311V74.0488H72.7764V75.6836H71.7803V76.5273H72.7764V80.3594C72.7764 81.5664 73.3213 82.0469 74.6221 82.0469ZM76.8684 74.4648C77.2551 74.4648 77.5715 74.1484 77.5715 73.7617C77.5715 73.375 77.2551 73.0586 76.8684 73.0586C76.4817 73.0586 76.1653 73.375 76.1653 73.7617C76.1653 74.1484 76.4817 74.4648 76.8684 74.4648ZM76.3528 82H77.3723V75.6836H76.3528V82ZM78.8862 84.1094H79.9057V81.0039H79.9995C80.3452 81.6777 81.101 82.1113 81.9682 82.1113C83.5737 82.1113 84.6167 80.8281 84.6167 78.8477V78.8359C84.6167 76.8672 83.5678 75.5723 81.9682 75.5723C81.0893 75.5723 80.3862 75.9883 79.9995 76.6914H79.9057V75.6836H78.8862V84.1094ZM81.7338 81.209C80.5854 81.209 79.8823 80.3066 79.8823 78.8477V78.8359C79.8823 77.377 80.5854 76.4746 81.7338 76.4746C82.8881 76.4746 83.5737 77.3652 83.5737 78.8359V78.8477C83.5737 80.3184 82.8881 81.209 81.7338 81.209ZM88.3981 82.1113C90.1969 82.1113 91.3102 80.8691 91.3102 78.8477V78.8359C91.3102 76.8086 90.1969 75.5723 88.3981 75.5723C86.5993 75.5723 85.486 76.8086 85.486 78.8359V78.8477C85.486 80.8691 86.5993 82.1113 88.3981 82.1113ZM88.3981 81.209C87.2028 81.209 86.529 80.3359 86.529 78.8477V78.8359C86.529 77.3418 87.2028 76.4746 88.3981 76.4746C89.5934 76.4746 90.2673 77.3418 90.2673 78.8359V78.8477C90.2673 80.3359 89.5934 81.209 88.3981 81.209ZM97.7833 82.1113C98.6622 82.1113 99.3653 81.6953 99.752 80.9922H99.8458V82H100.865V73.1758H99.8458V76.6797H99.752C99.4063 76.0059 98.6505 75.5723 97.7833 75.5723C96.1778 75.5723 95.1348 76.8555 95.1348 78.8359V78.8477C95.1348 80.8164 96.1837 82.1113 97.7833 82.1113ZM98.0177 81.209C96.8634 81.209 96.1778 80.3184 96.1778 78.8477V78.8359C96.1778 77.3652 96.8634 76.4746 98.0177 76.4746C99.1661 76.4746 99.8692 77.377 99.8692 78.8359V78.8477C99.8692 80.3066 99.1661 81.209 98.0177 81.209ZM104.992 82.1113C106.481 82.1113 107.383 81.2676 107.6 80.4121L107.612 80.3652H106.592L106.569 80.418C106.399 80.7988 105.871 81.2031 105.016 81.2031C103.891 81.2031 103.17 80.4414 103.141 79.1348H107.688V78.7363C107.688 76.8496 106.645 75.5723 104.928 75.5723C103.211 75.5723 102.098 76.9082 102.098 78.8594V78.8652C102.098 80.8457 103.188 82.1113 104.992 82.1113ZM104.922 76.4805C105.854 76.4805 106.545 77.0723 106.651 78.3203H103.158C103.27 77.1191 103.985 76.4805 104.922 76.4805ZM114.969 82.1113C116.569 82.1113 117.618 80.8164 117.618 78.8477V78.8359C117.618 76.8555 116.575 75.5723 114.969 75.5723C114.102 75.5723 113.346 76.0059 113.001 76.6797H112.907V73.1758H111.887V82H112.907V80.9922H113.001C113.387 81.6953 114.091 82.1113 114.969 82.1113ZM114.735 81.209C113.587 81.209 112.883 80.3066 112.883 78.8477V78.8359C112.883 77.377 113.587 76.4746 114.735 76.4746C115.889 76.4746 116.575 77.3652 116.575 78.8359V78.8477C116.575 80.3184 115.889 81.209 114.735 81.209ZM120.526 82.1113C121.376 82.1113 122.038 81.7422 122.436 81.0684H122.53V82H123.55V77.6758C123.55 76.3633 122.688 75.5723 121.147 75.5723C119.8 75.5723 118.839 76.2402 118.675 77.2305L118.669 77.2656H119.688L119.694 77.248C119.858 76.7559 120.356 76.4746 121.112 76.4746C122.056 76.4746 122.53 76.8965 122.53 77.6758V78.25L120.72 78.3613C119.249 78.4492 118.417 79.0996 118.417 80.2246V80.2363C118.417 81.3848 119.325 82.1113 120.526 82.1113ZM119.46 80.2129V80.2012C119.46 79.5742 119.882 79.2344 120.843 79.1758L122.53 79.0703V79.6445C122.53 80.5469 121.774 81.2266 120.737 81.2266C120.005 81.2266 119.46 80.8516 119.46 80.2129ZM125.544 74.4648C125.931 74.4648 126.247 74.1484 126.247 73.7617C126.247 73.375 125.931 73.0586 125.544 73.0586C125.157 73.0586 124.841 73.375 124.841 73.7617C124.841 74.1484 125.157 74.4648 125.544 74.4648ZM125.028 82H126.048V75.6836H125.028V82ZM127.058 82H128.201L129.701 79.6152H129.794L131.288 82H132.484L130.31 78.8008L132.454 75.6836H131.312L129.829 78.0332H129.736L128.236 75.6836H127.035L129.22 78.8418L127.058 82ZM135.181 82.1113C136.031 82.1113 136.693 81.7422 137.091 81.0684H137.185V82H138.205V77.6758C138.205 76.3633 137.343 75.5723 135.802 75.5723C134.455 75.5723 133.494 76.2402 133.33 77.2305L133.324 77.2656H134.343L134.349 77.248C134.513 76.7559 135.011 76.4746 135.767 76.4746C136.71 76.4746 137.185 76.8965 137.185 77.6758V78.25L135.375 78.3613C133.904 78.4492 133.072 79.0996 133.072 80.2246V80.2363C133.072 81.3848 133.98 82.1113 135.181 82.1113ZM134.115 80.2129V80.2012C134.115 79.5742 134.537 79.2344 135.498 79.1758L137.185 79.0703V79.6445C137.185 80.5469 136.429 81.2266 135.392 81.2266C134.66 81.2266 134.115 80.8516 134.115 80.2129ZM143.049 82H144.068V76.5273H145.504V75.6836H144.068V75.0098C144.068 74.3184 144.361 73.9609 145.088 73.9609C145.269 73.9609 145.439 73.9668 145.562 73.9902V73.1758C145.352 73.1348 145.129 73.1172 144.883 73.1172C143.682 73.1172 143.049 73.7207 143.049 74.9805V75.6836H142V76.5273H143.049V82ZM147.106 74.4648C147.492 74.4648 147.809 74.1484 147.809 73.7617C147.809 73.375 147.492 73.0586 147.106 73.0586C146.719 73.0586 146.402 73.375 146.402 73.7617C146.402 74.1484 146.719 74.4648 147.106 74.4648ZM146.59 82H147.61V75.6836H146.59V82ZM151.455 82.1113C152.334 82.1113 153.037 81.6953 153.424 80.9922H153.518V82H154.537V73.1758H153.518V76.6797H153.424C153.078 76.0059 152.323 75.5723 151.455 75.5723C149.85 75.5723 148.807 76.8555 148.807 78.8359V78.8477C148.807 80.8164 149.856 82.1113 151.455 82.1113ZM151.69 81.209C150.536 81.209 149.85 80.3184 149.85 78.8477V78.8359C149.85 77.3652 150.536 76.4746 151.69 76.4746C152.838 76.4746 153.541 77.377 153.541 78.8359V78.8477C153.541 80.3066 152.838 81.209 151.69 81.209ZM158.665 82.1113C160.153 82.1113 161.055 81.2676 161.272 80.4121L161.284 80.3652H160.264L160.241 80.418C160.071 80.7988 159.544 81.2031 158.688 81.2031C157.563 81.2031 156.842 80.4414 156.813 79.1348H161.36V78.7363C161.36 76.8496 160.317 75.5723 158.6 75.5723C156.883 75.5723 155.77 76.9082 155.77 78.8594V78.8652C155.77 80.8457 156.86 82.1113 158.665 82.1113ZM158.594 76.4805C159.526 76.4805 160.217 77.0723 160.323 78.3203H156.831C156.942 77.1191 157.657 76.4805 158.594 76.4805ZM162.593 82H163.612V73.1758H162.593V82ZM165.7 74.4648C166.087 74.4648 166.403 74.1484 166.403 73.7617C166.403 73.375 166.087 73.0586 165.7 73.0586C165.313 73.0586 164.997 73.375 164.997 73.7617C164.997 74.1484 165.313 74.4648 165.7 74.4648ZM165.185 82H166.204V75.6836H165.185V82ZM170.05 82.1113C170.929 82.1113 171.632 81.6953 172.019 80.9922H172.113V82H173.132V73.1758H172.113V76.6797H172.019C171.673 76.0059 170.917 75.5723 170.05 75.5723C168.445 75.5723 167.402 76.8555 167.402 78.8359V78.8477C167.402 80.8164 168.45 82.1113 170.05 82.1113ZM170.284 81.209C169.13 81.209 168.445 80.3184 168.445 78.8477V78.8359C168.445 77.3652 169.13 76.4746 170.284 76.4746C171.433 76.4746 172.136 77.377 172.136 78.8359V78.8477C172.136 80.3066 171.433 81.209 170.284 81.209ZM176.415 82.1113C177.265 82.1113 177.927 81.7422 178.326 81.0684H178.419V82H179.439V77.6758C179.439 76.3633 178.578 75.5723 177.037 75.5723C175.689 75.5723 174.728 76.2402 174.564 77.2305L174.558 77.2656H175.578L175.583 77.248C175.747 76.7559 176.246 76.4746 177.001 76.4746C177.945 76.4746 178.419 76.8965 178.419 77.6758V78.25L176.609 78.3613C175.138 78.4492 174.306 79.0996 174.306 80.2246V80.2363C174.306 81.3848 175.214 82.1113 176.415 82.1113ZM175.349 80.2129V80.2012C175.349 79.5742 175.771 79.2344 176.732 79.1758L178.419 79.0703V79.6445C178.419 80.5469 177.663 81.2266 176.626 81.2266C175.894 81.2266 175.349 80.8516 175.349 80.2129ZM183.226 82.1113C184.105 82.1113 184.808 81.6953 185.195 80.9922H185.289V82H186.308V73.1758H185.289V76.6797H185.195C184.849 76.0059 184.093 75.5723 183.226 75.5723C181.621 75.5723 180.578 76.8555 180.578 78.8359V78.8477C180.578 80.8164 181.627 82.1113 183.226 82.1113ZM183.461 81.209C182.306 81.209 181.621 80.3184 181.621 78.8477V78.8359C181.621 77.3652 182.306 76.4746 183.461 76.4746C184.609 76.4746 185.312 77.377 185.312 78.8359V78.8477C185.312 80.3066 184.609 81.209 183.461 81.209ZM190.435 82.1113C191.924 82.1113 192.826 81.2676 193.043 80.4121L193.055 80.3652H192.035L192.012 80.418C191.842 80.7988 191.314 81.2031 190.459 81.2031C189.334 81.2031 188.613 80.4414 188.584 79.1348H193.131V78.7363C193.131 76.8496 192.088 75.5723 190.371 75.5723C188.654 75.5723 187.541 76.9082 187.541 78.8594V78.8652C187.541 80.8457 188.631 82.1113 190.435 82.1113ZM190.365 76.4805C191.297 76.4805 191.988 77.0723 192.094 78.3203H188.601C188.713 77.1191 189.428 76.4805 190.365 76.4805ZM195.137 82.0586C195.559 82.0586 195.898 81.7129 195.898 81.2969C195.898 80.875 195.559 80.5352 195.137 80.5352C194.721 80.5352 194.375 80.875 194.375 81.2969C194.375 81.7129 194.721 82.0586 195.137 82.0586Z" fill="black"/>
<path d="M44.0781 150H45.1328V146.982H47.2656C48.8535 146.982 49.9785 145.863 49.9785 144.258V144.246C49.9785 142.641 48.8535 141.545 47.2656 141.545H44.0781V150ZM46.9961 142.482C48.2031 142.482 48.9004 143.145 48.9004 144.258V144.27C48.9004 145.383 48.2031 146.045 46.9961 146.045H45.1328V142.482H46.9961ZM51.1701 150H52.1897V146.086C52.1897 145.16 52.8811 144.545 53.8537 144.545C54.0764 144.545 54.2697 144.568 54.4807 144.604V143.613C54.3811 143.596 54.1643 143.572 53.9709 143.572C53.1154 143.572 52.5236 143.959 52.2834 144.621H52.1897V143.684H51.1701V150ZM57.7524 150.111C59.5512 150.111 60.6645 148.869 60.6645 146.848V146.836C60.6645 144.809 59.5512 143.572 57.7524 143.572C55.9535 143.572 54.8403 144.809 54.8403 146.836V146.848C54.8403 148.869 55.9535 150.111 57.7524 150.111ZM57.7524 149.209C56.557 149.209 55.8832 148.336 55.8832 146.848V146.836C55.8832 145.342 56.557 144.475 57.7524 144.475C58.9477 144.475 59.6215 145.342 59.6215 146.836V146.848C59.6215 148.336 58.9477 149.209 57.7524 149.209ZM64.0826 150.047C64.2819 150.047 64.4752 150.023 64.6744 149.988V149.121C64.4869 149.139 64.3873 149.145 64.2057 149.145C63.5494 149.145 63.2916 148.846 63.2916 148.102V144.527H64.6744V143.684H63.2916V142.049H62.2369V143.684H61.2408V144.527H62.2369V148.359C62.2369 149.566 62.7819 150.047 64.0826 150.047ZM68.6785 142.805L70.0321 140.812H68.825L67.7879 142.805H68.6785ZM68.2918 150.111C70.0907 150.111 71.2039 148.869 71.2039 146.848V146.836C71.2039 144.809 70.0907 143.572 68.2918 143.572C66.493 143.572 65.3797 144.809 65.3797 146.836V146.848C65.3797 148.869 66.493 150.111 68.2918 150.111ZM68.2918 149.209C67.0965 149.209 66.4227 148.336 66.4227 146.848V146.836C66.4227 145.342 67.0965 144.475 68.2918 144.475C69.4871 144.475 70.161 145.342 70.161 146.836V146.848C70.161 148.336 69.4871 149.209 68.2918 149.209ZM74.6221 150.047C74.8213 150.047 75.0147 150.023 75.2139 149.988V149.121C75.0264 149.139 74.9268 149.145 74.7452 149.145C74.0889 149.145 73.8311 148.846 73.8311 148.102V144.527H75.2139V143.684H73.8311V142.049H72.7764V143.684H71.7803V144.527H72.7764V148.359C72.7764 149.566 73.3213 150.047 74.6221 150.047ZM76.8684 142.465C77.2551 142.465 77.5715 142.148 77.5715 141.762C77.5715 141.375 77.2551 141.059 76.8684 141.059C76.4817 141.059 76.1653 141.375 76.1653 141.762C76.1653 142.148 76.4817 142.465 76.8684 142.465ZM76.3528 150H77.3723V143.684H76.3528V150ZM78.8862 152.109H79.9057V149.004H79.9995C80.3452 149.678 81.101 150.111 81.9682 150.111C83.5737 150.111 84.6167 148.828 84.6167 146.848V146.836C84.6167 144.867 83.5678 143.572 81.9682 143.572C81.0893 143.572 80.3862 143.988 79.9995 144.691H79.9057V143.684H78.8862V152.109ZM81.7338 149.209C80.5854 149.209 79.8823 148.307 79.8823 146.848V146.836C79.8823 145.377 80.5854 144.475 81.7338 144.475C82.8881 144.475 83.5737 145.365 83.5737 146.836V146.848C83.5737 148.318 82.8881 149.209 81.7338 149.209ZM88.3981 150.111C90.1969 150.111 91.3102 148.869 91.3102 146.848V146.836C91.3102 144.809 90.1969 143.572 88.3981 143.572C86.5993 143.572 85.486 144.809 85.486 146.836V146.848C85.486 148.869 86.5993 150.111 88.3981 150.111ZM88.3981 149.209C87.2028 149.209 86.529 148.336 86.529 146.848V146.836C86.529 145.342 87.2028 144.475 88.3981 144.475C89.5934 144.475 90.2673 145.342 90.2673 146.836V146.848C90.2673 148.336 89.5934 149.209 88.3981 149.209ZM97.7833 150.111C98.6622 150.111 99.3653 149.695 99.752 148.992H99.8458V150H100.865V141.176H99.8458V144.68H99.752C99.4063 144.006 98.6505 143.572 97.7833 143.572C96.1778 143.572 95.1348 144.855 95.1348 146.836V146.848C95.1348 148.816 96.1837 150.111 97.7833 150.111ZM98.0177 149.209C96.8634 149.209 96.1778 148.318 96.1778 146.848V146.836C96.1778 145.365 96.8634 144.475 98.0177 144.475C99.1661 144.475 99.8692 145.377 99.8692 146.836V146.848C99.8692 148.307 99.1661 149.209 98.0177 149.209ZM104.992 150.111C106.481 150.111 107.383 149.268 107.6 148.412L107.612 148.365H106.592L106.569 148.418C106.399 148.799 105.871 149.203 105.016 149.203C103.891 149.203 103.17 148.441 103.141 147.135H107.688V146.736C107.688 144.85 106.645 143.572 104.928 143.572C103.211 143.572 102.098 144.908 102.098 146.859V146.865C102.098 148.846 103.188 150.111 104.992 150.111ZM104.922 144.48C105.854 144.48 106.545 145.072 106.651 146.32H103.158C103.27 145.119 103.985 144.48 104.922 144.48ZM113.563 150.111C114.413 150.111 115.075 149.742 115.473 149.068H115.567V150H116.587V145.676C116.587 144.363 115.725 143.572 114.184 143.572C112.837 143.572 111.876 144.24 111.712 145.23L111.706 145.266H112.725L112.731 145.248C112.895 144.756 113.393 144.475 114.149 144.475C115.092 144.475 115.567 144.896 115.567 145.676V146.25L113.757 146.361C112.286 146.449 111.454 147.1 111.454 148.225V148.236C111.454 149.385 112.362 150.111 113.563 150.111ZM112.497 148.213V148.201C112.497 147.574 112.919 147.234 113.88 147.176L115.567 147.07V147.645C115.567 148.547 114.811 149.227 113.774 149.227C113.042 149.227 112.497 148.852 112.497 148.213ZM118.101 150H119.12V141.176H118.101V150ZM122.913 150.047C123.112 150.047 123.306 150.023 123.505 149.988V149.121C123.317 149.139 123.218 149.145 123.036 149.145C122.38 149.145 122.122 148.846 122.122 148.102V144.527H123.505V143.684H122.122V142.049H121.067V143.684H120.071V144.527H121.067V148.359C121.067 149.566 121.612 150.047 122.913 150.047ZM126.355 150.111C127.204 150.111 127.867 149.742 128.265 149.068H128.359V150H129.378V145.676C129.378 144.363 128.517 143.572 126.976 143.572C125.628 143.572 124.667 144.24 124.503 145.23L124.497 145.266H125.517L125.523 145.248C125.687 144.756 126.185 144.475 126.941 144.475C127.884 144.475 128.359 144.896 128.359 145.676V146.25L126.548 146.361C125.077 146.449 124.245 147.1 124.245 148.225V148.236C124.245 149.385 125.154 150.111 126.355 150.111ZM125.288 148.213V148.201C125.288 147.574 125.71 147.234 126.671 147.176L128.359 147.07V147.645C128.359 148.547 127.603 149.227 126.566 149.227C125.833 149.227 125.288 148.852 125.288 148.213ZM134.222 150H135.242V144.527H136.677V143.684H135.242V143.01C135.242 142.318 135.535 141.961 136.261 141.961C136.443 141.961 136.613 141.967 136.736 141.99V141.176C136.525 141.135 136.302 141.117 136.056 141.117C134.855 141.117 134.222 141.721 134.222 142.98V143.684H133.174V144.527H134.222V150ZM138.279 142.465C138.666 142.465 138.982 142.148 138.982 141.762C138.982 141.375 138.666 141.059 138.279 141.059C137.893 141.059 137.576 141.375 137.576 141.762C137.576 142.148 137.893 142.465 138.279 142.465ZM137.764 150H138.783V143.684H137.764V150ZM142.629 150.111C143.508 150.111 144.211 149.695 144.598 148.992H144.692V150H145.711V141.176H144.692V144.68H144.598C144.252 144.006 143.496 143.572 142.629 143.572C141.024 143.572 139.981 144.855 139.981 146.836V146.848C139.981 148.816 141.029 150.111 142.629 150.111ZM142.863 149.209C141.709 149.209 141.024 148.318 141.024 146.848V146.836C141.024 145.365 141.709 144.475 142.863 144.475C144.012 144.475 144.715 145.377 144.715 146.836V146.848C144.715 148.307 144.012 149.209 142.863 149.209ZM149.838 150.111C151.327 150.111 152.229 149.268 152.446 148.412L152.457 148.365H151.438L151.414 148.418C151.244 148.799 150.717 149.203 149.862 149.203C148.737 149.203 148.016 148.441 147.987 147.135H152.534V146.736C152.534 144.85 151.491 143.572 149.774 143.572C148.057 143.572 146.944 144.908 146.944 146.859V146.865C146.944 148.846 148.034 150.111 149.838 150.111ZM149.768 144.48C150.7 144.48 151.391 145.072 151.496 146.32H148.004C148.116 145.119 148.83 144.48 149.768 144.48ZM153.766 150H154.786V141.176H153.766V150ZM156.874 142.465C157.261 142.465 157.577 142.148 157.577 141.762C157.577 141.375 157.261 141.059 156.874 141.059C156.487 141.059 156.171 141.375 156.171 141.762C156.171 142.148 156.487 142.465 156.874 142.465ZM156.358 150H157.378V143.684H156.358V150ZM161.224 150.111C162.103 150.111 162.806 149.695 163.192 148.992H163.286V150H164.306V141.176H163.286V144.68H163.192C162.847 144.006 162.091 143.572 161.224 143.572C159.618 143.572 158.575 144.855 158.575 146.836V146.848C158.575 148.816 159.624 150.111 161.224 150.111ZM161.458 149.209C160.304 149.209 159.618 148.318 159.618 146.848V146.836C159.618 145.365 160.304 144.475 161.458 144.475C162.606 144.475 163.31 145.377 163.31 146.836V146.848C163.31 148.307 162.606 149.209 161.458 149.209ZM167.589 150.111C168.439 150.111 169.101 149.742 169.499 149.068H169.593V150H170.613V145.676C170.613 144.363 169.751 143.572 168.21 143.572C166.863 143.572 165.902 144.24 165.738 145.23L165.732 145.266H166.751L166.757 145.248C166.921 144.756 167.419 144.475 168.175 144.475C169.118 144.475 169.593 144.896 169.593 145.676V146.25L167.782 146.361C166.312 146.449 165.48 147.1 165.48 148.225V148.236C165.48 149.385 166.388 150.111 167.589 150.111ZM166.523 148.213V148.201C166.523 147.574 166.945 147.234 167.905 147.176L169.593 147.07V147.645C169.593 148.547 168.837 149.227 167.8 149.227C167.068 149.227 166.523 148.852 166.523 148.213ZM174.4 150.111C175.279 150.111 175.982 149.695 176.369 148.992H176.462V150H177.482V141.176H176.462V144.68H176.369C176.023 144.006 175.267 143.572 174.4 143.572C172.794 143.572 171.751 144.855 171.751 146.836V146.848C171.751 148.816 172.8 150.111 174.4 150.111ZM174.634 149.209C173.48 149.209 172.794 148.318 172.794 146.848V146.836C172.794 145.365 173.48 144.475 174.634 144.475C175.783 144.475 176.486 145.377 176.486 146.836V146.848C176.486 148.307 175.783 149.209 174.634 149.209ZM181.609 150.111C183.097 150.111 184 149.268 184.216 148.412L184.228 148.365H183.209L183.185 148.418C183.015 148.799 182.488 149.203 181.632 149.203C180.507 149.203 179.787 148.441 179.757 147.135H184.304V146.736C184.304 144.85 183.261 143.572 181.545 143.572C179.828 143.572 178.714 144.908 178.714 146.859V146.865C178.714 148.846 179.804 150.111 181.609 150.111ZM181.539 144.48C182.47 144.48 183.162 145.072 183.267 146.32H179.775C179.886 145.119 180.601 144.48 181.539 144.48ZM186.31 150.059C186.732 150.059 187.072 149.713 187.072 149.297C187.072 148.875 186.732 148.535 186.31 148.535C185.894 148.535 185.549 148.875 185.549 149.297C185.549 149.713 185.894 150.059 186.31 150.059Z" fill="black"/>
<path d="M44.0781 116H45.1328V112.982H47.2656C48.8535 112.982 49.9785 111.863 49.9785 110.258V110.246C49.9785 108.641 48.8535 107.545 47.2656 107.545H44.0781V116ZM46.9961 108.482C48.2031 108.482 48.9004 109.145 48.9004 110.258V110.27C48.9004 111.383 48.2031 112.045 46.9961 112.045H45.1328V108.482H46.9961ZM51.1701 116H52.1897V112.086C52.1897 111.16 52.8811 110.545 53.8537 110.545C54.0764 110.545 54.2697 110.568 54.4807 110.604V109.613C54.3811 109.596 54.1643 109.572 53.9709 109.572C53.1154 109.572 52.5236 109.959 52.2834 110.621H52.1897V109.684H51.1701V116ZM57.7524 116.111C59.5512 116.111 60.6645 114.869 60.6645 112.848V112.836C60.6645 110.809 59.5512 109.572 57.7524 109.572C55.9535 109.572 54.8403 110.809 54.8403 112.836V112.848C54.8403 114.869 55.9535 116.111 57.7524 116.111ZM57.7524 115.209C56.557 115.209 55.8832 114.336 55.8832 112.848V112.836C55.8832 111.342 56.557 110.475 57.7524 110.475C58.9477 110.475 59.6215 111.342 59.6215 112.836V112.848C59.6215 114.336 58.9477 115.209 57.7524 115.209ZM64.0826 116.047C64.2819 116.047 64.4752 116.023 64.6744 115.988V115.121C64.4869 115.139 64.3873 115.145 64.2057 115.145C63.5494 115.145 63.2916 114.846 63.2916 114.102V110.527H64.6744V109.684H63.2916V108.049H62.2369V109.684H61.2408V110.527H62.2369V114.359C62.2369 115.566 62.7819 116.047 64.0826 116.047ZM68.6785 108.805L70.0321 106.812H68.825L67.7879 108.805H68.6785ZM68.2918 116.111C70.0907 116.111 71.2039 114.869 71.2039 112.848V112.836C71.2039 110.809 70.0907 109.572 68.2918 109.572C66.493 109.572 65.3797 110.809 65.3797 112.836V112.848C65.3797 114.869 66.493 116.111 68.2918 116.111ZM68.2918 115.209C67.0965 115.209 66.4227 114.336 66.4227 112.848V112.836C66.4227 111.342 67.0965 110.475 68.2918 110.475C69.4871 110.475 70.161 111.342 70.161 112.836V112.848C70.161 114.336 69.4871 115.209 68.2918 115.209ZM74.6221 116.047C74.8213 116.047 75.0147 116.023 75.2139 115.988V115.121C75.0264 115.139 74.9268 115.145 74.7452 115.145C74.0889 115.145 73.8311 114.846 73.8311 114.102V110.527H75.2139V109.684H73.8311V108.049H72.7764V109.684H71.7803V110.527H72.7764V114.359C72.7764 115.566 73.3213 116.047 74.6221 116.047ZM76.8684 108.465C77.2551 108.465 77.5715 108.148 77.5715 107.762C77.5715 107.375 77.2551 107.059 76.8684 107.059C76.4817 107.059 76.1653 107.375 76.1653 107.762C76.1653 108.148 76.4817 108.465 76.8684 108.465ZM76.3528 116H77.3723V109.684H76.3528V116ZM78.8862 118.109H79.9057V115.004H79.9995C80.3452 115.678 81.101 116.111 81.9682 116.111C83.5737 116.111 84.6167 114.828 84.6167 112.848V112.836C84.6167 110.867 83.5678 109.572 81.9682 109.572C81.0893 109.572 80.3862 109.988 79.9995 110.691H79.9057V109.684H78.8862V118.109ZM81.7338 115.209C80.5854 115.209 79.8823 114.307 79.8823 112.848V112.836C79.8823 111.377 80.5854 110.475 81.7338 110.475C82.8881 110.475 83.5737 111.365 83.5737 112.836V112.848C83.5737 114.318 82.8881 115.209 81.7338 115.209ZM88.3981 116.111C90.1969 116.111 91.3102 114.869 91.3102 112.848V112.836C91.3102 110.809 90.1969 109.572 88.3981 109.572C86.5993 109.572 85.486 110.809 85.486 112.836V112.848C85.486 114.869 86.5993 116.111 88.3981 116.111ZM88.3981 115.209C87.2028 115.209 86.529 114.336 86.529 112.848V112.836C86.529 111.342 87.2028 110.475 88.3981 110.475C89.5934 110.475 90.2673 111.342 90.2673 112.836V112.848C90.2673 114.336 89.5934 115.209 88.3981 115.209ZM97.7833 116.111C98.6622 116.111 99.3653 115.695 99.752 114.992H99.8458V116H100.865V107.176H99.8458V110.68H99.752C99.4063 110.006 98.6505 109.572 97.7833 109.572C96.1778 109.572 95.1348 110.855 95.1348 112.836V112.848C95.1348 114.816 96.1837 116.111 97.7833 116.111ZM98.0177 115.209C96.8634 115.209 96.1778 114.318 96.1778 112.848V112.836C96.1778 111.365 96.8634 110.475 98.0177 110.475C99.1661 110.475 99.8692 111.377 99.8692 112.836V112.848C99.8692 114.307 99.1661 115.209 98.0177 115.209ZM104.992 116.111C106.481 116.111 107.383 115.268 107.6 114.412L107.612 114.365H106.592L106.569 114.418C106.399 114.799 105.871 115.203 105.016 115.203C103.891 115.203 103.17 114.441 103.141 113.135H107.688V112.736C107.688 110.85 106.645 109.572 104.928 109.572C103.211 109.572 102.098 110.908 102.098 112.859V112.865C102.098 114.846 103.188 116.111 104.992 116.111ZM104.922 110.48C105.854 110.48 106.545 111.072 106.651 112.32H103.158C103.27 111.119 103.985 110.48 104.922 110.48ZM111.829 116H112.848V112.086C112.848 111.195 113.475 110.475 114.301 110.475C115.098 110.475 115.614 110.961 115.614 111.711V116H116.633V111.939C116.633 111.137 117.214 110.475 118.092 110.475C118.983 110.475 119.411 110.938 119.411 111.869V116H120.43V111.635C120.43 110.311 119.71 109.572 118.421 109.572C117.548 109.572 116.827 110.012 116.487 110.68H116.393C116.1 110.023 115.503 109.572 114.647 109.572C113.821 109.572 113.223 109.965 112.942 110.645H112.848V109.684H111.829V116ZM124.78 108.805L126.134 106.812H124.927L123.89 108.805H124.78ZM124.44 116.111C125.929 116.111 126.831 115.268 127.048 114.412L127.059 114.365H126.04L126.017 114.418C125.847 114.799 125.319 115.203 124.464 115.203C123.339 115.203 122.618 114.441 122.589 113.135H127.136V112.736C127.136 110.85 126.093 109.572 124.376 109.572C122.659 109.572 121.546 110.908 121.546 112.859V112.865C121.546 114.846 122.636 116.111 124.44 116.111ZM124.37 110.48C125.302 110.48 125.993 111.072 126.099 112.32H122.606C122.718 111.119 123.433 110.48 124.37 110.48ZM130.642 116.111C131.521 116.111 132.224 115.695 132.61 114.992H132.704V116H133.724V107.176H132.704V110.68H132.61C132.265 110.006 131.509 109.572 130.642 109.572C129.036 109.572 127.993 110.855 127.993 112.836V112.848C127.993 114.816 129.042 116.111 130.642 116.111ZM130.876 115.209C129.722 115.209 129.036 114.318 129.036 112.848V112.836C129.036 111.365 129.722 110.475 130.876 110.475C132.025 110.475 132.728 111.377 132.728 112.836V112.848C132.728 114.307 132.025 115.209 130.876 115.209ZM135.812 108.465C136.199 108.465 136.515 108.148 136.515 107.762C136.515 107.375 136.199 107.059 135.812 107.059C135.425 107.059 135.109 107.375 135.109 107.762C135.109 108.148 135.425 108.465 135.812 108.465ZM135.296 116H136.316V109.684H135.296V116ZM139.564 116.111C140.414 116.111 141.076 115.742 141.474 115.068H141.568V116H142.587V111.676C142.587 110.363 141.726 109.572 140.185 109.572C138.837 109.572 137.877 110.24 137.712 111.23L137.707 111.266H138.726L138.732 111.248C138.896 110.756 139.394 110.475 140.15 110.475C141.093 110.475 141.568 110.896 141.568 111.676V112.25L139.757 112.361C138.287 112.449 137.455 113.1 137.455 114.225V114.236C137.455 115.385 138.363 116.111 139.564 116.111ZM138.498 114.213V114.201C138.498 113.574 138.919 113.234 139.88 113.176L141.568 113.07V113.645C141.568 114.547 140.812 115.227 139.775 115.227C139.043 115.227 138.498 114.852 138.498 114.213ZM147.432 116H148.451V110.527H149.887V109.684H148.451V109.01C148.451 108.318 148.744 107.961 149.471 107.961C149.652 107.961 149.822 107.967 149.945 107.99V107.176C149.734 107.135 149.512 107.117 149.266 107.117C148.064 107.117 147.432 107.721 147.432 108.98V109.684H146.383V110.527H147.432V116ZM151.488 108.465C151.875 108.465 152.192 108.148 152.192 107.762C152.192 107.375 151.875 107.059 151.488 107.059C151.102 107.059 150.785 107.375 150.785 107.762C150.785 108.148 151.102 108.465 151.488 108.465ZM150.973 116H151.992V109.684H150.973V116ZM155.838 116.111C156.717 116.111 157.42 115.695 157.807 114.992H157.901V116H158.92V107.176H157.901V110.68H157.807C157.461 110.006 156.705 109.572 155.838 109.572C154.233 109.572 153.19 110.855 153.19 112.836V112.848C153.19 114.816 154.239 116.111 155.838 116.111ZM156.073 115.209C154.918 115.209 154.233 114.318 154.233 112.848V112.836C154.233 111.365 154.918 110.475 156.073 110.475C157.221 110.475 157.924 111.377 157.924 112.836V112.848C157.924 114.307 157.221 115.209 156.073 115.209ZM163.047 116.111C164.536 116.111 165.438 115.268 165.655 114.412L165.667 114.365H164.647L164.624 114.418C164.454 114.799 163.926 115.203 163.071 115.203C161.946 115.203 161.225 114.441 161.196 113.135H165.743V112.736C165.743 110.85 164.7 109.572 162.983 109.572C161.266 109.572 160.153 110.908 160.153 112.859V112.865C160.153 114.846 161.243 116.111 163.047 116.111ZM162.977 110.48C163.909 110.48 164.6 111.072 164.706 112.32H161.213C161.325 111.119 162.04 110.48 162.977 110.48ZM166.975 116H167.995V107.176H166.975V116ZM170.083 108.465C170.47 108.465 170.786 108.148 170.786 107.762C170.786 107.375 170.47 107.059 170.083 107.059C169.696 107.059 169.38 107.375 169.38 107.762C169.38 108.148 169.696 108.465 170.083 108.465ZM169.567 116H170.587V109.684H169.567V116ZM174.433 116.111C175.312 116.111 176.015 115.695 176.402 114.992H176.495V116H177.515V107.176H176.495V110.68H176.402C176.056 110.006 175.3 109.572 174.433 109.572C172.827 109.572 171.784 110.855 171.784 112.836V112.848C171.784 114.816 172.833 116.111 174.433 116.111ZM174.667 115.209C173.513 115.209 172.827 114.318 172.827 112.848V112.836C172.827 111.365 173.513 110.475 174.667 110.475C175.816 110.475 176.519 111.377 176.519 112.836V112.848C176.519 114.307 175.816 115.209 174.667 115.209ZM180.798 116.111C181.648 116.111 182.31 115.742 182.708 115.068H182.802V116H183.822V111.676C183.822 110.363 182.96 109.572 181.419 109.572C180.072 109.572 179.111 110.24 178.947 111.23L178.941 111.266H179.96L179.966 111.248C180.13 110.756 180.628 110.475 181.384 110.475C182.328 110.475 182.802 110.896 182.802 111.676V112.25L180.992 112.361C179.521 112.449 178.689 113.1 178.689 114.225V114.236C178.689 115.385 179.597 116.111 180.798 116.111ZM179.732 114.213V114.201C179.732 113.574 180.154 113.234 181.115 113.176L182.802 113.07V113.645C182.802 114.547 182.046 115.227 181.009 115.227C180.277 115.227 179.732 114.852 179.732 114.213ZM187.609 116.111C188.488 116.111 189.191 115.695 189.578 114.992H189.671V116H190.691V107.176H189.671V110.68H189.578C189.232 110.006 188.476 109.572 187.609 109.572C186.004 109.572 184.961 110.855 184.961 112.836V112.848C184.961 114.816 186.009 116.111 187.609 116.111ZM187.843 115.209C186.689 115.209 186.004 114.318 186.004 112.848V112.836C186.004 111.365 186.689 110.475 187.843 110.475C188.992 110.475 189.695 111.377 189.695 112.836V112.848C189.695 114.307 188.992 115.209 187.843 115.209ZM194.818 116.111C196.306 116.111 197.209 115.268 197.426 114.412L197.437 114.365H196.418L196.394 114.418C196.224 114.799 195.697 115.203 194.842 115.203C193.717 115.203 192.996 114.441 192.967 113.135H197.514V112.736C197.514 110.85 196.471 109.572 194.754 109.572C193.037 109.572 191.924 110.908 191.924 112.859V112.865C191.924 114.846 193.014 116.111 194.818 116.111ZM194.748 110.48C195.68 110.48 196.371 111.072 196.476 112.32H192.984C193.096 111.119 193.81 110.48 194.748 110.48ZM199.52 116.059C199.941 116.059 200.281 115.713 200.281 115.297C200.281 114.875 199.941 114.535 199.52 114.535C199.104 114.535 198.758 114.875 198.758 115.297C198.758 115.713 199.104 116.059 199.52 116.059Z" fill="black"/>
<rect x="10.5" y="65.5" width="26" height="26" rx="3.5" fill="#614CCB" stroke="#614CCB"/>
<rect x="10.5" y="133.5" width="26" height="26" rx="3.5" fill="#EBEBEB" stroke="#614CCB"/>
<rect x="10.5" y="99.5" width="26" height="26" rx="3.5" fill="#EBEBEB" stroke="#614CCB"/>
<path d="M28.2736 72L22.9407 83.2521" stroke="#EEEEFF" stroke-width="2" stroke-linecap="round" stroke-linejoin="round"/>
<path d="M18 77.5187L22.5758 83.2733" stroke="#EEEEFF" stroke-width="2" stroke-linecap="round" stroke-linejoin="round"/>
<rect x="43" y="44" width="191" height="7" rx="3.5" fill="#D9D9D9"/>
<path d="M41 47.5C41 45.567 42.567 44 44.5 44H119V51H44.5C42.567 51 41 49.433 41 47.5Z" fill="#180B5A"/>
</svg>
