<svg width="285" height="159" viewBox="0 0 285 159" fill="none" xmlns="http://www.w3.org/2000/svg">
<rect width="285" height="159" rx="10" fill="#FAF9FF"/>
<path d="M94.6748 133.109C95.1465 133.109 95.4404 132.809 95.4404 132.316V129.63H97.5596C99.4941 129.63 100.854 128.304 100.854 126.376C100.854 124.455 99.5215 123.136 97.6074 123.136H94.6748C94.1963 123.136 93.9092 123.437 93.9092 123.929V132.316C93.9092 132.809 94.1963 133.109 94.6748 133.109ZM95.4404 128.345V124.428H97.2041C98.5303 124.428 99.2891 125.139 99.2891 126.383C99.2891 127.627 98.5303 128.345 97.1973 128.345H95.4404ZM103.14 133.123C104.076 133.123 104.992 132.617 105.409 131.817H105.444V132.426C105.457 132.863 105.738 133.13 106.148 133.13C106.565 133.13 106.859 132.85 106.859 132.385V128.044C106.859 126.602 105.744 125.679 104.001 125.679C102.709 125.679 101.622 126.198 101.246 127.012C101.157 127.176 101.116 127.34 101.116 127.49C101.116 127.859 101.383 128.105 101.752 128.105C102.012 128.105 102.203 128.01 102.354 127.791C102.764 127.135 103.236 126.882 103.946 126.882C104.849 126.882 105.389 127.36 105.389 128.16V128.714L103.413 128.83C101.711 128.926 100.74 129.698 100.74 130.956C100.74 132.248 101.732 133.123 103.14 133.123ZM103.543 131.954C102.757 131.954 102.231 131.544 102.231 130.915C102.231 130.3 102.73 129.91 103.612 129.849L105.389 129.739V130.307C105.389 131.243 104.575 131.954 103.543 131.954ZM108.624 133.13C109.062 133.13 109.363 132.829 109.363 132.351V128.68C109.363 127.784 109.773 127.107 110.785 127.101C111.092 127.101 111.311 127.039 111.461 126.909C111.605 126.793 111.68 126.622 111.68 126.39C111.68 126.157 111.619 125.979 111.482 125.87C111.359 125.754 111.161 125.692 110.901 125.692C110.183 125.692 109.52 126.232 109.322 127.039H109.288V126.424C109.288 125.973 109 125.679 108.59 125.679C108.173 125.679 107.886 125.973 107.886 126.424V132.351C107.886 132.829 108.18 133.13 108.624 133.13ZM114.834 133.137C116.167 133.137 117.336 132.433 117.712 131.441C117.766 131.298 117.794 131.175 117.794 131.059C117.794 130.689 117.527 130.443 117.165 130.443C116.843 130.443 116.686 130.566 116.481 130.922C116.132 131.544 115.647 131.899 114.847 131.899C113.706 131.899 112.94 130.97 112.94 129.404C112.94 127.873 113.692 126.909 114.847 126.909C115.606 126.909 116.112 127.237 116.481 127.921C116.659 128.249 116.837 128.372 117.151 128.372C117.513 128.372 117.78 128.14 117.78 127.764C117.78 127.661 117.753 127.538 117.712 127.422C117.397 126.417 116.208 125.679 114.82 125.679C112.769 125.679 111.436 127.142 111.436 129.418C111.436 131.708 112.776 133.137 114.834 133.137ZM121.699 133.137C123.039 133.137 124.085 132.597 124.556 131.653C124.618 131.51 124.659 131.373 124.659 131.257C124.659 130.888 124.399 130.655 124.044 130.655C123.832 130.655 123.681 130.73 123.524 130.915C122.977 131.66 122.472 131.94 121.665 131.94C120.489 131.94 119.751 131.12 119.751 129.808V129.773H124.098C124.556 129.773 124.83 129.5 124.83 129.021C124.83 127.06 123.511 125.679 121.597 125.679C119.559 125.679 118.261 127.155 118.261 129.438C118.261 131.763 119.532 133.137 121.699 133.137ZM119.758 128.741C119.833 127.62 120.571 126.868 121.59 126.868C122.615 126.868 123.319 127.613 123.353 128.741H119.758ZM126.363 133.13C126.794 133.13 127.102 132.836 127.102 132.351V123.785C127.102 123.3 126.794 123.006 126.363 123.006C125.933 123.006 125.625 123.3 125.625 123.785V132.351C125.625 132.836 125.933 133.13 126.363 133.13ZM130.317 133.123C131.253 133.123 132.169 132.617 132.586 131.817H132.62V132.426C132.634 132.863 132.914 133.13 133.324 133.13C133.741 133.13 134.035 132.85 134.035 132.385V128.044C134.035 126.602 132.921 125.679 131.178 125.679C129.886 125.679 128.799 126.198 128.423 127.012C128.334 127.176 128.293 127.34 128.293 127.49C128.293 127.859 128.56 128.105 128.929 128.105C129.189 128.105 129.38 128.01 129.531 127.791C129.941 127.135 130.412 126.882 131.123 126.882C132.026 126.882 132.566 127.36 132.566 128.16V128.714L130.59 128.83C128.888 128.926 127.917 129.698 127.917 130.956C127.917 132.248 128.908 133.123 130.317 133.123ZM130.72 131.954C129.934 131.954 129.407 131.544 129.407 130.915C129.407 130.3 129.906 129.91 130.788 129.849L132.566 129.739V130.307C132.566 131.243 131.752 131.954 130.72 131.954ZM135.801 133.13C136.239 133.13 136.54 132.829 136.54 132.351V128.68C136.54 127.784 136.95 127.107 137.961 127.101C138.269 127.101 138.488 127.039 138.638 126.909C138.782 126.793 138.857 126.622 138.857 126.39C138.857 126.157 138.795 125.979 138.659 125.87C138.536 125.754 138.337 125.692 138.078 125.692C137.36 125.692 136.697 126.232 136.498 127.039H136.464V126.424C136.464 125.973 136.177 125.679 135.767 125.679C135.35 125.679 135.063 125.973 135.063 126.424V132.351C135.063 132.829 135.357 133.13 135.801 133.13Z" fill="#614CCB"/>
<rect x="88.5" y="116.5" width="55" height="23" rx="3.5" stroke="#614CCB"/>
<rect x="12" y="116" width="65" height="24" rx="4" fill="#614CCB"/>
<path d="M29.1748 133.109C29.6465 133.109 29.9404 132.809 29.9404 132.316V129.63H32.0596C33.9941 129.63 35.3545 128.304 35.3545 126.376C35.3545 124.455 34.0215 123.136 32.1074 123.136H29.1748C28.6963 123.136 28.4092 123.437 28.4092 123.929V132.316C28.4092 132.809 28.6963 133.109 29.1748 133.109ZM29.9404 128.345V124.428H31.7041C33.0303 124.428 33.7891 125.139 33.7891 126.383C33.7891 127.627 33.0303 128.345 31.6973 128.345H29.9404ZM37.6399 133.123C38.5764 133.123 39.4924 132.617 39.9094 131.817H39.9436V132.426C39.9572 132.863 40.2375 133.13 40.6477 133.13C41.0647 133.13 41.3586 132.85 41.3586 132.385V128.044C41.3586 126.602 40.2443 125.679 38.5012 125.679C37.2092 125.679 36.1223 126.198 35.7463 127.012C35.6574 127.176 35.6164 127.34 35.6164 127.49C35.6164 127.859 35.883 128.105 36.2522 128.105C36.5119 128.105 36.7033 128.01 36.8537 127.791C37.2639 127.135 37.7356 126.882 38.4465 126.882C39.3488 126.882 39.8889 127.36 39.8889 128.16V128.714L37.9133 128.83C36.2111 128.926 35.2404 129.698 35.2404 130.956C35.2404 132.248 36.2316 133.123 37.6399 133.123ZM38.0432 131.954C37.257 131.954 36.7307 131.544 36.7307 130.915C36.7307 130.3 37.2297 129.91 38.1115 129.849L39.8889 129.739V130.307C39.8889 131.243 39.0754 131.954 38.0432 131.954ZM45.4008 135.707C47.5404 135.728 48.8461 134.579 48.8461 132.802V126.438C48.8461 125.959 48.5317 125.679 48.1078 125.679C47.684 125.679 47.3627 125.959 47.3627 126.438V127.019H47.3354C46.8979 126.205 46.1049 125.692 45.0863 125.692C43.227 125.692 42.0649 127.094 42.0649 129.343C42.0649 131.564 43.2406 132.979 45.0522 132.979C46.0776 132.979 46.9252 132.467 47.3285 131.688H47.3627V132.829C47.3627 133.834 46.6313 134.518 45.4281 134.504C44.724 134.49 44.2182 134.224 43.6303 133.608C43.432 133.41 43.2885 133.335 43.0629 133.335C42.6869 133.335 42.434 133.581 42.434 133.923C42.434 134.094 42.475 134.244 42.5707 134.408C43.0629 135.188 44.0951 135.693 45.4008 135.707ZM45.4486 131.776C44.3139 131.776 43.5756 130.854 43.5756 129.35C43.5756 127.853 44.3139 126.909 45.4486 126.909C46.6039 126.909 47.3695 127.88 47.3695 129.356C47.3695 130.833 46.6039 131.776 45.4486 131.776ZM51.9996 133.123C52.9362 133.123 53.8522 132.617 54.2692 131.817H54.3033V132.426C54.317 132.863 54.5973 133.13 55.0074 133.13C55.4244 133.13 55.7184 132.85 55.7184 132.385V128.044C55.7184 126.602 54.6041 125.679 52.861 125.679C51.569 125.679 50.4821 126.198 50.1061 127.012C50.0172 127.176 49.9762 127.34 49.9762 127.49C49.9762 127.859 50.2428 128.105 50.6119 128.105C50.8717 128.105 51.0631 128.01 51.2135 127.791C51.6237 127.135 52.0953 126.882 52.8063 126.882C53.7086 126.882 54.2487 127.36 54.2487 128.16V128.714L52.2731 128.83C50.5709 128.926 49.6002 129.698 49.6002 130.956C49.6002 132.248 50.5914 133.123 51.9996 133.123ZM52.403 131.954C51.6168 131.954 51.0905 131.544 51.0905 130.915C51.0905 130.3 51.5895 129.91 52.4713 129.849L54.2487 129.739V130.307C54.2487 131.243 53.4352 131.954 52.403 131.954ZM57.4842 133.13C57.9217 133.13 58.2225 132.829 58.2225 132.351V128.68C58.2225 127.784 58.6326 127.107 59.6444 127.101C59.952 127.101 60.1707 127.039 60.3211 126.909C60.4647 126.793 60.5399 126.622 60.5399 126.39C60.5399 126.157 60.4784 125.979 60.3416 125.87C60.2186 125.754 60.0203 125.692 59.7606 125.692C59.0428 125.692 58.3797 126.232 58.1815 127.039H58.1473V126.424C58.1473 125.973 57.8602 125.679 57.45 125.679C57.033 125.679 56.7459 125.973 56.7459 126.424V132.351C56.7459 132.829 57.0399 133.13 57.4842 133.13Z" fill="#EEEEEF"/>
<path d="M13.0781 61H14.1328V57.3379H17.877V56.4004H14.1328V53.4941H18.2109V52.5449H13.0781V61ZM20.7326 61.1113C21.5822 61.1113 22.2443 60.7422 22.6428 60.0684H22.7365V61H23.7561V56.6758C23.7561 55.3633 22.8947 54.5723 21.3537 54.5723C20.0061 54.5723 19.0451 55.2402 18.8811 56.2305L18.8752 56.2656H19.8947L19.9006 56.248C20.0647 55.7559 20.5627 55.4746 21.3186 55.4746C22.2619 55.4746 22.7365 55.8965 22.7365 56.6758V57.25L20.926 57.3613C19.4553 57.4492 18.6233 58.0996 18.6233 59.2246V59.2363C18.6233 60.3848 19.5315 61.1113 20.7326 61.1113ZM19.6662 59.2129V59.2012C19.6662 58.5742 20.0881 58.2344 21.049 58.1758L22.7365 58.0703V58.6445C22.7365 59.5469 21.9807 60.2266 20.9436 60.2266C20.2111 60.2266 19.6662 59.8516 19.6662 59.2129ZM27.4555 61.0469C27.6547 61.0469 27.8481 61.0234 28.0473 60.9883V60.1211C27.8598 60.1387 27.7602 60.1445 27.5785 60.1445C26.9223 60.1445 26.6645 59.8457 26.6645 59.1016V55.5273H28.0473V54.6836H26.6645V53.0488H25.6098V54.6836H24.6137V55.5273H25.6098V59.3594C25.6098 60.5664 26.1547 61.0469 27.4555 61.0469ZM31.278 61.1113C32.2037 61.1113 32.8424 60.7305 33.153 60.0566H33.2467V61H34.2662V54.6836H33.2467V58.4219C33.2467 59.5293 32.6549 60.209 31.5416 60.209C30.5338 60.209 30.1237 59.6641 30.1237 58.5273V54.6836H29.1041V58.7734C29.1041 60.2676 29.8424 61.1113 31.278 61.1113ZM35.7625 61H36.7821V57.0859C36.7821 56.1602 37.4735 55.5449 38.4461 55.5449C38.6688 55.5449 38.8621 55.5684 39.0731 55.6035V54.6133C38.9735 54.5957 38.7567 54.5723 38.5633 54.5723C37.7078 54.5723 37.116 54.959 36.8758 55.6211H36.7821V54.6836H35.7625V61ZM41.6592 61.1113C42.5088 61.1113 43.1709 60.7422 43.5694 60.0684H43.6631V61H44.6827V56.6758C44.6827 55.3633 43.8213 54.5723 42.2803 54.5723C40.9327 54.5723 39.9717 55.2402 39.8077 56.2305L39.8018 56.2656H40.8213L40.8272 56.248C40.9912 55.7559 41.4893 55.4746 42.2452 55.4746C43.1885 55.4746 43.6631 55.8965 43.6631 56.6758V57.25L41.8526 57.3613C40.3819 57.4492 39.5498 58.0996 39.5498 59.2246V59.2363C39.5498 60.3848 40.458 61.1113 41.6592 61.1113ZM40.5928 59.2129V59.2012C40.5928 58.5742 41.0147 58.2344 41.9756 58.1758L43.6631 58.0703V58.6445C43.6631 59.5469 42.9073 60.2266 41.8702 60.2266C41.1377 60.2266 40.5928 59.8516 40.5928 59.2129ZM49.5268 61H50.5463V55.5273H51.9819V54.6836H50.5463V54.0098C50.5463 53.3184 50.8393 52.9609 51.5659 52.9609C51.7475 52.9609 51.9174 52.9668 52.0405 52.9902V52.1758C51.8295 52.1348 51.6069 52.1172 51.3608 52.1172C50.1596 52.1172 49.5268 52.7207 49.5268 53.9805V54.6836H48.478V55.5273H49.5268V61ZM55.3532 61.1113C56.8415 61.1113 57.7438 60.2676 57.9606 59.4121L57.9723 59.3652H56.9528L56.9294 59.418C56.7594 59.7988 56.2321 60.2031 55.3766 60.2031C54.2516 60.2031 53.5309 59.4414 53.5016 58.1348H58.0485V57.7363C58.0485 55.8496 57.0055 54.5723 55.2887 54.5723C53.5719 54.5723 52.4587 55.9082 52.4587 57.8594V57.8652C52.4587 59.8457 53.5485 61.1113 55.3532 61.1113ZM55.2829 55.4805C56.2145 55.4805 56.9059 56.0723 57.0114 57.3203H53.5192C53.6305 56.1191 54.3454 55.4805 55.2829 55.4805ZM61.8065 61.1113C63.3241 61.1113 64.1737 60.2969 64.4315 59.1543L64.4432 59.0898L63.4354 59.0957L63.4237 59.1309C63.1893 59.834 62.6503 60.209 61.8007 60.209C60.6757 60.209 59.9491 59.2773 59.9491 57.8242V57.8125C59.9491 56.3887 60.6639 55.4746 61.8007 55.4746C62.7089 55.4746 63.2714 55.9785 63.4296 56.5996L63.4354 56.6172H64.4491L64.4432 56.582C64.2557 55.457 63.3358 54.5723 61.8007 54.5723C60.0311 54.5723 58.9061 55.8496 58.9061 57.8125V57.8242C58.9061 59.8281 60.037 61.1113 61.8065 61.1113ZM65.588 61H66.6075V57.2617C66.6075 56.1543 67.2462 55.4746 68.254 55.4746C69.2618 55.4746 69.7305 56.0195 69.7305 57.1562V61H70.7501V56.9102C70.7501 55.4102 69.9591 54.5723 68.5411 54.5723C67.6095 54.5723 67.0177 54.9648 66.7012 55.6328H66.6075V52.1758H65.588V61ZM73.9222 61.1113C74.7718 61.1113 75.4339 60.7422 75.8323 60.0684H75.9261V61H76.9456V56.6758C76.9456 55.3633 76.0843 54.5723 74.5433 54.5723C73.1956 54.5723 72.2347 55.2402 72.0706 56.2305L72.0647 56.2656H73.0843L73.0901 56.248C73.2542 55.7559 73.7522 55.4746 74.5081 55.4746C75.4515 55.4746 75.9261 55.8965 75.9261 56.6758V57.25L74.1155 57.3613C72.6448 57.4492 71.8128 58.0996 71.8128 59.2246V59.2363C71.8128 60.3848 72.721 61.1113 73.9222 61.1113ZM72.8558 59.2129V59.2012C72.8558 58.5742 73.2776 58.2344 74.2386 58.1758L75.9261 58.0703V58.6445C75.9261 59.5469 75.1702 60.2266 74.1331 60.2266C73.4007 60.2266 72.8558 59.8516 72.8558 59.2129ZM80.7329 61.1113C81.6118 61.1113 82.3149 60.6953 82.7017 59.9922H82.7954V61H83.8149V52.1758H82.7954V55.6797H82.7017C82.356 55.0059 81.6001 54.5723 80.7329 54.5723C79.1274 54.5723 78.0845 55.8555 78.0845 57.8359V57.8477C78.0845 59.8164 79.1333 61.1113 80.7329 61.1113ZM80.9673 60.209C79.813 60.209 79.1274 59.3184 79.1274 57.8477V57.8359C79.1274 56.3652 79.813 55.4746 80.9673 55.4746C82.1157 55.4746 82.8188 56.377 82.8188 57.8359V57.8477C82.8188 59.3066 82.1157 60.209 80.9673 60.209ZM87.0983 61.1113C87.948 61.1113 88.6101 60.7422 89.0085 60.0684H89.1022V61H90.1218V56.6758C90.1218 55.3633 89.2605 54.5723 87.7194 54.5723C86.3718 54.5723 85.4108 55.2402 85.2468 56.2305L85.2409 56.2656H86.2605L86.2663 56.248C86.4304 55.7559 86.9284 55.4746 87.6843 55.4746C88.6276 55.4746 89.1022 55.8965 89.1022 56.6758V57.25L87.2917 57.3613C85.821 57.4492 84.989 58.0996 84.989 59.2246V59.2363C84.989 60.3848 85.8972 61.1113 87.0983 61.1113ZM86.0319 59.2129V59.2012C86.0319 58.5742 86.4538 58.2344 87.4147 58.1758L89.1022 58.0703V58.6445C89.1022 59.5469 88.3464 60.2266 87.3093 60.2266C86.5769 60.2266 86.0319 59.8516 86.0319 59.2129Z" fill="#686674"/>
<path d="M13.043 82H14.5547V78.8184H16.2305L17.8887 82H19.6172L17.7715 78.5898C18.7734 78.2266 19.3652 77.3008 19.3652 76.1816V76.1699C19.3652 74.5586 18.2754 73.5449 16.459 73.5449H13.043V82ZM14.5547 77.6582V74.7695H16.2715C17.2324 74.7695 17.8125 75.3203 17.8125 76.2051V76.2168C17.8125 77.125 17.2559 77.6582 16.3008 77.6582H14.5547ZM23.3752 82.8379H24.0608V81.8652C25.6193 81.7539 26.7971 80.9219 26.7971 79.4805V79.4688C26.7971 78.2031 25.9533 77.5703 24.3889 77.207L24.0608 77.1309V74.8574C24.7639 74.957 25.2502 75.373 25.3264 76.0586L25.3322 76.0703L26.6916 76.0645V76.0586C26.6389 74.7168 25.5842 73.8027 24.0608 73.6797V72.6953H23.3752V73.6797C21.8459 73.7852 20.7502 74.6582 20.7502 76V76.0117C20.7502 77.2305 21.5705 77.9102 23.0764 78.2559L23.3752 78.3262V80.6934C22.4963 80.5996 22.0627 80.1426 21.9631 79.5039L21.9572 79.4922L20.5979 79.498L20.592 79.5039C20.6389 80.9219 21.8225 81.7656 23.3752 81.8652V82.8379ZM22.1623 75.9062V75.8945C22.1623 75.3906 22.5783 74.9512 23.3752 74.8574V76.9727C22.508 76.7441 22.1623 76.3984 22.1623 75.9062ZM25.385 79.6094V79.6211C25.385 80.2012 24.9748 80.6172 24.0608 80.6934V78.4844C25.0627 78.7363 25.385 79.0527 25.385 79.6094ZM33.9498 82.1699C35.8248 82.1699 37.108 81.1328 37.108 79.6445V79.6328C37.108 78.4609 36.2819 77.7227 35.0397 77.6055V77.5762C36.0533 77.3652 36.8092 76.668 36.8092 75.6191V75.6074C36.8092 74.2832 35.6783 73.375 33.9381 73.375C32.233 73.375 31.0787 74.3359 30.9498 75.8008L30.944 75.8652H32.3502L32.3561 75.8066C32.4323 75.0508 33.0475 74.5762 33.9381 74.5762C34.8405 74.5762 35.3619 75.0332 35.3619 75.8066V75.8184C35.3619 76.5566 34.7408 77.084 33.8092 77.084H32.8424V78.209H33.8385C34.9225 78.209 35.5787 78.7012 35.5787 79.5918V79.6035C35.5787 80.3887 34.9283 80.9336 33.9498 80.9336C32.9596 80.9336 32.2975 80.4238 32.2155 79.709L32.2096 79.6445H30.7682L30.774 79.7148C30.8854 81.1621 32.0983 82.1699 33.9498 82.1699ZM41.3993 82.2109C43.409 82.2109 44.6278 80.5059 44.6278 77.7754V77.7637C44.6278 75.0332 43.409 73.334 41.3993 73.334C39.3895 73.334 38.1825 75.0332 38.1825 77.7637V77.7754C38.1825 80.5059 39.3895 82.2109 41.3993 82.2109ZM41.3993 80.9863C40.3211 80.9863 39.7059 79.7793 39.7059 77.7754V77.7637C39.7059 75.7598 40.3211 74.5645 41.3993 74.5645C42.4774 74.5645 43.1043 75.7598 43.1043 77.7637V77.7754C43.1043 79.7793 42.4774 80.9863 41.3993 80.9863ZM48.9717 82.2109C50.9815 82.2109 52.2002 80.5059 52.2002 77.7754V77.7637C52.2002 75.0332 50.9815 73.334 48.9717 73.334C46.962 73.334 45.7549 75.0332 45.7549 77.7637V77.7754C45.7549 80.5059 46.962 82.2109 48.9717 82.2109ZM48.9717 80.9863C47.8936 80.9863 47.2784 79.7793 47.2784 77.7754V77.7637C47.2784 75.7598 47.8936 74.5645 48.9717 74.5645C50.0498 74.5645 50.6768 75.7598 50.6768 77.7637V77.7754C50.6768 79.7793 50.0498 80.9863 48.9717 80.9863ZM52.6946 84.2324H53.6907L54.7102 80.7109H53.2043L52.6946 84.2324ZM58.9956 82.2109C61.0053 82.2109 62.2241 80.5059 62.2241 77.7754V77.7637C62.2241 75.0332 61.0053 73.334 58.9956 73.334C56.9858 73.334 55.7788 75.0332 55.7788 77.7637V77.7754C55.7788 80.5059 56.9858 82.2109 58.9956 82.2109ZM58.9956 80.9863C57.9174 80.9863 57.3022 79.7793 57.3022 77.7754V77.7637C57.3022 75.7598 57.9174 74.5645 58.9956 74.5645C60.0737 74.5645 60.7006 75.7598 60.7006 77.7637V77.7754C60.7006 79.7793 60.0737 80.9863 58.9956 80.9863ZM66.5212 82.2109C68.3493 82.2109 69.6325 81.0098 69.6325 79.252V79.2402C69.6325 77.623 68.4899 76.4512 66.9137 76.4512C66.1169 76.4512 65.4606 76.791 65.109 77.3594H65.0094L65.2438 74.7871H69.1403V73.5449H64.0661L63.6559 78.4961H64.9508C65.0505 78.3086 65.1911 78.1445 65.3434 78.0156C65.654 77.7344 66.0641 77.5938 66.5387 77.5938C67.5055 77.5938 68.1969 78.2852 68.1969 79.2695V79.2812C68.1969 80.2773 67.5173 80.9746 66.527 80.9746C65.6598 80.9746 65.0212 80.4238 64.9098 79.7324L64.904 79.6914H63.5094L63.5153 79.7676C63.6266 81.1562 64.7926 82.2109 66.5212 82.2109Z" fill="#15112B"/>
<path d="M18.0391 33.2734C20.5547 33.2734 22.3906 31.8359 22.7188 29.6719V29.625H20.9844L20.9688 29.6562C20.6484 30.9297 19.5312 31.7266 18.0391 31.7266C16.0078 31.7266 14.7422 30.0469 14.7422 27.375V27.3594C14.7422 24.6797 16.0078 23 18.0312 23C19.5156 23 20.6484 23.8984 20.9766 25.2812V25.3047H22.7109L22.7188 25.2656C22.4219 23.0234 20.5156 21.4531 18.0312 21.4531C14.8984 21.4531 12.9531 23.7188 12.9531 27.3594V27.375C12.9531 31.0078 14.9062 33.2734 18.0391 33.2734ZM26.7483 33.1406C27.8733 33.1406 28.7639 32.6562 29.2639 31.7969H29.3967V33H31.0764V27.1953C31.0764 25.4141 29.8733 24.3516 27.7404 24.3516C25.8108 24.3516 24.4748 25.2812 24.2717 26.6719L24.2639 26.7266H25.8967L25.9045 26.6953C26.1076 26.0938 26.7248 25.75 27.6623 25.75C28.8108 25.75 29.3967 26.2656 29.3967 27.1953V27.9453L27.0998 28.0781C25.0764 28.2031 23.9358 29.0859 23.9358 30.6016V30.6172C23.9358 32.1562 25.1311 33.1406 26.7483 33.1406ZM25.6233 30.5469V30.5312C25.6233 29.7656 26.1545 29.3438 27.3264 29.2734L29.3967 29.1406V29.8672C29.3967 30.9609 28.467 31.7891 27.2014 31.7891C26.2873 31.7891 25.6233 31.3281 25.6233 30.5469ZM33.059 33H34.7543V27.9297C34.7543 26.7031 35.6371 25.9062 36.934 25.9062C37.2543 25.9062 37.5434 25.9453 37.8481 26.0078V24.4453C37.6762 24.4062 37.3793 24.3672 37.1059 24.3672C35.9731 24.3672 35.184 24.8984 34.8793 25.7969H34.7543V24.5156H33.059V33ZM42.4323 33.0547C42.7604 33.0547 43.0729 33.0156 43.3463 32.9688V31.6172C43.1119 31.6406 42.9635 31.6484 42.7057 31.6484C41.8698 31.6484 41.526 31.2734 41.526 30.3594V25.8516H43.3463V24.5156H41.526V22.375H39.7994V24.5156H38.4713V25.8516H39.7994V30.7656C39.7994 32.3984 40.5651 33.0547 42.4323 33.0547ZM49.4071 23.2969C50.4539 23.2969 51.0711 22.4297 51.0711 21.0547V20.9766H49.868V21.0078C49.868 21.7578 49.6493 22.1328 49.2664 22.1328C49.0633 22.1328 48.8914 22.0547 48.6024 21.7812L48.493 21.6797C48.0555 21.2656 47.6414 21 47.0555 21C46.0086 21 45.3993 21.8594 45.3993 23.2422V23.3203H46.6024V23.2891C46.6024 22.5391 46.8211 22.1562 47.1961 22.1562C47.4071 22.1562 47.5711 22.2344 47.8602 22.5156L47.9696 22.6094C48.4149 23.0312 48.8211 23.2969 49.4071 23.2969ZM47.243 33.1406C48.368 33.1406 49.2586 32.6562 49.7586 31.7969H49.8914V33H51.5711V27.1953C51.5711 25.4141 50.368 24.3516 48.2352 24.3516C46.3055 24.3516 44.9696 25.2812 44.7664 26.6719L44.7586 26.7266H46.3914L46.3993 26.6953C46.6024 26.0938 47.2196 25.75 48.1571 25.75C49.3055 25.75 49.8914 26.2656 49.8914 27.1953V27.9453L47.5946 28.0781C45.5711 28.2031 44.4305 29.0859 44.4305 30.6016V30.6172C44.4305 32.1562 45.6258 33.1406 47.243 33.1406ZM46.118 30.5469V30.5312C46.118 29.7656 46.6493 29.3438 47.8211 29.2734L49.8914 29.1406V29.8672C49.8914 30.9609 48.9618 31.7891 47.6961 31.7891C46.7821 31.7891 46.118 31.3281 46.118 30.5469ZM57.1475 33.1641C59.6319 33.1641 61.1553 31.5 61.1553 28.7656V28.75C61.1553 26.0156 59.6241 24.3516 57.1475 24.3516C54.6631 24.3516 53.1319 26.0234 53.1319 28.75V28.7656C53.1319 31.5 54.6553 33.1641 57.1475 33.1641ZM57.1475 31.75C55.6866 31.75 54.8662 30.6484 54.8662 28.7656V28.75C54.8662 26.8672 55.6866 25.7656 57.1475 25.7656C58.6006 25.7656 59.4287 26.8672 59.4287 28.75V28.7656C59.4287 30.6406 58.6006 31.75 57.1475 31.75ZM69.8315 33.1406C71.019 33.1406 71.9487 32.5938 72.4409 31.6641H72.5737V33H74.2612V21.1875H72.5737V25.8594H72.4409C71.9878 24.9453 70.9956 24.3672 69.8315 24.3672C67.6753 24.3672 66.3159 26.0625 66.3159 28.75V28.7656C66.3159 31.4297 67.6987 33.1406 69.8315 33.1406ZM70.3159 31.6953C68.894 31.6953 68.0424 30.5859 68.0424 28.7656V28.75C68.0424 26.9297 68.894 25.8203 70.3159 25.8203C71.7221 25.8203 72.5971 26.9375 72.5971 28.75V28.7656C72.5971 30.5781 71.7299 31.6953 70.3159 31.6953ZM79.9391 33.1641C82.111 33.1641 83.2829 31.9141 83.5641 30.7969L83.5798 30.7266L81.9469 30.7344L81.9157 30.7969C81.7126 31.2344 81.0641 31.7734 79.9782 31.7734C78.5798 31.7734 77.6891 30.8281 77.6579 29.2031H83.6735V28.6094C83.6735 26.0625 82.2204 24.3516 79.8532 24.3516C77.486 24.3516 75.9548 26.125 75.9548 28.7734V28.7812C75.9548 31.4688 77.4548 33.1641 79.9391 33.1641ZM79.861 25.7422C81.0094 25.7422 81.861 26.4766 81.9938 27.9922H77.6813C77.8298 26.5312 78.7048 25.7422 79.861 25.7422ZM94.0684 33.2734C96.5841 33.2734 98.42 31.8359 98.7481 29.6719V29.625H97.0137L96.9981 29.6562C96.6778 30.9297 95.5606 31.7266 94.0684 31.7266C92.0372 31.7266 90.7716 30.0469 90.7716 27.375V27.3594C90.7716 24.6797 92.0372 23 94.0606 23C95.545 23 96.6778 23.8984 97.0059 25.2812V25.3047H98.7403L98.7481 25.2656C98.4512 23.0234 96.545 21.4531 94.0606 21.4531C90.9278 21.4531 88.9825 23.7188 88.9825 27.3594V27.375C88.9825 31.0078 90.9356 33.2734 94.0684 33.2734ZM100.45 33H102.145V27.9297C102.145 26.7031 103.028 25.9062 104.325 25.9062C104.645 25.9062 104.934 25.9453 105.239 26.0078V24.4453C105.067 24.4062 104.77 24.3672 104.496 24.3672C103.364 24.3672 102.575 24.8984 102.27 25.7969H102.145V24.5156H100.45V33ZM110.307 23.3438L112.151 20.6562H110.338L108.971 23.3438H110.307ZM109.792 33.1641C111.963 33.1641 113.135 31.9141 113.417 30.7969L113.432 30.7266L111.799 30.7344L111.768 30.7969C111.565 31.2344 110.917 31.7734 109.831 31.7734C108.432 31.7734 107.542 30.8281 107.51 29.2031H113.526V28.6094C113.526 26.0625 112.073 24.3516 109.706 24.3516C107.338 24.3516 105.807 26.125 105.807 28.7734V28.7812C105.807 31.4688 107.307 33.1641 109.792 33.1641ZM109.713 25.7422C110.862 25.7422 111.713 26.4766 111.846 27.9922H107.534C107.682 26.5312 108.557 25.7422 109.713 25.7422ZM118.227 33.1406C119.415 33.1406 120.344 32.5938 120.837 31.6641H120.969V33H122.657V21.1875H120.969V25.8594H120.837C120.383 24.9453 119.391 24.3672 118.227 24.3672C116.071 24.3672 114.712 26.0625 114.712 28.75V28.7656C114.712 31.4297 116.094 33.1406 118.227 33.1406ZM118.712 31.6953C117.29 31.6953 116.438 30.5859 116.438 28.7656V28.75C116.438 26.9297 117.29 25.8203 118.712 25.8203C120.118 25.8203 120.993 26.9375 120.993 28.75V28.7656C120.993 30.5781 120.126 31.6953 118.712 31.6953ZM125.655 23C126.233 23 126.718 22.5234 126.718 21.9453C126.718 21.3594 126.233 20.8828 125.655 20.8828C125.069 20.8828 124.593 21.3594 124.593 21.9453C124.593 22.5234 125.069 23 125.655 23ZM124.804 33H126.491V24.5156H124.804V33ZM131.755 33.0547C132.083 33.0547 132.396 33.0156 132.669 32.9688V31.6172C132.435 31.6406 132.286 31.6484 132.028 31.6484C131.192 31.6484 130.849 31.2734 130.849 30.3594V25.8516H132.669V24.5156H130.849V22.375H129.122V24.5156H127.794V25.8516H129.122V30.7656C129.122 32.3984 129.888 33.0547 131.755 33.0547ZM137.738 33.1641C140.222 33.1641 141.745 31.5 141.745 28.7656V28.75C141.745 26.0156 140.214 24.3516 137.738 24.3516C135.253 24.3516 133.722 26.0234 133.722 28.75V28.7656C133.722 31.5 135.245 33.1641 137.738 33.1641ZM137.738 31.75C136.277 31.75 135.456 30.6484 135.456 28.7656V28.75C135.456 26.8672 136.277 25.7656 137.738 25.7656C139.191 25.7656 140.019 26.8672 140.019 28.75V28.7656C140.019 30.6406 139.191 31.75 137.738 31.75Z" fill="#15112B"/>
<path d="M15.5215 101H16.5645L19.6816 92.5449H18.5742L16.0898 99.6348H15.9961L13.5117 92.5449H12.4043L15.5215 101ZM22.6193 101.111C24.1076 101.111 25.01 100.268 25.2268 99.4121L25.2385 99.3652H24.219L24.1955 99.418C24.0256 99.7988 23.4983 100.203 22.6428 100.203C21.5178 100.203 20.7971 99.4414 20.7678 98.1348H25.3147V97.7363C25.3147 95.8496 24.2717 94.5723 22.5549 94.5723C20.8381 94.5723 19.7248 95.9082 19.7248 97.8594V97.8652C19.7248 99.8457 20.8147 101.111 22.6193 101.111ZM22.549 95.4805C23.4807 95.4805 24.1721 96.0723 24.2775 97.3203H20.7854C20.8967 96.1191 21.6115 95.4805 22.549 95.4805ZM26.4887 101H27.5082V97.2617C27.5082 96.1543 28.1469 95.4746 29.1547 95.4746C30.1625 95.4746 30.6313 96.0195 30.6313 97.1562V101H31.6508V96.9102C31.6508 95.4102 30.8598 94.5723 29.4418 94.5723C28.5102 94.5723 27.9184 94.9648 27.602 95.6328H27.5082V94.6836H26.4887V101ZM35.6725 101.111C37.1901 101.111 38.0397 100.297 38.2975 99.1543L38.3092 99.0898L37.3014 99.0957L37.2897 99.1309C37.0553 99.834 36.5162 100.209 35.6666 100.209C34.5416 100.209 33.8151 99.2773 33.8151 97.8242V97.8125C33.8151 96.3887 34.5299 95.4746 35.6666 95.4746C36.5748 95.4746 37.1373 95.9785 37.2955 96.5996L37.3014 96.6172H38.3151L38.3092 96.582C38.1217 95.457 37.2018 94.5723 35.6666 94.5723C33.8971 94.5723 32.7721 95.8496 32.7721 97.8125V97.8242C32.7721 99.8281 33.903 101.111 35.6725 101.111ZM39.9344 93.4648C40.3211 93.4648 40.6375 93.1484 40.6375 92.7617C40.6375 92.375 40.3211 92.0586 39.9344 92.0586C39.5477 92.0586 39.2313 92.375 39.2313 92.7617C39.2313 93.1484 39.5477 93.4648 39.9344 93.4648ZM39.4188 101H40.4383V94.6836H39.4188V101ZM41.9522 101H42.9717V97.0859C42.9717 96.1953 43.5987 95.4746 44.4248 95.4746C45.2217 95.4746 45.7373 95.9609 45.7373 96.7109V101H46.7569V96.9395C46.7569 96.1367 47.337 95.4746 48.2159 95.4746C49.1065 95.4746 49.5342 95.9375 49.5342 96.8691V101H50.5537V96.6348C50.5537 95.3105 49.833 94.5723 48.544 94.5723C47.6709 94.5723 46.9502 95.0117 46.6104 95.6797H46.5166C46.2237 95.0234 45.626 94.5723 44.7705 94.5723C43.9444 94.5723 43.3467 94.9648 43.0655 95.6445H42.9717V94.6836H41.9522V101ZM54.5637 101.111C56.052 101.111 56.9543 100.268 57.1711 99.4121L57.1829 99.3652H56.1633L56.1399 99.418C55.97 99.7988 55.4426 100.203 54.5872 100.203C53.4622 100.203 52.7415 99.4414 52.7122 98.1348H57.259V97.7363C57.259 95.8496 56.2161 94.5723 54.4993 94.5723C52.7825 94.5723 51.6692 95.9082 51.6692 97.8594V97.8652C51.6692 99.8457 52.759 101.111 54.5637 101.111ZM54.4934 95.4805C55.425 95.4805 56.1165 96.0723 56.2219 97.3203H52.7297C52.8411 96.1191 53.5559 95.4805 54.4934 95.4805ZM58.4331 101H59.4526V97.2617C59.4526 96.1543 60.0913 95.4746 61.0991 95.4746C62.1069 95.4746 62.5756 96.0195 62.5756 97.1562V101H63.5952V96.9102C63.5952 95.4102 62.8042 94.5723 61.3862 94.5723C60.4545 94.5723 59.8628 94.9648 59.5463 95.6328H59.4526V94.6836H58.4331V101ZM67.277 101.047C67.4762 101.047 67.6696 101.023 67.8688 100.988V100.121C67.6813 100.139 67.5817 100.145 67.4001 100.145C66.7438 100.145 66.486 99.8457 66.486 99.1016V95.5273H67.8688V94.6836H66.486V93.0488H65.4313V94.6836H64.4352V95.5273H65.4313V99.3594C65.4313 100.566 65.9762 101.047 67.277 101.047ZM71.4862 101.111C73.285 101.111 74.3983 99.8691 74.3983 97.8477V97.8359C74.3983 95.8086 73.285 94.5723 71.4862 94.5723C69.6874 94.5723 68.5741 95.8086 68.5741 97.8359V97.8477C68.5741 99.8691 69.6874 101.111 71.4862 101.111ZM71.4862 100.209C70.2909 100.209 69.6171 99.3359 69.6171 97.8477V97.8359C69.6171 96.3418 70.2909 95.4746 71.4862 95.4746C72.6815 95.4746 73.3553 96.3418 73.3553 97.8359V97.8477C73.3553 99.3359 72.6815 100.209 71.4862 100.209ZM80.8714 101.111C81.7503 101.111 82.4534 100.695 82.8401 99.9922H82.9339V101H83.9534V92.1758H82.9339V95.6797H82.8401C82.4944 95.0059 81.7386 94.5723 80.8714 94.5723C79.2659 94.5723 78.2229 95.8555 78.2229 97.8359V97.8477C78.2229 99.8164 79.2718 101.111 80.8714 101.111ZM81.1058 100.209C79.9515 100.209 79.2659 99.3184 79.2659 97.8477V97.8359C79.2659 96.3652 79.9515 95.4746 81.1058 95.4746C82.2542 95.4746 82.9573 96.377 82.9573 97.8359V97.8477C82.9573 99.3066 82.2542 100.209 81.1058 100.209ZM86.0415 93.4648C86.4282 93.4648 86.7446 93.1484 86.7446 92.7617C86.7446 92.375 86.4282 92.0586 86.0415 92.0586C85.6548 92.0586 85.3384 92.375 85.3384 92.7617C85.3384 93.1484 85.6548 93.4648 86.0415 93.4648ZM85.5259 101H86.5454V94.6836H85.5259V101ZM89.7937 101.111C90.6433 101.111 91.3054 100.742 91.7038 100.068H91.7976V101H92.8171V96.6758C92.8171 95.3633 91.9558 94.5723 90.4147 94.5723C89.0671 94.5723 88.1062 95.2402 87.9421 96.2305L87.9362 96.2656H88.9558L88.9616 96.248C89.1257 95.7559 89.6237 95.4746 90.3796 95.4746C91.323 95.4746 91.7976 95.8965 91.7976 96.6758V97.25L89.987 97.3613C88.5163 97.4492 87.6843 98.0996 87.6843 99.2246V99.2363C87.6843 100.385 88.5925 101.111 89.7937 101.111ZM88.7272 99.2129V99.2012C88.7272 98.5742 89.1491 98.2344 90.1101 98.1758L91.7976 98.0703V98.6445C91.7976 99.5469 91.0417 100.227 90.0046 100.227C89.2722 100.227 88.7272 99.8516 88.7272 99.2129ZM99.3019 101H100.357V92.5449H99.3077L97.0577 94.1621V95.2754L99.2081 93.7168H99.3019V101ZM105.158 92.3457C103.452 92.3457 102.199 93.5703 102.199 95.2578V95.2695C102.199 96.8926 103.382 98.0996 104.97 98.0996C106.113 98.0996 106.91 97.4844 107.22 96.793H107.331C107.331 96.8574 107.331 96.9277 107.326 96.9922C107.261 98.7559 106.634 100.256 105.099 100.256C104.243 100.256 103.652 99.8164 103.394 99.1074L103.37 99.043H102.31L102.327 99.1191C102.615 100.367 103.669 101.199 105.087 101.199C107.138 101.199 108.339 99.5117 108.339 96.6289V96.6172C108.339 93.4355 106.704 92.3457 105.158 92.3457ZM105.152 97.1797C104.056 97.1797 103.259 96.3711 103.259 95.2461V95.2344C103.259 94.1387 104.109 93.2773 105.169 93.2773C106.242 93.2773 107.079 94.1562 107.079 95.2695V95.2754C107.079 96.377 106.247 97.1797 105.152 97.1797Z" fill="#686674"/>
<path d="M265.969 27.3594C265.969 27.0938 265.867 26.8672 265.664 26.6641L259.57 20.7031C259.398 20.5312 259.188 20.4453 258.938 20.4453C258.43 20.4453 258.023 20.8359 258.023 21.3438C258.023 21.5938 258.125 21.8203 258.297 22L263.797 27.3594L258.297 32.7188C258.133 32.8906 258.023 33.1172 258.023 33.3672C258.023 33.8828 258.43 34.2734 258.938 34.2734C259.188 34.2734 259.398 34.1875 259.57 34.0156L265.664 28.0547C265.875 27.8516 265.969 27.625 265.969 27.3594Z" fill="#15112A"/>
</svg>
