<svg width="196" height="149" viewBox="0 0 196 149" fill="none" xmlns="http://www.w3.org/2000/svg">
<rect width="196" height="148" rx="10" fill="#FAF9FF"/>
<path d="M92.6748 129.109C93.1465 129.109 93.4404 128.809 93.4404 128.316V125.63H95.5596C97.4941 125.63 98.8545 124.304 98.8545 122.376C98.8545 120.455 97.5215 119.136 95.6074 119.136H92.6748C92.1963 119.136 91.9092 119.437 91.9092 119.929V128.316C91.9092 128.809 92.1963 129.109 92.6748 129.109ZM93.4404 124.345V120.428H95.2041C96.5303 120.428 97.2891 121.139 97.2891 122.383C97.2891 123.627 96.5303 124.345 95.1973 124.345H93.4404ZM101.14 129.123C102.076 129.123 102.992 128.617 103.409 127.817H103.444V128.426C103.457 128.863 103.738 129.13 104.148 129.13C104.565 129.13 104.859 128.85 104.859 128.385V124.044C104.859 122.602 103.744 121.679 102.001 121.679C100.709 121.679 99.6223 122.198 99.2463 123.012C99.1574 123.176 99.1164 123.34 99.1164 123.49C99.1164 123.859 99.383 124.105 99.7522 124.105C100.012 124.105 100.203 124.01 100.354 123.791C100.764 123.135 101.236 122.882 101.946 122.882C102.849 122.882 103.389 123.36 103.389 124.16V124.714L101.413 124.83C99.7111 124.926 98.7404 125.698 98.7404 126.956C98.7404 128.248 99.7316 129.123 101.14 129.123ZM101.543 127.954C100.757 127.954 100.231 127.544 100.231 126.915C100.231 126.3 100.73 125.91 101.612 125.849L103.389 125.739V126.307C103.389 127.243 102.575 127.954 101.543 127.954ZM106.624 129.13C107.062 129.13 107.363 128.829 107.363 128.351V124.68C107.363 123.784 107.773 123.107 108.785 123.101C109.092 123.101 109.311 123.039 109.461 122.909C109.605 122.793 109.68 122.622 109.68 122.39C109.68 122.157 109.619 121.979 109.482 121.87C109.359 121.754 109.161 121.692 108.901 121.692C108.183 121.692 107.52 122.232 107.322 123.039H107.288V122.424C107.288 121.973 107 121.679 106.59 121.679C106.173 121.679 105.886 121.973 105.886 122.424V128.351C105.886 128.829 106.18 129.13 106.624 129.13ZM112.834 129.137C114.167 129.137 115.336 128.433 115.712 127.441C115.766 127.298 115.794 127.175 115.794 127.059C115.794 126.689 115.527 126.443 115.165 126.443C114.843 126.443 114.686 126.566 114.481 126.922C114.132 127.544 113.647 127.899 112.847 127.899C111.706 127.899 110.94 126.97 110.94 125.404C110.94 123.873 111.692 122.909 112.847 122.909C113.606 122.909 114.112 123.237 114.481 123.921C114.659 124.249 114.837 124.372 115.151 124.372C115.513 124.372 115.78 124.14 115.78 123.764C115.78 123.661 115.753 123.538 115.712 123.422C115.397 122.417 114.208 121.679 112.82 121.679C110.769 121.679 109.436 123.142 109.436 125.418C109.436 127.708 110.776 129.137 112.834 129.137ZM119.699 129.137C121.039 129.137 122.085 128.597 122.556 127.653C122.618 127.51 122.659 127.373 122.659 127.257C122.659 126.888 122.399 126.655 122.044 126.655C121.832 126.655 121.681 126.73 121.524 126.915C120.977 127.66 120.472 127.94 119.665 127.94C118.489 127.94 117.751 127.12 117.751 125.808V125.773H122.098C122.556 125.773 122.83 125.5 122.83 125.021C122.83 123.06 121.511 121.679 119.597 121.679C117.559 121.679 116.261 123.155 116.261 125.438C116.261 127.763 117.532 129.137 119.699 129.137ZM117.758 124.741C117.833 123.62 118.571 122.868 119.59 122.868C120.615 122.868 121.319 123.613 121.353 124.741H117.758ZM124.363 129.13C124.794 129.13 125.102 128.836 125.102 128.351V119.785C125.102 119.3 124.794 119.006 124.363 119.006C123.933 119.006 123.625 119.3 123.625 119.785V128.351C123.625 128.836 123.933 129.13 124.363 129.13ZM128.317 129.123C129.253 129.123 130.169 128.617 130.586 127.817H130.62V128.426C130.634 128.863 130.914 129.13 131.324 129.13C131.741 129.13 132.035 128.85 132.035 128.385V124.044C132.035 122.602 130.921 121.679 129.178 121.679C127.886 121.679 126.799 122.198 126.423 123.012C126.334 123.176 126.293 123.34 126.293 123.49C126.293 123.859 126.56 124.105 126.929 124.105C127.189 124.105 127.38 124.01 127.531 123.791C127.941 123.135 128.412 122.882 129.123 122.882C130.026 122.882 130.566 123.36 130.566 124.16V124.714L128.59 124.83C126.888 124.926 125.917 125.698 125.917 126.956C125.917 128.248 126.908 129.123 128.317 129.123ZM128.72 127.954C127.934 127.954 127.407 127.544 127.407 126.915C127.407 126.3 127.906 125.91 128.788 125.849L130.566 125.739V126.307C130.566 127.243 129.752 127.954 128.72 127.954ZM133.801 129.13C134.239 129.13 134.54 128.829 134.54 128.351V124.68C134.54 123.784 134.95 123.107 135.961 123.101C136.269 123.101 136.488 123.039 136.638 122.909C136.782 122.793 136.857 122.622 136.857 122.39C136.857 122.157 136.795 121.979 136.659 121.87C136.536 121.754 136.337 121.692 136.078 121.692C135.36 121.692 134.697 122.232 134.498 123.039H134.464V122.424C134.464 121.973 134.177 121.679 133.767 121.679C133.35 121.679 133.063 121.973 133.063 122.424V128.351C133.063 128.829 133.357 129.13 133.801 129.13Z" fill="#614CCB"/>
<rect x="86.5" y="112.5" width="55" height="23" rx="3.5" stroke="#614CCB"/>
<rect x="10" y="112" width="65" height="24" rx="4" fill="#614CCB"/>
<path d="M27.1748 129.109C27.6465 129.109 27.9404 128.809 27.9404 128.316V125.63H30.0596C31.9941 125.63 33.3545 124.304 33.3545 122.376C33.3545 120.455 32.0215 119.136 30.1074 119.136H27.1748C26.6963 119.136 26.4092 119.437 26.4092 119.929V128.316C26.4092 128.809 26.6963 129.109 27.1748 129.109ZM27.9404 124.345V120.428H29.7041C31.0303 120.428 31.7891 121.139 31.7891 122.383C31.7891 123.627 31.0303 124.345 29.6973 124.345H27.9404ZM35.6399 129.123C36.5764 129.123 37.4924 128.617 37.9094 127.817H37.9436V128.426C37.9572 128.863 38.2375 129.13 38.6477 129.13C39.0647 129.13 39.3586 128.85 39.3586 128.385V124.044C39.3586 122.602 38.2443 121.679 36.5012 121.679C35.2092 121.679 34.1223 122.198 33.7463 123.012C33.6574 123.176 33.6164 123.34 33.6164 123.49C33.6164 123.859 33.883 124.105 34.2522 124.105C34.5119 124.105 34.7033 124.01 34.8537 123.791C35.2639 123.135 35.7356 122.882 36.4465 122.882C37.3488 122.882 37.8889 123.36 37.8889 124.16V124.714L35.9133 124.83C34.2111 124.926 33.2404 125.698 33.2404 126.956C33.2404 128.248 34.2316 129.123 35.6399 129.123ZM36.0432 127.954C35.257 127.954 34.7307 127.544 34.7307 126.915C34.7307 126.3 35.2297 125.91 36.1115 125.849L37.8889 125.739V126.307C37.8889 127.243 37.0754 127.954 36.0432 127.954ZM43.4008 131.707C45.5404 131.728 46.8461 130.579 46.8461 128.802V122.438C46.8461 121.959 46.5317 121.679 46.1078 121.679C45.684 121.679 45.3627 121.959 45.3627 122.438V123.019H45.3354C44.8979 122.205 44.1049 121.692 43.0863 121.692C41.227 121.692 40.0649 123.094 40.0649 125.343C40.0649 127.564 41.2406 128.979 43.0522 128.979C44.0776 128.979 44.9252 128.467 45.3285 127.688H45.3627V128.829C45.3627 129.834 44.6313 130.518 43.4281 130.504C42.724 130.49 42.2182 130.224 41.6303 129.608C41.432 129.41 41.2885 129.335 41.0629 129.335C40.6869 129.335 40.434 129.581 40.434 129.923C40.434 130.094 40.475 130.244 40.5707 130.408C41.0629 131.188 42.0951 131.693 43.4008 131.707ZM43.4486 127.776C42.3139 127.776 41.5756 126.854 41.5756 125.35C41.5756 123.853 42.3139 122.909 43.4486 122.909C44.6039 122.909 45.3695 123.88 45.3695 125.356C45.3695 126.833 44.6039 127.776 43.4486 127.776ZM49.9996 129.123C50.9362 129.123 51.8522 128.617 52.2692 127.817H52.3033V128.426C52.317 128.863 52.5973 129.13 53.0074 129.13C53.4244 129.13 53.7184 128.85 53.7184 128.385V124.044C53.7184 122.602 52.6041 121.679 50.861 121.679C49.569 121.679 48.4821 122.198 48.1061 123.012C48.0172 123.176 47.9762 123.34 47.9762 123.49C47.9762 123.859 48.2428 124.105 48.6119 124.105C48.8717 124.105 49.0631 124.01 49.2135 123.791C49.6237 123.135 50.0953 122.882 50.8063 122.882C51.7086 122.882 52.2487 123.36 52.2487 124.16V124.714L50.2731 124.83C48.5709 124.926 47.6002 125.698 47.6002 126.956C47.6002 128.248 48.5914 129.123 49.9996 129.123ZM50.403 127.954C49.6168 127.954 49.0905 127.544 49.0905 126.915C49.0905 126.3 49.5895 125.91 50.4713 125.849L52.2487 125.739V126.307C52.2487 127.243 51.4352 127.954 50.403 127.954ZM55.4842 129.13C55.9217 129.13 56.2225 128.829 56.2225 128.351V124.68C56.2225 123.784 56.6326 123.107 57.6444 123.101C57.952 123.101 58.1707 123.039 58.3211 122.909C58.4647 122.793 58.5399 122.622 58.5399 122.39C58.5399 122.157 58.4784 121.979 58.3416 121.87C58.2186 121.754 58.0203 121.692 57.7606 121.692C57.0428 121.692 56.3797 122.232 56.1815 123.039H56.1473V122.424C56.1473 121.973 55.8602 121.679 55.45 121.679C55.033 121.679 54.7459 121.973 54.7459 122.424V128.351C54.7459 128.829 55.0399 129.13 55.4842 129.13Z" fill="#EEEEEF"/>
<path d="M11.0781 57H12.1328V53.3379H15.877V52.4004H12.1328V49.4941H16.2109V48.5449H11.0781V57ZM18.7326 57.1113C19.5822 57.1113 20.2443 56.7422 20.6428 56.0684H20.7365V57H21.7561V52.6758C21.7561 51.3633 20.8947 50.5723 19.3537 50.5723C18.0061 50.5723 17.0451 51.2402 16.8811 52.2305L16.8752 52.2656H17.8947L17.9006 52.248C18.0647 51.7559 18.5627 51.4746 19.3186 51.4746C20.2619 51.4746 20.7365 51.8965 20.7365 52.6758V53.25L18.926 53.3613C17.4553 53.4492 16.6233 54.0996 16.6233 55.2246V55.2363C16.6233 56.3848 17.5315 57.1113 18.7326 57.1113ZM17.6662 55.2129V55.2012C17.6662 54.5742 18.0881 54.2344 19.049 54.1758L20.7365 54.0703V54.6445C20.7365 55.5469 19.9807 56.2266 18.9436 56.2266C18.2111 56.2266 17.6662 55.8516 17.6662 55.2129ZM25.4555 57.0469C25.6547 57.0469 25.8481 57.0234 26.0473 56.9883V56.1211C25.8598 56.1387 25.7602 56.1445 25.5785 56.1445C24.9223 56.1445 24.6645 55.8457 24.6645 55.1016V51.5273H26.0473V50.6836H24.6645V49.0488H23.6098V50.6836H22.6137V51.5273H23.6098V55.3594C23.6098 56.5664 24.1547 57.0469 25.4555 57.0469ZM29.278 57.1113C30.2037 57.1113 30.8424 56.7305 31.153 56.0566H31.2467V57H32.2662V50.6836H31.2467V54.4219C31.2467 55.5293 30.6549 56.209 29.5416 56.209C28.5338 56.209 28.1237 55.6641 28.1237 54.5273V50.6836H27.1041V54.7734C27.1041 56.2676 27.8424 57.1113 29.278 57.1113ZM33.7625 57H34.7821V53.0859C34.7821 52.1602 35.4735 51.5449 36.4461 51.5449C36.6688 51.5449 36.8621 51.5684 37.0731 51.6035V50.6133C36.9735 50.5957 36.7567 50.5723 36.5633 50.5723C35.7078 50.5723 35.116 50.959 34.8758 51.6211H34.7821V50.6836H33.7625V57ZM39.6592 57.1113C40.5088 57.1113 41.1709 56.7422 41.5694 56.0684H41.6631V57H42.6827V52.6758C42.6827 51.3633 41.8213 50.5723 40.2803 50.5723C38.9327 50.5723 37.9717 51.2402 37.8077 52.2305L37.8018 52.2656H38.8213L38.8272 52.248C38.9912 51.7559 39.4893 51.4746 40.2452 51.4746C41.1885 51.4746 41.6631 51.8965 41.6631 52.6758V53.25L39.8526 53.3613C38.3819 53.4492 37.5498 54.0996 37.5498 55.2246V55.2363C37.5498 56.3848 38.458 57.1113 39.6592 57.1113ZM38.5928 55.2129V55.2012C38.5928 54.5742 39.0147 54.2344 39.9756 54.1758L41.6631 54.0703V54.6445C41.6631 55.5469 40.9073 56.2266 39.8702 56.2266C39.1377 56.2266 38.5928 55.8516 38.5928 55.2129ZM47.5268 57H48.5463V51.5273H49.9819V50.6836H48.5463V50.0098C48.5463 49.3184 48.8393 48.9609 49.5659 48.9609C49.7475 48.9609 49.9174 48.9668 50.0405 48.9902V48.1758C49.8295 48.1348 49.6069 48.1172 49.3608 48.1172C48.1596 48.1172 47.5268 48.7207 47.5268 49.9805V50.6836H46.478V51.5273H47.5268V57ZM53.3532 57.1113C54.8415 57.1113 55.7438 56.2676 55.9606 55.4121L55.9723 55.3652H54.9528L54.9294 55.418C54.7594 55.7988 54.2321 56.2031 53.3766 56.2031C52.2516 56.2031 51.5309 55.4414 51.5016 54.1348H56.0485V53.7363C56.0485 51.8496 55.0055 50.5723 53.2887 50.5723C51.5719 50.5723 50.4587 51.9082 50.4587 53.8594V53.8652C50.4587 55.8457 51.5485 57.1113 53.3532 57.1113ZM53.2829 51.4805C54.2145 51.4805 54.9059 52.0723 55.0114 53.3203H51.5192C51.6305 52.1191 52.3454 51.4805 53.2829 51.4805ZM59.8065 57.1113C61.3241 57.1113 62.1737 56.2969 62.4315 55.1543L62.4432 55.0898L61.4354 55.0957L61.4237 55.1309C61.1893 55.834 60.6503 56.209 59.8007 56.209C58.6757 56.209 57.9491 55.2773 57.9491 53.8242V53.8125C57.9491 52.3887 58.6639 51.4746 59.8007 51.4746C60.7089 51.4746 61.2714 51.9785 61.4296 52.5996L61.4354 52.6172H62.4491L62.4432 52.582C62.2557 51.457 61.3358 50.5723 59.8007 50.5723C58.0311 50.5723 56.9061 51.8496 56.9061 53.8125V53.8242C56.9061 55.8281 58.037 57.1113 59.8065 57.1113ZM63.588 57H64.6075V53.2617C64.6075 52.1543 65.2462 51.4746 66.254 51.4746C67.2618 51.4746 67.7305 52.0195 67.7305 53.1562V57H68.7501V52.9102C68.7501 51.4102 67.9591 50.5723 66.5411 50.5723C65.6095 50.5723 65.0177 50.9648 64.7012 51.6328H64.6075V48.1758H63.588V57ZM71.9222 57.1113C72.7718 57.1113 73.4339 56.7422 73.8323 56.0684H73.9261V57H74.9456V52.6758C74.9456 51.3633 74.0843 50.5723 72.5433 50.5723C71.1956 50.5723 70.2347 51.2402 70.0706 52.2305L70.0647 52.2656H71.0843L71.0901 52.248C71.2542 51.7559 71.7522 51.4746 72.5081 51.4746C73.4515 51.4746 73.9261 51.8965 73.9261 52.6758V53.25L72.1155 53.3613C70.6448 53.4492 69.8128 54.0996 69.8128 55.2246V55.2363C69.8128 56.3848 70.721 57.1113 71.9222 57.1113ZM70.8558 55.2129V55.2012C70.8558 54.5742 71.2776 54.2344 72.2386 54.1758L73.9261 54.0703V54.6445C73.9261 55.5469 73.1702 56.2266 72.1331 56.2266C71.4007 56.2266 70.8558 55.8516 70.8558 55.2129ZM78.7329 57.1113C79.6118 57.1113 80.3149 56.6953 80.7017 55.9922H80.7954V57H81.8149V48.1758H80.7954V51.6797H80.7017C80.356 51.0059 79.6001 50.5723 78.7329 50.5723C77.1274 50.5723 76.0845 51.8555 76.0845 53.8359V53.8477C76.0845 55.8164 77.1333 57.1113 78.7329 57.1113ZM78.9673 56.209C77.813 56.209 77.1274 55.3184 77.1274 53.8477V53.8359C77.1274 52.3652 77.813 51.4746 78.9673 51.4746C80.1157 51.4746 80.8188 52.377 80.8188 53.8359V53.8477C80.8188 55.3066 80.1157 56.209 78.9673 56.209ZM85.0983 57.1113C85.948 57.1113 86.6101 56.7422 87.0085 56.0684H87.1022V57H88.1218V52.6758C88.1218 51.3633 87.2605 50.5723 85.7194 50.5723C84.3718 50.5723 83.4108 51.2402 83.2468 52.2305L83.2409 52.2656H84.2605L84.2663 52.248C84.4304 51.7559 84.9284 51.4746 85.6843 51.4746C86.6276 51.4746 87.1022 51.8965 87.1022 52.6758V53.25L85.2917 53.3613C83.821 53.4492 82.989 54.0996 82.989 55.2246V55.2363C82.989 56.3848 83.8972 57.1113 85.0983 57.1113ZM84.0319 55.2129V55.2012C84.0319 54.5742 84.4538 54.2344 85.4147 54.1758L87.1022 54.0703V54.6445C87.1022 55.5469 86.3464 56.2266 85.3093 56.2266C84.5769 56.2266 84.0319 55.8516 84.0319 55.2129Z" fill="#686674"/>
<path d="M11.043 78H12.5547V74.8184H14.2305L15.8887 78H17.6172L15.7715 74.5898C16.7734 74.2266 17.3652 73.3008 17.3652 72.1816V72.1699C17.3652 70.5586 16.2754 69.5449 14.459 69.5449H11.043V78ZM12.5547 73.6582V70.7695H14.2715C15.2324 70.7695 15.8125 71.3203 15.8125 72.2051V72.2168C15.8125 73.125 15.2559 73.6582 14.3008 73.6582H12.5547ZM21.3752 78.8379H22.0608V77.8652C23.6193 77.7539 24.7971 76.9219 24.7971 75.4805V75.4688C24.7971 74.2031 23.9533 73.5703 22.3889 73.207L22.0608 73.1309V70.8574C22.7639 70.957 23.2502 71.373 23.3264 72.0586L23.3322 72.0703L24.6916 72.0645V72.0586C24.6389 70.7168 23.5842 69.8027 22.0608 69.6797V68.6953H21.3752V69.6797C19.8459 69.7852 18.7502 70.6582 18.7502 72V72.0117C18.7502 73.2305 19.5705 73.9102 21.0764 74.2559L21.3752 74.3262V76.6934C20.4963 76.5996 20.0627 76.1426 19.9631 75.5039L19.9572 75.4922L18.5979 75.498L18.592 75.5039C18.6389 76.9219 19.8225 77.7656 21.3752 77.8652V78.8379ZM20.1623 71.9062V71.8945C20.1623 71.3906 20.5783 70.9512 21.3752 70.8574V72.9727C20.508 72.7441 20.1623 72.3984 20.1623 71.9062ZM23.385 75.6094V75.6211C23.385 76.2012 22.9748 76.6172 22.0608 76.6934V74.4844C23.0627 74.7363 23.385 75.0527 23.385 75.6094ZM31.9498 78.1699C33.8248 78.1699 35.108 77.1328 35.108 75.6445V75.6328C35.108 74.4609 34.2819 73.7227 33.0397 73.6055V73.5762C34.0533 73.3652 34.8092 72.668 34.8092 71.6191V71.6074C34.8092 70.2832 33.6783 69.375 31.9381 69.375C30.233 69.375 29.0787 70.3359 28.9498 71.8008L28.944 71.8652H30.3502L30.3561 71.8066C30.4323 71.0508 31.0475 70.5762 31.9381 70.5762C32.8405 70.5762 33.3619 71.0332 33.3619 71.8066V71.8184C33.3619 72.5566 32.7408 73.084 31.8092 73.084H30.8424V74.209H31.8385C32.9225 74.209 33.5787 74.7012 33.5787 75.5918V75.6035C33.5787 76.3887 32.9283 76.9336 31.9498 76.9336C30.9596 76.9336 30.2975 76.4238 30.2155 75.709L30.2096 75.6445H28.7682L28.774 75.7148C28.8854 77.1621 30.0983 78.1699 31.9498 78.1699ZM39.3993 78.2109C41.409 78.2109 42.6278 76.5059 42.6278 73.7754V73.7637C42.6278 71.0332 41.409 69.334 39.3993 69.334C37.3895 69.334 36.1825 71.0332 36.1825 73.7637V73.7754C36.1825 76.5059 37.3895 78.2109 39.3993 78.2109ZM39.3993 76.9863C38.3211 76.9863 37.7059 75.7793 37.7059 73.7754V73.7637C37.7059 71.7598 38.3211 70.5645 39.3993 70.5645C40.4774 70.5645 41.1043 71.7598 41.1043 73.7637V73.7754C41.1043 75.7793 40.4774 76.9863 39.3993 76.9863ZM46.9717 78.2109C48.9815 78.2109 50.2002 76.5059 50.2002 73.7754V73.7637C50.2002 71.0332 48.9815 69.334 46.9717 69.334C44.962 69.334 43.7549 71.0332 43.7549 73.7637V73.7754C43.7549 76.5059 44.962 78.2109 46.9717 78.2109ZM46.9717 76.9863C45.8936 76.9863 45.2784 75.7793 45.2784 73.7754V73.7637C45.2784 71.7598 45.8936 70.5645 46.9717 70.5645C48.0498 70.5645 48.6768 71.7598 48.6768 73.7637V73.7754C48.6768 75.7793 48.0498 76.9863 46.9717 76.9863ZM50.6946 80.2324H51.6907L52.7102 76.7109H51.2043L50.6946 80.2324ZM56.9956 78.2109C59.0053 78.2109 60.2241 76.5059 60.2241 73.7754V73.7637C60.2241 71.0332 59.0053 69.334 56.9956 69.334C54.9858 69.334 53.7788 71.0332 53.7788 73.7637V73.7754C53.7788 76.5059 54.9858 78.2109 56.9956 78.2109ZM56.9956 76.9863C55.9174 76.9863 55.3022 75.7793 55.3022 73.7754V73.7637C55.3022 71.7598 55.9174 70.5645 56.9956 70.5645C58.0737 70.5645 58.7006 71.7598 58.7006 73.7637V73.7754C58.7006 75.7793 58.0737 76.9863 56.9956 76.9863ZM64.5212 78.2109C66.3493 78.2109 67.6325 77.0098 67.6325 75.252V75.2402C67.6325 73.623 66.4899 72.4512 64.9137 72.4512C64.1169 72.4512 63.4606 72.791 63.109 73.3594H63.0094L63.2438 70.7871H67.1403V69.5449H62.0661L61.6559 74.4961H62.9508C63.0505 74.3086 63.1911 74.1445 63.3434 74.0156C63.654 73.7344 64.0641 73.5938 64.5387 73.5938C65.5055 73.5938 66.1969 74.2852 66.1969 75.2695V75.2812C66.1969 76.2773 65.5173 76.9746 64.527 76.9746C63.6598 76.9746 63.0212 76.4238 62.9098 75.7324L62.904 75.6914H61.5094L61.5153 75.7676C61.6266 77.1562 62.7926 78.2109 64.5212 78.2109Z" fill="#15112B"/>
<path d="M16.0391 29.2734C18.5547 29.2734 20.3906 27.8359 20.7188 25.6719V25.625H18.9844L18.9688 25.6562C18.6484 26.9297 17.5312 27.7266 16.0391 27.7266C14.0078 27.7266 12.7422 26.0469 12.7422 23.375V23.3594C12.7422 20.6797 14.0078 19 16.0312 19C17.5156 19 18.6484 19.8984 18.9766 21.2812V21.3047H20.7109L20.7188 21.2656C20.4219 19.0234 18.5156 17.4531 16.0312 17.4531C12.8984 17.4531 10.9531 19.7188 10.9531 23.3594V23.375C10.9531 27.0078 12.9062 29.2734 16.0391 29.2734ZM24.7483 29.1406C25.8733 29.1406 26.7639 28.6562 27.2639 27.7969H27.3967V29H29.0764V23.1953C29.0764 21.4141 27.8733 20.3516 25.7404 20.3516C23.8108 20.3516 22.4748 21.2812 22.2717 22.6719L22.2639 22.7266H23.8967L23.9045 22.6953C24.1076 22.0938 24.7248 21.75 25.6623 21.75C26.8108 21.75 27.3967 22.2656 27.3967 23.1953V23.9453L25.0998 24.0781C23.0764 24.2031 21.9358 25.0859 21.9358 26.6016V26.6172C21.9358 28.1562 23.1311 29.1406 24.7483 29.1406ZM23.6233 26.5469V26.5312C23.6233 25.7656 24.1545 25.3438 25.3264 25.2734L27.3967 25.1406V25.8672C27.3967 26.9609 26.467 27.7891 25.2014 27.7891C24.2873 27.7891 23.6233 27.3281 23.6233 26.5469ZM31.059 29H32.7543V23.9297C32.7543 22.7031 33.6371 21.9062 34.934 21.9062C35.2543 21.9062 35.5434 21.9453 35.8481 22.0078V20.4453C35.6762 20.4062 35.3793 20.3672 35.1059 20.3672C33.9731 20.3672 33.184 20.8984 32.8793 21.7969H32.7543V20.5156H31.059V29ZM40.4323 29.0547C40.7604 29.0547 41.0729 29.0156 41.3463 28.9688V27.6172C41.1119 27.6406 40.9635 27.6484 40.7057 27.6484C39.8698 27.6484 39.526 27.2734 39.526 26.3594V21.8516H41.3463V20.5156H39.526V18.375H37.7994V20.5156H36.4713V21.8516H37.7994V26.7656C37.7994 28.3984 38.5651 29.0547 40.4323 29.0547ZM47.4071 19.2969C48.4539 19.2969 49.0711 18.4297 49.0711 17.0547V16.9766H47.868V17.0078C47.868 17.7578 47.6493 18.1328 47.2664 18.1328C47.0633 18.1328 46.8914 18.0547 46.6024 17.7812L46.493 17.6797C46.0555 17.2656 45.6414 17 45.0555 17C44.0086 17 43.3993 17.8594 43.3993 19.2422V19.3203H44.6024V19.2891C44.6024 18.5391 44.8211 18.1562 45.1961 18.1562C45.4071 18.1562 45.5711 18.2344 45.8602 18.5156L45.9696 18.6094C46.4149 19.0312 46.8211 19.2969 47.4071 19.2969ZM45.243 29.1406C46.368 29.1406 47.2586 28.6562 47.7586 27.7969H47.8914V29H49.5711V23.1953C49.5711 21.4141 48.368 20.3516 46.2352 20.3516C44.3055 20.3516 42.9696 21.2812 42.7664 22.6719L42.7586 22.7266H44.3914L44.3993 22.6953C44.6024 22.0938 45.2196 21.75 46.1571 21.75C47.3055 21.75 47.8914 22.2656 47.8914 23.1953V23.9453L45.5946 24.0781C43.5711 24.2031 42.4305 25.0859 42.4305 26.6016V26.6172C42.4305 28.1562 43.6258 29.1406 45.243 29.1406ZM44.118 26.5469V26.5312C44.118 25.7656 44.6493 25.3438 45.8211 25.2734L47.8914 25.1406V25.8672C47.8914 26.9609 46.9618 27.7891 45.6961 27.7891C44.7821 27.7891 44.118 27.3281 44.118 26.5469ZM55.1475 29.1641C57.6319 29.1641 59.1553 27.5 59.1553 24.7656V24.75C59.1553 22.0156 57.6241 20.3516 55.1475 20.3516C52.6631 20.3516 51.1319 22.0234 51.1319 24.75V24.7656C51.1319 27.5 52.6553 29.1641 55.1475 29.1641ZM55.1475 27.75C53.6866 27.75 52.8662 26.6484 52.8662 24.7656V24.75C52.8662 22.8672 53.6866 21.7656 55.1475 21.7656C56.6006 21.7656 57.4287 22.8672 57.4287 24.75V24.7656C57.4287 26.6406 56.6006 27.75 55.1475 27.75ZM67.8315 29.1406C69.019 29.1406 69.9487 28.5938 70.4409 27.6641H70.5737V29H72.2612V17.1875H70.5737V21.8594H70.4409C69.9878 20.9453 68.9956 20.3672 67.8315 20.3672C65.6753 20.3672 64.3159 22.0625 64.3159 24.75V24.7656C64.3159 27.4297 65.6987 29.1406 67.8315 29.1406ZM68.3159 27.6953C66.894 27.6953 66.0424 26.5859 66.0424 24.7656V24.75C66.0424 22.9297 66.894 21.8203 68.3159 21.8203C69.7221 21.8203 70.5971 22.9375 70.5971 24.75V24.7656C70.5971 26.5781 69.7299 27.6953 68.3159 27.6953ZM77.9391 29.1641C80.111 29.1641 81.2829 27.9141 81.5641 26.7969L81.5798 26.7266L79.9469 26.7344L79.9157 26.7969C79.7126 27.2344 79.0641 27.7734 77.9782 27.7734C76.5798 27.7734 75.6891 26.8281 75.6579 25.2031H81.6735V24.6094C81.6735 22.0625 80.2204 20.3516 77.8532 20.3516C75.486 20.3516 73.9548 22.125 73.9548 24.7734V24.7812C73.9548 27.4688 75.4548 29.1641 77.9391 29.1641ZM77.861 21.7422C79.0094 21.7422 79.861 22.4766 79.9938 23.9922H75.6813C75.8298 22.5312 76.7048 21.7422 77.861 21.7422ZM92.0684 29.2734C94.5841 29.2734 96.42 27.8359 96.7481 25.6719V25.625H95.0137L94.9981 25.6562C94.6778 26.9297 93.5606 27.7266 92.0684 27.7266C90.0372 27.7266 88.7716 26.0469 88.7716 23.375V23.3594C88.7716 20.6797 90.0372 19 92.0606 19C93.545 19 94.6778 19.8984 95.0059 21.2812V21.3047H96.7403L96.7481 21.2656C96.4512 19.0234 94.545 17.4531 92.0606 17.4531C88.9278 17.4531 86.9825 19.7188 86.9825 23.3594V23.375C86.9825 27.0078 88.9356 29.2734 92.0684 29.2734ZM98.4495 29H100.145V23.9297C100.145 22.7031 101.028 21.9062 102.325 21.9062C102.645 21.9062 102.934 21.9453 103.239 22.0078V20.4453C103.067 20.4062 102.77 20.3672 102.496 20.3672C101.364 20.3672 100.575 20.8984 100.27 21.7969H100.145V20.5156H98.4495V29ZM108.307 19.3438L110.151 16.6562H108.338L106.971 19.3438H108.307ZM107.792 29.1641C109.963 29.1641 111.135 27.9141 111.417 26.7969L111.432 26.7266L109.799 26.7344L109.768 26.7969C109.565 27.2344 108.917 27.7734 107.831 27.7734C106.432 27.7734 105.542 26.8281 105.51 25.2031H111.526V24.6094C111.526 22.0625 110.073 20.3516 107.706 20.3516C105.338 20.3516 103.807 22.125 103.807 24.7734V24.7812C103.807 27.4688 105.307 29.1641 107.792 29.1641ZM107.713 21.7422C108.862 21.7422 109.713 22.4766 109.846 23.9922H105.534C105.682 22.5312 106.557 21.7422 107.713 21.7422ZM116.227 29.1406C117.415 29.1406 118.344 28.5938 118.837 27.6641H118.969V29H120.657V17.1875H118.969V21.8594H118.837C118.383 20.9453 117.391 20.3672 116.227 20.3672C114.071 20.3672 112.712 22.0625 112.712 24.75V24.7656C112.712 27.4297 114.094 29.1406 116.227 29.1406ZM116.712 27.6953C115.29 27.6953 114.438 26.5859 114.438 24.7656V24.75C114.438 22.9297 115.29 21.8203 116.712 21.8203C118.118 21.8203 118.993 22.9375 118.993 24.75V24.7656C118.993 26.5781 118.126 27.6953 116.712 27.6953ZM123.655 19C124.233 19 124.718 18.5234 124.718 17.9453C124.718 17.3594 124.233 16.8828 123.655 16.8828C123.069 16.8828 122.593 17.3594 122.593 17.9453C122.593 18.5234 123.069 19 123.655 19ZM122.804 29H124.491V20.5156H122.804V29ZM129.755 29.0547C130.083 29.0547 130.396 29.0156 130.669 28.9688V27.6172C130.435 27.6406 130.286 27.6484 130.028 27.6484C129.192 27.6484 128.849 27.2734 128.849 26.3594V21.8516H130.669V20.5156H128.849V18.375H127.122V20.5156H125.794V21.8516H127.122V26.7656C127.122 28.3984 127.888 29.0547 129.755 29.0547ZM135.738 29.1641C138.222 29.1641 139.745 27.5 139.745 24.7656V24.75C139.745 22.0156 138.214 20.3516 135.738 20.3516C133.253 20.3516 131.722 22.0234 131.722 24.75V24.7656C131.722 27.5 133.245 29.1641 135.738 29.1641ZM135.738 27.75C134.277 27.75 133.456 26.6484 133.456 24.7656V24.75C133.456 22.8672 134.277 21.7656 135.738 21.7656C137.191 21.7656 138.019 22.8672 138.019 24.75V24.7656C138.019 26.6406 137.191 27.75 135.738 27.75Z" fill="#15112B"/>
<path d="M13.5215 97H14.5645L17.6816 88.5449H16.5742L14.0898 95.6348H13.9961L11.5117 88.5449H10.4043L13.5215 97ZM20.6193 97.1113C22.1076 97.1113 23.01 96.2676 23.2268 95.4121L23.2385 95.3652H22.219L22.1955 95.418C22.0256 95.7988 21.4983 96.2031 20.6428 96.2031C19.5178 96.2031 18.7971 95.4414 18.7678 94.1348H23.3147V93.7363C23.3147 91.8496 22.2717 90.5723 20.5549 90.5723C18.8381 90.5723 17.7248 91.9082 17.7248 93.8594V93.8652C17.7248 95.8457 18.8147 97.1113 20.6193 97.1113ZM20.549 91.4805C21.4807 91.4805 22.1721 92.0723 22.2775 93.3203H18.7854C18.8967 92.1191 19.6115 91.4805 20.549 91.4805ZM24.4887 97H25.5082V93.2617C25.5082 92.1543 26.1469 91.4746 27.1547 91.4746C28.1625 91.4746 28.6313 92.0195 28.6313 93.1562V97H29.6508V92.9102C29.6508 91.4102 28.8598 90.5723 27.4418 90.5723C26.5102 90.5723 25.9184 90.9648 25.602 91.6328H25.5082V90.6836H24.4887V97ZM33.6725 97.1113C35.1901 97.1113 36.0397 96.2969 36.2975 95.1543L36.3092 95.0898L35.3014 95.0957L35.2897 95.1309C35.0553 95.834 34.5162 96.209 33.6666 96.209C32.5416 96.209 31.8151 95.2773 31.8151 93.8242V93.8125C31.8151 92.3887 32.5299 91.4746 33.6666 91.4746C34.5748 91.4746 35.1373 91.9785 35.2955 92.5996L35.3014 92.6172H36.3151L36.3092 92.582C36.1217 91.457 35.2018 90.5723 33.6666 90.5723C31.8971 90.5723 30.7721 91.8496 30.7721 93.8125V93.8242C30.7721 95.8281 31.903 97.1113 33.6725 97.1113ZM37.9344 89.4648C38.3211 89.4648 38.6375 89.1484 38.6375 88.7617C38.6375 88.375 38.3211 88.0586 37.9344 88.0586C37.5477 88.0586 37.2313 88.375 37.2313 88.7617C37.2313 89.1484 37.5477 89.4648 37.9344 89.4648ZM37.4188 97H38.4383V90.6836H37.4188V97ZM39.9522 97H40.9717V93.0859C40.9717 92.1953 41.5987 91.4746 42.4248 91.4746C43.2217 91.4746 43.7373 91.9609 43.7373 92.7109V97H44.7569V92.9395C44.7569 92.1367 45.337 91.4746 46.2159 91.4746C47.1065 91.4746 47.5342 91.9375 47.5342 92.8691V97H48.5537V92.6348C48.5537 91.3105 47.833 90.5723 46.544 90.5723C45.6709 90.5723 44.9502 91.0117 44.6104 91.6797H44.5166C44.2237 91.0234 43.626 90.5723 42.7705 90.5723C41.9444 90.5723 41.3467 90.9648 41.0655 91.6445H40.9717V90.6836H39.9522V97ZM52.5637 97.1113C54.052 97.1113 54.9543 96.2676 55.1711 95.4121L55.1829 95.3652H54.1633L54.1399 95.418C53.97 95.7988 53.4426 96.2031 52.5872 96.2031C51.4622 96.2031 50.7415 95.4414 50.7122 94.1348H55.259V93.7363C55.259 91.8496 54.2161 90.5723 52.4993 90.5723C50.7825 90.5723 49.6692 91.9082 49.6692 93.8594V93.8652C49.6692 95.8457 50.759 97.1113 52.5637 97.1113ZM52.4934 91.4805C53.425 91.4805 54.1165 92.0723 54.2219 93.3203H50.7297C50.8411 92.1191 51.5559 91.4805 52.4934 91.4805ZM56.4331 97H57.4526V93.2617C57.4526 92.1543 58.0913 91.4746 59.0991 91.4746C60.1069 91.4746 60.5756 92.0195 60.5756 93.1562V97H61.5952V92.9102C61.5952 91.4102 60.8042 90.5723 59.3862 90.5723C58.4545 90.5723 57.8628 90.9648 57.5463 91.6328H57.4526V90.6836H56.4331V97ZM65.277 97.0469C65.4762 97.0469 65.6696 97.0234 65.8688 96.9883V96.1211C65.6813 96.1387 65.5817 96.1445 65.4001 96.1445C64.7438 96.1445 64.486 95.8457 64.486 95.1016V91.5273H65.8688V90.6836H64.486V89.0488H63.4313V90.6836H62.4352V91.5273H63.4313V95.3594C63.4313 96.5664 63.9762 97.0469 65.277 97.0469ZM69.4862 97.1113C71.285 97.1113 72.3983 95.8691 72.3983 93.8477V93.8359C72.3983 91.8086 71.285 90.5723 69.4862 90.5723C67.6874 90.5723 66.5741 91.8086 66.5741 93.8359V93.8477C66.5741 95.8691 67.6874 97.1113 69.4862 97.1113ZM69.4862 96.209C68.2909 96.209 67.6171 95.3359 67.6171 93.8477V93.8359C67.6171 92.3418 68.2909 91.4746 69.4862 91.4746C70.6815 91.4746 71.3553 92.3418 71.3553 93.8359V93.8477C71.3553 95.3359 70.6815 96.209 69.4862 96.209ZM78.8714 97.1113C79.7503 97.1113 80.4534 96.6953 80.8401 95.9922H80.9339V97H81.9534V88.1758H80.9339V91.6797H80.8401C80.4944 91.0059 79.7386 90.5723 78.8714 90.5723C77.2659 90.5723 76.2229 91.8555 76.2229 93.8359V93.8477C76.2229 95.8164 77.2718 97.1113 78.8714 97.1113ZM79.1058 96.209C77.9515 96.209 77.2659 95.3184 77.2659 93.8477V93.8359C77.2659 92.3652 77.9515 91.4746 79.1058 91.4746C80.2542 91.4746 80.9573 92.377 80.9573 93.8359V93.8477C80.9573 95.3066 80.2542 96.209 79.1058 96.209ZM84.0415 89.4648C84.4282 89.4648 84.7446 89.1484 84.7446 88.7617C84.7446 88.375 84.4282 88.0586 84.0415 88.0586C83.6548 88.0586 83.3384 88.375 83.3384 88.7617C83.3384 89.1484 83.6548 89.4648 84.0415 89.4648ZM83.5259 97H84.5454V90.6836H83.5259V97ZM87.7937 97.1113C88.6433 97.1113 89.3054 96.7422 89.7038 96.0684H89.7976V97H90.8171V92.6758C90.8171 91.3633 89.9558 90.5723 88.4147 90.5723C87.0671 90.5723 86.1062 91.2402 85.9421 92.2305L85.9362 92.2656H86.9558L86.9616 92.248C87.1257 91.7559 87.6237 91.4746 88.3796 91.4746C89.323 91.4746 89.7976 91.8965 89.7976 92.6758V93.25L87.987 93.3613C86.5163 93.4492 85.6843 94.0996 85.6843 95.2246V95.2363C85.6843 96.3848 86.5925 97.1113 87.7937 97.1113ZM86.7272 95.2129V95.2012C86.7272 94.5742 87.1491 94.2344 88.1101 94.1758L89.7976 94.0703V94.6445C89.7976 95.5469 89.0417 96.2266 88.0046 96.2266C87.2722 96.2266 86.7272 95.8516 86.7272 95.2129ZM97.3019 97H98.3566V88.5449H97.3077L95.0577 90.1621V91.2754L97.2081 89.7168H97.3019V97ZM103.158 88.3457C101.452 88.3457 100.199 89.5703 100.199 91.2578V91.2695C100.199 92.8926 101.382 94.0996 102.97 94.0996C104.113 94.0996 104.91 93.4844 105.22 92.793H105.331C105.331 92.8574 105.331 92.9277 105.326 92.9922C105.261 94.7559 104.634 96.2559 103.099 96.2559C102.243 96.2559 101.652 95.8164 101.394 95.1074L101.37 95.043H100.31L100.327 95.1191C100.615 96.3672 101.669 97.1992 103.087 97.1992C105.138 97.1992 106.339 95.5117 106.339 92.6289V92.6172C106.339 89.4355 104.704 88.3457 103.158 88.3457ZM103.152 93.1797C102.056 93.1797 101.259 92.3711 101.259 91.2461V91.2344C101.259 90.1387 102.109 89.2773 103.169 89.2773C104.242 89.2773 105.079 90.1562 105.079 91.2695V91.2754C105.079 92.377 104.247 93.1797 103.152 93.1797Z" fill="#686674"/>
<path d="M184.969 23.3594C184.969 23.0938 184.867 22.8672 184.664 22.6641L178.57 16.7031C178.398 16.5312 178.188 16.4453 177.938 16.4453C177.43 16.4453 177.023 16.8359 177.023 17.3438C177.023 17.5938 177.125 17.8203 177.297 18L182.797 23.3594L177.297 28.7188C177.133 28.8906 177.023 29.1172 177.023 29.3672C177.023 29.8828 177.43 30.2734 177.938 30.2734C178.188 30.2734 178.398 30.1875 178.57 30.0156L184.664 24.0547C184.875 23.8516 184.969 23.625 184.969 23.3594Z" fill="#15112A"/>
</svg>
