<svg width="172" height="48" viewBox="0 0 172 48" fill="none" xmlns="http://www.w3.org/2000/svg">
<rect width="172" height="48" rx="10" fill="#EBEBFF"/>
<path d="M20.0859 29.1641C21.918 29.1641 23.2646 28.3916 23.9004 27.0586C24.0098 26.833 24.0645 26.6348 24.0645 26.4229C24.0645 26.0195 23.7773 25.7324 23.3604 25.7324C23.0254 25.7324 22.8271 25.8828 22.6631 26.2451C22.2051 27.3115 21.2822 27.8242 20.0791 27.8242C18.2676 27.8242 17.1191 26.3682 17.1191 24.0645C17.1191 21.7812 18.2812 20.3115 20.0723 20.3115C21.207 20.3115 22.1777 20.8994 22.6357 22C22.8066 22.3965 23.0459 22.5742 23.4082 22.5742C23.8184 22.5742 24.0918 22.3076 24.0918 21.8975C24.0918 21.7129 24.0439 21.5078 23.9482 21.3096C23.333 19.8535 21.8838 18.9717 20.0723 18.9717C17.3174 18.9717 15.5537 20.9404 15.5537 24.0645C15.5537 27.209 17.2969 29.1641 20.0859 29.1641ZM27.1496 29.123C28.0861 29.123 29.0022 28.6172 29.4191 27.8174H29.4533V28.4258C29.467 28.8633 29.7473 29.1299 30.1574 29.1299C30.5744 29.1299 30.8684 28.8496 30.8684 28.3848V24.0439C30.8684 22.6016 29.7541 21.6787 28.0109 21.6787C26.719 21.6787 25.632 22.1982 25.2561 23.0117C25.1672 23.1758 25.1262 23.3398 25.1262 23.4902C25.1262 23.8594 25.3928 24.1055 25.7619 24.1055C26.0217 24.1055 26.2131 24.0098 26.3635 23.791C26.7736 23.1348 27.2453 22.8818 27.9563 22.8818C28.8586 22.8818 29.3986 23.3604 29.3986 24.1602V24.7139L27.4231 24.8301C25.7209 24.9258 24.7502 25.6982 24.7502 26.9561C24.7502 28.248 25.7414 29.123 27.1496 29.123ZM27.5529 27.9541C26.7668 27.9541 26.2404 27.5439 26.2404 26.915C26.2404 26.2998 26.7395 25.9102 27.6213 25.8486L29.3986 25.7393V26.3066C29.3986 27.2432 28.5852 27.9541 27.5529 27.9541ZM32.6342 29.1299C33.0649 29.1299 33.3725 28.8359 33.3725 28.3506V24.8096C33.3725 23.6953 34.0424 22.957 35.0815 22.957C36.1069 22.957 36.6127 23.5518 36.6127 24.6318V28.3506C36.6127 28.8359 36.9203 29.1299 37.351 29.1299C37.7885 29.1299 38.0961 28.8359 38.0961 28.3506V24.3447C38.0961 22.6973 37.1869 21.6855 35.601 21.6855C34.4936 21.6855 33.7416 22.1777 33.352 22.998H33.3178V22.4307C33.3178 21.9727 33.0238 21.6787 32.6 21.6787C32.1694 21.6787 31.8959 21.9727 31.8959 22.4238V28.3506C31.8959 28.8359 32.1967 29.1299 32.6342 29.1299ZM42.193 29.1367C43.526 29.1367 44.6949 28.4326 45.0709 27.4414C45.1256 27.2979 45.153 27.1748 45.153 27.0586C45.153 26.6895 44.8864 26.4434 44.524 26.4434C44.2028 26.4434 44.0455 26.5664 43.8405 26.9219C43.4918 27.5439 43.0065 27.8994 42.2067 27.8994C41.0651 27.8994 40.2994 26.9697 40.2994 25.4043C40.2994 23.873 41.0514 22.9092 42.2067 22.9092C42.9655 22.9092 43.4713 23.2373 43.8405 23.9209C44.0182 24.249 44.1959 24.3721 44.5104 24.3721C44.8727 24.3721 45.1393 24.1396 45.1393 23.7637C45.1393 23.6611 45.1119 23.5381 45.0709 23.4219C44.7565 22.417 43.567 21.6787 42.1793 21.6787C40.1285 21.6787 38.7955 23.1416 38.7955 25.418C38.7955 27.708 40.1354 29.1367 42.193 29.1367ZM49.0584 29.1367C50.3983 29.1367 51.4442 28.5967 51.9159 27.6533C51.9774 27.5098 52.0184 27.373 52.0184 27.2568C52.0184 26.8877 51.7586 26.6553 51.4032 26.6553C51.1912 26.6553 51.0409 26.7305 50.8836 26.915C50.3368 27.6602 49.8309 27.9404 49.0243 27.9404C47.8485 27.9404 47.1102 27.1201 47.1102 25.8076V25.7734H51.4578C51.9159 25.7734 52.1893 25.5 52.1893 25.0215C52.1893 23.0596 50.87 21.6787 48.9559 21.6787C46.9188 21.6787 45.62 23.1553 45.62 25.4385C45.62 27.7627 46.8914 29.1367 49.0584 29.1367ZM47.117 24.7412C47.1922 23.6201 47.9305 22.8682 48.9491 22.8682C49.9744 22.8682 50.6785 23.6133 50.7127 24.7412H47.117ZM53.7227 29.1299C54.1534 29.1299 54.461 28.8359 54.461 28.3506V19.7852C54.461 19.2998 54.1534 19.0059 53.7227 19.0059C53.292 19.0059 52.9844 19.2998 52.9844 19.7852V28.3506C52.9844 28.8359 53.292 29.1299 53.7227 29.1299ZM57.676 29.123C58.6125 29.123 59.5286 28.6172 59.9456 27.8174H59.9797V28.4258C59.9934 28.8633 60.2737 29.1299 60.6838 29.1299C61.1008 29.1299 61.3948 28.8496 61.3948 28.3848V24.0439C61.3948 22.6016 60.2805 21.6787 58.5374 21.6787C57.2454 21.6787 56.1584 22.1982 55.7825 23.0117C55.6936 23.1758 55.6526 23.3398 55.6526 23.4902C55.6526 23.8594 55.9192 24.1055 56.2883 24.1055C56.5481 24.1055 56.7395 24.0098 56.8899 23.791C57.3 23.1348 57.7717 22.8818 58.4827 22.8818C59.385 22.8818 59.925 23.3604 59.925 24.1602V24.7139L57.9495 24.8301C56.2473 24.9258 55.2766 25.6982 55.2766 26.9561C55.2766 28.248 56.2678 29.123 57.676 29.123ZM58.0793 27.9541C57.2932 27.9541 56.7668 27.5439 56.7668 26.915C56.7668 26.2998 57.2659 25.9102 58.1477 25.8486L59.925 25.7393V26.3066C59.925 27.2432 59.1116 27.9541 58.0793 27.9541ZM63.1606 29.1299C63.5981 29.1299 63.8989 28.8291 63.8989 28.3506V24.6797C63.8989 23.7842 64.309 23.1074 65.3208 23.1006C65.6284 23.1006 65.8471 23.0391 65.9975 22.9092C66.1411 22.793 66.2163 22.6221 66.2163 22.3896C66.2163 22.1572 66.1547 21.9795 66.018 21.8701C65.895 21.7539 65.6967 21.6924 65.437 21.6924C64.7192 21.6924 64.0561 22.2324 63.8579 23.0391H63.8237V22.4238C63.8237 21.9727 63.5366 21.6787 63.1264 21.6787C62.7094 21.6787 62.4223 21.9727 62.4223 22.4238V28.3506C62.4223 28.8291 62.7163 29.1299 63.1606 29.1299Z" fill="#614CCB"/>
<rect x="10.5" y="12.5" width="61" height="23" rx="3.5" stroke="#614CCB"/>
<rect x="97" y="12" width="65" height="24" rx="4" fill="#614CCB"/>
<path d="M115.772 29.1641C118.076 29.1641 119.539 27.9951 119.539 26.1357C119.539 24.7002 118.691 23.873 116.62 23.4355L115.547 23.21C114.269 22.9365 113.756 22.458 113.756 21.7402C113.756 20.8379 114.61 20.2773 115.766 20.2773C116.75 20.2773 117.502 20.667 117.837 21.5762C117.994 21.9316 118.22 22.1025 118.589 22.1025C118.985 22.1025 119.266 21.8428 119.266 21.4463C119.266 21.3027 119.245 21.1865 119.211 21.0908C118.828 19.7715 117.488 18.9717 115.786 18.9717C113.688 18.9717 112.204 20.1338 112.204 21.8223C112.204 23.2441 113.1 24.1602 115.068 24.5771L116.148 24.8027C117.468 25.0898 117.987 25.5684 117.987 26.334C117.987 27.2158 117.092 27.8584 115.841 27.8584C114.699 27.8584 113.804 27.4277 113.496 26.5049C113.346 26.1357 113.12 25.9785 112.771 25.9785C112.354 25.9785 112.081 26.2656 112.081 26.71C112.081 26.874 112.115 27.0381 112.163 27.1885C112.546 28.3369 113.858 29.1641 115.772 29.1641ZM122.433 29.123C123.369 29.123 124.285 28.6172 124.702 27.8174H124.737V28.4258C124.75 28.8633 125.03 29.1299 125.441 29.1299C125.858 29.1299 126.152 28.8496 126.152 28.3848V24.0439C126.152 22.6016 125.037 21.6787 123.294 21.6787C122.002 21.6787 120.915 22.1982 120.539 23.0117C120.45 23.1758 120.409 23.3398 120.409 23.4902C120.409 23.8594 120.676 24.1055 121.045 24.1055C121.305 24.1055 121.496 24.0098 121.647 23.791C122.057 23.1348 122.529 22.8818 123.239 22.8818C124.142 22.8818 124.682 23.3604 124.682 24.1602V24.7139L122.706 24.8301C121.004 24.9258 120.033 25.6982 120.033 26.9561C120.033 28.248 121.025 29.123 122.433 29.123ZM122.836 27.9541C122.05 27.9541 121.524 27.5439 121.524 26.915C121.524 26.2998 122.023 25.9102 122.905 25.8486L124.682 25.7393V26.3066C124.682 27.2432 123.868 27.9541 122.836 27.9541ZM127.972 29.1299C128.403 29.1299 128.71 28.8359 128.71 28.3506V19.7852C128.71 19.2998 128.403 19.0059 127.972 19.0059C127.541 19.0059 127.234 19.2998 127.234 19.7852V28.3506C127.234 28.8359 127.541 29.1299 127.972 29.1299ZM132.589 29.1299C133.094 29.1299 133.409 28.8975 133.6 28.3779L135.733 22.7451C135.781 22.6221 135.808 22.4785 135.808 22.3486C135.808 21.959 135.507 21.6787 135.084 21.6787C134.749 21.6787 134.516 21.8633 134.393 22.2461L132.609 27.5576H132.582L130.797 22.2598C130.674 21.8633 130.442 21.6787 130.1 21.6787C129.67 21.6787 129.355 21.9453 129.355 22.3555C129.355 22.4922 129.389 22.6357 129.437 22.7656L131.57 28.3779C131.775 28.9111 132.062 29.1299 132.589 29.1299ZM138.353 29.123C139.29 29.123 140.206 28.6172 140.623 27.8174H140.657V28.4258C140.671 28.8633 140.951 29.1299 141.361 29.1299C141.778 29.1299 142.072 28.8496 142.072 28.3848V24.0439C142.072 22.6016 140.958 21.6787 139.215 21.6787C137.923 21.6787 136.836 22.1982 136.46 23.0117C136.371 23.1758 136.33 23.3398 136.33 23.4902C136.33 23.8594 136.597 24.1055 136.966 24.1055C137.225 24.1055 137.417 24.0098 137.567 23.791C137.977 23.1348 138.449 22.8818 139.16 22.8818C140.062 22.8818 140.602 23.3604 140.602 24.1602V24.7139L138.627 24.8301C136.925 24.9258 135.954 25.6982 135.954 26.9561C135.954 28.248 136.945 29.123 138.353 29.123ZM138.757 27.9541C137.971 27.9541 137.444 27.5439 137.444 26.915C137.444 26.2998 137.943 25.9102 138.825 25.8486L140.602 25.7393V26.3066C140.602 27.2432 139.789 27.9541 138.757 27.9541ZM143.838 29.1299C144.275 29.1299 144.576 28.8291 144.576 28.3506V24.6797C144.576 23.7842 144.986 23.1074 145.998 23.1006C146.306 23.1006 146.524 23.0391 146.675 22.9092C146.818 22.793 146.894 22.6221 146.894 22.3896C146.894 22.1572 146.832 21.9795 146.695 21.8701C146.572 21.7539 146.374 21.6924 146.114 21.6924C145.397 21.6924 144.733 22.2324 144.535 23.0391H144.501V22.4238C144.501 21.9727 144.214 21.6787 143.804 21.6787C143.387 21.6787 143.1 21.9727 143.1 22.4238V28.3506C143.1 28.8291 143.394 29.1299 143.838 29.1299Z" fill="#EEEEEF"/>
</svg>
