<svg width="285" height="113" viewBox="0 0 285 113" fill="none" xmlns="http://www.w3.org/2000/svg">
<rect width="285" height="113" rx="10" fill="#EBEBFF"/>
<path d="M77.0859 62.1641C78.918 62.1641 80.2646 61.3916 80.9004 60.0586C81.0098 59.833 81.0645 59.6348 81.0645 59.4229C81.0645 59.0195 80.7773 58.7324 80.3604 58.7324C80.0254 58.7324 79.8271 58.8828 79.6631 59.2451C79.2051 60.3115 78.2822 60.8242 77.0791 60.8242C75.2676 60.8242 74.1191 59.3682 74.1191 57.0645C74.1191 54.7812 75.2812 53.3115 77.0723 53.3115C78.207 53.3115 79.1777 53.8994 79.6357 55C79.8066 55.3965 80.0459 55.5742 80.4082 55.5742C80.8184 55.5742 81.0918 55.3076 81.0918 54.8975C81.0918 54.7129 81.0439 54.5078 80.9482 54.3096C80.333 52.8535 78.8838 51.9717 77.0723 51.9717C74.3174 51.9717 72.5537 53.9404 72.5537 57.0645C72.5537 60.209 74.2969 62.1641 77.0859 62.1641ZM84.1496 62.123C85.0861 62.123 86.0022 61.6172 86.4191 60.8174H86.4533V61.4258C86.467 61.8633 86.7473 62.1299 87.1574 62.1299C87.5744 62.1299 87.8684 61.8496 87.8684 61.3848V57.0439C87.8684 55.6016 86.7541 54.6787 85.0109 54.6787C83.719 54.6787 82.632 55.1982 82.2561 56.0117C82.1672 56.1758 82.1262 56.3398 82.1262 56.4902C82.1262 56.8594 82.3928 57.1055 82.7619 57.1055C83.0217 57.1055 83.2131 57.0098 83.3635 56.791C83.7736 56.1348 84.2453 55.8818 84.9563 55.8818C85.8586 55.8818 86.3986 56.3604 86.3986 57.1602V57.7139L84.4231 57.8301C82.7209 57.9258 81.7502 58.6982 81.7502 59.9561C81.7502 61.248 82.7414 62.123 84.1496 62.123ZM84.5529 60.9541C83.7668 60.9541 83.2404 60.5439 83.2404 59.915C83.2404 59.2998 83.7395 58.9102 84.6213 58.8486L86.3986 58.7393V59.3066C86.3986 60.2432 85.5852 60.9541 84.5529 60.9541ZM89.6342 62.1299C90.0649 62.1299 90.3725 61.8359 90.3725 61.3506V57.8096C90.3725 56.6953 91.0424 55.957 92.0815 55.957C93.1069 55.957 93.6127 56.5518 93.6127 57.6318V61.3506C93.6127 61.8359 93.9203 62.1299 94.351 62.1299C94.7885 62.1299 95.0961 61.8359 95.0961 61.3506V57.3447C95.0961 55.6973 94.1869 54.6855 92.601 54.6855C91.4936 54.6855 90.7416 55.1777 90.352 55.998H90.3178V55.4307C90.3178 54.9727 90.0238 54.6787 89.6 54.6787C89.1694 54.6787 88.8959 54.9727 88.8959 55.4238V61.3506C88.8959 61.8359 89.1967 62.1299 89.6342 62.1299ZM99.193 62.1367C100.526 62.1367 101.695 61.4326 102.071 60.4414C102.126 60.2979 102.153 60.1748 102.153 60.0586C102.153 59.6895 101.886 59.4434 101.524 59.4434C101.203 59.4434 101.046 59.5664 100.84 59.9219C100.492 60.5439 100.006 60.8994 99.2067 60.8994C98.0651 60.8994 97.2994 59.9697 97.2994 58.4043C97.2994 56.873 98.0514 55.9092 99.2067 55.9092C99.9655 55.9092 100.471 56.2373 100.84 56.9209C101.018 57.249 101.196 57.3721 101.51 57.3721C101.873 57.3721 102.139 57.1396 102.139 56.7637C102.139 56.6611 102.112 56.5381 102.071 56.4219C101.756 55.417 100.567 54.6787 99.1793 54.6787C97.1285 54.6787 95.7955 56.1416 95.7955 58.418C95.7955 60.708 97.1354 62.1367 99.193 62.1367ZM106.058 62.1367C107.398 62.1367 108.444 61.5967 108.916 60.6533C108.977 60.5098 109.018 60.373 109.018 60.2568C109.018 59.8877 108.759 59.6553 108.403 59.6553C108.191 59.6553 108.041 59.7305 107.884 59.915C107.337 60.6602 106.831 60.9404 106.024 60.9404C104.848 60.9404 104.11 60.1201 104.11 58.8076V58.7734H108.458C108.916 58.7734 109.189 58.5 109.189 58.0215C109.189 56.0596 107.87 54.6787 105.956 54.6787C103.919 54.6787 102.62 56.1553 102.62 58.4385C102.62 60.7627 103.891 62.1367 106.058 62.1367ZM104.117 57.7412C104.192 56.6201 104.931 55.8682 105.949 55.8682C106.974 55.8682 107.679 56.6133 107.713 57.7412H104.117ZM110.723 62.1299C111.153 62.1299 111.461 61.8359 111.461 61.3506V52.7852C111.461 52.2998 111.153 52.0059 110.723 52.0059C110.292 52.0059 109.984 52.2998 109.984 52.7852V61.3506C109.984 61.8359 110.292 62.1299 110.723 62.1299ZM114.676 62.123C115.613 62.123 116.529 61.6172 116.946 60.8174H116.98V61.4258C116.993 61.8633 117.274 62.1299 117.684 62.1299C118.101 62.1299 118.395 61.8496 118.395 61.3848V57.0439C118.395 55.6016 117.281 54.6787 115.537 54.6787C114.245 54.6787 113.158 55.1982 112.782 56.0117C112.694 56.1758 112.653 56.3398 112.653 56.4902C112.653 56.8594 112.919 57.1055 113.288 57.1055C113.548 57.1055 113.74 57.0098 113.89 56.791C114.3 56.1348 114.772 55.8818 115.483 55.8818C116.385 55.8818 116.925 56.3604 116.925 57.1602V57.7139L114.949 57.8301C113.247 57.9258 112.277 58.6982 112.277 59.9561C112.277 61.248 113.268 62.123 114.676 62.123ZM115.079 60.9541C114.293 60.9541 113.767 60.5439 113.767 59.915C113.767 59.2998 114.266 58.9102 115.148 58.8486L116.925 58.7393V59.3066C116.925 60.2432 116.112 60.9541 115.079 60.9541ZM120.161 62.1299C120.598 62.1299 120.899 61.8291 120.899 61.3506V57.6797C120.899 56.7842 121.309 56.1074 122.321 56.1006C122.628 56.1006 122.847 56.0391 122.998 55.9092C123.141 55.793 123.216 55.6221 123.216 55.3896C123.216 55.1572 123.155 54.9795 123.018 54.8701C122.895 54.7539 122.697 54.6924 122.437 54.6924C121.719 54.6924 121.056 55.2324 120.858 56.0391H120.824V55.4238C120.824 54.9727 120.537 54.6787 120.126 54.6787C119.709 54.6787 119.422 54.9727 119.422 55.4238V61.3506C119.422 61.8291 119.716 62.1299 120.161 62.1299Z" fill="#614CCB"/>
<rect x="67.5" y="45.5" width="61" height="23" rx="3.5" stroke="#614CCB"/>
<rect x="154" y="45" width="65" height="24" rx="4" fill="#614CCB"/>
<path d="M172.772 62.1641C175.076 62.1641 176.539 60.9951 176.539 59.1357C176.539 57.7002 175.691 56.873 173.62 56.4355L172.547 56.21C171.269 55.9365 170.756 55.458 170.756 54.7402C170.756 53.8379 171.61 53.2773 172.766 53.2773C173.75 53.2773 174.502 53.667 174.837 54.5762C174.994 54.9316 175.22 55.1025 175.589 55.1025C175.985 55.1025 176.266 54.8428 176.266 54.4463C176.266 54.3027 176.245 54.1865 176.211 54.0908C175.828 52.7715 174.488 51.9717 172.786 51.9717C170.688 51.9717 169.204 53.1338 169.204 54.8223C169.204 56.2441 170.1 57.1602 172.068 57.5771L173.148 57.8027C174.468 58.0898 174.987 58.5684 174.987 59.334C174.987 60.2158 174.092 60.8584 172.841 60.8584C171.699 60.8584 170.804 60.4277 170.496 59.5049C170.346 59.1357 170.12 58.9785 169.771 58.9785C169.354 58.9785 169.081 59.2656 169.081 59.71C169.081 59.874 169.115 60.0381 169.163 60.1885C169.546 61.3369 170.858 62.1641 172.772 62.1641ZM179.433 62.123C180.369 62.123 181.285 61.6172 181.702 60.8174H181.737V61.4258C181.75 61.8633 182.03 62.1299 182.441 62.1299C182.858 62.1299 183.152 61.8496 183.152 61.3848V57.0439C183.152 55.6016 182.037 54.6787 180.294 54.6787C179.002 54.6787 177.915 55.1982 177.539 56.0117C177.45 56.1758 177.409 56.3398 177.409 56.4902C177.409 56.8594 177.676 57.1055 178.045 57.1055C178.305 57.1055 178.496 57.0098 178.647 56.791C179.057 56.1348 179.529 55.8818 180.239 55.8818C181.142 55.8818 181.682 56.3604 181.682 57.1602V57.7139L179.706 57.8301C178.004 57.9258 177.033 58.6982 177.033 59.9561C177.033 61.248 178.025 62.123 179.433 62.123ZM179.836 60.9541C179.05 60.9541 178.524 60.5439 178.524 59.915C178.524 59.2998 179.023 58.9102 179.905 58.8486L181.682 58.7393V59.3066C181.682 60.2432 180.868 60.9541 179.836 60.9541ZM184.972 62.1299C185.403 62.1299 185.71 61.8359 185.71 61.3506V52.7852C185.71 52.2998 185.403 52.0059 184.972 52.0059C184.541 52.0059 184.234 52.2998 184.234 52.7852V61.3506C184.234 61.8359 184.541 62.1299 184.972 62.1299ZM189.589 62.1299C190.094 62.1299 190.409 61.8975 190.6 61.3779L192.733 55.7451C192.781 55.6221 192.808 55.4785 192.808 55.3486C192.808 54.959 192.507 54.6787 192.084 54.6787C191.749 54.6787 191.516 54.8633 191.393 55.2461L189.609 60.5576H189.582L187.797 55.2598C187.674 54.8633 187.442 54.6787 187.1 54.6787C186.67 54.6787 186.355 54.9453 186.355 55.3555C186.355 55.4922 186.389 55.6357 186.437 55.7656L188.57 61.3779C188.775 61.9111 189.062 62.1299 189.589 62.1299ZM195.353 62.123C196.29 62.123 197.206 61.6172 197.623 60.8174H197.657V61.4258C197.671 61.8633 197.951 62.1299 198.361 62.1299C198.778 62.1299 199.072 61.8496 199.072 61.3848V57.0439C199.072 55.6016 197.958 54.6787 196.215 54.6787C194.923 54.6787 193.836 55.1982 193.46 56.0117C193.371 56.1758 193.33 56.3398 193.33 56.4902C193.33 56.8594 193.597 57.1055 193.966 57.1055C194.225 57.1055 194.417 57.0098 194.567 56.791C194.977 56.1348 195.449 55.8818 196.16 55.8818C197.062 55.8818 197.602 56.3604 197.602 57.1602V57.7139L195.627 57.8301C193.925 57.9258 192.954 58.6982 192.954 59.9561C192.954 61.248 193.945 62.123 195.353 62.123ZM195.757 60.9541C194.971 60.9541 194.444 60.5439 194.444 59.915C194.444 59.2998 194.943 58.9102 195.825 58.8486L197.602 58.7393V59.3066C197.602 60.2432 196.789 60.9541 195.757 60.9541ZM200.838 62.1299C201.275 62.1299 201.576 61.8291 201.576 61.3506V57.6797C201.576 56.7842 201.986 56.1074 202.998 56.1006C203.306 56.1006 203.524 56.0391 203.675 55.9092C203.818 55.793 203.894 55.6221 203.894 55.3896C203.894 55.1572 203.832 54.9795 203.695 54.8701C203.572 54.7539 203.374 54.6924 203.114 54.6924C202.397 54.6924 201.733 55.2324 201.535 56.0391H201.501V55.4238C201.501 54.9727 201.214 54.6787 200.804 54.6787C200.387 54.6787 200.1 54.9727 200.1 55.4238V61.3506C200.1 61.8291 200.394 62.1299 200.838 62.1299Z" fill="#EEEEEF"/>
</svg>
