<svg width="285" height="159" viewBox="0 0 285 159" fill="none" xmlns="http://www.w3.org/2000/svg">
<rect width="285" height="159" rx="10" fill="#EBEBFF"/>
<path d="M121.086 112.164C122.918 112.164 124.265 111.392 124.9 110.059C125.01 109.833 125.064 109.635 125.064 109.423C125.064 109.02 124.777 108.732 124.36 108.732C124.025 108.732 123.827 108.883 123.663 109.245C123.205 110.312 122.282 110.824 121.079 110.824C119.268 110.824 118.119 109.368 118.119 107.064C118.119 104.781 119.281 103.312 121.072 103.312C122.207 103.312 123.178 103.899 123.636 105C123.807 105.396 124.046 105.574 124.408 105.574C124.818 105.574 125.092 105.308 125.092 104.897C125.092 104.713 125.044 104.508 124.948 104.31C124.333 102.854 122.884 101.972 121.072 101.972C118.317 101.972 116.554 103.94 116.554 107.064C116.554 110.209 118.297 112.164 121.086 112.164ZM128.15 112.123C129.086 112.123 130.002 111.617 130.419 110.817H130.453V111.426C130.467 111.863 130.747 112.13 131.157 112.13C131.574 112.13 131.868 111.85 131.868 111.385V107.044C131.868 105.602 130.754 104.679 129.011 104.679C127.719 104.679 126.632 105.198 126.256 106.012C126.167 106.176 126.126 106.34 126.126 106.49C126.126 106.859 126.393 107.105 126.762 107.105C127.022 107.105 127.213 107.01 127.363 106.791C127.774 106.135 128.245 105.882 128.956 105.882C129.859 105.882 130.399 106.36 130.399 107.16V107.714L128.423 107.83C126.721 107.926 125.75 108.698 125.75 109.956C125.75 111.248 126.741 112.123 128.15 112.123ZM128.553 110.954C127.767 110.954 127.24 110.544 127.24 109.915C127.24 109.3 127.739 108.91 128.621 108.849L130.399 108.739V109.307C130.399 110.243 129.585 110.954 128.553 110.954ZM133.634 112.13C134.065 112.13 134.372 111.836 134.372 111.351V107.81C134.372 106.695 135.042 105.957 136.081 105.957C137.107 105.957 137.613 106.552 137.613 107.632V111.351C137.613 111.836 137.92 112.13 138.351 112.13C138.788 112.13 139.096 111.836 139.096 111.351V107.345C139.096 105.697 138.187 104.686 136.601 104.686C135.494 104.686 134.742 105.178 134.352 105.998H134.318V105.431C134.318 104.973 134.024 104.679 133.6 104.679C133.169 104.679 132.896 104.973 132.896 105.424V111.351C132.896 111.836 133.197 112.13 133.634 112.13ZM143.193 112.137C144.526 112.137 145.695 111.433 146.071 110.441C146.126 110.298 146.153 110.175 146.153 110.059C146.153 109.689 145.886 109.443 145.524 109.443C145.203 109.443 145.046 109.566 144.84 109.922C144.492 110.544 144.006 110.899 143.207 110.899C142.065 110.899 141.299 109.97 141.299 108.404C141.299 106.873 142.051 105.909 143.207 105.909C143.965 105.909 144.471 106.237 144.84 106.921C145.018 107.249 145.196 107.372 145.51 107.372C145.873 107.372 146.139 107.14 146.139 106.764C146.139 106.661 146.112 106.538 146.071 106.422C145.756 105.417 144.567 104.679 143.179 104.679C141.129 104.679 139.796 106.142 139.796 108.418C139.796 110.708 141.135 112.137 143.193 112.137ZM150.058 112.137C151.398 112.137 152.444 111.597 152.916 110.653C152.977 110.51 153.018 110.373 153.018 110.257C153.018 109.888 152.759 109.655 152.403 109.655C152.191 109.655 152.041 109.73 151.884 109.915C151.337 110.66 150.831 110.94 150.024 110.94C148.848 110.94 148.11 110.12 148.11 108.808V108.773H152.458C152.916 108.773 153.189 108.5 153.189 108.021C153.189 106.06 151.87 104.679 149.956 104.679C147.919 104.679 146.62 106.155 146.62 108.438C146.62 110.763 147.891 112.137 150.058 112.137ZM148.117 107.741C148.192 106.62 148.931 105.868 149.949 105.868C150.974 105.868 151.679 106.613 151.713 107.741H148.117ZM154.723 112.13C155.153 112.13 155.461 111.836 155.461 111.351V102.785C155.461 102.3 155.153 102.006 154.723 102.006C154.292 102.006 153.984 102.3 153.984 102.785V111.351C153.984 111.836 154.292 112.13 154.723 112.13ZM158.676 112.123C159.613 112.123 160.529 111.617 160.946 110.817H160.98V111.426C160.993 111.863 161.274 112.13 161.684 112.13C162.101 112.13 162.395 111.85 162.395 111.385V107.044C162.395 105.602 161.281 104.679 159.537 104.679C158.245 104.679 157.158 105.198 156.782 106.012C156.694 106.176 156.653 106.34 156.653 106.49C156.653 106.859 156.919 107.105 157.288 107.105C157.548 107.105 157.74 107.01 157.89 106.791C158.3 106.135 158.772 105.882 159.483 105.882C160.385 105.882 160.925 106.36 160.925 107.16V107.714L158.949 107.83C157.247 107.926 156.277 108.698 156.277 109.956C156.277 111.248 157.268 112.123 158.676 112.123ZM159.079 110.954C158.293 110.954 157.767 110.544 157.767 109.915C157.767 109.3 158.266 108.91 159.148 108.849L160.925 108.739V109.307C160.925 110.243 160.112 110.954 159.079 110.954ZM164.161 112.13C164.598 112.13 164.899 111.829 164.899 111.351V107.68C164.899 106.784 165.309 106.107 166.321 106.101C166.628 106.101 166.847 106.039 166.998 105.909C167.141 105.793 167.216 105.622 167.216 105.39C167.216 105.157 167.155 104.979 167.018 104.87C166.895 104.754 166.697 104.692 166.437 104.692C165.719 104.692 165.056 105.232 164.858 106.039H164.824V105.424C164.824 104.973 164.537 104.679 164.126 104.679C163.709 104.679 163.422 104.973 163.422 105.424V111.351C163.422 111.829 163.716 112.13 164.161 112.13Z" fill="#614CCB"/>
<rect x="111.5" y="95.5" width="61" height="23" rx="3.5" stroke="#614CCB"/>
<rect x="198" y="95" width="65" height="24" rx="4" fill="#614CCB"/>
<path d="M216.772 112.164C219.076 112.164 220.539 110.995 220.539 109.136C220.539 107.7 219.691 106.873 217.62 106.436L216.547 106.21C215.269 105.937 214.756 105.458 214.756 104.74C214.756 103.838 215.61 103.277 216.766 103.277C217.75 103.277 218.502 103.667 218.837 104.576C218.994 104.932 219.22 105.103 219.589 105.103C219.985 105.103 220.266 104.843 220.266 104.446C220.266 104.303 220.245 104.187 220.211 104.091C219.828 102.771 218.488 101.972 216.786 101.972C214.688 101.972 213.204 103.134 213.204 104.822C213.204 106.244 214.1 107.16 216.068 107.577L217.148 107.803C218.468 108.09 218.987 108.568 218.987 109.334C218.987 110.216 218.092 110.858 216.841 110.858C215.699 110.858 214.804 110.428 214.496 109.505C214.346 109.136 214.12 108.979 213.771 108.979C213.354 108.979 213.081 109.266 213.081 109.71C213.081 109.874 213.115 110.038 213.163 110.188C213.546 111.337 214.858 112.164 216.772 112.164ZM223.433 112.123C224.369 112.123 225.285 111.617 225.702 110.817H225.737V111.426C225.75 111.863 226.03 112.13 226.441 112.13C226.858 112.13 227.152 111.85 227.152 111.385V107.044C227.152 105.602 226.037 104.679 224.294 104.679C223.002 104.679 221.915 105.198 221.539 106.012C221.45 106.176 221.409 106.34 221.409 106.49C221.409 106.859 221.676 107.105 222.045 107.105C222.305 107.105 222.496 107.01 222.647 106.791C223.057 106.135 223.529 105.882 224.239 105.882C225.142 105.882 225.682 106.36 225.682 107.16V107.714L223.706 107.83C222.004 107.926 221.033 108.698 221.033 109.956C221.033 111.248 222.025 112.123 223.433 112.123ZM223.836 110.954C223.05 110.954 222.524 110.544 222.524 109.915C222.524 109.3 223.023 108.91 223.905 108.849L225.682 108.739V109.307C225.682 110.243 224.868 110.954 223.836 110.954ZM228.972 112.13C229.403 112.13 229.71 111.836 229.71 111.351V102.785C229.71 102.3 229.403 102.006 228.972 102.006C228.541 102.006 228.234 102.3 228.234 102.785V111.351C228.234 111.836 228.541 112.13 228.972 112.13ZM233.589 112.13C234.094 112.13 234.409 111.897 234.6 111.378L236.733 105.745C236.781 105.622 236.808 105.479 236.808 105.349C236.808 104.959 236.507 104.679 236.084 104.679C235.749 104.679 235.516 104.863 235.393 105.246L233.609 110.558H233.582L231.797 105.26C231.674 104.863 231.442 104.679 231.1 104.679C230.67 104.679 230.355 104.945 230.355 105.355C230.355 105.492 230.389 105.636 230.437 105.766L232.57 111.378C232.775 111.911 233.062 112.13 233.589 112.13ZM239.353 112.123C240.29 112.123 241.206 111.617 241.623 110.817H241.657V111.426C241.671 111.863 241.951 112.13 242.361 112.13C242.778 112.13 243.072 111.85 243.072 111.385V107.044C243.072 105.602 241.958 104.679 240.215 104.679C238.923 104.679 237.836 105.198 237.46 106.012C237.371 106.176 237.33 106.34 237.33 106.49C237.33 106.859 237.597 107.105 237.966 107.105C238.225 107.105 238.417 107.01 238.567 106.791C238.977 106.135 239.449 105.882 240.16 105.882C241.062 105.882 241.602 106.36 241.602 107.16V107.714L239.627 107.83C237.925 107.926 236.954 108.698 236.954 109.956C236.954 111.248 237.945 112.123 239.353 112.123ZM239.757 110.954C238.971 110.954 238.444 110.544 238.444 109.915C238.444 109.3 238.943 108.91 239.825 108.849L241.602 108.739V109.307C241.602 110.243 240.789 110.954 239.757 110.954ZM244.838 112.13C245.275 112.13 245.576 111.829 245.576 111.351V107.68C245.576 106.784 245.986 106.107 246.998 106.101C247.306 106.101 247.524 106.039 247.675 105.909C247.818 105.793 247.894 105.622 247.894 105.39C247.894 105.157 247.832 104.979 247.695 104.87C247.572 104.754 247.374 104.692 247.114 104.692C246.397 104.692 245.733 105.232 245.535 106.039H245.501V105.424C245.501 104.973 245.214 104.679 244.804 104.679C244.387 104.679 244.1 104.973 244.1 105.424V111.351C244.1 111.829 244.394 112.13 244.838 112.13Z" fill="#EEEEEF"/>
<path d="M24.2461 59H28.1035C32.293 59 34.7539 56.3926 34.7539 51.9492C34.7539 47.5156 32.2832 44.9082 28.1035 44.9082H24.2461C23.709 44.9082 23.3672 45.2598 23.3672 45.8164V58.0918C23.3672 58.6484 23.709 59 24.2461 59ZM25.125 57.418V46.4902H27.9863C31.1895 46.4902 32.957 48.4434 32.957 51.9688C32.957 55.4648 31.1797 57.418 27.9863 57.418H25.125ZM40.5275 59.1758C42.383 59.1758 43.8088 58.3945 44.4631 57.0176C44.5412 56.832 44.59 56.6562 44.59 56.5195C44.59 56.0703 44.2873 55.7773 43.8381 55.7773C43.5744 55.7773 43.3791 55.875 43.2033 56.1191C42.4123 57.2715 41.6701 57.7012 40.4592 57.7012C38.6428 57.7012 37.5197 56.4316 37.5197 54.3809H43.8674C44.4533 54.3809 44.8049 54.0098 44.8049 53.3945C44.8049 50.6113 42.9787 48.668 40.3811 48.668C37.5783 48.668 35.7717 50.7578 35.7717 53.9609C35.7717 57.2422 37.5295 59.1758 40.5275 59.1758ZM37.5295 53.0527C37.6369 51.3047 38.7697 50.1426 40.3518 50.1426C41.924 50.1426 43.008 51.2949 43.0471 53.0527H37.5295ZM49.641 59.1758C52.0531 59.1758 53.684 57.9551 53.684 56.1387C53.684 54.6445 52.9028 53.9023 50.7836 53.3848L49.2699 53.0137C48.1567 52.7402 47.6098 52.252 47.6098 51.5488C47.6098 50.6797 48.4594 50.0645 49.6801 50.0645C50.7153 50.0645 51.3695 50.4355 51.809 51.2852C51.9945 51.6367 52.2289 51.7441 52.561 51.7441C52.9711 51.7441 53.225 51.4805 53.225 51.0801C53.225 51.002 53.2153 50.9238 53.1957 50.8262C52.932 49.6055 51.4477 48.668 49.7778 48.668C47.4828 48.668 45.9301 49.8691 45.9301 51.6367C45.9301 53.0625 46.8774 53.9902 48.8403 54.4785L50.393 54.8691C51.5356 55.1523 51.9555 55.543 51.9555 56.2754C51.9555 57.2227 51.0766 57.7891 49.7778 57.7891C48.4789 57.7891 47.8735 57.3887 47.3656 56.5C47.1703 56.1484 46.9262 55.9922 46.6235 55.9922C46.184 55.9922 45.852 56.2461 45.852 56.6953C45.852 56.8223 45.8715 56.9492 45.9301 57.0957C46.4184 58.3652 47.8344 59.1758 49.641 59.1758ZM59.2819 59.1758C61.1373 59.1758 62.5631 58.3945 63.2174 57.0176C63.2955 56.832 63.3444 56.6562 63.3444 56.5195C63.3444 56.0703 63.0416 55.7773 62.5924 55.7773C62.3287 55.7773 62.1334 55.875 61.9576 56.1191C61.1666 57.2715 60.4244 57.7012 59.2135 57.7012C57.3971 57.7012 56.274 56.4316 56.274 54.3809H62.6217C63.2076 54.3809 63.5592 54.0098 63.5592 53.3945C63.5592 50.6113 61.733 48.668 59.1354 48.668C56.3326 48.668 54.526 50.7578 54.526 53.9609C54.526 57.2422 56.2838 59.1758 59.2819 59.1758ZM56.2838 53.0527C56.3912 51.3047 57.524 50.1426 59.1061 50.1426C60.6783 50.1426 61.7623 51.2949 61.8014 53.0527H56.2838ZM65.8075 47.1348C66.3934 47.1348 66.8719 46.6562 66.8719 46.0801C66.8719 45.4941 66.3934 45.0254 65.8075 45.0254C65.2313 45.0254 64.7528 45.4941 64.7528 46.0801C64.7528 46.6562 65.2313 47.1348 65.8075 47.1348ZM65.8075 48.668C65.3094 48.668 64.9578 49.0391 64.9578 49.5762V59.5762C64.9578 60.4746 64.6746 60.9141 63.8836 61.0312L63.8153 61.041C63.2782 61.1191 63.0535 61.3828 63.0535 61.7539C63.0535 62.1934 63.4344 62.4863 64.0594 62.4863C65.7 62.4863 66.6571 61.5586 66.6571 59.7422V49.5762C66.6571 49.0391 66.3055 48.668 65.8075 48.668ZM71.503 59.1758C72.8702 59.1758 74.169 58.4141 74.7745 57.252H74.8135V58.3164C74.8135 58.8242 75.1455 59.1758 75.6241 59.1758C76.0928 59.1758 76.4248 58.8242 76.4248 58.3164V51.9785C76.4248 49.957 74.9209 48.668 72.5381 48.668C70.8877 48.668 69.4034 49.4004 68.8272 50.5137C68.6905 50.7578 68.6221 51.002 68.6221 51.2168C68.6221 51.6758 68.9346 51.9785 69.3741 51.9785C69.6963 51.9785 69.9209 51.8516 70.0772 51.5684C70.6436 50.5625 71.3955 50.1621 72.4991 50.1621C73.9053 50.1621 74.7256 50.9043 74.7256 52.1445V52.9941L71.8057 53.1602C69.462 53.2969 68.1241 54.3906 68.1241 56.1289C68.1241 57.9551 69.4815 59.1758 71.503 59.1758ZM71.8838 57.7305C70.6631 57.7305 69.8526 57.0957 69.8526 56.1289C69.8526 55.1719 70.6338 54.5664 72.001 54.4785L74.7256 54.3125V55.1426C74.7256 56.6074 73.4854 57.7305 71.8838 57.7305ZM85.394 59.1758C87.8061 59.1758 89.437 57.9551 89.437 56.1387C89.437 54.6445 88.6557 53.9023 86.5366 53.3848L85.0229 53.0137C83.9096 52.7402 83.3628 52.252 83.3628 51.5488C83.3628 50.6797 84.2124 50.0645 85.4331 50.0645C86.4682 50.0645 87.1225 50.4355 87.562 51.2852C87.7475 51.6367 87.9819 51.7441 88.3139 51.7441C88.7241 51.7441 88.978 51.4805 88.978 51.0801C88.978 51.002 88.9682 50.9238 88.9487 50.8262C88.685 49.6055 87.2006 48.668 85.5307 48.668C83.2358 48.668 81.6831 49.8691 81.6831 51.6367C81.6831 53.0625 82.6303 53.9902 84.5932 54.4785L86.146 54.8691C87.2885 55.1523 87.7085 55.543 87.7085 56.2754C87.7085 57.2227 86.8295 57.7891 85.5307 57.7891C84.2319 57.7891 83.6264 57.3887 83.1186 56.5C82.9233 56.1484 82.6792 55.9922 82.3764 55.9922C81.937 55.9922 81.6049 56.2461 81.6049 56.6953C81.6049 56.8223 81.6245 56.9492 81.6831 57.0957C82.1713 58.3652 83.5874 59.1758 85.394 59.1758ZM93.736 59.1758C95.1032 59.1758 96.402 58.4141 97.0075 57.252H97.0465V58.3164C97.0465 58.8242 97.3786 59.1758 97.8571 59.1758C98.3258 59.1758 98.6579 58.8242 98.6579 58.3164V51.9785C98.6579 49.957 97.154 48.668 94.7712 48.668C93.1208 48.668 91.6364 49.4004 91.0602 50.5137C90.9235 50.7578 90.8551 51.002 90.8551 51.2168C90.8551 51.6758 91.1676 51.9785 91.6071 51.9785C91.9294 51.9785 92.154 51.8516 92.3102 51.5684C92.8766 50.5625 93.6286 50.1621 94.7321 50.1621C96.1383 50.1621 96.9587 50.9043 96.9587 52.1445V52.9941L94.0387 53.1602C91.695 53.2969 90.3571 54.3906 90.3571 56.1289C90.3571 57.9551 91.7145 59.1758 93.736 59.1758ZM94.1169 57.7305C92.8962 57.7305 92.0856 57.0957 92.0856 56.1289C92.0856 55.1719 92.8669 54.5664 94.234 54.4785L96.9587 54.3125V55.1426C96.9587 56.6074 95.7184 57.7305 94.1169 57.7305ZM101.346 59.1758C101.844 59.1758 102.195 58.8047 102.195 58.2676V45.6406C102.195 45.1035 101.844 44.7324 101.346 44.7324C100.848 44.7324 100.496 45.1035 100.496 45.6406V58.2676C100.496 58.8047 100.848 59.1758 101.346 59.1758ZM107.803 59.1758C108.35 59.1758 108.711 58.9023 108.936 58.3164L112.158 49.8887C112.217 49.7422 112.246 49.5957 112.246 49.4492C112.246 48.9805 111.914 48.668 111.406 48.668C111.035 48.668 110.781 48.873 110.625 49.3125L107.832 57.1934H107.793L105.01 49.3125C104.854 48.873 104.6 48.668 104.219 48.668C103.711 48.668 103.369 48.9805 103.369 49.4492C103.369 49.5957 103.399 49.7422 103.457 49.8887L106.69 58.3164C106.934 58.9316 107.246 59.1758 107.803 59.1758ZM116.106 59.1758C117.473 59.1758 118.772 58.4141 119.377 57.252H119.416V58.3164C119.416 58.8242 119.748 59.1758 120.227 59.1758C120.696 59.1758 121.028 58.8242 121.028 58.3164V51.9785C121.028 49.957 119.524 48.668 117.141 48.668C115.491 48.668 114.006 49.4004 113.43 50.5137C113.293 50.7578 113.225 51.002 113.225 51.2168C113.225 51.6758 113.537 51.9785 113.977 51.9785C114.299 51.9785 114.524 51.8516 114.68 51.5684C115.246 50.5625 115.998 50.1621 117.102 50.1621C118.508 50.1621 119.328 50.9043 119.328 52.1445V52.9941L116.408 53.1602C114.065 53.2969 112.727 54.3906 112.727 56.1289C112.727 57.9551 114.084 59.1758 116.106 59.1758ZM116.487 57.7305C115.266 57.7305 114.455 57.0957 114.455 56.1289C114.455 55.1719 115.237 54.5664 116.604 54.4785L119.328 54.3125V55.1426C119.328 56.6074 118.088 57.7305 116.487 57.7305ZM123.627 59.1758C124.125 59.1758 124.477 58.8047 124.477 58.2676V52.6914C124.477 51.3926 125.131 50.2891 126.665 50.2891C127.036 50.2891 127.299 50.2207 127.475 50.0742C127.651 49.9375 127.739 49.7422 127.739 49.4785C127.739 49.2441 127.67 49.0488 127.524 48.9121C127.358 48.7559 127.094 48.668 126.723 48.668C125.708 48.668 124.711 49.4492 124.418 50.5039H124.379V49.5273C124.379 49.0195 124.047 48.668 123.579 48.668C123.11 48.668 122.778 49.0195 122.778 49.5273V58.2676C122.778 58.8047 123.129 59.1758 123.627 59.1758ZM135.761 59.1758C138.173 59.1758 139.804 57.9551 139.804 56.1387C139.804 54.6445 139.022 53.9023 136.903 53.3848L135.39 53.0137C134.276 52.7402 133.729 52.252 133.729 51.5488C133.729 50.6797 134.579 50.0645 135.8 50.0645C136.835 50.0645 137.489 50.4355 137.929 51.2852C138.114 51.6367 138.349 51.7441 138.681 51.7441C139.091 51.7441 139.345 51.4805 139.345 51.0801C139.345 51.002 139.335 50.9238 139.315 50.8262C139.052 49.6055 137.567 48.668 135.897 48.668C133.602 48.668 132.05 49.8691 132.05 51.6367C132.05 53.0625 132.997 53.9902 134.96 54.4785L136.513 54.8691C137.655 55.1523 138.075 55.543 138.075 56.2754C138.075 57.2227 137.196 57.7891 135.897 57.7891C134.599 57.7891 133.993 57.3887 133.485 56.5C133.29 56.1484 133.046 55.9922 132.743 55.9922C132.304 55.9922 131.972 56.2461 131.972 56.6953C131.972 56.8223 131.991 56.9492 132.05 57.0957C132.538 58.3652 133.954 59.1758 135.761 59.1758ZM145.401 59.1758C147.257 59.1758 148.683 58.3945 149.337 57.0176C149.415 56.832 149.464 56.6562 149.464 56.5195C149.464 56.0703 149.161 55.7773 148.712 55.7773C148.448 55.7773 148.253 55.875 148.077 56.1191C147.286 57.2715 146.544 57.7012 145.333 57.7012C143.517 57.7012 142.394 56.4316 142.394 54.3809H148.741C149.327 54.3809 149.679 54.0098 149.679 53.3945C149.679 50.6113 147.853 48.668 145.255 48.668C142.452 48.668 140.646 50.7578 140.646 53.9609C140.646 57.2422 142.403 59.1758 145.401 59.1758ZM142.403 53.0527C142.511 51.3047 143.644 50.1426 145.226 50.1426C146.798 50.1426 147.882 51.2949 147.921 53.0527H142.403ZM154.456 59.1758C156.019 59.1758 157.074 58.5215 157.679 57.3496H157.718V58.3164C157.718 58.8047 158.04 59.1758 158.529 59.1758C159.017 59.1758 159.329 58.8047 159.329 58.3164V49.5762C159.329 49.0391 158.978 48.668 158.48 48.668C157.982 48.668 157.63 49.0391 157.63 49.5762V54.8105C157.63 56.5391 156.634 57.6719 154.984 57.6719C153.411 57.6719 152.64 56.7832 152.64 55.1328V49.5762C152.64 49.0391 152.288 48.668 151.79 48.668C151.292 48.668 150.941 49.0391 150.941 49.5762V55.4355C150.941 57.7402 152.24 59.1758 154.456 59.1758ZM165.672 62.584C166.17 62.584 166.521 62.2129 166.521 61.6758V57.3496H166.56C167.166 58.4629 168.338 59.1758 169.793 59.1758C172.351 59.1758 174.099 57.1055 174.099 53.9219C174.099 50.7383 172.342 48.668 169.754 48.668C168.279 48.668 167.097 49.4199 166.472 50.5625H166.433V49.5273C166.433 49.0195 166.101 48.668 165.633 48.668C165.154 48.668 164.822 49.0195 164.822 49.5273V61.6758C164.822 62.2129 165.174 62.584 165.672 62.584ZM169.422 57.6816C167.683 57.6816 166.511 56.1875 166.511 53.9219C166.511 51.666 167.683 50.1621 169.422 50.1621C171.228 50.1621 172.361 51.627 172.361 53.9219C172.361 56.2266 171.228 57.6816 169.422 57.6816ZM176.26 59.1758C176.758 59.1758 177.109 58.8047 177.109 58.2676V52.6914C177.109 51.3926 177.764 50.2891 179.297 50.2891C179.668 50.2891 179.932 50.2207 180.107 50.0742C180.283 49.9375 180.371 49.7422 180.371 49.4785C180.371 49.2441 180.303 49.0488 180.156 48.9121C179.99 48.7559 179.727 48.668 179.355 48.668C178.34 48.668 177.344 49.4492 177.051 50.5039H177.012V49.5273C177.012 49.0195 176.68 48.668 176.211 48.668C175.742 48.668 175.41 49.0195 175.41 49.5273V58.2676C175.41 58.8047 175.762 59.1758 176.26 59.1758ZM184.895 59.1758C187.697 59.1758 189.592 57.1543 189.592 53.9219C189.592 50.6797 187.697 48.668 184.895 48.668C182.082 48.668 180.188 50.6797 180.188 53.9219C180.188 57.1543 182.082 59.1758 184.895 59.1758ZM184.895 57.6816C183.098 57.6816 181.916 56.3145 181.916 53.9219C181.916 51.5293 183.098 50.1621 184.895 50.1621C186.692 50.1621 187.863 51.5293 187.863 53.9219C187.863 56.3145 186.692 57.6816 184.895 57.6816ZM191.84 47.1348C192.426 47.1348 192.905 46.6562 192.905 46.0801C192.905 45.4941 192.426 45.0254 191.84 45.0254C191.264 45.0254 190.786 45.4941 190.786 46.0801C190.786 46.6562 191.264 47.1348 191.84 47.1348ZM191.84 48.668C191.342 48.668 190.991 49.0391 190.991 49.5762V59.5762C190.991 60.4746 190.707 60.9141 189.916 61.0312L189.848 61.041C189.311 61.1191 189.086 61.3828 189.086 61.7539C189.086 62.1934 189.467 62.4863 190.092 62.4863C191.733 62.4863 192.69 61.5586 192.69 59.7422V49.5762C192.69 49.0391 192.338 48.668 191.84 48.668ZM198.835 59.1758C200.69 59.1758 202.116 58.3945 202.77 57.0176C202.848 56.832 202.897 56.6562 202.897 56.5195C202.897 56.0703 202.594 55.7773 202.145 55.7773C201.881 55.7773 201.686 55.875 201.51 56.1191C200.719 57.2715 199.977 57.7012 198.766 57.7012C196.95 57.7012 195.827 56.4316 195.827 54.3809H202.174C202.76 54.3809 203.112 54.0098 203.112 53.3945C203.112 50.6113 201.286 48.668 198.688 48.668C195.885 48.668 194.079 50.7578 194.079 53.9609C194.079 57.2422 195.837 59.1758 198.835 59.1758ZM195.837 53.0527C195.944 51.3047 197.077 50.1426 198.659 50.1426C200.231 50.1426 201.315 51.2949 201.354 53.0527H195.837ZM204.97 56.6562C204.97 58.2773 205.79 59.0781 207.43 59.0781H207.538C208.485 59.0781 208.778 58.8047 208.778 58.2871C208.778 57.8867 208.524 57.6621 207.968 57.623L207.821 57.6133C206.971 57.5547 206.669 57.1445 206.669 56.2852V50.2402H207.977C208.466 50.2402 208.739 49.9863 208.739 49.5371C208.739 49.0977 208.466 48.8438 207.977 48.8438H206.669V47.1055C206.669 46.5684 206.317 46.1973 205.819 46.1973C205.321 46.1973 204.97 46.5684 204.97 47.1055V48.8438H204.12C203.632 48.8438 203.358 49.0977 203.358 49.5371C203.358 49.9863 203.632 50.2402 204.12 50.2402H204.97V56.6562ZM213.966 59.1758C216.769 59.1758 218.663 57.1543 218.663 53.9219C218.663 50.6797 216.769 48.668 213.966 48.668C211.153 48.668 209.259 50.6797 209.259 53.9219C209.259 57.1543 211.153 59.1758 213.966 59.1758ZM213.966 57.6816C212.169 57.6816 210.987 56.3145 210.987 53.9219C210.987 51.5293 212.169 50.1621 213.966 50.1621C215.763 50.1621 216.935 51.5293 216.935 53.9219C216.935 56.3145 215.763 57.6816 213.966 57.6816ZM223.343 55.0449C223.948 55.0449 224.183 54.625 224.183 54.0098C224.183 52.9844 224.534 52.4375 225.775 51.7051C227.025 50.9531 227.816 49.8984 227.816 48.3652C227.816 46.2754 226.097 44.8008 223.675 44.8008C221.8 44.8008 220.364 45.6113 219.788 46.998C219.613 47.3789 219.534 47.7109 219.534 48.1309C219.534 48.6387 219.808 48.9316 220.306 48.9316C220.745 48.9316 220.96 48.7461 221.126 48.1504C221.448 46.9785 222.308 46.3242 223.607 46.3242C225.042 46.3242 225.999 47.1836 225.999 48.4531C225.999 49.4492 225.56 50.084 224.427 50.7773C223.089 51.5781 222.474 52.4473 222.474 53.7656V54.0391C222.474 54.5957 222.738 55.0449 223.343 55.0449ZM223.333 59.0977C223.968 59.0977 224.446 58.6094 224.446 57.9844C224.446 57.3496 223.968 56.8711 223.333 56.8711C222.708 56.8711 222.22 57.3496 222.22 57.9844C222.22 58.6094 222.708 59.0977 223.333 59.0977Z" fill="black"/>
</svg>
