<svg width="261" height="98" viewBox="0 0 261 98" fill="none" xmlns="http://www.w3.org/2000/svg">
<rect width="261" height="98" rx="10" fill="#EBEBFF"/>
<path d="M109.086 79.1641C110.918 79.1641 112.265 78.3916 112.9 77.0586C113.01 76.833 113.064 76.6348 113.064 76.4229C113.064 76.0195 112.777 75.7324 112.36 75.7324C112.025 75.7324 111.827 75.8828 111.663 76.2451C111.205 77.3115 110.282 77.8242 109.079 77.8242C107.268 77.8242 106.119 76.3682 106.119 74.0645C106.119 71.7812 107.281 70.3115 109.072 70.3115C110.207 70.3115 111.178 70.8994 111.636 72C111.807 72.3965 112.046 72.5742 112.408 72.5742C112.818 72.5742 113.092 72.3076 113.092 71.8975C113.092 71.7129 113.044 71.5078 112.948 71.3096C112.333 69.8535 110.884 68.9717 109.072 68.9717C106.317 68.9717 104.554 70.9404 104.554 74.0645C104.554 77.209 106.297 79.1641 109.086 79.1641ZM116.15 79.123C117.086 79.123 118.002 78.6172 118.419 77.8174H118.453V78.4258C118.467 78.8633 118.747 79.1299 119.157 79.1299C119.574 79.1299 119.868 78.8496 119.868 78.3848V74.0439C119.868 72.6016 118.754 71.6787 117.011 71.6787C115.719 71.6787 114.632 72.1982 114.256 73.0117C114.167 73.1758 114.126 73.3398 114.126 73.4902C114.126 73.8594 114.393 74.1055 114.762 74.1055C115.022 74.1055 115.213 74.0098 115.363 73.791C115.774 73.1348 116.245 72.8818 116.956 72.8818C117.859 72.8818 118.399 73.3604 118.399 74.1602V74.7139L116.423 74.8301C114.721 74.9258 113.75 75.6982 113.75 76.9561C113.75 78.248 114.741 79.123 116.15 79.123ZM116.553 77.9541C115.767 77.9541 115.24 77.5439 115.24 76.915C115.24 76.2998 115.739 75.9102 116.621 75.8486L118.399 75.7393V76.3066C118.399 77.2432 117.585 77.9541 116.553 77.9541ZM121.634 79.1299C122.065 79.1299 122.372 78.8359 122.372 78.3506V74.8096C122.372 73.6953 123.042 72.957 124.081 72.957C125.107 72.957 125.613 73.5518 125.613 74.6318V78.3506C125.613 78.8359 125.92 79.1299 126.351 79.1299C126.788 79.1299 127.096 78.8359 127.096 78.3506V74.3447C127.096 72.6973 126.187 71.6855 124.601 71.6855C123.494 71.6855 122.742 72.1777 122.352 72.998H122.318V72.4307C122.318 71.9727 122.024 71.6787 121.6 71.6787C121.169 71.6787 120.896 71.9727 120.896 72.4238V78.3506C120.896 78.8359 121.197 79.1299 121.634 79.1299ZM131.193 79.1367C132.526 79.1367 133.695 78.4326 134.071 77.4414C134.126 77.2979 134.153 77.1748 134.153 77.0586C134.153 76.6895 133.886 76.4434 133.524 76.4434C133.203 76.4434 133.046 76.5664 132.84 76.9219C132.492 77.5439 132.006 77.8994 131.207 77.8994C130.065 77.8994 129.299 76.9697 129.299 75.4043C129.299 73.873 130.051 72.9092 131.207 72.9092C131.965 72.9092 132.471 73.2373 132.84 73.9209C133.018 74.249 133.196 74.3721 133.51 74.3721C133.873 74.3721 134.139 74.1396 134.139 73.7637C134.139 73.6611 134.112 73.5381 134.071 73.4219C133.756 72.417 132.567 71.6787 131.179 71.6787C129.129 71.6787 127.796 73.1416 127.796 75.418C127.796 77.708 129.135 79.1367 131.193 79.1367ZM138.058 79.1367C139.398 79.1367 140.444 78.5967 140.916 77.6533C140.977 77.5098 141.018 77.373 141.018 77.2568C141.018 76.8877 140.759 76.6553 140.403 76.6553C140.191 76.6553 140.041 76.7305 139.884 76.915C139.337 77.6602 138.831 77.9404 138.024 77.9404C136.848 77.9404 136.11 77.1201 136.11 75.8076V75.7734H140.458C140.916 75.7734 141.189 75.5 141.189 75.0215C141.189 73.0596 139.87 71.6787 137.956 71.6787C135.919 71.6787 134.62 73.1553 134.62 75.4385C134.62 77.7627 135.891 79.1367 138.058 79.1367ZM136.117 74.7412C136.192 73.6201 136.931 72.8682 137.949 72.8682C138.974 72.8682 139.679 73.6133 139.713 74.7412H136.117ZM142.723 79.1299C143.153 79.1299 143.461 78.8359 143.461 78.3506V69.7852C143.461 69.2998 143.153 69.0059 142.723 69.0059C142.292 69.0059 141.984 69.2998 141.984 69.7852V78.3506C141.984 78.8359 142.292 79.1299 142.723 79.1299ZM146.676 79.123C147.613 79.123 148.529 78.6172 148.946 77.8174H148.98V78.4258C148.993 78.8633 149.274 79.1299 149.684 79.1299C150.101 79.1299 150.395 78.8496 150.395 78.3848V74.0439C150.395 72.6016 149.281 71.6787 147.537 71.6787C146.245 71.6787 145.158 72.1982 144.782 73.0117C144.694 73.1758 144.653 73.3398 144.653 73.4902C144.653 73.8594 144.919 74.1055 145.288 74.1055C145.548 74.1055 145.74 74.0098 145.89 73.791C146.3 73.1348 146.772 72.8818 147.483 72.8818C148.385 72.8818 148.925 73.3604 148.925 74.1602V74.7139L146.949 74.8301C145.247 74.9258 144.277 75.6982 144.277 76.9561C144.277 78.248 145.268 79.123 146.676 79.123ZM147.079 77.9541C146.293 77.9541 145.767 77.5439 145.767 76.915C145.767 76.2998 146.266 75.9102 147.148 75.8486L148.925 75.7393V76.3066C148.925 77.2432 148.112 77.9541 147.079 77.9541ZM152.161 79.1299C152.598 79.1299 152.899 78.8291 152.899 78.3506V74.6797C152.899 73.7842 153.309 73.1074 154.321 73.1006C154.628 73.1006 154.847 73.0391 154.998 72.9092C155.141 72.793 155.216 72.6221 155.216 72.3896C155.216 72.1572 155.155 71.9795 155.018 71.8701C154.895 71.7539 154.697 71.6924 154.437 71.6924C153.719 71.6924 153.056 72.2324 152.858 73.0391H152.824V72.4238C152.824 71.9727 152.537 71.6787 152.126 71.6787C151.709 71.6787 151.422 71.9727 151.422 72.4238V78.3506C151.422 78.8291 151.716 79.1299 152.161 79.1299Z" fill="#614CCB"/>
<rect x="99.5" y="62.5" width="61" height="23" rx="3.5" stroke="#614CCB"/>
<rect x="186" y="62" width="65" height="24" rx="4" fill="#614CCB"/>
<path d="M204.772 79.1641C207.076 79.1641 208.539 77.9951 208.539 76.1357C208.539 74.7002 207.691 73.873 205.62 73.4355L204.547 73.21C203.269 72.9365 202.756 72.458 202.756 71.7402C202.756 70.8379 203.61 70.2773 204.766 70.2773C205.75 70.2773 206.502 70.667 206.837 71.5762C206.994 71.9316 207.22 72.1025 207.589 72.1025C207.985 72.1025 208.266 71.8428 208.266 71.4463C208.266 71.3027 208.245 71.1865 208.211 71.0908C207.828 69.7715 206.488 68.9717 204.786 68.9717C202.688 68.9717 201.204 70.1338 201.204 71.8223C201.204 73.2441 202.1 74.1602 204.068 74.5771L205.148 74.8027C206.468 75.0898 206.987 75.5684 206.987 76.334C206.987 77.2158 206.092 77.8584 204.841 77.8584C203.699 77.8584 202.804 77.4277 202.496 76.5049C202.346 76.1357 202.12 75.9785 201.771 75.9785C201.354 75.9785 201.081 76.2656 201.081 76.71C201.081 76.874 201.115 77.0381 201.163 77.1885C201.546 78.3369 202.858 79.1641 204.772 79.1641ZM211.433 79.123C212.369 79.123 213.285 78.6172 213.702 77.8174H213.737V78.4258C213.75 78.8633 214.03 79.1299 214.441 79.1299C214.858 79.1299 215.152 78.8496 215.152 78.3848V74.0439C215.152 72.6016 214.037 71.6787 212.294 71.6787C211.002 71.6787 209.915 72.1982 209.539 73.0117C209.45 73.1758 209.409 73.3398 209.409 73.4902C209.409 73.8594 209.676 74.1055 210.045 74.1055C210.305 74.1055 210.496 74.0098 210.647 73.791C211.057 73.1348 211.529 72.8818 212.239 72.8818C213.142 72.8818 213.682 73.3604 213.682 74.1602V74.7139L211.706 74.8301C210.004 74.9258 209.033 75.6982 209.033 76.9561C209.033 78.248 210.025 79.123 211.433 79.123ZM211.836 77.9541C211.05 77.9541 210.524 77.5439 210.524 76.915C210.524 76.2998 211.023 75.9102 211.905 75.8486L213.682 75.7393V76.3066C213.682 77.2432 212.868 77.9541 211.836 77.9541ZM216.972 79.1299C217.403 79.1299 217.71 78.8359 217.71 78.3506V69.7852C217.71 69.2998 217.403 69.0059 216.972 69.0059C216.541 69.0059 216.234 69.2998 216.234 69.7852V78.3506C216.234 78.8359 216.541 79.1299 216.972 79.1299ZM221.589 79.1299C222.094 79.1299 222.409 78.8975 222.6 78.3779L224.733 72.7451C224.781 72.6221 224.808 72.4785 224.808 72.3486C224.808 71.959 224.507 71.6787 224.084 71.6787C223.749 71.6787 223.516 71.8633 223.393 72.2461L221.609 77.5576H221.582L219.797 72.2598C219.674 71.8633 219.442 71.6787 219.1 71.6787C218.67 71.6787 218.355 71.9453 218.355 72.3555C218.355 72.4922 218.389 72.6357 218.437 72.7656L220.57 78.3779C220.775 78.9111 221.062 79.1299 221.589 79.1299ZM227.353 79.123C228.29 79.123 229.206 78.6172 229.623 77.8174H229.657V78.4258C229.671 78.8633 229.951 79.1299 230.361 79.1299C230.778 79.1299 231.072 78.8496 231.072 78.3848V74.0439C231.072 72.6016 229.958 71.6787 228.215 71.6787C226.923 71.6787 225.836 72.1982 225.46 73.0117C225.371 73.1758 225.33 73.3398 225.33 73.4902C225.33 73.8594 225.597 74.1055 225.966 74.1055C226.225 74.1055 226.417 74.0098 226.567 73.791C226.977 73.1348 227.449 72.8818 228.16 72.8818C229.062 72.8818 229.602 73.3604 229.602 74.1602V74.7139L227.627 74.8301C225.925 74.9258 224.954 75.6982 224.954 76.9561C224.954 78.248 225.945 79.123 227.353 79.123ZM227.757 77.9541C226.971 77.9541 226.444 77.5439 226.444 76.915C226.444 76.2998 226.943 75.9102 227.825 75.8486L229.602 75.7393V76.3066C229.602 77.2432 228.789 77.9541 227.757 77.9541ZM232.838 79.1299C233.275 79.1299 233.576 78.8291 233.576 78.3506V74.6797C233.576 73.7842 233.986 73.1074 234.998 73.1006C235.306 73.1006 235.524 73.0391 235.675 72.9092C235.818 72.793 235.894 72.6221 235.894 72.3896C235.894 72.1572 235.832 71.9795 235.695 71.8701C235.572 71.7539 235.374 71.6924 235.114 71.6924C234.397 71.6924 233.733 72.2324 233.535 73.0391H233.501V72.4238C233.501 71.9727 233.214 71.6787 232.804 71.6787C232.387 71.6787 232.1 71.9727 232.1 72.4238V78.3506C232.1 78.8291 232.394 79.1299 232.838 79.1299Z" fill="#EEEEEF"/>
<path d="M12.2461 32H16.1035C20.293 32 22.7539 29.3926 22.7539 24.9492C22.7539 20.5156 20.2832 17.9082 16.1035 17.9082H12.2461C11.709 17.9082 11.3672 18.2598 11.3672 18.8164V31.0918C11.3672 31.6484 11.709 32 12.2461 32ZM13.125 30.418V19.4902H15.9863C19.1895 19.4902 20.957 21.4434 20.957 24.9688C20.957 28.4648 19.1797 30.418 15.9863 30.418H13.125ZM28.5275 32.1758C30.383 32.1758 31.8088 31.3945 32.4631 30.0176C32.5412 29.832 32.59 29.6562 32.59 29.5195C32.59 29.0703 32.2873 28.7773 31.8381 28.7773C31.5744 28.7773 31.3791 28.875 31.2033 29.1191C30.4123 30.2715 29.6701 30.7012 28.4592 30.7012C26.6428 30.7012 25.5197 29.4316 25.5197 27.3809H31.8674C32.4533 27.3809 32.8049 27.0098 32.8049 26.3945C32.8049 23.6113 30.9787 21.668 28.3811 21.668C25.5783 21.668 23.7717 23.7578 23.7717 26.9609C23.7717 30.2422 25.5295 32.1758 28.5275 32.1758ZM25.5295 26.0527C25.6369 24.3047 26.7697 23.1426 28.3518 23.1426C29.924 23.1426 31.008 24.2949 31.0471 26.0527H25.5295ZM37.641 32.1758C40.0531 32.1758 41.684 30.9551 41.684 29.1387C41.684 27.6445 40.9028 26.9023 38.7836 26.3848L37.2699 26.0137C36.1567 25.7402 35.6098 25.252 35.6098 24.5488C35.6098 23.6797 36.4594 23.0645 37.6801 23.0645C38.7153 23.0645 39.3695 23.4355 39.809 24.2852C39.9945 24.6367 40.2289 24.7441 40.561 24.7441C40.9711 24.7441 41.225 24.4805 41.225 24.0801C41.225 24.002 41.2153 23.9238 41.1957 23.8262C40.932 22.6055 39.4477 21.668 37.7778 21.668C35.4828 21.668 33.9301 22.8691 33.9301 24.6367C33.9301 26.0625 34.8774 26.9902 36.8403 27.4785L38.393 27.8691C39.5356 28.1523 39.9555 28.543 39.9555 29.2754C39.9555 30.2227 39.0766 30.7891 37.7778 30.7891C36.4789 30.7891 35.8735 30.3887 35.3656 29.5C35.1703 29.1484 34.9262 28.9922 34.6235 28.9922C34.184 28.9922 33.852 29.2461 33.852 29.6953C33.852 29.8223 33.8715 29.9492 33.9301 30.0957C34.4184 31.3652 35.8344 32.1758 37.641 32.1758ZM47.2819 32.1758C49.1373 32.1758 50.5631 31.3945 51.2174 30.0176C51.2955 29.832 51.3444 29.6562 51.3444 29.5195C51.3444 29.0703 51.0416 28.7773 50.5924 28.7773C50.3287 28.7773 50.1334 28.875 49.9576 29.1191C49.1666 30.2715 48.4244 30.7012 47.2135 30.7012C45.3971 30.7012 44.274 29.4316 44.274 27.3809H50.6217C51.2076 27.3809 51.5592 27.0098 51.5592 26.3945C51.5592 23.6113 49.733 21.668 47.1354 21.668C44.3326 21.668 42.526 23.7578 42.526 26.9609C42.526 30.2422 44.2838 32.1758 47.2819 32.1758ZM44.2838 26.0527C44.3912 24.3047 45.524 23.1426 47.1061 23.1426C48.6783 23.1426 49.7623 24.2949 49.8014 26.0527H44.2838ZM53.8075 20.1348C54.3934 20.1348 54.8719 19.6562 54.8719 19.0801C54.8719 18.4941 54.3934 18.0254 53.8075 18.0254C53.2313 18.0254 52.7528 18.4941 52.7528 19.0801C52.7528 19.6562 53.2313 20.1348 53.8075 20.1348ZM53.8075 21.668C53.3094 21.668 52.9578 22.0391 52.9578 22.5762V32.5762C52.9578 33.4746 52.6746 33.9141 51.8836 34.0312L51.8153 34.041C51.2782 34.1191 51.0535 34.3828 51.0535 34.7539C51.0535 35.1934 51.4344 35.4863 52.0594 35.4863C53.7 35.4863 54.6571 34.5586 54.6571 32.7422V22.5762C54.6571 22.0391 54.3055 21.668 53.8075 21.668ZM59.503 32.1758C60.8702 32.1758 62.169 31.4141 62.7745 30.252H62.8135V31.3164C62.8135 31.8242 63.1455 32.1758 63.6241 32.1758C64.0928 32.1758 64.4248 31.8242 64.4248 31.3164V24.9785C64.4248 22.957 62.9209 21.668 60.5381 21.668C58.8877 21.668 57.4034 22.4004 56.8272 23.5137C56.6905 23.7578 56.6221 24.002 56.6221 24.2168C56.6221 24.6758 56.9346 24.9785 57.3741 24.9785C57.6963 24.9785 57.9209 24.8516 58.0772 24.5684C58.6436 23.5625 59.3955 23.1621 60.4991 23.1621C61.9053 23.1621 62.7256 23.9043 62.7256 25.1445V25.9941L59.8057 26.1602C57.462 26.2969 56.1241 27.3906 56.1241 29.1289C56.1241 30.9551 57.4815 32.1758 59.503 32.1758ZM59.8838 30.7305C58.6631 30.7305 57.8526 30.0957 57.8526 29.1289C57.8526 28.1719 58.6338 27.5664 60.001 27.4785L62.7256 27.3125V28.1426C62.7256 29.6074 61.4854 30.7305 59.8838 30.7305ZM73.394 32.1758C75.8061 32.1758 77.437 30.9551 77.437 29.1387C77.437 27.6445 76.6557 26.9023 74.5366 26.3848L73.0229 26.0137C71.9096 25.7402 71.3628 25.252 71.3628 24.5488C71.3628 23.6797 72.2124 23.0645 73.4331 23.0645C74.4682 23.0645 75.1225 23.4355 75.562 24.2852C75.7475 24.6367 75.9819 24.7441 76.3139 24.7441C76.7241 24.7441 76.978 24.4805 76.978 24.0801C76.978 24.002 76.9682 23.9238 76.9487 23.8262C76.685 22.6055 75.2006 21.668 73.5307 21.668C71.2358 21.668 69.6831 22.8691 69.6831 24.6367C69.6831 26.0625 70.6303 26.9902 72.5932 27.4785L74.146 27.8691C75.2885 28.1523 75.7085 28.543 75.7085 29.2754C75.7085 30.2227 74.8295 30.7891 73.5307 30.7891C72.2319 30.7891 71.6264 30.3887 71.1186 29.5C70.9233 29.1484 70.6792 28.9922 70.3764 28.9922C69.937 28.9922 69.6049 29.2461 69.6049 29.6953C69.6049 29.8223 69.6245 29.9492 69.6831 30.0957C70.1713 31.3652 71.5874 32.1758 73.394 32.1758ZM81.736 32.1758C83.1032 32.1758 84.402 31.4141 85.0075 30.252H85.0465V31.3164C85.0465 31.8242 85.3786 32.1758 85.8571 32.1758C86.3258 32.1758 86.6579 31.8242 86.6579 31.3164V24.9785C86.6579 22.957 85.154 21.668 82.7712 21.668C81.1208 21.668 79.6364 22.4004 79.0602 23.5137C78.9235 23.7578 78.8551 24.002 78.8551 24.2168C78.8551 24.6758 79.1676 24.9785 79.6071 24.9785C79.9294 24.9785 80.154 24.8516 80.3102 24.5684C80.8766 23.5625 81.6286 23.1621 82.7321 23.1621C84.1383 23.1621 84.9587 23.9043 84.9587 25.1445V25.9941L82.0387 26.1602C79.695 26.2969 78.3571 27.3906 78.3571 29.1289C78.3571 30.9551 79.7145 32.1758 81.736 32.1758ZM82.1169 30.7305C80.8962 30.7305 80.0856 30.0957 80.0856 29.1289C80.0856 28.1719 80.8669 27.5664 82.234 27.4785L84.9587 27.3125V28.1426C84.9587 29.6074 83.7184 30.7305 82.1169 30.7305ZM89.3456 32.1758C89.8436 32.1758 90.1952 31.8047 90.1952 31.2676V18.6406C90.1952 18.1035 89.8436 17.7324 89.3456 17.7324C88.8475 17.7324 88.496 18.1035 88.496 18.6406V31.2676C88.496 31.8047 88.8475 32.1758 89.3456 32.1758ZM95.8028 32.1758C96.3497 32.1758 96.711 31.9023 96.9356 31.3164L100.158 22.8887C100.217 22.7422 100.246 22.5957 100.246 22.4492C100.246 21.9805 99.9141 21.668 99.4063 21.668C99.0352 21.668 98.7813 21.873 98.6251 22.3125L95.8321 30.1934H95.793L93.0098 22.3125C92.8536 21.873 92.5997 21.668 92.2188 21.668C91.711 21.668 91.3692 21.9805 91.3692 22.4492C91.3692 22.5957 91.3985 22.7422 91.4571 22.8887L94.6895 31.3164C94.9337 31.9316 95.2462 32.1758 95.8028 32.1758ZM104.106 32.1758C105.473 32.1758 106.772 31.4141 107.377 30.252H107.416V31.3164C107.416 31.8242 107.748 32.1758 108.227 32.1758C108.696 32.1758 109.028 31.8242 109.028 31.3164V24.9785C109.028 22.957 107.524 21.668 105.141 21.668C103.491 21.668 102.006 22.4004 101.43 23.5137C101.293 23.7578 101.225 24.002 101.225 24.2168C101.225 24.6758 101.537 24.9785 101.977 24.9785C102.299 24.9785 102.524 24.8516 102.68 24.5684C103.246 23.5625 103.998 23.1621 105.102 23.1621C106.508 23.1621 107.328 23.9043 107.328 25.1445V25.9941L104.408 26.1602C102.065 26.2969 100.727 27.3906 100.727 29.1289C100.727 30.9551 102.084 32.1758 104.106 32.1758ZM104.487 30.7305C103.266 30.7305 102.455 30.0957 102.455 29.1289C102.455 28.1719 103.237 27.5664 104.604 27.4785L107.328 27.3125V28.1426C107.328 29.6074 106.088 30.7305 104.487 30.7305ZM111.627 32.1758C112.125 32.1758 112.477 31.8047 112.477 31.2676V25.6914C112.477 24.3926 113.131 23.2891 114.665 23.2891C115.036 23.2891 115.299 23.2207 115.475 23.0742C115.651 22.9375 115.739 22.7422 115.739 22.4785C115.739 22.2441 115.67 22.0488 115.524 21.9121C115.358 21.7559 115.094 21.668 114.723 21.668C113.708 21.668 112.711 22.4492 112.418 23.5039H112.379V22.5273C112.379 22.0195 112.047 21.668 111.579 21.668C111.11 21.668 110.778 22.0195 110.778 22.5273V31.2676C110.778 31.8047 111.129 32.1758 111.627 32.1758ZM123.761 32.1758C126.173 32.1758 127.804 30.9551 127.804 29.1387C127.804 27.6445 127.022 26.9023 124.903 26.3848L123.39 26.0137C122.276 25.7402 121.729 25.252 121.729 24.5488C121.729 23.6797 122.579 23.0645 123.8 23.0645C124.835 23.0645 125.489 23.4355 125.929 24.2852C126.114 24.6367 126.349 24.7441 126.681 24.7441C127.091 24.7441 127.345 24.4805 127.345 24.0801C127.345 24.002 127.335 23.9238 127.315 23.8262C127.052 22.6055 125.567 21.668 123.897 21.668C121.602 21.668 120.05 22.8691 120.05 24.6367C120.05 26.0625 120.997 26.9902 122.96 27.4785L124.513 27.8691C125.655 28.1523 126.075 28.543 126.075 29.2754C126.075 30.2227 125.196 30.7891 123.897 30.7891C122.599 30.7891 121.993 30.3887 121.485 29.5C121.29 29.1484 121.046 28.9922 120.743 28.9922C120.304 28.9922 119.972 29.2461 119.972 29.6953C119.972 29.8223 119.991 29.9492 120.05 30.0957C120.538 31.3652 121.954 32.1758 123.761 32.1758ZM133.401 32.1758C135.257 32.1758 136.683 31.3945 137.337 30.0176C137.415 29.832 137.464 29.6562 137.464 29.5195C137.464 29.0703 137.161 28.7773 136.712 28.7773C136.448 28.7773 136.253 28.875 136.077 29.1191C135.286 30.2715 134.544 30.7012 133.333 30.7012C131.517 30.7012 130.394 29.4316 130.394 27.3809H136.741C137.327 27.3809 137.679 27.0098 137.679 26.3945C137.679 23.6113 135.853 21.668 133.255 21.668C130.452 21.668 128.646 23.7578 128.646 26.9609C128.646 30.2422 130.403 32.1758 133.401 32.1758ZM130.403 26.0527C130.511 24.3047 131.644 23.1426 133.226 23.1426C134.798 23.1426 135.882 24.2949 135.921 26.0527H130.403ZM142.456 32.1758C144.019 32.1758 145.074 31.5215 145.679 30.3496H145.718V31.3164C145.718 31.8047 146.04 32.1758 146.529 32.1758C147.017 32.1758 147.329 31.8047 147.329 31.3164V22.5762C147.329 22.0391 146.978 21.668 146.48 21.668C145.982 21.668 145.63 22.0391 145.63 22.5762V27.8105C145.63 29.5391 144.634 30.6719 142.984 30.6719C141.411 30.6719 140.64 29.7832 140.64 28.1328V22.5762C140.64 22.0391 140.288 21.668 139.79 21.668C139.292 21.668 138.941 22.0391 138.941 22.5762V28.4355C138.941 30.7402 140.24 32.1758 142.456 32.1758ZM153.672 35.584C154.17 35.584 154.521 35.2129 154.521 34.6758V30.3496H154.56C155.166 31.4629 156.338 32.1758 157.793 32.1758C160.351 32.1758 162.099 30.1055 162.099 26.9219C162.099 23.7383 160.342 21.668 157.754 21.668C156.279 21.668 155.097 22.4199 154.472 23.5625H154.433V22.5273C154.433 22.0195 154.101 21.668 153.633 21.668C153.154 21.668 152.822 22.0195 152.822 22.5273V34.6758C152.822 35.2129 153.174 35.584 153.672 35.584ZM157.422 30.6816C155.683 30.6816 154.511 29.1875 154.511 26.9219C154.511 24.666 155.683 23.1621 157.422 23.1621C159.228 23.1621 160.361 24.627 160.361 26.9219C160.361 29.2266 159.228 30.6816 157.422 30.6816ZM164.26 32.1758C164.758 32.1758 165.109 31.8047 165.109 31.2676V25.6914C165.109 24.3926 165.764 23.2891 167.297 23.2891C167.668 23.2891 167.932 23.2207 168.107 23.0742C168.283 22.9375 168.371 22.7422 168.371 22.4785C168.371 22.2441 168.303 22.0488 168.156 21.9121C167.99 21.7559 167.727 21.668 167.355 21.668C166.34 21.668 165.344 22.4492 165.051 23.5039H165.012V22.5273C165.012 22.0195 164.68 21.668 164.211 21.668C163.742 21.668 163.41 22.0195 163.41 22.5273V31.2676C163.41 31.8047 163.762 32.1758 164.26 32.1758ZM172.895 32.1758C175.697 32.1758 177.592 30.1543 177.592 26.9219C177.592 23.6797 175.697 21.668 172.895 21.668C170.082 21.668 168.188 23.6797 168.188 26.9219C168.188 30.1543 170.082 32.1758 172.895 32.1758ZM172.895 30.6816C171.098 30.6816 169.916 29.3145 169.916 26.9219C169.916 24.5293 171.098 23.1621 172.895 23.1621C174.692 23.1621 175.863 24.5293 175.863 26.9219C175.863 29.3145 174.692 30.6816 172.895 30.6816ZM179.84 20.1348C180.426 20.1348 180.905 19.6562 180.905 19.0801C180.905 18.4941 180.426 18.0254 179.84 18.0254C179.264 18.0254 178.786 18.4941 178.786 19.0801C178.786 19.6562 179.264 20.1348 179.84 20.1348ZM179.84 21.668C179.342 21.668 178.991 22.0391 178.991 22.5762V32.5762C178.991 33.4746 178.707 33.9141 177.916 34.0312L177.848 34.041C177.311 34.1191 177.086 34.3828 177.086 34.7539C177.086 35.1934 177.467 35.4863 178.092 35.4863C179.733 35.4863 180.69 34.5586 180.69 32.7422V22.5762C180.69 22.0391 180.338 21.668 179.84 21.668ZM186.835 32.1758C188.69 32.1758 190.116 31.3945 190.77 30.0176C190.848 29.832 190.897 29.6562 190.897 29.5195C190.897 29.0703 190.594 28.7773 190.145 28.7773C189.881 28.7773 189.686 28.875 189.51 29.1191C188.719 30.2715 187.977 30.7012 186.766 30.7012C184.95 30.7012 183.827 29.4316 183.827 27.3809H190.174C190.76 27.3809 191.112 27.0098 191.112 26.3945C191.112 23.6113 189.286 21.668 186.688 21.668C183.885 21.668 182.079 23.7578 182.079 26.9609C182.079 30.2422 183.837 32.1758 186.835 32.1758ZM183.837 26.0527C183.944 24.3047 185.077 23.1426 186.659 23.1426C188.231 23.1426 189.315 24.2949 189.354 26.0527H183.837ZM192.97 29.6562C192.97 31.2773 193.79 32.0781 195.43 32.0781H195.538C196.485 32.0781 196.778 31.8047 196.778 31.2871C196.778 30.8867 196.524 30.6621 195.968 30.623L195.821 30.6133C194.971 30.5547 194.669 30.1445 194.669 29.2852V23.2402H195.977C196.466 23.2402 196.739 22.9863 196.739 22.5371C196.739 22.0977 196.466 21.8438 195.977 21.8438H194.669V20.1055C194.669 19.5684 194.317 19.1973 193.819 19.1973C193.321 19.1973 192.97 19.5684 192.97 20.1055V21.8438H192.12C191.632 21.8438 191.358 22.0977 191.358 22.5371C191.358 22.9863 191.632 23.2402 192.12 23.2402H192.97V29.6562ZM201.966 32.1758C204.769 32.1758 206.663 30.1543 206.663 26.9219C206.663 23.6797 204.769 21.668 201.966 21.668C199.153 21.668 197.259 23.6797 197.259 26.9219C197.259 30.1543 199.153 32.1758 201.966 32.1758ZM201.966 30.6816C200.169 30.6816 198.987 29.3145 198.987 26.9219C198.987 24.5293 200.169 23.1621 201.966 23.1621C203.763 23.1621 204.935 24.5293 204.935 26.9219C204.935 29.3145 203.763 30.6816 201.966 30.6816ZM211.343 28.0449C211.948 28.0449 212.183 27.625 212.183 27.0098C212.183 25.9844 212.534 25.4375 213.775 24.7051C215.025 23.9531 215.816 22.8984 215.816 21.3652C215.816 19.2754 214.097 17.8008 211.675 17.8008C209.8 17.8008 208.364 18.6113 207.788 19.998C207.613 20.3789 207.534 20.7109 207.534 21.1309C207.534 21.6387 207.808 21.9316 208.306 21.9316C208.745 21.9316 208.96 21.7461 209.126 21.1504C209.448 19.9785 210.308 19.3242 211.607 19.3242C213.042 19.3242 213.999 20.1836 213.999 21.4531C213.999 22.4492 213.56 23.084 212.427 23.7773C211.089 24.5781 210.474 25.4473 210.474 26.7656V27.0391C210.474 27.5957 210.738 28.0449 211.343 28.0449ZM211.333 32.0977C211.968 32.0977 212.446 31.6094 212.446 30.9844C212.446 30.3496 211.968 29.8711 211.333 29.8711C210.708 29.8711 210.22 30.3496 210.22 30.9844C210.22 31.6094 210.708 32.0977 211.333 32.0977Z" fill="black"/>
</svg>
