<svg width="285" height="124" viewBox="0 0 285 124" fill="none" xmlns="http://www.w3.org/2000/svg">
<rect width="285" height="124" rx="10" fill="#EBEBFF"/>
<path d="M0 60H285V114C285 119.523 280.523 124 275 124H10C4.47715 124 0 119.523 0 114V60Z" fill="#FAF9FF"/>
<path d="M154.789 88.5645C157.475 88.5645 159.75 86.3184 159.75 83.6035C159.75 80.8887 157.504 78.6426 154.789 78.6426C152.064 78.6426 149.828 80.8887 149.828 83.6035C149.828 86.3379 152.064 88.5645 154.789 88.5645ZM136.557 96.8262H152.895C154.643 96.8262 155.668 95.8105 155.668 93.7988V89.8535C155.277 89.9219 154.604 89.9316 154.096 89.8535V93.7305C154.096 94.7363 153.539 95.2539 152.572 95.2539H136.576C135.6 95.2539 135.062 94.7363 135.062 93.7207V85.8887H148.881C148.705 85.4199 148.578 84.9219 148.529 84.4141H135.062V81.9824C135.062 81.0156 135.57 80.5176 136.508 80.5176H138.568C139.213 80.5176 139.604 80.6836 140.102 81.1035L140.697 81.6016C141.332 82.1289 141.85 82.3145 142.816 82.3145H148.607C148.725 81.7578 148.861 81.2891 149.135 80.7422H143.227C142.562 80.7422 142.162 80.5859 141.674 80.166L141.078 79.6777C140.434 79.1309 139.936 78.9551 138.969 78.9551H136.186C134.477 78.9551 133.49 79.9316 133.49 81.8945V93.7988C133.49 95.8203 134.516 96.8262 136.557 96.8262ZM154.779 83.8965C153.881 83.8965 153.197 83.1543 153.197 82.1387C153.197 81.2305 153.891 80.459 154.779 80.459C155.678 80.459 156.381 81.2305 156.381 82.1387C156.381 83.1543 155.678 83.8965 154.779 83.8965ZM154.789 87.4219C153.363 87.4219 152.24 86.6895 151.918 86.0156V85.9668C152.24 85.3613 153.236 84.6875 154.789 84.6875C156.342 84.6875 157.338 85.3613 157.65 85.9766V86.0156C157.328 86.6992 156.215 87.4219 154.789 87.4219Z" fill="#15112B"/>
<path d="M231.557 96.8262H247.895C249.643 96.8262 250.668 95.8105 250.668 93.7988V83.7695C250.668 81.7578 249.633 80.7422 247.602 80.7422H238.227C237.562 80.7422 237.162 80.5859 236.674 80.166L236.078 79.6777C235.434 79.1309 234.936 78.9551 233.969 78.9551H231.186C229.477 78.9551 228.49 79.9316 228.49 81.8945V93.7988C228.49 95.8203 229.516 96.8262 231.557 96.8262ZM230.062 81.9824C230.062 81.0156 230.57 80.5176 231.508 80.5176H233.568C234.213 80.5176 234.604 80.6836 235.102 81.1035L235.697 81.6016C236.332 82.1289 236.85 82.3145 237.816 82.3145H247.572C248.539 82.3145 249.096 82.8418 249.096 83.8574V84.4141H230.062V81.9824ZM231.576 95.2539C230.6 95.2539 230.062 94.7363 230.062 93.7207V85.8887H249.096V93.7305C249.096 94.7363 248.539 95.2539 247.572 95.2539H231.576Z" fill="#15112B"/>
<path d="M46.709 97.9102C52.1582 97.9102 56.6699 93.3887 56.6699 87.9492C56.6699 82.5 52.1484 77.9883 46.6992 77.9883C41.2598 77.9883 36.748 82.5 36.748 87.9492C36.748 93.3887 41.2695 97.9102 46.709 97.9102ZM46.709 96.25C42.0996 96.25 38.418 92.5586 38.418 87.9492C38.418 83.3398 42.0898 79.6484 46.6992 79.6484C51.3086 79.6484 55 83.3398 55.0098 87.9492C55.0195 92.5586 51.3184 96.25 46.709 96.25ZM41.6016 89.0039H46.6992C47.0801 89.0039 47.3828 88.7109 47.3828 88.3203V81.7383C47.3828 81.3574 47.0801 81.0645 46.6992 81.0645C46.3184 81.0645 46.0254 81.3574 46.0254 81.7383V87.6465H41.6016C41.2109 87.6465 40.918 87.9395 40.918 88.3203C40.918 88.7109 41.2109 89.0039 41.6016 89.0039Z" fill="#15112B"/>
<path d="M22.0605 110H23.373V106.748H25.2246L26.9473 110H28.4648L26.5664 106.543C27.5977 106.197 28.207 105.271 28.207 104.135V104.123C28.207 102.553 27.1289 101.545 25.3945 101.545H22.0605V110ZM23.373 105.682V102.646H25.2246C26.2383 102.646 26.8594 103.221 26.8594 104.158V104.17C26.8594 105.131 26.2734 105.682 25.2656 105.682H23.373ZM32.0061 110.123C33.635 110.123 34.5139 109.186 34.7248 108.348L34.7365 108.295L33.5119 108.301L33.4885 108.348C33.3361 108.676 32.8498 109.08 32.0354 109.08C30.9865 109.08 30.3186 108.371 30.2951 107.152H34.8068V106.707C34.8068 104.797 33.717 103.514 31.9416 103.514C30.1662 103.514 29.0178 104.844 29.0178 106.83V106.836C29.0178 108.852 30.1428 110.123 32.0061 110.123ZM31.9475 104.557C32.8088 104.557 33.4475 105.107 33.5471 106.244H30.3127C30.424 105.148 31.0803 104.557 31.9475 104.557ZM38.5883 110.123C40.1645 110.123 41.0727 109.273 41.3012 108.037L41.3129 107.984H40.0942L40.0824 108.014C39.8774 108.699 39.3852 109.062 38.5883 109.062C37.5395 109.062 36.8891 108.207 36.8891 106.801V106.789C36.8891 105.418 37.5278 104.574 38.5883 104.574C39.432 104.574 39.9477 105.043 40.0883 105.67L40.0942 105.688L41.3129 105.682V105.652C41.1371 104.416 40.182 103.514 38.5824 103.514C36.725 103.514 35.5942 104.773 35.5942 106.789V106.801C35.5942 108.857 36.7309 110.123 38.5883 110.123ZM45.0182 110.123C46.6471 110.123 47.526 109.186 47.7369 108.348L47.7487 108.295L46.524 108.301L46.5006 108.348C46.3483 108.676 45.8619 109.08 45.0475 109.08C43.9987 109.08 43.3307 108.371 43.3073 107.152H47.819V106.707C47.819 104.797 46.7291 103.514 44.9537 103.514C43.1783 103.514 42.0299 104.844 42.0299 106.83V106.836C42.0299 108.852 43.1549 110.123 45.0182 110.123ZM44.9596 104.557C45.8209 104.557 46.4596 105.107 46.5592 106.244H43.3248C43.4362 105.148 44.0924 104.557 44.9596 104.557ZM48.9227 110H50.1942V106.268C50.1942 105.242 50.7743 104.604 51.7059 104.604C52.6375 104.604 53.077 105.125 53.077 106.18V110H54.3426V105.881C54.3426 104.363 53.5575 103.514 52.1336 103.514C51.2078 103.514 50.5985 103.924 50.2879 104.604H50.1942V103.637H48.9227V110ZM58.1123 110.041C58.3584 110.041 58.5928 110.012 58.7979 109.977V108.963C58.6221 108.98 58.5108 108.986 58.3174 108.986C57.6905 108.986 57.4327 108.705 57.4327 108.02V104.639H58.7979V103.637H57.4327V102.031H56.1377V103.637H55.1416V104.639H56.1377V108.324C56.1377 109.549 56.712 110.041 58.1123 110.041ZM62.4739 110.123C64.1028 110.123 64.9817 109.186 65.1926 108.348L65.2043 108.295L63.9797 108.301L63.9563 108.348C63.804 108.676 63.3176 109.08 62.5032 109.08C61.4543 109.08 60.7864 108.371 60.7629 107.152H65.2747V106.707C65.2747 104.797 64.1848 103.514 62.4094 103.514C60.634 103.514 59.4856 104.844 59.4856 106.83V106.836C59.4856 108.852 60.6106 110.123 62.4739 110.123ZM62.4153 104.557C63.2766 104.557 63.9153 105.107 64.0149 106.244H60.7805C60.8918 105.148 61.5481 104.557 62.4153 104.557ZM68.6928 110.123C70.2045 110.123 71.3295 109.32 71.3295 108.143V108.131C71.3295 107.211 70.7436 106.689 69.519 106.402L68.5112 106.174C67.7963 106.004 67.5034 105.758 67.5034 105.359V105.348C67.5034 104.838 68.0073 104.492 68.7045 104.492C69.4194 104.492 69.8706 104.826 69.9936 105.271V105.283H71.2065V105.277C71.0952 104.24 70.1635 103.514 68.7104 103.514C67.269 103.514 66.2378 104.311 66.2378 105.418V105.424C66.2378 106.355 66.7944 106.9 67.9956 107.176L69.0092 107.41C69.7475 107.58 70.0463 107.85 70.0463 108.248V108.26C70.0463 108.781 69.5014 109.139 68.7163 109.139C67.9604 109.139 67.4975 108.816 67.3393 108.336L67.3335 108.33H66.062V108.336C66.185 109.402 67.1577 110.123 68.6928 110.123Z" fill="#15112B"/>
<path d="M218.061 110H223.428V108.869H219.373V106.238H223.211V105.148H219.373V102.676H223.428V101.545H218.061V110ZM224.28 110H225.662L227.057 107.703H227.151L228.545 110H229.992L227.865 106.777L229.969 103.637H228.563L227.203 105.91H227.104L225.733 103.637H224.262L226.395 106.83L224.28 110ZM230.903 112.121H232.174V108.992H232.268C232.608 109.678 233.352 110.105 234.225 110.105C235.842 110.105 236.862 108.84 236.862 106.824V106.812C236.862 104.809 235.83 103.525 234.225 103.525C233.334 103.525 232.637 103.941 232.268 104.639H232.174V103.637H230.903V112.121ZM233.868 109.021C232.807 109.021 232.151 108.184 232.151 106.824V106.812C232.151 105.453 232.807 104.615 233.868 104.615C234.928 104.615 235.567 105.441 235.567 106.812V106.824C235.567 108.189 234.928 109.021 233.868 109.021ZM238.042 110H239.313V101.141H238.042V110ZM243.493 110.123C245.356 110.123 246.499 108.875 246.499 106.824V106.812C246.499 104.762 245.35 103.514 243.493 103.514C241.63 103.514 240.481 104.768 240.481 106.812V106.824C240.481 108.875 241.624 110.123 243.493 110.123ZM243.493 109.062C242.397 109.062 241.782 108.236 241.782 106.824V106.812C241.782 105.4 242.397 104.574 243.493 104.574C244.583 104.574 245.204 105.4 245.204 106.812V106.824C245.204 108.23 244.583 109.062 243.493 109.062ZM247.608 110H248.88V106.197C248.88 105.277 249.542 104.68 250.515 104.68C250.755 104.68 250.972 104.709 251.2 104.756V103.584C251.071 103.555 250.849 103.525 250.644 103.525C249.794 103.525 249.202 103.924 248.974 104.598H248.88V103.637H247.608V110ZM253.704 110.105C254.548 110.105 255.216 109.742 255.591 109.098H255.691V110H256.95V105.646C256.95 104.311 256.048 103.514 254.448 103.514C253.001 103.514 251.999 104.211 251.847 105.254L251.841 105.295H253.066L253.072 105.271C253.224 104.82 253.687 104.562 254.39 104.562C255.251 104.562 255.691 104.949 255.691 105.646V106.209L253.968 106.309C252.45 106.402 251.595 107.064 251.595 108.201V108.213C251.595 109.367 252.491 110.105 253.704 110.105ZM252.861 108.16V108.148C252.861 107.574 253.259 107.258 254.138 107.205L255.691 107.105V107.65C255.691 108.471 254.993 109.092 254.044 109.092C253.359 109.092 252.861 108.746 252.861 108.16ZM258.335 110H259.607V106.197C259.607 105.277 260.269 104.68 261.242 104.68C261.482 104.68 261.699 104.709 261.927 104.756V103.584C261.798 103.555 261.576 103.525 261.371 103.525C260.521 103.525 259.929 103.924 259.701 104.598H259.607V103.637H258.335V110Z" fill="#15112B"/>
<path d="M108.529 110.205C110.416 110.205 111.793 109.127 112.039 107.504V107.469H110.738L110.727 107.492C110.486 108.447 109.648 109.045 108.529 109.045C107.006 109.045 106.057 107.785 106.057 105.781V105.77C106.057 103.76 107.006 102.5 108.523 102.5C109.637 102.5 110.486 103.174 110.732 104.211V104.229H112.033L112.039 104.199C111.816 102.518 110.387 101.34 108.523 101.34C106.174 101.34 104.715 103.039 104.715 105.77V105.781C104.715 108.506 106.18 110.205 108.529 110.205ZM115.908 110.123C117.772 110.123 118.914 108.875 118.914 106.824V106.812C118.914 104.762 117.766 103.514 115.908 103.514C114.045 103.514 112.897 104.768 112.897 106.812V106.824C112.897 108.875 114.039 110.123 115.908 110.123ZM115.908 109.062C114.813 109.062 114.197 108.236 114.197 106.824V106.812C114.197 105.4 114.813 104.574 115.908 104.574C116.998 104.574 117.619 105.4 117.619 106.812V106.824C117.619 108.23 116.998 109.062 115.908 109.062ZM120.024 110H121.295V106.092C121.295 105.26 121.864 104.604 122.631 104.604C123.381 104.604 123.856 105.061 123.856 105.787V110H125.122V105.975C125.122 105.207 125.655 104.604 126.463 104.604C127.295 104.604 127.694 105.037 127.694 105.916V110H128.959V105.611C128.959 104.287 128.209 103.514 126.926 103.514C126.041 103.514 125.309 103.965 124.987 104.65H124.887C124.606 103.965 123.991 103.514 123.123 103.514C122.291 103.514 121.67 103.918 121.389 104.615H121.295V103.637H120.024V110ZM130.327 112.121H131.598V108.992H131.692C132.032 109.678 132.776 110.105 133.649 110.105C135.266 110.105 136.286 108.84 136.286 106.824V106.812C136.286 104.809 135.255 103.525 133.649 103.525C132.758 103.525 132.061 103.941 131.692 104.639H131.598V103.637H130.327V112.121ZM133.292 109.021C132.231 109.021 131.575 108.184 131.575 106.824V106.812C131.575 105.453 132.231 104.615 133.292 104.615C134.352 104.615 134.991 105.441 134.991 106.812V106.824C134.991 108.189 134.352 109.021 133.292 109.021ZM139.153 110.105C139.997 110.105 140.665 109.742 141.04 109.098H141.139V110H142.399V105.646C142.399 104.311 141.497 103.514 139.897 103.514C138.45 103.514 137.448 104.211 137.296 105.254L137.29 105.295H138.514L138.52 105.271C138.673 104.82 139.136 104.562 139.839 104.562C140.7 104.562 141.139 104.949 141.139 105.646V106.209L139.417 106.309C137.899 106.402 137.044 107.064 137.044 108.201V108.213C137.044 109.367 137.94 110.105 139.153 110.105ZM138.309 108.16V108.148C138.309 107.574 138.708 107.258 139.587 107.205L141.139 107.105V107.65C141.139 108.471 140.442 109.092 139.493 109.092C138.807 109.092 138.309 108.746 138.309 108.16ZM143.784 110H145.056V106.197C145.056 105.277 145.718 104.68 146.69 104.68C146.931 104.68 147.147 104.709 147.376 104.756V103.584C147.247 103.555 147.024 103.525 146.819 103.525C145.97 103.525 145.378 103.924 145.149 104.598H145.056V103.637H143.784V110ZM150.712 110.041C150.958 110.041 151.193 110.012 151.398 109.977V108.963C151.222 108.98 151.111 108.986 150.917 108.986C150.29 108.986 150.032 108.705 150.032 108.02V104.639H151.398V103.637H150.032V102.031H148.738V103.637H147.741V104.639H148.738V108.324C148.738 109.549 149.312 110.041 150.712 110.041ZM153.134 102.5C153.568 102.5 153.931 102.143 153.931 101.709C153.931 101.27 153.568 100.912 153.134 100.912C152.695 100.912 152.337 101.27 152.337 101.709C152.337 102.143 152.695 102.5 153.134 102.5ZM152.496 110H153.761V103.637H152.496V110ZM155.263 110H156.535V101.141H155.263V110ZM158.078 110H159.349V106.268C159.349 105.242 159.93 104.604 160.861 104.604C161.793 104.604 162.232 105.125 162.232 106.18V110H163.498V105.881C163.498 104.363 162.713 103.514 161.289 103.514C160.363 103.514 159.754 103.924 159.443 104.604H159.349V101.141H158.078V110ZM166.611 110.105C167.455 110.105 168.123 109.742 168.498 109.098H168.598V110H169.857V105.646C169.857 104.311 168.955 103.514 167.356 103.514C165.908 103.514 164.906 104.211 164.754 105.254L164.748 105.295H165.973L165.979 105.271C166.131 104.82 166.594 104.562 167.297 104.562C168.158 104.562 168.598 104.949 168.598 105.646V106.209L166.875 106.309C165.357 106.402 164.502 107.064 164.502 108.201V108.213C164.502 109.367 165.399 110.105 166.611 110.105ZM165.768 108.16V108.148C165.768 107.574 166.166 107.258 167.045 107.205L168.598 107.105V107.65C168.598 108.471 167.9 109.092 166.951 109.092C166.266 109.092 165.768 108.746 165.768 108.16ZM173.563 110.105C174.453 110.105 175.151 109.695 175.52 108.998H175.619V110H176.885V101.141H175.619V104.645H175.52C175.18 103.959 174.436 103.525 173.563 103.525C171.946 103.525 170.926 104.797 170.926 106.812V106.824C170.926 108.822 171.963 110.105 173.563 110.105ZM173.926 109.021C172.86 109.021 172.221 108.189 172.221 106.824V106.812C172.221 105.447 172.86 104.615 173.926 104.615C174.981 104.615 175.637 105.453 175.637 106.812V106.824C175.637 108.184 174.987 109.021 173.926 109.021ZM181.065 110.123C182.928 110.123 184.071 108.875 184.071 106.824V106.812C184.071 104.762 182.922 103.514 181.065 103.514C179.202 103.514 178.053 104.768 178.053 106.812V106.824C178.053 108.875 179.196 110.123 181.065 110.123ZM181.065 109.062C179.969 109.062 179.354 108.236 179.354 106.824V106.812C179.354 105.4 179.969 104.574 181.065 104.574C182.155 104.574 182.776 105.4 182.776 106.812V106.824C182.776 108.23 182.155 109.062 181.065 109.062Z" fill="#15112B"/>
</svg>
