<svg width="242" height="90" viewBox="0 0 242 90" fill="none" xmlns="http://www.w3.org/2000/svg">
<rect width="242" height="90" rx="10" fill="#EBEBFF"/>
<path d="M0 31H242V80C242 85.5228 237.523 90 232 90H9.99999C4.47715 90 0 85.5228 0 80V31Z" fill="#FAF9FF"/>
<path d="M133.789 56.5645C136.475 56.5645 138.75 54.3184 138.75 51.6035C138.75 48.8887 136.504 46.6426 133.789 46.6426C131.064 46.6426 128.828 48.8887 128.828 51.6035C128.828 54.3379 131.064 56.5645 133.789 56.5645ZM115.557 64.8262H131.895C133.643 64.8262 134.668 63.8105 134.668 61.7988V57.8535C134.277 57.9219 133.604 57.9316 133.096 57.8535V61.7305C133.096 62.7363 132.539 63.2539 131.572 63.2539H115.576C114.6 63.2539 114.062 62.7363 114.062 61.7207V53.8887H127.881C127.705 53.4199 127.578 52.9219 127.529 52.4141H114.062V49.9824C114.062 49.0156 114.57 48.5176 115.508 48.5176H117.568C118.213 48.5176 118.604 48.6836 119.102 49.1035L119.697 49.6016C120.332 50.1289 120.85 50.3145 121.816 50.3145H127.607C127.725 49.7578 127.861 49.2891 128.135 48.7422H122.227C121.562 48.7422 121.162 48.5859 120.674 48.166L120.078 47.6777C119.434 47.1309 118.936 46.9551 117.969 46.9551H115.186C113.477 46.9551 112.49 47.9316 112.49 49.8945V61.7988C112.49 63.8203 113.516 64.8262 115.557 64.8262ZM133.779 51.8965C132.881 51.8965 132.197 51.1543 132.197 50.1387C132.197 49.2305 132.891 48.459 133.779 48.459C134.678 48.459 135.381 49.2305 135.381 50.1387C135.381 51.1543 134.678 51.8965 133.779 51.8965ZM133.789 55.4219C132.363 55.4219 131.24 54.6895 130.918 54.0156V53.9668C131.24 53.3613 132.236 52.6875 133.789 52.6875C135.342 52.6875 136.338 53.3613 136.65 53.9766V54.0156C136.328 54.6992 135.215 55.4219 133.789 55.4219Z" fill="#15112B"/>
<path d="M200.557 64.8262H216.895C218.643 64.8262 219.668 63.8105 219.668 61.7988V51.7695C219.668 49.7578 218.633 48.7422 216.602 48.7422H207.227C206.562 48.7422 206.162 48.5859 205.674 48.166L205.078 47.6777C204.434 47.1309 203.936 46.9551 202.969 46.9551H200.186C198.477 46.9551 197.49 47.9316 197.49 49.8945V61.7988C197.49 63.8203 198.516 64.8262 200.557 64.8262ZM199.062 49.9824C199.062 49.0156 199.57 48.5176 200.508 48.5176H202.568C203.213 48.5176 203.604 48.6836 204.102 49.1035L204.697 49.6016C205.332 50.1289 205.85 50.3145 206.816 50.3145H216.572C217.539 50.3145 218.096 50.8418 218.096 51.8574V52.4141H199.062V49.9824ZM200.576 63.2539C199.6 63.2539 199.062 62.7363 199.062 61.7207V53.8887H218.096V61.7305C218.096 62.7363 217.539 63.2539 216.572 63.2539H200.576Z" fill="#15112B"/>
<path d="M35.709 65.9102C41.1582 65.9102 45.6699 61.3887 45.6699 55.9492C45.6699 50.5 41.1484 45.9883 35.6992 45.9883C30.2598 45.9883 25.748 50.5 25.748 55.9492C25.748 61.3887 30.2695 65.9102 35.709 65.9102ZM35.709 64.25C31.0996 64.25 27.418 60.5586 27.418 55.9492C27.418 51.3398 31.0898 47.6484 35.6992 47.6484C40.3086 47.6484 44 51.3398 44.0098 55.9492C44.0195 60.5586 40.3184 64.25 35.709 64.25ZM30.6016 57.0039H35.6992C36.0801 57.0039 36.3828 56.7109 36.3828 56.3203V49.7383C36.3828 49.3574 36.0801 49.0645 35.6992 49.0645C35.3184 49.0645 35.0254 49.3574 35.0254 49.7383V55.6465H30.6016C30.2109 55.6465 29.918 55.9395 29.918 56.3203C29.918 56.7109 30.2109 57.0039 30.6016 57.0039Z" fill="#15112B"/>
<path d="M11.0605 78H12.373V74.748H14.2246L15.9473 78H17.4648L15.5664 74.543C16.5977 74.1973 17.207 73.2715 17.207 72.1348V72.123C17.207 70.5527 16.1289 69.5449 14.3945 69.5449H11.0605V78ZM12.373 73.6816V70.6465H14.2246C15.2383 70.6465 15.8594 71.2207 15.8594 72.1582V72.1699C15.8594 73.1309 15.2734 73.6816 14.2656 73.6816H12.373ZM21.0061 78.123C22.635 78.123 23.5139 77.1855 23.7248 76.3477L23.7365 76.2949L22.5119 76.3008L22.4885 76.3477C22.3361 76.6758 21.8498 77.0801 21.0354 77.0801C19.9865 77.0801 19.3186 76.3711 19.2951 75.1523H23.8068V74.707C23.8068 72.7969 22.717 71.5137 20.9416 71.5137C19.1662 71.5137 18.0178 72.8438 18.0178 74.8301V74.8359C18.0178 76.8516 19.1428 78.123 21.0061 78.123ZM20.9475 72.5566C21.8088 72.5566 22.4475 73.1074 22.5471 74.2441H19.3127C19.424 73.1484 20.0803 72.5566 20.9475 72.5566ZM27.5883 78.123C29.1645 78.123 30.0727 77.2734 30.3012 76.0371L30.3129 75.9844H29.0942L29.0824 76.0137C28.8774 76.6992 28.3852 77.0625 27.5883 77.0625C26.5395 77.0625 25.8891 76.207 25.8891 74.8008V74.7891C25.8891 73.418 26.5278 72.5742 27.5883 72.5742C28.432 72.5742 28.9477 73.043 29.0883 73.6699L29.0942 73.6875L30.3129 73.6816V73.6523C30.1371 72.416 29.182 71.5137 27.5824 71.5137C25.725 71.5137 24.5942 72.7734 24.5942 74.7891V74.8008C24.5942 76.8574 25.7309 78.123 27.5883 78.123ZM34.0182 78.123C35.6471 78.123 36.526 77.1855 36.7369 76.3477L36.7487 76.2949L35.524 76.3008L35.5006 76.3477C35.3483 76.6758 34.8619 77.0801 34.0475 77.0801C32.9987 77.0801 32.3307 76.3711 32.3073 75.1523H36.819V74.707C36.819 72.7969 35.7291 71.5137 33.9537 71.5137C32.1783 71.5137 31.0299 72.8438 31.0299 74.8301V74.8359C31.0299 76.8516 32.1549 78.123 34.0182 78.123ZM33.9596 72.5566C34.8209 72.5566 35.4596 73.1074 35.5592 74.2441H32.3248C32.4362 73.1484 33.0924 72.5566 33.9596 72.5566ZM37.9227 78H39.1942V74.2676C39.1942 73.2422 39.7743 72.6035 40.7059 72.6035C41.6375 72.6035 42.077 73.125 42.077 74.1797V78H43.3426V73.8809C43.3426 72.3633 42.5575 71.5137 41.1336 71.5137C40.2078 71.5137 39.5985 71.9238 39.2879 72.6035H39.1942V71.6367H37.9227V78ZM47.1123 78.041C47.3584 78.041 47.5928 78.0117 47.7979 77.9766V76.9629C47.6221 76.9805 47.5108 76.9863 47.3174 76.9863C46.6905 76.9863 46.4327 76.7051 46.4327 76.0195V72.6387H47.7979V71.6367H46.4327V70.0312H45.1377V71.6367H44.1416V72.6387H45.1377V76.3242C45.1377 77.5488 45.712 78.041 47.1123 78.041ZM51.4739 78.123C53.1028 78.123 53.9817 77.1855 54.1926 76.3477L54.2043 76.2949L52.9797 76.3008L52.9563 76.3477C52.804 76.6758 52.3176 77.0801 51.5032 77.0801C50.4543 77.0801 49.7864 76.3711 49.7629 75.1523H54.2747V74.707C54.2747 72.7969 53.1848 71.5137 51.4094 71.5137C49.634 71.5137 48.4856 72.8438 48.4856 74.8301V74.8359C48.4856 76.8516 49.6106 78.123 51.4739 78.123ZM51.4153 72.5566C52.2766 72.5566 52.9153 73.1074 53.0149 74.2441H49.7805C49.8918 73.1484 50.5481 72.5566 51.4153 72.5566ZM57.6928 78.123C59.2045 78.123 60.3295 77.3203 60.3295 76.1426V76.1309C60.3295 75.2109 59.7436 74.6895 58.519 74.4023L57.5112 74.1738C56.7963 74.0039 56.5034 73.7578 56.5034 73.3594V73.3477C56.5034 72.8379 57.0073 72.4922 57.7045 72.4922C58.4194 72.4922 58.8706 72.8262 58.9936 73.2715V73.2832H60.2065V73.2773C60.0952 72.2402 59.1635 71.5137 57.7104 71.5137C56.269 71.5137 55.2378 72.3105 55.2378 73.418V73.4238C55.2378 74.3555 55.7944 74.9004 56.9956 75.1758L58.0092 75.4102C58.7475 75.5801 59.0463 75.8496 59.0463 76.248V76.2598C59.0463 76.7812 58.5014 77.1387 57.7163 77.1387C56.9604 77.1387 56.4975 76.8164 56.3393 76.3359L56.3335 76.3301H55.062V76.3359C55.185 77.4023 56.1577 78.123 57.6928 78.123Z" fill="#15112B"/>
<path d="M187.061 78H192.428V76.8691H188.373V74.2383H192.211V73.1484H188.373V70.6758H192.428V69.5449H187.061V78ZM193.28 78H194.662L196.057 75.7031H196.151L197.545 78H198.992L196.865 74.7773L198.969 71.6367H197.563L196.203 73.9102H196.104L194.733 71.6367H193.262L195.395 74.8301L193.28 78ZM199.903 80.1211H201.174V76.9922H201.268C201.608 77.6777 202.352 78.1055 203.225 78.1055C204.842 78.1055 205.862 76.8398 205.862 74.8242V74.8125C205.862 72.8086 204.83 71.5254 203.225 71.5254C202.334 71.5254 201.637 71.9414 201.268 72.6387H201.174V71.6367H199.903V80.1211ZM202.868 77.0215C201.807 77.0215 201.151 76.1836 201.151 74.8242V74.8125C201.151 73.4531 201.807 72.6152 202.868 72.6152C203.928 72.6152 204.567 73.4414 204.567 74.8125V74.8242C204.567 76.1895 203.928 77.0215 202.868 77.0215ZM207.042 78H208.313V69.1406H207.042V78ZM212.493 78.123C214.356 78.123 215.499 76.875 215.499 74.8242V74.8125C215.499 72.7617 214.35 71.5137 212.493 71.5137C210.63 71.5137 209.481 72.7676 209.481 74.8125V74.8242C209.481 76.875 210.624 78.123 212.493 78.123ZM212.493 77.0625C211.397 77.0625 210.782 76.2363 210.782 74.8242V74.8125C210.782 73.4004 211.397 72.5742 212.493 72.5742C213.583 72.5742 214.204 73.4004 214.204 74.8125V74.8242C214.204 76.2305 213.583 77.0625 212.493 77.0625ZM216.608 78H217.88V74.1973C217.88 73.2773 218.542 72.6797 219.515 72.6797C219.755 72.6797 219.972 72.709 220.2 72.7559V71.584C220.071 71.5547 219.849 71.5254 219.644 71.5254C218.794 71.5254 218.202 71.9238 217.974 72.5977H217.88V71.6367H216.608V78ZM222.704 78.1055C223.548 78.1055 224.216 77.7422 224.591 77.0977H224.691V78H225.95V73.6465C225.95 72.3105 225.048 71.5137 223.448 71.5137C222.001 71.5137 220.999 72.2109 220.847 73.2539L220.841 73.2949H222.066L222.072 73.2715C222.224 72.8203 222.687 72.5625 223.39 72.5625C224.251 72.5625 224.691 72.9492 224.691 73.6465V74.209L222.968 74.3086C221.45 74.4023 220.595 75.0645 220.595 76.2012V76.2129C220.595 77.3672 221.491 78.1055 222.704 78.1055ZM221.861 76.1602V76.1484C221.861 75.5742 222.259 75.2578 223.138 75.2051L224.691 75.1055V75.6504C224.691 76.4707 223.993 77.0918 223.044 77.0918C222.359 77.0918 221.861 76.7461 221.861 76.1602ZM227.335 78H228.607V74.1973C228.607 73.2773 229.269 72.6797 230.242 72.6797C230.482 72.6797 230.699 72.709 230.927 72.7559V71.584C230.798 71.5547 230.576 71.5254 230.371 71.5254C229.521 71.5254 228.929 71.9238 228.701 72.5977H228.607V71.6367H227.335V78Z" fill="#15112B"/>
<path d="M87.5293 78.2051C89.416 78.2051 90.793 77.127 91.0391 75.5039V75.4688H89.7383L89.7266 75.4922C89.4863 76.4473 88.6484 77.0449 87.5293 77.0449C86.0059 77.0449 85.0566 75.7852 85.0566 73.7812V73.7695C85.0566 71.7598 86.0059 70.5 87.5234 70.5C88.6367 70.5 89.4863 71.1738 89.7324 72.2109V72.2285H91.0332L91.0391 72.1992C90.8164 70.5176 89.3867 69.3398 87.5234 69.3398C85.1738 69.3398 83.7148 71.0391 83.7148 73.7695V73.7812C83.7148 76.5059 85.1797 78.2051 87.5293 78.2051ZM94.9084 78.123C96.7717 78.123 97.9143 76.875 97.9143 74.8242V74.8125C97.9143 72.7617 96.7658 71.5137 94.9084 71.5137C93.0451 71.5137 91.8967 72.7676 91.8967 74.8125V74.8242C91.8967 76.875 93.0393 78.123 94.9084 78.123ZM94.9084 77.0625C93.8127 77.0625 93.1975 76.2363 93.1975 74.8242V74.8125C93.1975 73.4004 93.8127 72.5742 94.9084 72.5742C95.9983 72.5742 96.6193 73.4004 96.6193 74.8125V74.8242C96.6193 76.2305 95.9983 77.0625 94.9084 77.0625ZM99.0238 78H100.295V74.0918C100.295 73.2598 100.864 72.6035 101.631 72.6035C102.381 72.6035 102.856 73.0605 102.856 73.7871V78H104.122V73.9746C104.122 73.207 104.655 72.6035 105.463 72.6035C106.295 72.6035 106.694 73.0371 106.694 73.916V78H107.959V73.6113C107.959 72.2871 107.209 71.5137 105.926 71.5137C105.041 71.5137 104.309 71.9648 103.987 72.6504H103.887C103.606 71.9648 102.991 71.5137 102.123 71.5137C101.291 71.5137 100.67 71.918 100.389 72.6152H100.295V71.6367H99.0238V78ZM109.327 80.1211H110.598V76.9922H110.692C111.032 77.6777 111.776 78.1055 112.649 78.1055C114.266 78.1055 115.286 76.8398 115.286 74.8242V74.8125C115.286 72.8086 114.255 71.5254 112.649 71.5254C111.758 71.5254 111.061 71.9414 110.692 72.6387H110.598V71.6367H109.327V80.1211ZM112.292 77.0215C111.231 77.0215 110.575 76.1836 110.575 74.8242V74.8125C110.575 73.4531 111.231 72.6152 112.292 72.6152C113.352 72.6152 113.991 73.4414 113.991 74.8125V74.8242C113.991 76.1895 113.352 77.0215 112.292 77.0215ZM118.153 78.1055C118.997 78.1055 119.665 77.7422 120.04 77.0977H120.139V78H121.399V73.6465C121.399 72.3105 120.497 71.5137 118.897 71.5137C117.45 71.5137 116.448 72.2109 116.296 73.2539L116.29 73.2949H117.514L117.52 73.2715C117.673 72.8203 118.136 72.5625 118.839 72.5625C119.7 72.5625 120.139 72.9492 120.139 73.6465V74.209L118.417 74.3086C116.899 74.4023 116.044 75.0645 116.044 76.2012V76.2129C116.044 77.3672 116.94 78.1055 118.153 78.1055ZM117.309 76.1602V76.1484C117.309 75.5742 117.708 75.2578 118.587 75.2051L120.139 75.1055V75.6504C120.139 76.4707 119.442 77.0918 118.493 77.0918C117.807 77.0918 117.309 76.7461 117.309 76.1602ZM122.784 78H124.056V74.1973C124.056 73.2773 124.718 72.6797 125.69 72.6797C125.931 72.6797 126.147 72.709 126.376 72.7559V71.584C126.247 71.5547 126.024 71.5254 125.819 71.5254C124.97 71.5254 124.378 71.9238 124.149 72.5977H124.056V71.6367H122.784V78ZM129.712 78.041C129.958 78.041 130.193 78.0117 130.398 77.9766V76.9629C130.222 76.9805 130.111 76.9863 129.917 76.9863C129.29 76.9863 129.032 76.7051 129.032 76.0195V72.6387H130.398V71.6367H129.032V70.0312H127.738V71.6367H126.741V72.6387H127.738V76.3242C127.738 77.5488 128.312 78.041 129.712 78.041ZM132.134 70.5C132.568 70.5 132.931 70.1426 132.931 69.709C132.931 69.2695 132.568 68.9121 132.134 68.9121C131.695 68.9121 131.337 69.2695 131.337 69.709C131.337 70.1426 131.695 70.5 132.134 70.5ZM131.496 78H132.761V71.6367H131.496V78ZM134.263 78H135.535V69.1406H134.263V78ZM137.078 78H138.349V74.2676C138.349 73.2422 138.93 72.6035 139.861 72.6035C140.793 72.6035 141.232 73.125 141.232 74.1797V78H142.498V73.8809C142.498 72.3633 141.713 71.5137 140.289 71.5137C139.363 71.5137 138.754 71.9238 138.443 72.6035H138.349V69.1406H137.078V78ZM145.611 78.1055C146.455 78.1055 147.123 77.7422 147.498 77.0977H147.598V78H148.857V73.6465C148.857 72.3105 147.955 71.5137 146.356 71.5137C144.908 71.5137 143.906 72.2109 143.754 73.2539L143.748 73.2949H144.973L144.979 73.2715C145.131 72.8203 145.594 72.5625 146.297 72.5625C147.158 72.5625 147.598 72.9492 147.598 73.6465V74.209L145.875 74.3086C144.357 74.4023 143.502 75.0645 143.502 76.2012V76.2129C143.502 77.3672 144.399 78.1055 145.611 78.1055ZM144.768 76.1602V76.1484C144.768 75.5742 145.166 75.2578 146.045 75.2051L147.598 75.1055V75.6504C147.598 76.4707 146.9 77.0918 145.951 77.0918C145.266 77.0918 144.768 76.7461 144.768 76.1602ZM152.563 78.1055C153.453 78.1055 154.151 77.6953 154.52 76.998H154.619V78H155.885V69.1406H154.619V72.6445H154.52C154.18 71.959 153.436 71.5254 152.563 71.5254C150.946 71.5254 149.926 72.7969 149.926 74.8125V74.8242C149.926 76.8223 150.963 78.1055 152.563 78.1055ZM152.926 77.0215C151.86 77.0215 151.221 76.1895 151.221 74.8242V74.8125C151.221 73.4473 151.86 72.6152 152.926 72.6152C153.981 72.6152 154.637 73.4531 154.637 74.8125V74.8242C154.637 76.1836 153.987 77.0215 152.926 77.0215ZM160.065 78.123C161.928 78.123 163.071 76.875 163.071 74.8242V74.8125C163.071 72.7617 161.922 71.5137 160.065 71.5137C158.202 71.5137 157.053 72.7676 157.053 74.8125V74.8242C157.053 76.875 158.196 78.123 160.065 78.123ZM160.065 77.0625C158.969 77.0625 158.354 76.2363 158.354 74.8242V74.8125C158.354 73.4004 158.969 72.5742 160.065 72.5742C161.155 72.5742 161.776 73.4004 161.776 74.8125V74.8242C161.776 76.2305 161.155 77.0625 160.065 77.0625Z" fill="#15112B"/>
</svg>
