<svg width="171" height="314" viewBox="0 0 171 314" fill="none" xmlns="http://www.w3.org/2000/svg">
<rect x="0.5" y="1.5" width="170" height="157" rx="9.5" fill="#EAE7FE" stroke="#614CCB"/>
<path d="M11.8066 53H13.125V41.291H13.252L21.4941 53H22.7832V38.9082H21.4648V50.6074H21.3379L13.125 38.9082H11.8066V53ZM30.4904 40.998L32.7072 37.7754H31.1643L29.3381 40.998H30.4904ZM30.0705 53.1758C32.3947 53.1758 33.9279 51.9062 34.3381 50.4805L34.3674 50.4023H33.0686L33.0295 50.4707C32.6877 51.291 31.633 52.0137 30.0998 52.0137C28.01 52.0137 26.6623 50.5391 26.6233 48.0781H34.5236V47.5312C34.5236 44.416 32.7854 42.3066 29.9631 42.3066C27.1408 42.3066 25.3049 44.4746 25.3049 47.7559V47.7754C25.3049 51.0762 27.1213 53.1758 30.0705 53.1758ZM29.9631 43.459C31.7697 43.459 33.0686 44.6895 33.215 47.0234H26.633C26.799 44.748 28.1467 43.459 29.9631 43.459ZM41.1567 56.6719C43.9203 56.6719 45.727 55.168 45.727 52.873V42.4824H44.4281V44.6113H44.3403C43.7348 43.2051 42.436 42.3066 40.8149 42.3066C38.1 42.3066 36.3617 44.4551 36.3617 47.4629V47.4824C36.3617 50.5 38.0903 52.6191 40.7953 52.6191C42.4067 52.6191 43.6957 51.8184 44.3207 50.4316H44.4477V52.7852C44.4477 54.4844 43.1879 55.5195 41.1567 55.5195C39.5551 55.5195 38.4613 54.8848 38.227 53.9668L38.2172 53.957H36.8793L36.8695 53.9668C37.143 55.5977 38.7445 56.6719 41.1567 56.6719ZM41.0492 51.4668C38.9496 51.4668 37.6801 49.8359 37.6801 47.4824V47.4629C37.6801 45.1094 38.9496 43.459 41.0492 43.459C43.1293 43.459 44.4672 45.1289 44.4672 47.4824V47.502C44.4672 49.8555 43.1586 51.4668 41.0492 51.4668ZM52.858 53.1758C55.7975 53.1758 57.6432 51.0957 57.6432 47.7461V47.7266C57.6432 44.377 55.7975 42.3066 52.858 42.3066C49.9186 42.3066 48.0826 44.377 48.0826 47.7266V47.7461C48.0826 51.0957 49.9186 53.1758 52.858 53.1758ZM52.858 52.0234C50.6901 52.0234 49.401 50.4023 49.401 47.7461V47.7266C49.401 45.0703 50.6901 43.459 52.858 43.459C55.026 43.459 56.3151 45.0703 56.3151 47.7266V47.7461C56.3151 50.4023 55.026 52.0234 52.858 52.0234ZM64.2176 53.1758C66.62 53.1758 68.0848 51.8965 68.495 50.041L68.5145 49.9629L67.2254 49.9727L67.2059 50.0215C66.8348 51.291 65.7606 52.0234 64.2078 52.0234C62.1278 52.0234 60.7899 50.334 60.7899 47.7168V47.6973C60.7899 45.1094 62.118 43.459 64.2078 43.459C65.8192 43.459 66.9129 44.3477 67.2254 45.5586L67.2352 45.5879L68.5145 45.5781V45.5391C68.1922 43.6934 66.62 42.3066 64.2078 42.3066C61.3075 42.3066 59.4715 44.416 59.4715 47.6973V47.7168C59.4715 51.0469 61.3172 53.1758 64.2176 53.1758ZM71.4952 40.2949C72.0127 40.2949 72.4424 39.875 72.4424 39.3477C72.4424 38.8203 72.0127 38.4004 71.4952 38.4004C70.9678 38.4004 70.5381 38.8203 70.5381 39.3477C70.5381 39.875 70.9678 40.2949 71.4952 40.2949ZM70.8409 53H72.1299V42.4824H70.8409V53ZM79.3293 53.1758C82.2688 53.1758 84.1145 51.0957 84.1145 47.7461V47.7266C84.1145 44.377 82.2688 42.3066 79.3293 42.3066C76.3899 42.3066 74.554 44.377 74.554 47.7266V47.7461C74.554 51.0957 76.3899 53.1758 79.3293 53.1758ZM79.3293 52.0234C77.1614 52.0234 75.8723 50.4023 75.8723 47.7461V47.7266C75.8723 45.0703 77.1614 43.459 79.3293 43.459C81.4973 43.459 82.7864 45.0703 82.7864 47.7266V47.7461C82.7864 50.4023 81.4973 52.0234 79.3293 52.0234ZM90.0053 53.1758C92.3002 53.1758 94.0678 51.9062 94.0678 50.0996V50.0801C94.0678 48.5664 93.0815 47.7461 91.0502 47.2578L89.5952 46.916C88.1987 46.584 87.5542 46.0859 87.5542 45.2266V45.207C87.5542 44.1621 88.6381 43.3906 90.0151 43.3906C91.4116 43.3906 92.3881 44.0547 92.6225 45.0312H93.892C93.6479 43.3711 92.144 42.3066 90.0249 42.3066C87.9057 42.3066 86.2358 43.5664 86.2358 45.2656V45.2754C86.2358 46.75 87.144 47.5605 89.0971 48.0195L90.562 48.3711C92.0952 48.7324 92.7495 49.2695 92.7495 50.1777V50.1973C92.7495 51.291 91.5874 52.082 90.0444 52.082C88.521 52.082 87.5151 51.4082 87.2319 50.3633H85.9038C86.1186 52.082 87.7104 53.1758 90.0053 53.1758Z" fill="black"/>
<path d="M11.043 28H12.4082V21.9883H12.5078L14.8516 28H15.8828L18.2266 21.9883H18.332V28H19.6914V19.5449H17.957L15.4199 26.0488H15.3203L12.7773 19.5449H11.043V28ZM23.9592 28.1289C25.6994 28.1289 26.5549 27.127 26.76 26.3008L26.7775 26.248H25.3889L25.3713 26.2891C25.2307 26.582 24.7795 26.9805 23.9885 26.9805C22.9983 26.9805 22.3772 26.3125 22.3596 25.1641H26.8361V24.6836C26.8361 22.75 25.7111 21.4727 23.8889 21.4727C22.0666 21.4727 20.9006 22.791 20.9006 24.8066V24.8125C20.9006 26.8516 22.0549 28.1289 23.9592 28.1289ZM23.9065 22.6152C24.7209 22.6152 25.3127 23.1367 25.4123 24.1855H22.3713C22.4826 23.166 23.092 22.6152 23.9065 22.6152ZM27.9457 28H29.4047V19.1172H27.9457V28ZM30.901 28H32.36V24.2676C32.36 23.3066 32.899 22.6973 33.7662 22.6973C34.651 22.6973 35.0553 23.2012 35.0553 24.1973V28H36.5143V23.8574C36.5143 22.334 35.735 21.4727 34.3053 21.4727C33.3795 21.4727 32.7643 21.8887 32.4596 22.5742H32.36V19.1172H30.901V28ZM40.5946 28.1289C42.5106 28.1289 43.6766 26.875 43.6766 24.8008V24.7891C43.6766 22.7266 42.5047 21.4727 40.5946 21.4727C38.6903 21.4727 37.5125 22.7324 37.5125 24.7891V24.8008C37.5125 26.875 38.6727 28.1289 40.5946 28.1289ZM40.5946 26.9453C39.5809 26.9453 39.0008 26.1543 39.0008 24.8066V24.7949C39.0008 23.4473 39.5809 22.6504 40.5946 22.6504C41.6024 22.6504 42.1825 23.4473 42.1825 24.7949V24.8066C42.1825 26.1543 41.6082 26.9453 40.5946 26.9453ZM44.7334 28H46.1924V24.2793C46.1924 23.3652 46.8311 22.7852 47.8037 22.7852C48.0557 22.7852 48.2959 22.8203 48.5303 22.8672V21.5605C48.3897 21.5195 48.1612 21.4902 47.9385 21.4902C47.0948 21.4902 46.5088 21.8945 46.292 22.5801H46.1924V21.5957H44.7334V28ZM52.2612 28H53.7729V25.2051H55.6362C57.353 25.2051 58.5131 24.0684 58.5131 22.3809V22.3691C58.5131 20.6758 57.353 19.5449 55.6362 19.5449H52.2612V28ZM55.267 20.7812C56.351 20.7812 56.9838 21.3613 56.9838 22.375V22.3867C56.9838 23.4004 56.351 23.9863 55.267 23.9863H53.7729V20.7812H55.267ZM59.6227 28H61.0817V24.2793C61.0817 23.3652 61.7204 22.7852 62.693 22.7852C62.945 22.7852 63.1852 22.8203 63.4196 22.8672V21.5605C63.279 21.5195 63.0505 21.4902 62.8278 21.4902C61.984 21.4902 61.3981 21.8945 61.1813 22.5801H61.0817V21.5957H59.6227V28ZM66.785 28.1289C68.5253 28.1289 69.3807 27.127 69.5858 26.3008L69.6034 26.248H68.2147L68.1971 26.2891C68.0565 26.582 67.6053 26.9805 66.8143 26.9805C65.8241 26.9805 65.203 26.3125 65.1854 25.1641H69.662V24.6836C69.662 22.75 68.537 21.4727 66.7147 21.4727C64.8925 21.4727 63.7264 22.791 63.7264 24.8066V24.8125C63.7264 26.8516 64.8807 28.1289 66.785 28.1289ZM66.7323 22.6152C67.5467 22.6152 68.1385 23.1367 68.2382 24.1855H65.1971C65.3085 23.166 65.9178 22.6152 66.7323 22.6152ZM73.1915 30.8945C74.1583 30.8945 74.9317 30.5078 74.9317 29.6582V29.6465C74.9317 29.002 74.4278 28.5801 73.6895 28.5566L74.0235 28.0879C75.3009 27.9062 76.0567 27.0977 76.2384 25.9434L76.2501 25.8965L74.8731 25.9023L74.8614 25.9258C74.6798 26.5996 74.2169 26.9453 73.461 26.9453C72.4708 26.9453 71.879 26.1484 71.879 24.7891V24.7773C71.879 23.4355 72.4649 22.6504 73.461 22.6504C74.2579 22.6504 74.7325 23.0957 74.8673 23.7168L74.8731 23.7344H76.2501V23.7109C76.086 22.3867 75.1016 21.4727 73.4552 21.4727C71.5274 21.4727 70.3966 22.709 70.3966 24.7773V24.7891C70.3966 26.7168 71.3634 27.9297 73.0274 28.1055L72.6231 28.6855V29.248H72.8458C73.3966 29.248 73.6837 29.3477 73.6837 29.6875V29.6992C73.6837 30.0098 73.3145 30.1152 72.9688 30.1152C72.6524 30.1152 72.3595 30.0625 72.2657 30.0332V30.7891C72.5352 30.8535 72.8575 30.8945 73.1915 30.8945ZM79.9964 28.1289C81.9124 28.1289 83.0784 26.875 83.0784 24.8008V24.7891C83.0784 22.7266 81.9065 21.4727 79.9964 21.4727C78.0921 21.4727 76.9143 22.7324 76.9143 24.7891V24.8008C76.9143 26.875 78.0745 28.1289 79.9964 28.1289ZM79.9964 26.9453C78.9827 26.9453 78.4026 26.1543 78.4026 24.8066V24.7949C78.4026 23.4473 78.9827 22.6504 79.9964 22.6504C81.0042 22.6504 81.5843 23.4473 81.5843 24.7949V24.8066C81.5843 26.1543 81.01 26.9453 79.9964 26.9453Z" fill="#614CCB"/>
<path d="M12.875 97H15.6875V88.0781H21.2344L26.0625 97H29.3594L24.1406 87.6406C26.9688 86.75 28.6719 84.3125 28.6719 81.1875V81.1562C28.6719 77.1094 25.8281 74.4531 21.4844 74.4531H12.875V97ZM15.6875 85.5781V76.9531H21.1094C24.0156 76.9531 25.7656 78.5625 25.7656 81.25V81.2812C25.7656 84.0312 24.125 85.5781 21.2344 85.5781H15.6875ZM39.6701 99.2656H41.5451V96.6406C45.2326 96.3438 48.2951 94.2344 48.2951 90.4844V90.4531C48.2951 87.1875 46.0451 85.5312 42.0295 84.5625L41.5451 84.4531V77.2812C43.6545 77.5469 45.1545 78.8438 45.3576 80.9375V80.9688L48.0764 80.9531V80.9375C47.9514 77.5 45.1545 75.1562 41.5451 74.8281V72.1875H39.6701V74.8281C35.967 75.1719 33.3264 77.4531 33.3264 80.7969V80.8281C33.3264 83.8906 35.4201 85.625 39.3107 86.5625L39.6701 86.6562V94.1719C36.9514 93.875 35.7482 92.3281 35.467 90.3906V90.3594L32.7482 90.375V90.3906C32.8732 94.0156 35.9514 96.2812 39.6701 96.625V99.2656ZM36.0451 80.6406V80.6094C36.0451 79.1094 37.2951 77.6094 39.6701 77.2812V84C36.9826 83.3438 36.0451 82.1562 36.0451 80.6406ZM41.6389 87.125C44.7326 87.875 45.5764 88.9688 45.5764 90.6719V90.7031C45.5764 92.5 44.4514 93.9688 41.5451 94.2031V87.1094L41.6389 87.125ZM71.651 97H74.401V92.3281H77.6041V89.8125H74.401V74.4531H70.3229C67.1666 79.1562 63.7135 84.6562 60.6666 89.7656V92.3281H71.651V97ZM63.5416 89.8281V89.6406C65.9948 85.5 68.9479 80.8438 71.4791 77.0625H71.6666V89.8281H63.5416ZM88.9461 97.5312C93.5242 97.5312 96.7899 94.3594 96.7899 89.8125V89.7812C96.7899 85.4219 93.743 82.25 89.5086 82.25C87.4617 82.25 85.6961 83.0781 84.6961 84.5938H84.4461L85.2117 76.9688H95.5399V74.4531H82.993L81.8055 87.4062H84.243C84.5242 86.875 84.8836 86.4375 85.2742 86.0625C86.243 85.1406 87.5242 84.6875 89.0242 84.6875C91.9461 84.6875 94.0399 86.8281 94.0399 89.8281V89.8594C94.0399 92.9062 91.9774 95.0469 88.9774 95.0469C86.3367 95.0469 84.3836 93.3281 84.118 91.1719L84.1024 91.0469H81.3992L81.4149 91.2188C81.743 94.8281 84.743 97.5312 88.9461 97.5312ZM102.054 97.1562C103.179 97.1562 104.085 96.2344 104.085 95.125C104.085 94 103.179 93.0938 102.054 93.0938C100.944 93.0938 100.022 94 100.022 95.125C100.022 96.2344 100.944 97.1562 102.054 97.1562ZM115.036 73.9219C110.49 73.9219 107.146 77.1875 107.146 81.6875V81.7188C107.146 86.0469 110.302 89.2656 114.536 89.2656C117.583 89.2656 119.708 87.625 120.536 85.7812H120.833C120.833 85.9531 120.833 86.1406 120.818 86.3125C120.646 91.0156 118.974 95.0156 114.88 95.0156C112.599 95.0156 111.021 93.8438 110.333 91.9531L110.271 91.7812H107.443L107.49 91.9844C108.255 95.3125 111.068 97.5312 114.849 97.5312C120.318 97.5312 123.521 93.0312 123.521 85.3438V85.3125C123.521 76.8281 119.161 73.9219 115.036 73.9219ZM115.021 86.8125C112.099 86.8125 109.974 84.6562 109.974 81.6562V81.625C109.974 78.7031 112.24 76.4062 115.068 76.4062C117.927 76.4062 120.161 78.75 120.161 81.7188V81.7344C120.161 84.6719 117.943 86.8125 115.021 86.8125ZM135.175 97.5312C140.16 97.5312 143.16 92.9844 143.16 85.7344V85.7031C143.16 78.4531 140.16 73.9219 135.175 73.9219C130.191 73.9219 127.222 78.4531 127.222 85.7031V85.7344C127.222 92.9844 130.191 97.5312 135.175 97.5312ZM135.175 95.0781C131.941 95.0781 130.05 91.4844 130.05 85.7344V85.7031C130.05 79.9531 131.941 76.3906 135.175 76.3906C138.41 76.3906 140.331 79.9531 140.331 85.7031V85.7344C140.331 91.4844 138.41 95.0781 135.175 95.0781Z" fill="black"/>
<rect x="10" y="116" width="119" height="29" rx="4" fill="#614CCB"/>
<path d="M36.4062 134.641C37.9883 134.641 39.1895 133.949 39.7285 132.801C39.8223 132.602 39.8691 132.426 39.8691 132.232C39.8691 131.834 39.582 131.559 39.166 131.559C38.8379 131.559 38.6445 131.699 38.4922 132.045C38.1055 132.936 37.3613 133.357 36.3945 133.357C34.9297 133.357 34.0039 132.168 34.0039 130.27C34.0039 128.383 34.9355 127.188 36.3887 127.188C37.3086 127.188 38.0762 127.662 38.4688 128.57C38.6328 128.939 38.8613 129.104 39.207 129.104C39.6113 129.104 39.875 128.846 39.875 128.441C39.875 128.266 39.8281 128.066 39.7344 127.873C39.1777 126.637 37.9414 125.904 36.377 125.904C33.9863 125.904 32.457 127.574 32.457 130.27C32.457 132.982 33.9629 134.641 36.4062 134.641ZM43.3752 134.623C45.1975 134.623 46.3811 133.41 46.3811 131.395C46.3811 129.385 45.1858 128.16 43.3752 128.16C41.5647 128.16 40.3693 129.391 40.3693 131.395C40.3693 133.41 41.5529 134.623 43.3752 134.623ZM43.3752 133.469C42.4494 133.469 41.8518 132.719 41.8518 131.395C41.8518 130.076 42.4553 129.32 43.3752 129.32C44.301 129.32 44.8986 130.076 44.8986 131.395C44.8986 132.719 44.301 133.469 43.3752 133.469ZM47.6371 134.617C48.0707 134.617 48.3695 134.336 48.3695 133.85V130.697C48.3695 129.947 48.8617 129.402 49.5649 129.402C50.2445 129.402 50.6664 129.83 50.6664 130.521V133.85C50.6664 134.336 50.936 134.617 51.3754 134.617C51.809 134.617 52.0844 134.336 52.0844 133.85V130.662C52.0844 129.918 52.5649 129.402 53.268 129.402C53.9828 129.402 54.3813 129.836 54.3813 130.598V133.85C54.3813 134.336 54.6742 134.617 55.1137 134.617C55.5473 134.617 55.8403 134.336 55.8403 133.85V130.24C55.8403 128.998 55.0375 128.172 53.8129 128.172C52.9164 128.172 52.1781 128.652 51.8793 129.42H51.8442C51.6156 128.623 50.9887 128.172 50.1098 128.172C49.266 128.172 48.6098 128.646 48.3403 129.367H48.311V128.91C48.311 128.436 48.018 128.166 47.6078 128.166C47.1977 128.166 46.9106 128.436 46.9106 128.91V133.85C46.9106 134.336 47.1977 134.617 47.6371 134.617ZM57.3307 136.709C57.7584 136.709 58.0631 136.434 58.0631 135.941V133.469H58.0924C58.4323 134.166 59.1354 134.6 60.0377 134.6C61.5963 134.6 62.5924 133.375 62.5924 131.395C62.5924 129.408 61.5905 128.184 60.0143 128.184C59.1119 128.184 58.4088 128.641 58.0573 129.361H58.028V128.916C58.028 128.436 57.7291 128.166 57.3131 128.166C56.8971 128.166 56.6041 128.436 56.6041 128.916V135.941C56.6041 136.434 56.903 136.709 57.3307 136.709ZM59.569 133.404C58.6608 133.404 58.0573 132.613 58.0514 131.395C58.0573 130.188 58.6608 129.385 59.569 129.385C60.5123 129.385 61.0983 130.17 61.0983 131.395C61.0983 132.625 60.5123 133.404 59.569 133.404ZM63.8485 134.617C64.2879 134.617 64.5809 134.33 64.5809 133.85V130.861C64.5809 130.105 64.8973 129.584 65.7293 129.578C66.0164 129.572 66.2332 129.508 66.3739 129.385C66.5203 129.268 66.5907 129.098 66.5907 128.869C66.5907 128.629 66.5203 128.453 66.3856 128.342C66.2743 128.242 66.0985 128.184 65.87 128.184C65.2489 128.184 64.7098 128.652 64.5399 129.379H64.5106V128.904C64.5106 128.447 64.2235 128.166 63.8192 128.166C63.4032 128.166 63.1219 128.447 63.1219 128.904V133.85C63.1219 134.33 63.409 134.617 63.8485 134.617ZM68.5205 134.6C69.3233 134.6 70.1026 134.184 70.46 133.51H70.4893V133.943C70.5127 134.377 70.7881 134.617 71.1866 134.617C71.5967 134.617 71.8955 134.354 71.8955 133.885V130.223C71.8955 128.975 70.8936 128.16 69.3526 128.16C68.1631 128.16 67.2022 128.617 66.8858 129.338C66.8213 129.473 66.7862 129.602 66.7862 129.736C66.7862 130.088 67.044 130.322 67.4014 130.322C67.6475 130.322 67.8409 130.229 67.9932 130.029C68.3565 129.496 68.7256 129.303 69.294 129.303C70.0147 129.303 70.4541 129.678 70.4541 130.328V130.773L68.8077 130.867C67.2959 130.961 66.4463 131.623 66.4463 132.725C66.4463 133.844 67.3194 134.6 68.5205 134.6ZM68.9659 133.498C68.333 133.498 67.9053 133.176 67.9053 132.666C67.9053 132.174 68.3096 131.857 69.0127 131.811L70.4541 131.723V132.197C70.4541 132.947 69.7862 133.498 68.9659 133.498ZM73.3918 134.617C73.8313 134.617 74.1243 134.33 74.1243 133.85V130.861C74.1243 130.105 74.4407 129.584 75.2727 129.578C75.5598 129.572 75.7766 129.508 75.9172 129.385C76.0637 129.268 76.134 129.098 76.134 128.869C76.134 128.629 76.0637 128.453 75.929 128.342C75.8176 128.242 75.6418 128.184 75.4133 128.184C74.7922 128.184 74.2532 128.652 74.0833 129.379H74.054V128.904C74.054 128.447 73.7668 128.166 73.3625 128.166C72.9465 128.166 72.6653 128.447 72.6653 128.904V133.85C72.6653 134.33 72.9524 134.617 73.3918 134.617ZM80.1989 134.6C81.0016 134.6 81.7809 134.184 82.1383 133.51H82.1676V133.943C82.1911 134.377 82.4665 134.617 82.8649 134.617C83.2751 134.617 83.5739 134.354 83.5739 133.885V130.223C83.5739 128.975 82.5719 128.16 81.0309 128.16C79.8415 128.16 78.8805 128.617 78.5641 129.338C78.4997 129.473 78.4645 129.602 78.4645 129.736C78.4645 130.088 78.7223 130.322 79.0798 130.322C79.3258 130.322 79.5192 130.229 79.6715 130.029C80.0348 129.496 80.404 129.303 80.9723 129.303C81.693 129.303 82.1325 129.678 82.1325 130.328V130.773L80.486 130.867C78.9743 130.961 78.1247 131.623 78.1247 132.725C78.1247 133.844 78.9977 134.6 80.1989 134.6ZM80.6442 133.498C80.0114 133.498 79.5837 133.176 79.5837 132.666C79.5837 132.174 79.988 131.857 80.6911 131.811L82.1325 131.723V132.197C82.1325 132.947 81.4645 133.498 80.6442 133.498ZM87.0214 136.838C88.9374 136.85 90.08 135.865 90.08 134.301V128.91C90.08 128.43 89.7753 128.166 89.3534 128.166C88.9374 128.166 88.621 128.43 88.621 128.91V129.344H88.5975C88.2401 128.641 87.5546 128.184 86.6698 128.184C85.0702 128.184 84.0858 129.373 84.0858 131.318C84.0858 133.229 85.0819 134.436 86.6405 134.436C87.5311 134.436 88.2635 133.984 88.5858 133.316H88.6151V134.307C88.6151 135.133 88.0233 135.689 87.0331 135.678C86.4413 135.672 86.0077 135.438 85.5214 134.951C85.3397 134.775 85.1932 134.705 84.9882 134.705C84.619 134.705 84.3788 134.945 84.3788 135.268C84.3788 135.42 84.4139 135.561 84.5018 135.707C84.9178 136.375 85.8319 136.832 87.0214 136.838ZM87.0858 133.299C86.1659 133.299 85.58 132.561 85.58 131.33C85.58 130.111 86.1659 129.338 87.0858 129.338C88.0175 129.338 88.6268 130.123 88.6268 131.33C88.6268 132.543 88.0175 133.299 87.0858 133.299ZM93.6095 134.623C95.4317 134.623 96.6153 133.41 96.6153 131.395C96.6153 129.385 95.42 128.16 93.6095 128.16C91.7989 128.16 90.6036 129.391 90.6036 131.395C90.6036 133.41 91.7872 134.623 93.6095 134.623ZM93.6095 133.469C92.6837 133.469 92.086 132.719 92.086 131.395C92.086 130.076 92.6895 129.32 93.6095 129.32C94.5352 129.32 95.1329 130.076 95.1329 131.395C95.1329 132.719 94.5352 133.469 93.6095 133.469ZM97.8714 134.617C98.3108 134.617 98.6038 134.33 98.6038 133.85V130.861C98.6038 130.105 98.9202 129.584 99.7522 129.578C100.039 129.572 100.256 129.508 100.397 129.385C100.543 129.268 100.614 129.098 100.614 128.869C100.614 128.629 100.543 128.453 100.408 128.342C100.297 128.242 100.121 128.184 99.8929 128.184C99.2718 128.184 98.7327 128.652 98.5628 129.379H98.5335V128.904C98.5335 128.447 98.2464 128.166 97.8421 128.166C97.4261 128.166 97.1448 128.447 97.1448 128.904V133.85C97.1448 134.33 97.4319 134.617 97.8714 134.617ZM102.543 134.6C103.346 134.6 104.125 134.184 104.483 133.51H104.512V133.943C104.536 134.377 104.811 134.617 105.209 134.617C105.62 134.617 105.918 134.354 105.918 133.885V130.223C105.918 128.975 104.917 128.16 103.375 128.16C102.186 128.16 101.225 128.617 100.909 129.338C100.844 129.473 100.809 129.602 100.809 129.736C100.809 130.088 101.067 130.322 101.424 130.322C101.67 130.322 101.864 130.229 102.016 130.029C102.379 129.496 102.749 129.303 103.317 129.303C104.038 129.303 104.477 129.678 104.477 130.328V130.773L102.831 130.867C101.319 130.961 100.469 131.623 100.469 132.725C100.469 133.844 101.342 134.6 102.543 134.6ZM102.989 133.498C102.356 133.498 101.928 133.176 101.928 132.666C101.928 132.174 102.333 131.857 103.036 131.811L104.477 131.723V132.197C104.477 132.947 103.809 133.498 102.989 133.498Z" fill="#EEEEEF"/>
<path d="M0 186C0 180.477 4.47715 176 10 176H161C166.523 176 171 180.477 171 186V304C171 309.523 166.523 314 161 314H10C4.47716 314 0 309.523 0 304V186Z" fill="#FAF9FF"/>
<path d="M11.8066 208H20.3223V206.789H13.1445V201.379H19.9609V200.188H13.1445V195.119H20.3223V193.908H11.8066V208ZM26.4768 208.176C28.7717 208.176 30.5393 206.906 30.5393 205.1V205.08C30.5393 203.566 29.5529 202.746 27.5217 202.258L26.0666 201.916C24.6701 201.584 24.0256 201.086 24.0256 200.227V200.207C24.0256 199.162 25.1096 198.391 26.4865 198.391C27.883 198.391 28.8596 199.055 29.094 200.031H30.3635C30.1193 198.371 28.6154 197.307 26.4963 197.307C24.3772 197.307 22.7072 198.566 22.7072 200.266V200.275C22.7072 201.75 23.6154 202.561 25.5686 203.02L27.0334 203.371C28.5666 203.732 29.2209 204.27 29.2209 205.178V205.197C29.2209 206.291 28.0588 207.082 26.5158 207.082C24.9924 207.082 23.9865 206.408 23.7033 205.363H22.3752C22.59 207.082 24.1818 208.176 26.4768 208.176ZM36.2641 208.068C36.5766 208.068 36.8695 208.039 37.1625 207.99V206.877C36.8988 206.906 36.7035 206.916 36.4106 206.916C35.2192 206.916 34.7602 206.379 34.7602 205.09V198.566H37.1625V197.482H34.7602V194.748H33.4223V197.482H31.7328V198.566H33.4223V205.383C33.4223 207.297 34.2524 208.068 36.2641 208.068ZM43.0533 208.176C44.6842 208.176 45.8658 207.434 46.3834 206.164H46.5006V208H47.7897V197.482H46.5006V203.732C46.5006 205.725 45.3287 207.023 43.3658 207.023C41.5592 207.023 40.651 205.959 40.651 203.996V197.482H39.3619V204.318C39.3619 206.73 40.6901 208.176 43.0533 208.176ZM54.5985 208.176C56.2196 208.176 57.5184 207.316 58.1336 205.9H58.2508V208H59.5496V193.293H58.2508V199.533H58.1336C57.5477 198.176 56.1903 197.307 54.5985 197.307C51.9325 197.307 50.1551 199.475 50.1551 202.736V202.756C50.1551 205.998 51.9422 208.176 54.5985 208.176ZM54.8719 207.023C52.7918 207.023 51.4735 205.354 51.4735 202.746V202.727C51.4735 200.129 52.7918 198.459 54.8719 198.459C56.9422 198.459 58.2801 200.139 58.2801 202.727V202.746C58.2801 205.344 56.9422 207.023 54.8719 207.023ZM65.4405 208.176C66.9932 208.176 68.253 207.443 68.878 206.193H68.9952V208H70.294V200.812C70.294 198.596 68.8584 197.307 66.3975 197.307C64.2198 197.307 62.628 198.381 62.3545 200.061L62.3448 200.1H63.6436L63.6534 200.08C63.9268 199.035 64.9327 198.459 66.3584 198.459C68.0577 198.459 68.9952 199.279 68.9952 200.822V201.809L65.7139 202.023C63.2823 202.189 61.9248 203.254 61.9248 205.08V205.1C61.9248 206.975 63.4092 208.176 65.4405 208.176ZM63.2432 205.08V205.061C63.2432 203.869 64.1026 203.195 65.8897 203.078L68.9952 202.863V204.084C68.9952 205.754 67.5694 207.043 65.6846 207.043C64.2686 207.043 63.2432 206.281 63.2432 205.08ZM73.1282 208H74.4172V201.75C74.4172 199.768 75.677 198.459 77.5325 198.459C79.3586 198.459 80.2668 199.484 80.2668 201.486V208H81.5559V201.164C81.5559 198.713 80.218 197.307 77.8743 197.307C76.2336 197.307 75.1008 198.059 74.5442 199.328H74.4172V197.482H73.1282V208ZM87.8374 208.068C88.1499 208.068 88.4428 208.039 88.7358 207.99V206.877C88.4721 206.906 88.2768 206.916 87.9838 206.916C86.7924 206.916 86.3335 206.379 86.3335 205.09V198.566H88.7358V197.482H86.3335V194.748H84.9956V197.482H83.3061V198.566H84.9956V205.383C84.9956 207.297 85.8256 208.068 87.8374 208.068ZM91.736 195.295C92.2536 195.295 92.6833 194.875 92.6833 194.348C92.6833 193.82 92.2536 193.4 91.736 193.4C91.2087 193.4 90.779 193.82 90.779 194.348C90.779 194.875 91.2087 195.295 91.736 195.295ZM91.0817 208H92.3708V197.482H91.0817V208ZM95.4198 208H96.7089V193.293H95.4198V208Z" fill="black"/>
<path d="M12.875 252H15.6875V243.078H21.2344L26.0625 252H29.3594L24.1406 242.641C26.9688 241.75 28.6719 239.312 28.6719 236.188V236.156C28.6719 232.109 25.8281 229.453 21.4844 229.453H12.875V252ZM15.6875 240.578V231.953H21.1094C24.0156 231.953 25.7656 233.562 25.7656 236.25V236.281C25.7656 239.031 24.125 240.578 21.2344 240.578H15.6875ZM39.6701 254.266H41.5451V251.641C45.2326 251.344 48.2951 249.234 48.2951 245.484V245.453C48.2951 242.188 46.0451 240.531 42.0295 239.562L41.5451 239.453V232.281C43.6545 232.547 45.1545 233.844 45.3576 235.938V235.969L48.0764 235.953V235.938C47.9514 232.5 45.1545 230.156 41.5451 229.828V227.188H39.6701V229.828C35.967 230.172 33.3264 232.453 33.3264 235.797V235.828C33.3264 238.891 35.4201 240.625 39.3107 241.562L39.6701 241.656V249.172C36.9514 248.875 35.7482 247.328 35.467 245.391V245.359L32.7482 245.375V245.391C32.8732 249.016 35.9514 251.281 39.6701 251.625V254.266ZM36.0451 235.641V235.609C36.0451 234.109 37.2951 232.609 39.6701 232.281V239C36.9826 238.344 36.0451 237.156 36.0451 235.641ZM41.6389 242.125C44.7326 242.875 45.5764 243.969 45.5764 245.672V245.703C45.5764 247.5 44.4514 248.969 41.5451 249.203V242.109L41.6389 242.125ZM69.3229 252.531C73.8698 252.531 77.2135 249.266 77.2135 244.766V244.734C77.2135 240.406 74.0573 237.188 69.8229 237.188C66.776 237.188 64.651 238.828 63.8229 240.672H63.526C63.526 240.5 63.526 240.312 63.5416 240.141C63.7135 235.438 65.3854 231.438 69.4791 231.438C71.7604 231.438 73.3385 232.609 74.026 234.5L74.0885 234.672H76.9166L76.8698 234.469C76.1041 231.141 73.2916 228.922 69.5104 228.922C64.0416 228.922 60.8385 233.422 60.8385 241.109V241.141C60.8385 249.625 65.1979 252.531 69.3229 252.531ZM64.1979 244.734V244.719C64.1979 241.781 66.4166 239.641 69.3385 239.641C72.2604 239.641 74.3854 241.797 74.3854 244.797V244.828C74.3854 247.75 72.1198 250.047 69.2916 250.047C66.4323 250.047 64.1979 247.703 64.1979 244.734ZM88.868 252.531C93.8524 252.531 96.8524 247.984 96.8524 240.734V240.703C96.8524 233.453 93.8524 228.922 88.868 228.922C83.8836 228.922 80.9149 233.453 80.9149 240.703V240.734C80.9149 247.984 83.8836 252.531 88.868 252.531ZM88.868 250.078C85.6336 250.078 83.743 246.484 83.743 240.734V240.703C83.743 234.953 85.6336 231.391 88.868 231.391C92.1024 231.391 94.0242 234.953 94.0242 240.703V240.734C94.0242 246.484 92.1024 250.078 88.868 250.078ZM102.054 252.156C103.179 252.156 104.085 251.234 104.085 250.125C104.085 249 103.179 248.094 102.054 248.094C100.944 248.094 100.022 249 100.022 250.125C100.022 251.234 100.944 252.156 102.054 252.156ZM115.036 228.922C110.49 228.922 107.146 232.188 107.146 236.688V236.719C107.146 241.047 110.302 244.266 114.536 244.266C117.583 244.266 119.708 242.625 120.536 240.781H120.833C120.833 240.953 120.833 241.141 120.818 241.312C120.646 246.016 118.974 250.016 114.88 250.016C112.599 250.016 111.021 248.844 110.333 246.953L110.271 246.781H107.443L107.49 246.984C108.255 250.312 111.068 252.531 114.849 252.531C120.318 252.531 123.521 248.031 123.521 240.344V240.312C123.521 231.828 119.161 228.922 115.036 228.922ZM115.021 241.812C112.099 241.812 109.974 239.656 109.974 236.656V236.625C109.974 233.703 112.24 231.406 115.068 231.406C117.927 231.406 120.161 233.75 120.161 236.719V236.734C120.161 239.672 117.943 241.812 115.021 241.812ZM135.175 252.531C140.16 252.531 143.16 247.984 143.16 240.734V240.703C143.16 233.453 140.16 228.922 135.175 228.922C130.191 228.922 127.222 233.453 127.222 240.703V240.734C127.222 247.984 130.191 252.531 135.175 252.531ZM135.175 250.078C131.941 250.078 130.05 246.484 130.05 240.734V240.703C130.05 234.953 131.941 231.391 135.175 231.391C138.41 231.391 140.331 234.953 140.331 240.703V240.734C140.331 246.484 138.41 250.078 135.175 250.078Z" fill="black"/>
<path d="M37.3594 289.641C38.9297 289.641 40.084 288.979 40.6289 287.836C40.7227 287.643 40.7695 287.473 40.7695 287.291C40.7695 286.945 40.5234 286.699 40.166 286.699C39.8789 286.699 39.709 286.828 39.5684 287.139C39.1758 288.053 38.3848 288.492 37.3535 288.492C35.8008 288.492 34.8164 287.244 34.8164 285.27C34.8164 283.312 35.8125 282.053 37.3477 282.053C38.3203 282.053 39.1523 282.557 39.5449 283.5C39.6914 283.84 39.8965 283.992 40.207 283.992C40.5586 283.992 40.793 283.764 40.793 283.412C40.793 283.254 40.752 283.078 40.6699 282.908C40.1426 281.66 38.9004 280.904 37.3477 280.904C34.9863 280.904 33.4746 282.592 33.4746 285.27C33.4746 287.965 34.9688 289.641 37.3594 289.641ZM44.2111 289.617C45.9748 289.617 47.135 288.404 47.135 286.418C47.135 284.438 45.969 283.225 44.2111 283.225C42.4533 283.225 41.2873 284.438 41.2873 286.418C41.2873 288.404 42.4475 289.617 44.2111 289.617ZM44.2111 288.574C43.2209 288.574 42.5764 287.789 42.5764 286.418C42.5764 285.053 43.2209 284.268 44.2111 284.268C45.2014 284.268 45.8459 285.053 45.8459 286.418C45.8459 287.789 45.2072 288.574 44.2111 288.574ZM48.3383 289.611C48.7192 289.611 48.9711 289.348 48.9711 288.943V285.691C48.9711 284.9 49.5043 284.314 50.2543 284.314C50.9692 284.314 51.4203 284.766 51.4203 285.475V288.943C51.4203 289.348 51.6606 289.611 52.0414 289.611C52.4223 289.611 52.6625 289.348 52.6625 288.943V285.65C52.6625 284.871 53.184 284.314 53.934 284.314C54.684 284.314 55.1117 284.771 55.1117 285.568V288.943C55.1117 289.348 55.3637 289.611 55.7445 289.611C56.1254 289.611 56.3832 289.348 56.3832 288.943V285.264C56.3832 284.039 55.5863 283.23 54.3676 283.23C53.4887 283.23 52.7621 283.688 52.4457 284.438H52.4164C52.1703 283.67 51.5492 283.23 50.6938 283.23C49.8617 283.23 49.2172 283.688 48.9418 284.373H48.9125V283.869C48.9125 283.465 48.6606 283.225 48.309 283.225C47.9516 283.225 47.7055 283.471 47.7055 283.869V288.943C47.7055 289.348 47.9574 289.611 48.3383 289.611ZM57.8326 291.686C58.2018 291.686 58.4655 291.428 58.4655 291.012V288.486H58.4948C58.8463 289.172 59.5494 289.605 60.4342 289.605C61.9811 289.605 63.0065 288.369 63.0065 286.418C63.0065 284.467 61.9752 283.236 60.4108 283.236C59.5201 283.236 58.8112 283.688 58.4479 284.396H58.4244V283.875C58.4244 283.471 58.1666 283.225 57.8092 283.225C57.4518 283.225 57.1998 283.471 57.1998 283.875V291.012C57.1998 291.428 57.4576 291.686 57.8326 291.686ZM60.0768 288.533C59.1041 288.533 58.4596 287.701 58.4596 286.418C58.4596 285.146 59.11 284.303 60.0768 284.303C61.0787 284.303 61.7057 285.129 61.7057 286.418C61.7057 287.713 61.0787 288.533 60.0768 288.533ZM64.2098 289.611C64.5848 289.611 64.8426 289.354 64.8426 288.943V285.797C64.8426 285.029 65.1942 284.449 66.0614 284.443C66.325 284.443 66.5125 284.391 66.6414 284.279C66.7645 284.18 66.8289 284.033 66.8289 283.834C66.8289 283.635 66.7762 283.482 66.659 283.389C66.5535 283.289 66.3836 283.236 66.161 283.236C65.5457 283.236 64.9774 283.699 64.8075 284.391H64.7782V283.863C64.7782 283.477 64.5321 283.225 64.1805 283.225C63.8231 283.225 63.577 283.477 63.577 283.863V288.943C63.577 289.354 63.8289 289.611 64.2098 289.611ZM68.7823 289.605C69.585 289.605 70.3702 289.172 70.7276 288.486H70.7569V289.008C70.7686 289.383 71.0088 289.611 71.3604 289.611C71.7178 289.611 71.9698 289.371 71.9698 288.973V285.252C71.9698 284.016 71.0147 283.225 69.5205 283.225C68.4131 283.225 67.4815 283.67 67.1592 284.367C67.083 284.508 67.0479 284.648 67.0479 284.777C67.0479 285.094 67.2764 285.305 67.5928 285.305C67.8155 285.305 67.9795 285.223 68.1084 285.035C68.46 284.473 68.8643 284.256 69.4737 284.256C70.2471 284.256 70.71 284.666 70.71 285.352V285.826L69.0166 285.926C67.5577 286.008 66.7256 286.67 66.7256 287.748C66.7256 288.855 67.5752 289.605 68.7823 289.605ZM69.128 288.604C68.4541 288.604 68.003 288.252 68.003 287.713C68.003 287.186 68.4307 286.852 69.1866 286.799L70.71 286.705V287.191C70.71 287.994 70.0127 288.604 69.128 288.604ZM73.425 289.611C73.8 289.611 74.0579 289.354 74.0579 288.943V285.797C74.0579 285.029 74.4094 284.449 75.2766 284.443C75.5403 284.443 75.7278 284.391 75.8567 284.279C75.9797 284.18 76.0442 284.033 76.0442 283.834C76.0442 283.635 75.9915 283.482 75.8743 283.389C75.7688 283.289 75.5989 283.236 75.3762 283.236C74.761 283.236 74.1926 283.699 74.0227 284.391H73.9934V283.863C73.9934 283.477 73.7473 283.225 73.3958 283.225C73.0383 283.225 72.7922 283.477 72.7922 283.863V288.943C72.7922 289.354 73.0442 289.611 73.425 289.611ZM80.1559 289.605C80.9587 289.605 81.7438 289.172 82.1012 288.486H82.1305V289.008C82.1423 289.383 82.3825 289.611 82.734 289.611C83.0915 289.611 83.3434 289.371 83.3434 288.973V285.252C83.3434 284.016 82.3883 283.225 80.8942 283.225C79.7868 283.225 78.8551 283.67 78.5329 284.367C78.4567 284.508 78.4215 284.648 78.4215 284.777C78.4215 285.094 78.6501 285.305 78.9665 285.305C79.1891 285.305 79.3532 285.223 79.4821 285.035C79.8337 284.473 80.238 284.256 80.8473 284.256C81.6208 284.256 82.0837 284.666 82.0837 285.352V285.826L80.3903 285.926C78.9313 286.008 78.0993 286.67 78.0993 287.748C78.0993 288.855 78.9489 289.605 80.1559 289.605ZM80.5016 288.604C79.8278 288.604 79.3766 288.252 79.3766 287.713C79.3766 287.186 79.8044 286.852 80.5602 286.799L82.0837 286.705V287.191C82.0837 287.994 81.3864 288.604 80.5016 288.604ZM86.7499 291.82C88.5839 291.838 89.703 290.854 89.703 289.33V283.875C89.703 283.465 89.4335 283.225 89.0702 283.225C88.7069 283.225 88.4315 283.465 88.4315 283.875V284.373H88.4081C88.0331 283.676 87.3534 283.236 86.4803 283.236C84.8866 283.236 83.8905 284.438 83.8905 286.365C83.8905 288.27 84.8983 289.482 86.451 289.482C87.33 289.482 88.0565 289.043 88.4022 288.375H88.4315V289.354C88.4315 290.215 87.8046 290.801 86.7733 290.789C86.1698 290.777 85.7362 290.549 85.2323 290.021C85.0624 289.852 84.9393 289.787 84.746 289.787C84.4237 289.787 84.2069 289.998 84.2069 290.291C84.2069 290.438 84.2421 290.566 84.3241 290.707C84.746 291.375 85.6307 291.809 86.7499 291.82ZM86.7909 288.451C85.8182 288.451 85.1854 287.66 85.1854 286.371C85.1854 285.088 85.8182 284.279 86.7909 284.279C87.7811 284.279 88.4374 285.111 88.4374 286.377C88.4374 287.643 87.7811 288.451 86.7909 288.451ZM93.1915 289.617C94.9552 289.617 96.1153 288.404 96.1153 286.418C96.1153 284.438 94.9493 283.225 93.1915 283.225C91.4337 283.225 90.2677 284.438 90.2677 286.418C90.2677 288.404 91.4278 289.617 93.1915 289.617ZM93.1915 288.574C92.2012 288.574 91.5567 287.789 91.5567 286.418C91.5567 285.053 92.2012 284.268 93.1915 284.268C94.1817 284.268 94.8262 285.053 94.8262 286.418C94.8262 287.789 94.1876 288.574 93.1915 288.574ZM97.3186 289.611C97.6936 289.611 97.9515 289.354 97.9515 288.943V285.797C97.9515 285.029 98.303 284.449 99.1702 284.443C99.4339 284.443 99.6214 284.391 99.7503 284.279C99.8733 284.18 99.9378 284.033 99.9378 283.834C99.9378 283.635 99.885 283.482 99.7679 283.389C99.6624 283.289 99.4925 283.236 99.2698 283.236C98.6546 283.236 98.0862 283.699 97.9163 284.391H97.887V283.863C97.887 283.477 97.6409 283.225 97.2893 283.225C96.9319 283.225 96.6858 283.477 96.6858 283.863V288.943C96.6858 289.354 96.9378 289.611 97.3186 289.611ZM101.891 289.605C102.694 289.605 103.479 289.172 103.836 288.486H103.866V289.008C103.877 289.383 104.118 289.611 104.469 289.611C104.827 289.611 105.079 289.371 105.079 288.973V285.252C105.079 284.016 104.124 283.225 102.629 283.225C101.522 283.225 100.59 283.67 100.268 284.367C100.192 284.508 100.157 284.648 100.157 284.777C100.157 285.094 100.385 285.305 100.702 285.305C100.924 285.305 101.088 285.223 101.217 285.035C101.569 284.473 101.973 284.256 102.583 284.256C103.356 284.256 103.819 284.666 103.819 285.352V285.826L102.125 285.926C100.667 286.008 99.8345 286.67 99.8345 287.748C99.8345 288.855 100.684 289.605 101.891 289.605ZM102.237 288.604C101.563 288.604 101.112 288.252 101.112 287.713C101.112 287.186 101.54 286.852 102.295 286.799L103.819 286.705V287.191C103.819 287.994 103.122 288.604 102.237 288.604Z" fill="#614CCB"/>
<rect x="10.5" y="271.5" width="118" height="28" rx="3.5" stroke="#614CCB"/>
</svg>
