<svg width="285" height="316" viewBox="0 0 285 316" fill="none" xmlns="http://www.w3.org/2000/svg">
<rect x="0.5" y="0.5" width="284" height="164" rx="9.5" fill="#EAE7FE" stroke="#614CCB"/>
<path d="M19.8066 53H21.125V41.291H21.252L29.4941 53H30.7832V38.9082H29.4648V50.6074H29.3379L21.125 38.9082H19.8066V53ZM38.4904 40.998L40.7072 37.7754H39.1643L37.3381 40.998H38.4904ZM38.0705 53.1758C40.3947 53.1758 41.9279 51.9062 42.3381 50.4805L42.3674 50.4023H41.0686L41.0295 50.4707C40.6877 51.291 39.633 52.0137 38.0998 52.0137C36.01 52.0137 34.6623 50.5391 34.6233 48.0781H42.5236V47.5312C42.5236 44.416 40.7854 42.3066 37.9631 42.3066C35.1408 42.3066 33.3049 44.4746 33.3049 47.7559V47.7754C33.3049 51.0762 35.1213 53.1758 38.0705 53.1758ZM37.9631 43.459C39.7697 43.459 41.0686 44.6895 41.215 47.0234H34.633C34.799 44.748 36.1467 43.459 37.9631 43.459ZM49.1567 56.6719C51.9203 56.6719 53.727 55.168 53.727 52.873V42.4824H52.4281V44.6113H52.3403C51.7348 43.2051 50.436 42.3066 48.8149 42.3066C46.1 42.3066 44.3617 44.4551 44.3617 47.4629V47.4824C44.3617 50.5 46.0903 52.6191 48.7953 52.6191C50.4067 52.6191 51.6957 51.8184 52.3207 50.4316H52.4477V52.7852C52.4477 54.4844 51.1879 55.5195 49.1567 55.5195C47.5551 55.5195 46.4613 54.8848 46.227 53.9668L46.2172 53.957H44.8793L44.8695 53.9668C45.143 55.5977 46.7445 56.6719 49.1567 56.6719ZM49.0492 51.4668C46.9496 51.4668 45.6801 49.8359 45.6801 47.4824V47.4629C45.6801 45.1094 46.9496 43.459 49.0492 43.459C51.1293 43.459 52.4672 45.1289 52.4672 47.4824V47.502C52.4672 49.8555 51.1586 51.4668 49.0492 51.4668ZM60.858 53.1758C63.7975 53.1758 65.6432 51.0957 65.6432 47.7461V47.7266C65.6432 44.377 63.7975 42.3066 60.858 42.3066C57.9186 42.3066 56.0826 44.377 56.0826 47.7266V47.7461C56.0826 51.0957 57.9186 53.1758 60.858 53.1758ZM60.858 52.0234C58.6901 52.0234 57.401 50.4023 57.401 47.7461V47.7266C57.401 45.0703 58.6901 43.459 60.858 43.459C63.026 43.459 64.3151 45.0703 64.3151 47.7266V47.7461C64.3151 50.4023 63.026 52.0234 60.858 52.0234ZM72.2176 53.1758C74.62 53.1758 76.0848 51.8965 76.495 50.041L76.5145 49.9629L75.2254 49.9727L75.2059 50.0215C74.8348 51.291 73.7606 52.0234 72.2078 52.0234C70.1278 52.0234 68.7899 50.334 68.7899 47.7168V47.6973C68.7899 45.1094 70.118 43.459 72.2078 43.459C73.8192 43.459 74.9129 44.3477 75.2254 45.5586L75.2352 45.5879L76.5145 45.5781V45.5391C76.1922 43.6934 74.62 42.3066 72.2078 42.3066C69.3075 42.3066 67.4715 44.416 67.4715 47.6973V47.7168C67.4715 51.0469 69.3172 53.1758 72.2176 53.1758ZM79.4952 40.2949C80.0127 40.2949 80.4424 39.875 80.4424 39.3477C80.4424 38.8203 80.0127 38.4004 79.4952 38.4004C78.9678 38.4004 78.5381 38.8203 78.5381 39.3477C78.5381 39.875 78.9678 40.2949 79.4952 40.2949ZM78.8409 53H80.1299V42.4824H78.8409V53ZM87.3293 53.1758C90.2688 53.1758 92.1145 51.0957 92.1145 47.7461V47.7266C92.1145 44.377 90.2688 42.3066 87.3293 42.3066C84.3899 42.3066 82.554 44.377 82.554 47.7266V47.7461C82.554 51.0957 84.3899 53.1758 87.3293 53.1758ZM87.3293 52.0234C85.1614 52.0234 83.8723 50.4023 83.8723 47.7461V47.7266C83.8723 45.0703 85.1614 43.459 87.3293 43.459C89.4973 43.459 90.7864 45.0703 90.7864 47.7266V47.7461C90.7864 50.4023 89.4973 52.0234 87.3293 52.0234ZM98.0053 53.1758C100.3 53.1758 102.068 51.9062 102.068 50.0996V50.0801C102.068 48.5664 101.081 47.7461 99.0502 47.2578L97.5952 46.916C96.1987 46.584 95.5542 46.0859 95.5542 45.2266V45.207C95.5542 44.1621 96.6381 43.3906 98.0151 43.3906C99.4116 43.3906 100.388 44.0547 100.623 45.0312H101.892C101.648 43.3711 100.144 42.3066 98.0249 42.3066C95.9057 42.3066 94.2358 43.5664 94.2358 45.2656V45.2754C94.2358 46.75 95.144 47.5605 97.0971 48.0195L98.562 48.3711C100.095 48.7324 100.749 49.2695 100.749 50.1777V50.1973C100.749 51.291 99.5874 52.082 98.0444 52.082C96.521 52.082 95.5151 51.4082 95.2319 50.3633H93.9038C94.1186 52.082 95.7104 53.1758 98.0053 53.1758Z" fill="black"/>
<path d="M19.043 28H20.4082V21.9883H20.5078L22.8516 28H23.8828L26.2266 21.9883H26.332V28H27.6914V19.5449H25.957L23.4199 26.0488H23.3203L20.7773 19.5449H19.043V28ZM31.9592 28.1289C33.6994 28.1289 34.5549 27.127 34.76 26.3008L34.7775 26.248H33.3889L33.3713 26.2891C33.2307 26.582 32.7795 26.9805 31.9885 26.9805C30.9983 26.9805 30.3772 26.3125 30.3596 25.1641H34.8361V24.6836C34.8361 22.75 33.7111 21.4727 31.8889 21.4727C30.0666 21.4727 28.9006 22.791 28.9006 24.8066V24.8125C28.9006 26.8516 30.0549 28.1289 31.9592 28.1289ZM31.9065 22.6152C32.7209 22.6152 33.3127 23.1367 33.4123 24.1855H30.3713C30.4826 23.166 31.092 22.6152 31.9065 22.6152ZM35.9457 28H37.4047V19.1172H35.9457V28ZM38.901 28H40.36V24.2676C40.36 23.3066 40.899 22.6973 41.7662 22.6973C42.651 22.6973 43.0553 23.2012 43.0553 24.1973V28H44.5143V23.8574C44.5143 22.334 43.735 21.4727 42.3053 21.4727C41.3795 21.4727 40.7643 21.8887 40.4596 22.5742H40.36V19.1172H38.901V28ZM48.5946 28.1289C50.5106 28.1289 51.6766 26.875 51.6766 24.8008V24.7891C51.6766 22.7266 50.5047 21.4727 48.5946 21.4727C46.6903 21.4727 45.5125 22.7324 45.5125 24.7891V24.8008C45.5125 26.875 46.6727 28.1289 48.5946 28.1289ZM48.5946 26.9453C47.5809 26.9453 47.0008 26.1543 47.0008 24.8066V24.7949C47.0008 23.4473 47.5809 22.6504 48.5946 22.6504C49.6024 22.6504 50.1825 23.4473 50.1825 24.7949V24.8066C50.1825 26.1543 49.6082 26.9453 48.5946 26.9453ZM52.7334 28H54.1924V24.2793C54.1924 23.3652 54.8311 22.7852 55.8037 22.7852C56.0557 22.7852 56.2959 22.8203 56.5303 22.8672V21.5605C56.3897 21.5195 56.1612 21.4902 55.9385 21.4902C55.0948 21.4902 54.5088 21.8945 54.292 22.5801H54.1924V21.5957H52.7334V28ZM60.2612 28H61.7729V25.2051H63.6362C65.353 25.2051 66.5131 24.0684 66.5131 22.3809V22.3691C66.5131 20.6758 65.353 19.5449 63.6362 19.5449H60.2612V28ZM63.267 20.7812C64.351 20.7812 64.9838 21.3613 64.9838 22.375V22.3867C64.9838 23.4004 64.351 23.9863 63.267 23.9863H61.7729V20.7812H63.267ZM67.6227 28H69.0817V24.2793C69.0817 23.3652 69.7204 22.7852 70.693 22.7852C70.945 22.7852 71.1852 22.8203 71.4196 22.8672V21.5605C71.279 21.5195 71.0505 21.4902 70.8278 21.4902C69.984 21.4902 69.3981 21.8945 69.1813 22.5801H69.0817V21.5957H67.6227V28ZM74.785 28.1289C76.5253 28.1289 77.3807 27.127 77.5858 26.3008L77.6034 26.248H76.2147L76.1971 26.2891C76.0565 26.582 75.6053 26.9805 74.8143 26.9805C73.8241 26.9805 73.203 26.3125 73.1854 25.1641H77.662V24.6836C77.662 22.75 76.537 21.4727 74.7147 21.4727C72.8925 21.4727 71.7264 22.791 71.7264 24.8066V24.8125C71.7264 26.8516 72.8807 28.1289 74.785 28.1289ZM74.7323 22.6152C75.5467 22.6152 76.1385 23.1367 76.2382 24.1855H73.1971C73.3085 23.166 73.9178 22.6152 74.7323 22.6152ZM81.1915 30.8945C82.1583 30.8945 82.9317 30.5078 82.9317 29.6582V29.6465C82.9317 29.002 82.4278 28.5801 81.6895 28.5566L82.0235 28.0879C83.3009 27.9062 84.0567 27.0977 84.2384 25.9434L84.2501 25.8965L82.8731 25.9023L82.8614 25.9258C82.6798 26.5996 82.2169 26.9453 81.461 26.9453C80.4708 26.9453 79.879 26.1484 79.879 24.7891V24.7773C79.879 23.4355 80.4649 22.6504 81.461 22.6504C82.2579 22.6504 82.7325 23.0957 82.8673 23.7168L82.8731 23.7344H84.2501V23.7109C84.086 22.3867 83.1016 21.4727 81.4552 21.4727C79.5274 21.4727 78.3966 22.709 78.3966 24.7773V24.7891C78.3966 26.7168 79.3634 27.9297 81.0274 28.1055L80.6231 28.6855V29.248H80.8458C81.3966 29.248 81.6837 29.3477 81.6837 29.6875V29.6992C81.6837 30.0098 81.3145 30.1152 80.9688 30.1152C80.6524 30.1152 80.3595 30.0625 80.2657 30.0332V30.7891C80.5352 30.8535 80.8575 30.8945 81.1915 30.8945ZM87.9964 28.1289C89.9124 28.1289 91.0784 26.875 91.0784 24.8008V24.7891C91.0784 22.7266 89.9065 21.4727 87.9964 21.4727C86.0921 21.4727 84.9143 22.7324 84.9143 24.7891V24.8008C84.9143 26.875 86.0745 28.1289 87.9964 28.1289ZM87.9964 26.9453C86.9827 26.9453 86.4026 26.1543 86.4026 24.8066V24.7949C86.4026 23.4473 86.9827 22.6504 87.9964 22.6504C89.0042 22.6504 89.5843 23.4473 89.5843 24.7949V24.8066C89.5843 26.1543 89.01 26.9453 87.9964 26.9453Z" fill="#614CCB"/>
<path d="M20.875 97H23.6875V88.0781H29.2344L34.0625 97H37.3594L32.1406 87.6406C34.9688 86.75 36.6719 84.3125 36.6719 81.1875V81.1562C36.6719 77.1094 33.8281 74.4531 29.4844 74.4531H20.875V97ZM23.6875 85.5781V76.9531H29.1094C32.0156 76.9531 33.7656 78.5625 33.7656 81.25V81.2812C33.7656 84.0312 32.125 85.5781 29.2344 85.5781H23.6875ZM47.6701 99.2656H49.5451V96.6406C53.2326 96.3438 56.2951 94.2344 56.2951 90.4844V90.4531C56.2951 87.1875 54.0451 85.5312 50.0295 84.5625L49.5451 84.4531V77.2812C51.6545 77.5469 53.1545 78.8438 53.3576 80.9375V80.9688L56.0764 80.9531V80.9375C55.9514 77.5 53.1545 75.1562 49.5451 74.8281V72.1875H47.6701V74.8281C43.967 75.1719 41.3264 77.4531 41.3264 80.7969V80.8281C41.3264 83.8906 43.4201 85.625 47.3107 86.5625L47.6701 86.6562V94.1719C44.9514 93.875 43.7482 92.3281 43.467 90.3906V90.3594L40.7482 90.375V90.3906C40.8732 94.0156 43.9514 96.2812 47.6701 96.625V99.2656ZM44.0451 80.6406V80.6094C44.0451 79.1094 45.2951 77.6094 47.6701 77.2812V84C44.9826 83.3438 44.0451 82.1562 44.0451 80.6406ZM49.6389 87.125C52.7326 87.875 53.5764 88.9688 53.5764 90.6719V90.7031C53.5764 92.5 52.4514 93.9688 49.5451 94.2031V87.1094L49.6389 87.125ZM79.651 97H82.401V92.3281H85.6041V89.8125H82.401V74.4531H78.3229C75.1666 79.1562 71.7135 84.6562 68.6666 89.7656V92.3281H79.651V97ZM71.5416 89.8281V89.6406C73.9948 85.5 76.9479 80.8438 79.4791 77.0625H79.6666V89.8281H71.5416ZM96.9461 97.5312C101.524 97.5312 104.79 94.3594 104.79 89.8125V89.7812C104.79 85.4219 101.743 82.25 97.5086 82.25C95.4617 82.25 93.6961 83.0781 92.6961 84.5938H92.4461L93.2117 76.9688H103.54V74.4531H90.993L89.8055 87.4062H92.243C92.5242 86.875 92.8836 86.4375 93.2742 86.0625C94.243 85.1406 95.5242 84.6875 97.0242 84.6875C99.9461 84.6875 102.04 86.8281 102.04 89.8281V89.8594C102.04 92.9062 99.9774 95.0469 96.9774 95.0469C94.3367 95.0469 92.3836 93.3281 92.118 91.1719L92.1024 91.0469H89.3992L89.4149 91.2188C89.743 94.8281 92.743 97.5312 96.9461 97.5312ZM110.054 97.1562C111.179 97.1562 112.085 96.2344 112.085 95.125C112.085 94 111.179 93.0938 110.054 93.0938C108.944 93.0938 108.022 94 108.022 95.125C108.022 96.2344 108.944 97.1562 110.054 97.1562ZM123.036 73.9219C118.49 73.9219 115.146 77.1875 115.146 81.6875V81.7188C115.146 86.0469 118.302 89.2656 122.536 89.2656C125.583 89.2656 127.708 87.625 128.536 85.7812H128.833C128.833 85.9531 128.833 86.1406 128.818 86.3125C128.646 91.0156 126.974 95.0156 122.88 95.0156C120.599 95.0156 119.021 93.8438 118.333 91.9531L118.271 91.7812H115.443L115.49 91.9844C116.255 95.3125 119.068 97.5312 122.849 97.5312C128.318 97.5312 131.521 93.0312 131.521 85.3438V85.3125C131.521 76.8281 127.161 73.9219 123.036 73.9219ZM123.021 86.8125C120.099 86.8125 117.974 84.6562 117.974 81.6562V81.625C117.974 78.7031 120.24 76.4062 123.068 76.4062C125.927 76.4062 128.161 78.75 128.161 81.7188V81.7344C128.161 84.6719 125.943 86.8125 123.021 86.8125ZM143.175 97.5312C148.16 97.5312 151.16 92.9844 151.16 85.7344V85.7031C151.16 78.4531 148.16 73.9219 143.175 73.9219C138.191 73.9219 135.222 78.4531 135.222 85.7031V85.7344C135.222 92.9844 138.191 97.5312 143.175 97.5312ZM143.175 95.0781C139.941 95.0781 138.05 91.4844 138.05 85.7344V85.7031C138.05 79.9531 139.941 76.3906 143.175 76.3906C146.41 76.3906 148.331 79.9531 148.331 85.7031V85.7344C148.331 91.4844 146.41 95.0781 143.175 95.0781Z" fill="black"/>
<rect x="18" y="116" width="119" height="29" rx="4" fill="#614CCB"/>
<path d="M44.4062 134.641C45.9883 134.641 47.1895 133.949 47.7285 132.801C47.8223 132.602 47.8691 132.426 47.8691 132.232C47.8691 131.834 47.582 131.559 47.166 131.559C46.8379 131.559 46.6445 131.699 46.4922 132.045C46.1055 132.936 45.3613 133.357 44.3945 133.357C42.9297 133.357 42.0039 132.168 42.0039 130.27C42.0039 128.383 42.9355 127.188 44.3887 127.188C45.3086 127.188 46.0762 127.662 46.4688 128.57C46.6328 128.939 46.8613 129.104 47.207 129.104C47.6113 129.104 47.875 128.846 47.875 128.441C47.875 128.266 47.8281 128.066 47.7344 127.873C47.1777 126.637 45.9414 125.904 44.377 125.904C41.9863 125.904 40.457 127.574 40.457 130.27C40.457 132.982 41.9629 134.641 44.4062 134.641ZM51.3752 134.623C53.1975 134.623 54.3811 133.41 54.3811 131.395C54.3811 129.385 53.1858 128.16 51.3752 128.16C49.5647 128.16 48.3693 129.391 48.3693 131.395C48.3693 133.41 49.5529 134.623 51.3752 134.623ZM51.3752 133.469C50.4494 133.469 49.8518 132.719 49.8518 131.395C49.8518 130.076 50.4553 129.32 51.3752 129.32C52.301 129.32 52.8986 130.076 52.8986 131.395C52.8986 132.719 52.301 133.469 51.3752 133.469ZM55.6371 134.617C56.0707 134.617 56.3695 134.336 56.3695 133.85V130.697C56.3695 129.947 56.8617 129.402 57.5649 129.402C58.2445 129.402 58.6664 129.83 58.6664 130.521V133.85C58.6664 134.336 58.936 134.617 59.3754 134.617C59.809 134.617 60.0844 134.336 60.0844 133.85V130.662C60.0844 129.918 60.5649 129.402 61.268 129.402C61.9828 129.402 62.3813 129.836 62.3813 130.598V133.85C62.3813 134.336 62.6742 134.617 63.1137 134.617C63.5473 134.617 63.8403 134.336 63.8403 133.85V130.24C63.8403 128.998 63.0375 128.172 61.8129 128.172C60.9164 128.172 60.1781 128.652 59.8793 129.42H59.8442C59.6156 128.623 58.9887 128.172 58.1098 128.172C57.266 128.172 56.6098 128.646 56.3403 129.367H56.311V128.91C56.311 128.436 56.018 128.166 55.6078 128.166C55.1977 128.166 54.9106 128.436 54.9106 128.91V133.85C54.9106 134.336 55.1977 134.617 55.6371 134.617ZM65.3307 136.709C65.7584 136.709 66.0631 136.434 66.0631 135.941V133.469H66.0924C66.4323 134.166 67.1354 134.6 68.0377 134.6C69.5963 134.6 70.5924 133.375 70.5924 131.395C70.5924 129.408 69.5905 128.184 68.0143 128.184C67.1119 128.184 66.4088 128.641 66.0573 129.361H66.028V128.916C66.028 128.436 65.7291 128.166 65.3131 128.166C64.8971 128.166 64.6041 128.436 64.6041 128.916V135.941C64.6041 136.434 64.903 136.709 65.3307 136.709ZM67.569 133.404C66.6608 133.404 66.0573 132.613 66.0514 131.395C66.0573 130.188 66.6608 129.385 67.569 129.385C68.5123 129.385 69.0983 130.17 69.0983 131.395C69.0983 132.625 68.5123 133.404 67.569 133.404ZM71.8485 134.617C72.2879 134.617 72.5809 134.33 72.5809 133.85V130.861C72.5809 130.105 72.8973 129.584 73.7293 129.578C74.0164 129.572 74.2332 129.508 74.3739 129.385C74.5203 129.268 74.5907 129.098 74.5907 128.869C74.5907 128.629 74.5203 128.453 74.3856 128.342C74.2743 128.242 74.0985 128.184 73.87 128.184C73.2489 128.184 72.7098 128.652 72.5399 129.379H72.5106V128.904C72.5106 128.447 72.2235 128.166 71.8192 128.166C71.4032 128.166 71.1219 128.447 71.1219 128.904V133.85C71.1219 134.33 71.409 134.617 71.8485 134.617ZM76.5205 134.6C77.3233 134.6 78.1026 134.184 78.46 133.51H78.4893V133.943C78.5127 134.377 78.7881 134.617 79.1866 134.617C79.5967 134.617 79.8955 134.354 79.8955 133.885V130.223C79.8955 128.975 78.8936 128.16 77.3526 128.16C76.1631 128.16 75.2022 128.617 74.8858 129.338C74.8213 129.473 74.7862 129.602 74.7862 129.736C74.7862 130.088 75.044 130.322 75.4014 130.322C75.6475 130.322 75.8409 130.229 75.9932 130.029C76.3565 129.496 76.7256 129.303 77.294 129.303C78.0147 129.303 78.4541 129.678 78.4541 130.328V130.773L76.8077 130.867C75.2959 130.961 74.4463 131.623 74.4463 132.725C74.4463 133.844 75.3194 134.6 76.5205 134.6ZM76.9659 133.498C76.333 133.498 75.9053 133.176 75.9053 132.666C75.9053 132.174 76.3096 131.857 77.0127 131.811L78.4541 131.723V132.197C78.4541 132.947 77.7862 133.498 76.9659 133.498ZM81.3918 134.617C81.8313 134.617 82.1243 134.33 82.1243 133.85V130.861C82.1243 130.105 82.4407 129.584 83.2727 129.578C83.5598 129.572 83.7766 129.508 83.9172 129.385C84.0637 129.268 84.134 129.098 84.134 128.869C84.134 128.629 84.0637 128.453 83.929 128.342C83.8176 128.242 83.6418 128.184 83.4133 128.184C82.7922 128.184 82.2532 128.652 82.0833 129.379H82.054V128.904C82.054 128.447 81.7668 128.166 81.3625 128.166C80.9465 128.166 80.6653 128.447 80.6653 128.904V133.85C80.6653 134.33 80.9524 134.617 81.3918 134.617ZM88.1989 134.6C89.0016 134.6 89.7809 134.184 90.1383 133.51H90.1676V133.943C90.1911 134.377 90.4665 134.617 90.8649 134.617C91.2751 134.617 91.5739 134.354 91.5739 133.885V130.223C91.5739 128.975 90.5719 128.16 89.0309 128.16C87.8415 128.16 86.8805 128.617 86.5641 129.338C86.4997 129.473 86.4645 129.602 86.4645 129.736C86.4645 130.088 86.7223 130.322 87.0798 130.322C87.3258 130.322 87.5192 130.229 87.6715 130.029C88.0348 129.496 88.404 129.303 88.9723 129.303C89.693 129.303 90.1325 129.678 90.1325 130.328V130.773L88.486 130.867C86.9743 130.961 86.1247 131.623 86.1247 132.725C86.1247 133.844 86.9977 134.6 88.1989 134.6ZM88.6442 133.498C88.0114 133.498 87.5837 133.176 87.5837 132.666C87.5837 132.174 87.988 131.857 88.6911 131.811L90.1325 131.723V132.197C90.1325 132.947 89.4645 133.498 88.6442 133.498ZM95.0214 136.838C96.9374 136.85 98.08 135.865 98.08 134.301V128.91C98.08 128.43 97.7753 128.166 97.3534 128.166C96.9374 128.166 96.621 128.43 96.621 128.91V129.344H96.5975C96.2401 128.641 95.5546 128.184 94.6698 128.184C93.0702 128.184 92.0858 129.373 92.0858 131.318C92.0858 133.229 93.0819 134.436 94.6405 134.436C95.5311 134.436 96.2635 133.984 96.5858 133.316H96.6151V134.307C96.6151 135.133 96.0233 135.689 95.0331 135.678C94.4413 135.672 94.0077 135.438 93.5214 134.951C93.3397 134.775 93.1932 134.705 92.9882 134.705C92.619 134.705 92.3788 134.945 92.3788 135.268C92.3788 135.42 92.4139 135.561 92.5018 135.707C92.9178 136.375 93.8319 136.832 95.0214 136.838ZM95.0858 133.299C94.1659 133.299 93.58 132.561 93.58 131.33C93.58 130.111 94.1659 129.338 95.0858 129.338C96.0175 129.338 96.6268 130.123 96.6268 131.33C96.6268 132.543 96.0175 133.299 95.0858 133.299ZM101.609 134.623C103.432 134.623 104.615 133.41 104.615 131.395C104.615 129.385 103.42 128.16 101.609 128.16C99.7989 128.16 98.6036 129.391 98.6036 131.395C98.6036 133.41 99.7872 134.623 101.609 134.623ZM101.609 133.469C100.684 133.469 100.086 132.719 100.086 131.395C100.086 130.076 100.69 129.32 101.609 129.32C102.535 129.32 103.133 130.076 103.133 131.395C103.133 132.719 102.535 133.469 101.609 133.469ZM105.871 134.617C106.311 134.617 106.604 134.33 106.604 133.85V130.861C106.604 130.105 106.92 129.584 107.752 129.578C108.039 129.572 108.256 129.508 108.397 129.385C108.543 129.268 108.614 129.098 108.614 128.869C108.614 128.629 108.543 128.453 108.408 128.342C108.297 128.242 108.121 128.184 107.893 128.184C107.272 128.184 106.733 128.652 106.563 129.379H106.533V128.904C106.533 128.447 106.246 128.166 105.842 128.166C105.426 128.166 105.145 128.447 105.145 128.904V133.85C105.145 134.33 105.432 134.617 105.871 134.617ZM110.543 134.6C111.346 134.6 112.125 134.184 112.483 133.51H112.512V133.943C112.536 134.377 112.811 134.617 113.209 134.617C113.62 134.617 113.918 134.354 113.918 133.885V130.223C113.918 128.975 112.917 128.16 111.375 128.16C110.186 128.16 109.225 128.617 108.909 129.338C108.844 129.473 108.809 129.602 108.809 129.736C108.809 130.088 109.067 130.322 109.424 130.322C109.67 130.322 109.864 130.229 110.016 130.029C110.379 129.496 110.749 129.303 111.317 129.303C112.038 129.303 112.477 129.678 112.477 130.328V130.773L110.831 130.867C109.319 130.961 108.469 131.623 108.469 132.725C108.469 133.844 109.342 134.6 110.543 134.6ZM110.989 133.498C110.356 133.498 109.928 133.176 109.928 132.666C109.928 132.174 110.333 131.857 111.036 131.811L112.477 131.723V132.197C112.477 132.947 111.809 133.498 110.989 133.498Z" fill="#EEEEEF"/>
<path d="M0 186C0 180.477 4.47715 176 10 176H275C280.523 176 285 180.477 285 186V306C285 311.523 280.523 316 275 316H10C4.47715 316 0 311.523 0 306V186Z" fill="#FAF9FF"/>
<path d="M19.8066 210H28.3223V208.789H21.1445V203.379H27.9609V202.188H21.1445V197.119H28.3223V195.908H19.8066V210ZM34.4768 210.176C36.7717 210.176 38.5393 208.906 38.5393 207.1V207.08C38.5393 205.566 37.5529 204.746 35.5217 204.258L34.0666 203.916C32.6701 203.584 32.0256 203.086 32.0256 202.227V202.207C32.0256 201.162 33.1096 200.391 34.4865 200.391C35.883 200.391 36.8596 201.055 37.094 202.031H38.3635C38.1193 200.371 36.6154 199.307 34.4963 199.307C32.3772 199.307 30.7072 200.566 30.7072 202.266V202.275C30.7072 203.75 31.6154 204.561 33.5686 205.02L35.0334 205.371C36.5666 205.732 37.2209 206.27 37.2209 207.178V207.197C37.2209 208.291 36.0588 209.082 34.5158 209.082C32.9924 209.082 31.9865 208.408 31.7033 207.363H30.3752C30.59 209.082 32.1818 210.176 34.4768 210.176ZM44.2641 210.068C44.5766 210.068 44.8695 210.039 45.1625 209.99V208.877C44.8988 208.906 44.7035 208.916 44.4106 208.916C43.2192 208.916 42.7602 208.379 42.7602 207.09V200.566H45.1625V199.482H42.7602V196.748H41.4223V199.482H39.7328V200.566H41.4223V207.383C41.4223 209.297 42.2524 210.068 44.2641 210.068ZM51.0533 210.176C52.6842 210.176 53.8658 209.434 54.3834 208.164H54.5006V210H55.7897V199.482H54.5006V205.732C54.5006 207.725 53.3287 209.023 51.3658 209.023C49.5592 209.023 48.651 207.959 48.651 205.996V199.482H47.3619V206.318C47.3619 208.73 48.6901 210.176 51.0533 210.176ZM62.5985 210.176C64.2196 210.176 65.5184 209.316 66.1336 207.9H66.2508V210H67.5496V195.293H66.2508V201.533H66.1336C65.5477 200.176 64.1903 199.307 62.5985 199.307C59.9325 199.307 58.1551 201.475 58.1551 204.736V204.756C58.1551 207.998 59.9422 210.176 62.5985 210.176ZM62.8719 209.023C60.7918 209.023 59.4735 207.354 59.4735 204.746V204.727C59.4735 202.129 60.7918 200.459 62.8719 200.459C64.9422 200.459 66.2801 202.139 66.2801 204.727V204.746C66.2801 207.344 64.9422 209.023 62.8719 209.023ZM73.4405 210.176C74.9932 210.176 76.253 209.443 76.878 208.193H76.9952V210H78.294V202.812C78.294 200.596 76.8584 199.307 74.3975 199.307C72.2198 199.307 70.628 200.381 70.3545 202.061L70.3448 202.1H71.6436L71.6534 202.08C71.9268 201.035 72.9327 200.459 74.3584 200.459C76.0577 200.459 76.9952 201.279 76.9952 202.822V203.809L73.7139 204.023C71.2823 204.189 69.9248 205.254 69.9248 207.08V207.1C69.9248 208.975 71.4092 210.176 73.4405 210.176ZM71.2432 207.08V207.061C71.2432 205.869 72.1026 205.195 73.8897 205.078L76.9952 204.863V206.084C76.9952 207.754 75.5694 209.043 73.6846 209.043C72.2686 209.043 71.2432 208.281 71.2432 207.08ZM81.1282 210H82.4172V203.75C82.4172 201.768 83.677 200.459 85.5325 200.459C87.3586 200.459 88.2668 201.484 88.2668 203.486V210H89.5559V203.164C89.5559 200.713 88.218 199.307 85.8743 199.307C84.2336 199.307 83.1008 200.059 82.5442 201.328H82.4172V199.482H81.1282V210ZM95.8374 210.068C96.1499 210.068 96.4428 210.039 96.7358 209.99V208.877C96.4721 208.906 96.2768 208.916 95.9838 208.916C94.7924 208.916 94.3335 208.379 94.3335 207.09V200.566H96.7358V199.482H94.3335V196.748H92.9956V199.482H91.3061V200.566H92.9956V207.383C92.9956 209.297 93.8256 210.068 95.8374 210.068ZM99.736 197.295C100.254 197.295 100.683 196.875 100.683 196.348C100.683 195.82 100.254 195.4 99.736 195.4C99.2087 195.4 98.779 195.82 98.779 196.348C98.779 196.875 99.2087 197.295 99.736 197.295ZM99.0817 210H100.371V199.482H99.0817V210ZM103.42 210H104.709V195.293H103.42V210Z" fill="black"/>
<path d="M20.875 254H23.6875V245.078H29.2344L34.0625 254H37.3594L32.1406 244.641C34.9688 243.75 36.6719 241.312 36.6719 238.188V238.156C36.6719 234.109 33.8281 231.453 29.4844 231.453H20.875V254ZM23.6875 242.578V233.953H29.1094C32.0156 233.953 33.7656 235.562 33.7656 238.25V238.281C33.7656 241.031 32.125 242.578 29.2344 242.578H23.6875ZM47.6701 256.266H49.5451V253.641C53.2326 253.344 56.2951 251.234 56.2951 247.484V247.453C56.2951 244.188 54.0451 242.531 50.0295 241.562L49.5451 241.453V234.281C51.6545 234.547 53.1545 235.844 53.3576 237.938V237.969L56.0764 237.953V237.938C55.9514 234.5 53.1545 232.156 49.5451 231.828V229.188H47.6701V231.828C43.967 232.172 41.3264 234.453 41.3264 237.797V237.828C41.3264 240.891 43.4201 242.625 47.3107 243.562L47.6701 243.656V251.172C44.9514 250.875 43.7482 249.328 43.467 247.391V247.359L40.7482 247.375V247.391C40.8732 251.016 43.9514 253.281 47.6701 253.625V256.266ZM44.0451 237.641V237.609C44.0451 236.109 45.2951 234.609 47.6701 234.281V241C44.9826 240.344 44.0451 239.156 44.0451 237.641ZM49.6389 244.125C52.7326 244.875 53.5764 245.969 53.5764 247.672V247.703C53.5764 249.5 52.4514 250.969 49.5451 251.203V244.109L49.6389 244.125ZM77.3229 254.531C81.8698 254.531 85.2135 251.266 85.2135 246.766V246.734C85.2135 242.406 82.0573 239.188 77.8229 239.188C74.776 239.188 72.651 240.828 71.8229 242.672H71.526C71.526 242.5 71.526 242.312 71.5416 242.141C71.7135 237.438 73.3854 233.438 77.4791 233.438C79.7604 233.438 81.3385 234.609 82.026 236.5L82.0885 236.672H84.9166L84.8698 236.469C84.1041 233.141 81.2916 230.922 77.5104 230.922C72.0416 230.922 68.8385 235.422 68.8385 243.109V243.141C68.8385 251.625 73.1979 254.531 77.3229 254.531ZM72.1979 246.734V246.719C72.1979 243.781 74.4166 241.641 77.3385 241.641C80.2604 241.641 82.3854 243.797 82.3854 246.797V246.828C82.3854 249.75 80.1198 252.047 77.2916 252.047C74.4323 252.047 72.1979 249.703 72.1979 246.734ZM96.868 254.531C101.852 254.531 104.852 249.984 104.852 242.734V242.703C104.852 235.453 101.852 230.922 96.868 230.922C91.8836 230.922 88.9149 235.453 88.9149 242.703V242.734C88.9149 249.984 91.8836 254.531 96.868 254.531ZM96.868 252.078C93.6336 252.078 91.743 248.484 91.743 242.734V242.703C91.743 236.953 93.6336 233.391 96.868 233.391C100.102 233.391 102.024 236.953 102.024 242.703V242.734C102.024 248.484 100.102 252.078 96.868 252.078ZM110.054 254.156C111.179 254.156 112.085 253.234 112.085 252.125C112.085 251 111.179 250.094 110.054 250.094C108.944 250.094 108.022 251 108.022 252.125C108.022 253.234 108.944 254.156 110.054 254.156ZM123.036 230.922C118.49 230.922 115.146 234.188 115.146 238.688V238.719C115.146 243.047 118.302 246.266 122.536 246.266C125.583 246.266 127.708 244.625 128.536 242.781H128.833C128.833 242.953 128.833 243.141 128.818 243.312C128.646 248.016 126.974 252.016 122.88 252.016C120.599 252.016 119.021 250.844 118.333 248.953L118.271 248.781H115.443L115.49 248.984C116.255 252.312 119.068 254.531 122.849 254.531C128.318 254.531 131.521 250.031 131.521 242.344V242.312C131.521 233.828 127.161 230.922 123.036 230.922ZM123.021 243.812C120.099 243.812 117.974 241.656 117.974 238.656V238.625C117.974 235.703 120.24 233.406 123.068 233.406C125.927 233.406 128.161 235.75 128.161 238.719V238.734C128.161 241.672 125.943 243.812 123.021 243.812ZM143.175 254.531C148.16 254.531 151.16 249.984 151.16 242.734V242.703C151.16 235.453 148.16 230.922 143.175 230.922C138.191 230.922 135.222 235.453 135.222 242.703V242.734C135.222 249.984 138.191 254.531 143.175 254.531ZM143.175 252.078C139.941 252.078 138.05 248.484 138.05 242.734V242.703C138.05 236.953 139.941 233.391 143.175 233.391C146.41 233.391 148.331 236.953 148.331 242.703V242.734C148.331 248.484 146.41 252.078 143.175 252.078Z" fill="black"/>
<path d="M45.3594 291.641C46.9297 291.641 48.084 290.979 48.6289 289.836C48.7227 289.643 48.7695 289.473 48.7695 289.291C48.7695 288.945 48.5234 288.699 48.166 288.699C47.8789 288.699 47.709 288.828 47.5684 289.139C47.1758 290.053 46.3848 290.492 45.3535 290.492C43.8008 290.492 42.8164 289.244 42.8164 287.27C42.8164 285.312 43.8125 284.053 45.3477 284.053C46.3203 284.053 47.1523 284.557 47.5449 285.5C47.6914 285.84 47.8965 285.992 48.207 285.992C48.5586 285.992 48.793 285.764 48.793 285.412C48.793 285.254 48.752 285.078 48.6699 284.908C48.1426 283.66 46.9004 282.904 45.3477 282.904C42.9863 282.904 41.4746 284.592 41.4746 287.27C41.4746 289.965 42.9688 291.641 45.3594 291.641ZM52.2111 291.617C53.9748 291.617 55.135 290.404 55.135 288.418C55.135 286.438 53.969 285.225 52.2111 285.225C50.4533 285.225 49.2873 286.438 49.2873 288.418C49.2873 290.404 50.4475 291.617 52.2111 291.617ZM52.2111 290.574C51.2209 290.574 50.5764 289.789 50.5764 288.418C50.5764 287.053 51.2209 286.268 52.2111 286.268C53.2014 286.268 53.8459 287.053 53.8459 288.418C53.8459 289.789 53.2072 290.574 52.2111 290.574ZM56.3383 291.611C56.7192 291.611 56.9711 291.348 56.9711 290.943V287.691C56.9711 286.9 57.5043 286.314 58.2543 286.314C58.9692 286.314 59.4203 286.766 59.4203 287.475V290.943C59.4203 291.348 59.6606 291.611 60.0414 291.611C60.4223 291.611 60.6625 291.348 60.6625 290.943V287.65C60.6625 286.871 61.184 286.314 61.934 286.314C62.684 286.314 63.1117 286.771 63.1117 287.568V290.943C63.1117 291.348 63.3637 291.611 63.7445 291.611C64.1254 291.611 64.3832 291.348 64.3832 290.943V287.264C64.3832 286.039 63.5863 285.23 62.3676 285.23C61.4887 285.23 60.7621 285.688 60.4457 286.438H60.4164C60.1703 285.67 59.5492 285.23 58.6938 285.23C57.8617 285.23 57.2172 285.688 56.9418 286.373H56.9125V285.869C56.9125 285.465 56.6606 285.225 56.309 285.225C55.9516 285.225 55.7055 285.471 55.7055 285.869V290.943C55.7055 291.348 55.9574 291.611 56.3383 291.611ZM65.8326 293.686C66.2018 293.686 66.4655 293.428 66.4655 293.012V290.486H66.4948C66.8463 291.172 67.5494 291.605 68.4342 291.605C69.9811 291.605 71.0065 290.369 71.0065 288.418C71.0065 286.467 69.9752 285.236 68.4108 285.236C67.5201 285.236 66.8112 285.688 66.4479 286.396H66.4244V285.875C66.4244 285.471 66.1666 285.225 65.8092 285.225C65.4518 285.225 65.1998 285.471 65.1998 285.875V293.012C65.1998 293.428 65.4576 293.686 65.8326 293.686ZM68.0768 290.533C67.1041 290.533 66.4596 289.701 66.4596 288.418C66.4596 287.146 67.11 286.303 68.0768 286.303C69.0787 286.303 69.7057 287.129 69.7057 288.418C69.7057 289.713 69.0787 290.533 68.0768 290.533ZM72.2098 291.611C72.5848 291.611 72.8426 291.354 72.8426 290.943V287.797C72.8426 287.029 73.1942 286.449 74.0614 286.443C74.325 286.443 74.5125 286.391 74.6414 286.279C74.7645 286.18 74.8289 286.033 74.8289 285.834C74.8289 285.635 74.7762 285.482 74.659 285.389C74.5535 285.289 74.3836 285.236 74.161 285.236C73.5457 285.236 72.9774 285.699 72.8075 286.391H72.7782V285.863C72.7782 285.477 72.5321 285.225 72.1805 285.225C71.8231 285.225 71.577 285.477 71.577 285.863V290.943C71.577 291.354 71.8289 291.611 72.2098 291.611ZM76.7823 291.605C77.585 291.605 78.3702 291.172 78.7276 290.486H78.7569V291.008C78.7686 291.383 79.0088 291.611 79.3604 291.611C79.7178 291.611 79.9698 291.371 79.9698 290.973V287.252C79.9698 286.016 79.0147 285.225 77.5205 285.225C76.4131 285.225 75.4815 285.67 75.1592 286.367C75.083 286.508 75.0479 286.648 75.0479 286.777C75.0479 287.094 75.2764 287.305 75.5928 287.305C75.8155 287.305 75.9795 287.223 76.1084 287.035C76.46 286.473 76.8643 286.256 77.4737 286.256C78.2471 286.256 78.71 286.666 78.71 287.352V287.826L77.0166 287.926C75.5577 288.008 74.7256 288.67 74.7256 289.748C74.7256 290.855 75.5752 291.605 76.7823 291.605ZM77.128 290.604C76.4541 290.604 76.003 290.252 76.003 289.713C76.003 289.186 76.4307 288.852 77.1866 288.799L78.71 288.705V289.191C78.71 289.994 78.0127 290.604 77.128 290.604ZM81.425 291.611C81.8 291.611 82.0579 291.354 82.0579 290.943V287.797C82.0579 287.029 82.4094 286.449 83.2766 286.443C83.5403 286.443 83.7278 286.391 83.8567 286.279C83.9797 286.18 84.0442 286.033 84.0442 285.834C84.0442 285.635 83.9915 285.482 83.8743 285.389C83.7688 285.289 83.5989 285.236 83.3762 285.236C82.761 285.236 82.1926 285.699 82.0227 286.391H81.9934V285.863C81.9934 285.477 81.7473 285.225 81.3958 285.225C81.0383 285.225 80.7922 285.477 80.7922 285.863V290.943C80.7922 291.354 81.0442 291.611 81.425 291.611ZM88.1559 291.605C88.9587 291.605 89.7438 291.172 90.1012 290.486H90.1305V291.008C90.1423 291.383 90.3825 291.611 90.734 291.611C91.0915 291.611 91.3434 291.371 91.3434 290.973V287.252C91.3434 286.016 90.3883 285.225 88.8942 285.225C87.7868 285.225 86.8551 285.67 86.5329 286.367C86.4567 286.508 86.4215 286.648 86.4215 286.777C86.4215 287.094 86.6501 287.305 86.9665 287.305C87.1891 287.305 87.3532 287.223 87.4821 287.035C87.8337 286.473 88.238 286.256 88.8473 286.256C89.6208 286.256 90.0837 286.666 90.0837 287.352V287.826L88.3903 287.926C86.9313 288.008 86.0993 288.67 86.0993 289.748C86.0993 290.855 86.9489 291.605 88.1559 291.605ZM88.5016 290.604C87.8278 290.604 87.3766 290.252 87.3766 289.713C87.3766 289.186 87.8044 288.852 88.5602 288.799L90.0837 288.705V289.191C90.0837 289.994 89.3864 290.604 88.5016 290.604ZM94.7499 293.82C96.5839 293.838 97.703 292.854 97.703 291.33V285.875C97.703 285.465 97.4335 285.225 97.0702 285.225C96.7069 285.225 96.4315 285.465 96.4315 285.875V286.373H96.4081C96.0331 285.676 95.3534 285.236 94.4803 285.236C92.8866 285.236 91.8905 286.438 91.8905 288.365C91.8905 290.27 92.8983 291.482 94.451 291.482C95.33 291.482 96.0565 291.043 96.4022 290.375H96.4315V291.354C96.4315 292.215 95.8046 292.801 94.7733 292.789C94.1698 292.777 93.7362 292.549 93.2323 292.021C93.0624 291.852 92.9393 291.787 92.746 291.787C92.4237 291.787 92.2069 291.998 92.2069 292.291C92.2069 292.438 92.2421 292.566 92.3241 292.707C92.746 293.375 93.6307 293.809 94.7499 293.82ZM94.7909 290.451C93.8182 290.451 93.1854 289.66 93.1854 288.371C93.1854 287.088 93.8182 286.279 94.7909 286.279C95.7811 286.279 96.4374 287.111 96.4374 288.377C96.4374 289.643 95.7811 290.451 94.7909 290.451ZM101.191 291.617C102.955 291.617 104.115 290.404 104.115 288.418C104.115 286.438 102.949 285.225 101.191 285.225C99.4337 285.225 98.2677 286.438 98.2677 288.418C98.2677 290.404 99.4278 291.617 101.191 291.617ZM101.191 290.574C100.201 290.574 99.5567 289.789 99.5567 288.418C99.5567 287.053 100.201 286.268 101.191 286.268C102.182 286.268 102.826 287.053 102.826 288.418C102.826 289.789 102.188 290.574 101.191 290.574ZM105.319 291.611C105.694 291.611 105.951 291.354 105.951 290.943V287.797C105.951 287.029 106.303 286.449 107.17 286.443C107.434 286.443 107.621 286.391 107.75 286.279C107.873 286.18 107.938 286.033 107.938 285.834C107.938 285.635 107.885 285.482 107.768 285.389C107.662 285.289 107.492 285.236 107.27 285.236C106.655 285.236 106.086 285.699 105.916 286.391H105.887V285.863C105.887 285.477 105.641 285.225 105.289 285.225C104.932 285.225 104.686 285.477 104.686 285.863V290.943C104.686 291.354 104.938 291.611 105.319 291.611ZM109.891 291.605C110.694 291.605 111.479 291.172 111.836 290.486H111.866V291.008C111.877 291.383 112.118 291.611 112.469 291.611C112.827 291.611 113.079 291.371 113.079 290.973V287.252C113.079 286.016 112.124 285.225 110.629 285.225C109.522 285.225 108.59 285.67 108.268 286.367C108.192 286.508 108.157 286.648 108.157 286.777C108.157 287.094 108.385 287.305 108.702 287.305C108.924 287.305 109.088 287.223 109.217 287.035C109.569 286.473 109.973 286.256 110.583 286.256C111.356 286.256 111.819 286.666 111.819 287.352V287.826L110.125 287.926C108.667 288.008 107.834 288.67 107.834 289.748C107.834 290.855 108.684 291.605 109.891 291.605ZM110.237 290.604C109.563 290.604 109.112 290.252 109.112 289.713C109.112 289.186 109.54 288.852 110.295 288.799L111.819 288.705V289.191C111.819 289.994 111.122 290.604 110.237 290.604Z" fill="#614CCB"/>
<rect x="18.5" y="273.5" width="118" height="28" rx="3.5" stroke="#614CCB"/>
</svg>
