<svg width="238" height="115" viewBox="0 0 238 115" fill="none" xmlns="http://www.w3.org/2000/svg">
<rect width="238" height="115" rx="10" fill="#EBEBFF"/>
<rect x="10" y="12" width="218" height="91" rx="12" fill="#252525" fill-opacity="0.7"/>
<line x1="10" y1="58.5" x2="228" y2="58.5" stroke="#545458"/>
<path d="M32.3501 40.2822C34.8984 40.2822 36.791 38.8628 37.1895 36.6714V36.6548H35.6787L35.6621 36.6714C35.2886 38.0493 34.0186 38.9043 32.3501 38.9043C30.0425 38.9043 28.5981 37.02 28.5981 34.0234V34.0068C28.5981 31.0103 30.0425 29.1177 32.3418 29.1177C33.9937 29.1177 35.272 30.0889 35.6704 31.6245L35.6787 31.6411H37.1812L37.1895 31.6245C36.8325 29.3252 34.8652 27.7397 32.3418 27.7397C29.0879 27.7397 27.0625 30.147 27.0625 34.0068V34.0234C27.0625 37.875 29.0962 40.2822 32.3501 40.2822ZM42.7829 40.1577C45.3313 40.1577 46.9084 38.3979 46.9084 35.5342V35.5176C46.9084 32.6455 45.3313 30.894 42.7829 30.894C40.2346 30.894 38.6574 32.6455 38.6574 35.5176V35.5342C38.6574 38.3979 40.2346 40.1577 42.7829 40.1577ZM42.7829 38.8794C41.0896 38.8794 40.135 37.6426 40.135 35.5342V35.5176C40.135 33.4009 41.0896 32.1724 42.7829 32.1724C44.4763 32.1724 45.4309 33.4009 45.4309 35.5176V35.5342C45.4309 37.6426 44.4763 38.8794 42.7829 38.8794ZM48.7416 40H50.186V34.4551C50.186 33.1934 51.0741 32.1724 52.2445 32.1724C53.3735 32.1724 54.1039 32.8613 54.1039 33.9238V40H55.5483V34.2476C55.5483 33.1104 56.37 32.1724 57.6152 32.1724C58.8769 32.1724 59.4828 32.8281 59.4828 34.1479V40H60.9272V33.8159C60.9272 31.9399 59.9062 30.894 58.08 30.894C56.8432 30.894 55.8222 31.5166 55.3407 32.4629H55.2079C54.7929 31.5332 53.9462 30.894 52.7343 30.894C51.5639 30.894 50.7172 31.4502 50.3188 32.4131H50.186V31.0518H48.7416V40ZM63.1256 42.9883H64.5699V38.5889H64.7028C65.1925 39.5435 66.2633 40.1577 67.4918 40.1577C69.7662 40.1577 71.2438 38.3398 71.2438 35.5342V35.5176C71.2438 32.7285 69.7579 30.894 67.4918 30.894C66.2467 30.894 65.2506 31.4834 64.7028 32.4795H64.5699V31.0518H63.1256V42.9883ZM67.1598 38.8794C65.5328 38.8794 64.5367 37.6011 64.5367 35.5342V35.5176C64.5367 33.4507 65.5328 32.1724 67.1598 32.1724C68.795 32.1724 69.7662 33.4341 69.7662 35.5176V35.5342C69.7662 37.6177 68.795 38.8794 67.1598 38.8794ZM75.5506 40.1577C76.7542 40.1577 77.6922 39.6348 78.2567 38.6802H78.3895V40H79.8338V33.874C79.8338 32.0146 78.6136 30.894 76.4305 30.894C74.5213 30.894 73.16 31.8403 72.9276 33.2432L72.9193 33.293H74.3636L74.3719 33.2681C74.6043 32.5708 75.3099 32.1724 76.3807 32.1724C77.7171 32.1724 78.3895 32.77 78.3895 33.874V34.6875L75.8245 34.8452C73.741 34.9697 72.5623 35.8911 72.5623 37.4849V37.5015C72.5623 39.1284 73.849 40.1577 75.5506 40.1577ZM74.0399 37.4683V37.4517C74.0399 36.5635 74.6375 36.082 75.9989 35.999L78.3895 35.8496V36.6631C78.3895 37.9414 77.3187 38.9043 75.8494 38.9043C74.8118 38.9043 74.0399 38.373 74.0399 37.4683ZM82.0655 40H83.5098V34.4551C83.5098 33.1436 84.4893 32.272 85.8672 32.272C86.1827 32.272 86.4566 32.3052 86.7554 32.355V30.9521C86.6143 30.9272 86.3072 30.894 86.0332 30.894C84.8213 30.894 83.9829 31.4419 83.6426 32.3799H83.5098V31.0518H82.0655V40ZM91.4773 40.0664C91.7595 40.0664 92.0334 40.0332 92.3157 39.9834V38.7549C92.05 38.7798 91.9089 38.7881 91.6516 38.7881C90.7219 38.7881 90.3567 38.3647 90.3567 37.3105V32.2471H92.3157V31.0518H90.3567V28.7358H88.8625V31.0518H87.4514V32.2471H88.8625V37.6758C88.8625 39.3857 89.6345 40.0664 91.4773 40.0664ZM94.8295 29.3252C95.3774 29.3252 95.8256 28.877 95.8256 28.3291C95.8256 27.7812 95.3774 27.333 94.8295 27.333C94.2817 27.333 93.8335 27.7812 93.8335 28.3291C93.8335 28.877 94.2817 29.3252 94.8295 29.3252ZM94.0991 40H95.5434V31.0518H94.0991V40ZM97.9411 40H99.3854V27.499H97.9411V40ZM101.833 40H103.277V34.7041C103.277 33.1353 104.182 32.1724 105.61 32.1724C107.037 32.1724 107.702 32.9443 107.702 34.5547V40H109.146V34.2061C109.146 32.0811 108.025 30.894 106.016 30.894C104.697 30.894 103.858 31.4502 103.41 32.3965H103.277V27.499H101.833V40ZM113.81 40.1577C115.013 40.1577 115.951 39.6348 116.516 38.6802H116.649V40H118.093V33.874C118.093 32.0146 116.873 30.894 114.69 30.894C112.78 30.894 111.419 31.8403 111.187 33.2432L111.178 33.293H112.623L112.631 33.2681C112.863 32.5708 113.569 32.1724 114.64 32.1724C115.976 32.1724 116.649 32.77 116.649 33.874V34.6875L114.084 34.8452C112 34.9697 110.821 35.8911 110.821 37.4849V37.5015C110.821 39.1284 112.108 40.1577 113.81 40.1577ZM112.299 37.4683V37.4517C112.299 36.5635 112.897 36.082 114.258 35.999L116.649 35.8496V36.6631C116.649 37.9414 115.578 38.9043 114.108 38.9043C113.071 38.9043 112.299 38.373 112.299 37.4683ZM120.325 40H121.769V34.4551C121.769 33.1436 122.748 32.272 124.126 32.272C124.442 32.272 124.716 32.3052 125.014 32.355V30.9521C124.873 30.9272 124.566 30.894 124.292 30.894C123.08 30.894 122.242 31.4419 121.902 32.3799H121.769V31.0518H120.325V40Z" fill="white"/>
<path d="M26.5728 86H28.1416L29.3452 82.5718H34.1099L35.3135 86H36.8823L32.4663 74.022H30.9888L26.5728 86ZM31.6611 75.9561H31.7939L33.6699 81.3018H29.7852L31.6611 75.9561ZM38.3918 88.9883H39.8361V84.5889H39.969C40.4587 85.5435 41.5295 86.1577 42.758 86.1577C45.0324 86.1577 46.51 84.3398 46.51 81.5342V81.5176C46.51 78.7285 45.0241 76.894 42.758 76.894C41.5129 76.894 40.5168 77.4834 39.969 78.4795H39.8361V77.0518H38.3918V88.9883ZM42.426 84.8794C40.799 84.8794 39.8029 83.6011 39.8029 81.5342V81.5176C39.8029 79.4507 40.799 78.1724 42.426 78.1724C44.0612 78.1724 45.0324 79.4341 45.0324 81.5176V81.5342C45.0324 83.6177 44.0612 84.8794 42.426 84.8794ZM50.8168 86.1577C52.0204 86.1577 52.9584 85.6348 53.5229 84.6802H53.6557V86H55.1V79.874C55.1 78.0146 53.8798 76.894 51.6967 76.894C49.7875 76.894 48.4262 77.8403 48.1938 79.2432L48.1855 79.293H49.6298L49.6381 79.2681C49.8705 78.5708 50.5761 78.1724 51.6469 78.1724C52.9833 78.1724 53.6557 78.77 53.6557 79.874V80.6875L51.0907 80.8452C49.0072 80.9697 47.8285 81.8911 47.8285 83.4849V83.5015C47.8285 85.1284 49.1152 86.1577 50.8168 86.1577ZM49.3061 83.4683V83.4517C49.3061 82.5635 49.9037 82.082 51.2651 81.999L53.6557 81.8496V82.6631C53.6557 83.9414 52.5849 84.9043 51.1156 84.9043C50.078 84.9043 49.3061 84.373 49.3061 83.4683ZM61.0172 89.1543C63.4576 89.1543 65.0016 87.876 65.0016 85.8755V77.0518H63.5573V78.5293H63.4576C62.9098 77.5166 61.9303 76.894 60.6686 76.894C58.3278 76.894 56.8834 78.7119 56.8834 81.2188V81.2354C56.8834 83.7422 58.3195 85.5352 60.6354 85.5352C61.8639 85.5352 62.8766 84.979 63.441 83.9912H63.5739V85.8008C63.5739 87.1206 62.6193 87.876 61.0172 87.876C59.7306 87.876 58.9337 87.3945 58.776 86.7139L58.7677 86.7056H57.2736L57.257 86.7139C57.4811 88.1831 58.859 89.1543 61.0172 89.1543ZM60.9508 84.2568C59.2906 84.2568 58.361 83.0117 58.361 81.2354V81.2188C58.361 79.4424 59.2906 78.1724 60.9508 78.1724C62.6027 78.1724 63.6071 79.4424 63.6071 81.2188V81.2354C63.6071 83.0117 62.611 84.2568 60.9508 84.2568ZM69.7401 86.1577C70.9437 86.1577 71.8817 85.6348 72.4461 84.6802H72.5789V86H74.0233V79.874C74.0233 78.0146 72.8031 76.894 70.62 76.894C68.7108 76.894 67.3494 77.8403 67.117 79.2432L67.1087 79.293H68.5531L68.5614 79.2681C68.7938 78.5708 69.4993 78.1724 70.5701 78.1724C71.9066 78.1724 72.5789 78.77 72.5789 79.874V80.6875L70.014 80.8452C67.9305 80.9697 66.7518 81.8911 66.7518 83.4849V83.5015C66.7518 85.1284 68.0384 86.1577 69.7401 86.1577ZM68.2293 83.4683V83.4517C68.2293 82.5635 68.827 82.082 70.1883 81.999L72.5789 81.8496V82.6631C72.5789 83.9414 71.5081 84.9043 70.0389 84.9043C69.0013 84.9043 68.2293 84.373 68.2293 83.4683ZM76.2549 86H77.6993V80.4551C77.6993 79.1436 78.6787 78.272 80.0567 78.272C80.3721 78.272 80.646 78.3052 80.9449 78.355V76.9521C80.8037 76.9272 80.4966 76.894 80.2227 76.894C79.0108 76.894 78.1724 77.4419 77.8321 78.3799H77.6993V77.0518H76.2549V86Z" fill="#FF453A"/>
<path d="M198.503 88.5151H206.115C207.302 88.5151 208.099 87.7432 208.157 86.5562L208.73 74.4868H209.726C210.066 74.4868 210.34 74.1963 210.34 73.856C210.34 73.5156 210.066 73.2334 209.726 73.2334H205.933V71.9634C205.933 70.7598 205.152 70.0293 203.874 70.0293H200.72C199.441 70.0293 198.661 70.7598 198.661 71.9634V73.2334H194.893C194.561 73.2334 194.27 73.5156 194.27 73.856C194.27 74.2046 194.561 74.4868 194.893 74.4868H195.889L196.461 86.5645C196.52 87.7515 197.3 88.5151 198.503 88.5151ZM199.981 72.0464C199.981 71.5732 200.313 71.2661 200.811 71.2661H203.783C204.281 71.2661 204.613 71.5732 204.613 72.0464V73.2334H199.981V72.0464ZM198.62 87.2617C198.146 87.2617 197.79 86.9048 197.765 86.415L197.184 74.4868H207.394L206.846 86.415C206.829 86.9131 206.472 87.2617 205.982 87.2617H198.62ZM199.848 85.8423C200.164 85.8423 200.371 85.6431 200.363 85.3525L200.105 76.4707C200.097 76.1802 199.89 75.9893 199.591 75.9893C199.275 75.9893 199.068 76.1885 199.076 76.479L199.325 85.3525C199.333 85.6514 199.541 85.8423 199.848 85.8423ZM202.305 85.8423C202.621 85.8423 202.845 85.6431 202.845 85.3525V76.479C202.845 76.1885 202.621 75.9893 202.305 75.9893C201.99 75.9893 201.774 76.1885 201.774 76.479V85.3525C201.774 85.6431 201.99 85.8423 202.305 85.8423ZM204.771 85.8423C205.069 85.8423 205.277 85.6514 205.285 85.3525L205.534 76.479C205.542 76.1885 205.335 75.9893 205.02 75.9893C204.721 75.9893 204.513 76.1802 204.505 76.479L204.256 85.3525C204.248 85.6431 204.455 85.8423 204.771 85.8423Z" fill="#FF453A"/>
<path d="M202.479 35.2646C202.836 35.2646 203.144 34.9658 203.144 34.6172V26.0923L203.094 24.8472L203.65 25.4365L204.912 26.7812C205.028 26.9141 205.194 26.9805 205.36 26.9805C205.7 26.9805 205.966 26.7314 205.966 26.3911C205.966 26.2168 205.891 26.084 205.767 25.9595L202.961 23.2534C202.795 23.0874 202.654 23.0293 202.479 23.0293C202.313 23.0293 202.172 23.0874 201.998 23.2534L199.192 25.9595C199.068 26.084 199.001 26.2168 199.001 26.3911C199.001 26.7314 199.25 26.9805 199.599 26.9805C199.757 26.9805 199.939 26.9141 200.056 26.7812L201.309 25.4365L201.874 24.8472L201.824 26.0923V34.6172C201.824 34.9658 202.123 35.2646 202.479 35.2646ZM197.723 41.7642H207.244C208.979 41.7642 209.851 40.9009 209.851 39.1909V30.9067C209.851 29.1968 208.979 28.3335 207.244 28.3335H204.928V29.6699H207.219C208.041 29.6699 208.514 30.1182 208.514 30.9814V39.1162C208.514 39.9795 208.041 40.4277 207.219 40.4277H197.74C196.91 40.4277 196.453 39.9795 196.453 39.1162V30.9814C196.453 30.1182 196.91 29.6699 197.74 29.6699H200.039V28.3335H197.723C195.988 28.3335 195.117 29.1968 195.117 30.9067V39.1909C195.117 40.9009 195.988 41.7642 197.723 41.7642Z" fill="white"/>
</svg>
