<svg width="285" height="159" viewBox="0 0 285 159" fill="none" xmlns="http://www.w3.org/2000/svg">
<rect width="285" height="159" rx="10" fill="#EBEBFF"/>
<rect x="33" y="37" width="218" height="91" rx="12" fill="#252525" fill-opacity="0.7"/>
<line x1="33" y1="83.5" x2="251" y2="83.5" stroke="#545458"/>
<path d="M55.3501 65.2822C57.8984 65.2822 59.791 63.8628 60.1895 61.6714V61.6548H58.6787L58.6621 61.6714C58.2886 63.0493 57.0186 63.9043 55.3501 63.9043C53.0425 63.9043 51.5981 62.02 51.5981 59.0234V59.0068C51.5981 56.0103 53.0425 54.1177 55.3418 54.1177C56.9937 54.1177 58.272 55.0889 58.6704 56.6245L58.6787 56.6411H60.1812L60.1895 56.6245C59.8325 54.3252 57.8652 52.7397 55.3418 52.7397C52.0879 52.7397 50.0625 55.147 50.0625 59.0068V59.0234C50.0625 62.875 52.0962 65.2822 55.3501 65.2822ZM65.7829 65.1577C68.3313 65.1577 69.9084 63.3979 69.9084 60.5342V60.5176C69.9084 57.6455 68.3313 55.894 65.7829 55.894C63.2346 55.894 61.6574 57.6455 61.6574 60.5176V60.5342C61.6574 63.3979 63.2346 65.1577 65.7829 65.1577ZM65.7829 63.8794C64.0896 63.8794 63.135 62.6426 63.135 60.5342V60.5176C63.135 58.4009 64.0896 57.1724 65.7829 57.1724C67.4763 57.1724 68.4309 58.4009 68.4309 60.5176V60.5342C68.4309 62.6426 67.4763 63.8794 65.7829 63.8794ZM71.7416 65H73.186V59.4551C73.186 58.1934 74.0741 57.1724 75.2445 57.1724C76.3735 57.1724 77.1039 57.8613 77.1039 58.9238V65H78.5483V59.2476C78.5483 58.1104 79.37 57.1724 80.6152 57.1724C81.8769 57.1724 82.4828 57.8281 82.4828 59.1479V65H83.9272V58.8159C83.9272 56.9399 82.9062 55.894 81.08 55.894C79.8432 55.894 78.8222 56.5166 78.3407 57.4629H78.2079C77.7929 56.5332 76.9462 55.894 75.7343 55.894C74.5639 55.894 73.7172 56.4502 73.3188 57.4131H73.186V56.0518H71.7416V65ZM86.1256 67.9883H87.5699V63.5889H87.7028C88.1925 64.5435 89.2633 65.1577 90.4918 65.1577C92.7662 65.1577 94.2438 63.3398 94.2438 60.5342V60.5176C94.2438 57.7285 92.7579 55.894 90.4918 55.894C89.2467 55.894 88.2506 56.4834 87.7028 57.4795H87.5699V56.0518H86.1256V67.9883ZM90.1598 63.8794C88.5328 63.8794 87.5367 62.6011 87.5367 60.5342V60.5176C87.5367 58.4507 88.5328 57.1724 90.1598 57.1724C91.795 57.1724 92.7662 58.4341 92.7662 60.5176V60.5342C92.7662 62.6177 91.795 63.8794 90.1598 63.8794ZM98.5506 65.1577C99.7542 65.1577 100.692 64.6348 101.257 63.6802H101.389V65H102.834V58.874C102.834 57.0146 101.614 55.894 99.4305 55.894C97.5213 55.894 96.16 56.8403 95.9276 58.2432L95.9193 58.293H97.3636L97.3719 58.2681C97.6043 57.5708 98.3099 57.1724 99.3807 57.1724C100.717 57.1724 101.389 57.77 101.389 58.874V59.6875L98.8245 59.8452C96.741 59.9697 95.5623 60.8911 95.5623 62.4849V62.5015C95.5623 64.1284 96.849 65.1577 98.5506 65.1577ZM97.0399 62.4683V62.4517C97.0399 61.5635 97.6375 61.082 98.9989 60.999L101.389 60.8496V61.6631C101.389 62.9414 100.319 63.9043 98.8494 63.9043C97.8118 63.9043 97.0399 63.373 97.0399 62.4683ZM105.065 65H106.51V59.4551C106.51 58.1436 107.489 57.272 108.867 57.272C109.183 57.272 109.457 57.3052 109.755 57.355V55.9521C109.614 55.9272 109.307 55.894 109.033 55.894C107.821 55.894 106.983 56.4419 106.643 57.3799H106.51V56.0518H105.065V65ZM114.477 65.0664C114.76 65.0664 115.033 65.0332 115.316 64.9834V63.7549C115.05 63.7798 114.909 63.7881 114.652 63.7881C113.722 63.7881 113.357 63.3647 113.357 62.3105V57.2471H115.316V56.0518H113.357V53.7358H111.863V56.0518H110.451V57.2471H111.863V62.6758C111.863 64.3857 112.635 65.0664 114.477 65.0664ZM117.83 54.3252C118.377 54.3252 118.826 53.877 118.826 53.3291C118.826 52.7812 118.377 52.333 117.83 52.333C117.282 52.333 116.833 52.7812 116.833 53.3291C116.833 53.877 117.282 54.3252 117.83 54.3252ZM117.099 65H118.543V56.0518H117.099V65ZM120.941 65H122.385V52.499H120.941V65ZM124.833 65H126.277V59.7041C126.277 58.1353 127.182 57.1724 128.61 57.1724C130.037 57.1724 130.702 57.9443 130.702 59.5547V65H132.146V59.2061C132.146 57.0811 131.025 55.894 129.016 55.894C127.697 55.894 126.858 56.4502 126.41 57.3965H126.277V52.499H124.833V65ZM136.81 65.1577C138.013 65.1577 138.951 64.6348 139.516 63.6802H139.649V65H141.093V58.874C141.093 57.0146 139.873 55.894 137.69 55.894C135.78 55.894 134.419 56.8403 134.187 58.2432L134.178 58.293H135.623L135.631 58.2681C135.863 57.5708 136.569 57.1724 137.64 57.1724C138.976 57.1724 139.649 57.77 139.649 58.874V59.6875L137.084 59.8452C135 59.9697 133.821 60.8911 133.821 62.4849V62.5015C133.821 64.1284 135.108 65.1577 136.81 65.1577ZM135.299 62.4683V62.4517C135.299 61.5635 135.897 61.082 137.258 60.999L139.649 60.8496V61.6631C139.649 62.9414 138.578 63.9043 137.108 63.9043C136.071 63.9043 135.299 63.373 135.299 62.4683ZM143.325 65H144.769V59.4551C144.769 58.1436 145.748 57.272 147.126 57.272C147.442 57.272 147.716 57.3052 148.014 57.355V55.9521C147.873 55.9272 147.566 55.894 147.292 55.894C146.08 55.894 145.242 56.4419 144.902 57.3799H144.769V56.0518H143.325V65Z" fill="white"/>
<path d="M49.5728 111H51.1416L52.3452 107.572H57.1099L58.3135 111H59.8823L55.4663 99.022H53.9888L49.5728 111ZM54.6611 100.956H54.7939L56.6699 106.302H52.7852L54.6611 100.956ZM61.3918 113.988H62.8361V109.589H62.969C63.4587 110.543 64.5295 111.158 65.758 111.158C68.0324 111.158 69.51 109.34 69.51 106.534V106.518C69.51 103.729 68.0241 101.894 65.758 101.894C64.5129 101.894 63.5168 102.483 62.969 103.479H62.8361V102.052H61.3918V113.988ZM65.426 109.879C63.799 109.879 62.8029 108.601 62.8029 106.534V106.518C62.8029 104.451 63.799 103.172 65.426 103.172C67.0612 103.172 68.0324 104.434 68.0324 106.518V106.534C68.0324 108.618 67.0612 109.879 65.426 109.879ZM73.8168 111.158C75.0204 111.158 75.9584 110.635 76.5229 109.68H76.6557V111H78.1V104.874C78.1 103.015 76.8798 101.894 74.6967 101.894C72.7875 101.894 71.4262 102.84 71.1938 104.243L71.1855 104.293H72.6298L72.6381 104.268C72.8705 103.571 73.5761 103.172 74.6469 103.172C75.9833 103.172 76.6557 103.77 76.6557 104.874V105.688L74.0907 105.845C72.0072 105.97 70.8285 106.891 70.8285 108.485V108.501C70.8285 110.128 72.1152 111.158 73.8168 111.158ZM72.3061 108.468V108.452C72.3061 107.563 72.9037 107.082 74.2651 106.999L76.6557 106.85V107.663C76.6557 108.941 75.5849 109.904 74.1156 109.904C73.078 109.904 72.3061 109.373 72.3061 108.468ZM84.0172 114.154C86.4576 114.154 88.0016 112.876 88.0016 110.875V102.052H86.5573V103.529H86.4576C85.9098 102.517 84.9303 101.894 83.6686 101.894C81.3278 101.894 79.8834 103.712 79.8834 106.219V106.235C79.8834 108.742 81.3195 110.535 83.6354 110.535C84.8639 110.535 85.8766 109.979 86.441 108.991H86.5739V110.801C86.5739 112.121 85.6193 112.876 84.0172 112.876C82.7306 112.876 81.9337 112.395 81.776 111.714L81.7677 111.706H80.2736L80.257 111.714C80.4811 113.183 81.859 114.154 84.0172 114.154ZM83.9508 109.257C82.2906 109.257 81.361 108.012 81.361 106.235V106.219C81.361 104.442 82.2906 103.172 83.9508 103.172C85.6027 103.172 86.6071 104.442 86.6071 106.219V106.235C86.6071 108.012 85.611 109.257 83.9508 109.257ZM92.7401 111.158C93.9437 111.158 94.8817 110.635 95.4461 109.68H95.5789V111H97.0233V104.874C97.0233 103.015 95.8031 101.894 93.62 101.894C91.7108 101.894 90.3494 102.84 90.117 104.243L90.1087 104.293H91.5531L91.5614 104.268C91.7938 103.571 92.4993 103.172 93.5701 103.172C94.9066 103.172 95.5789 103.77 95.5789 104.874V105.688L93.014 105.845C90.9305 105.97 89.7518 106.891 89.7518 108.485V108.501C89.7518 110.128 91.0384 111.158 92.7401 111.158ZM91.2293 108.468V108.452C91.2293 107.563 91.827 107.082 93.1883 106.999L95.5789 106.85V107.663C95.5789 108.941 94.5081 109.904 93.0389 109.904C92.0013 109.904 91.2293 109.373 91.2293 108.468ZM99.2549 111H100.699V105.455C100.699 104.144 101.679 103.272 103.057 103.272C103.372 103.272 103.646 103.305 103.945 103.355V101.952C103.804 101.927 103.497 101.894 103.223 101.894C102.011 101.894 101.172 102.442 100.832 103.38H100.699V102.052H99.2549V111Z" fill="#FF453A"/>
<path d="M221.503 113.515H229.115C230.302 113.515 231.099 112.743 231.157 111.556L231.73 99.4868H232.726C233.066 99.4868 233.34 99.1963 233.34 98.856C233.34 98.5156 233.066 98.2334 232.726 98.2334H228.933V96.9634C228.933 95.7598 228.152 95.0293 226.874 95.0293H223.72C222.441 95.0293 221.661 95.7598 221.661 96.9634V98.2334H217.893C217.561 98.2334 217.27 98.5156 217.27 98.856C217.27 99.2046 217.561 99.4868 217.893 99.4868H218.889L219.461 111.564C219.52 112.751 220.3 113.515 221.503 113.515ZM222.981 97.0464C222.981 96.5732 223.313 96.2661 223.811 96.2661H226.783C227.281 96.2661 227.613 96.5732 227.613 97.0464V98.2334H222.981V97.0464ZM221.62 112.262C221.146 112.262 220.79 111.905 220.765 111.415L220.184 99.4868H230.394L229.846 111.415C229.829 111.913 229.472 112.262 228.982 112.262H221.62ZM222.848 110.842C223.164 110.842 223.371 110.643 223.363 110.353L223.105 101.471C223.097 101.18 222.89 100.989 222.591 100.989C222.275 100.989 222.068 101.188 222.076 101.479L222.325 110.353C222.333 110.651 222.541 110.842 222.848 110.842ZM225.305 110.842C225.621 110.842 225.845 110.643 225.845 110.353V101.479C225.845 101.188 225.621 100.989 225.305 100.989C224.99 100.989 224.774 101.188 224.774 101.479V110.353C224.774 110.643 224.99 110.842 225.305 110.842ZM227.771 110.842C228.069 110.842 228.277 110.651 228.285 110.353L228.534 101.479C228.542 101.188 228.335 100.989 228.02 100.989C227.721 100.989 227.513 101.18 227.505 101.479L227.256 110.353C227.248 110.643 227.455 110.842 227.771 110.842Z" fill="#FF453A"/>
<path d="M225.479 60.2646C225.836 60.2646 226.144 59.9658 226.144 59.6172V51.0923L226.094 49.8472L226.65 50.4365L227.912 51.7812C228.028 51.9141 228.194 51.9805 228.36 51.9805C228.7 51.9805 228.966 51.7314 228.966 51.3911C228.966 51.2168 228.891 51.084 228.767 50.9595L225.961 48.2534C225.795 48.0874 225.654 48.0293 225.479 48.0293C225.313 48.0293 225.172 48.0874 224.998 48.2534L222.192 50.9595C222.068 51.084 222.001 51.2168 222.001 51.3911C222.001 51.7314 222.25 51.9805 222.599 51.9805C222.757 51.9805 222.939 51.9141 223.056 51.7812L224.309 50.4365L224.874 49.8472L224.824 51.0923V59.6172C224.824 59.9658 225.123 60.2646 225.479 60.2646ZM220.723 66.7642H230.244C231.979 66.7642 232.851 65.9009 232.851 64.1909V55.9067C232.851 54.1968 231.979 53.3335 230.244 53.3335H227.928V54.6699H230.219C231.041 54.6699 231.514 55.1182 231.514 55.9814V64.1162C231.514 64.9795 231.041 65.4277 230.219 65.4277H220.74C219.91 65.4277 219.453 64.9795 219.453 64.1162V55.9814C219.453 55.1182 219.91 54.6699 220.74 54.6699H223.039V53.3335H220.723C218.988 53.3335 218.117 54.1968 218.117 55.9067V64.1909C218.117 65.9009 218.988 66.7642 220.723 66.7642Z" fill="white"/>
</svg>
