<svg width="234" height="263" viewBox="0 0 234 263" fill="none" xmlns="http://www.w3.org/2000/svg">
<rect width="234" height="263" rx="10" fill="#EBEBFF"/>
<path d="M19.3906 24H26.6875V22.3047H21.4062V19.0781H26.3984V17.4766H21.4062V14.4219H26.6875V12.7266H19.3906V24ZM31.9358 24.0391C32.3108 24.0391 32.6701 24.0078 32.9514 23.9531V22.4531C32.717 22.4766 32.5686 22.4844 32.2951 22.4844C31.4826 22.4844 31.1467 22.125 31.1467 21.2734V16.9688H32.9514V15.4609H31.1467V13.3672H29.1701V15.4609H27.842V16.9688H29.1701V21.7344C29.1701 23.3828 29.9748 24.0391 31.9358 24.0391ZM36.809 24.1406C37.934 24.1406 38.8403 23.6562 39.309 22.8281H39.4418V24H41.3637V18.1641C41.3637 16.3594 40.1293 15.2969 37.934 15.2969C35.9028 15.2969 34.5278 16.25 34.3403 17.6875L34.3324 17.7578H36.1684L36.1762 17.7266C36.3715 17.1641 36.9496 16.8438 37.8403 16.8438C38.8871 16.8438 39.4418 17.3125 39.4418 18.1641V18.8984L37.2465 19.0312C35.1684 19.1562 34.0043 20.0469 34.0043 21.5703V21.5859C34.0043 23.1406 35.184 24.1406 36.809 24.1406ZM35.9262 21.4922V21.4766C35.9262 20.7734 36.434 20.375 37.5199 20.3047L39.4418 20.1797V20.8672C39.4418 21.8828 38.5746 22.6484 37.4028 22.6484C36.5434 22.6484 35.9262 22.2188 35.9262 21.4922ZM43.2916 26.8359H45.2369V22.6406H45.3698C45.8151 23.5625 46.7916 24.1406 47.9635 24.1406C50.1276 24.1406 51.4713 22.4609 51.4713 19.7422V19.7266C51.4713 17.0234 50.1041 15.3203 47.9635 15.3203C46.7682 15.3203 45.8385 15.8672 45.3698 16.7969H45.2369V15.4609H43.2916V26.8359ZM47.3541 22.5C46.0338 22.5 45.2135 21.4453 45.2135 19.7344V19.7188C45.2135 18.0078 46.0338 16.9609 47.3541 16.9609C48.6823 16.9609 49.4869 18.0078 49.4869 19.7266V19.7422C49.4869 21.4531 48.6823 22.5 47.3541 22.5ZM55.3524 24.1406C56.4774 24.1406 57.3836 23.6562 57.8524 22.8281H57.9852V24H59.9071V18.1641C59.9071 16.3594 58.6727 15.2969 56.4774 15.2969C54.4461 15.2969 53.0711 16.25 52.8836 17.6875L52.8758 17.7578H54.7118L54.7196 17.7266C54.9149 17.1641 55.493 16.8438 56.3836 16.8438C57.4305 16.8438 57.9852 17.3125 57.9852 18.1641V18.8984L55.7899 19.0312C53.7118 19.1562 52.5477 20.0469 52.5477 21.5703V21.5859C52.5477 23.1406 53.7274 24.1406 55.3524 24.1406ZM54.4696 21.4922V21.4766C54.4696 20.7734 54.9774 20.375 56.0633 20.3047L57.9852 20.1797V20.8672C57.9852 21.8828 57.118 22.6484 55.9461 22.6484C55.0868 22.6484 54.4696 22.2188 54.4696 21.4922ZM65.0616 24.1719C67.1631 24.1719 68.6866 23.0859 68.6866 21.4609V21.4453C68.6866 20.2031 67.8975 19.4922 66.2256 19.1172L64.8428 18.8125C63.9209 18.6016 63.5616 18.2969 63.5616 17.7969V17.7891C63.5616 17.1484 64.1866 16.7266 65.0537 16.7266C65.9678 16.7266 66.5303 17.1641 66.6709 17.7031L66.6787 17.7266H68.5069V17.7109C68.3819 16.3281 67.1397 15.2969 65.0616 15.2969C63.0459 15.2969 61.6397 16.3594 61.6397 17.8984V17.9062C61.6397 19.1641 62.4131 19.9297 64.0381 20.2891L65.4209 20.6016C66.3584 20.8125 66.7334 21.1406 66.7334 21.6406V21.6562C66.7334 22.2969 66.0616 22.7344 65.0928 22.7344C64.1241 22.7344 63.5537 22.3203 63.3506 21.7266L63.3428 21.7109H61.4131V21.7266C61.5772 23.1719 62.8897 24.1719 65.0616 24.1719Z" fill="black"/>
<path d="M124.898 77H129.264V76.209H125.777V73.7871H129.083V73.0059H125.777V70.7451H129.264V69.9541H124.898V77ZM132.21 77.0391C132.376 77.0391 132.537 77.0195 132.703 76.9902V76.2676C132.547 76.2822 132.464 76.2871 132.313 76.2871C131.766 76.2871 131.551 76.0381 131.551 75.418V72.4395H132.703V71.7363H131.551V70.374H130.672V71.7363H129.842V72.4395H130.672V75.6328C130.672 76.6387 131.126 77.0391 132.21 77.0391ZM135.01 77.0928C135.718 77.0928 136.27 76.7852 136.602 76.2236H136.68V77H137.53V73.3965C137.53 72.3027 136.812 71.6436 135.528 71.6436C134.405 71.6436 133.604 72.2002 133.467 73.0254L133.462 73.0547H134.312L134.317 73.04C134.454 72.6299 134.869 72.3955 135.498 72.3955C136.285 72.3955 136.68 72.7471 136.68 73.3965V73.875L135.171 73.9678C133.946 74.041 133.252 74.583 133.252 75.5205V75.5303C133.252 76.4873 134.009 77.0928 135.01 77.0928ZM134.122 75.5107V75.501C134.122 74.9785 134.473 74.6953 135.274 74.6465L136.68 74.5586V75.0371C136.68 75.7891 136.05 76.3555 135.186 76.3555C134.576 76.3555 134.122 76.043 134.122 75.5107ZM138.674 78.7578H139.524V76.1699H139.602C139.89 76.7314 140.52 77.0928 141.243 77.0928C142.581 77.0928 143.45 76.0234 143.45 74.373V74.3633C143.45 72.7227 142.576 71.6436 141.243 71.6436C140.51 71.6436 139.924 71.9902 139.602 72.5762H139.524V71.7363H138.674V78.7578ZM141.047 76.3408C140.09 76.3408 139.505 75.5889 139.505 74.373V74.3633C139.505 73.1475 140.09 72.3955 141.047 72.3955C142.009 72.3955 142.581 73.1377 142.581 74.3633V74.373C142.581 75.5986 142.009 76.3408 141.047 76.3408ZM145.815 77.0928C146.523 77.0928 147.075 76.7852 147.407 76.2236H147.485V77H148.335V73.3965C148.335 72.3027 147.617 71.6436 146.333 71.6436C145.21 71.6436 144.409 72.2002 144.272 73.0254L144.267 73.0547H145.117L145.122 73.04C145.259 72.6299 145.674 72.3955 146.304 72.3955C147.09 72.3955 147.485 72.7471 147.485 73.3965V73.875L145.976 73.9678C144.751 74.041 144.057 74.583 144.057 75.5205V75.5303C144.057 76.4873 144.814 77.0928 145.815 77.0928ZM144.927 75.5107V75.501C144.927 74.9785 145.278 74.6953 146.079 74.6465L147.485 74.5586V75.0371C147.485 75.7891 146.855 76.3555 145.991 76.3555C145.381 76.3555 144.927 76.043 144.927 75.5107ZM153.603 77H154.482V69.9541H153.608L151.733 71.3018V72.2295L153.525 70.9307H153.603V77Z" fill="#180B5A"/>
<path d="M51.8838 166H56.3564V165.058H52.9775V162.865H56.1758V161.957H52.9775V159.896H56.3564V158.954H51.8838V166ZM59.4104 166.034C59.6154 166.034 59.8108 166.01 59.9816 165.98V165.136C59.8352 165.15 59.7424 165.155 59.5813 165.155C59.0588 165.155 58.844 164.921 58.844 164.35V161.532H59.9816V160.697H58.844V159.359H57.7649V160.697H56.9348V161.532H57.7649V164.604C57.7649 165.624 58.2434 166.034 59.4104 166.034ZM62.2641 166.088C62.9672 166.088 63.5238 165.785 63.8363 165.248H63.9194V166H64.9692V162.372C64.9692 161.259 64.2172 160.595 62.8842 160.595C61.6781 160.595 60.8432 161.176 60.7162 162.045L60.7113 162.079H61.7319L61.7367 162.06C61.8637 161.684 62.2494 161.469 62.8354 161.469C63.5531 161.469 63.9194 161.791 63.9194 162.372V162.841L62.4838 162.924C61.2192 163.002 60.5063 163.554 60.5063 164.501V164.511C60.5063 165.473 61.2533 166.088 62.2641 166.088ZM61.561 164.467V164.457C61.561 163.979 61.893 163.715 62.6254 163.671L63.9194 163.588V164.042C63.9194 164.726 63.3383 165.243 62.5473 165.243C61.976 165.243 61.561 164.955 61.561 164.467ZM66.0553 167.768H67.1149V165.16H67.193C67.4762 165.731 68.0963 166.088 68.8239 166.088C70.1715 166.088 71.0211 165.033 71.0211 163.354V163.344C71.0211 161.674 70.1617 160.604 68.8239 160.604C68.0817 160.604 67.5006 160.951 67.193 161.532H67.1149V160.697H66.0553V167.768ZM68.526 165.185C67.6422 165.185 67.0953 164.486 67.0953 163.354V163.344C67.0953 162.211 67.6422 161.513 68.526 161.513C69.4098 161.513 69.942 162.201 69.942 163.344V163.354C69.942 164.491 69.4098 165.185 68.526 165.185ZM73.3426 166.088C74.0457 166.088 74.6024 165.785 74.9149 165.248H74.9979V166H76.0477V162.372C76.0477 161.259 75.2957 160.595 73.9627 160.595C72.7567 160.595 71.9217 161.176 71.7948 162.045L71.7899 162.079H72.8104L72.8153 162.06C72.9422 161.684 73.328 161.469 73.9139 161.469C74.6317 161.469 74.9979 161.791 74.9979 162.372V162.841L73.5623 162.924C72.2977 163.002 71.5848 163.554 71.5848 164.501V164.511C71.5848 165.473 72.3319 166.088 73.3426 166.088ZM72.6395 164.467V164.457C72.6395 163.979 72.9715 163.715 73.7039 163.671L74.9979 163.588V164.042C74.9979 164.726 74.4168 165.243 73.6258 165.243C73.0545 165.243 72.6395 164.955 72.6395 164.467ZM79.4602 166H84.2063V165.067H80.9495V164.97L82.4436 163.48C83.7229 162.211 84.094 161.596 84.094 160.795V160.78C84.094 159.618 83.1272 158.783 81.8137 158.783C80.3977 158.783 79.4016 159.691 79.3967 160.98L79.4065 160.99H80.4319L80.4368 160.976C80.4368 160.204 80.9641 159.687 81.7551 159.687C82.5266 159.687 83.0002 160.194 83.0002 160.883V160.897C83.0002 161.469 82.7317 161.83 81.7991 162.802L79.4602 165.258V166Z" fill="#180B5A"/>
<path d="M143.898 231H148.264V230.209H144.777V227.787H148.083V227.006H144.777V224.745H148.264V223.954H143.898V231ZM151.21 231.039C151.376 231.039 151.537 231.02 151.703 230.99V230.268C151.547 230.282 151.464 230.287 151.313 230.287C150.766 230.287 150.551 230.038 150.551 229.418V226.439H151.703V225.736H150.551V224.374H149.672V225.736H148.842V226.439H149.672V229.633C149.672 230.639 150.126 231.039 151.21 231.039ZM154.01 231.093C154.718 231.093 155.27 230.785 155.602 230.224H155.68V231H156.53V227.396C156.53 226.303 155.812 225.644 154.528 225.644C153.405 225.644 152.604 226.2 152.467 227.025L152.462 227.055H153.312L153.317 227.04C153.454 226.63 153.869 226.396 154.498 226.396C155.285 226.396 155.68 226.747 155.68 227.396V227.875L154.171 227.968C152.946 228.041 152.252 228.583 152.252 229.521V229.53C152.252 230.487 153.009 231.093 154.01 231.093ZM153.122 229.511V229.501C153.122 228.979 153.473 228.695 154.274 228.646L155.68 228.559V229.037C155.68 229.789 155.05 230.355 154.186 230.355C153.576 230.355 153.122 230.043 153.122 229.511ZM157.674 232.758H158.524V230.17H158.602C158.89 230.731 159.52 231.093 160.243 231.093C161.581 231.093 162.45 230.023 162.45 228.373V228.363C162.45 226.723 161.576 225.644 160.243 225.644C159.51 225.644 158.924 225.99 158.602 226.576H158.524V225.736H157.674V232.758ZM160.047 230.341C159.09 230.341 158.505 229.589 158.505 228.373V228.363C158.505 227.147 159.09 226.396 160.047 226.396C161.009 226.396 161.581 227.138 161.581 228.363V228.373C161.581 229.599 161.009 230.341 160.047 230.341ZM164.815 231.093C165.523 231.093 166.075 230.785 166.407 230.224H166.485V231H167.335V227.396C167.335 226.303 166.617 225.644 165.333 225.644C164.21 225.644 163.409 226.2 163.272 227.025L163.267 227.055H164.117L164.122 227.04C164.259 226.63 164.674 226.396 165.304 226.396C166.09 226.396 166.485 226.747 166.485 227.396V227.875L164.976 227.968C163.751 228.041 163.057 228.583 163.057 229.521V229.53C163.057 230.487 163.814 231.093 164.815 231.093ZM163.927 229.511V229.501C163.927 228.979 164.278 228.695 165.079 228.646L166.485 228.559V229.037C166.485 229.789 165.855 230.355 164.991 230.355C164.381 230.355 163.927 230.043 163.927 229.511ZM173.277 231.117C174.688 231.117 175.723 230.248 175.723 229.071V229.062C175.723 228.061 175.025 227.421 173.999 227.333V227.313C174.878 227.128 175.493 226.532 175.493 225.663V225.653C175.493 224.584 174.61 223.837 173.267 223.837C171.948 223.837 171.04 224.604 170.928 225.751L170.923 225.8H171.768L171.773 225.751C171.846 225.038 172.437 224.599 173.267 224.599C174.126 224.599 174.61 225.023 174.61 225.761V225.771C174.61 226.474 174.024 226.991 173.184 226.991H172.339V227.733H173.223C174.209 227.733 174.829 228.217 174.829 229.081V229.091C174.829 229.838 174.199 230.355 173.277 230.355C172.339 230.355 171.699 229.877 171.631 229.184L171.626 229.135H170.781L170.786 229.193C170.879 230.307 171.822 231.117 173.277 231.117Z" fill="#180B5A"/>
<path d="M110.854 46.5208C114.591 44.5962 119.409 42.9171 123.307 41.736C133.242 38.7258 144.668 37.9765 154.667 40.6158C164.765 43.2809 186.96 51.0333 181.287 69.9841C178.902 77.9505 173.119 84.3281 167.397 88.2623C159.297 93.8319 150.149 93.8447 141.198 93.8447C130.501 93.8447 119.929 91.1071 109.373 89.1398C101.24 87.624 92.3053 85.6458 84.2327 88.7291C78.1163 91.0652 72.6063 96.5545 67.6172 101.537C63.1091 106.039 59.0083 112.556 55.9022 118.676C52.9321 124.528 50.2637 130.45 48.8268 137.234C47.3967 143.987 47 151.152 47 158.126C47 165.162 47.6641 171.169 49.4358 177.861C51.601 186.04 55.6769 194.449 60.3968 200.527C65.2374 206.76 71.1144 212.245 77.5347 215.276C84.7868 218.7 93.3132 221.623 100.936 218.599C103.364 217.636 107.548 213.935 109.373 211.583C111.289 209.117 111.497 203.873 111.925 200.527C112.938 192.608 109.834 187.897 105.386 182.734C101.048 177.698 93.5757 177.582 88.0604 177.936C81.0501 178.384 74.4352 181.342 68.1681 185.329C63.6423 188.208 58.6589 191.38 55.8732 197.017C54.0111 200.785 52.5095 204.742 52.5095 209.302C52.5095 218.545 55.309 226.909 60.3243 233.368C62.9047 236.69 66.0128 238.494 69.444 240.07C76.5685 243.343 83.6339 246.329 91.1631 247.613C98.297 248.83 105.144 247.035 111.925 244.215C119.17 241.203 125.015 235.665 131.107 230.007C136.218 225.26 140.448 218.747 145.185 213.409C150.698 207.198 156.469 200.519 162.932 195.971C167.674 192.634 173.354 190.124 178.764 189.549C181.266 189.282 184.602 189.417 187 189.813" stroke="#180B5A" stroke-linecap="round" stroke-dasharray="6 6"/>
<rect x="44" y="113" width="45" height="44" rx="5" fill="#614CCB"/>
<rect x="137" y="178" width="45" height="44" rx="5" fill="#614CCB"/>
<rect x="117" y="24" width="45" height="44" rx="5" fill="#614CCB"/>
<circle cx="109.5" cy="47.5" r="1.5" fill="#180B5A"/>
<circle cx="188.5" cy="190.5" r="1.5" fill="#180B5A"/>
</svg>
