<svg width="272" height="331" viewBox="0 0 272 331" fill="none" xmlns="http://www.w3.org/2000/svg">
<rect width="272" height="331" rx="10" fill="#EBEBFF"/>
<path d="M24.3906 41H31.6875V39.3047H26.4062V36.0781H31.3984V34.4766H26.4062V31.4219H31.6875V29.7266H24.3906V41ZM36.9358 41.0391C37.3108 41.0391 37.6701 41.0078 37.9514 40.9531V39.4531C37.717 39.4766 37.5686 39.4844 37.2951 39.4844C36.4826 39.4844 36.1467 39.125 36.1467 38.2734V33.9688H37.9514V32.4609H36.1467V30.3672H34.1701V32.4609H32.842V33.9688H34.1701V38.7344C34.1701 40.3828 34.9748 41.0391 36.9358 41.0391ZM41.809 41.1406C42.934 41.1406 43.8403 40.6562 44.309 39.8281H44.4418V41H46.3637V35.1641C46.3637 33.3594 45.1293 32.2969 42.934 32.2969C40.9028 32.2969 39.5278 33.25 39.3403 34.6875L39.3324 34.7578H41.1684L41.1762 34.7266C41.3715 34.1641 41.9496 33.8438 42.8403 33.8438C43.8871 33.8438 44.4418 34.3125 44.4418 35.1641V35.8984L42.2465 36.0312C40.1684 36.1562 39.0043 37.0469 39.0043 38.5703V38.5859C39.0043 40.1406 40.184 41.1406 41.809 41.1406ZM40.9262 38.4922V38.4766C40.9262 37.7734 41.434 37.375 42.5199 37.3047L44.4418 37.1797V37.8672C44.4418 38.8828 43.5746 39.6484 42.4028 39.6484C41.5434 39.6484 40.9262 39.2188 40.9262 38.4922ZM48.2916 43.8359H50.2369V39.6406H50.3698C50.8151 40.5625 51.7916 41.1406 52.9635 41.1406C55.1276 41.1406 56.4713 39.4609 56.4713 36.7422V36.7266C56.4713 34.0234 55.1041 32.3203 52.9635 32.3203C51.7682 32.3203 50.8385 32.8672 50.3698 33.7969H50.2369V32.4609H48.2916V43.8359ZM52.3541 39.5C51.0338 39.5 50.2135 38.4453 50.2135 36.7344V36.7188C50.2135 35.0078 51.0338 33.9609 52.3541 33.9609C53.6823 33.9609 54.4869 35.0078 54.4869 36.7266V36.7422C54.4869 38.4531 53.6823 39.5 52.3541 39.5ZM60.3524 41.1406C61.4774 41.1406 62.3836 40.6562 62.8524 39.8281H62.9852V41H64.9071V35.1641C64.9071 33.3594 63.6727 32.2969 61.4774 32.2969C59.4461 32.2969 58.0711 33.25 57.8836 34.6875L57.8758 34.7578H59.7118L59.7196 34.7266C59.9149 34.1641 60.493 33.8438 61.3836 33.8438C62.4305 33.8438 62.9852 34.3125 62.9852 35.1641V35.8984L60.7899 36.0312C58.7118 36.1562 57.5477 37.0469 57.5477 38.5703V38.5859C57.5477 40.1406 58.7274 41.1406 60.3524 41.1406ZM59.4696 38.4922V38.4766C59.4696 37.7734 59.9774 37.375 61.0633 37.3047L62.9852 37.1797V37.8672C62.9852 38.8828 62.118 39.6484 60.9461 39.6484C60.0868 39.6484 59.4696 39.2188 59.4696 38.4922ZM70.0616 41.1719C72.1631 41.1719 73.6866 40.0859 73.6866 38.4609V38.4453C73.6866 37.2031 72.8975 36.4922 71.2256 36.1172L69.8428 35.8125C68.9209 35.6016 68.5616 35.2969 68.5616 34.7969V34.7891C68.5616 34.1484 69.1866 33.7266 70.0537 33.7266C70.9678 33.7266 71.5303 34.1641 71.6709 34.7031L71.6787 34.7266H73.5069V34.7109C73.3819 33.3281 72.1397 32.2969 70.0616 32.2969C68.0459 32.2969 66.6397 33.3594 66.6397 34.8984V34.9062C66.6397 36.1641 67.4131 36.9297 69.0381 37.2891L70.4209 37.6016C71.3584 37.8125 71.7334 38.1406 71.7334 38.6406V38.6562C71.7334 39.2969 71.0616 39.7344 70.0928 39.7344C69.1241 39.7344 68.5537 39.3203 68.3506 38.7266L68.3428 38.7109H66.4131V38.7266C66.5772 40.1719 67.8897 41.1719 70.0616 41.1719Z" fill="black"/>
<path d="M152.898 90H157.264V89.209H153.777V86.7871H157.083V86.0059H153.777V83.7451H157.264V82.9541H152.898V90ZM160.21 90.0391C160.376 90.0391 160.537 90.0195 160.703 89.9902V89.2676C160.547 89.2822 160.464 89.2871 160.313 89.2871C159.766 89.2871 159.551 89.0381 159.551 88.418V85.4395H160.703V84.7363H159.551V83.374H158.672V84.7363H157.842V85.4395H158.672V88.6328C158.672 89.6387 159.126 90.0391 160.21 90.0391ZM163.01 90.0928C163.718 90.0928 164.27 89.7852 164.602 89.2236H164.68V90H165.53V86.3965C165.53 85.3027 164.812 84.6436 163.528 84.6436C162.405 84.6436 161.604 85.2002 161.467 86.0254L161.462 86.0547H162.312L162.317 86.04C162.454 85.6299 162.869 85.3955 163.498 85.3955C164.285 85.3955 164.68 85.7471 164.68 86.3965V86.875L163.171 86.9678C161.946 87.041 161.252 87.583 161.252 88.5205V88.5303C161.252 89.4873 162.009 90.0928 163.01 90.0928ZM162.122 88.5107V88.501C162.122 87.9785 162.473 87.6953 163.274 87.6465L164.68 87.5586V88.0371C164.68 88.7891 164.05 89.3555 163.186 89.3555C162.576 89.3555 162.122 89.043 162.122 88.5107ZM166.674 91.7578H167.524V89.1699H167.602C167.89 89.7314 168.52 90.0928 169.243 90.0928C170.581 90.0928 171.45 89.0234 171.45 87.373V87.3633C171.45 85.7227 170.576 84.6436 169.243 84.6436C168.51 84.6436 167.924 84.9902 167.602 85.5762H167.524V84.7363H166.674V91.7578ZM169.047 89.3408C168.09 89.3408 167.505 88.5889 167.505 87.373V87.3633C167.505 86.1475 168.09 85.3955 169.047 85.3955C170.009 85.3955 170.581 86.1377 170.581 87.3633V87.373C170.581 88.5986 170.009 89.3408 169.047 89.3408ZM173.815 90.0928C174.523 90.0928 175.075 89.7852 175.407 89.2236H175.485V90H176.335V86.3965C176.335 85.3027 175.617 84.6436 174.333 84.6436C173.21 84.6436 172.409 85.2002 172.272 86.0254L172.267 86.0547H173.117L173.122 86.04C173.259 85.6299 173.674 85.3955 174.304 85.3955C175.09 85.3955 175.485 85.7471 175.485 86.3965V86.875L173.976 86.9678C172.751 87.041 172.057 87.583 172.057 88.5205V88.5303C172.057 89.4873 172.814 90.0928 173.815 90.0928ZM172.927 88.5107V88.501C172.927 87.9785 173.278 87.6953 174.079 87.6465L175.485 87.5586V88.0371C175.485 88.7891 174.855 89.3555 173.991 89.3555C173.381 89.3555 172.927 89.043 172.927 88.5107ZM181.603 90H182.482V82.9541H181.608L179.733 84.3018V85.2295L181.525 83.9307H181.603V90Z" fill="#180B5A"/>
<path d="M35.8838 185H40.3564V184.058H36.9775V181.865H40.1758V180.957H36.9775V178.896H40.3564V177.954H35.8838V185ZM43.4104 185.034C43.6154 185.034 43.8108 185.01 43.9816 184.98V184.136C43.8352 184.15 43.7424 184.155 43.5813 184.155C43.0588 184.155 42.844 183.921 42.844 183.35V180.532H43.9816V179.697H42.844V178.359H41.7649V179.697H40.9348V180.532H41.7649V183.604C41.7649 184.624 42.2434 185.034 43.4104 185.034ZM46.2641 185.088C46.9672 185.088 47.5238 184.785 47.8363 184.248H47.9194V185H48.9692V181.372C48.9692 180.259 48.2172 179.595 46.8842 179.595C45.6781 179.595 44.8432 180.176 44.7162 181.045L44.7113 181.079H45.7319L45.7367 181.06C45.8637 180.684 46.2494 180.469 46.8354 180.469C47.5531 180.469 47.9194 180.791 47.9194 181.372V181.841L46.4838 181.924C45.2192 182.002 44.5063 182.554 44.5063 183.501V183.511C44.5063 184.473 45.2533 185.088 46.2641 185.088ZM45.561 183.467V183.457C45.561 182.979 45.893 182.715 46.6254 182.671L47.9194 182.588V183.042C47.9194 183.726 47.3383 184.243 46.5473 184.243C45.976 184.243 45.561 183.955 45.561 183.467ZM50.0553 186.768H51.1149V184.16H51.193C51.4762 184.731 52.0963 185.088 52.8239 185.088C54.1715 185.088 55.0211 184.033 55.0211 182.354V182.344C55.0211 180.674 54.1617 179.604 52.8239 179.604C52.0817 179.604 51.5006 179.951 51.193 180.532H51.1149V179.697H50.0553V186.768ZM52.526 184.185C51.6422 184.185 51.0953 183.486 51.0953 182.354V182.344C51.0953 181.211 51.6422 180.513 52.526 180.513C53.4098 180.513 53.942 181.201 53.942 182.344V182.354C53.942 183.491 53.4098 184.185 52.526 184.185ZM57.3426 185.088C58.0457 185.088 58.6024 184.785 58.9149 184.248H58.9979V185H60.0477V181.372C60.0477 180.259 59.2957 179.595 57.9627 179.595C56.7567 179.595 55.9217 180.176 55.7948 181.045L55.7899 181.079H56.8104L56.8153 181.06C56.9422 180.684 57.328 180.469 57.9139 180.469C58.6317 180.469 58.9979 180.791 58.9979 181.372V181.841L57.5623 181.924C56.2977 182.002 55.5848 182.554 55.5848 183.501V183.511C55.5848 184.473 56.3319 185.088 57.3426 185.088ZM56.6395 183.467V183.457C56.6395 182.979 56.9715 182.715 57.7039 182.671L58.9979 182.588V183.042C58.9979 183.726 58.4168 184.243 57.6258 184.243C57.0545 184.243 56.6395 183.955 56.6395 183.467ZM63.4602 185H68.2063V184.067H64.9495V183.97L66.4436 182.48C67.7229 181.211 68.094 180.596 68.094 179.795V179.78C68.094 178.618 67.1272 177.783 65.8137 177.783C64.3977 177.783 63.4016 178.691 63.3967 179.98L63.4065 179.99H64.4319L64.4368 179.976C64.4368 179.204 64.9641 178.687 65.7551 178.687C66.5266 178.687 67.0002 179.194 67.0002 179.883V179.897C67.0002 180.469 66.7317 180.83 65.7991 181.802L63.4602 184.258V185Z" fill="#180B5A"/>
<path d="M195.898 267H200.264V266.209H196.777V263.787H200.083V263.006H196.777V260.745H200.264V259.954H195.898V267ZM203.21 267.039C203.376 267.039 203.537 267.02 203.703 266.99V266.268C203.547 266.282 203.464 266.287 203.313 266.287C202.766 266.287 202.551 266.038 202.551 265.418V262.439H203.703V261.736H202.551V260.374H201.672V261.736H200.842V262.439H201.672V265.633C201.672 266.639 202.126 267.039 203.21 267.039ZM206.01 267.093C206.718 267.093 207.27 266.785 207.602 266.224H207.68V267H208.53V263.396C208.53 262.303 207.812 261.644 206.528 261.644C205.405 261.644 204.604 262.2 204.467 263.025L204.462 263.055H205.312L205.317 263.04C205.454 262.63 205.869 262.396 206.498 262.396C207.285 262.396 207.68 262.747 207.68 263.396V263.875L206.171 263.968C204.946 264.041 204.252 264.583 204.252 265.521V265.53C204.252 266.487 205.009 267.093 206.01 267.093ZM205.122 265.511V265.501C205.122 264.979 205.473 264.695 206.274 264.646L207.68 264.559V265.037C207.68 265.789 207.05 266.355 206.186 266.355C205.576 266.355 205.122 266.043 205.122 265.511ZM209.674 268.758H210.524V266.17H210.602C210.89 266.731 211.52 267.093 212.243 267.093C213.581 267.093 214.45 266.023 214.45 264.373V264.363C214.45 262.723 213.576 261.644 212.243 261.644C211.51 261.644 210.924 261.99 210.602 262.576H210.524V261.736H209.674V268.758ZM212.047 266.341C211.09 266.341 210.505 265.589 210.505 264.373V264.363C210.505 263.147 211.09 262.396 212.047 262.396C213.009 262.396 213.581 263.138 213.581 264.363V264.373C213.581 265.599 213.009 266.341 212.047 266.341ZM216.815 267.093C217.523 267.093 218.075 266.785 218.407 266.224H218.485V267H219.335V263.396C219.335 262.303 218.617 261.644 217.333 261.644C216.21 261.644 215.409 262.2 215.272 263.025L215.267 263.055H216.117L216.122 263.04C216.259 262.63 216.674 262.396 217.304 262.396C218.09 262.396 218.485 262.747 218.485 263.396V263.875L216.976 263.968C215.751 264.041 215.057 264.583 215.057 265.521V265.53C215.057 266.487 215.814 267.093 216.815 267.093ZM215.927 265.511V265.501C215.927 264.979 216.278 264.695 217.079 264.646L218.485 264.559V265.037C218.485 265.789 217.855 266.355 216.991 266.355C216.381 266.355 215.927 266.043 215.927 265.511ZM225.277 267.117C226.688 267.117 227.723 266.248 227.723 265.071V265.062C227.723 264.061 227.025 263.421 225.999 263.333V263.313C226.878 263.128 227.493 262.532 227.493 261.663V261.653C227.493 260.584 226.61 259.837 225.267 259.837C223.948 259.837 223.04 260.604 222.928 261.751L222.923 261.8H223.768L223.773 261.751C223.846 261.038 224.437 260.599 225.267 260.599C226.126 260.599 226.61 261.023 226.61 261.761V261.771C226.61 262.474 226.024 262.991 225.184 262.991H224.339V263.733H225.223C226.209 263.733 226.829 264.217 226.829 265.081V265.091C226.829 265.838 226.199 266.355 225.277 266.355C224.339 266.355 223.699 265.877 223.631 265.184L223.626 265.135H222.781L222.786 265.193C222.879 266.307 223.822 267.117 225.277 267.117Z" fill="#180B5A"/>
<path d="M126.5 51.5C132.732 49.0689 140.767 46.9479 147.269 45.456C163.839 41.6537 182.896 40.7072 199.574 44.041C216.414 47.4074 253.433 57.1999 243.972 81.1379C239.994 91.2006 230.348 99.2565 220.805 104.226C207.296 111.261 192.038 111.278 177.109 111.278C159.268 111.278 141.634 107.819 124.03 105.335C110.465 103.42 95.5627 100.921 82.0988 104.816C71.8976 107.767 62.7077 114.7 54.3865 120.994C46.8677 126.681 40.0282 134.913 34.8476 142.644C29.8938 150.035 25.4434 157.516 23.0469 166.086C20.6617 174.615 20 183.666 20 192.476C20 201.363 21.1076 208.95 24.0625 217.403C27.6738 227.734 34.4718 238.356 42.344 246.034C50.4174 253.907 60.2193 260.835 70.9275 264.665C83.0229 268.99 97.2438 272.682 109.957 268.862C114.006 267.646 120.985 262.97 124.03 260C127.225 256.884 127.572 250.261 128.286 246.034C129.975 236.031 124.798 230.08 117.38 223.559C110.144 217.197 97.6816 217.052 88.4828 217.498C76.7907 218.065 65.758 221.8 55.3054 226.837C47.7571 230.474 39.4454 234.48 34.7992 241.6C31.6934 246.36 29.1891 251.358 29.1891 257.118C29.1891 268.793 33.8582 279.359 42.2231 287.517C46.5267 291.714 51.7107 293.993 57.4334 295.984C69.316 300.117 81.1002 303.889 93.6577 305.511C105.556 307.048 116.977 304.781 128.286 301.219C140.368 297.414 150.118 290.419 160.279 283.272C168.802 277.276 175.858 269.049 183.759 262.306C192.953 254.46 202.579 246.023 213.358 240.279C221.266 236.064 230.74 232.894 239.764 232.167C243.936 231.83 249.5 232 253.5 232.5" stroke="#180B5A" stroke-linecap="round" stroke-dasharray="6 6"/>
<rect x="23" y="114" width="58" height="57" rx="5" fill="#614CCB"/>
<rect x="181" y="198" width="58" height="57" rx="5" fill="#614CCB"/>
<rect x="139" y="22" width="58" height="57" rx="5" fill="#614CCB"/>
<circle cx="126.5" cy="51.5" r="1.5" fill="#180B5A"/>
<circle cx="254.5" cy="232.5" r="1.5" fill="#180B5A"/>
</svg>
