<svg width="29" height="24" viewBox="0 0 29 24" fill="none" xmlns="http://www.w3.org/2000/svg">
<path d="M17.8047 20.0035C18.3194 20.5582 18.8429 21.1262 19.3709 21.6886C20.0939 22.4596 19.8277 23.6211 18.844 23.9296C18.3049 24.0993 17.837 23.944 17.436 23.5546C16.312 22.463 15.1858 21.3747 14.0585 20.2864C13.8491 20.0845 13.633 19.8892 13.4202 19.6918C12.832 19.1438 12.8008 18.2518 13.3723 17.7005C14.7369 16.3803 16.1059 15.0646 17.4839 13.7567C18.1489 13.1254 19.1426 13.2541 19.5937 14.0052C19.9212 14.551 19.8288 15.1744 19.3587 15.6759C18.8374 16.2317 18.3238 16.7952 17.7914 17.3721C17.7368 17.2944 17.7524 17.3333 17.7657 17.3333C19.2328 17.2867 20.7289 17.4009 22.1603 17.1513C24.4595 16.7508 26.2073 14.5343 26.3209 12.2135C26.4435 9.67975 24.2757 7.10713 21.7504 6.7954C21.4752 6.76101 21.1989 6.73328 20.9216 6.71886C20.1897 6.68003 19.6428 6.09206 19.6561 5.34768C19.6684 4.63436 20.2343 4.07746 20.9617 4.06193C24.797 3.9765 28.3918 7.12267 28.9242 10.8989C29.5169 15.0968 26.5682 19.1105 22.3619 19.8904C21.9553 19.9658 21.5354 19.9935 21.121 19.9991C19.9959 20.0135 18.8719 20.0035 17.8036 20.0035H17.8047Z" fill="#EBEBFF"/>
<path d="M11.2039 4.06309C10.7205 3.54169 10.2459 3.00032 9.74128 2.49001C9.10856 1.84991 9.04061 1.03675 9.60093 0.467641C10.1479 -0.0870417 10.9722 -0.0559794 11.6027 0.547515C12.9439 1.83327 14.2851 3.11791 15.6207 4.40922C16.18 4.94948 16.1788 5.83475 15.6207 6.3739C14.2651 7.68406 12.9071 8.99201 11.5403 10.2911C10.8564 10.9412 9.85045 10.8191 9.3993 10.0514C9.07848 9.50453 9.18208 8.87996 9.65105 8.38186C10.1724 7.82717 10.677 7.25918 11.1894 6.69562C11.2206 6.71337 11.2518 6.73001 11.2819 6.74776C11.1805 6.73888 11.0791 6.72002 10.9778 6.72113C9.75688 6.74221 8.51927 6.65124 7.31843 6.81543C5.11168 7.11718 3.63569 8.44731 2.9417 10.5263C2.2555 12.5819 2.89045 14.3691 4.40655 15.8501C5.40688 16.8263 6.63892 17.3156 8.04696 17.3511C8.79554 17.3699 9.34806 17.9479 9.34472 18.6879C9.34137 19.4234 8.77326 19.9914 8.02579 20.0058C4.18933 20.0812 0.620211 16.9561 0.0766009 13.1543C-0.517138 8.99201 2.40365 4.96279 6.6534 4.17292C7.05999 4.09748 7.48107 4.07308 7.89546 4.06753C9.01833 4.05311 10.1412 4.06309 11.205 4.06309H11.2039Z" fill="#EBEBFF"/>
</svg>
