<svg width="285" height="113" viewBox="0 0 285 113" fill="none" xmlns="http://www.w3.org/2000/svg">
<rect width="285" height="113" rx="10" fill="#EBEBFF"/>
<rect x="99" y="9" width="87" height="95" rx="8" fill="#1E1E1E" fill-opacity="0.75"/>
<path d="M112.277 37.4156C113.105 37.4156 113.553 36.9703 113.553 36.207V27.6512C113.553 23.5164 115.899 21.3536 120.384 21.3536H129.7C130.528 21.3536 131.011 20.9402 131.011 20.1768C131.011 19.4135 130.528 19 129.7 19H120.315C114.209 19 111 21.9261 111 27.524V36.207C111 36.9703 111.449 37.4156 112.277 37.4156ZM173.723 37.4156C174.551 37.4156 175 36.9703 175 36.207V27.524C175 21.9898 171.826 19 165.719 19H156.3C155.472 19 154.989 19.4135 154.989 20.1768C154.989 20.9402 155.472 21.3536 156.3 21.3536H165.616C169.963 21.3536 172.447 23.5164 172.447 27.6512V36.207C172.447 36.9703 172.895 37.4156 173.723 37.4156ZM140.188 52.7779H140.499C143.293 52.7779 144.708 51.5057 144.708 48.8976V39.1332C144.708 38.4016 144.328 38.0518 143.535 38.0518C142.776 38.0518 142.362 38.4016 142.362 39.1332V49.1838C142.362 50.0426 141.603 50.5833 140.844 50.5833H139.671C139.015 50.5833 138.532 51.0286 138.532 51.6329C138.532 52.3962 139.05 52.7779 140.188 52.7779ZM130.597 45.4625C131.632 45.4625 132.287 44.8582 132.287 43.904V39.6739C132.287 38.6879 131.632 38.0836 130.597 38.0836C129.596 38.0836 128.941 38.7197 128.941 39.6739V43.904C128.941 44.8582 129.596 45.4625 130.597 45.4625ZM155.093 45.4625C156.093 45.4625 156.749 44.8582 156.749 43.904V39.6739C156.749 38.7197 156.093 38.0836 155.093 38.0836C154.058 38.0836 153.368 38.6879 153.368 39.6739V43.904C153.368 44.8582 154.058 45.4625 155.093 45.4625ZM142.707 62.5105C146.502 62.5105 150.297 61.0474 153.092 58.4712C153.299 58.3121 153.506 58.0259 153.506 57.6124C153.506 56.9763 152.988 56.5628 152.367 56.5628C151.988 56.5628 151.677 56.6582 151.229 57.1035C149.158 59.0119 145.95 60.3795 142.707 60.3795C139.464 60.3795 136.289 59.0119 134.185 57.1035C133.771 56.69 133.46 56.5628 133.046 56.5628C132.425 56.5628 131.908 56.9763 131.908 57.6124C131.908 57.9941 132.115 58.2803 132.322 58.4712C135.047 61.0792 138.912 62.5105 142.707 62.5105ZM120.315 78H129.7C130.528 78 131.011 77.5865 131.011 76.8232C131.011 76.0598 130.528 75.6464 129.7 75.6464H120.384C115.899 75.6464 113.553 73.4836 113.553 69.317V60.793C113.553 60.0296 113.105 59.5526 112.277 59.5526C111.449 59.5526 111 60.0296 111 60.793V69.4442C111 75.0739 114.209 78 120.315 78ZM156.3 78H165.719C171.826 78 175 74.9784 175 69.4442V60.793C175 60.0296 174.551 59.5526 173.723 59.5526C172.895 59.5526 172.447 60.0296 172.447 60.793V69.317C172.447 73.4836 169.963 75.6464 165.616 75.6464H156.3C155.472 75.6464 154.989 76.0598 154.989 76.8232C154.989 77.5865 155.472 78 156.3 78Z" fill="white"/>
<path d="M124.105 99H125.617V95.5488H129.161V94.3184H125.617V91.8164H129.495V90.5449H124.105V99ZM132.017 99.1055C132.861 99.1055 133.541 98.7422 133.892 98.1211H133.992V99H135.433V94.623C135.433 93.2695 134.507 92.4727 132.861 92.4727C131.337 92.4727 130.306 93.1875 130.166 94.2656L130.16 94.3184H131.537L131.543 94.2949C131.689 93.873 132.123 93.6328 132.791 93.6328C133.576 93.6328 133.992 93.9844 133.992 94.623V95.1738L132.345 95.2734C130.787 95.3672 129.914 96.0352 129.914 97.1777V97.1895C129.914 98.3555 130.798 99.1055 132.017 99.1055ZM131.355 97.1191V97.1074C131.355 96.5801 131.736 96.2812 132.55 96.2285L133.992 96.1348V96.6504C133.992 97.4121 133.341 97.9863 132.462 97.9863C131.818 97.9863 131.355 97.6641 131.355 97.1191ZM139.525 99.1289C141.148 99.1289 142.092 98.2559 142.303 96.9434L142.314 96.8965L140.937 96.9023L140.926 96.9258C140.744 97.5996 140.281 97.9453 139.525 97.9453C138.535 97.9453 137.943 97.1484 137.943 95.7891V95.7773C137.943 94.4355 138.529 93.6504 139.525 93.6504C140.322 93.6504 140.797 94.0957 140.931 94.7168L140.937 94.7344H142.314V94.7109C142.15 93.3867 141.166 92.4727 139.519 92.4727C137.592 92.4727 136.461 93.709 136.461 95.7773V95.7891C136.461 97.8809 137.597 99.1289 139.525 99.1289ZM146.037 99.1289C147.777 99.1289 148.633 98.127 148.838 97.3008L148.855 97.248H147.467L147.449 97.2891C147.309 97.582 146.857 97.9805 146.066 97.9805C145.076 97.9805 144.455 97.3125 144.438 96.1641H148.914V95.6836C148.914 93.75 147.789 92.4727 145.967 92.4727C144.145 92.4727 142.979 93.791 142.979 95.8066V95.8125C142.979 97.8516 144.133 99.1289 146.037 99.1289ZM145.984 93.6152C146.799 93.6152 147.391 94.1367 147.49 95.1855H144.449C144.561 94.166 145.17 93.6152 145.984 93.6152ZM152.909 99H154.42V90.5449H152.909V99ZM156.098 99H159.268C161.799 99 163.247 97.4473 163.247 94.7402V94.7285C163.247 92.0801 161.782 90.5449 159.268 90.5449H156.098V99ZM157.61 97.7285V91.8164H159.069C160.727 91.8164 161.706 92.8945 161.706 94.752V94.7637C161.706 96.6621 160.751 97.7285 159.069 97.7285H157.61Z" fill="white"/>
</svg>
