<svg width="117" height="126" viewBox="0 0 117 126" fill="none" xmlns="http://www.w3.org/2000/svg">
<rect width="117" height="126" rx="10" fill="#EBEBFF"/>
<rect x="8" y="6" width="101" height="115" rx="8" fill="#1E1E1E" fill-opacity="0.75"/>
<path d="M28.2765 44.4156C29.1046 44.4156 29.5531 43.9703 29.5531 43.207V34.6512C29.5531 30.5164 31.8992 28.3536 36.3844 28.3536H45.6997C46.5278 28.3536 47.0108 27.9402 47.0108 27.1768C47.0108 26.4135 46.5278 26 45.6997 26H36.3154C30.2086 26 27 28.9261 27 34.524V43.207C27 43.9703 27.4485 44.4156 28.2765 44.4156ZM89.7234 44.4156C90.5515 44.4156 91 43.9703 91 43.207V34.524C91 28.9898 87.8259 26 81.7191 26H72.3003C71.4722 26 70.9892 26.4135 70.9892 27.1768C70.9892 27.9402 71.4722 28.3536 72.3003 28.3536H81.6156C85.9628 28.3536 88.4469 30.5164 88.4469 34.6512V43.207C88.4469 43.9703 88.8954 44.4156 89.7234 44.4156ZM56.1881 59.7779H56.4987C59.2933 59.7779 60.7078 58.5057 60.7078 55.8976V46.1332C60.7078 45.4016 60.3283 45.0518 59.5348 45.0518C58.7757 45.0518 58.3617 45.4016 58.3617 46.1332V56.1838C58.3617 57.0426 57.6027 57.5833 56.8437 57.5833H55.6706C55.0151 57.5833 54.5321 58.0286 54.5321 58.6329C54.5321 59.3962 55.0496 59.7779 56.1881 59.7779ZM46.5968 52.4625C47.6318 52.4625 48.2873 51.8582 48.2873 50.904V46.6739C48.2873 45.6879 47.6318 45.0836 46.5968 45.0836C45.5962 45.0836 44.9407 45.7197 44.9407 46.6739V50.904C44.9407 51.8582 45.5962 52.4625 46.5968 52.4625ZM71.0927 52.4625C72.0933 52.4625 72.7488 51.8582 72.7488 50.904V46.6739C72.7488 45.7197 72.0933 45.0836 71.0927 45.0836C70.0577 45.0836 69.3677 45.6879 69.3677 46.6739V50.904C69.3677 51.8582 70.0577 52.4625 71.0927 52.4625ZM58.7067 69.5105C62.5019 69.5105 66.297 68.0474 69.0916 65.4712C69.2987 65.3121 69.5057 65.0259 69.5057 64.6124C69.5057 63.9763 68.9881 63.5628 68.3671 63.5628C67.9876 63.5628 67.6771 63.6582 67.2286 64.1035C65.1585 66.0119 61.9499 67.3795 58.7067 67.3795C55.4636 67.3795 52.2895 66.0119 50.1849 64.1035C49.7709 63.69 49.4604 63.5628 49.0464 63.5628C48.4253 63.5628 47.9078 63.9763 47.9078 64.6124C47.9078 64.9941 48.1148 65.2803 48.3218 65.4712C51.0474 68.0792 54.9116 69.5105 58.7067 69.5105ZM36.3154 85H45.6997C46.5278 85 47.0108 84.5865 47.0108 83.8232C47.0108 83.0598 46.5278 82.6464 45.6997 82.6464H36.3844C31.8992 82.6464 29.5531 80.4836 29.5531 76.317V67.793C29.5531 67.0296 29.1046 66.5526 28.2765 66.5526C27.4485 66.5526 27 67.0296 27 67.793V76.4442C27 82.0739 30.2086 85 36.3154 85ZM72.3003 85H81.7191C87.8259 85 91 81.9784 91 76.4442V67.793C91 67.0296 90.5515 66.5526 89.7234 66.5526C88.8954 66.5526 88.4469 67.0296 88.4469 67.793V76.317C88.4469 80.4836 85.9628 82.6464 81.6156 82.6464H72.3003C71.4722 82.6464 70.9892 83.0598 70.9892 83.8232C70.9892 84.5865 71.4722 85 72.3003 85Z" fill="white"/>
<path d="M40.1049 106H41.6166V102.549H45.1615V101.318H41.6166V98.8164H45.4955V97.5449H40.1049V106ZM48.0172 106.105C48.8609 106.105 49.5406 105.742 49.8922 105.121H49.9918V106H51.4332V101.623C51.4332 100.27 50.5074 99.4727 48.8609 99.4727C47.3375 99.4727 46.3062 100.188 46.1656 101.266L46.1597 101.318H47.5367L47.5426 101.295C47.689 100.873 48.1226 100.633 48.7906 100.633C49.5758 100.633 49.9918 100.984 49.9918 101.623V102.174L48.3453 102.273C46.7867 102.367 45.9137 103.035 45.9137 104.178V104.189C45.9137 105.355 46.7984 106.105 48.0172 106.105ZM47.3551 104.119V104.107C47.3551 103.58 47.7359 103.281 48.5504 103.229L49.9918 103.135V103.65C49.9918 104.412 49.3414 104.986 48.4625 104.986C47.818 104.986 47.3551 104.664 47.3551 104.119ZM55.5252 106.129C57.1482 106.129 58.0916 105.256 58.3025 103.943L58.3142 103.896L56.9373 103.902L56.9256 103.926C56.7439 104.6 56.281 104.945 55.5252 104.945C54.535 104.945 53.9432 104.148 53.9432 102.789V102.777C53.9432 101.436 54.5291 100.65 55.5252 100.65C56.3221 100.65 56.7967 101.096 56.9314 101.717L56.9373 101.734H58.3142V101.711C58.1502 100.387 57.1658 99.4727 55.5193 99.4727C53.5916 99.4727 52.4607 100.709 52.4607 102.777V102.789C52.4607 104.881 53.5975 106.129 55.5252 106.129ZM62.0371 106.129C63.7773 106.129 64.6328 105.127 64.8379 104.301L64.8555 104.248H63.4668L63.4492 104.289C63.3086 104.582 62.8574 104.98 62.0664 104.98C61.0762 104.98 60.4551 104.312 60.4375 103.164H64.9141V102.684C64.9141 100.75 63.7891 99.4727 61.9668 99.4727C60.1445 99.4727 58.9785 100.791 58.9785 102.807V102.812C58.9785 104.852 60.1328 106.129 62.0371 106.129ZM61.9844 100.615C62.7988 100.615 63.3906 101.137 63.4902 102.186H60.4492C60.5605 101.166 61.1699 100.615 61.9844 100.615ZM68.9086 106H70.4203V97.5449H68.9086V106ZM72.0983 106H75.2682C77.7994 106 79.2467 104.447 79.2467 101.74V101.729C79.2467 99.0801 77.7819 97.5449 75.2682 97.5449H72.0983V106ZM73.61 104.729V98.8164H75.069C76.7272 98.8164 77.7057 99.8945 77.7057 101.752V101.764C77.7057 103.662 76.7506 104.729 75.069 104.729H73.61Z" fill="white"/>
</svg>
