<svg width="285" height="113" viewBox="0 0 285 113" fill="none" xmlns="http://www.w3.org/2000/svg">
<rect width="285" height="113" rx="10" fill="#EBEBFF"/>
<path d="M21.8659 27.1758C22.5324 27.1758 23.1477 27.0806 23.7116 26.8901L24.3562 27.8203C24.5759 28.1572 24.8103 28.2891 25.1692 28.2891C25.6965 28.2891 26.07 27.9448 26.07 27.4614C26.07 27.2344 26.0114 27.0659 25.865 26.8389L25.2717 25.9746C26.363 25.0737 26.9563 23.5796 26.9563 21.7192C26.9563 18.3574 24.9934 16.248 21.8659 16.248C18.7312 16.248 16.7683 18.3574 16.7683 21.7192C16.7683 25.1104 18.7312 27.1758 21.8659 27.1758ZM21.8659 25.3521C20.1301 25.3521 19.0241 23.9312 19.0241 21.7192C19.0241 19.5 20.1301 18.0718 21.8659 18.0718C23.5944 18.0718 24.7004 19.5 24.7004 21.7192C24.7004 22.7373 24.4221 23.5723 23.9314 24.1436L23.4406 23.4771C23.2575 23.2207 23.0451 23.1108 22.7375 23.1108C22.2614 23.1108 21.9099 23.4478 21.9099 23.9238C21.9099 24.1069 21.9685 24.2974 22.115 24.5171L22.6203 25.2495C22.3859 25.3154 22.1369 25.3521 21.8659 25.3521ZM30.5912 27.1465C31.7778 27.1465 32.5541 26.5752 32.9423 25.5864H32.9862V26.0698C32.9862 26.7803 33.4037 27.1538 34.019 27.1538C34.6342 27.1538 35.0517 26.7803 35.0517 26.0698V20.1079C35.0517 19.3755 34.6122 18.9873 33.9823 18.9873C33.3598 18.9873 32.913 19.3755 32.913 20.1079V23.6455C32.913 24.6855 32.3197 25.3667 31.3676 25.3667C30.4228 25.3667 29.9028 24.8101 29.9028 23.7627V20.1079C29.9028 19.3755 29.4633 18.9873 28.8334 18.9873C28.2109 18.9873 27.7641 19.3755 27.7641 20.1079V24.2095C27.7641 26.0405 28.892 27.1465 30.5912 27.1465ZM39.6461 27.1685C41.1622 27.1685 42.3781 26.5972 42.8981 25.6304C42.9933 25.4546 43.0446 25.2788 43.0446 25.1104C43.0446 24.6196 42.671 24.3267 42.2096 24.3267C41.9313 24.3267 41.7408 24.4072 41.5138 24.6416C40.9352 25.3228 40.4225 25.5864 39.6388 25.5864C38.5548 25.5864 37.8517 24.8247 37.8517 23.6602V23.5649H42.3341C42.9274 23.5649 43.2643 23.228 43.2643 22.6348C43.2643 20.5034 41.7701 18.98 39.5436 18.98C37.2218 18.98 35.7496 20.584 35.7496 23.1108C35.7496 25.6523 37.1925 27.1685 39.6461 27.1685ZM37.8737 22.2539C37.9469 21.2505 38.6281 20.562 39.5656 20.562C40.5031 20.562 41.1622 21.2285 41.2062 22.2539H37.8737ZM45.0316 27.1538C45.6834 27.1538 46.1009 26.751 46.1009 26.0405V22.5542C46.1009 21.624 46.4452 21.0747 47.4193 21.0601C47.8368 21.0527 48.1444 20.9575 48.3494 20.7817C48.5545 20.606 48.6571 20.3496 48.6571 20.0127C48.6571 19.6465 48.5545 19.3828 48.3494 19.2217C48.1956 19.0898 47.9686 19.0239 47.6829 19.0239C46.8993 19.0239 46.2547 19.6025 46.0496 20.5767H46.0057V20.064C46.0057 19.3828 45.5955 18.9873 44.995 18.9873C44.3797 18.9873 43.9622 19.3828 43.9622 20.064V26.0405C43.9622 26.751 44.387 27.1538 45.0316 27.1538ZM54.7844 27.1685C56.8572 27.1685 58.2561 26.1577 58.2561 24.5977C58.2561 23.4258 57.5676 22.8105 55.8977 22.459L54.6013 22.1807C53.8176 22.0122 53.51 21.7412 53.51 21.3311C53.51 20.8257 54.0154 20.4814 54.7405 20.4814C55.5095 20.4814 55.9343 20.8477 56.3079 21.3237C56.4983 21.5508 56.8059 21.6533 57.0842 21.6533C57.6335 21.6533 57.9045 21.353 57.9045 20.9209C57.9045 20.8184 57.8826 20.7158 57.8533 20.606C57.5969 19.7197 56.4031 18.98 54.7771 18.98C52.741 18.98 51.4446 19.9468 51.4446 21.4482C51.4446 22.6128 52.2209 23.3965 53.759 23.7261L55.0774 24.0044C55.8464 24.1729 56.1174 24.3999 56.1174 24.8247C56.1174 25.3447 55.6121 25.667 54.8357 25.667C54.0227 25.667 53.5393 25.418 53.1218 24.8687C52.8289 24.5391 52.5359 24.3853 52.1917 24.3853C51.6936 24.3853 51.3274 24.7148 51.3274 25.2056C51.3274 25.3228 51.3567 25.4619 51.408 25.6011C51.7815 26.5239 52.9827 27.1685 54.7844 27.1685ZM61.2319 27.1245C62.2133 27.1245 63.1948 26.6338 63.6342 25.7988H63.6782V26.2017C63.7221 26.8315 64.125 27.1538 64.7036 27.1538C65.3115 27.1538 65.7436 26.7876 65.7436 26.0771V21.6021C65.7436 20.02 64.4326 18.98 62.4184 18.98C60.7924 18.98 59.5327 19.5586 59.1665 20.4961C59.0932 20.6572 59.0566 20.811 59.0566 20.9795C59.0566 21.4629 59.4301 21.7998 59.9502 21.7998C60.2944 21.7998 60.5654 21.668 60.7998 21.4043C61.2758 20.7891 61.6713 20.5767 62.3232 20.5767C63.1289 20.5767 63.6416 21.0015 63.6416 21.7339V22.2539L61.664 22.3711C59.7011 22.4883 58.6025 23.3159 58.6025 24.7441C58.6025 26.1577 59.7378 27.1245 61.2319 27.1245ZM61.935 25.5791C61.2172 25.5791 60.7338 25.2129 60.7338 24.627C60.7338 24.0703 61.188 23.7114 61.9863 23.6528L63.6416 23.5503V24.1216C63.6416 24.9712 62.8725 25.5791 61.935 25.5791ZM67.8405 27.1538C68.4704 27.1538 68.9098 26.7729 68.9098 26.0405V17.3906C68.9098 16.6582 68.4704 16.27 67.8405 16.27C67.2179 16.27 66.7712 16.6582 66.7712 17.3906V26.0405C66.7712 26.7729 67.2179 27.1538 67.8405 27.1538ZM73.2406 27.1538C74.017 27.1538 74.4637 26.8169 74.7347 26.0625L76.7782 20.54C76.8441 20.3569 76.8954 20.1372 76.8954 19.9395C76.8954 19.3975 76.4486 18.9873 75.8553 18.9873C75.3573 18.9873 74.9984 19.2583 74.8519 19.8223L73.2626 25.1104H73.2186L71.6293 19.8442C71.4681 19.2656 71.1239 18.9873 70.6039 18.9873C69.996 18.9873 69.5345 19.3682 69.5345 19.9468C69.5345 20.1665 69.5858 20.3936 69.6517 20.584L71.6952 26.0625C71.9808 26.8242 72.4203 27.1538 73.2406 27.1538ZM79.5929 27.1245C80.5743 27.1245 81.5557 26.6338 81.9952 25.7988H82.0391V26.2017C82.0831 26.8315 82.4859 27.1538 83.0645 27.1538C83.6724 27.1538 84.1046 26.7876 84.1046 26.0771V21.6021C84.1046 20.02 82.7935 18.98 80.7794 18.98C79.1534 18.98 77.8936 19.5586 77.5274 20.4961C77.4542 20.6572 77.4176 20.811 77.4176 20.9795C77.4176 21.4629 77.7911 21.7998 78.3111 21.7998C78.6554 21.7998 78.9263 21.668 79.1607 21.4043C79.6368 20.7891 80.0323 20.5767 80.6842 20.5767C81.4898 20.5767 82.0025 21.0015 82.0025 21.7339V22.2539L80.025 22.3711C78.0621 22.4883 76.9635 23.3159 76.9635 24.7441C76.9635 26.1577 78.0987 27.1245 79.5929 27.1245ZM80.296 25.5791C79.5782 25.5791 79.0948 25.2129 79.0948 24.627C79.0948 24.0703 79.5489 23.7114 80.3472 23.6528L82.0025 23.5503V24.1216C82.0025 24.9712 81.2335 25.5791 80.296 25.5791ZM86.1502 27.1538C86.802 27.1538 87.2195 26.751 87.2195 26.0405V22.5542C87.2195 21.624 87.5638 21.0747 88.5379 21.0601C88.9554 21.0527 89.263 20.9575 89.4681 20.7817C89.6731 20.606 89.7757 20.3496 89.7757 20.0127C89.7757 19.6465 89.6731 19.3828 89.4681 19.2217C89.3142 19.0898 89.0872 19.0239 88.8016 19.0239C88.0179 19.0239 87.3733 19.6025 87.1683 20.5767H87.1243V20.064C87.1243 19.3828 86.7141 18.9873 86.1136 18.9873C85.4983 18.9873 85.0808 19.3828 85.0808 20.064V26.0405C85.0808 26.751 85.5057 27.1538 86.1502 27.1538ZM95.903 27.1685C97.9758 27.1685 99.3747 26.1577 99.3747 24.5977C99.3747 23.4258 98.6862 22.8105 97.0163 22.459L95.7199 22.1807C94.9362 22.0122 94.6286 21.7412 94.6286 21.3311C94.6286 20.8257 95.134 20.4814 95.8591 20.4814C96.6281 20.4814 97.0529 20.8477 97.4265 21.3237C97.6169 21.5508 97.9245 21.6533 98.2028 21.6533C98.7522 21.6533 99.0232 21.353 99.0232 20.9209C99.0232 20.8184 99.0012 20.7158 98.9719 20.606C98.7155 19.7197 97.5217 18.98 95.8957 18.98C93.8596 18.98 92.5632 19.9468 92.5632 21.4482C92.5632 22.6128 93.3396 23.3965 94.8776 23.7261L96.196 24.0044C96.965 24.1729 97.236 24.3999 97.236 24.8247C97.236 25.3447 96.7307 25.667 95.9543 25.667C95.1413 25.667 94.6579 25.418 94.2404 24.8687C93.9475 24.5391 93.6545 24.3853 93.3103 24.3853C92.8122 24.3853 92.446 24.7148 92.446 25.2056C92.446 25.3228 92.4753 25.4619 92.5266 25.6011C92.9001 26.5239 94.1013 27.1685 95.903 27.1685ZM103.64 27.1685C105.156 27.1685 106.371 26.5972 106.892 25.6304C106.987 25.4546 107.038 25.2788 107.038 25.1104C107.038 24.6196 106.664 24.3267 106.203 24.3267C105.925 24.3267 105.734 24.4072 105.507 24.6416C104.929 25.3228 104.416 25.5864 103.632 25.5864C102.548 25.5864 101.845 24.8247 101.845 23.6602V23.5649H106.328C106.921 23.5649 107.258 23.228 107.258 22.6348C107.258 20.5034 105.764 18.98 103.537 18.98C101.215 18.98 99.7431 20.584 99.7431 23.1108C99.7431 25.6523 101.186 27.1685 103.64 27.1685ZM101.867 22.2539C101.94 21.2505 102.621 20.562 103.559 20.562C104.496 20.562 105.156 21.2285 105.2 22.2539H101.867ZM110.746 27.1465C111.933 27.1465 112.709 26.5752 113.097 25.5864H113.141V26.0698C113.141 26.7803 113.559 27.1538 114.174 27.1538C114.789 27.1538 115.207 26.7803 115.207 26.0698V20.1079C115.207 19.3755 114.767 18.9873 114.137 18.9873C113.515 18.9873 113.068 19.3755 113.068 20.1079V23.6455C113.068 24.6855 112.475 25.3667 111.523 25.3667C110.578 25.3667 110.058 24.8101 110.058 23.7627V20.1079C110.058 19.3755 109.618 18.9873 108.988 18.9873C108.366 18.9873 107.919 19.3755 107.919 20.1079V24.2095C107.919 26.0405 109.047 27.1465 110.746 27.1465ZM119.391 27.1685C121.464 27.1685 122.863 26.1577 122.863 24.5977C122.863 23.4258 122.174 22.8105 120.504 22.459L119.208 22.1807C118.424 22.0122 118.117 21.7412 118.117 21.3311C118.117 20.8257 118.622 20.4814 119.347 20.4814C120.116 20.4814 120.541 20.8477 120.914 21.3237C121.105 21.5508 121.412 21.6533 121.691 21.6533C122.24 21.6533 122.511 21.353 122.511 20.9209C122.511 20.8184 122.489 20.7158 122.46 20.606C122.203 19.7197 121.01 18.98 119.384 18.98C117.347 18.98 116.051 19.9468 116.051 21.4482C116.051 22.6128 116.827 23.3965 118.366 23.7261L119.684 24.0044C120.453 24.1729 120.724 24.3999 120.724 24.8247C120.724 25.3447 120.219 25.667 119.442 25.667C118.629 25.667 118.146 25.418 117.728 24.8687C117.435 24.5391 117.142 24.3853 116.798 24.3853C116.3 24.3853 115.934 24.7148 115.934 25.2056C115.934 25.3228 115.963 25.4619 116.014 25.6011C116.388 26.5239 117.589 27.1685 119.391 27.1685ZM128.997 27.1245C130.206 27.1245 131.07 26.4946 131.414 25.6157H131.451V26.0698C131.451 26.7876 131.912 27.1538 132.528 27.1538C133.15 27.1538 133.59 26.7803 133.59 26.0698V17.3906C133.59 16.6582 133.15 16.27 132.52 16.27C131.898 16.27 131.451 16.6582 131.451 17.3906V20.4961H131.407C131.026 19.6245 130.147 19.0239 129.012 19.0239C127.042 19.0239 125.797 20.5693 125.797 23.0596C125.797 25.5718 127.034 27.1245 128.997 27.1245ZM129.722 25.4033C128.646 25.4033 127.987 24.5171 127.987 23.0742C127.987 21.6387 128.646 20.7378 129.722 20.7378C130.784 20.7378 131.466 21.646 131.466 23.0742C131.466 24.5098 130.784 25.4033 129.722 25.4033ZM136.932 27.1245C137.913 27.1245 138.894 26.6338 139.334 25.7988H139.378V26.2017C139.422 26.8315 139.825 27.1538 140.403 27.1538C141.011 27.1538 141.443 26.7876 141.443 26.0771V21.6021C141.443 20.02 140.132 18.98 138.118 18.98C136.492 18.98 135.232 19.5586 134.866 20.4961C134.793 20.6572 134.756 20.811 134.756 20.9795C134.756 21.4629 135.13 21.7998 135.65 21.7998C135.994 21.7998 136.265 21.668 136.499 21.4043C136.976 20.7891 137.371 20.5767 138.023 20.5767C138.829 20.5767 139.341 21.0015 139.341 21.7339V22.2539L137.364 22.3711C135.401 22.4883 134.302 23.3159 134.302 24.7441C134.302 26.1577 135.437 27.1245 136.932 27.1245ZM137.635 25.5791C136.917 25.5791 136.434 25.2129 136.434 24.627C136.434 24.0703 136.888 23.7114 137.686 23.6528L139.341 23.5503V24.1216C139.341 24.9712 138.572 25.5791 137.635 25.5791ZM145.335 27.1245C146.543 27.1245 147.407 26.4946 147.752 25.6157H147.788V26.0698C147.788 26.7876 148.25 27.1538 148.865 27.1538C149.487 27.1538 149.927 26.7803 149.927 26.0698V17.3906C149.927 16.6582 149.487 16.27 148.858 16.27C148.235 16.27 147.788 16.6582 147.788 17.3906V20.4961H147.744C147.363 19.6245 146.485 19.0239 145.349 19.0239C143.379 19.0239 142.134 20.5693 142.134 23.0596C142.134 25.5718 143.372 27.1245 145.335 27.1245ZM146.06 25.4033C144.983 25.4033 144.324 24.5171 144.324 23.0742C144.324 21.6387 144.983 20.7378 146.06 20.7378C147.122 20.7378 147.803 21.646 147.803 23.0742C147.803 24.5098 147.122 25.4033 146.06 25.4033ZM154.551 27.1685C156.924 27.1685 158.44 25.6523 158.44 23.0669C158.44 20.5181 156.902 18.98 154.551 18.98C152.2 18.98 150.661 20.5254 150.661 23.0669C150.661 25.645 152.178 27.1685 154.551 27.1685ZM154.551 25.5352C153.496 25.5352 152.829 24.6489 152.829 23.0742C152.829 21.5142 153.511 20.6133 154.551 20.6133C155.591 20.6133 156.265 21.5142 156.265 23.0742C156.265 24.6489 155.598 25.5352 154.551 25.5352ZM162.338 27.1685C164.411 27.1685 165.81 26.1577 165.81 24.5977C165.81 23.4258 165.122 22.8105 163.452 22.459L162.155 22.1807C161.372 22.0122 161.064 21.7412 161.064 21.3311C161.064 20.8257 161.569 20.4814 162.295 20.4814C163.064 20.4814 163.488 20.8477 163.862 21.3237C164.052 21.5508 164.36 21.6533 164.638 21.6533C165.188 21.6533 165.459 21.353 165.459 20.9209C165.459 20.8184 165.437 20.7158 165.407 20.606C165.151 19.7197 163.957 18.98 162.331 18.98C160.295 18.98 158.999 19.9468 158.999 21.4482C158.999 22.6128 159.775 23.3965 161.313 23.7261L162.631 24.0044C163.4 24.1729 163.671 24.3999 163.671 24.8247C163.671 25.3447 163.166 25.667 162.39 25.667C161.577 25.667 161.093 25.418 160.676 24.8687C160.383 24.5391 160.09 24.3853 159.746 24.3853C159.248 24.3853 158.881 24.7148 158.881 25.2056C158.881 25.3228 158.911 25.4619 158.962 25.6011C159.336 26.5239 160.537 27.1685 162.338 27.1685ZM169.43 23.9238C169.95 23.9238 170.236 23.6382 170.346 23.1475C170.441 22.5322 170.661 22.2173 171.635 21.6533C172.668 21.0454 173.202 20.291 173.202 19.1851C173.202 17.4785 171.803 16.3359 169.723 16.3359C168.149 16.3359 166.977 16.9585 166.508 17.9253C166.362 18.2036 166.288 18.4819 166.288 18.7969C166.288 19.3535 166.647 19.7124 167.226 19.7124C167.673 19.7124 168.002 19.5073 168.185 19.0386C168.42 18.3867 168.903 18.0352 169.621 18.0352C170.427 18.0352 170.983 18.5332 170.983 19.251C170.983 19.9248 170.698 20.291 169.753 20.855C168.888 21.3604 168.442 21.9316 168.442 22.7959V22.8984C168.442 23.499 168.808 23.9238 169.43 23.9238ZM169.445 27.1831C170.112 27.1831 170.646 26.6777 170.646 26.0332C170.646 25.3887 170.112 24.8833 169.445 24.8833C168.786 24.8833 168.251 25.3887 168.251 26.0332C168.251 26.6777 168.786 27.1831 169.445 27.1831Z" fill="black"/>
<path d="M20.7314 51.1025C21.1489 51.1025 21.3687 50.9414 21.5371 50.502L25.0894 41.2661C25.1406 41.127 25.1699 41.0024 25.1699 40.8999C25.1699 40.5703 24.8916 40.3286 24.5034 40.3286C24.1812 40.3286 24.0054 40.4604 23.8809 40.7974L20.7534 49.396H20.7095L17.582 40.7974C17.4648 40.4751 17.2671 40.3286 16.9521 40.3286C16.5566 40.3286 16.293 40.5557 16.293 40.8999C16.293 41.0024 16.3149 41.1196 16.3735 41.2661L19.9185 50.4946C20.0869 50.9341 20.314 51.1025 20.7314 51.1025ZM28.0139 51.1318C30.1159 51.1318 31.5368 49.6157 31.5368 47.1914C31.5368 44.7598 30.1159 43.251 28.0139 43.251C25.9045 43.251 24.4836 44.7598 24.4836 47.1914C24.4836 49.6157 25.9045 51.1318 28.0139 51.1318ZM28.0139 50.0112C26.6662 50.0112 25.78 48.9858 25.78 47.1914C25.78 45.397 26.6662 44.3716 28.0139 44.3716C29.3615 44.3716 30.2404 45.397 30.2404 47.1914C30.2404 48.9858 29.3615 50.0112 28.0139 50.0112ZM35.56 51.1318C36.9443 51.1318 38.1528 50.3701 38.519 49.3154C38.5556 49.1982 38.5776 49.0884 38.5776 48.9932C38.5776 48.6636 38.3578 48.4365 38.0282 48.4365C37.7499 48.4365 37.6108 48.5391 37.4277 48.8833C37.0321 49.6157 36.4755 50.0112 35.56 50.0112C34.2489 50.0112 33.3407 48.9419 33.3407 47.1914C33.3407 45.4849 34.2343 44.3716 35.56 44.3716C36.4389 44.3716 37.0175 44.7451 37.4203 45.4995C37.5961 45.8291 37.7499 45.9463 38.0282 45.9463C38.3578 45.9463 38.5702 45.7266 38.5702 45.3896C38.5702 45.3091 38.5556 45.2139 38.5263 45.1187C38.2333 44.064 36.9809 43.251 35.5453 43.251C33.436 43.251 32.0444 44.811 32.0444 47.2061C32.0444 49.6157 33.4506 51.1318 35.56 51.1318ZM40.9454 42.4453C41.1285 42.4453 41.2311 42.3794 41.4069 42.1816L42.5787 40.8779H42.6227L43.7946 42.1816C43.9703 42.3794 44.0729 42.4453 44.256 42.4453C44.505 42.4453 44.6954 42.2476 44.6954 42.0278C44.6954 41.8813 44.6442 41.8008 44.5416 41.6836L43.2306 40.2407C43.0182 40.0063 42.8571 39.9258 42.6154 39.9258C42.3444 39.9258 42.1832 40.0063 41.9708 40.2407L40.6598 41.6836C40.5573 41.8008 40.506 41.8813 40.506 42.0278C40.506 42.2476 40.6964 42.4453 40.9454 42.4453ZM42.7179 51.1318C44.1095 51.1318 45.1788 50.5459 45.6696 49.5132C45.7281 49.374 45.7648 49.2422 45.7648 49.1396C45.7648 48.8027 45.5377 48.583 45.2008 48.583C45.0031 48.583 44.8566 48.6562 44.7247 48.8394C44.1315 49.7036 43.5748 50.0259 42.6666 50.0259C41.3043 50.0259 40.462 49.0737 40.462 47.5356H45.2228C45.6622 47.5356 45.9259 47.2573 45.9259 46.7959C45.9259 44.7085 44.5563 43.251 42.608 43.251C40.506 43.251 39.151 44.8184 39.151 47.2207C39.151 49.6816 40.4694 51.1318 42.7179 51.1318ZM40.4694 46.5396C40.5499 45.2285 41.3995 44.3569 42.5861 44.3569C43.7653 44.3569 44.5782 45.2212 44.6075 46.5396H40.4694ZM50.1123 53.688C50.4859 53.688 50.7495 53.4097 50.7495 53.0068V49.7622H50.7788C51.2329 50.5972 52.1119 51.1318 53.2032 51.1318C55.1221 51.1318 56.4331 49.5791 56.4331 47.1914C56.4331 44.8037 55.1148 43.251 53.1739 43.251C52.0679 43.251 51.1817 43.8149 50.7129 44.6719H50.6836V43.8955C50.6836 43.5146 50.4346 43.251 50.083 43.251C49.7242 43.251 49.4751 43.5146 49.4751 43.8955V53.0068C49.4751 53.4097 49.7388 53.688 50.1123 53.688ZM52.9248 50.0112C51.6211 50.0112 50.7422 48.8906 50.7422 47.1914C50.7422 45.4995 51.6211 44.3716 52.9248 44.3716C54.2798 44.3716 55.1294 45.4702 55.1294 47.1914C55.1294 48.9199 54.2798 50.0112 52.9248 50.0112ZM60.4709 51.1318C62.573 51.1318 63.9939 49.6157 63.9939 47.1914C63.9939 44.7598 62.573 43.251 60.4709 43.251C58.3616 43.251 56.9407 44.7598 56.9407 47.1914C56.9407 49.6157 58.3616 51.1318 60.4709 51.1318ZM60.4709 50.0112C59.1233 50.0112 58.2371 48.9858 58.2371 47.1914C58.2371 45.397 59.1233 44.3716 60.4709 44.3716C61.8186 44.3716 62.6975 45.397 62.6975 47.1914C62.6975 48.9858 61.8186 50.0112 60.4709 50.0112ZM67.7607 51.1318C68.9545 51.1318 69.7456 50.5459 70.163 49.6377H70.185V50.5093C70.185 50.8828 70.478 51.1318 70.8369 51.1318C71.2031 51.1318 71.4594 50.8755 71.4594 50.5093V40.9805C71.4594 40.5776 71.1958 40.2993 70.8222 40.2993C70.4487 40.2993 70.185 40.5776 70.185 40.9805V44.6206H70.1557C69.7016 43.7856 68.8227 43.251 67.7314 43.251C65.8125 43.251 64.5014 44.8037 64.5014 47.1914C64.5014 49.5791 65.8198 51.1318 67.7607 51.1318ZM68.0024 50.0112C66.6547 50.0112 65.8051 48.9199 65.8051 47.1914C65.8051 45.4702 66.6547 44.3716 68.0024 44.3716C69.3134 44.3716 70.1923 45.4922 70.1923 47.1914C70.1923 48.8979 69.3134 50.0112 68.0024 50.0112ZM75.966 51.1318C77.3576 51.1318 78.4269 50.5459 78.9176 49.5132C78.9762 49.374 79.0129 49.2422 79.0129 49.1396C79.0129 48.8027 78.7858 48.583 78.4489 48.583C78.2511 48.583 78.1047 48.6562 77.9728 48.8394C77.3796 49.7036 76.8229 50.0259 75.9147 50.0259C74.5524 50.0259 73.7101 49.0737 73.7101 47.5356H78.4709C78.9103 47.5356 79.174 47.2573 79.174 46.7959C79.174 44.7085 77.8044 43.251 75.8561 43.251C73.7541 43.251 72.3991 44.8184 72.3991 47.2207C72.3991 49.6816 73.7174 51.1318 75.966 51.1318ZM73.7174 46.5396C73.798 45.2285 74.6476 44.3569 75.8341 44.3569C77.0133 44.3569 77.8263 45.2212 77.8556 46.5396H73.7174ZM83.1334 49.2422C83.1334 50.458 83.7486 51.0586 84.9791 51.0586H85.0596C85.7701 51.0586 85.9898 50.8535 85.9898 50.4653C85.9898 50.165 85.7994 49.9966 85.3819 49.9673L85.272 49.96C84.6348 49.916 84.4078 49.6084 84.4078 48.9639V44.4302H85.3892C85.7554 44.4302 85.9605 44.2397 85.9605 43.9028C85.9605 43.5732 85.7554 43.3828 85.3892 43.3828H84.4078V42.0791C84.4078 41.6763 84.1441 41.3979 83.7706 41.3979C83.397 41.3979 83.1334 41.6763 83.1334 42.0791V43.3828H82.4962C82.13 43.3828 81.9249 43.5732 81.9249 43.9028C81.9249 44.2397 82.13 44.4302 82.4962 44.4302H83.1334V49.2422ZM89.8152 51.1318C91.2068 51.1318 92.2762 50.5459 92.7669 49.5132C92.8255 49.374 92.8621 49.2422 92.8621 49.1396C92.8621 48.8027 92.635 48.583 92.2981 48.583C92.1004 48.583 91.9539 48.6562 91.8221 48.8394C91.2288 49.7036 90.6722 50.0259 89.764 50.0259C88.4016 50.0259 87.5594 49.0737 87.5594 47.5356H92.3201C92.7596 47.5356 93.0232 47.2573 93.0232 46.7959C93.0232 44.7085 91.6536 43.251 89.7054 43.251C87.6033 43.251 86.2483 44.8184 86.2483 47.2207C86.2483 49.6816 87.5667 51.1318 89.8152 51.1318ZM87.5667 46.5396C87.6473 45.2285 88.4969 44.3569 89.6834 44.3569C90.8626 44.3569 91.6756 45.2212 91.7049 46.5396H87.5667ZM94.5415 51.1318C94.915 51.1318 95.1787 50.8535 95.1787 50.4507V46.2686C95.1787 45.2944 95.6694 44.4668 96.8193 44.4668C97.0977 44.4668 97.2954 44.4155 97.4272 44.3057C97.5591 44.2031 97.625 44.0566 97.625 43.8589C97.625 43.6831 97.5737 43.5366 97.4639 43.4341C97.3394 43.3169 97.1416 43.251 96.8633 43.251C96.1016 43.251 95.3545 43.8369 95.1348 44.6279H95.1055V43.8955C95.1055 43.5146 94.8564 43.251 94.5049 43.251C94.1533 43.251 93.9043 43.5146 93.9043 43.8955V50.4507C93.9043 50.8535 94.168 51.1318 94.5415 51.1318ZM98.7624 51.1318C99.1506 51.1318 99.3996 50.8389 99.3996 50.4507V46.2246C99.3996 45.1699 100.132 44.3789 101.143 44.3789C102.088 44.3789 102.703 44.9795 102.703 45.895V50.4507C102.703 50.8389 102.952 51.1318 103.34 51.1318C103.728 51.1318 103.977 50.8389 103.977 50.4507V46.1587C103.977 45.126 104.688 44.3789 105.698 44.3789C106.702 44.3789 107.28 44.9941 107.28 46.0342V50.4507C107.28 50.8389 107.529 51.1318 107.918 51.1318C108.306 51.1318 108.555 50.8389 108.555 50.4507V45.7412C108.555 44.2324 107.581 43.251 106.072 43.251C105.003 43.251 104.109 43.793 103.684 44.7012H103.655C103.325 43.7783 102.556 43.251 101.516 43.251C100.491 43.251 99.7146 43.793 99.3557 44.5986H99.3264V43.8955C99.3264 43.5146 99.0773 43.251 98.7258 43.251C98.3742 43.251 98.1252 43.5146 98.1252 43.8955V50.4507C98.1252 50.8389 98.3742 51.1318 98.7624 51.1318ZM110.476 42.1011C110.915 42.1011 111.274 41.7422 111.274 41.3101C111.274 40.8706 110.915 40.519 110.476 40.519C110.044 40.519 109.685 40.8706 109.685 41.3101C109.685 41.7422 110.044 42.1011 110.476 42.1011ZM110.476 51.1318C110.85 51.1318 111.113 50.8535 111.113 50.4507V43.9321C111.113 43.5293 110.85 43.251 110.476 43.251C110.102 43.251 109.839 43.5293 109.839 43.9321V50.4507C109.839 50.8535 110.102 51.1318 110.476 51.1318ZM113.064 51.1318C113.437 51.1318 113.701 50.8535 113.701 50.4507V46.5176C113.701 45.2285 114.484 44.3789 115.686 44.3789C116.858 44.3789 117.436 45.0527 117.436 46.2832V50.4507C117.436 50.8535 117.7 51.1318 118.073 51.1318C118.447 51.1318 118.711 50.8535 118.711 50.4507V46.0562C118.711 44.3276 117.744 43.251 116.074 43.251C114.895 43.251 114.082 43.7783 113.657 44.5986H113.628V43.8955C113.628 43.5146 113.379 43.251 113.027 43.251C112.675 43.251 112.426 43.5146 112.426 43.8955V50.4507C112.426 50.8535 112.69 51.1318 113.064 51.1318ZM122.148 51.1318C123.173 51.1318 124.147 50.5605 124.601 49.689H124.631V50.4873C124.631 50.8682 124.88 51.1318 125.239 51.1318C125.59 51.1318 125.839 50.8682 125.839 50.4873V45.7339C125.839 44.2178 124.711 43.251 122.924 43.251C121.686 43.251 120.573 43.8003 120.141 44.6353C120.038 44.8184 119.987 45.0015 119.987 45.1626C119.987 45.5068 120.222 45.7339 120.551 45.7339C120.793 45.7339 120.961 45.6387 121.078 45.4263C121.503 44.6719 122.067 44.3716 122.895 44.3716C123.95 44.3716 124.565 44.9282 124.565 45.8584V46.4956L122.375 46.6201C120.617 46.7227 119.614 47.543 119.614 48.8467C119.614 50.2163 120.632 51.1318 122.148 51.1318ZM122.433 50.0479C121.518 50.0479 120.91 49.5718 120.91 48.8467C120.91 48.1289 121.496 47.6748 122.521 47.6089L124.565 47.4844V48.1069C124.565 49.2056 123.635 50.0479 122.433 50.0479ZM127.687 51.1318C128.061 51.1318 128.324 50.8535 128.324 50.4507V46.2686C128.324 45.2944 128.815 44.4668 129.965 44.4668C130.243 44.4668 130.441 44.4155 130.573 44.3057C130.705 44.2031 130.771 44.0566 130.771 43.8589C130.771 43.6831 130.719 43.5366 130.609 43.4341C130.485 43.3169 130.287 43.251 130.009 43.251C129.247 43.251 128.5 43.8369 128.28 44.6279H128.251V43.8955C128.251 43.5146 128.002 43.251 127.65 43.251C127.299 43.251 127.05 43.5146 127.05 43.8955V50.4507C127.05 50.8535 127.314 51.1318 127.687 51.1318ZM136.825 51.1318C138.019 51.1318 138.81 50.5459 139.227 49.6377H139.249V50.5093C139.249 50.8828 139.542 51.1318 139.901 51.1318C140.267 51.1318 140.523 50.8755 140.523 50.5093V40.9805C140.523 40.5776 140.26 40.2993 139.886 40.2993C139.513 40.2993 139.249 40.5776 139.249 40.9805V44.6206H139.22C138.766 43.7856 137.887 43.251 136.795 43.251C134.876 43.251 133.565 44.8037 133.565 47.1914C133.565 49.5791 134.884 51.1318 136.825 51.1318ZM137.066 50.0112C135.719 50.0112 134.869 48.9199 134.869 47.1914C134.869 45.4702 135.719 44.3716 137.066 44.3716C138.377 44.3716 139.256 45.4922 139.256 47.1914C139.256 48.8979 138.377 50.0112 137.066 50.0112ZM145.03 51.1318C146.422 51.1318 147.491 50.5459 147.982 49.5132C148.04 49.374 148.077 49.2422 148.077 49.1396C148.077 48.8027 147.85 48.583 147.513 48.583C147.315 48.583 147.169 48.6562 147.037 48.8394C146.444 49.7036 145.887 50.0259 144.979 50.0259C143.616 50.0259 142.774 49.0737 142.774 47.5356H147.535C147.974 47.5356 148.238 47.2573 148.238 46.7959C148.238 44.7085 146.868 43.251 144.92 43.251C142.818 43.251 141.463 44.8184 141.463 47.2207C141.463 49.6816 142.781 51.1318 145.03 51.1318ZM142.781 46.5396C142.862 45.2285 143.712 44.3569 144.898 44.3569C146.077 44.3569 146.89 45.2212 146.92 46.5396H142.781ZM152.424 53.688C152.798 53.688 153.062 53.4097 153.062 53.0068V49.7622H153.091C153.545 50.5972 154.424 51.1318 155.515 51.1318C157.434 51.1318 158.745 49.5791 158.745 47.1914C158.745 44.8037 157.427 43.251 155.486 43.251C154.38 43.251 153.494 43.8149 153.025 44.6719H152.996V43.8955C152.996 43.5146 152.747 43.251 152.395 43.251C152.036 43.251 151.787 43.5146 151.787 43.8955V53.0068C151.787 53.4097 152.051 53.688 152.424 53.688ZM155.237 50.0112C153.933 50.0112 153.054 48.8906 153.054 47.1914C153.054 45.4995 153.933 44.3716 155.237 44.3716C156.592 44.3716 157.441 45.4702 157.441 47.1914C157.441 48.9199 156.592 50.0112 155.237 50.0112ZM160.263 51.1318C160.637 51.1318 160.901 50.8535 160.901 50.4507V46.2686C160.901 45.2944 161.391 44.4668 162.541 44.4668C162.82 44.4668 163.017 44.4155 163.149 44.3057C163.281 44.2031 163.347 44.0566 163.347 43.8589C163.347 43.6831 163.296 43.5366 163.186 43.4341C163.061 43.3169 162.864 43.251 162.585 43.251C161.824 43.251 161.076 43.8369 160.857 44.6279H160.827V43.8955C160.827 43.5146 160.578 43.251 160.227 43.251C159.875 43.251 159.626 43.5146 159.626 43.8955V50.4507C159.626 50.8535 159.89 51.1318 160.263 51.1318ZM166.674 51.1318C168.066 51.1318 169.135 50.5459 169.626 49.5132C169.685 49.374 169.721 49.2422 169.721 49.1396C169.721 48.8027 169.494 48.583 169.157 48.583C168.959 48.583 168.813 48.6562 168.681 48.8394C168.088 49.7036 167.531 50.0259 166.623 50.0259C165.261 50.0259 164.418 49.0737 164.418 47.5356H169.179C169.619 47.5356 169.882 47.2573 169.882 46.7959C169.882 44.7085 168.513 43.251 166.564 43.251C164.462 43.251 163.107 44.8184 163.107 47.2207C163.107 49.6816 164.426 51.1318 166.674 51.1318ZM164.426 46.5396C164.506 45.2285 165.356 44.3569 166.542 44.3569C167.722 44.3569 168.535 45.2212 168.564 46.5396H164.426ZM173.957 51.1318C175.348 51.1318 176.418 50.5459 176.908 49.5132C176.967 49.374 177.004 49.2422 177.004 49.1396C177.004 48.8027 176.777 48.583 176.44 48.583C176.242 48.583 176.095 48.6562 175.964 48.8394C175.37 49.7036 174.814 50.0259 173.905 50.0259C172.543 50.0259 171.701 49.0737 171.701 47.5356H176.462C176.901 47.5356 177.165 47.2573 177.165 46.7959C177.165 44.7085 175.795 43.251 173.847 43.251C171.745 43.251 170.39 44.8184 170.39 47.2207C170.39 49.6816 171.708 51.1318 173.957 51.1318ZM171.708 46.5396C171.789 45.2285 172.638 44.3569 173.825 44.3569C175.004 44.3569 175.817 45.2212 175.846 46.5396H171.708ZM178.683 51.1318C179.057 51.1318 179.32 50.8535 179.32 50.4507V46.5176C179.32 45.2285 180.104 44.3789 181.305 44.3789C182.477 44.3789 183.056 45.0527 183.056 46.2832V50.4507C183.056 50.8535 183.319 51.1318 183.693 51.1318C184.066 51.1318 184.33 50.8535 184.33 50.4507V46.0562C184.33 44.3276 183.363 43.251 181.693 43.251C180.514 43.251 179.701 43.7783 179.276 44.5986H179.247V43.8955C179.247 43.5146 178.998 43.251 178.646 43.251C178.295 43.251 178.046 43.5146 178.046 43.8955V50.4507C178.046 50.8535 178.309 51.1318 178.683 51.1318ZM188.69 51.1318C190.074 51.1318 191.283 50.3701 191.649 49.3154C191.686 49.1982 191.708 49.0884 191.708 48.9932C191.708 48.6636 191.488 48.4365 191.158 48.4365C190.88 48.4365 190.741 48.5391 190.558 48.8833C190.162 49.6157 189.606 50.0112 188.69 50.0112C187.379 50.0112 186.471 48.9419 186.471 47.1914C186.471 45.4849 187.364 44.3716 188.69 44.3716C189.569 44.3716 190.148 44.7451 190.55 45.4995C190.726 45.8291 190.88 45.9463 191.158 45.9463C191.488 45.9463 191.7 45.7266 191.7 45.3896C191.7 45.3091 191.686 45.2139 191.656 45.1187C191.363 44.064 190.111 43.251 188.675 43.251C186.566 43.251 185.174 44.811 185.174 47.2061C185.174 49.6157 186.581 51.1318 188.69 51.1318ZM193.358 51.1318C193.731 51.1318 193.995 50.8535 193.995 50.4507V46.5615C193.995 45.2432 194.779 44.3789 196.046 44.3789C197.24 44.3789 197.847 45.104 197.847 46.3125V50.4507C197.847 50.8535 198.111 51.1318 198.485 51.1318C198.858 51.1318 199.122 50.8535 199.122 50.4507V46.0781C199.122 44.3789 198.111 43.251 196.441 43.251C195.284 43.251 194.449 43.749 194.024 44.5986H193.995V40.9658C193.995 40.5703 193.746 40.2993 193.358 40.2993C192.977 40.2993 192.721 40.5703 192.721 40.9658V50.4507C192.721 50.8535 192.984 51.1318 193.358 51.1318ZM203.526 51.1318C204.918 51.1318 205.987 50.5459 206.478 49.5132C206.536 49.374 206.573 49.2422 206.573 49.1396C206.573 48.8027 206.346 48.583 206.009 48.583C205.811 48.583 205.665 48.6562 205.533 48.8394C204.939 49.7036 204.383 50.0259 203.475 50.0259C202.112 50.0259 201.27 49.0737 201.27 47.5356H206.031C206.47 47.5356 206.734 47.2573 206.734 46.7959C206.734 44.7085 205.364 43.251 203.416 43.251C201.314 43.251 199.959 44.8184 199.959 47.2207C199.959 49.6816 201.277 51.1318 203.526 51.1318ZM201.277 46.5396C201.358 45.2285 202.208 44.3569 203.394 44.3569C204.573 44.3569 205.386 45.2212 205.416 46.5396H201.277ZM208.12 47.3086H211.885C212.244 47.3086 212.515 47.0742 212.515 46.7153C212.515 46.3564 212.244 46.1221 211.885 46.1221H208.12C207.761 46.1221 207.49 46.3564 207.49 46.7153C207.49 47.0742 207.761 47.3086 208.12 47.3086ZM214.341 51.1318C214.714 51.1318 214.978 50.8535 214.978 50.4507V40.9805C214.978 40.5776 214.714 40.2993 214.341 40.2993C213.967 40.2993 213.704 40.5776 213.704 40.9805V50.4507C213.704 50.8535 213.967 51.1318 214.341 51.1318ZM219.448 51.1318C221.55 51.1318 222.971 49.6157 222.971 47.1914C222.971 44.7598 221.55 43.251 219.448 43.251C217.339 43.251 215.918 44.7598 215.918 47.1914C215.918 49.6157 217.339 51.1318 219.448 51.1318ZM219.448 50.0112C218.1 50.0112 217.214 48.9858 217.214 47.1914C217.214 45.397 218.1 44.3716 219.448 44.3716C220.796 44.3716 221.674 45.397 221.674 47.1914C221.674 48.9858 220.796 50.0112 219.448 50.0112ZM226.496 51.1318C228.305 51.1318 229.528 50.2163 229.528 48.854C229.528 47.7334 228.942 47.1768 227.353 46.7886L226.218 46.5103C225.383 46.3052 224.973 45.939 224.973 45.4116C224.973 44.7598 225.61 44.2983 226.525 44.2983C227.302 44.2983 227.792 44.5767 228.122 45.2139C228.261 45.4775 228.437 45.5581 228.686 45.5581C228.994 45.5581 229.184 45.3604 229.184 45.0601C229.184 45.0015 229.177 44.9429 229.162 44.8696C228.964 43.9541 227.851 43.251 226.598 43.251C224.877 43.251 223.713 44.1519 223.713 45.4775C223.713 46.5469 224.423 47.2427 225.895 47.6089L227.06 47.9019C227.917 48.1143 228.232 48.4072 228.232 48.9565C228.232 49.667 227.573 50.0918 226.598 50.0918C225.624 50.0918 225.17 49.7915 224.789 49.125C224.643 48.8613 224.46 48.7441 224.233 48.7441C223.903 48.7441 223.654 48.9346 223.654 49.2715C223.654 49.3667 223.669 49.4619 223.713 49.5718C224.079 50.5239 225.141 51.1318 226.496 51.1318ZM19.7134 73.1318C20.9072 73.1318 21.6982 72.5459 22.1157 71.6377H22.1377V72.5093C22.1377 72.8828 22.4307 73.1318 22.7896 73.1318C23.1558 73.1318 23.4121 72.8755 23.4121 72.5093V62.9805C23.4121 62.5776 23.1484 62.2993 22.7749 62.2993C22.4014 62.2993 22.1377 62.5776 22.1377 62.9805V66.6206H22.1084C21.6543 65.7856 20.7754 65.251 19.6841 65.251C17.7651 65.251 16.4541 66.8037 16.4541 69.1914C16.4541 71.5791 17.7725 73.1318 19.7134 73.1318ZM19.9551 72.0112C18.6074 72.0112 17.7578 70.9199 17.7578 69.1914C17.7578 67.4702 18.6074 66.3716 19.9551 66.3716C21.2661 66.3716 22.145 67.4922 22.145 69.1914C22.145 70.8979 21.2661 72.0112 19.9551 72.0112ZM27.9187 73.1318C29.3103 73.1318 30.3796 72.5459 30.8703 71.5132C30.9289 71.374 30.9655 71.2422 30.9655 71.1396C30.9655 70.8027 30.7385 70.583 30.4016 70.583C30.2038 70.583 30.0573 70.6562 29.9255 70.8394C29.3322 71.7036 28.7756 72.0259 27.8674 72.0259C26.5051 72.0259 25.6628 71.0737 25.6628 69.5356H30.4235C30.863 69.5356 31.1267 69.2573 31.1267 68.7959C31.1267 66.7085 29.757 65.251 27.8088 65.251C25.7067 65.251 24.3518 66.8184 24.3518 69.2207C24.3518 71.6816 25.6701 73.1318 27.9187 73.1318ZM25.6701 68.5396C25.7507 67.2285 26.6003 66.3569 27.7868 66.3569C28.966 66.3569 29.779 67.2212 29.8083 68.5396H25.6701ZM32.6449 75.688C33.0185 75.688 33.2821 75.4097 33.2821 75.0068V71.7622H33.3114C33.7655 72.5972 34.6444 73.1318 35.7358 73.1318C37.6547 73.1318 38.9657 71.5791 38.9657 69.1914C38.9657 66.8037 37.6474 65.251 35.7065 65.251C34.6005 65.251 33.7143 65.8149 33.2455 66.6719H33.2162V65.8955C33.2162 65.5146 32.9672 65.251 32.6156 65.251C32.2568 65.251 32.0077 65.5146 32.0077 65.8955V75.0068C32.0077 75.4097 32.2714 75.688 32.6449 75.688ZM35.4574 72.0112C34.1537 72.0112 33.2748 70.8906 33.2748 69.1914C33.2748 67.4995 34.1537 66.3716 35.4574 66.3716C36.8124 66.3716 37.662 67.4702 37.662 69.1914C37.662 70.9199 36.8124 72.0112 35.4574 72.0112ZM43.0035 73.1318C45.1056 73.1318 46.5265 71.6157 46.5265 69.1914C46.5265 66.7598 45.1056 65.251 43.0035 65.251C40.8942 65.251 39.4733 66.7598 39.4733 69.1914C39.4733 71.6157 40.8942 73.1318 43.0035 73.1318ZM43.0035 72.0112C41.6559 72.0112 40.7697 70.9858 40.7697 69.1914C40.7697 67.397 41.6559 66.3716 43.0035 66.3716C44.3512 66.3716 45.2301 67.397 45.2301 69.1914C45.2301 70.9858 44.3512 72.0112 43.0035 72.0112ZM48.1107 64.1011C48.5501 64.1011 48.909 63.7422 48.909 63.3101C48.909 62.8706 48.5501 62.519 48.1107 62.519C47.6785 62.519 47.3197 62.8706 47.3197 63.3101C47.3197 63.7422 47.6785 64.1011 48.1107 64.1011ZM48.1107 73.1318C48.4842 73.1318 48.7479 72.8535 48.7479 72.4507V65.9321C48.7479 65.5293 48.4842 65.251 48.1107 65.251C47.7371 65.251 47.4735 65.5293 47.4735 65.9321V72.4507C47.4735 72.8535 47.7371 73.1318 48.1107 73.1318ZM52.7051 73.1318C54.5142 73.1318 55.7373 72.2163 55.7373 70.854C55.7373 69.7334 55.1514 69.1768 53.562 68.7886L52.4268 68.5103C51.5918 68.3052 51.1817 67.939 51.1817 67.4116C51.1817 66.7598 51.8189 66.2983 52.7344 66.2983C53.5108 66.2983 54.0015 66.5767 54.3311 67.2139C54.4703 67.4775 54.646 67.5581 54.8951 67.5581C55.2027 67.5581 55.3931 67.3604 55.3931 67.0601C55.3931 67.0015 55.3858 66.9429 55.3711 66.8696C55.1734 65.9541 54.0601 65.251 52.8077 65.251C51.0865 65.251 49.9219 66.1519 49.9219 67.4775C49.9219 68.5469 50.6324 69.2427 52.1045 69.6089L53.2691 69.9019C54.126 70.1143 54.441 70.4072 54.441 70.9565C54.441 71.667 53.7818 72.0918 52.8077 72.0918C51.8335 72.0918 51.3794 71.7915 50.9986 71.125C50.8521 70.8613 50.669 70.7441 50.4419 70.7441C50.1123 70.7441 49.8633 70.9346 49.8633 71.2715C49.8633 71.3667 49.878 71.4619 49.9219 71.5718C50.2881 72.5239 51.3501 73.1318 52.7051 73.1318Z" fill="black"/>
<path d="M137.508 96.1758C139.485 96.1758 140.987 95.3115 141.661 93.876C141.778 93.627 141.836 93.4072 141.836 93.1655C141.836 92.6675 141.478 92.3232 140.958 92.3232C140.547 92.3232 140.306 92.499 140.115 92.9312C139.632 94.0444 138.702 94.5718 137.493 94.5718C135.662 94.5718 134.505 93.085 134.505 90.7119C134.505 88.3535 135.669 86.8594 137.486 86.8594C138.636 86.8594 139.595 87.4526 140.086 88.5879C140.291 89.0493 140.577 89.2544 141.009 89.2544C141.514 89.2544 141.844 88.9321 141.844 88.4268C141.844 88.207 141.785 87.958 141.668 87.7163C140.972 86.1709 139.427 85.2554 137.471 85.2554C134.483 85.2554 132.571 87.3428 132.571 90.7119C132.571 94.103 134.454 96.1758 137.508 96.1758ZM145.134 96.1245C146.138 96.1245 147.112 95.6045 147.559 94.7622H147.595V95.3042C147.625 95.8462 147.969 96.1465 148.467 96.1465C148.98 96.1465 149.353 95.8169 149.353 95.231V90.6533C149.353 89.0933 148.101 88.0752 146.175 88.0752C144.688 88.0752 143.487 88.6465 143.091 89.5474C143.01 89.7158 142.967 89.877 142.967 90.0454C142.967 90.4849 143.289 90.7778 143.736 90.7778C144.043 90.7778 144.285 90.6606 144.475 90.4116C144.929 89.7451 145.391 89.5034 146.101 89.5034C147.002 89.5034 147.551 89.9722 147.551 90.7852V91.3418L145.493 91.459C143.604 91.5762 142.542 92.4038 142.542 93.7808C142.542 95.1797 143.633 96.1245 145.134 96.1245ZM145.691 94.7476C144.9 94.7476 144.365 94.3447 144.365 93.7075C144.365 93.0923 144.871 92.6968 145.75 92.6382L147.551 92.5283V93.1216C147.551 94.0591 146.717 94.7476 145.691 94.7476ZM151.326 96.1465C151.86 96.1465 152.241 95.8022 152.241 95.187V91.5029C152.241 90.3896 152.908 89.6353 153.955 89.6353C154.995 89.6353 155.508 90.2505 155.508 91.3491V95.187C155.508 95.8022 155.889 96.1465 156.423 96.1465C156.958 96.1465 157.331 95.8022 157.331 95.187V90.9829C157.331 89.1885 156.357 88.0898 154.643 88.0898C153.45 88.0898 152.644 88.6245 152.226 89.5474H152.19V89.0054C152.19 88.4414 151.824 88.0825 151.289 88.0825C150.747 88.0825 150.417 88.4414 150.417 89.0054V95.187C150.417 95.8022 150.791 96.1465 151.326 96.1465ZM161.801 96.1538C163.266 96.1538 164.555 95.3994 164.987 94.3374C165.061 94.1616 165.097 94.0078 165.097 93.8687C165.097 93.4146 164.76 93.1216 164.328 93.1216C163.933 93.1216 163.735 93.2754 163.486 93.6855C163.134 94.3081 162.636 94.6816 161.831 94.6816C160.673 94.6816 159.919 93.7295 159.919 92.1182C159.919 90.5288 160.666 89.5547 161.838 89.5547C162.592 89.5547 163.105 89.8916 163.493 90.6021C163.706 90.9683 163.925 91.1221 164.292 91.1221C164.731 91.1221 165.075 90.8438 165.075 90.3896C165.075 90.2578 165.039 90.104 164.98 89.9502C164.607 88.8589 163.31 88.0752 161.787 88.0752C159.524 88.0752 158.066 89.6499 158.066 92.1255C158.066 94.6157 159.531 96.1538 161.801 96.1538ZM169.369 96.1538C170.849 96.1538 172.006 95.5752 172.519 94.5864C172.599 94.4253 172.643 94.2642 172.643 94.125C172.643 93.6855 172.321 93.4219 171.911 93.4219C171.655 93.4219 171.486 93.5024 171.296 93.7148C170.71 94.4619 170.175 94.7476 169.355 94.7476C168.168 94.7476 167.414 93.9126 167.414 92.6162V92.5576H171.992C172.534 92.5576 172.841 92.2354 172.841 91.6934C172.841 89.584 171.391 88.0752 169.267 88.0752C167.026 88.0752 165.597 89.6719 165.597 92.1475C165.597 94.667 166.996 96.1538 169.369 96.1538ZM167.429 91.3564C167.502 90.2432 168.249 89.4888 169.274 89.4888C170.3 89.4888 171.017 90.2285 171.054 91.3564H167.429ZM174.579 96.1465C175.114 96.1465 175.487 95.8022 175.487 95.187V86.2441C175.487 85.6289 175.114 85.2847 174.579 85.2847C174.044 85.2847 173.664 85.6289 173.664 86.2441V95.187C173.664 95.8022 174.044 96.1465 174.579 96.1465ZM178.91 96.1245C179.913 96.1245 180.887 95.6045 181.334 94.7622H181.371V95.3042C181.4 95.8462 181.744 96.1465 182.242 96.1465C182.755 96.1465 183.129 95.8169 183.129 95.231V90.6533C183.129 89.0933 181.876 88.0752 179.95 88.0752C178.463 88.0752 177.262 88.6465 176.866 89.5474C176.786 89.7158 176.742 89.877 176.742 90.0454C176.742 90.4849 177.064 90.7778 177.511 90.7778C177.819 90.7778 178.06 90.6606 178.251 90.4116C178.705 89.7451 179.166 89.5034 179.877 89.5034C180.778 89.5034 181.327 89.9722 181.327 90.7852V91.3418L179.269 91.459C177.379 91.5762 176.317 92.4038 176.317 93.7808C176.317 95.1797 177.408 96.1245 178.91 96.1245ZM179.467 94.7476C178.676 94.7476 178.141 94.3447 178.141 93.7075C178.141 93.0923 178.646 92.6968 179.525 92.6382L181.327 92.5283V93.1216C181.327 94.0591 180.492 94.7476 179.467 94.7476ZM185.101 96.1465C185.65 96.1465 186.017 95.7876 186.017 95.187V91.4517C186.017 90.5068 186.412 89.855 187.452 89.8477C187.811 89.8403 188.082 89.7598 188.258 89.606C188.441 89.4595 188.529 89.2471 188.529 88.9614C188.529 88.6611 188.441 88.4414 188.272 88.3022C188.133 88.1777 187.914 88.1045 187.628 88.1045C186.852 88.1045 186.178 88.6904 185.965 89.5986H185.929V89.0054C185.929 88.4341 185.57 88.0825 185.064 88.0825C184.544 88.0825 184.193 88.4341 184.193 89.0054V95.187C184.193 95.7876 184.552 96.1465 185.101 96.1465Z" fill="#686674"/>
<path d="M225.651 96.1758C228.192 96.1758 229.782 94.9014 229.782 92.8799C229.782 91.3125 228.844 90.4189 226.618 89.9575L225.482 89.7231C224.164 89.4448 223.637 88.9834 223.637 88.2656C223.637 87.3794 224.472 86.8228 225.644 86.8228C226.632 86.8228 227.387 87.2036 227.746 88.0972C227.943 88.5073 228.214 88.6978 228.654 88.6978C229.145 88.6978 229.474 88.3828 229.474 87.9214C229.474 87.7456 229.452 87.6064 229.408 87.4893C228.976 86.0903 227.526 85.2554 225.658 85.2554C223.366 85.2554 221.732 86.5151 221.732 88.3755C221.732 89.9209 222.721 90.917 224.838 91.3491L225.973 91.5835C227.35 91.8691 227.877 92.3379 227.877 93.0996C227.877 93.9785 226.984 94.6084 225.709 94.6084C224.582 94.6084 223.673 94.1982 223.344 93.2827C223.139 92.8579 222.875 92.6895 222.458 92.6895C221.959 92.6895 221.623 93.0264 221.623 93.5537C221.623 93.7295 221.659 93.9199 221.725 94.0957C222.135 95.2969 223.542 96.1758 225.651 96.1758ZM232.889 96.1245C233.893 96.1245 234.867 95.6045 235.314 94.7622H235.35V95.3042C235.38 95.8462 235.724 96.1465 236.222 96.1465C236.735 96.1465 237.108 95.8169 237.108 95.231V90.6533C237.108 89.0933 235.856 88.0752 233.929 88.0752C232.443 88.0752 231.241 88.6465 230.846 89.5474C230.765 89.7158 230.721 89.877 230.721 90.0454C230.721 90.4849 231.044 90.7778 231.49 90.7778C231.798 90.7778 232.04 90.6606 232.23 90.4116C232.684 89.7451 233.146 89.5034 233.856 89.5034C234.757 89.5034 235.306 89.9722 235.306 90.7852V91.3418L233.248 91.459C231.359 91.5762 230.297 92.4038 230.297 93.7808C230.297 95.1797 231.388 96.1245 232.889 96.1245ZM233.446 94.7476C232.655 94.7476 232.12 94.3447 232.12 93.7075C232.12 93.0923 232.626 92.6968 233.505 92.6382L235.306 92.5283V93.1216C235.306 94.0591 234.471 94.7476 233.446 94.7476ZM239.139 96.1465C239.674 96.1465 240.047 95.8022 240.047 95.187V86.2441C240.047 85.6289 239.674 85.2847 239.139 85.2847C238.604 85.2847 238.224 85.6289 238.224 86.2441V95.187C238.224 95.8022 238.604 96.1465 239.139 96.1465ZM244.297 96.1465C244.942 96.1465 245.33 95.8535 245.557 95.2163L247.74 89.4009C247.798 89.2471 247.835 89.0713 247.835 88.9028C247.835 88.4341 247.462 88.0825 246.949 88.0825C246.524 88.0825 246.231 88.3096 246.092 88.793L244.319 94.3081H244.283L242.51 88.8076C242.371 88.3169 242.078 88.0825 241.646 88.0825C241.119 88.0825 240.731 88.4121 240.731 88.9102C240.731 89.0859 240.775 89.269 240.833 89.4302L243.016 95.2163C243.257 95.8755 243.624 96.1465 244.297 96.1465ZM250.562 96.1245C251.565 96.1245 252.539 95.6045 252.986 94.7622H253.023V95.3042C253.052 95.8462 253.396 96.1465 253.894 96.1465C254.407 96.1465 254.781 95.8169 254.781 95.231V90.6533C254.781 89.0933 253.528 88.0752 251.602 88.0752C250.115 88.0752 248.914 88.6465 248.518 89.5474C248.438 89.7158 248.394 89.877 248.394 90.0454C248.394 90.4849 248.716 90.7778 249.163 90.7778C249.471 90.7778 249.712 90.6606 249.903 90.4116C250.357 89.7451 250.818 89.5034 251.529 89.5034C252.43 89.5034 252.979 89.9722 252.979 90.7852V91.3418L250.921 91.459C249.031 91.5762 247.969 92.4038 247.969 93.7808C247.969 95.1797 249.06 96.1245 250.562 96.1245ZM251.118 94.7476C250.327 94.7476 249.793 94.3447 249.793 93.7075C249.793 93.0923 250.298 92.6968 251.177 92.6382L252.979 92.5283V93.1216C252.979 94.0591 252.144 94.7476 251.118 94.7476ZM256.753 96.1465C257.302 96.1465 257.668 95.7876 257.668 95.187V91.4517C257.668 90.5068 258.064 89.855 259.104 89.8477C259.463 89.8403 259.734 89.7598 259.91 89.606C260.093 89.4595 260.181 89.2471 260.181 88.9614C260.181 88.6611 260.093 88.4414 259.924 88.3022C259.785 88.1777 259.565 88.1045 259.28 88.1045C258.503 88.1045 257.83 88.6904 257.617 89.5986H257.581V89.0054C257.581 88.4341 257.222 88.0825 256.716 88.0825C256.196 88.0825 255.845 88.4341 255.845 89.0054V95.187C255.845 95.7876 256.204 96.1465 256.753 96.1465Z" fill="#15112B"/>
<path d="M271.667 23.9267V25C271.665 27.5158 270.851 29.9638 269.344 31.9788C267.838 33.9938 265.72 35.4679 263.308 36.1812C260.895 36.8945 258.317 36.8089 255.957 35.937C253.597 35.0651 251.582 33.4538 250.213 31.3432C248.843 29.2327 248.193 26.7361 248.359 24.2257C248.524 21.7153 249.497 19.3257 251.131 17.4133C252.766 15.5008 254.975 14.1679 257.429 13.6135C259.883 13.0591 262.45 13.3127 264.748 14.3367" stroke="#1C9637" stroke-width="2" stroke-linecap="round" stroke-linejoin="round"/>
<path d="M271.667 15.6667L260 27.345L256.5 23.845" stroke="#1C9637" stroke-width="2" stroke-linecap="round" stroke-linejoin="round"/>
</svg>
