<svg width="178" height="148" viewBox="0 0 178 148" fill="none" xmlns="http://www.w3.org/2000/svg">
<rect width="178" height="148" rx="10" fill="#EBEBFF"/>
<rect x="12.5" y="19.5" width="153" height="27" rx="3.5" fill="#D6CEFF" stroke="#15112B"/>
<rect x="12" y="109" width="154" height="28" rx="4" fill="#614CCB"/>
<path d="M12.9033 15H17.1611V14.3945H13.5723V11.6895H16.9805V11.0938H13.5723V8.55957H17.1611V7.9541H12.9033V15ZM18.1936 12.4609H21.4504V11.8555H18.1936V12.4609ZM22.6244 15H23.269V11.7725C23.269 10.9131 23.8549 10.2295 24.6166 10.2295C25.3442 10.2295 25.8227 10.7227 25.8227 11.4795V15H26.4672V11.665C26.4672 10.8496 27.0092 10.2295 27.8197 10.2295C28.6108 10.2295 29.0258 10.6885 29.0258 11.5479V15H29.6752V11.4014C29.6752 10.2881 29.0649 9.65332 28.0102 9.65332C27.2533 9.65332 26.6381 10.0586 26.3695 10.6885H26.3061C26.0815 10.0586 25.5541 9.65332 24.8168 9.65332C24.099 9.65332 23.557 10.0391 23.3324 10.6689H23.269V9.74121H22.6244V15ZM32.319 15.0879C33.0953 15.0879 33.7252 14.7217 34.0377 14.0967H34.0963V15H34.7457V11.4062C34.7457 10.2979 34.028 9.65332 32.7975 9.65332C31.7086 9.65332 30.9127 10.1904 30.776 11.0303L30.7711 11.0498H31.4205L31.4254 11.04C31.5621 10.5176 32.0651 10.2295 32.778 10.2295C33.6276 10.2295 34.0963 10.6396 34.0963 11.4111V11.9043L32.4557 12.0117C31.2399 12.0947 30.5612 12.627 30.5612 13.54V13.5498C30.5612 14.4873 31.3033 15.0879 32.319 15.0879ZM31.2203 13.54V13.5303C31.2203 12.9346 31.65 12.5977 32.5436 12.5391L34.0963 12.4316V13.042C34.0963 13.877 33.3834 14.5215 32.441 14.5215C31.733 14.5215 31.2203 14.1406 31.2203 13.54ZM36.3153 8.64746C36.5741 8.64746 36.7889 8.4375 36.7889 8.17383C36.7889 7.91016 36.5741 7.7002 36.3153 7.7002C36.0516 7.7002 35.8368 7.91016 35.8368 8.17383C35.8368 8.4375 36.0516 8.64746 36.3153 8.64746ZM35.9881 15H36.6326V9.74121H35.9881V15ZM37.9532 15H38.5977V7.64648H37.9532V15Z" fill="#15112B"/>
<rect x="12" y="67" width="154" height="28" rx="4" fill="#D6CEFF"/>
<path d="M15.1689 63.1465C16.6875 63.1465 17.7031 62.3213 17.7031 61.0762V61.0713C17.7031 60.0898 17.1123 59.499 15.6475 59.167L14.9248 59.001C13.8555 58.7568 13.4209 58.3613 13.4209 57.7412V57.7363C13.4209 56.9502 14.1582 56.4277 15.1299 56.4277C16.1309 56.4229 16.7949 56.9453 16.8975 57.624L16.9023 57.6826H17.5713L17.5664 57.6191C17.4834 56.6084 16.5264 55.8076 15.1494 55.8076C13.7432 55.8076 12.7422 56.6328 12.7422 57.751V57.7559C12.7422 58.7275 13.3379 59.3281 14.7539 59.6504L15.4766 59.8115C16.5605 60.0557 17.0244 60.5 17.0244 61.1494V61.1592C17.0244 61.9502 16.2627 62.5264 15.2031 62.5264C14.1191 62.5264 13.3086 61.9941 13.2354 61.2178L13.2305 61.1641H12.5615L12.5664 61.2178C12.6689 62.3457 13.6797 63.1465 15.1689 63.1465ZM20.8059 63.0879C21.968 63.0879 22.7346 62.4531 22.9397 61.7402L22.9543 61.7012H22.3049L22.2854 61.7354C22.1145 62.1455 21.5871 62.5068 20.8205 62.5068C19.7756 62.5068 19.1018 61.7695 19.0822 60.5391H23.0324V60.2656C23.0324 58.708 22.1633 57.6533 20.7522 57.6533C19.341 57.6533 18.4231 58.7373 18.4231 60.3779V60.3877C18.4231 62.0381 19.3313 63.0879 20.8059 63.0879ZM20.7522 58.2295C21.6555 58.2295 22.3049 58.8447 22.3781 60.0117H19.0871C19.1701 58.874 19.844 58.2295 20.7522 58.2295ZM24.0111 63H24.6557V59.875C24.6557 58.8838 25.2856 58.2295 26.2133 58.2295C27.1264 58.2295 27.5805 58.7422 27.5805 59.7432V63H28.225V59.582C28.225 58.3564 27.5561 57.6533 26.3842 57.6533C25.5639 57.6533 24.9975 58.0293 24.7192 58.6641H24.6557V57.7412H24.0111V63ZM29.4723 63H30.1168V59.875C30.1168 58.8838 30.7467 58.2295 31.6744 58.2295C32.5826 58.2295 33.0416 58.7422 33.0416 59.7432V63H33.6862V59.582C33.6862 58.3564 33.0172 57.6533 31.8453 57.6533C31.025 57.6533 30.4586 58.0244 30.1803 58.6641H30.1168V55.6465H29.4723V63ZM36.3348 63.0879C37.1112 63.0879 37.741 62.7217 38.0535 62.0967H38.1121V63H38.7616V59.4062C38.7616 58.2979 38.0438 57.6533 36.8133 57.6533C35.7244 57.6533 34.9285 58.1904 34.7918 59.0303L34.7869 59.0498H35.4364L35.4412 59.04C35.578 58.5176 36.0809 58.2295 36.7938 58.2295C37.6434 58.2295 38.1121 58.6396 38.1121 59.4111V59.9043L36.4715 60.0117C35.2557 60.0947 34.577 60.627 34.577 61.54V61.5498C34.577 62.4873 35.3192 63.0879 36.3348 63.0879ZM35.2362 61.54V61.5303C35.2362 60.9346 35.6659 60.5977 36.5594 60.5391L38.1121 60.4316V61.042C38.1121 61.877 37.3993 62.5215 36.4569 62.5215C35.7489 62.5215 35.2362 62.1406 35.2362 61.54Z" fill="#15112B"/>
<path d="M74.043 127H79.4336V125.729H75.5547V118.545H74.043V127ZM82.9748 127.129C84.8908 127.129 86.0568 125.875 86.0568 123.801V123.789C86.0568 121.727 84.885 120.473 82.9748 120.473C81.0705 120.473 79.8928 121.732 79.8928 123.789V123.801C79.8928 125.875 81.0529 127.129 82.9748 127.129ZM82.9748 125.945C81.9611 125.945 81.3811 125.154 81.3811 123.807V123.795C81.3811 122.447 81.9611 121.65 82.9748 121.65C83.9826 121.65 84.5627 122.447 84.5627 123.795V123.807C84.5627 125.154 83.9885 125.945 82.9748 125.945ZM89.8676 129.25C91.7367 129.25 92.9203 128.318 92.9203 126.842V120.596H91.4613V121.65H91.3852C91.0219 120.924 90.3305 120.49 89.4457 120.49C87.7934 120.49 86.7856 121.768 86.7856 123.619V123.631C86.7856 125.447 87.7934 126.701 89.4164 126.701C90.3012 126.701 90.9985 126.326 91.3676 125.641H91.4672V126.865C91.4672 127.686 90.8871 128.148 89.891 128.148C89.0766 128.148 88.5903 127.861 88.4906 127.451L88.4848 127.434H87.0258L87.0199 127.451C87.1664 128.529 88.1801 129.25 89.8676 129.25ZM89.8676 125.541C88.8539 125.541 88.2797 124.762 88.2797 123.631V123.619C88.2797 122.488 88.8539 121.703 89.8676 121.703C90.8754 121.703 91.4906 122.488 91.4906 123.619V123.631C91.4906 124.762 90.8813 125.541 89.8676 125.541ZM95.0494 119.523C95.524 119.523 95.9166 119.143 95.9166 118.662C95.9166 118.188 95.524 117.801 95.0494 117.801C94.569 117.801 94.1764 118.188 94.1764 118.662C94.1764 119.143 94.569 119.523 95.0494 119.523ZM94.317 127H95.776V120.596H94.317V127ZM97.161 127H98.62V123.268C98.62 122.307 99.159 121.697 100.026 121.697C100.911 121.697 101.315 122.201 101.315 123.197V127H102.774V122.857C102.774 121.334 101.995 120.473 100.565 120.473C99.6395 120.473 99.0243 120.889 98.7196 121.574H98.62V120.596H97.161V127Z" fill="#EEEEFF"/>
<path d="M23.0078 37.1021C23.8135 37.1021 24.458 36.7207 24.8125 36.0762H24.8984V37H25.833V28.9111H24.8984V32.123H24.8125C24.4956 31.5054 23.8027 31.1079 23.0078 31.1079C21.5361 31.1079 20.5801 32.2842 20.5801 34.0996V34.1104C20.5801 35.915 21.5415 37.1021 23.0078 37.1021ZM23.2227 36.2749C22.1646 36.2749 21.5361 35.4585 21.5361 34.1104V34.0996C21.5361 32.7515 22.1646 31.9351 23.2227 31.9351C24.2754 31.9351 24.9199 32.7622 24.9199 34.0996V34.1104C24.9199 35.4478 24.2754 36.2749 23.2227 36.2749ZM29.5983 37.1021C31.2473 37.1021 32.2678 35.9634 32.2678 34.1104V34.0996C32.2678 32.2412 31.2473 31.1079 29.5983 31.1079C27.9494 31.1079 26.9289 32.2412 26.9289 34.0996V34.1104C26.9289 35.9634 27.9494 37.1021 29.5983 37.1021ZM29.5983 36.2749C28.5026 36.2749 27.885 35.4746 27.885 34.1104V34.0996C27.885 32.73 28.5026 31.9351 29.5983 31.9351C30.6941 31.9351 31.3117 32.73 31.3117 34.0996V34.1104C31.3117 35.4746 30.6941 36.2749 29.5983 36.2749ZM33.31 37H34.2445V33.4121C34.2445 32.5635 34.8783 31.9995 35.7699 31.9995C35.974 31.9995 36.1513 32.021 36.3446 32.0532V31.1455C36.2533 31.1294 36.0546 31.1079 35.8774 31.1079C35.0932 31.1079 34.5507 31.4624 34.3305 32.0693H34.2445V31.21H33.31V37ZM38.6813 37.1021C39.4601 37.1021 40.067 36.7637 40.4323 36.146H40.5182V37H41.4528V33.0361C41.4528 31.833 40.6632 31.1079 39.2506 31.1079C38.0153 31.1079 37.1344 31.7202 36.984 32.6279L36.9786 32.6602H37.9132L37.9186 32.644C38.069 32.1929 38.5255 31.9351 39.2184 31.9351C40.0831 31.9351 40.5182 32.3218 40.5182 33.0361V33.5625L38.8585 33.6646C37.5104 33.7451 36.7477 34.3413 36.7477 35.3726V35.3833C36.7477 36.436 37.5802 37.1021 38.6813 37.1021ZM37.7037 35.3618V35.3511C37.7037 34.7764 38.0905 34.4648 38.9713 34.4111L40.5182 34.3145V34.8408C40.5182 35.668 39.8253 36.291 38.8746 36.291C38.2032 36.291 37.7037 35.9473 37.7037 35.3618ZM42.8065 37H43.741V28.9111H42.8065V37ZM45.6211 30.0928C45.9756 30.0928 46.2657 29.8027 46.2657 29.4482C46.2657 29.0938 45.9756 28.8037 45.6211 28.8037C45.2666 28.8037 44.9766 29.0938 44.9766 29.4482C44.9766 29.8027 45.2666 30.0928 45.6211 30.0928ZM45.1485 37H46.083V31.21H45.1485V37ZM49.8054 37.1021C51.1965 37.1021 51.9753 36.3555 52.2117 35.3081L52.2224 35.249L51.2986 35.2544L51.2878 35.2866C51.073 35.9312 50.5789 36.2749 49.8 36.2749C48.7688 36.2749 48.1028 35.4209 48.1028 34.0889V34.0781C48.1028 32.7729 48.7581 31.9351 49.8 31.9351C50.6326 31.9351 51.1482 32.397 51.2932 32.9663L51.2986 32.9824H52.2278L52.2224 32.9502C52.0505 31.9189 51.2073 31.1079 49.8 31.1079C48.178 31.1079 47.1467 32.2788 47.1467 34.0781V34.0889C47.1467 35.9258 48.1833 37.1021 49.8054 37.1021ZM55.5473 37.1021C56.9116 37.1021 57.7387 36.3286 57.9375 35.5444L57.9482 35.5015H57.0136L56.9921 35.5498C56.8364 35.8989 56.353 36.2695 55.5688 36.2695C54.5376 36.2695 53.8769 35.5713 53.8501 34.3735H58.018V34.0083C58.018 32.2788 57.062 31.1079 55.4882 31.1079C53.9145 31.1079 52.894 32.3325 52.894 34.1211V34.1265C52.894 35.9419 53.893 37.1021 55.5473 37.1021ZM55.4829 31.9404C56.3369 31.9404 56.9707 32.4829 57.0673 33.627H53.8662C53.9682 32.5259 54.6235 31.9404 55.4829 31.9404ZM59.0602 38.9336H59.9948V36.0869H60.0807C60.3976 36.7046 61.0905 37.1021 61.8854 37.1021C63.3571 37.1021 64.3131 35.9258 64.3131 34.1104V34.0996C64.3131 32.2949 63.3517 31.1079 61.8854 31.1079C61.0798 31.1079 60.4352 31.4893 60.0807 32.1338H59.9948V31.21H59.0602V38.9336ZM61.6706 36.2749C60.6178 36.2749 59.9733 35.4478 59.9733 34.1104V34.0996C59.9733 32.7622 60.6178 31.9351 61.6706 31.9351C62.7287 31.9351 63.3571 32.7515 63.3571 34.0996V34.1104C63.3571 35.4585 62.7287 36.2749 61.6706 36.2749ZM65.8602 30.0928C66.2147 30.0928 66.5048 29.8027 66.5048 29.4482C66.5048 29.0938 66.2147 28.8037 65.8602 28.8037C65.5057 28.8037 65.2157 29.0938 65.2157 29.4482C65.2157 29.8027 65.5057 30.0928 65.8602 30.0928ZM65.3876 37H66.3221V31.21H65.3876V37ZM67.7296 37H68.6641V28.9111H67.7296V37ZM72.4349 39.041C74.014 39.041 75.013 38.2139 75.013 36.9194V31.21H74.0784V32.166H74.014C73.6595 31.5107 73.0257 31.1079 72.2093 31.1079C70.6946 31.1079 69.76 32.2842 69.76 33.9062V33.917C69.76 35.5391 70.6892 36.6992 72.1878 36.6992C72.9827 36.6992 73.638 36.3394 74.0032 35.7002H74.0891V36.8711C74.0891 37.7251 73.4715 38.2139 72.4349 38.2139C71.6023 38.2139 71.0867 37.9023 70.9847 37.4619L70.9793 37.4565H70.0125L70.0017 37.4619C70.1468 38.4126 71.0384 39.041 72.4349 39.041ZM72.3919 35.8721C71.3177 35.8721 70.7161 35.0664 70.7161 33.917V33.9062C70.7161 32.7568 71.3177 31.9351 72.3919 31.9351C73.4607 31.9351 74.1106 32.7568 74.1106 33.9062V33.917C74.1106 35.0664 73.4661 35.8721 72.3919 35.8721ZM76.3452 37H77.2798V33.4121C77.2798 32.5635 77.9136 31.9995 78.8052 31.9995C79.0093 31.9995 79.1865 32.021 79.3799 32.0532V31.1455C79.2886 31.1294 79.0898 31.1079 78.9126 31.1079C78.1284 31.1079 77.5859 31.4624 77.3657 32.0693H77.2798V31.21H76.3452V37ZM80.6208 30.0928C80.9753 30.0928 81.2653 29.8027 81.2653 29.4482C81.2653 29.0938 80.9753 28.8037 80.6208 28.8037C80.2663 28.8037 79.9763 29.0938 79.9763 29.4482C79.9763 29.8027 80.2663 30.0928 80.6208 30.0928ZM80.1481 37H81.0827V31.21H80.1481V37ZM82.4364 37H83.371V33.4121C83.371 32.5957 83.9457 31.9351 84.703 31.9351C85.4335 31.9351 85.9062 32.3809 85.9062 33.0684V37H86.8407V33.2778C86.8407 32.542 87.3725 31.9351 88.1781 31.9351C88.9945 31.9351 89.3866 32.3594 89.3866 33.2134V37H90.3212V32.9985C90.3212 31.7847 89.6606 31.1079 88.4789 31.1079C87.6786 31.1079 87.018 31.5107 86.7065 32.123H86.6205C86.352 31.5215 85.8041 31.1079 85.0199 31.1079C84.2626 31.1079 83.7148 31.4678 83.4569 32.0908H83.371V31.21H82.4364V37ZM96.0255 38.2568C96.7023 38.2568 97.3522 38.1602 97.8356 37.9937V37.3169C97.4972 37.4727 96.7721 37.5747 96.0362 37.5747C93.7374 37.5747 92.255 36.0977 92.255 33.8096V33.7988C92.255 31.5698 93.7643 29.9692 95.8644 29.9692C98.0128 29.9692 99.4845 31.2959 99.4845 33.2295V33.2402C99.4845 34.5562 99.0494 35.4102 98.3727 35.4102C97.986 35.4102 97.7657 35.1899 97.7657 34.814V31.6611H96.9547V32.3164H96.8688C96.6593 31.8491 96.1759 31.5591 95.6119 31.5591C94.5109 31.5591 93.7428 32.4722 93.7428 33.772V33.7827C93.7428 35.1416 94.4947 36.0601 95.6119 36.0601C96.2403 36.0601 96.7237 35.7539 96.9547 35.2061H97.0406L97.046 35.2383C97.132 35.7593 97.6046 36.1084 98.2223 36.1084C99.4576 36.1084 100.242 34.9966 100.242 33.251V33.2402C100.242 30.9146 98.4747 29.2925 95.9342 29.2925C93.3024 29.2925 91.4977 31.1133 91.4977 33.7666V33.7773C91.4977 36.5166 93.254 38.2568 96.0255 38.2568ZM95.7355 35.3027C95.0319 35.3027 94.6022 34.7334 94.6022 33.8042V33.7935C94.6022 32.8589 95.0265 32.3003 95.7462 32.3003C96.4767 32.3003 96.944 32.8804 96.944 33.7935V33.8042C96.944 34.7173 96.4713 35.3027 95.7355 35.3027ZM103.228 37.1021C104.077 37.1021 104.662 36.7529 104.947 36.1353H105.033V37H105.968V31.21H105.033V34.6367C105.033 35.6519 104.491 36.2749 103.47 36.2749C102.546 36.2749 102.17 35.7754 102.17 34.7334V31.21H101.236V34.959C101.236 36.3286 101.912 37.1021 103.228 37.1021ZM106.843 37H107.891L109.266 34.814H109.352L110.721 37H111.817L109.824 34.0674L111.79 31.21H110.743L109.384 33.3638H109.298L107.923 31.21H106.822L108.825 34.105L106.843 37ZM113.428 37.0537C113.815 37.0537 114.127 36.7368 114.127 36.3555C114.127 35.9688 113.815 35.6572 113.428 35.6572C113.047 35.6572 112.73 35.9688 112.73 36.3555C112.73 36.7368 113.047 37.0537 113.428 37.0537ZM117.677 37.1021C119.068 37.1021 119.847 36.3555 120.083 35.3081L120.094 35.249L119.17 35.2544L119.16 35.2866C118.945 35.9312 118.451 36.2749 117.672 36.2749C116.641 36.2749 115.975 35.4209 115.975 34.0889V34.0781C115.975 32.7729 116.63 31.9351 117.672 31.9351C118.504 31.9351 119.02 32.397 119.165 32.9663L119.17 32.9824H120.1L120.094 32.9502C119.922 31.9189 119.079 31.1079 117.672 31.1079C116.05 31.1079 115.019 32.2788 115.019 34.0781V34.0889C115.019 35.9258 116.055 37.1021 117.677 37.1021ZM123.435 37.1021C125.084 37.1021 126.105 35.9634 126.105 34.1104V34.0996C126.105 32.2412 125.084 31.1079 123.435 31.1079C121.786 31.1079 120.766 32.2412 120.766 34.0996V34.1104C120.766 35.9634 121.786 37.1021 123.435 37.1021ZM123.435 36.2749C122.34 36.2749 121.722 35.4746 121.722 34.1104V34.0996C121.722 32.73 122.34 31.9351 123.435 31.9351C124.531 31.9351 125.149 32.73 125.149 34.0996V34.1104C125.149 35.4746 124.531 36.2749 123.435 36.2749ZM127.147 37H128.081V33.4121C128.081 32.5957 128.656 31.9351 129.413 31.9351C130.144 31.9351 130.617 32.3809 130.617 33.0684V37H131.551V33.2778C131.551 32.542 132.083 31.9351 132.889 31.9351C133.705 31.9351 134.097 32.3594 134.097 33.2134V37H135.032V32.9985C135.032 31.7847 134.371 31.1079 133.189 31.1079C132.389 31.1079 131.728 31.5107 131.417 32.123H131.331C131.062 31.5215 130.515 31.1079 129.73 31.1079C128.973 31.1079 128.425 31.4678 128.167 32.0908H128.081V31.21H127.147V37Z" fill="black"/>
</svg>
