<svg width="192" height="153" viewBox="0 0 192 153" fill="none" xmlns="http://www.w3.org/2000/svg">
<rect width="192" height="153" rx="10" fill="#EBEBFF"/>
<rect x="17.5" y="24.5" width="153" height="27" rx="3.5" fill="#D6CEFF" stroke="#15112B"/>
<rect x="17" y="114" width="154" height="28" rx="4" fill="#614CCB"/>
<path d="M17.9033 20H22.1611V19.3945H18.5723V16.6895H21.9805V16.0938H18.5723V13.5596H22.1611V12.9541H17.9033V20ZM23.1936 17.4609H26.4504V16.8555H23.1936V17.4609ZM27.6244 20H28.269V16.7725C28.269 15.9131 28.8549 15.2295 29.6166 15.2295C30.3442 15.2295 30.8227 15.7227 30.8227 16.4795V20H31.4672V16.665C31.4672 15.8496 32.0092 15.2295 32.8197 15.2295C33.6108 15.2295 34.0258 15.6885 34.0258 16.5479V20H34.6752V16.4014C34.6752 15.2881 34.0649 14.6533 33.0102 14.6533C32.2533 14.6533 31.6381 15.0586 31.3695 15.6885H31.3061C31.0815 15.0586 30.5541 14.6533 29.8168 14.6533C29.099 14.6533 28.557 15.0391 28.3324 15.6689H28.269V14.7412H27.6244V20ZM37.319 20.0879C38.0953 20.0879 38.7252 19.7217 39.0377 19.0967H39.0963V20H39.7457V16.4062C39.7457 15.2979 39.028 14.6533 37.7975 14.6533C36.7086 14.6533 35.9127 15.1904 35.776 16.0303L35.7711 16.0498H36.4205L36.4254 16.04C36.5621 15.5176 37.0651 15.2295 37.778 15.2295C38.6276 15.2295 39.0963 15.6396 39.0963 16.4111V16.9043L37.4557 17.0117C36.2399 17.0947 35.5612 17.627 35.5612 18.54V18.5498C35.5612 19.4873 36.3033 20.0879 37.319 20.0879ZM36.2203 18.54V18.5303C36.2203 17.9346 36.65 17.5977 37.5436 17.5391L39.0963 17.4316V18.042C39.0963 18.877 38.3834 19.5215 37.441 19.5215C36.733 19.5215 36.2203 19.1406 36.2203 18.54ZM41.3153 13.6475C41.5741 13.6475 41.7889 13.4375 41.7889 13.1738C41.7889 12.9102 41.5741 12.7002 41.3153 12.7002C41.0516 12.7002 40.8368 12.9102 40.8368 13.1738C40.8368 13.4375 41.0516 13.6475 41.3153 13.6475ZM40.9881 20H41.6326V14.7412H40.9881V20ZM42.9532 20H43.5977V12.6465H42.9532V20Z" fill="#15112B"/>
<rect x="17" y="72" width="154" height="28" rx="4" fill="#D6CEFF"/>
<path d="M20.1689 68.1465C21.6875 68.1465 22.7031 67.3213 22.7031 66.0762V66.0713C22.7031 65.0898 22.1123 64.499 20.6475 64.167L19.9248 64.001C18.8555 63.7568 18.4209 63.3613 18.4209 62.7412V62.7363C18.4209 61.9502 19.1582 61.4277 20.1299 61.4277C21.1309 61.4229 21.7949 61.9453 21.8975 62.624L21.9023 62.6826H22.5713L22.5664 62.6191C22.4834 61.6084 21.5264 60.8076 20.1494 60.8076C18.7432 60.8076 17.7422 61.6328 17.7422 62.751V62.7559C17.7422 63.7275 18.3379 64.3281 19.7539 64.6504L20.4766 64.8115C21.5605 65.0557 22.0244 65.5 22.0244 66.1494V66.1592C22.0244 66.9502 21.2627 67.5264 20.2031 67.5264C19.1191 67.5264 18.3086 66.9941 18.2354 66.2178L18.2305 66.1641H17.5615L17.5664 66.2178C17.6689 67.3457 18.6797 68.1465 20.1689 68.1465ZM25.8059 68.0879C26.968 68.0879 27.7346 67.4531 27.9397 66.7402L27.9543 66.7012H27.3049L27.2854 66.7354C27.1145 67.1455 26.5871 67.5068 25.8205 67.5068C24.7756 67.5068 24.1018 66.7695 24.0822 65.5391H28.0324V65.2656C28.0324 63.708 27.1633 62.6533 25.7522 62.6533C24.341 62.6533 23.4231 63.7373 23.4231 65.3779V65.3877C23.4231 67.0381 24.3313 68.0879 25.8059 68.0879ZM25.7522 63.2295C26.6555 63.2295 27.3049 63.8447 27.3781 65.0117H24.0871C24.1701 63.874 24.844 63.2295 25.7522 63.2295ZM29.0111 68H29.6557V64.875C29.6557 63.8838 30.2856 63.2295 31.2133 63.2295C32.1264 63.2295 32.5805 63.7422 32.5805 64.7432V68H33.225V64.582C33.225 63.3564 32.5561 62.6533 31.3842 62.6533C30.5639 62.6533 29.9975 63.0293 29.7192 63.6641H29.6557V62.7412H29.0111V68ZM34.4723 68H35.1168V64.875C35.1168 63.8838 35.7467 63.2295 36.6744 63.2295C37.5826 63.2295 38.0416 63.7422 38.0416 64.7432V68H38.6862V64.582C38.6862 63.3564 38.0172 62.6533 36.8453 62.6533C36.025 62.6533 35.4586 63.0244 35.1803 63.6641H35.1168V60.6465H34.4723V68ZM41.3348 68.0879C42.1112 68.0879 42.741 67.7217 43.0535 67.0967H43.1121V68H43.7616V64.4062C43.7616 63.2979 43.0438 62.6533 41.8133 62.6533C40.7244 62.6533 39.9285 63.1904 39.7918 64.0303L39.7869 64.0498H40.4364L40.4412 64.04C40.578 63.5176 41.0809 63.2295 41.7938 63.2295C42.6434 63.2295 43.1121 63.6396 43.1121 64.4111V64.9043L41.4715 65.0117C40.2557 65.0947 39.577 65.627 39.577 66.54V66.5498C39.577 67.4873 40.3192 68.0879 41.3348 68.0879ZM40.2362 66.54V66.5303C40.2362 65.9346 40.6659 65.5977 41.5594 65.5391L43.1121 65.4316V66.042C43.1121 66.877 42.3993 67.5215 41.4569 67.5215C40.7489 67.5215 40.2362 67.1406 40.2362 66.54Z" fill="#15112B"/>
<path d="M79.043 132H84.4336V130.729H80.5547V123.545H79.043V132ZM87.9748 132.129C89.8908 132.129 91.0568 130.875 91.0568 128.801V128.789C91.0568 126.727 89.885 125.473 87.9748 125.473C86.0705 125.473 84.8928 126.732 84.8928 128.789V128.801C84.8928 130.875 86.0529 132.129 87.9748 132.129ZM87.9748 130.945C86.9611 130.945 86.3811 130.154 86.3811 128.807V128.795C86.3811 127.447 86.9611 126.65 87.9748 126.65C88.9826 126.65 89.5627 127.447 89.5627 128.795V128.807C89.5627 130.154 88.9885 130.945 87.9748 130.945ZM94.8676 134.25C96.7367 134.25 97.9203 133.318 97.9203 131.842V125.596H96.4613V126.65H96.3852C96.0219 125.924 95.3305 125.49 94.4457 125.49C92.7934 125.49 91.7856 126.768 91.7856 128.619V128.631C91.7856 130.447 92.7934 131.701 94.4164 131.701C95.3012 131.701 95.9985 131.326 96.3676 130.641H96.4672V131.865C96.4672 132.686 95.8871 133.148 94.891 133.148C94.0766 133.148 93.5903 132.861 93.4906 132.451L93.4848 132.434H92.0258L92.0199 132.451C92.1664 133.529 93.1801 134.25 94.8676 134.25ZM94.8676 130.541C93.8539 130.541 93.2797 129.762 93.2797 128.631V128.619C93.2797 127.488 93.8539 126.703 94.8676 126.703C95.8754 126.703 96.4906 127.488 96.4906 128.619V128.631C96.4906 129.762 95.8813 130.541 94.8676 130.541ZM100.049 124.523C100.524 124.523 100.917 124.143 100.917 123.662C100.917 123.188 100.524 122.801 100.049 122.801C99.569 122.801 99.1764 123.188 99.1764 123.662C99.1764 124.143 99.569 124.523 100.049 124.523ZM99.317 132H100.776V125.596H99.317V132ZM102.161 132H103.62V128.268C103.62 127.307 104.159 126.697 105.026 126.697C105.911 126.697 106.315 127.201 106.315 128.197V132H107.774V127.857C107.774 126.334 106.995 125.473 105.565 125.473C104.639 125.473 104.024 125.889 103.72 126.574H103.62V125.596H102.161V132Z" fill="#EEEEFF"/>
<path d="M28.0078 42.1021C28.8135 42.1021 29.458 41.7207 29.8125 41.0762H29.8984V42H30.833V33.9111H29.8984V37.123H29.8125C29.4956 36.5054 28.8027 36.1079 28.0078 36.1079C26.5361 36.1079 25.5801 37.2842 25.5801 39.0996V39.1104C25.5801 40.915 26.5415 42.1021 28.0078 42.1021ZM28.2227 41.2749C27.1646 41.2749 26.5361 40.4585 26.5361 39.1104V39.0996C26.5361 37.7515 27.1646 36.9351 28.2227 36.9351C29.2754 36.9351 29.9199 37.7622 29.9199 39.0996V39.1104C29.9199 40.4478 29.2754 41.2749 28.2227 41.2749ZM34.5983 42.1021C36.2473 42.1021 37.2678 40.9634 37.2678 39.1104V39.0996C37.2678 37.2412 36.2473 36.1079 34.5983 36.1079C32.9494 36.1079 31.9289 37.2412 31.9289 39.0996V39.1104C31.9289 40.9634 32.9494 42.1021 34.5983 42.1021ZM34.5983 41.2749C33.5026 41.2749 32.885 40.4746 32.885 39.1104V39.0996C32.885 37.73 33.5026 36.9351 34.5983 36.9351C35.6941 36.9351 36.3117 37.73 36.3117 39.0996V39.1104C36.3117 40.4746 35.6941 41.2749 34.5983 41.2749ZM38.31 42H39.2445V38.4121C39.2445 37.5635 39.8783 36.9995 40.7699 36.9995C40.974 36.9995 41.1513 37.021 41.3446 37.0532V36.1455C41.2533 36.1294 41.0546 36.1079 40.8774 36.1079C40.0932 36.1079 39.5507 36.4624 39.3305 37.0693H39.2445V36.21H38.31V42ZM43.6813 42.1021C44.4601 42.1021 45.067 41.7637 45.4323 41.146H45.5182V42H46.4528V38.0361C46.4528 36.833 45.6632 36.1079 44.2506 36.1079C43.0153 36.1079 42.1344 36.7202 41.984 37.6279L41.9786 37.6602H42.9132L42.9186 37.644C43.069 37.1929 43.5255 36.9351 44.2184 36.9351C45.0831 36.9351 45.5182 37.3218 45.5182 38.0361V38.5625L43.8585 38.6646C42.5104 38.7451 41.7477 39.3413 41.7477 40.3726V40.3833C41.7477 41.436 42.5802 42.1021 43.6813 42.1021ZM42.7037 40.3618V40.3511C42.7037 39.7764 43.0905 39.4648 43.9713 39.4111L45.5182 39.3145V39.8408C45.5182 40.668 44.8253 41.291 43.8746 41.291C43.2032 41.291 42.7037 40.9473 42.7037 40.3618ZM47.8065 42H48.741V33.9111H47.8065V42ZM50.6211 35.0928C50.9756 35.0928 51.2657 34.8027 51.2657 34.4482C51.2657 34.0938 50.9756 33.8037 50.6211 33.8037C50.2666 33.8037 49.9766 34.0938 49.9766 34.4482C49.9766 34.8027 50.2666 35.0928 50.6211 35.0928ZM50.1485 42H51.083V36.21H50.1485V42ZM54.8054 42.1021C56.1965 42.1021 56.9753 41.3555 57.2117 40.3081L57.2224 40.249L56.2986 40.2544L56.2878 40.2866C56.073 40.9312 55.5789 41.2749 54.8 41.2749C53.7688 41.2749 53.1028 40.4209 53.1028 39.0889V39.0781C53.1028 37.7729 53.7581 36.9351 54.8 36.9351C55.6326 36.9351 56.1482 37.397 56.2932 37.9663L56.2986 37.9824H57.2278L57.2224 37.9502C57.0505 36.9189 56.2073 36.1079 54.8 36.1079C53.178 36.1079 52.1467 37.2788 52.1467 39.0781V39.0889C52.1467 40.9258 53.1833 42.1021 54.8054 42.1021ZM60.5473 42.1021C61.9116 42.1021 62.7387 41.3286 62.9375 40.5444L62.9482 40.5015H62.0136L61.9921 40.5498C61.8364 40.8989 61.353 41.2695 60.5688 41.2695C59.5376 41.2695 58.8769 40.5713 58.8501 39.3735H63.018V39.0083C63.018 37.2788 62.062 36.1079 60.4882 36.1079C58.9145 36.1079 57.894 37.3325 57.894 39.1211V39.1265C57.894 40.9419 58.893 42.1021 60.5473 42.1021ZM60.4829 36.9404C61.3369 36.9404 61.9707 37.4829 62.0673 38.627H58.8662C58.9682 37.5259 59.6235 36.9404 60.4829 36.9404ZM64.0602 43.9336H64.9948V41.0869H65.0807C65.3976 41.7046 66.0905 42.1021 66.8854 42.1021C68.3571 42.1021 69.3131 40.9258 69.3131 39.1104V39.0996C69.3131 37.2949 68.3517 36.1079 66.8854 36.1079C66.0798 36.1079 65.4352 36.4893 65.0807 37.1338H64.9948V36.21H64.0602V43.9336ZM66.6706 41.2749C65.6178 41.2749 64.9733 40.4478 64.9733 39.1104V39.0996C64.9733 37.7622 65.6178 36.9351 66.6706 36.9351C67.7287 36.9351 68.3571 37.7515 68.3571 39.0996V39.1104C68.3571 40.4585 67.7287 41.2749 66.6706 41.2749ZM70.8602 35.0928C71.2147 35.0928 71.5048 34.8027 71.5048 34.4482C71.5048 34.0938 71.2147 33.8037 70.8602 33.8037C70.5057 33.8037 70.2157 34.0938 70.2157 34.4482C70.2157 34.8027 70.5057 35.0928 70.8602 35.0928ZM70.3876 42H71.3221V36.21H70.3876V42ZM72.7296 42H73.6641V33.9111H72.7296V42ZM77.4349 44.041C79.014 44.041 80.013 43.2139 80.013 41.9194V36.21H79.0784V37.166H79.014C78.6595 36.5107 78.0257 36.1079 77.2093 36.1079C75.6946 36.1079 74.76 37.2842 74.76 38.9062V38.917C74.76 40.5391 75.6892 41.6992 77.1878 41.6992C77.9827 41.6992 78.638 41.3394 79.0032 40.7002H79.0891V41.8711C79.0891 42.7251 78.4715 43.2139 77.4349 43.2139C76.6023 43.2139 76.0867 42.9023 75.9847 42.4619L75.9793 42.4565H75.0125L75.0017 42.4619C75.1468 43.4126 76.0384 44.041 77.4349 44.041ZM77.3919 40.8721C76.3177 40.8721 75.7161 40.0664 75.7161 38.917V38.9062C75.7161 37.7568 76.3177 36.9351 77.3919 36.9351C78.4607 36.9351 79.1106 37.7568 79.1106 38.9062V38.917C79.1106 40.0664 78.4661 40.8721 77.3919 40.8721ZM81.3452 42H82.2798V38.4121C82.2798 37.5635 82.9136 36.9995 83.8052 36.9995C84.0093 36.9995 84.1865 37.021 84.3799 37.0532V36.1455C84.2886 36.1294 84.0898 36.1079 83.9126 36.1079C83.1284 36.1079 82.5859 36.4624 82.3657 37.0693H82.2798V36.21H81.3452V42ZM85.6208 35.0928C85.9753 35.0928 86.2653 34.8027 86.2653 34.4482C86.2653 34.0938 85.9753 33.8037 85.6208 33.8037C85.2663 33.8037 84.9763 34.0938 84.9763 34.4482C84.9763 34.8027 85.2663 35.0928 85.6208 35.0928ZM85.1481 42H86.0827V36.21H85.1481V42ZM87.4364 42H88.371V38.4121C88.371 37.5957 88.9457 36.9351 89.703 36.9351C90.4335 36.9351 90.9062 37.3809 90.9062 38.0684V42H91.8407V38.2778C91.8407 37.542 92.3725 36.9351 93.1781 36.9351C93.9945 36.9351 94.3866 37.3594 94.3866 38.2134V42H95.3212V37.9985C95.3212 36.7847 94.6606 36.1079 93.4789 36.1079C92.6786 36.1079 92.018 36.5107 91.7065 37.123H91.6205C91.352 36.5215 90.8041 36.1079 90.0199 36.1079C89.2626 36.1079 88.7148 36.4678 88.4569 37.0908H88.371V36.21H87.4364V42ZM101.026 43.2568C101.702 43.2568 102.352 43.1602 102.836 42.9937V42.3169C102.497 42.4727 101.772 42.5747 101.036 42.5747C98.7374 42.5747 97.255 41.0977 97.255 38.8096V38.7988C97.255 36.5698 98.7643 34.9692 100.864 34.9692C103.013 34.9692 104.484 36.2959 104.484 38.2295V38.2402C104.484 39.5562 104.049 40.4102 103.373 40.4102C102.986 40.4102 102.766 40.1899 102.766 39.814V36.6611H101.955V37.3164H101.869C101.659 36.8491 101.176 36.5591 100.612 36.5591C99.5109 36.5591 98.7428 37.4722 98.7428 38.772V38.7827C98.7428 40.1416 99.4947 41.0601 100.612 41.0601C101.24 41.0601 101.724 40.7539 101.955 40.2061H102.041L102.046 40.2383C102.132 40.7593 102.605 41.1084 103.222 41.1084C104.458 41.1084 105.242 39.9966 105.242 38.251V38.2402C105.242 35.9146 103.475 34.2925 100.934 34.2925C98.3024 34.2925 96.4977 36.1133 96.4977 38.7666V38.7773C96.4977 41.5166 98.254 43.2568 101.026 43.2568ZM100.735 40.3027C100.032 40.3027 99.6022 39.7334 99.6022 38.8042V38.7935C99.6022 37.8589 100.026 37.3003 100.746 37.3003C101.477 37.3003 101.944 37.8804 101.944 38.7935V38.8042C101.944 39.7173 101.471 40.3027 100.735 40.3027ZM108.228 42.1021C109.077 42.1021 109.662 41.7529 109.947 41.1353H110.033V42H110.968V36.21H110.033V39.6367C110.033 40.6519 109.491 41.2749 108.47 41.2749C107.546 41.2749 107.17 40.7754 107.17 39.7334V36.21H106.236V39.959C106.236 41.3286 106.912 42.1021 108.228 42.1021ZM111.843 42H112.891L114.266 39.814H114.352L115.721 42H116.817L114.824 39.0674L116.79 36.21H115.743L114.384 38.3638H114.298L112.923 36.21H111.822L113.825 39.105L111.843 42ZM118.428 42.0537C118.815 42.0537 119.127 41.7368 119.127 41.3555C119.127 40.9688 118.815 40.6572 118.428 40.6572C118.047 40.6572 117.73 40.9688 117.73 41.3555C117.73 41.7368 118.047 42.0537 118.428 42.0537ZM122.677 42.1021C124.068 42.1021 124.847 41.3555 125.083 40.3081L125.094 40.249L124.17 40.2544L124.16 40.2866C123.945 40.9312 123.451 41.2749 122.672 41.2749C121.641 41.2749 120.975 40.4209 120.975 39.0889V39.0781C120.975 37.7729 121.63 36.9351 122.672 36.9351C123.504 36.9351 124.02 37.397 124.165 37.9663L124.17 37.9824H125.1L125.094 37.9502C124.922 36.9189 124.079 36.1079 122.672 36.1079C121.05 36.1079 120.019 37.2788 120.019 39.0781V39.0889C120.019 40.9258 121.055 42.1021 122.677 42.1021ZM128.435 42.1021C130.084 42.1021 131.105 40.9634 131.105 39.1104V39.0996C131.105 37.2412 130.084 36.1079 128.435 36.1079C126.786 36.1079 125.766 37.2412 125.766 39.0996V39.1104C125.766 40.9634 126.786 42.1021 128.435 42.1021ZM128.435 41.2749C127.34 41.2749 126.722 40.4746 126.722 39.1104V39.0996C126.722 37.73 127.34 36.9351 128.435 36.9351C129.531 36.9351 130.149 37.73 130.149 39.0996V39.1104C130.149 40.4746 129.531 41.2749 128.435 41.2749ZM132.147 42H133.081V38.4121C133.081 37.5957 133.656 36.9351 134.413 36.9351C135.144 36.9351 135.617 37.3809 135.617 38.0684V42H136.551V38.2778C136.551 37.542 137.083 36.9351 137.889 36.9351C138.705 36.9351 139.097 37.3594 139.097 38.2134V42H140.032V37.9985C140.032 36.7847 139.371 36.1079 138.189 36.1079C137.389 36.1079 136.728 36.5107 136.417 37.123H136.331C136.062 36.5215 135.515 36.1079 134.73 36.1079C133.973 36.1079 133.425 36.4678 133.167 37.0908H133.081V36.21H132.147V42Z" fill="black"/>
</svg>
