<svg width="187" height="158" viewBox="0 0 187 158" fill="none" xmlns="http://www.w3.org/2000/svg">
<rect width="187" height="73" rx="10" fill="#EBEBFF"/>
<rect y="85" width="187" height="73" rx="10" fill="#EBEBFF"/>
<path d="M69.3257 32H73.1416C76.291 32 78.1147 30.0518 78.1147 26.6973V26.6826C78.1147 23.3647 76.2764 21.4312 73.1416 21.4312H69.3257V32ZM70.9663 30.5864V22.8447H72.9585C75.1484 22.8447 76.4448 24.2729 76.4448 26.7046V26.7192C76.4448 29.1729 75.1704 30.5864 72.9585 30.5864H70.9663ZM83.1193 32.1538C85.4484 32.1538 86.8767 30.5938 86.8767 28.0303V28.0156C86.8767 25.4521 85.4411 23.8921 83.1193 23.8921C80.7902 23.8921 79.3547 25.4595 79.3547 28.0156V28.0303C79.3547 30.5938 80.7829 32.1538 83.1193 32.1538ZM83.1193 30.8281C81.7497 30.8281 80.9807 29.7954 80.9807 28.0303V28.0156C80.9807 26.2505 81.7497 25.2178 83.1193 25.2178C84.4816 25.2178 85.258 26.2505 85.258 28.0156V28.0303C85.258 29.7881 84.4816 30.8281 83.1193 30.8281ZM88.3656 32H89.955V27.2466C89.955 26.0967 90.7826 25.3496 91.9985 25.3496C92.2987 25.3496 92.5697 25.3862 92.8554 25.4448V23.98C92.6943 23.9434 92.4159 23.9067 92.1596 23.9067C91.0976 23.9067 90.3578 24.4048 90.0722 25.2471H89.955V24.0459H88.3656V32ZM96.0875 32.1318C97.1422 32.1318 97.9772 31.6777 98.4459 30.8721H98.5704V32H100.145V26.5581C100.145 24.8882 99.0172 23.8921 97.0177 23.8921C95.2086 23.8921 93.9562 24.7637 93.7657 26.0674L93.7584 26.1187H95.2892L95.2965 26.0894C95.4869 25.5254 96.0656 25.2031 96.9445 25.2031C98.0211 25.2031 98.5704 25.6865 98.5704 26.5581V27.2612L96.4171 27.3857C94.5201 27.5029 93.4508 28.3306 93.4508 29.7515V29.7661C93.4508 31.209 94.5714 32.1318 96.0875 32.1318ZM95.0328 29.7002V29.6855C95.0328 28.9678 95.5309 28.5723 96.6295 28.5063L98.5704 28.3818V29.063C98.5704 30.0884 97.6989 30.8647 96.5123 30.8647C95.6554 30.8647 95.0328 30.4326 95.0328 29.7002ZM102.052 32H103.641V20.9258H102.052V32ZM106.426 22.625C106.968 22.625 107.422 22.1782 107.422 21.6362C107.422 21.0869 106.968 20.6401 106.426 20.6401C105.877 20.6401 105.43 21.0869 105.43 21.6362C105.43 22.1782 105.877 22.625 106.426 22.625ZM105.628 32H107.21V24.0459H105.628V32ZM112.464 32.1538C114.434 32.1538 115.569 31.0918 115.855 29.5464L115.869 29.4805H114.346L114.331 29.5171C114.075 30.374 113.46 30.8281 112.464 30.8281C111.153 30.8281 110.34 29.7588 110.34 28.001V27.9863C110.34 26.2725 111.138 25.2178 112.464 25.2178C113.518 25.2178 114.163 25.8037 114.339 26.5874L114.346 26.6094L115.869 26.6021V26.5654C115.65 25.02 114.456 23.8921 112.456 23.8921C110.135 23.8921 108.721 25.4668 108.721 27.9863V28.001C108.721 30.5718 110.142 32.1538 112.464 32.1538ZM120.603 32.1538C122.639 32.1538 123.738 30.9819 124.001 29.9346L124.016 29.8687L122.485 29.876L122.456 29.9346C122.266 30.3447 121.658 30.8501 120.64 30.8501C119.329 30.8501 118.494 29.9639 118.464 28.4404H124.104V27.8838C124.104 25.4961 122.742 23.8921 120.522 23.8921C118.303 23.8921 116.868 25.5547 116.868 28.0376V28.0449C116.868 30.5645 118.274 32.1538 120.603 32.1538ZM120.53 25.1958C121.606 25.1958 122.405 25.8843 122.529 27.3052H118.486C118.625 25.9355 119.446 25.1958 120.53 25.1958ZM129.462 32H131.103V28.3892H133.578C135.651 28.3892 137.087 26.9756 137.087 24.9102V24.8955C137.087 22.8228 135.651 21.4312 133.578 21.4312H129.462V32ZM133.168 22.8154C134.589 22.8154 135.417 23.5845 135.417 24.9028V24.9175C135.417 26.2432 134.589 27.0122 133.168 27.0122H131.103V22.8154H133.168ZM139.44 22.625C139.982 22.625 140.436 22.1782 140.436 21.6362C140.436 21.0869 139.982 20.6401 139.44 20.6401C138.891 20.6401 138.444 21.0869 138.444 21.6362C138.444 22.1782 138.891 22.625 139.44 22.625ZM138.642 32H140.224V24.0459H138.642V32ZM142.203 32H143.793V20.9258H142.203V32ZM149.112 34.8052C151.368 34.8052 152.796 33.6479 152.796 31.8389V24.0459H151.214V25.3496H151.119C150.658 24.4561 149.793 23.9067 148.68 23.9067C146.615 23.9067 145.348 25.5107 145.348 27.7812V27.7959C145.348 30.0371 146.607 31.6118 148.651 31.6118C149.742 31.6118 150.621 31.1284 151.104 30.2642H151.222V31.8315C151.222 32.9155 150.445 33.5308 149.134 33.5308C148.058 33.5308 147.413 33.1426 147.281 32.5933L147.274 32.5786H145.67L145.655 32.5933C145.846 33.9189 147.091 34.8052 149.112 34.8052ZM149.09 30.3008C147.735 30.3008 146.974 29.2681 146.974 27.7886V27.7739C146.974 26.2944 147.735 25.2544 149.09 25.2544C150.431 25.2544 151.251 26.2944 151.251 27.7739V27.7886C151.251 29.2754 150.438 30.3008 149.09 30.3008ZM154.674 32H156.263V27.2466C156.263 26.0967 157.091 25.3496 158.306 25.3496C158.607 25.3496 158.878 25.3862 159.163 25.4448V23.98C159.002 23.9434 158.724 23.9067 158.467 23.9067C157.405 23.9067 156.666 24.4048 156.38 25.2471H156.263V24.0459H154.674V32ZM161.099 22.625C161.641 22.625 162.095 22.1782 162.095 21.6362C162.095 21.0869 161.641 20.6401 161.099 20.6401C160.55 20.6401 160.103 21.0869 160.103 21.6362C160.103 22.1782 160.55 22.625 161.099 22.625ZM160.301 32H161.883V24.0459H160.301V32ZM163.789 32H165.379V27.1147C165.379 26.0747 166.089 25.2544 167.048 25.2544C167.986 25.2544 168.579 25.8257 168.579 26.7339V32H170.161V26.9683C170.161 26.0088 170.828 25.2544 171.838 25.2544C172.879 25.2544 173.377 25.7964 173.377 26.895V32H174.959V26.5142C174.959 24.8589 174.021 23.8921 172.417 23.8921C171.311 23.8921 170.396 24.4561 169.993 25.313H169.868C169.517 24.4561 168.748 23.8921 167.664 23.8921C166.624 23.8921 165.847 24.3975 165.496 25.269H165.379V24.0459H163.789V32Z" fill="#180B5A"/>
<path d="M68.9434 51H74.416V50.0508H70.4082V49.957L72.3301 47.9707C73.8594 46.3945 74.2754 45.6914 74.2754 44.7246V44.7129C74.2754 43.3477 73.1445 42.3457 71.668 42.3457C70.0508 42.3457 68.8906 43.4238 68.8848 44.9238L68.8965 44.9297L69.9043 44.9355L69.9102 44.9238C69.9102 43.9277 70.584 43.2656 71.5977 43.2656C72.5938 43.2656 73.1973 43.9336 73.1973 44.8242V44.8359C73.1973 45.5742 72.8809 46.0137 71.8027 47.1797L68.9434 50.2734V51ZM77.8459 51H78.9006V42.5449H77.8518L75.6018 44.1621V45.2754L77.7522 43.7168H77.8459V51ZM85.6432 51.1113C86.4928 51.1113 87.1549 50.7422 87.5533 50.0684H87.6471V51H88.6666V46.6758C88.6666 45.3633 87.8053 44.5723 86.2643 44.5723C84.9166 44.5723 83.9557 45.2402 83.7916 46.2305L83.7858 46.2656H84.8053L84.8112 46.248C84.9752 45.7559 85.4733 45.4746 86.2291 45.4746C87.1725 45.4746 87.6471 45.8965 87.6471 46.6758V47.25L85.8365 47.3613C84.3658 47.4492 83.5338 48.0996 83.5338 49.2246V49.2363C83.5338 50.3848 84.442 51.1113 85.6432 51.1113ZM84.5768 49.2129V49.2012C84.5768 48.5742 84.9987 48.2344 85.9596 48.1758L87.6471 48.0703V48.6445C87.6471 49.5469 86.8912 50.2266 85.8541 50.2266C85.1217 50.2266 84.5768 49.8516 84.5768 49.2129ZM90.1219 51H91.1414V47.2617C91.1414 46.1543 91.7801 45.4746 92.7879 45.4746C93.7957 45.4746 94.2645 46.0195 94.2645 47.1562V51H95.284V46.9102C95.284 45.4102 94.493 44.5723 93.075 44.5723C92.1434 44.5723 91.5516 44.9648 91.2352 45.6328H91.1414V44.6836H90.1219V51ZM99.3174 51.1113C101.116 51.1113 102.23 49.8691 102.23 47.8477V47.8359C102.23 45.8086 101.116 44.5723 99.3174 44.5723C97.5186 44.5723 96.4053 45.8086 96.4053 47.8359V47.8477C96.4053 49.8691 97.5186 51.1113 99.3174 51.1113ZM99.3174 50.209C98.1221 50.209 97.4483 49.3359 97.4483 47.8477V47.8359C97.4483 46.3418 98.1221 45.4746 99.3174 45.4746C100.513 45.4746 101.187 46.3418 101.187 47.8359V47.8477C101.187 49.3359 100.513 50.209 99.3174 50.209ZM105.572 51.1113C107.007 51.1113 108.103 50.332 108.103 49.207V49.1953C108.103 48.293 107.529 47.7773 106.339 47.4902L105.366 47.2559C104.622 47.0742 104.306 46.8047 104.306 46.377V46.3652C104.306 45.8086 104.857 45.4219 105.607 45.4219C106.368 45.4219 106.861 45.7676 106.995 46.2656H107.997C107.857 45.2344 106.937 44.5723 105.613 44.5723C104.271 44.5723 103.263 45.3633 103.263 46.4121V46.418C103.263 47.3262 103.796 47.8418 104.98 48.123L105.958 48.3574C106.738 48.5449 107.06 48.8438 107.06 49.2715V49.2832C107.06 49.8574 106.456 50.2617 105.607 50.2617C104.798 50.2617 104.294 49.916 104.124 49.3887H103.081C103.198 50.4316 104.165 51.1113 105.572 51.1113ZM109.019 53.1504H109.775L110.695 49.8164H109.529L109.019 53.1504ZM117.73 51.1113C118.609 51.1113 119.312 50.6953 119.699 49.9922H119.793V51H120.812V42.1758H119.793V45.6797H119.699C119.353 45.0059 118.598 44.5723 117.73 44.5723C116.125 44.5723 115.082 45.8555 115.082 47.8359V47.8477C115.082 49.8164 116.131 51.1113 117.73 51.1113ZM117.965 50.209C116.81 50.209 116.125 49.3184 116.125 47.8477V47.8359C116.125 46.3652 116.81 45.4746 117.965 45.4746C119.113 45.4746 119.816 46.377 119.816 47.8359V47.8477C119.816 49.3066 119.113 50.209 117.965 50.209ZM124.94 51.1113C126.428 51.1113 127.33 50.2676 127.547 49.4121L127.559 49.3652H126.539L126.516 49.418C126.346 49.7988 125.818 50.2031 124.963 50.2031C123.838 50.2031 123.117 49.4414 123.088 48.1348H127.635V47.7363C127.635 45.8496 126.592 44.5723 124.875 44.5723C123.158 44.5723 122.045 45.9082 122.045 47.8594V47.8652C122.045 49.8457 123.135 51.1113 124.94 51.1113ZM124.869 45.4805C125.801 45.4805 126.492 46.0723 126.598 47.3203H123.106C123.217 46.1191 123.932 45.4805 124.869 45.4805ZM130.977 51.1113C132.412 51.1113 133.508 50.332 133.508 49.207V49.1953C133.508 48.293 132.934 47.7773 131.744 47.4902L130.772 47.2559C130.028 47.0742 129.711 46.8047 129.711 46.377V46.3652C129.711 45.8086 130.262 45.4219 131.012 45.4219C131.774 45.4219 132.266 45.7676 132.401 46.2656H133.403C133.262 45.2344 132.342 44.5723 131.018 44.5723C129.676 44.5723 128.668 45.3633 128.668 46.4121V46.418C128.668 47.3262 129.201 47.8418 130.385 48.123L131.364 48.3574C132.143 48.5449 132.465 48.8438 132.465 49.2715V49.2832C132.465 49.8574 131.862 50.2617 131.012 50.2617C130.203 50.2617 129.7 49.916 129.53 49.3887H128.487C128.604 50.4316 129.571 51.1113 130.977 51.1113ZM135.221 43.4648C135.608 43.4648 135.924 43.1484 135.924 42.7617C135.924 42.375 135.608 42.0586 135.221 42.0586C134.834 42.0586 134.518 42.375 134.518 42.7617C134.518 43.1484 134.834 43.4648 135.221 43.4648ZM134.706 51H135.725V44.6836H134.706V51ZM139.841 53.2266C141.563 53.2266 142.653 52.3242 142.653 50.9121V44.6836H141.633V45.7266H141.563C141.176 45.0117 140.485 44.5723 139.594 44.5723C137.942 44.5723 136.923 45.8555 136.923 47.625V47.6367C136.923 49.4062 137.936 50.6719 139.571 50.6719C140.438 50.6719 141.153 50.2793 141.551 49.582H141.645V50.8594C141.645 51.791 140.971 52.3242 139.841 52.3242C138.932 52.3242 138.37 51.9844 138.258 51.5039L138.253 51.498H137.198L137.186 51.5039C137.344 52.541 138.317 53.2266 139.841 53.2266ZM139.794 49.7695C138.622 49.7695 137.966 48.8906 137.966 47.6367V47.625C137.966 46.3711 138.622 45.4746 139.794 45.4746C140.96 45.4746 141.669 46.3711 141.669 47.625V47.6367C141.669 48.8906 140.966 49.7695 139.794 49.7695ZM144.143 51H145.163V47.2617C145.163 46.1543 145.802 45.4746 146.809 45.4746C147.817 45.4746 148.286 46.0195 148.286 47.1562V51H149.306V46.9102C149.306 45.4102 148.515 44.5723 147.097 44.5723C146.165 44.5723 145.573 44.9648 145.257 45.6328H145.163V44.6836H144.143V51ZM153.321 51.1113C154.81 51.1113 155.712 50.2676 155.929 49.4121L155.941 49.3652H154.921L154.898 49.418C154.728 49.7988 154.2 50.2031 153.345 50.2031C152.22 50.2031 151.499 49.4414 151.47 48.1348H156.017V47.7363C156.017 45.8496 154.974 44.5723 153.257 44.5723C151.54 44.5723 150.427 45.9082 150.427 47.8594V47.8652C150.427 49.8457 151.517 51.1113 153.321 51.1113ZM153.251 45.4805C154.183 45.4805 154.874 46.0723 154.98 47.3203H151.487C151.599 46.1191 152.314 45.4805 153.251 45.4805ZM157.191 51H158.21V47.0859C158.21 46.1602 158.902 45.5449 159.874 45.5449C160.097 45.5449 160.29 45.5684 160.501 45.6035V44.6133C160.402 44.5957 160.185 44.5723 159.992 44.5723C159.136 44.5723 158.544 44.959 158.304 45.6211H158.21V44.6836H157.191V51Z" fill="#A29ACD"/>
<circle cx="33.5" cy="36.5" r="23.5" fill="#614CCB"/>
<path d="M34.0048 36.2447C36.0392 36.2447 37.8075 34.4294 37.8075 32.0656C37.8075 29.7303 36.0392 28 34.0048 28C31.9703 28 30.202 29.7681 30.202 32.0845C30.202 34.4294 31.9608 36.2447 34.0048 36.2447ZM27.6257 45H40.3743C41.3916 45 42 44.5273 42 43.7425C42 41.3031 38.9293 37.9372 33.9952 37.9372C29.0707 37.9372 26 41.3031 26 43.7425C26 44.5273 26.6084 45 27.6257 45Z" fill="#EBEBFF"/>
<circle cx="33.5" cy="121.5" r="23.5" fill="#614CCB"/>
<rect x="68" y="105" width="109" height="12" rx="6" fill="#180B5A"/>
<rect x="68" y="122" width="75" height="7" rx="3.5" fill="#A29ACD"/>
</svg>
