<svg width="242" height="158" viewBox="0 0 242 158" fill="none" xmlns="http://www.w3.org/2000/svg">
<rect width="242" height="73" rx="10" fill="#EBEBFF"/>
<rect y="85" width="242" height="73" rx="10" fill="#EBEBFF"/>
<path d="M77.3257 32H81.1416C84.291 32 86.1147 30.0518 86.1147 26.6973V26.6826C86.1147 23.3647 84.2764 21.4312 81.1416 21.4312H77.3257V32ZM78.9663 30.5864V22.8447H80.9585C83.1484 22.8447 84.4448 24.2729 84.4448 26.7046V26.7192C84.4448 29.1729 83.1704 30.5864 80.9585 30.5864H78.9663ZM91.1193 32.1538C93.4484 32.1538 94.8767 30.5938 94.8767 28.0303V28.0156C94.8767 25.4521 93.4411 23.8921 91.1193 23.8921C88.7902 23.8921 87.3547 25.4595 87.3547 28.0156V28.0303C87.3547 30.5938 88.7829 32.1538 91.1193 32.1538ZM91.1193 30.8281C89.7497 30.8281 88.9807 29.7954 88.9807 28.0303V28.0156C88.9807 26.2505 89.7497 25.2178 91.1193 25.2178C92.4816 25.2178 93.258 26.2505 93.258 28.0156V28.0303C93.258 29.7881 92.4816 30.8281 91.1193 30.8281ZM96.3656 32H97.955V27.2466C97.955 26.0967 98.7826 25.3496 99.9985 25.3496C100.299 25.3496 100.57 25.3862 100.855 25.4448V23.98C100.694 23.9434 100.416 23.9067 100.16 23.9067C99.0976 23.9067 98.3578 24.4048 98.0722 25.2471H97.955V24.0459H96.3656V32ZM104.088 32.1318C105.142 32.1318 105.977 31.6777 106.446 30.8721H106.57V32H108.145V26.5581C108.145 24.8882 107.017 23.8921 105.018 23.8921C103.209 23.8921 101.956 24.7637 101.766 26.0674L101.758 26.1187H103.289L103.297 26.0894C103.487 25.5254 104.066 25.2031 104.944 25.2031C106.021 25.2031 106.57 25.6865 106.57 26.5581V27.2612L104.417 27.3857C102.52 27.5029 101.451 28.3306 101.451 29.7515V29.7661C101.451 31.209 102.571 32.1318 104.088 32.1318ZM103.033 29.7002V29.6855C103.033 28.9678 103.531 28.5723 104.63 28.5063L106.57 28.3818V29.063C106.57 30.0884 105.699 30.8647 104.512 30.8647C103.655 30.8647 103.033 30.4326 103.033 29.7002ZM110.052 32H111.641V20.9258H110.052V32ZM114.426 22.625C114.968 22.625 115.422 22.1782 115.422 21.6362C115.422 21.0869 114.968 20.6401 114.426 20.6401C113.877 20.6401 113.43 21.0869 113.43 21.6362C113.43 22.1782 113.877 22.625 114.426 22.625ZM113.628 32H115.21V24.0459H113.628V32ZM120.464 32.1538C122.434 32.1538 123.569 31.0918 123.855 29.5464L123.869 29.4805H122.346L122.331 29.5171C122.075 30.374 121.46 30.8281 120.464 30.8281C119.153 30.8281 118.34 29.7588 118.34 28.001V27.9863C118.34 26.2725 119.138 25.2178 120.464 25.2178C121.518 25.2178 122.163 25.8037 122.339 26.5874L122.346 26.6094L123.869 26.6021V26.5654C123.65 25.02 122.456 23.8921 120.456 23.8921C118.135 23.8921 116.721 25.4668 116.721 27.9863V28.001C116.721 30.5718 118.142 32.1538 120.464 32.1538ZM128.603 32.1538C130.639 32.1538 131.738 30.9819 132.001 29.9346L132.016 29.8687L130.485 29.876L130.456 29.9346C130.266 30.3447 129.658 30.8501 128.64 30.8501C127.329 30.8501 126.494 29.9639 126.464 28.4404H132.104V27.8838C132.104 25.4961 130.742 23.8921 128.522 23.8921C126.303 23.8921 124.868 25.5547 124.868 28.0376V28.0449C124.868 30.5645 126.274 32.1538 128.603 32.1538ZM128.53 25.1958C129.606 25.1958 130.405 25.8843 130.529 27.3052H126.486C126.625 25.9355 127.446 25.1958 128.53 25.1958ZM137.462 32H139.103V28.3892H141.578C143.651 28.3892 145.087 26.9756 145.087 24.9102V24.8955C145.087 22.8228 143.651 21.4312 141.578 21.4312H137.462V32ZM141.168 22.8154C142.589 22.8154 143.417 23.5845 143.417 24.9028V24.9175C143.417 26.2432 142.589 27.0122 141.168 27.0122H139.103V22.8154H141.168ZM147.44 22.625C147.982 22.625 148.436 22.1782 148.436 21.6362C148.436 21.0869 147.982 20.6401 147.44 20.6401C146.891 20.6401 146.444 21.0869 146.444 21.6362C146.444 22.1782 146.891 22.625 147.44 22.625ZM146.642 32H148.224V24.0459H146.642V32ZM150.203 32H151.793V20.9258H150.203V32ZM157.112 34.8052C159.368 34.8052 160.796 33.6479 160.796 31.8389V24.0459H159.214V25.3496H159.119C158.658 24.4561 157.793 23.9067 156.68 23.9067C154.615 23.9067 153.348 25.5107 153.348 27.7812V27.7959C153.348 30.0371 154.607 31.6118 156.651 31.6118C157.742 31.6118 158.621 31.1284 159.104 30.2642H159.222V31.8315C159.222 32.9155 158.445 33.5308 157.134 33.5308C156.058 33.5308 155.413 33.1426 155.281 32.5933L155.274 32.5786H153.67L153.655 32.5933C153.846 33.9189 155.091 34.8052 157.112 34.8052ZM157.09 30.3008C155.735 30.3008 154.974 29.2681 154.974 27.7886V27.7739C154.974 26.2944 155.735 25.2544 157.09 25.2544C158.431 25.2544 159.251 26.2944 159.251 27.7739V27.7886C159.251 29.2754 158.438 30.3008 157.09 30.3008ZM162.674 32H164.263V27.2466C164.263 26.0967 165.091 25.3496 166.306 25.3496C166.607 25.3496 166.878 25.3862 167.163 25.4448V23.98C167.002 23.9434 166.724 23.9067 166.467 23.9067C165.405 23.9067 164.666 24.4048 164.38 25.2471H164.263V24.0459H162.674V32ZM169.099 22.625C169.641 22.625 170.095 22.1782 170.095 21.6362C170.095 21.0869 169.641 20.6401 169.099 20.6401C168.55 20.6401 168.103 21.0869 168.103 21.6362C168.103 22.1782 168.55 22.625 169.099 22.625ZM168.301 32H169.883V24.0459H168.301V32ZM171.789 32H173.379V27.1147C173.379 26.0747 174.089 25.2544 175.048 25.2544C175.986 25.2544 176.579 25.8257 176.579 26.7339V32H178.161V26.9683C178.161 26.0088 178.828 25.2544 179.838 25.2544C180.879 25.2544 181.377 25.7964 181.377 26.895V32H182.959V26.5142C182.959 24.8589 182.021 23.8921 180.417 23.8921C179.311 23.8921 178.396 24.4561 177.993 25.313H177.868C177.517 24.4561 176.748 23.8921 175.664 23.8921C174.624 23.8921 173.847 24.3975 173.496 25.269H173.379V24.0459H171.789V32Z" fill="#180B5A"/>
<path d="M76.9434 51H82.416V50.0508H78.4082V49.957L80.3301 47.9707C81.8594 46.3945 82.2754 45.6914 82.2754 44.7246V44.7129C82.2754 43.3477 81.1445 42.3457 79.668 42.3457C78.0508 42.3457 76.8906 43.4238 76.8848 44.9238L76.8965 44.9297L77.9043 44.9355L77.9102 44.9238C77.9102 43.9277 78.584 43.2656 79.5977 43.2656C80.5938 43.2656 81.1973 43.9336 81.1973 44.8242V44.8359C81.1973 45.5742 80.8809 46.0137 79.8027 47.1797L76.9434 50.2734V51ZM85.8459 51H86.9006V42.5449H85.8518L83.6018 44.1621V45.2754L85.7522 43.7168H85.8459V51ZM93.6432 51.1113C94.4928 51.1113 95.1549 50.7422 95.5533 50.0684H95.6471V51H96.6666V46.6758C96.6666 45.3633 95.8053 44.5723 94.2643 44.5723C92.9166 44.5723 91.9557 45.2402 91.7916 46.2305L91.7858 46.2656H92.8053L92.8112 46.248C92.9752 45.7559 93.4733 45.4746 94.2291 45.4746C95.1725 45.4746 95.6471 45.8965 95.6471 46.6758V47.25L93.8365 47.3613C92.3658 47.4492 91.5338 48.0996 91.5338 49.2246V49.2363C91.5338 50.3848 92.442 51.1113 93.6432 51.1113ZM92.5768 49.2129V49.2012C92.5768 48.5742 92.9987 48.2344 93.9596 48.1758L95.6471 48.0703V48.6445C95.6471 49.5469 94.8912 50.2266 93.8541 50.2266C93.1217 50.2266 92.5768 49.8516 92.5768 49.2129ZM98.1219 51H99.1414V47.2617C99.1414 46.1543 99.7801 45.4746 100.788 45.4746C101.796 45.4746 102.264 46.0195 102.264 47.1562V51H103.284V46.9102C103.284 45.4102 102.493 44.5723 101.075 44.5723C100.143 44.5723 99.5516 44.9648 99.2352 45.6328H99.1414V44.6836H98.1219V51ZM107.317 51.1113C109.116 51.1113 110.23 49.8691 110.23 47.8477V47.8359C110.23 45.8086 109.116 44.5723 107.317 44.5723C105.519 44.5723 104.405 45.8086 104.405 47.8359V47.8477C104.405 49.8691 105.519 51.1113 107.317 51.1113ZM107.317 50.209C106.122 50.209 105.448 49.3359 105.448 47.8477V47.8359C105.448 46.3418 106.122 45.4746 107.317 45.4746C108.513 45.4746 109.187 46.3418 109.187 47.8359V47.8477C109.187 49.3359 108.513 50.209 107.317 50.209ZM113.572 51.1113C115.007 51.1113 116.103 50.332 116.103 49.207V49.1953C116.103 48.293 115.529 47.7773 114.339 47.4902L113.366 47.2559C112.622 47.0742 112.306 46.8047 112.306 46.377V46.3652C112.306 45.8086 112.857 45.4219 113.607 45.4219C114.368 45.4219 114.861 45.7676 114.995 46.2656H115.997C115.857 45.2344 114.937 44.5723 113.613 44.5723C112.271 44.5723 111.263 45.3633 111.263 46.4121V46.418C111.263 47.3262 111.796 47.8418 112.98 48.123L113.958 48.3574C114.738 48.5449 115.06 48.8438 115.06 49.2715V49.2832C115.06 49.8574 114.456 50.2617 113.607 50.2617C112.798 50.2617 112.294 49.916 112.124 49.3887H111.081C111.198 50.4316 112.165 51.1113 113.572 51.1113ZM117.019 53.1504H117.775L118.695 49.8164H117.529L117.019 53.1504ZM125.73 51.1113C126.609 51.1113 127.312 50.6953 127.699 49.9922H127.793V51H128.812V42.1758H127.793V45.6797H127.699C127.353 45.0059 126.598 44.5723 125.73 44.5723C124.125 44.5723 123.082 45.8555 123.082 47.8359V47.8477C123.082 49.8164 124.131 51.1113 125.73 51.1113ZM125.965 50.209C124.81 50.209 124.125 49.3184 124.125 47.8477V47.8359C124.125 46.3652 124.81 45.4746 125.965 45.4746C127.113 45.4746 127.816 46.377 127.816 47.8359V47.8477C127.816 49.3066 127.113 50.209 125.965 50.209ZM132.94 51.1113C134.428 51.1113 135.33 50.2676 135.547 49.4121L135.559 49.3652H134.539L134.516 49.418C134.346 49.7988 133.818 50.2031 132.963 50.2031C131.838 50.2031 131.117 49.4414 131.088 48.1348H135.635V47.7363C135.635 45.8496 134.592 44.5723 132.875 44.5723C131.158 44.5723 130.045 45.9082 130.045 47.8594V47.8652C130.045 49.8457 131.135 51.1113 132.94 51.1113ZM132.869 45.4805C133.801 45.4805 134.492 46.0723 134.598 47.3203H131.106C131.217 46.1191 131.932 45.4805 132.869 45.4805ZM138.977 51.1113C140.412 51.1113 141.508 50.332 141.508 49.207V49.1953C141.508 48.293 140.934 47.7773 139.744 47.4902L138.772 47.2559C138.028 47.0742 137.711 46.8047 137.711 46.377V46.3652C137.711 45.8086 138.262 45.4219 139.012 45.4219C139.774 45.4219 140.266 45.7676 140.401 46.2656H141.403C141.262 45.2344 140.342 44.5723 139.018 44.5723C137.676 44.5723 136.668 45.3633 136.668 46.4121V46.418C136.668 47.3262 137.201 47.8418 138.385 48.123L139.364 48.3574C140.143 48.5449 140.465 48.8438 140.465 49.2715V49.2832C140.465 49.8574 139.862 50.2617 139.012 50.2617C138.203 50.2617 137.7 49.916 137.53 49.3887H136.487C136.604 50.4316 137.571 51.1113 138.977 51.1113ZM143.221 43.4648C143.608 43.4648 143.924 43.1484 143.924 42.7617C143.924 42.375 143.608 42.0586 143.221 42.0586C142.834 42.0586 142.518 42.375 142.518 42.7617C142.518 43.1484 142.834 43.4648 143.221 43.4648ZM142.706 51H143.725V44.6836H142.706V51ZM147.841 53.2266C149.563 53.2266 150.653 52.3242 150.653 50.9121V44.6836H149.633V45.7266H149.563C149.176 45.0117 148.485 44.5723 147.594 44.5723C145.942 44.5723 144.923 45.8555 144.923 47.625V47.6367C144.923 49.4062 145.936 50.6719 147.571 50.6719C148.438 50.6719 149.153 50.2793 149.551 49.582H149.645V50.8594C149.645 51.791 148.971 52.3242 147.841 52.3242C146.932 52.3242 146.37 51.9844 146.258 51.5039L146.253 51.498H145.198L145.186 51.5039C145.344 52.541 146.317 53.2266 147.841 53.2266ZM147.794 49.7695C146.622 49.7695 145.966 48.8906 145.966 47.6367V47.625C145.966 46.3711 146.622 45.4746 147.794 45.4746C148.96 45.4746 149.669 46.3711 149.669 47.625V47.6367C149.669 48.8906 148.966 49.7695 147.794 49.7695ZM152.143 51H153.163V47.2617C153.163 46.1543 153.802 45.4746 154.809 45.4746C155.817 45.4746 156.286 46.0195 156.286 47.1562V51H157.306V46.9102C157.306 45.4102 156.515 44.5723 155.097 44.5723C154.165 44.5723 153.573 44.9648 153.257 45.6328H153.163V44.6836H152.143V51ZM161.321 51.1113C162.81 51.1113 163.712 50.2676 163.929 49.4121L163.941 49.3652H162.921L162.898 49.418C162.728 49.7988 162.2 50.2031 161.345 50.2031C160.22 50.2031 159.499 49.4414 159.47 48.1348H164.017V47.7363C164.017 45.8496 162.974 44.5723 161.257 44.5723C159.54 44.5723 158.427 45.9082 158.427 47.8594V47.8652C158.427 49.8457 159.517 51.1113 161.321 51.1113ZM161.251 45.4805C162.183 45.4805 162.874 46.0723 162.98 47.3203H159.487C159.599 46.1191 160.314 45.4805 161.251 45.4805ZM165.191 51H166.21V47.0859C166.21 46.1602 166.902 45.5449 167.874 45.5449C168.097 45.5449 168.29 45.5684 168.501 45.6035V44.6133C168.402 44.5957 168.185 44.5723 167.992 44.5723C167.136 44.5723 166.544 44.959 166.304 45.6211H166.21V44.6836H165.191V51Z" fill="#A29ACD"/>
<circle cx="41.5" cy="36.5" r="23.5" fill="#614CCB"/>
<path d="M42.0048 36.2447C44.0392 36.2447 45.8075 34.4294 45.8075 32.0656C45.8075 29.7303 44.0392 28 42.0048 28C39.9703 28 38.202 29.7681 38.202 32.0845C38.202 34.4294 39.9608 36.2447 42.0048 36.2447ZM35.6257 45H48.3743C49.3916 45 50 44.5273 50 43.7425C50 41.3031 46.9293 37.9372 41.9952 37.9372C37.0707 37.9372 34 41.3031 34 43.7425C34 44.5273 34.6084 45 35.6257 45Z" fill="#EBEBFF"/>
<circle cx="41.5" cy="121.5" r="23.5" fill="#614CCB"/>
<rect x="76" y="105" width="117" height="12" rx="6" fill="#180B5A"/>
<rect x="76" y="122" width="75" height="7" rx="3.5" fill="#A29ACD"/>
</svg>
