<svg width="238" height="159" viewBox="0 0 238 159" fill="none" xmlns="http://www.w3.org/2000/svg">
<rect width="238" height="159" rx="10" fill="#EBEBFF"/>
<rect x="10" y="10" width="218" height="139" rx="12" fill="#252525" fill-opacity="0.7"/>
<line x1="10" y1="55.5" x2="228" y2="55.5" stroke="#545458"/>
<line x1="10" y1="104.5" x2="228" y2="104.5" stroke="#545458"/>
<path d="M27.5273 40H29.0215V34.812H34.3257V33.4839H29.0215V29.3667H34.7988V28.022H27.5273V40ZM38.5412 40.1577C39.7448 40.1577 40.6828 39.6348 41.2473 38.6802H41.3801V40H42.8244V33.874C42.8244 32.0146 41.6042 30.894 39.4211 30.894C37.5119 30.894 36.1506 31.8403 35.9182 33.2432L35.9099 33.293H37.3542L37.3625 33.2681C37.5949 32.5708 38.3005 32.1724 39.3713 32.1724C40.7077 32.1724 41.3801 32.77 41.3801 33.874V34.6875L38.8151 34.8452C36.7316 34.9697 35.5529 35.8911 35.5529 37.4849V37.5015C35.5529 39.1284 36.8396 40.1577 38.5412 40.1577ZM37.0305 37.4683V37.4517C37.0305 36.5635 37.6281 36.082 38.9895 35.999L41.3801 35.8496V36.6631C41.3801 37.9414 40.3093 38.9043 38.84 38.9043C37.8024 38.9043 37.0305 38.373 37.0305 37.4683ZM47.2558 40H48.7167L52.0287 31.0518H50.5014L48.0527 38.4229H47.9198L45.4711 31.0518H43.9438L47.2558 40ZM56.8751 40.1577C59.4235 40.1577 61.0006 38.3979 61.0006 35.5342V35.5176C61.0006 32.6455 59.4235 30.894 56.8751 30.894C54.3268 30.894 52.7496 32.6455 52.7496 35.5176V35.5342C52.7496 38.3979 54.3268 40.1577 56.8751 40.1577ZM56.8751 38.8794C55.1818 38.8794 54.2272 37.6426 54.2272 35.5342V35.5176C54.2272 33.4009 55.1818 32.1724 56.8751 32.1724C58.5685 32.1724 59.5231 33.4009 59.5231 35.5176V35.5342C59.5231 37.6426 58.5685 38.8794 56.8751 38.8794ZM62.8338 40H64.2782V34.4551C64.2782 33.1436 65.2576 32.272 66.6356 32.272C66.951 32.272 67.2249 32.3052 67.5238 32.355V30.9521C67.3826 30.9272 67.0755 30.894 66.8016 30.894C65.5897 30.894 64.7513 31.4419 64.411 32.3799H64.2782V31.0518H62.8338V40ZM69.6641 29.3252C70.212 29.3252 70.6602 28.877 70.6602 28.3291C70.6602 27.7812 70.212 27.333 69.6641 27.333C69.1162 27.333 68.668 27.7812 68.668 28.3291C68.668 28.877 69.1162 29.3252 69.6641 29.3252ZM68.9336 40H70.378V31.0518H68.9336V40ZM75.8718 40.0664C76.1541 40.0664 76.428 40.0332 76.7102 39.9834V38.7549C76.4446 38.7798 76.3035 38.7881 76.0461 38.7881C75.1165 38.7881 74.7512 38.3647 74.7512 37.3105V32.2471H76.7102V31.0518H74.7512V28.7358H73.2571V31.0518H71.8459V32.2471H73.2571V37.6758C73.2571 39.3857 74.0291 40.0664 75.8718 40.0664ZM80.9174 40.1577C82.1211 40.1577 83.059 39.6348 83.6235 38.6802H83.7563V40H85.2006V33.874C85.2006 32.0146 83.9804 30.894 81.7973 30.894C79.8881 30.894 78.5268 31.8403 78.2944 33.2432L78.2861 33.293H79.7304L79.7387 33.2681C79.9711 32.5708 80.6767 32.1724 81.7475 32.1724C83.0839 32.1724 83.7563 32.77 83.7563 33.874V34.6875L81.1914 34.8452C79.1079 34.9697 77.9292 35.8911 77.9292 37.4849V37.5015C77.9292 39.1284 79.2158 40.1577 80.9174 40.1577ZM79.4067 37.4683V37.4517C79.4067 36.5635 80.0044 36.082 81.3657 35.999L83.7563 35.8496V36.6631C83.7563 37.9414 82.6855 38.9043 81.2163 38.9043C80.1787 38.9043 79.4067 38.373 79.4067 37.4683ZM87.4323 40H88.8766V34.4551C88.8766 33.1436 89.8561 32.272 91.234 32.272C91.5495 32.272 91.8234 32.3052 92.1222 32.355V30.9521C91.9811 30.9272 91.674 30.894 91.4001 30.894C90.1881 30.894 89.3498 31.4419 89.0094 32.3799H88.8766V31.0518H87.4323V40Z" fill="white"/>
<path d="M32.3501 86.2822C34.8984 86.2822 36.791 84.8628 37.1895 82.6714V82.6548H35.6787L35.6621 82.6714C35.2886 84.0493 34.0186 84.9043 32.3501 84.9043C30.0425 84.9043 28.5981 83.02 28.5981 80.0234V80.0068C28.5981 77.0103 30.0425 75.1177 32.3418 75.1177C33.9937 75.1177 35.272 76.0889 35.6704 77.6245L35.6787 77.6411H37.1812L37.1895 77.6245C36.8325 75.3252 34.8652 73.7397 32.3418 73.7397C29.0879 73.7397 27.0625 76.147 27.0625 80.0068V80.0234C27.0625 83.875 29.0962 86.2822 32.3501 86.2822ZM42.7829 86.1577C45.3313 86.1577 46.9084 84.3979 46.9084 81.5342V81.5176C46.9084 78.6455 45.3313 76.894 42.7829 76.894C40.2346 76.894 38.6574 78.6455 38.6574 81.5176V81.5342C38.6574 84.3979 40.2346 86.1577 42.7829 86.1577ZM42.7829 84.8794C41.0896 84.8794 40.135 83.6426 40.135 81.5342V81.5176C40.135 79.4009 41.0896 78.1724 42.7829 78.1724C44.4763 78.1724 45.4309 79.4009 45.4309 81.5176V81.5342C45.4309 83.6426 44.4763 84.8794 42.7829 84.8794ZM48.7416 86H50.186V80.4551C50.186 79.1934 51.0741 78.1724 52.2445 78.1724C53.3735 78.1724 54.1039 78.8613 54.1039 79.9238V86H55.5483V80.2476C55.5483 79.1104 56.37 78.1724 57.6152 78.1724C58.8769 78.1724 59.4828 78.8281 59.4828 80.1479V86H60.9272V79.8159C60.9272 77.9399 59.9062 76.894 58.08 76.894C56.8432 76.894 55.8222 77.5166 55.3407 78.4629H55.2079C54.7929 77.5332 53.9462 76.894 52.7343 76.894C51.5639 76.894 50.7172 77.4502 50.3188 78.4131H50.186V77.0518H48.7416V86ZM63.1256 88.9883H64.5699V84.5889H64.7028C65.1925 85.5435 66.2633 86.1577 67.4918 86.1577C69.7662 86.1577 71.2438 84.3398 71.2438 81.5342V81.5176C71.2438 78.7285 69.7579 76.894 67.4918 76.894C66.2467 76.894 65.2506 77.4834 64.7028 78.4795H64.5699V77.0518H63.1256V88.9883ZM67.1598 84.8794C65.5328 84.8794 64.5367 83.6011 64.5367 81.5342V81.5176C64.5367 79.4507 65.5328 78.1724 67.1598 78.1724C68.795 78.1724 69.7662 79.4341 69.7662 81.5176V81.5342C69.7662 83.6177 68.795 84.8794 67.1598 84.8794ZM75.5506 86.1577C76.7542 86.1577 77.6922 85.6348 78.2567 84.6802H78.3895V86H79.8338V79.874C79.8338 78.0146 78.6136 76.894 76.4305 76.894C74.5213 76.894 73.16 77.8403 72.9276 79.2432L72.9193 79.293H74.3636L74.3719 79.2681C74.6043 78.5708 75.3099 78.1724 76.3807 78.1724C77.7171 78.1724 78.3895 78.77 78.3895 79.874V80.6875L75.8245 80.8452C73.741 80.9697 72.5623 81.8911 72.5623 83.4849V83.5015C72.5623 85.1284 73.849 86.1577 75.5506 86.1577ZM74.0399 83.4683V83.4517C74.0399 82.5635 74.6375 82.082 75.9989 81.999L78.3895 81.8496V82.6631C78.3895 83.9414 77.3187 84.9043 75.8494 84.9043C74.8118 84.9043 74.0399 84.373 74.0399 83.4683ZM82.0655 86H83.5098V80.4551C83.5098 79.1436 84.4893 78.272 85.8672 78.272C86.1827 78.272 86.4566 78.3052 86.7554 78.355V76.9521C86.6143 76.9272 86.3072 76.894 86.0332 76.894C84.8213 76.894 83.9829 77.4419 83.6426 78.3799H83.5098V77.0518H82.0655V86ZM91.4773 86.0664C91.7595 86.0664 92.0334 86.0332 92.3157 85.9834V84.7549C92.05 84.7798 91.9089 84.7881 91.6516 84.7881C90.7219 84.7881 90.3567 84.3647 90.3567 83.3105V78.2471H92.3157V77.0518H90.3567V74.7358H88.8625V77.0518H87.4514V78.2471H88.8625V83.6758C88.8625 85.3857 89.6345 86.0664 91.4773 86.0664ZM94.8295 75.3252C95.3774 75.3252 95.8256 74.877 95.8256 74.3291C95.8256 73.7812 95.3774 73.333 94.8295 73.333C94.2817 73.333 93.8335 73.7812 93.8335 74.3291C93.8335 74.877 94.2817 75.3252 94.8295 75.3252ZM94.0991 86H95.5434V77.0518H94.0991V86ZM97.9411 86H99.3854V73.499H97.9411V86ZM101.833 86H103.277V80.7041C103.277 79.1353 104.182 78.1724 105.61 78.1724C107.037 78.1724 107.702 78.9443 107.702 80.5547V86H109.146V80.2061C109.146 78.0811 108.025 76.894 106.016 76.894C104.697 76.894 103.858 77.4502 103.41 78.3965H103.277V73.499H101.833V86ZM113.81 86.1577C115.013 86.1577 115.951 85.6348 116.516 84.6802H116.649V86H118.093V79.874C118.093 78.0146 116.873 76.894 114.69 76.894C112.78 76.894 111.419 77.8403 111.187 79.2432L111.178 79.293H112.623L112.631 79.2681C112.863 78.5708 113.569 78.1724 114.64 78.1724C115.976 78.1724 116.649 78.77 116.649 79.874V80.6875L114.084 80.8452C112 80.9697 110.821 81.8911 110.821 83.4849V83.5015C110.821 85.1284 112.108 86.1577 113.81 86.1577ZM112.299 83.4683V83.4517C112.299 82.5635 112.897 82.082 114.258 81.999L116.649 81.8496V82.6631C116.649 83.9414 115.578 84.9043 114.108 84.9043C113.071 84.9043 112.299 84.373 112.299 83.4683ZM120.325 86H121.769V80.4551C121.769 79.1436 122.748 78.272 124.126 78.272C124.442 78.272 124.716 78.3052 125.014 78.355V76.9521C124.873 76.9272 124.566 76.894 124.292 76.894C123.08 76.894 122.242 77.4419 121.902 78.3799H121.769V77.0518H120.325V86Z" fill="white"/>
<path d="M26.5728 132H28.1416L29.3452 128.572H34.1099L35.3135 132H36.8823L32.4663 120.022H30.9888L26.5728 132ZM31.6611 121.956H31.7939L33.6699 127.302H29.7852L31.6611 121.956ZM38.3918 134.988H39.8361V130.589H39.969C40.4587 131.543 41.5295 132.158 42.758 132.158C45.0324 132.158 46.51 130.34 46.51 127.534V127.518C46.51 124.729 45.0241 122.894 42.758 122.894C41.5129 122.894 40.5168 123.483 39.969 124.479H39.8361V123.052H38.3918V134.988ZM42.426 130.879C40.799 130.879 39.8029 129.601 39.8029 127.534V127.518C39.8029 125.451 40.799 124.172 42.426 124.172C44.0612 124.172 45.0324 125.434 45.0324 127.518V127.534C45.0324 129.618 44.0612 130.879 42.426 130.879ZM50.8168 132.158C52.0204 132.158 52.9584 131.635 53.5229 130.68H53.6557V132H55.1V125.874C55.1 124.015 53.8798 122.894 51.6967 122.894C49.7875 122.894 48.4262 123.84 48.1938 125.243L48.1855 125.293H49.6298L49.6381 125.268C49.8705 124.571 50.5761 124.172 51.6469 124.172C52.9833 124.172 53.6557 124.77 53.6557 125.874V126.688L51.0907 126.845C49.0072 126.97 47.8285 127.891 47.8285 129.485V129.501C47.8285 131.128 49.1152 132.158 50.8168 132.158ZM49.3061 129.468V129.452C49.3061 128.563 49.9037 128.082 51.2651 127.999L53.6557 127.85V128.663C53.6557 129.941 52.5849 130.904 51.1156 130.904C50.078 130.904 49.3061 130.373 49.3061 129.468ZM61.0172 135.154C63.4576 135.154 65.0016 133.876 65.0016 131.875V123.052H63.5573V124.529H63.4576C62.9098 123.517 61.9303 122.894 60.6686 122.894C58.3278 122.894 56.8834 124.712 56.8834 127.219V127.235C56.8834 129.742 58.3195 131.535 60.6354 131.535C61.8639 131.535 62.8766 130.979 63.441 129.991H63.5739V131.801C63.5739 133.121 62.6193 133.876 61.0172 133.876C59.7306 133.876 58.9337 133.395 58.776 132.714L58.7677 132.706H57.2736L57.257 132.714C57.4811 134.183 58.859 135.154 61.0172 135.154ZM60.9508 130.257C59.2906 130.257 58.361 129.012 58.361 127.235V127.219C58.361 125.442 59.2906 124.172 60.9508 124.172C62.6027 124.172 63.6071 125.442 63.6071 127.219V127.235C63.6071 129.012 62.611 130.257 60.9508 130.257ZM69.7401 132.158C70.9437 132.158 71.8817 131.635 72.4461 130.68H72.5789V132H74.0233V125.874C74.0233 124.015 72.8031 122.894 70.62 122.894C68.7108 122.894 67.3494 123.84 67.117 125.243L67.1087 125.293H68.5531L68.5614 125.268C68.7938 124.571 69.4993 124.172 70.5701 124.172C71.9066 124.172 72.5789 124.77 72.5789 125.874V126.688L70.014 126.845C67.9305 126.97 66.7518 127.891 66.7518 129.485V129.501C66.7518 131.128 68.0384 132.158 69.7401 132.158ZM68.2293 129.468V129.452C68.2293 128.563 68.827 128.082 70.1883 127.999L72.5789 127.85V128.663C72.5789 129.941 71.5081 130.904 70.0389 130.904C69.0013 130.904 68.2293 130.373 68.2293 129.468ZM76.2549 132H77.6993V126.455C77.6993 125.144 78.6787 124.272 80.0567 124.272C80.3721 124.272 80.646 124.305 80.9449 124.355V122.952C80.8037 122.927 80.4966 122.894 80.2227 122.894C79.0108 122.894 78.1724 123.442 77.8321 124.38H77.6993V123.052H76.2549V132Z" fill="#FF453A"/>
<path d="M196.947 42.0662L196.947 42.0662L196.941 42.0617C196.868 42.008 196.834 41.9512 196.82 41.8684C196.803 41.7684 196.812 41.6019 196.903 41.3446L196.904 41.3418L198.692 36.1788L198.816 35.8214L198.506 35.6051L193.937 32.4176L193.937 32.4176L193.935 32.4158C193.702 32.2557 193.585 32.1233 193.534 32.0285C193.494 31.9536 193.491 31.9 193.515 31.8309L193.516 31.828C193.546 31.7413 193.651 31.5688 194.235 31.5761L194.238 31.5762L199.842 31.6094L200.207 31.6115L200.32 31.2653L202.022 26.0799C202.022 26.0795 202.022 26.0791 202.022 26.0786C202.111 25.8126 202.207 25.6649 202.285 25.588C202.351 25.5242 202.412 25.5 202.497 25.5C202.59 25.5 202.653 25.5261 202.718 25.5892C202.797 25.6656 202.892 25.8126 202.981 26.0787C202.981 26.0791 202.981 26.0795 202.981 26.0799L204.683 31.2653L204.797 31.6115L205.161 31.6094L210.765 31.5762L210.768 31.5761C211.346 31.5688 211.455 31.7377 211.486 31.8252C211.509 31.8979 211.505 31.9553 211.465 32.0304C211.414 32.125 211.3 32.2568 211.069 32.4158L211.066 32.4176L206.498 35.6051L206.187 35.8214L206.311 36.1788L208.099 41.3419L208.1 41.3446C208.191 41.6019 208.201 41.7684 208.184 41.8684C208.17 41.9512 208.135 42.008 208.062 42.0617L208.061 42.0628C207.996 42.1109 207.935 42.1271 207.84 42.1116C207.725 42.0926 207.555 42.0227 207.321 41.8575C207.32 41.8572 207.32 41.857 207.32 41.8568L202.787 38.6293L202.497 38.4226L202.207 38.6296L197.684 41.8568C197.683 41.8571 197.683 41.8574 197.682 41.8577C197.449 42.0219 197.277 42.0923 197.16 42.1115C197.063 42.1275 197.005 42.1096 196.947 42.0662Z" stroke="white"/>
<path d="M198.503 134.515H206.115C207.302 134.515 208.099 133.743 208.157 132.556L208.73 120.487H209.726C210.066 120.487 210.34 120.196 210.34 119.856C210.34 119.516 210.066 119.233 209.726 119.233H205.933V117.963C205.933 116.76 205.152 116.029 203.874 116.029H200.72C199.441 116.029 198.661 116.76 198.661 117.963V119.233H194.893C194.561 119.233 194.27 119.516 194.27 119.856C194.27 120.205 194.561 120.487 194.893 120.487H195.889L196.461 132.564C196.52 133.751 197.3 134.515 198.503 134.515ZM199.981 118.046C199.981 117.573 200.313 117.266 200.811 117.266H203.783C204.281 117.266 204.613 117.573 204.613 118.046V119.233H199.981V118.046ZM198.62 133.262C198.146 133.262 197.79 132.905 197.765 132.415L197.184 120.487H207.394L206.846 132.415C206.829 132.913 206.472 133.262 205.982 133.262H198.62ZM199.848 131.842C200.164 131.842 200.371 131.643 200.363 131.353L200.105 122.471C200.097 122.18 199.89 121.989 199.591 121.989C199.275 121.989 199.068 122.188 199.076 122.479L199.325 131.353C199.333 131.651 199.541 131.842 199.848 131.842ZM202.305 131.842C202.621 131.842 202.845 131.643 202.845 131.353V122.479C202.845 122.188 202.621 121.989 202.305 121.989C201.99 121.989 201.774 122.188 201.774 122.479V131.353C201.774 131.643 201.99 131.842 202.305 131.842ZM204.771 131.842C205.069 131.842 205.277 131.651 205.285 131.353L205.534 122.479C205.542 122.188 205.335 121.989 205.02 121.989C204.721 121.989 204.513 122.18 204.505 122.479L204.256 131.353C204.248 131.643 204.455 131.842 204.771 131.842Z" fill="#FF453A"/>
<path d="M202.479 81.2646C202.836 81.2646 203.144 80.9658 203.144 80.6172V72.0923L203.094 70.8472L203.65 71.4365L204.912 72.7812C205.028 72.9141 205.194 72.9805 205.36 72.9805C205.7 72.9805 205.966 72.7314 205.966 72.3911C205.966 72.2168 205.891 72.084 205.767 71.9595L202.961 69.2534C202.795 69.0874 202.654 69.0293 202.479 69.0293C202.313 69.0293 202.172 69.0874 201.998 69.2534L199.192 71.9595C199.068 72.084 199.001 72.2168 199.001 72.3911C199.001 72.7314 199.25 72.9805 199.599 72.9805C199.757 72.9805 199.939 72.9141 200.056 72.7812L201.309 71.4365L201.874 70.8472L201.824 72.0923V80.6172C201.824 80.9658 202.123 81.2646 202.479 81.2646ZM197.723 87.7642H207.244C208.979 87.7642 209.851 86.9009 209.851 85.1909V76.9067C209.851 75.1968 208.979 74.3335 207.244 74.3335H204.928V75.6699H207.219C208.041 75.6699 208.514 76.1182 208.514 76.9814V85.1162C208.514 85.9795 208.041 86.4277 207.219 86.4277H197.74C196.91 86.4277 196.453 85.9795 196.453 85.1162V76.9814C196.453 76.1182 196.91 75.6699 197.74 75.6699H200.039V74.3335H197.723C195.988 74.3335 195.117 75.1968 195.117 76.9067V85.1909C195.117 86.9009 195.988 87.7642 197.723 87.7642Z" fill="white"/>
</svg>
