<svg width="285" height="159" viewBox="0 0 285 159" fill="none" xmlns="http://www.w3.org/2000/svg">
<rect width="285" height="159" rx="10" fill="#EBEBFF"/>
<rect x="24" y="10" width="218" height="139" rx="12" fill="#252525" fill-opacity="0.7"/>
<line x1="24" y1="55.5" x2="242" y2="55.5" stroke="#545458"/>
<line x1="24" y1="104.5" x2="242" y2="104.5" stroke="#545458"/>
<path d="M41.5273 40H43.0215V34.812H48.3257V33.4839H43.0215V29.3667H48.7988V28.022H41.5273V40ZM52.5412 40.1577C53.7448 40.1577 54.6828 39.6348 55.2473 38.6802H55.3801V40H56.8244V33.874C56.8244 32.0146 55.6042 30.894 53.4211 30.894C51.5119 30.894 50.1506 31.8403 49.9182 33.2432L49.9099 33.293H51.3542L51.3625 33.2681C51.5949 32.5708 52.3005 32.1724 53.3713 32.1724C54.7077 32.1724 55.3801 32.77 55.3801 33.874V34.6875L52.8151 34.8452C50.7316 34.9697 49.5529 35.8911 49.5529 37.4849V37.5015C49.5529 39.1284 50.8396 40.1577 52.5412 40.1577ZM51.0305 37.4683V37.4517C51.0305 36.5635 51.6281 36.082 52.9895 35.999L55.3801 35.8496V36.6631C55.3801 37.9414 54.3093 38.9043 52.84 38.9043C51.8024 38.9043 51.0305 38.373 51.0305 37.4683ZM61.2558 40H62.7167L66.0287 31.0518H64.5014L62.0527 38.4229H61.9198L59.4711 31.0518H57.9438L61.2558 40ZM70.8751 40.1577C73.4235 40.1577 75.0006 38.3979 75.0006 35.5342V35.5176C75.0006 32.6455 73.4235 30.894 70.8751 30.894C68.3268 30.894 66.7496 32.6455 66.7496 35.5176V35.5342C66.7496 38.3979 68.3268 40.1577 70.8751 40.1577ZM70.8751 38.8794C69.1818 38.8794 68.2272 37.6426 68.2272 35.5342V35.5176C68.2272 33.4009 69.1818 32.1724 70.8751 32.1724C72.5685 32.1724 73.5231 33.4009 73.5231 35.5176V35.5342C73.5231 37.6426 72.5685 38.8794 70.8751 38.8794ZM76.8338 40H78.2782V34.4551C78.2782 33.1436 79.2576 32.272 80.6356 32.272C80.951 32.272 81.2249 32.3052 81.5238 32.355V30.9521C81.3826 30.9272 81.0755 30.894 80.8016 30.894C79.5897 30.894 78.7513 31.4419 78.411 32.3799H78.2782V31.0518H76.8338V40ZM83.6641 29.3252C84.212 29.3252 84.6602 28.877 84.6602 28.3291C84.6602 27.7812 84.212 27.333 83.6641 27.333C83.1162 27.333 82.668 27.7812 82.668 28.3291C82.668 28.877 83.1162 29.3252 83.6641 29.3252ZM82.9336 40H84.378V31.0518H82.9336V40ZM89.8718 40.0664C90.1541 40.0664 90.428 40.0332 90.7102 39.9834V38.7549C90.4446 38.7798 90.3035 38.7881 90.0461 38.7881C89.1165 38.7881 88.7512 38.3647 88.7512 37.3105V32.2471H90.7102V31.0518H88.7512V28.7358H87.2571V31.0518H85.8459V32.2471H87.2571V37.6758C87.2571 39.3857 88.0291 40.0664 89.8718 40.0664ZM94.9174 40.1577C96.1211 40.1577 97.059 39.6348 97.6235 38.6802H97.7563V40H99.2006V33.874C99.2006 32.0146 97.9804 30.894 95.7973 30.894C93.8881 30.894 92.5268 31.8403 92.2944 33.2432L92.2861 33.293H93.7304L93.7387 33.2681C93.9711 32.5708 94.6767 32.1724 95.7475 32.1724C97.0839 32.1724 97.7563 32.77 97.7563 33.874V34.6875L95.1914 34.8452C93.1079 34.9697 91.9292 35.8911 91.9292 37.4849V37.5015C91.9292 39.1284 93.2158 40.1577 94.9174 40.1577ZM93.4067 37.4683V37.4517C93.4067 36.5635 94.0044 36.082 95.3657 35.999L97.7563 35.8496V36.6631C97.7563 37.9414 96.6855 38.9043 95.2163 38.9043C94.1787 38.9043 93.4067 38.373 93.4067 37.4683ZM101.432 40H102.877V34.4551C102.877 33.1436 103.856 32.272 105.234 32.272C105.549 32.272 105.823 32.3052 106.122 32.355V30.9521C105.981 30.9272 105.674 30.894 105.4 30.894C104.188 30.894 103.35 31.4419 103.009 32.3799H102.877V31.0518H101.432V40Z" fill="white"/>
<path d="M46.3501 86.2822C48.8984 86.2822 50.791 84.8628 51.1895 82.6714V82.6548H49.6787L49.6621 82.6714C49.2886 84.0493 48.0186 84.9043 46.3501 84.9043C44.0425 84.9043 42.5981 83.02 42.5981 80.0234V80.0068C42.5981 77.0103 44.0425 75.1177 46.3418 75.1177C47.9937 75.1177 49.272 76.0889 49.6704 77.6245L49.6787 77.6411H51.1812L51.1895 77.6245C50.8325 75.3252 48.8652 73.7397 46.3418 73.7397C43.0879 73.7397 41.0625 76.147 41.0625 80.0068V80.0234C41.0625 83.875 43.0962 86.2822 46.3501 86.2822ZM56.7829 86.1577C59.3313 86.1577 60.9084 84.3979 60.9084 81.5342V81.5176C60.9084 78.6455 59.3313 76.894 56.7829 76.894C54.2346 76.894 52.6574 78.6455 52.6574 81.5176V81.5342C52.6574 84.3979 54.2346 86.1577 56.7829 86.1577ZM56.7829 84.8794C55.0896 84.8794 54.135 83.6426 54.135 81.5342V81.5176C54.135 79.4009 55.0896 78.1724 56.7829 78.1724C58.4763 78.1724 59.4309 79.4009 59.4309 81.5176V81.5342C59.4309 83.6426 58.4763 84.8794 56.7829 84.8794ZM62.7416 86H64.186V80.4551C64.186 79.1934 65.0741 78.1724 66.2445 78.1724C67.3735 78.1724 68.1039 78.8613 68.1039 79.9238V86H69.5483V80.2476C69.5483 79.1104 70.37 78.1724 71.6152 78.1724C72.8769 78.1724 73.4828 78.8281 73.4828 80.1479V86H74.9272V79.8159C74.9272 77.9399 73.9062 76.894 72.08 76.894C70.8432 76.894 69.8222 77.5166 69.3407 78.4629H69.2079C68.7929 77.5332 67.9462 76.894 66.7343 76.894C65.5639 76.894 64.7172 77.4502 64.3188 78.4131H64.186V77.0518H62.7416V86ZM77.1256 88.9883H78.5699V84.5889H78.7028C79.1925 85.5435 80.2633 86.1577 81.4918 86.1577C83.7662 86.1577 85.2438 84.3398 85.2438 81.5342V81.5176C85.2438 78.7285 83.7579 76.894 81.4918 76.894C80.2467 76.894 79.2506 77.4834 78.7028 78.4795H78.5699V77.0518H77.1256V88.9883ZM81.1598 84.8794C79.5328 84.8794 78.5367 83.6011 78.5367 81.5342V81.5176C78.5367 79.4507 79.5328 78.1724 81.1598 78.1724C82.795 78.1724 83.7662 79.4341 83.7662 81.5176V81.5342C83.7662 83.6177 82.795 84.8794 81.1598 84.8794ZM89.5506 86.1577C90.7542 86.1577 91.6922 85.6348 92.2567 84.6802H92.3895V86H93.8338V79.874C93.8338 78.0146 92.6136 76.894 90.4305 76.894C88.5213 76.894 87.16 77.8403 86.9276 79.2432L86.9193 79.293H88.3636L88.3719 79.2681C88.6043 78.5708 89.3099 78.1724 90.3807 78.1724C91.7171 78.1724 92.3895 78.77 92.3895 79.874V80.6875L89.8245 80.8452C87.741 80.9697 86.5623 81.8911 86.5623 83.4849V83.5015C86.5623 85.1284 87.849 86.1577 89.5506 86.1577ZM88.0399 83.4683V83.4517C88.0399 82.5635 88.6375 82.082 89.9989 81.999L92.3895 81.8496V82.6631C92.3895 83.9414 91.3187 84.9043 89.8494 84.9043C88.8118 84.9043 88.0399 84.373 88.0399 83.4683ZM96.0655 86H97.5098V80.4551C97.5098 79.1436 98.4893 78.272 99.8672 78.272C100.183 78.272 100.457 78.3052 100.755 78.355V76.9521C100.614 76.9272 100.307 76.894 100.033 76.894C98.8213 76.894 97.9829 77.4419 97.6426 78.3799H97.5098V77.0518H96.0655V86ZM105.477 86.0664C105.76 86.0664 106.033 86.0332 106.316 85.9834V84.7549C106.05 84.7798 105.909 84.7881 105.652 84.7881C104.722 84.7881 104.357 84.3647 104.357 83.3105V78.2471H106.316V77.0518H104.357V74.7358H102.863V77.0518H101.451V78.2471H102.863V83.6758C102.863 85.3857 103.635 86.0664 105.477 86.0664ZM108.83 75.3252C109.377 75.3252 109.826 74.877 109.826 74.3291C109.826 73.7812 109.377 73.333 108.83 73.333C108.282 73.333 107.833 73.7812 107.833 74.3291C107.833 74.877 108.282 75.3252 108.83 75.3252ZM108.099 86H109.543V77.0518H108.099V86ZM111.941 86H113.385V73.499H111.941V86ZM115.833 86H117.277V80.7041C117.277 79.1353 118.182 78.1724 119.61 78.1724C121.037 78.1724 121.702 78.9443 121.702 80.5547V86H123.146V80.2061C123.146 78.0811 122.025 76.894 120.016 76.894C118.697 76.894 117.858 77.4502 117.41 78.3965H117.277V73.499H115.833V86ZM127.81 86.1577C129.013 86.1577 129.951 85.6348 130.516 84.6802H130.649V86H132.093V79.874C132.093 78.0146 130.873 76.894 128.69 76.894C126.78 76.894 125.419 77.8403 125.187 79.2432L125.178 79.293H126.623L126.631 79.2681C126.863 78.5708 127.569 78.1724 128.64 78.1724C129.976 78.1724 130.649 78.77 130.649 79.874V80.6875L128.084 80.8452C126 80.9697 124.821 81.8911 124.821 83.4849V83.5015C124.821 85.1284 126.108 86.1577 127.81 86.1577ZM126.299 83.4683V83.4517C126.299 82.5635 126.897 82.082 128.258 81.999L130.649 81.8496V82.6631C130.649 83.9414 129.578 84.9043 128.108 84.9043C127.071 84.9043 126.299 84.373 126.299 83.4683ZM134.325 86H135.769V80.4551C135.769 79.1436 136.748 78.272 138.126 78.272C138.442 78.272 138.716 78.3052 139.014 78.355V76.9521C138.873 76.9272 138.566 76.894 138.292 76.894C137.08 76.894 136.242 77.4419 135.902 78.3799H135.769V77.0518H134.325V86Z" fill="white"/>
<path d="M40.5728 132H42.1416L43.3452 128.572H48.1099L49.3135 132H50.8823L46.4663 120.022H44.9888L40.5728 132ZM45.6611 121.956H45.7939L47.6699 127.302H43.7852L45.6611 121.956ZM52.3918 134.988H53.8361V130.589H53.969C54.4587 131.543 55.5295 132.158 56.758 132.158C59.0324 132.158 60.51 130.34 60.51 127.534V127.518C60.51 124.729 59.0241 122.894 56.758 122.894C55.5129 122.894 54.5168 123.483 53.969 124.479H53.8361V123.052H52.3918V134.988ZM56.426 130.879C54.799 130.879 53.8029 129.601 53.8029 127.534V127.518C53.8029 125.451 54.799 124.172 56.426 124.172C58.0612 124.172 59.0324 125.434 59.0324 127.518V127.534C59.0324 129.618 58.0612 130.879 56.426 130.879ZM64.8168 132.158C66.0204 132.158 66.9584 131.635 67.5229 130.68H67.6557V132H69.1V125.874C69.1 124.015 67.8798 122.894 65.6967 122.894C63.7875 122.894 62.4262 123.84 62.1938 125.243L62.1855 125.293H63.6298L63.6381 125.268C63.8705 124.571 64.5761 124.172 65.6469 124.172C66.9833 124.172 67.6557 124.77 67.6557 125.874V126.688L65.0907 126.845C63.0072 126.97 61.8285 127.891 61.8285 129.485V129.501C61.8285 131.128 63.1152 132.158 64.8168 132.158ZM63.3061 129.468V129.452C63.3061 128.563 63.9037 128.082 65.2651 127.999L67.6557 127.85V128.663C67.6557 129.941 66.5849 130.904 65.1156 130.904C64.078 130.904 63.3061 130.373 63.3061 129.468ZM75.0172 135.154C77.4576 135.154 79.0016 133.876 79.0016 131.875V123.052H77.5573V124.529H77.4576C76.9098 123.517 75.9303 122.894 74.6686 122.894C72.3278 122.894 70.8834 124.712 70.8834 127.219V127.235C70.8834 129.742 72.3195 131.535 74.6354 131.535C75.8639 131.535 76.8766 130.979 77.441 129.991H77.5739V131.801C77.5739 133.121 76.6193 133.876 75.0172 133.876C73.7306 133.876 72.9337 133.395 72.776 132.714L72.7677 132.706H71.2736L71.257 132.714C71.4811 134.183 72.859 135.154 75.0172 135.154ZM74.9508 130.257C73.2906 130.257 72.361 129.012 72.361 127.235V127.219C72.361 125.442 73.2906 124.172 74.9508 124.172C76.6027 124.172 77.6071 125.442 77.6071 127.219V127.235C77.6071 129.012 76.611 130.257 74.9508 130.257ZM83.7401 132.158C84.9437 132.158 85.8817 131.635 86.4461 130.68H86.5789V132H88.0233V125.874C88.0233 124.015 86.8031 122.894 84.62 122.894C82.7108 122.894 81.3494 123.84 81.117 125.243L81.1087 125.293H82.5531L82.5614 125.268C82.7938 124.571 83.4993 124.172 84.5701 124.172C85.9066 124.172 86.5789 124.77 86.5789 125.874V126.688L84.014 126.845C81.9305 126.97 80.7518 127.891 80.7518 129.485V129.501C80.7518 131.128 82.0384 132.158 83.7401 132.158ZM82.2293 129.468V129.452C82.2293 128.563 82.827 128.082 84.1883 127.999L86.5789 127.85V128.663C86.5789 129.941 85.5081 130.904 84.0389 130.904C83.0013 130.904 82.2293 130.373 82.2293 129.468ZM90.2549 132H91.6993V126.455C91.6993 125.144 92.6787 124.272 94.0567 124.272C94.3721 124.272 94.646 124.305 94.9449 124.355V122.952C94.8037 122.927 94.4966 122.894 94.2227 122.894C93.0108 122.894 92.1724 123.442 91.8321 124.38H91.6993V123.052H90.2549V132Z" fill="#FF453A"/>
<path d="M210.947 42.0662L210.947 42.0662L210.941 42.0617C210.868 42.008 210.834 41.9512 210.82 41.8684C210.803 41.7684 210.812 41.6019 210.903 41.3446L210.904 41.3418L212.692 36.1788L212.816 35.8214L212.506 35.6051L207.937 32.4176L207.937 32.4176L207.935 32.4158C207.702 32.2557 207.585 32.1233 207.534 32.0285C207.494 31.9536 207.491 31.9 207.515 31.8309L207.516 31.828C207.546 31.7413 207.651 31.5688 208.235 31.5761L208.238 31.5762L213.842 31.6094L214.207 31.6115L214.32 31.2653L216.022 26.0799C216.022 26.0795 216.022 26.0791 216.022 26.0786C216.111 25.8126 216.207 25.6649 216.285 25.588C216.351 25.5242 216.412 25.5 216.497 25.5C216.59 25.5 216.653 25.5261 216.718 25.5892C216.797 25.6656 216.892 25.8126 216.981 26.0787C216.981 26.0791 216.981 26.0795 216.981 26.0799L218.683 31.2653L218.797 31.6115L219.161 31.6094L224.765 31.5762L224.768 31.5761C225.346 31.5688 225.455 31.7377 225.486 31.8252C225.509 31.8979 225.505 31.9553 225.465 32.0304C225.414 32.125 225.3 32.2568 225.069 32.4158L225.066 32.4176L220.498 35.6051L220.187 35.8214L220.311 36.1788L222.099 41.3419L222.1 41.3446C222.191 41.6019 222.201 41.7684 222.184 41.8684C222.17 41.9512 222.135 42.008 222.062 42.0617L222.061 42.0628C221.996 42.1109 221.935 42.1271 221.84 42.1116C221.725 42.0926 221.555 42.0227 221.321 41.8575C221.32 41.8572 221.32 41.857 221.32 41.8568L216.787 38.6293L216.497 38.4226L216.207 38.6296L211.684 41.8568C211.683 41.8571 211.683 41.8574 211.682 41.8577C211.449 42.0219 211.277 42.0923 211.16 42.1115C211.063 42.1275 211.005 42.1096 210.947 42.0662Z" stroke="white"/>
<path d="M212.503 134.515H220.115C221.302 134.515 222.099 133.743 222.157 132.556L222.73 120.487H223.726C224.066 120.487 224.34 120.196 224.34 119.856C224.34 119.516 224.066 119.233 223.726 119.233H219.933V117.963C219.933 116.76 219.152 116.029 217.874 116.029H214.72C213.441 116.029 212.661 116.76 212.661 117.963V119.233H208.893C208.561 119.233 208.27 119.516 208.27 119.856C208.27 120.205 208.561 120.487 208.893 120.487H209.889L210.461 132.564C210.52 133.751 211.3 134.515 212.503 134.515ZM213.981 118.046C213.981 117.573 214.313 117.266 214.811 117.266H217.783C218.281 117.266 218.613 117.573 218.613 118.046V119.233H213.981V118.046ZM212.62 133.262C212.146 133.262 211.79 132.905 211.765 132.415L211.184 120.487H221.394L220.846 132.415C220.829 132.913 220.472 133.262 219.982 133.262H212.62ZM213.848 131.842C214.164 131.842 214.371 131.643 214.363 131.353L214.105 122.471C214.097 122.18 213.89 121.989 213.591 121.989C213.275 121.989 213.068 122.188 213.076 122.479L213.325 131.353C213.333 131.651 213.541 131.842 213.848 131.842ZM216.305 131.842C216.621 131.842 216.845 131.643 216.845 131.353V122.479C216.845 122.188 216.621 121.989 216.305 121.989C215.99 121.989 215.774 122.188 215.774 122.479V131.353C215.774 131.643 215.99 131.842 216.305 131.842ZM218.771 131.842C219.069 131.842 219.277 131.651 219.285 131.353L219.534 122.479C219.542 122.188 219.335 121.989 219.02 121.989C218.721 121.989 218.513 122.18 218.505 122.479L218.256 131.353C218.248 131.643 218.455 131.842 218.771 131.842Z" fill="#FF453A"/>
<path d="M216.479 81.2646C216.836 81.2646 217.144 80.9658 217.144 80.6172V72.0923L217.094 70.8472L217.65 71.4365L218.912 72.7812C219.028 72.9141 219.194 72.9805 219.36 72.9805C219.7 72.9805 219.966 72.7314 219.966 72.3911C219.966 72.2168 219.891 72.084 219.767 71.9595L216.961 69.2534C216.795 69.0874 216.654 69.0293 216.479 69.0293C216.313 69.0293 216.172 69.0874 215.998 69.2534L213.192 71.9595C213.068 72.084 213.001 72.2168 213.001 72.3911C213.001 72.7314 213.25 72.9805 213.599 72.9805C213.757 72.9805 213.939 72.9141 214.056 72.7812L215.309 71.4365L215.874 70.8472L215.824 72.0923V80.6172C215.824 80.9658 216.123 81.2646 216.479 81.2646ZM211.723 87.7642H221.244C222.979 87.7642 223.851 86.9009 223.851 85.1909V76.9067C223.851 75.1968 222.979 74.3335 221.244 74.3335H218.928V75.6699H221.219C222.041 75.6699 222.514 76.1182 222.514 76.9814V85.1162C222.514 85.9795 222.041 86.4277 221.219 86.4277H211.74C210.91 86.4277 210.453 85.9795 210.453 85.1162V76.9814C210.453 76.1182 210.91 75.6699 211.74 75.6699H214.039V74.3335H211.723C209.988 74.3335 209.117 75.1968 209.117 76.9067V85.1909C209.117 86.9009 209.988 87.7642 211.723 87.7642Z" fill="white"/>
</svg>
