<svg width="285" height="112" viewBox="0 0 285 112" fill="none" xmlns="http://www.w3.org/2000/svg">
<path d="M0 10C0 4.47715 4.47715 0 10 0H275C280.523 0 285 4.47715 285 10V102C285 107.523 280.523 112 275 112H10C4.47715 112 0 107.523 0 102V10Z" fill="#FAF9FF"/>
<rect x="130" y="83" width="26" height="6" rx="3" fill="#180B5A"/>
<rect x="200" y="83" width="26" height="6" rx="3" fill="#180B5A"/>
<circle cx="72.5" cy="50.5" r="27.5" fill="#614CCB"/>
<path d="M72.0049 50.4136L81.2903 45.0046C81.1424 44.8529 80.965 44.7316 80.7482 44.6103L73.7891 40.546C73.1878 40.1921 72.5865 40 72.0049 40C71.4135 40 70.8122 40.1921 70.2109 40.546L63.2617 44.6103C63.0448 44.7316 62.8674 44.8529 62.7097 45.0046L72.0049 50.4136ZM71.3248 62V51.6268L62.0789 46.2077C62.0197 46.4301 62 46.6728 62 46.9761V54.852C62 56.318 62.5027 56.864 63.4096 57.3998L71.1375 61.909C71.1966 61.9494 71.2558 61.9798 71.3248 62ZM72.6752 62C72.7442 61.9798 72.8034 61.9494 72.8724 61.909L80.5904 57.3998C81.5071 56.864 82 56.318 82 54.852V46.9761C82 46.6728 81.9803 46.4301 81.9211 46.2077L72.6752 51.6268V62Z" fill="#EBEBFF"/>
<circle cx="142.5" cy="50.5" r="27.5" fill="#A092E7"/>
<circle cx="212.5" cy="50.5" r="27.5" fill="#CEC7ED"/>
<rect x="60" y="83" width="26" height="6" rx="3" fill="#180B5A"/>
<rect x="60" y="83" width="23" height="6" rx="3" fill="#C7BCFF"/>
<rect x="130" y="83" width="16" height="6" rx="3" fill="#C7BCFF"/>
<rect x="200" y="83" width="6" height="6" rx="3" fill="#C7BCFF"/>
<path d="M149.292 58.2092C151.935 58.2092 154 56.2753 154 53.8687C154 52.031 152.941 50.4383 151.235 49.7208C151.252 45.8178 148.443 43 144.864 43C142.492 43 140.804 44.2689 139.753 45.8003C137.601 45.1702 135.255 46.8067 135.212 49.257C133.234 49.572 132 51.3397 132 53.4749C132 56.0477 134.249 58.2092 137.242 58.2092H149.292Z" fill="#EBEBFF"/>
<path d="M212.436 63.9664C218.774 63.9664 223 59.6807 223 53.2221C223 42.4778 213.852 38 207.502 38C206.373 38 205.653 38.3962 205.653 39.1645C205.653 39.4646 205.785 39.7767 206.037 40.0648C207.466 41.7695 208.894 43.7983 208.918 46.1633C208.918 46.4634 208.894 46.7515 208.81 47.0636C208.15 45.6591 206.914 44.7227 205.809 44.7227C205.317 44.7227 204.981 45.0828 204.981 45.623C204.981 45.9352 205.065 46.6675 205.065 47.1957C205.065 49.8848 203 51.4574 203 55.7911C203 60.7011 206.758 63.9664 212.436 63.9664ZM212.712 60.593C210.467 60.593 208.978 59.2365 208.978 57.2197C208.978 55.1068 210.479 54.3505 210.671 52.994C210.695 52.886 210.767 52.8499 210.851 52.922C211.403 53.4142 211.764 54.0144 212.064 54.7107C212.7 53.8463 213 52.0216 212.796 50.0528C212.784 49.9448 212.856 49.8848 212.964 49.9208C215.593 51.1573 216.962 53.7743 216.962 56.1152C216.962 58.4922 215.569 60.593 212.712 60.593Z" fill="#EBEBFF"/>
</svg>
