<svg width="215" height="94" viewBox="0 0 215 94" fill="none" xmlns="http://www.w3.org/2000/svg">
<path d="M0 10C0 4.47715 4.47715 0 10 0H205C210.523 0 215 4.47715 215 10V84C215 89.5228 210.523 94 205 94H10C4.47716 94 0 89.5228 0 84V10Z" fill="#FAF9FF"/>
<rect x="95" y="74" width="26" height="6" rx="3" fill="#180B5A"/>
<rect x="165" y="74" width="26" height="6" rx="3" fill="#180B5A"/>
<circle cx="37.5" cy="41.5" r="27.5" fill="#614CCB"/>
<path d="M37.0049 41.4136L46.2903 36.0046C46.1424 35.8529 45.965 35.7316 45.7482 35.6103L38.7891 31.546C38.1878 31.1921 37.5865 31 37.0049 31C36.4135 31 35.8122 31.1921 35.2109 31.546L28.2617 35.6103C28.0448 35.7316 27.8674 35.8529 27.7097 36.0046L37.0049 41.4136ZM36.3248 53V42.6268L27.0789 37.2077C27.0197 37.4301 27 37.6728 27 37.9761V45.852C27 47.318 27.5027 47.864 28.4096 48.3998L36.1375 52.909C36.1966 52.9494 36.2558 52.9798 36.3248 53ZM37.6752 53C37.7442 52.9798 37.8034 52.9494 37.8724 52.909L45.5904 48.3998C46.5071 47.864 47 47.318 47 45.852V37.9761C47 37.6728 46.9803 37.4301 46.9211 37.2077L37.6752 42.6268V53Z" fill="#EBEBFF"/>
<circle cx="107.5" cy="41.5" r="27.5" fill="#A092E7"/>
<circle cx="177.5" cy="41.5" r="27.5" fill="#CEC7ED"/>
<rect x="25" y="74" width="26" height="6" rx="3" fill="#180B5A"/>
<rect x="25" y="74" width="23" height="6" rx="3" fill="#C7BCFF"/>
<rect x="95" y="74" width="16" height="6" rx="3" fill="#C7BCFF"/>
<rect x="165" y="74" width="6" height="6" rx="3" fill="#C7BCFF"/>
<path d="M114.292 49.2092C116.935 49.2092 119 47.2753 119 44.8687C119 43.031 117.941 41.4383 116.235 40.7208C116.252 36.8178 113.443 34 109.864 34C107.492 34 105.804 35.2689 104.753 36.8003C102.601 36.1702 100.255 37.8067 100.212 40.257C98.2339 40.572 97 42.3397 97 44.4749C97 47.0477 99.249 49.2092 102.242 49.2092H114.292Z" fill="#EBEBFF"/>
<path d="M177.436 54.9664C183.774 54.9664 188 50.6807 188 44.2221C188 33.4778 178.852 29 172.502 29C171.373 29 170.653 29.3962 170.653 30.1645C170.653 30.4646 170.785 30.7767 171.037 31.0648C172.466 32.7695 173.894 34.7983 173.918 37.1633C173.918 37.4634 173.894 37.7515 173.81 38.0636C173.15 36.6591 171.914 35.7227 170.809 35.7227C170.317 35.7227 169.981 36.0828 169.981 36.623C169.981 36.9352 170.065 37.6675 170.065 38.1957C170.065 40.8848 168 42.4574 168 46.7911C168 51.7011 171.758 54.9664 177.436 54.9664ZM177.712 51.593C175.467 51.593 173.978 50.2365 173.978 48.2197C173.978 46.1068 175.479 45.3505 175.671 43.994C175.695 43.886 175.767 43.8499 175.851 43.922C176.403 44.4142 176.764 45.0144 177.064 45.7107C177.7 44.8463 178 43.0216 177.796 41.0528C177.784 40.9448 177.856 40.8848 177.964 40.9208C180.593 42.1573 181.962 44.7743 181.962 47.1152C181.962 49.4922 180.569 51.593 177.712 51.593Z" fill="#EBEBFF"/>
</svg>
