<svg width="242" height="273" viewBox="0 0 242 273" fill="none" xmlns="http://www.w3.org/2000/svg">
<rect width="242" height="73" rx="10" fill="#EBEBFF"/>
<rect y="80" width="242" height="73" rx="10" fill="#EBEBFF"/>
<path d="M77.3257 32H81.1416C84.291 32 86.1147 30.0518 86.1147 26.6973V26.6826C86.1147 23.3647 84.2764 21.4312 81.1416 21.4312H77.3257V32ZM78.9663 30.5864V22.8447H80.9585C83.1484 22.8447 84.4448 24.2729 84.4448 26.7046V26.7192C84.4448 29.1729 83.1704 30.5864 80.9585 30.5864H78.9663ZM91.1193 32.1538C93.4484 32.1538 94.8767 30.5938 94.8767 28.0303V28.0156C94.8767 25.4521 93.4411 23.8921 91.1193 23.8921C88.7902 23.8921 87.3547 25.4595 87.3547 28.0156V28.0303C87.3547 30.5938 88.7829 32.1538 91.1193 32.1538ZM91.1193 30.8281C89.7497 30.8281 88.9807 29.7954 88.9807 28.0303V28.0156C88.9807 26.2505 89.7497 25.2178 91.1193 25.2178C92.4816 25.2178 93.258 26.2505 93.258 28.0156V28.0303C93.258 29.7881 92.4816 30.8281 91.1193 30.8281ZM96.3656 32H97.955V27.2466C97.955 26.0967 98.7826 25.3496 99.9985 25.3496C100.299 25.3496 100.57 25.3862 100.855 25.4448V23.98C100.694 23.9434 100.416 23.9067 100.16 23.9067C99.0976 23.9067 98.3578 24.4048 98.0722 25.2471H97.955V24.0459H96.3656V32ZM104.088 32.1318C105.142 32.1318 105.977 31.6777 106.446 30.8721H106.57V32H108.145V26.5581C108.145 24.8882 107.017 23.8921 105.018 23.8921C103.209 23.8921 101.956 24.7637 101.766 26.0674L101.758 26.1187H103.289L103.297 26.0894C103.487 25.5254 104.066 25.2031 104.944 25.2031C106.021 25.2031 106.57 25.6865 106.57 26.5581V27.2612L104.417 27.3857C102.52 27.5029 101.451 28.3306 101.451 29.7515V29.7661C101.451 31.209 102.571 32.1318 104.088 32.1318ZM103.033 29.7002V29.6855C103.033 28.9678 103.531 28.5723 104.63 28.5063L106.57 28.3818V29.063C106.57 30.0884 105.699 30.8647 104.512 30.8647C103.655 30.8647 103.033 30.4326 103.033 29.7002ZM110.052 32H111.641V20.9258H110.052V32ZM114.426 22.625C114.968 22.625 115.422 22.1782 115.422 21.6362C115.422 21.0869 114.968 20.6401 114.426 20.6401C113.877 20.6401 113.43 21.0869 113.43 21.6362C113.43 22.1782 113.877 22.625 114.426 22.625ZM113.628 32H115.21V24.0459H113.628V32ZM120.464 32.1538C122.434 32.1538 123.569 31.0918 123.855 29.5464L123.869 29.4805H122.346L122.331 29.5171C122.075 30.374 121.46 30.8281 120.464 30.8281C119.153 30.8281 118.34 29.7588 118.34 28.001V27.9863C118.34 26.2725 119.138 25.2178 120.464 25.2178C121.518 25.2178 122.163 25.8037 122.339 26.5874L122.346 26.6094L123.869 26.6021V26.5654C123.65 25.02 122.456 23.8921 120.456 23.8921C118.135 23.8921 116.721 25.4668 116.721 27.9863V28.001C116.721 30.5718 118.142 32.1538 120.464 32.1538ZM128.603 32.1538C130.639 32.1538 131.738 30.9819 132.001 29.9346L132.016 29.8687L130.485 29.876L130.456 29.9346C130.266 30.3447 129.658 30.8501 128.64 30.8501C127.329 30.8501 126.494 29.9639 126.464 28.4404H132.104V27.8838C132.104 25.4961 130.742 23.8921 128.522 23.8921C126.303 23.8921 124.868 25.5547 124.868 28.0376V28.0449C124.868 30.5645 126.274 32.1538 128.603 32.1538ZM128.53 25.1958C129.606 25.1958 130.405 25.8843 130.529 27.3052H126.486C126.625 25.9355 127.446 25.1958 128.53 25.1958ZM137.462 32H139.103V28.3892H141.578C143.651 28.3892 145.087 26.9756 145.087 24.9102V24.8955C145.087 22.8228 143.651 21.4312 141.578 21.4312H137.462V32ZM141.168 22.8154C142.589 22.8154 143.417 23.5845 143.417 24.9028V24.9175C143.417 26.2432 142.589 27.0122 141.168 27.0122H139.103V22.8154H141.168ZM147.44 22.625C147.982 22.625 148.436 22.1782 148.436 21.6362C148.436 21.0869 147.982 20.6401 147.44 20.6401C146.891 20.6401 146.444 21.0869 146.444 21.6362C146.444 22.1782 146.891 22.625 147.44 22.625ZM146.642 32H148.224V24.0459H146.642V32ZM150.203 32H151.793V20.9258H150.203V32ZM157.112 34.8052C159.368 34.8052 160.796 33.6479 160.796 31.8389V24.0459H159.214V25.3496H159.119C158.658 24.4561 157.793 23.9067 156.68 23.9067C154.615 23.9067 153.348 25.5107 153.348 27.7812V27.7959C153.348 30.0371 154.607 31.6118 156.651 31.6118C157.742 31.6118 158.621 31.1284 159.104 30.2642H159.222V31.8315C159.222 32.9155 158.445 33.5308 157.134 33.5308C156.058 33.5308 155.413 33.1426 155.281 32.5933L155.274 32.5786H153.67L153.655 32.5933C153.846 33.9189 155.091 34.8052 157.112 34.8052ZM157.09 30.3008C155.735 30.3008 154.974 29.2681 154.974 27.7886V27.7739C154.974 26.2944 155.735 25.2544 157.09 25.2544C158.431 25.2544 159.251 26.2944 159.251 27.7739V27.7886C159.251 29.2754 158.438 30.3008 157.09 30.3008ZM162.674 32H164.263V27.2466C164.263 26.0967 165.091 25.3496 166.306 25.3496C166.607 25.3496 166.878 25.3862 167.163 25.4448V23.98C167.002 23.9434 166.724 23.9067 166.467 23.9067C165.405 23.9067 164.666 24.4048 164.38 25.2471H164.263V24.0459H162.674V32ZM169.099 22.625C169.641 22.625 170.095 22.1782 170.095 21.6362C170.095 21.0869 169.641 20.6401 169.099 20.6401C168.55 20.6401 168.103 21.0869 168.103 21.6362C168.103 22.1782 168.55 22.625 169.099 22.625ZM168.301 32H169.883V24.0459H168.301V32ZM171.789 32H173.379V27.1147C173.379 26.0747 174.089 25.2544 175.048 25.2544C175.986 25.2544 176.579 25.8257 176.579 26.7339V32H178.161V26.9683C178.161 26.0088 178.828 25.2544 179.838 25.2544C180.879 25.2544 181.377 25.7964 181.377 26.895V32H182.959V26.5142C182.959 24.8589 182.021 23.8921 180.417 23.8921C179.311 23.8921 178.396 24.4561 177.993 25.313H177.868C177.517 24.4561 176.748 23.8921 175.664 23.8921C174.624 23.8921 173.847 24.3975 173.496 25.269H173.379V24.0459H171.789V32Z" fill="#180B5A"/>
<path d="M77.3257 112H81.1416C84.291 112 86.1147 110.052 86.1147 106.697V106.683C86.1147 103.365 84.2764 101.431 81.1416 101.431H77.3257V112ZM78.9663 110.586V102.845H80.9585C83.1484 102.845 84.4448 104.273 84.4448 106.705V106.719C84.4448 109.173 83.1704 110.586 80.9585 110.586H78.9663ZM91.1193 112.154C93.4484 112.154 94.8767 110.594 94.8767 108.03V108.016C94.8767 105.452 93.4411 103.892 91.1193 103.892C88.7902 103.892 87.3547 105.459 87.3547 108.016V108.03C87.3547 110.594 88.7829 112.154 91.1193 112.154ZM91.1193 110.828C89.7497 110.828 88.9807 109.795 88.9807 108.03V108.016C88.9807 106.25 89.7497 105.218 91.1193 105.218C92.4816 105.218 93.258 106.25 93.258 108.016V108.03C93.258 109.788 92.4816 110.828 91.1193 110.828ZM96.3656 112H97.955V107.247C97.955 106.097 98.7826 105.35 99.9985 105.35C100.299 105.35 100.57 105.386 100.855 105.445V103.98C100.694 103.943 100.416 103.907 100.16 103.907C99.0976 103.907 98.3578 104.405 98.0722 105.247H97.955V104.046H96.3656V112ZM104.088 112.132C105.142 112.132 105.977 111.678 106.446 110.872H106.57V112H108.145V106.558C108.145 104.888 107.017 103.892 105.018 103.892C103.209 103.892 101.956 104.764 101.766 106.067L101.758 106.119H103.289L103.297 106.089C103.487 105.525 104.066 105.203 104.944 105.203C106.021 105.203 106.57 105.687 106.57 106.558V107.261L104.417 107.386C102.52 107.503 101.451 108.331 101.451 109.751V109.766C101.451 111.209 102.571 112.132 104.088 112.132ZM103.033 109.7V109.686C103.033 108.968 103.531 108.572 104.63 108.506L106.57 108.382V109.063C106.57 110.088 105.699 110.865 104.512 110.865C103.655 110.865 103.033 110.433 103.033 109.7ZM110.052 112H111.641V100.926H110.052V112ZM114.426 102.625C114.968 102.625 115.422 102.178 115.422 101.636C115.422 101.087 114.968 100.64 114.426 100.64C113.877 100.64 113.43 101.087 113.43 101.636C113.43 102.178 113.877 102.625 114.426 102.625ZM113.628 112H115.21V104.046H113.628V112ZM120.464 112.154C122.434 112.154 123.569 111.092 123.855 109.546L123.869 109.48H122.346L122.331 109.517C122.075 110.374 121.46 110.828 120.464 110.828C119.153 110.828 118.34 109.759 118.34 108.001V107.986C118.34 106.272 119.138 105.218 120.464 105.218C121.518 105.218 122.163 105.804 122.339 106.587L122.346 106.609L123.869 106.602V106.565C123.65 105.02 122.456 103.892 120.456 103.892C118.135 103.892 116.721 105.467 116.721 107.986V108.001C116.721 110.572 118.142 112.154 120.464 112.154ZM128.603 112.154C130.639 112.154 131.738 110.982 132.001 109.935L132.016 109.869L130.485 109.876L130.456 109.935C130.266 110.345 129.658 110.85 128.64 110.85C127.329 110.85 126.494 109.964 126.464 108.44H132.104V107.884C132.104 105.496 130.742 103.892 128.522 103.892C126.303 103.892 124.868 105.555 124.868 108.038V108.045C124.868 110.564 126.274 112.154 128.603 112.154ZM128.53 105.196C129.606 105.196 130.405 105.884 130.529 107.305H126.486C126.625 105.936 127.446 105.196 128.53 105.196ZM137.462 112H139.103V108.389H141.578C143.651 108.389 145.087 106.976 145.087 104.91V104.896C145.087 102.823 143.651 101.431 141.578 101.431H137.462V112ZM141.168 102.815C142.589 102.815 143.417 103.584 143.417 104.903V104.917C143.417 106.243 142.589 107.012 141.168 107.012H139.103V102.815H141.168ZM147.44 102.625C147.982 102.625 148.436 102.178 148.436 101.636C148.436 101.087 147.982 100.64 147.44 100.64C146.891 100.64 146.444 101.087 146.444 101.636C146.444 102.178 146.891 102.625 147.44 102.625ZM146.642 112H148.224V104.046H146.642V112ZM150.203 112H151.793V100.926H150.203V112ZM157.112 114.805C159.368 114.805 160.796 113.648 160.796 111.839V104.046H159.214V105.35H159.119C158.658 104.456 157.793 103.907 156.68 103.907C154.615 103.907 153.348 105.511 153.348 107.781V107.796C153.348 110.037 154.607 111.612 156.651 111.612C157.742 111.612 158.621 111.128 159.104 110.264H159.222V111.832C159.222 112.916 158.445 113.531 157.134 113.531C156.058 113.531 155.413 113.143 155.281 112.593L155.274 112.579H153.67L153.655 112.593C153.846 113.919 155.091 114.805 157.112 114.805ZM157.09 110.301C155.735 110.301 154.974 109.268 154.974 107.789V107.774C154.974 106.294 155.735 105.254 157.09 105.254C158.431 105.254 159.251 106.294 159.251 107.774V107.789C159.251 109.275 158.438 110.301 157.09 110.301ZM162.674 112H164.263V107.247C164.263 106.097 165.091 105.35 166.306 105.35C166.607 105.35 166.878 105.386 167.163 105.445V103.98C167.002 103.943 166.724 103.907 166.467 103.907C165.405 103.907 164.666 104.405 164.38 105.247H164.263V104.046H162.674V112ZM169.099 102.625C169.641 102.625 170.095 102.178 170.095 101.636C170.095 101.087 169.641 100.64 169.099 100.64C168.55 100.64 168.103 101.087 168.103 101.636C168.103 102.178 168.55 102.625 169.099 102.625ZM168.301 112H169.883V104.046H168.301V112ZM171.789 112H173.379V107.115C173.379 106.075 174.089 105.254 175.048 105.254C175.986 105.254 176.579 105.826 176.579 106.734V112H178.161V106.968C178.161 106.009 178.828 105.254 179.838 105.254C180.879 105.254 181.377 105.796 181.377 106.895V112H182.959V106.514C182.959 104.859 182.021 103.892 180.417 103.892C179.311 103.892 178.396 104.456 177.993 105.313H177.868C177.517 104.456 176.748 103.892 175.664 103.892C174.624 103.892 173.847 104.397 173.496 105.269H173.379V104.046H171.789V112Z" fill="#180B5A"/>
<path d="M77.0781 51H79.9785C82.4922 51 83.9688 49.4355 83.9688 46.7754V46.7637C83.9688 44.1094 82.4863 42.5449 79.9785 42.5449H77.0781V51ZM78.1328 50.0508V43.4941H79.9082C81.7832 43.4941 82.8906 44.7129 82.8906 46.7754V46.7871C82.8906 48.8438 81.7949 50.0508 79.9082 50.0508H78.1328ZM87.8381 51.1113C89.3264 51.1113 90.2287 50.2676 90.4455 49.4121L90.4572 49.3652H89.4377L89.4143 49.418C89.2443 49.7988 88.717 50.2031 87.8615 50.2031C86.7365 50.2031 86.0158 49.4414 85.9865 48.1348H90.5334V47.7363C90.5334 45.8496 89.4904 44.5723 87.7736 44.5723C86.0568 44.5723 84.9436 45.9082 84.9436 47.8594V47.8652C84.9436 49.8457 86.0334 51.1113 87.8381 51.1113ZM87.7678 45.4805C88.6994 45.4805 89.3908 46.0723 89.4963 47.3203H86.0041C86.1154 46.1191 86.8303 45.4805 87.7678 45.4805ZM93.8754 51.1113C95.311 51.1113 96.4067 50.332 96.4067 49.207V49.1953C96.4067 48.293 95.8324 47.7773 94.643 47.4902L93.6703 47.2559C92.9262 47.0742 92.6098 46.8047 92.6098 46.377V46.3652C92.6098 45.8086 93.1606 45.4219 93.9106 45.4219C94.6723 45.4219 95.1645 45.7676 95.2992 46.2656H96.3012C96.1606 45.2344 95.2406 44.5723 93.9164 44.5723C92.5746 44.5723 91.5668 45.3633 91.5668 46.4121V46.418C91.5668 47.3262 92.1 47.8418 93.2836 48.123L94.2621 48.3574C95.0414 48.5449 95.3637 48.8438 95.3637 49.2715V49.2832C95.3637 49.8574 94.7602 50.2617 93.9106 50.2617C93.102 50.2617 92.5981 49.916 92.4281 49.3887H91.3852C91.5024 50.4316 92.4692 51.1113 93.8754 51.1113ZM98.1198 43.4648C98.5065 43.4648 98.8229 43.1484 98.8229 42.7617C98.8229 42.375 98.5065 42.0586 98.1198 42.0586C97.733 42.0586 97.4166 42.375 97.4166 42.7617C97.4166 43.1484 97.733 43.4648 98.1198 43.4648ZM97.6041 51H98.6237V44.6836H97.6041V51ZM102.739 53.2266C104.462 53.2266 105.552 52.3242 105.552 50.9121V44.6836H104.532V45.7266H104.462C104.075 45.0117 103.384 44.5723 102.493 44.5723C100.841 44.5723 99.8211 45.8555 99.8211 47.625V47.6367C99.8211 49.4062 100.835 50.6719 102.47 50.6719C103.337 50.6719 104.052 50.2793 104.45 49.582H104.544V50.8594C104.544 51.791 103.87 52.3242 102.739 52.3242C101.831 52.3242 101.268 51.9844 101.157 51.5039L101.151 51.498H100.097L100.085 51.5039C100.243 52.541 101.216 53.2266 102.739 53.2266ZM102.692 49.7695C101.52 49.7695 100.864 48.8906 100.864 47.6367V47.625C100.864 46.3711 101.52 45.4746 102.692 45.4746C103.858 45.4746 104.567 46.3711 104.567 47.625V47.6367C104.567 48.8906 103.864 49.7695 102.692 49.7695ZM107.042 51H108.062V47.2617C108.062 46.1543 108.7 45.4746 109.708 45.4746C110.716 45.4746 111.185 46.0195 111.185 47.1562V51H112.204V46.9102C112.204 45.4102 111.413 44.5723 109.995 44.5723C109.064 44.5723 108.472 44.9648 108.155 45.6328H108.062V44.6836H107.042V51ZM116.22 51.1113C117.708 51.1113 118.611 50.2676 118.827 49.4121L118.839 49.3652H117.82L117.796 49.418C117.626 49.7988 117.099 50.2031 116.243 50.2031C115.118 50.2031 114.398 49.4414 114.368 48.1348H118.915V47.7363C118.915 45.8496 117.872 44.5723 116.156 44.5723C114.439 44.5723 113.325 45.9082 113.325 47.8594V47.8652C113.325 49.8457 114.415 51.1113 116.22 51.1113ZM116.15 45.4805C117.081 45.4805 117.773 46.0723 117.878 47.3203H114.386C114.497 46.1191 115.212 45.4805 116.15 45.4805ZM120.089 51H121.109V47.0859C121.109 46.1602 121.8 45.5449 122.773 45.5449C122.996 45.5449 123.189 45.5684 123.4 45.6035V44.6133C123.3 44.5957 123.083 44.5723 122.89 44.5723C122.035 44.5723 121.443 44.959 121.203 45.6211H121.109V44.6836H120.089V51Z" fill="#686674"/>
<path d="M77.0781 131H79.9785C82.4922 131 83.9688 129.436 83.9688 126.775V126.764C83.9688 124.109 82.4863 122.545 79.9785 122.545H77.0781V131ZM78.1328 130.051V123.494H79.9082C81.7832 123.494 82.8906 124.713 82.8906 126.775V126.787C82.8906 128.844 81.7949 130.051 79.9082 130.051H78.1328ZM87.8381 131.111C89.3264 131.111 90.2287 130.268 90.4455 129.412L90.4572 129.365H89.4377L89.4143 129.418C89.2443 129.799 88.717 130.203 87.8615 130.203C86.7365 130.203 86.0158 129.441 85.9865 128.135H90.5334V127.736C90.5334 125.85 89.4904 124.572 87.7736 124.572C86.0568 124.572 84.9436 125.908 84.9436 127.859V127.865C84.9436 129.846 86.0334 131.111 87.8381 131.111ZM87.7678 125.48C88.6994 125.48 89.3908 126.072 89.4963 127.32H86.0041C86.1154 126.119 86.8303 125.48 87.7678 125.48ZM93.8754 131.111C95.311 131.111 96.4067 130.332 96.4067 129.207V129.195C96.4067 128.293 95.8324 127.777 94.643 127.49L93.6703 127.256C92.9262 127.074 92.6098 126.805 92.6098 126.377V126.365C92.6098 125.809 93.1606 125.422 93.9106 125.422C94.6723 125.422 95.1645 125.768 95.2992 126.266H96.3012C96.1606 125.234 95.2406 124.572 93.9164 124.572C92.5746 124.572 91.5668 125.363 91.5668 126.412V126.418C91.5668 127.326 92.1 127.842 93.2836 128.123L94.2621 128.357C95.0414 128.545 95.3637 128.844 95.3637 129.271V129.283C95.3637 129.857 94.7602 130.262 93.9106 130.262C93.102 130.262 92.5981 129.916 92.4281 129.389H91.3852C91.5024 130.432 92.4692 131.111 93.8754 131.111ZM98.1198 123.465C98.5065 123.465 98.8229 123.148 98.8229 122.762C98.8229 122.375 98.5065 122.059 98.1198 122.059C97.733 122.059 97.4166 122.375 97.4166 122.762C97.4166 123.148 97.733 123.465 98.1198 123.465ZM97.6041 131H98.6237V124.684H97.6041V131ZM102.739 133.227C104.462 133.227 105.552 132.324 105.552 130.912V124.684H104.532V125.727H104.462C104.075 125.012 103.384 124.572 102.493 124.572C100.841 124.572 99.8211 125.855 99.8211 127.625V127.637C99.8211 129.406 100.835 130.672 102.47 130.672C103.337 130.672 104.052 130.279 104.45 129.582H104.544V130.859C104.544 131.791 103.87 132.324 102.739 132.324C101.831 132.324 101.268 131.984 101.157 131.504L101.151 131.498H100.097L100.085 131.504C100.243 132.541 101.216 133.227 102.739 133.227ZM102.692 129.77C101.52 129.77 100.864 128.891 100.864 127.637V127.625C100.864 126.371 101.52 125.475 102.692 125.475C103.858 125.475 104.567 126.371 104.567 127.625V127.637C104.567 128.891 103.864 129.77 102.692 129.77ZM107.042 131H108.062V127.262C108.062 126.154 108.7 125.475 109.708 125.475C110.716 125.475 111.185 126.02 111.185 127.156V131H112.204V126.91C112.204 125.41 111.413 124.572 109.995 124.572C109.064 124.572 108.472 124.965 108.155 125.633H108.062V124.684H107.042V131ZM116.22 131.111C117.708 131.111 118.611 130.268 118.827 129.412L118.839 129.365H117.82L117.796 129.418C117.626 129.799 117.099 130.203 116.243 130.203C115.118 130.203 114.398 129.441 114.368 128.135H118.915V127.736C118.915 125.85 117.872 124.572 116.156 124.572C114.439 124.572 113.325 125.908 113.325 127.859V127.865C113.325 129.846 114.415 131.111 116.22 131.111ZM116.15 125.48C117.081 125.48 117.773 126.072 117.878 127.32H114.386C114.497 126.119 115.212 125.48 116.15 125.48ZM120.089 131H121.109V127.086C121.109 126.16 121.8 125.545 122.773 125.545C122.996 125.545 123.189 125.568 123.4 125.604V124.613C123.3 124.596 123.083 124.572 122.89 124.572C122.035 124.572 121.443 124.959 121.203 125.621H121.109V124.684H120.089V131Z" fill="#686674"/>
<rect x="124" y="160" width="118" height="113" rx="10" fill="#180B5A"/>
<rect y="160" width="118" height="113" rx="10" fill="#180B5A"/>
<path d="M148.201 213.59C148.201 212.922 147.674 212.395 147.006 212.395H146.994C146.326 212.395 145.799 212.922 145.799 213.59V213.602C145.799 214.27 146.326 214.797 146.994 214.797H147.006C147.674 214.797 148.201 214.27 148.201 213.602V213.59ZM160.482 217.199C162.281 217.199 163.617 216.197 163.898 214.65V214.639H162.832L162.82 214.65C162.557 215.623 161.66 216.227 160.482 216.227C158.854 216.227 157.834 214.896 157.834 212.781V212.77C157.834 210.654 158.854 209.318 160.477 209.318C161.643 209.318 162.545 210.004 162.826 211.088L162.832 211.1H163.893L163.898 211.088C163.646 209.465 162.258 208.346 160.477 208.346C158.18 208.346 156.75 210.045 156.75 212.77V212.781C156.75 215.5 158.186 217.199 160.482 217.199ZM167.709 217.111C169.197 217.111 170.1 216.268 170.317 215.412L170.328 215.365H169.309L169.285 215.418C169.115 215.799 168.588 216.203 167.733 216.203C166.608 216.203 165.887 215.441 165.858 214.135H170.404V213.736C170.404 211.85 169.362 210.572 167.645 210.572C165.928 210.572 164.815 211.908 164.815 213.859V213.865C164.815 215.846 165.904 217.111 167.709 217.111ZM167.639 211.48C168.571 211.48 169.262 212.072 169.367 213.32H165.875C165.987 212.119 166.701 211.48 167.639 211.48ZM171.579 217H172.598V213.262C172.598 212.154 173.237 211.475 174.245 211.475C175.252 211.475 175.721 212.02 175.721 213.156V217H176.741V212.91C176.741 211.41 175.95 210.572 174.532 210.572C173.6 210.572 173.008 210.965 172.692 211.633H172.598V210.684H171.579V217ZM180.422 217.047C180.622 217.047 180.815 217.023 181.014 216.988V216.121C180.827 216.139 180.727 216.145 180.546 216.145C179.889 216.145 179.631 215.846 179.631 215.102V211.527H181.014V210.684H179.631V209.049H178.577V210.684H177.581V211.527H178.577V215.359C178.577 216.566 179.122 217.047 180.422 217.047ZM182.13 217H183.149V213.086C183.149 212.16 183.841 211.545 184.813 211.545C185.036 211.545 185.229 211.568 185.44 211.604V210.613C185.341 210.596 185.124 210.572 184.931 210.572C184.075 210.572 183.483 210.959 183.243 211.621H183.149V210.684H182.13V217ZM188.026 217.111C188.876 217.111 189.538 216.742 189.937 216.068H190.03V217H191.05V212.676C191.05 211.363 190.189 210.572 188.647 210.572C187.3 210.572 186.339 211.24 186.175 212.23L186.169 212.266H187.189L187.194 212.248C187.358 211.756 187.856 211.475 188.612 211.475C189.556 211.475 190.03 211.896 190.03 212.676V213.25L188.22 213.361C186.749 213.449 185.917 214.1 185.917 215.225V215.236C185.917 216.385 186.825 217.111 188.026 217.111ZM186.96 215.213V215.201C186.96 214.574 187.382 214.234 188.343 214.176L190.03 214.07V214.645C190.03 215.547 189.274 216.227 188.237 216.227C187.505 216.227 186.96 215.852 186.96 215.213ZM192.564 217H193.583V208.176H192.564V217ZM198.228 217H199.283V213.982H201.416C203.004 213.982 204.129 212.863 204.129 211.258V211.246C204.129 209.641 203.004 208.545 201.416 208.545H198.228V217ZM201.146 209.482C202.353 209.482 203.05 210.145 203.05 211.258V211.27C203.05 212.383 202.353 213.045 201.146 213.045H199.283V209.482H201.146ZM206.82 217.111C207.67 217.111 208.332 216.742 208.73 216.068H208.824V217H209.844V212.676C209.844 211.363 208.982 210.572 207.441 210.572C206.094 210.572 205.133 211.24 204.969 212.23L204.963 212.266H205.982L205.988 212.248C206.152 211.756 206.65 211.475 207.406 211.475C208.349 211.475 208.824 211.896 208.824 212.676V213.25L207.014 213.361C205.543 213.449 204.711 214.1 204.711 215.225V215.236C204.711 216.385 205.619 217.111 206.82 217.111ZM205.754 215.213V215.201C205.754 214.574 206.176 214.234 207.137 214.176L208.824 214.07V214.645C208.824 215.547 208.068 216.227 207.031 216.227C206.299 216.227 205.754 215.852 205.754 215.213ZM211.299 217H212.318V213.086C212.318 212.16 213.01 211.545 213.982 211.545C214.205 211.545 214.399 211.568 214.609 211.604V210.613C214.51 210.596 214.293 210.572 214.1 210.572C213.244 210.572 212.652 210.959 212.412 211.621H212.318V210.684H211.299V217ZM215.52 217H216.539V214.604L217.131 214.029L219.498 217H220.782L217.846 213.338L220.6 210.684H219.364L216.633 213.443H216.539V208.176H215.52V217ZM148.201 235.59C148.201 234.922 147.674 234.395 147.006 234.395H146.994C146.326 234.395 145.799 234.922 145.799 235.59V235.602C145.799 236.27 146.326 236.797 146.994 236.797H147.006C147.674 236.797 148.201 236.27 148.201 235.602V235.59ZM159.275 239H160.33V231.494H163.055V230.545H156.551V231.494H159.275V239ZM164.569 231.465C164.955 231.465 165.272 231.148 165.272 230.762C165.272 230.375 164.955 230.059 164.569 230.059C164.182 230.059 163.865 230.375 163.865 230.762C163.865 231.148 164.182 231.465 164.569 231.465ZM164.053 239H165.072V232.684H164.053V239ZM166.586 239H167.606V235.086C167.606 234.195 168.233 233.475 169.059 233.475C169.856 233.475 170.372 233.961 170.372 234.711V239H171.391V234.939C171.391 234.137 171.971 233.475 172.85 233.475C173.741 233.475 174.168 233.938 174.168 234.869V239H175.188V234.635C175.188 233.311 174.467 232.572 173.178 232.572C172.305 232.572 171.584 233.012 171.245 233.68H171.151C170.858 233.023 170.26 232.572 169.405 232.572C168.579 232.572 167.981 232.965 167.7 233.645H167.606V232.684H166.586V239ZM179.198 239.111C180.686 239.111 181.589 238.268 181.805 237.412L181.817 237.365H180.797L180.774 237.418C180.604 237.799 180.077 238.203 179.221 238.203C178.096 238.203 177.376 237.441 177.346 236.135H181.893V235.736C181.893 233.85 180.85 232.572 179.133 232.572C177.417 232.572 176.303 233.908 176.303 235.859V235.865C176.303 237.846 177.393 239.111 179.198 239.111ZM179.128 233.48C180.059 233.48 180.751 234.072 180.856 235.32H177.364C177.475 234.119 178.19 233.48 179.128 233.48ZM185.235 239.111C186.671 239.111 187.766 238.332 187.766 237.207V237.195C187.766 236.293 187.192 235.777 186.003 235.49L185.03 235.256C184.286 235.074 183.97 234.805 183.97 234.377V234.365C183.97 233.809 184.52 233.422 185.27 233.422C186.032 233.422 186.524 233.768 186.659 234.266H187.661C187.52 233.234 186.6 232.572 185.276 232.572C183.934 232.572 182.927 233.363 182.927 234.412V234.418C182.927 235.326 183.46 235.842 184.643 236.123L185.622 236.357C186.401 236.545 186.723 236.844 186.723 237.271V237.283C186.723 237.857 186.12 238.262 185.27 238.262C184.462 238.262 183.958 237.916 183.788 237.389H182.745C182.862 238.432 183.829 239.111 185.235 239.111ZM194.808 239.199C196.695 239.199 197.931 238.215 197.931 236.633V236.627C197.931 235.408 197.234 234.699 195.47 234.307L194.532 234.096C193.384 233.844 192.921 233.387 192.921 232.713V232.707C192.921 231.822 193.736 231.324 194.79 231.318C195.892 231.312 196.595 231.863 196.712 232.607L196.724 232.684H197.779L197.773 232.602C197.685 231.342 196.507 230.346 194.82 230.346C193.073 230.346 191.849 231.336 191.843 232.736V232.742C191.843 233.967 192.575 234.746 194.269 235.121L195.206 235.326C196.366 235.584 196.853 236.064 196.853 236.768V236.773C196.853 237.635 196.015 238.227 194.866 238.227C193.648 238.227 192.769 237.693 192.693 236.85L192.687 236.785H191.632L191.638 236.85C191.761 238.227 192.956 239.199 194.808 239.199ZM203.558 241.109H204.578V232.684H203.558V233.738H203.488C203.083 233.018 202.339 232.572 201.49 232.572C199.878 232.572 198.835 233.855 198.835 235.836V235.848C198.835 237.816 199.884 239.111 201.49 239.111C202.392 239.111 203.119 238.719 203.464 238.051H203.558V241.109ZM201.73 238.209C200.57 238.209 199.878 237.318 199.878 235.848V235.836C199.878 234.365 200.57 233.475 201.724 233.475C202.867 233.475 203.587 234.383 203.587 235.836V235.848C203.587 237.295 202.867 238.209 201.73 238.209ZM208.172 239.111C209.097 239.111 209.736 238.73 210.047 238.057H210.14V239H211.16V232.684H210.14V236.422C210.14 237.529 209.549 238.209 208.435 238.209C207.427 238.209 207.017 237.664 207.017 236.527V232.684H205.998V236.773C205.998 238.268 206.736 239.111 208.172 239.111ZM214.391 239.111C215.24 239.111 215.902 238.742 216.301 238.068H216.394V239H217.414V234.676C217.414 233.363 216.553 232.572 215.012 232.572C213.664 232.572 212.703 233.24 212.539 234.23L212.533 234.266H213.553L213.558 234.248C213.723 233.756 214.221 233.475 214.976 233.475C215.92 233.475 216.394 233.896 216.394 234.676V235.25L214.584 235.361C213.113 235.449 212.281 236.1 212.281 237.225V237.236C212.281 238.385 213.189 239.111 214.391 239.111ZM213.324 237.213V237.201C213.324 236.574 213.746 236.234 214.707 236.176L216.394 236.07V236.645C216.394 237.547 215.639 238.227 214.601 238.227C213.869 238.227 213.324 237.852 213.324 237.213ZM218.869 239H219.889V235.086C219.889 234.16 220.58 233.545 221.553 233.545C221.775 233.545 221.969 233.568 222.18 233.604V232.613C222.08 232.596 221.863 232.572 221.67 232.572C220.815 232.572 220.223 232.959 219.982 233.621H219.889V232.684H218.869V239ZM225.434 239.111C226.922 239.111 227.825 238.268 228.041 237.412L228.053 237.365H227.033L227.01 237.418C226.84 237.799 226.313 238.203 225.457 238.203C224.332 238.203 223.612 237.441 223.582 236.135H228.129V235.736C228.129 233.85 227.086 232.572 225.369 232.572C223.653 232.572 222.539 233.908 222.539 235.859V235.865C222.539 237.846 223.629 239.111 225.434 239.111ZM225.364 233.48C226.295 233.48 226.987 234.072 227.092 235.32H223.6C223.711 234.119 224.426 233.48 225.364 233.48Z" fill="#EBEBFF"/>
<path d="M24.2012 213.59C24.2012 212.922 23.6738 212.395 23.0059 212.395H22.9941C22.3262 212.395 21.7988 212.922 21.7988 213.59V213.602C21.7988 214.27 22.3262 214.797 22.9941 214.797H23.0059C23.6738 214.797 24.2012 214.27 24.2012 213.602V213.59ZM36.4824 217.199C38.2812 217.199 39.6172 216.197 39.8984 214.65V214.639H38.832L38.8203 214.65C38.5566 215.623 37.6602 216.227 36.4824 216.227C34.8535 216.227 33.834 214.896 33.834 212.781V212.77C33.834 210.654 34.8535 209.318 36.4766 209.318C37.6426 209.318 38.5449 210.004 38.8262 211.088L38.832 211.1H39.8926L39.8984 211.088C39.6465 209.465 38.2578 208.346 36.4766 208.346C34.1797 208.346 32.75 210.045 32.75 212.77V212.781C32.75 215.5 34.1855 217.199 36.4824 217.199ZM43.7092 217.111C45.1975 217.111 46.0998 216.268 46.3166 215.412L46.3283 215.365H45.3088L45.2854 215.418C45.1154 215.799 44.5881 216.203 43.7326 216.203C42.6076 216.203 41.8869 215.441 41.8576 214.135H46.4045V213.736C46.4045 211.85 45.3615 210.572 43.6447 210.572C41.9279 210.572 40.8147 211.908 40.8147 213.859V213.865C40.8147 215.846 41.9045 217.111 43.7092 217.111ZM43.6389 211.48C44.5705 211.48 45.2619 212.072 45.3674 213.32H41.8752C41.9865 212.119 42.7014 211.48 43.6389 211.48ZM47.5785 217H48.5981V213.262C48.5981 212.154 49.2367 211.475 50.2445 211.475C51.2524 211.475 51.7211 212.02 51.7211 213.156V217H52.7406V212.91C52.7406 211.41 51.9496 210.572 50.5317 210.572C49.6 210.572 49.0082 210.965 48.6918 211.633H48.5981V210.684H47.5785V217ZM56.4225 217.047C56.6217 217.047 56.8151 217.023 57.0143 216.988V216.121C56.8268 216.139 56.7272 216.145 56.5455 216.145C55.8893 216.145 55.6315 215.846 55.6315 215.102V211.527H57.0143V210.684H55.6315V209.049H54.5768V210.684H53.5807V211.527H54.5768V215.359C54.5768 216.566 55.1217 217.047 56.4225 217.047ZM58.1297 217H59.1493V213.086C59.1493 212.16 59.8407 211.545 60.8133 211.545C61.036 211.545 61.2293 211.568 61.4403 211.604V210.613C61.3407 210.596 61.1239 210.572 60.9305 210.572C60.075 210.572 59.4832 210.959 59.243 211.621H59.1493V210.684H58.1297V217ZM64.0264 217.111C64.876 217.111 65.5381 216.742 65.9366 216.068H66.0303V217H67.0498V212.676C67.0498 211.363 66.1885 210.572 64.6475 210.572C63.2998 210.572 62.3389 211.24 62.1748 212.23L62.169 212.266H63.1885L63.1944 212.248C63.3584 211.756 63.8565 211.475 64.6123 211.475C65.5557 211.475 66.0303 211.896 66.0303 212.676V213.25L64.2198 213.361C62.7491 213.449 61.917 214.1 61.917 215.225V215.236C61.917 216.385 62.8252 217.111 64.0264 217.111ZM62.96 215.213V215.201C62.96 214.574 63.3819 214.234 64.3428 214.176L66.0303 214.07V214.645C66.0303 215.547 65.2745 216.227 64.2373 216.227C63.5049 216.227 62.96 215.852 62.96 215.213ZM68.5637 217H69.5833V208.176H68.5637V217ZM74.2282 217H75.2829V213.982H77.4157C79.0036 213.982 80.1286 212.863 80.1286 211.258V211.246C80.1286 209.641 79.0036 208.545 77.4157 208.545H74.2282V217ZM77.1462 209.482C78.3532 209.482 79.0505 210.145 79.0505 211.258V211.27C79.0505 212.383 78.3532 213.045 77.1462 213.045H75.2829V209.482H77.1462ZM82.8202 217.111C83.6698 217.111 84.3319 216.742 84.7303 216.068H84.8241V217H85.8436V212.676C85.8436 211.363 84.9823 210.572 83.4413 210.572C82.0936 210.572 81.1327 211.24 80.9686 212.23L80.9628 212.266H81.9823L81.9882 212.248C82.1522 211.756 82.6503 211.475 83.4061 211.475C84.3495 211.475 84.8241 211.896 84.8241 212.676V213.25L83.0135 213.361C81.5428 213.449 80.7108 214.1 80.7108 215.225V215.236C80.7108 216.385 81.619 217.111 82.8202 217.111ZM81.7538 215.213V215.201C81.7538 214.574 82.1757 214.234 83.1366 214.176L84.8241 214.07V214.645C84.8241 215.547 84.0682 216.227 83.0311 216.227C82.2987 216.227 81.7538 215.852 81.7538 215.213ZM87.2989 217H88.3184V213.086C88.3184 212.16 89.0098 211.545 89.9825 211.545C90.2052 211.545 90.3985 211.568 90.6095 211.604V210.613C90.5098 210.596 90.293 210.572 90.0997 210.572C89.2442 210.572 88.6524 210.959 88.4122 211.621H88.3184V210.684H87.2989V217ZM91.5198 217H92.5393V214.604L93.1311 214.029L95.4983 217H96.7815L93.846 213.338L96.5999 210.684H95.3636L92.6331 213.443H92.5393V208.176H91.5198V217ZM24.2012 235.59C24.2012 234.922 23.6738 234.395 23.0059 234.395H22.9941C22.3262 234.395 21.7988 234.922 21.7988 235.59V235.602C21.7988 236.27 22.3262 236.797 22.9941 236.797H23.0059C23.6738 236.797 24.2012 236.27 24.2012 235.602V235.59ZM35.2754 239H36.3301V231.494H39.0547V230.545H32.5508V231.494H35.2754V239ZM40.5686 231.465C40.9553 231.465 41.2717 231.148 41.2717 230.762C41.2717 230.375 40.9553 230.059 40.5686 230.059C40.1818 230.059 39.8654 230.375 39.8654 230.762C39.8654 231.148 40.1818 231.465 40.5686 231.465ZM40.0529 239H41.0725V232.684H40.0529V239ZM42.5863 239H43.6059V235.086C43.6059 234.195 44.2328 233.475 45.059 233.475C45.8559 233.475 46.3715 233.961 46.3715 234.711V239H47.391V234.939C47.391 234.137 47.9711 233.475 48.85 233.475C49.7406 233.475 50.1684 233.938 50.1684 234.869V239H51.1879V234.635C51.1879 233.311 50.4672 232.572 49.1781 232.572C48.3051 232.572 47.5844 233.012 47.2445 233.68H47.1508C46.8578 233.023 46.2602 232.572 45.4047 232.572C44.5785 232.572 43.9809 232.965 43.6996 233.645H43.6059V232.684H42.5863V239ZM55.1979 239.111C56.6862 239.111 57.5885 238.268 57.8053 237.412L57.817 237.365H56.7975L56.774 237.418C56.6041 237.799 56.0768 238.203 55.2213 238.203C54.0963 238.203 53.3756 237.441 53.3463 236.135H57.8932V235.736C57.8932 233.85 56.8502 232.572 55.1334 232.572C53.4166 232.572 52.3033 233.908 52.3033 235.859V235.865C52.3033 237.846 53.3932 239.111 55.1979 239.111ZM55.1276 233.48C56.0592 233.48 56.7506 234.072 56.8561 235.32H53.3639C53.4752 234.119 54.1901 233.48 55.1276 233.48ZM61.2352 239.111C62.6707 239.111 63.7664 238.332 63.7664 237.207V237.195C63.7664 236.293 63.1922 235.777 62.0028 235.49L61.0301 235.256C60.286 235.074 59.9696 234.805 59.9696 234.377V234.365C59.9696 233.809 60.5203 233.422 61.2703 233.422C62.0321 233.422 62.5243 233.768 62.659 234.266H63.661C63.5203 233.234 62.6004 232.572 61.2762 232.572C59.9344 232.572 58.9266 233.363 58.9266 234.412V234.418C58.9266 235.326 59.4598 235.842 60.6434 236.123L61.6219 236.357C62.4012 236.545 62.7235 236.844 62.7235 237.271V237.283C62.7235 237.857 62.12 238.262 61.2703 238.262C60.4618 238.262 59.9578 237.916 59.7879 237.389H58.745C58.8621 238.432 59.8289 239.111 61.2352 239.111ZM70.8079 239.199C72.6946 239.199 73.9309 238.215 73.9309 236.633V236.627C73.9309 235.408 73.2336 234.699 71.47 234.307L70.5325 234.096C69.384 233.844 68.9211 233.387 68.9211 232.713V232.707C68.9211 231.822 69.7356 231.324 70.7903 231.318C71.8918 231.312 72.595 231.863 72.7122 232.607L72.7239 232.684H73.7786L73.7727 232.602C73.6848 231.342 72.5071 230.346 70.8196 230.346C69.0735 230.346 67.8489 231.336 67.843 232.736V232.742C67.843 233.967 68.5754 234.746 70.2688 235.121L71.2063 235.326C72.3665 235.584 72.8528 236.064 72.8528 236.768V236.773C72.8528 237.635 72.0149 238.227 70.8665 238.227C69.6477 238.227 68.7688 237.693 68.6926 236.85L68.6868 236.785H67.6321L67.6379 236.85C67.761 238.227 68.9563 239.199 70.8079 239.199ZM79.5581 241.109H80.5776V232.684H79.5581V233.738H79.4878C79.0835 233.018 78.3393 232.572 77.4897 232.572C75.8784 232.572 74.8354 233.855 74.8354 235.836V235.848C74.8354 237.816 75.8842 239.111 77.4897 239.111C78.392 239.111 79.1186 238.719 79.4643 238.051H79.5581V241.109ZM77.7299 238.209C76.5698 238.209 75.8784 237.318 75.8784 235.848V235.836C75.8784 234.365 76.5698 233.475 77.7241 233.475C78.8667 233.475 79.5874 234.383 79.5874 235.836V235.848C79.5874 237.295 78.8667 238.209 77.7299 238.209ZM84.1715 239.111C85.0973 239.111 85.736 238.73 86.0465 238.057H86.1403V239H87.1598V232.684H86.1403V236.422C86.1403 237.529 85.5485 238.209 84.4352 238.209C83.4274 238.209 83.0173 237.664 83.0173 236.527V232.684H81.9977V236.773C81.9977 238.268 82.736 239.111 84.1715 239.111ZM90.3905 239.111C91.2401 239.111 91.9022 238.742 92.3007 238.068H92.3944V239H93.4139V234.676C93.4139 233.363 92.5526 232.572 91.0116 232.572C89.6639 232.572 88.703 233.24 88.5389 234.23L88.5331 234.266H89.5526L89.5585 234.248C89.7225 233.756 90.2206 233.475 90.9764 233.475C91.9198 233.475 92.3944 233.896 92.3944 234.676V235.25L90.5839 235.361C89.1132 235.449 88.2811 236.1 88.2811 237.225V237.236C88.2811 238.385 89.1893 239.111 90.3905 239.111ZM89.3241 237.213V237.201C89.3241 236.574 89.746 236.234 90.7069 236.176L92.3944 236.07V236.645C92.3944 237.547 91.6385 238.227 90.6014 238.227C89.869 238.227 89.3241 237.852 89.3241 237.213ZM94.8692 239H95.8887V235.086C95.8887 234.16 96.5802 233.545 97.5528 233.545C97.7755 233.545 97.9688 233.568 98.1798 233.604V232.613C98.0802 232.596 97.8634 232.572 97.67 232.572C96.8145 232.572 96.2227 232.959 95.9825 233.621H95.8887V232.684H94.8692V239ZM101.434 239.111C102.922 239.111 103.825 238.268 104.041 237.412L104.053 237.365H103.033L103.01 237.418C102.84 237.799 102.313 238.203 101.457 238.203C100.332 238.203 99.6116 237.441 99.5823 236.135H104.129V235.736C104.129 233.85 103.086 232.572 101.369 232.572C99.6526 232.572 98.5393 233.908 98.5393 235.859V235.865C98.5393 237.846 99.6292 239.111 101.434 239.111ZM101.364 233.48C102.295 233.48 102.987 234.072 103.092 235.32H99.5999C99.7112 234.119 100.426 233.48 101.364 233.48Z" fill="#EBEBFF"/>
<path d="M142.025 195H143.795V186.545H142.025V195ZM145.268 195H146.979V191.268C146.979 190.395 147.459 189.826 148.25 189.826C149.059 189.826 149.434 190.307 149.434 191.215V195H151.145V190.828C151.145 189.287 150.371 188.408 148.936 188.408C148.016 188.408 147.377 188.848 147.084 189.545H146.979V188.549H145.268V195ZM154.698 195.1C155.606 195.1 156.291 194.695 156.625 193.998H156.731V195H158.442V186.082H156.731V189.58H156.625C156.303 188.877 155.582 188.443 154.698 188.443C153.063 188.443 152.079 189.691 152.079 191.766V191.777C152.079 193.84 153.086 195.1 154.698 195.1ZM155.278 193.682C154.375 193.682 153.819 192.967 153.819 191.777V191.766C153.819 190.588 154.375 189.861 155.278 189.861C156.18 189.861 156.748 190.588 156.748 191.771V191.783C156.748 192.967 156.186 193.682 155.278 193.682ZM160.676 187.559C161.204 187.559 161.637 187.137 161.637 186.609C161.637 186.076 161.204 185.654 160.676 185.654C160.149 185.654 159.71 186.076 159.71 186.609C159.71 187.137 160.149 187.559 160.676 187.559ZM159.815 195H161.526V188.549H159.815V195ZM165.682 195.135C167.364 195.135 168.372 194.232 168.548 192.826L168.554 192.791H166.972L166.96 192.814C166.807 193.459 166.391 193.793 165.688 193.793C164.774 193.793 164.264 193.072 164.264 191.766V191.754C164.264 190.465 164.768 189.75 165.688 189.75C166.421 189.75 166.848 190.16 166.96 190.787L166.966 190.799H168.559V190.781C168.407 189.34 167.393 188.408 165.682 188.408C163.661 188.408 162.524 189.633 162.524 191.754V191.766C162.524 193.91 163.667 195.135 165.682 195.135ZM171.245 195.1C172.089 195.1 172.769 194.742 173.097 194.145H173.202V195H174.89V190.594C174.89 189.217 173.923 188.408 172.212 188.408C170.589 188.408 169.522 189.158 169.388 190.289L169.382 190.342H170.964L170.976 190.318C171.11 189.938 171.503 189.721 172.118 189.721C172.821 189.721 173.202 190.037 173.202 190.594V191.127L171.644 191.221C170.038 191.314 169.142 191.994 169.142 193.154V193.166C169.142 194.338 170.015 195.1 171.245 195.1ZM170.812 193.061V193.049C170.812 192.58 171.169 192.305 171.901 192.258L173.202 192.176V192.65C173.202 193.33 172.61 193.852 171.819 193.852C171.228 193.852 170.812 193.553 170.812 193.061ZM178.671 197.895C179.738 197.895 180.529 197.479 180.529 196.635V196.623C180.529 195.984 180.025 195.562 179.292 195.527L179.603 195.094C180.921 194.9 181.706 194.057 181.865 192.826L181.87 192.791H180.288L180.277 192.814C180.124 193.459 179.708 193.793 179.005 193.793C178.091 193.793 177.581 193.072 177.581 191.766V191.754C177.581 190.465 178.085 189.75 179.005 189.75C179.738 189.75 180.165 190.16 180.277 190.787L180.282 190.799H181.876V190.781C181.724 189.34 180.71 188.408 178.999 188.408C176.978 188.408 175.841 189.633 175.841 191.754V191.766C175.841 193.734 176.796 194.924 178.513 195.111L178.126 195.662V196.248H178.349C178.853 196.248 179.122 196.348 179.122 196.664V196.676C179.122 196.975 178.765 197.068 178.431 197.068C178.126 197.068 177.845 197.021 177.751 196.992V197.789C178.003 197.854 178.331 197.895 178.671 197.895ZM186.578 187.646C187.421 187.646 187.955 186.938 187.955 185.854V185.818H186.9V185.836C186.9 186.334 186.742 186.604 186.449 186.604C186.296 186.604 186.167 186.557 185.951 186.369L185.839 186.275C185.494 185.982 185.177 185.818 184.755 185.818C183.912 185.818 183.378 186.527 183.378 187.611V187.646H184.433V187.629C184.433 187.131 184.591 186.861 184.884 186.861C185.037 186.861 185.165 186.908 185.382 187.096L185.494 187.189C185.839 187.482 186.156 187.646 186.578 187.646ZM185.669 195.135C187.656 195.135 188.851 193.881 188.851 191.777V191.766C188.851 189.68 187.638 188.408 185.669 188.408C183.701 188.408 182.488 189.686 182.488 191.766V191.777C182.488 193.875 183.683 195.135 185.669 195.135ZM185.669 193.793C184.755 193.793 184.24 193.049 184.24 191.777V191.766C184.24 190.506 184.761 189.75 185.669 189.75C186.572 189.75 187.099 190.506 187.099 191.766V191.777C187.099 193.049 186.578 193.793 185.669 193.793ZM192.674 195.135C194.56 195.135 195.392 194.045 195.591 193.236L195.603 193.178H194.009L193.992 193.213C193.875 193.459 193.459 193.857 192.709 193.857C191.8 193.857 191.232 193.242 191.215 192.182H195.656V191.648C195.656 189.697 194.484 188.408 192.603 188.408C190.722 188.408 189.521 189.727 189.521 191.777V191.783C189.521 193.852 190.711 195.135 192.674 195.135ZM192.632 189.691C193.377 189.691 193.91 190.172 194.015 191.109H191.232C191.338 190.195 191.888 189.691 192.632 189.691ZM199.215 195.135C200.867 195.135 202.045 194.303 202.045 193.025V193.02C202.045 192.064 201.441 191.525 200.152 191.25L199.08 191.021C198.412 190.875 198.172 190.676 198.172 190.33V190.324C198.172 189.891 198.594 189.615 199.185 189.615C199.824 189.615 200.205 189.938 200.299 190.283L200.305 190.312H201.892V190.289C201.822 189.252 200.885 188.408 199.191 188.408C197.58 188.408 196.502 189.217 196.502 190.43V190.436C196.502 191.402 197.111 192.006 198.342 192.27L199.42 192.498C200.076 192.645 200.334 192.861 200.334 193.207V193.219C200.334 193.646 199.889 193.928 199.232 193.928C198.558 193.928 198.166 193.641 198.031 193.242L198.019 193.219H196.338L196.344 193.242C196.467 194.35 197.463 195.135 199.215 195.135Z" fill="#EBEBFF"/>
<path d="M18.0254 195H19.7949V186.545H18.0254V195ZM21.2678 195H22.9787V191.268C22.9787 190.395 23.4592 189.826 24.2502 189.826C25.0588 189.826 25.4338 190.307 25.4338 191.215V195H27.1447V190.828C27.1447 189.287 26.3713 188.408 24.9358 188.408C24.0158 188.408 23.3772 188.848 23.0842 189.545H22.9787V188.549H21.2678V195ZM30.6977 195.1C31.6059 195.1 32.2914 194.695 32.6254 193.998H32.7309V195H34.4418V186.082H32.7309V189.58H32.6254C32.3031 188.877 31.5824 188.443 30.6977 188.443C29.0629 188.443 28.0785 189.691 28.0785 191.766V191.777C28.0785 193.84 29.0863 195.1 30.6977 195.1ZM31.2778 193.682C30.3754 193.682 29.8188 192.967 29.8188 191.777V191.766C29.8188 190.588 30.3754 189.861 31.2778 189.861C32.1801 189.861 32.7485 190.588 32.7485 191.771V191.783C32.7485 192.967 32.186 193.682 31.2778 193.682ZM36.6764 187.559C37.2037 187.559 37.6373 187.137 37.6373 186.609C37.6373 186.076 37.2037 185.654 36.6764 185.654C36.149 185.654 35.7096 186.076 35.7096 186.609C35.7096 187.137 36.149 187.559 36.6764 187.559ZM35.8151 195H37.526V188.549H35.8151V195ZM41.6825 195.135C43.3641 195.135 44.3719 194.232 44.5477 192.826L44.5535 192.791H42.9715L42.9598 192.814C42.8075 193.459 42.3914 193.793 41.6883 193.793C40.7743 193.793 40.2645 193.072 40.2645 191.766V191.754C40.2645 190.465 40.7684 189.75 41.6883 189.75C42.4207 189.75 42.8485 190.16 42.9598 190.787L42.9657 190.799H44.5594V190.781C44.4071 189.34 43.3934 188.408 41.6825 188.408C39.661 188.408 38.5243 189.633 38.5243 191.754V191.766C38.5243 193.91 39.6668 195.135 41.6825 195.135ZM47.2452 195.1C48.0889 195.1 48.7686 194.742 49.0967 194.145H49.2022V195H50.8897V190.594C50.8897 189.217 49.9229 188.408 48.212 188.408C46.5889 188.408 45.5225 189.158 45.3877 190.289L45.3819 190.342H46.9639L46.9756 190.318C47.1104 189.938 47.503 189.721 48.1182 189.721C48.8213 189.721 49.2022 190.037 49.2022 190.594V191.127L47.6436 191.221C46.0381 191.314 45.1416 191.994 45.1416 193.154V193.166C45.1416 194.338 46.0147 195.1 47.2452 195.1ZM46.8116 193.061V193.049C46.8116 192.58 47.169 192.305 47.9014 192.258L49.2022 192.176V192.65C49.2022 193.33 48.6104 193.852 47.8194 193.852C47.2276 193.852 46.8116 193.553 46.8116 193.061ZM54.6711 197.895C55.7375 197.895 56.5286 197.479 56.5286 196.635V196.623C56.5286 195.984 56.0247 195.562 55.2922 195.527L55.6028 195.094C56.9211 194.9 57.7063 194.057 57.8645 192.826L57.8704 192.791H56.2883L56.2766 192.814C56.1243 193.459 55.7083 193.793 55.0051 193.793C54.0911 193.793 53.5813 193.072 53.5813 191.766V191.754C53.5813 190.465 54.0852 189.75 55.0051 189.75C55.7375 189.75 56.1653 190.16 56.2766 190.787L56.2825 190.799H57.8762V190.781C57.7239 189.34 56.7102 188.408 54.9993 188.408C52.9778 188.408 51.8411 189.633 51.8411 191.754V191.766C51.8411 193.734 52.7961 194.924 54.5129 195.111L54.1262 195.662V196.248H54.3489C54.8528 196.248 55.1223 196.348 55.1223 196.664V196.676C55.1223 196.975 54.7649 197.068 54.4309 197.068C54.1262 197.068 53.845 197.021 53.7512 196.992V197.789C54.0032 197.854 54.3313 197.895 54.6711 197.895ZM62.5776 187.646C63.4213 187.646 63.9545 186.938 63.9545 185.854V185.818H62.8999V185.836C62.8999 186.334 62.7417 186.604 62.4487 186.604C62.2963 186.604 62.1674 186.557 61.9506 186.369L61.8393 186.275C61.4936 185.982 61.1772 185.818 60.7553 185.818C59.9116 185.818 59.3784 186.527 59.3784 187.611V187.646H60.4331V187.629C60.4331 187.131 60.5913 186.861 60.8842 186.861C61.0366 186.861 61.1655 186.908 61.3823 187.096L61.4936 187.189C61.8393 187.482 62.1557 187.646 62.5776 187.646ZM61.6694 195.135C63.6557 195.135 64.851 193.881 64.851 191.777V191.766C64.851 189.68 63.6381 188.408 61.6694 188.408C59.7006 188.408 58.4878 189.686 58.4878 191.766V191.777C58.4878 193.875 59.6831 195.135 61.6694 195.135ZM61.6694 193.793C60.7553 193.793 60.2397 193.049 60.2397 191.777V191.766C60.2397 190.506 60.7612 189.75 61.6694 189.75C62.5717 189.75 63.0991 190.506 63.0991 191.766V191.777C63.0991 193.049 62.5776 193.793 61.6694 193.793ZM68.6735 195.135C70.5602 195.135 71.3923 194.045 71.5915 193.236L71.6032 193.178H70.0094L69.9919 193.213C69.8747 193.459 69.4587 193.857 68.7087 193.857C67.8005 193.857 67.2321 193.242 67.2145 192.182H71.6559V191.648C71.6559 189.697 70.484 188.408 68.6032 188.408C66.7223 188.408 65.5212 189.727 65.5212 191.777V191.783C65.5212 193.852 66.7106 195.135 68.6735 195.135ZM68.6325 189.691C69.3766 189.691 69.9098 190.172 70.0153 191.109H67.2321C67.3376 190.195 67.8883 189.691 68.6325 189.691ZM75.2147 195.135C76.8671 195.135 78.0448 194.303 78.0448 193.025V193.02C78.0448 192.064 77.4413 191.525 76.1522 191.25L75.08 191.021C74.412 190.875 74.1717 190.676 74.1717 190.33V190.324C74.1717 189.891 74.5936 189.615 75.1854 189.615C75.8241 189.615 76.205 189.938 76.2987 190.283L76.3046 190.312H77.8925V190.289C77.8221 189.252 76.8846 188.408 75.1913 188.408C73.58 188.408 72.5018 189.217 72.5018 190.43V190.436C72.5018 191.402 73.1112 192.006 74.3417 192.27L75.4198 192.498C76.076 192.645 76.3339 192.861 76.3339 193.207V193.219C76.3339 193.646 75.8885 193.928 75.2323 193.928C74.5585 193.928 74.1659 193.641 74.0311 193.242L74.0194 193.219H72.3378L72.3436 193.242C72.4667 194.35 73.4628 195.135 75.2147 195.135Z" fill="#EBEBFF"/>
<circle cx="41.5" cy="36.5" r="23.5" fill="#614CCB"/>
<path d="M42.0048 36.2447C44.0392 36.2447 45.8075 34.4294 45.8075 32.0656C45.8075 29.7303 44.0392 28 42.0048 28C39.9703 28 38.202 29.7681 38.202 32.0845C38.202 34.4294 39.9608 36.2447 42.0048 36.2447ZM35.6257 45H48.3743C49.3916 45 50 44.5273 50 43.7425C50 41.3031 46.9293 37.9372 41.9952 37.9372C37.0707 37.9372 34 41.3031 34 43.7425C34 44.5273 34.6084 45 35.6257 45Z" fill="#EBEBFF"/>
<circle cx="41.5" cy="116.5" r="23.5" fill="#614CCB"/>
<path d="M42.0048 116.245C44.0392 116.245 45.8075 114.429 45.8075 112.066C45.8075 109.73 44.0392 108 42.0048 108C39.9703 108 38.202 109.768 38.202 112.085C38.202 114.429 39.9608 116.245 42.0048 116.245ZM35.6257 125H48.3743C49.3916 125 50 124.527 50 123.742C50 121.303 46.9293 117.937 41.9952 117.937C37.0707 117.937 34 121.303 34 123.742C34 124.527 34.6084 125 35.6257 125Z" fill="#EBEBFF"/>
</svg>
