<svg width="212" height="135" viewBox="0 0 212 135" fill="none" xmlns="http://www.w3.org/2000/svg">
<rect width="212" height="135" rx="5" fill="#EBEBFF"/>
<path d="M16.5703 25.2109C18.5215 25.2109 19.9219 24.0801 20.1445 22.3867V22.3457H18.6621L18.6562 22.375C18.4395 23.3066 17.6426 23.9043 16.5703 23.9043C15.1289 23.9043 14.2324 22.7031 14.2324 20.7754V20.7637C14.2324 18.8418 15.1289 17.6406 16.5645 17.6406C17.6309 17.6406 18.4395 18.3027 18.6562 19.3047L18.6621 19.3281H20.1445V19.2812C19.9453 17.5527 18.4863 16.334 16.5645 16.334C14.168 16.334 12.6855 18.0273 12.6855 20.7695V20.7812C12.6855 23.5117 14.1738 25.2109 16.5703 25.2109ZM24.0373 25.1289C25.9533 25.1289 27.1193 23.875 27.1193 21.8008V21.7891C27.1193 19.7266 25.9475 18.4727 24.0373 18.4727C22.133 18.4727 20.9553 19.7324 20.9553 21.7891V21.8008C20.9553 23.875 22.1154 25.1289 24.0373 25.1289ZM24.0373 23.9453C23.0236 23.9453 22.4436 23.1543 22.4436 21.8066V21.7949C22.4436 20.4473 23.0236 19.6504 24.0373 19.6504C25.0451 19.6504 25.6252 20.4473 25.6252 21.7949V21.8066C25.6252 23.1543 25.051 23.9453 24.0373 23.9453ZM28.1762 25H29.6352V21.1035C29.6352 20.3066 30.1625 19.6973 30.8832 19.6973C31.5981 19.6973 32.0375 20.1367 32.0375 20.8457V25H33.4965V20.998C33.4965 20.2656 33.9887 19.6973 34.7504 19.6973C35.5297 19.6973 35.9106 20.1191 35.9106 20.9512V25H37.3695V20.5938C37.3695 19.2637 36.5961 18.4727 35.307 18.4727C34.4164 18.4727 33.6781 18.9297 33.3676 19.627H33.268C32.9926 18.918 32.3598 18.4727 31.4926 18.4727C30.6547 18.4727 30.0102 18.877 29.7348 19.5918H29.6352V18.5957H28.1762V25ZM41.4557 25.1289C43.3717 25.1289 44.5377 23.875 44.5377 21.8008V21.7891C44.5377 19.7266 43.3658 18.4727 41.4557 18.4727C39.5514 18.4727 38.3737 19.7324 38.3737 21.7891V21.8008C38.3737 23.875 39.5338 25.1289 41.4557 25.1289ZM41.4557 23.9453C40.442 23.9453 39.8619 23.1543 39.8619 21.8066V21.7949C39.8619 20.4473 40.442 19.6504 41.4557 19.6504C42.4635 19.6504 43.0436 20.4473 43.0436 21.7949V21.8066C43.0436 23.1543 42.4694 23.9453 41.4557 23.9453ZM50.1084 25H51.708L53.9756 18.5957H52.4405L50.9698 23.5762H50.8702L49.3877 18.5957H47.8291L50.1084 25ZM57.3059 25.1289C59.2219 25.1289 60.3879 23.875 60.3879 21.8008V21.7891C60.3879 19.7266 59.2161 18.4727 57.3059 18.4727C55.4016 18.4727 54.2239 19.7324 54.2239 21.7891V21.8008C54.2239 23.875 55.384 25.1289 57.3059 25.1289ZM57.3059 23.9453C56.2922 23.9453 55.7122 23.1543 55.7122 21.8066V21.7949C55.7122 20.4473 56.2922 19.6504 57.3059 19.6504C58.3137 19.6504 58.8938 20.4473 58.8938 21.7949V21.8066C58.8938 23.1543 58.3196 23.9453 57.3059 23.9453ZM64.1928 25.1289C65.8159 25.1289 66.7592 24.2559 66.9702 22.9434L66.9819 22.8965L65.6049 22.9023L65.5932 22.9258C65.4116 23.5996 64.9487 23.9453 64.1928 23.9453C63.2026 23.9453 62.6108 23.1484 62.6108 21.7891V21.7773C62.6108 20.4355 63.1967 19.6504 64.1928 19.6504C64.9897 19.6504 65.4643 20.0957 65.5991 20.7168L65.6049 20.7344H66.9819V20.7109C66.8178 19.3867 65.8335 18.4727 64.187 18.4727C62.2592 18.4727 61.1284 19.709 61.1284 21.7773V21.7891C61.1284 23.8809 62.2651 25.1289 64.1928 25.1289ZM68.4137 17.7285H69.738L70.6169 16.457H70.7165L71.6012 17.7285H72.9255L71.443 15.6895H69.8962L68.4137 17.7285ZM70.7048 25.1289C72.445 25.1289 73.3005 24.127 73.5055 23.3008L73.5231 23.248H72.1344L72.1169 23.2891C71.9762 23.582 71.5251 23.9805 70.734 23.9805C69.7438 23.9805 69.1227 23.3125 69.1051 22.1641H73.5817V21.6836C73.5817 19.75 72.4567 18.4727 70.6344 18.4727C68.8122 18.4727 67.6462 19.791 67.6462 21.8066V21.8125C67.6462 23.8516 68.8005 25.1289 70.7048 25.1289ZM70.652 19.6152C71.4665 19.6152 72.0583 20.1367 72.1579 21.1855H69.1169C69.2282 20.166 69.8376 19.6152 70.652 19.6152ZM80.1661 25.1289C81.9063 25.1289 82.7618 24.127 82.9669 23.3008L82.9845 23.248H81.5958L81.5782 23.2891C81.4376 23.582 80.9864 23.9805 80.1954 23.9805C79.2052 23.9805 78.5841 23.3125 78.5665 22.1641H83.043V21.6836C83.043 19.75 81.918 18.4727 80.0958 18.4727C78.2735 18.4727 77.1075 19.791 77.1075 21.8066V21.8125C77.1075 23.8516 78.2618 25.1289 80.1661 25.1289ZM80.1134 19.6152C80.9278 19.6152 81.5196 20.1367 81.6192 21.1855H78.5782C78.6895 20.166 79.2989 19.6152 80.1134 19.6152ZM86.514 25.1289C88.0901 25.1289 89.2327 24.3145 89.2327 23.0957V23.084C89.2327 22.1523 88.6409 21.6191 87.387 21.3379L86.3499 21.1094C85.6585 20.9512 85.389 20.7227 85.389 20.3477V20.3418C85.389 19.8613 85.8577 19.5449 86.5081 19.5449C87.1936 19.5449 87.6155 19.873 87.721 20.2773L87.7268 20.2949H89.0979V20.2832C89.0042 19.2461 88.0725 18.4727 86.514 18.4727C85.0022 18.4727 83.9475 19.2695 83.9475 20.4238V20.4297C83.9475 21.373 84.5276 21.9473 85.7464 22.2168L86.7835 22.4512C87.4866 22.6094 87.7679 22.8555 87.7679 23.2305V23.2422C87.7679 23.7227 87.264 24.0508 86.5374 24.0508C85.8108 24.0508 85.3831 23.7402 85.2308 23.2949L85.2249 23.2832H83.7776V23.2949C83.9007 24.3789 84.885 25.1289 86.514 25.1289ZM92.7681 25.0293C93.0493 25.0293 93.3188 25.0059 93.5298 24.9648V23.8398C93.354 23.8574 93.2427 23.8633 93.0376 23.8633C92.4282 23.8633 92.1763 23.5938 92.1763 22.9551V19.7266H93.5298V18.5957H92.1763V17.0254H90.6938V18.5957H89.6978V19.7266H90.6938V23.3008C90.6938 24.5371 91.2974 25.0293 92.7681 25.0293ZM97.6218 17.7285L99.0222 15.6895H97.5573L96.5319 17.7285H97.6218ZM96.321 25.1055C97.1647 25.1055 97.8444 24.7422 98.196 24.1211H98.2956V25H99.737V20.623C99.737 19.2695 98.8112 18.4727 97.1647 18.4727C95.6413 18.4727 94.6101 19.1875 94.4694 20.2656L94.4636 20.3184H95.8405L95.8464 20.2949C95.9929 19.873 96.4265 19.6328 97.0944 19.6328C97.8796 19.6328 98.2956 19.9844 98.2956 20.623V21.1738L96.6491 21.2734C95.0905 21.3672 94.2175 22.0352 94.2175 23.1777V23.1895C94.2175 24.3555 95.1022 25.1055 96.321 25.1055ZM95.6589 23.1191V23.1074C95.6589 22.5801 96.0397 22.2812 96.8542 22.2285L98.2956 22.1348V22.6504C98.2956 23.4121 97.6452 23.9863 96.7663 23.9863C96.1218 23.9863 95.6589 23.6641 95.6589 23.1191ZM106.292 25.1289C107.868 25.1289 109.011 24.3145 109.011 23.0957V23.084C109.011 22.1523 108.419 21.6191 107.165 21.3379L106.128 21.1094C105.437 20.9512 105.167 20.7227 105.167 20.3477V20.3418C105.167 19.8613 105.636 19.5449 106.286 19.5449C106.972 19.5449 107.394 19.873 107.499 20.2773L107.505 20.2949H108.876V20.2832C108.782 19.2461 107.851 18.4727 106.292 18.4727C104.78 18.4727 103.726 19.2695 103.726 20.4238V20.4297C103.726 21.373 104.306 21.9473 105.525 22.2168L106.562 22.4512C107.265 22.6094 107.546 22.8555 107.546 23.2305V23.2422C107.546 23.7227 107.042 24.0508 106.316 24.0508C105.589 24.0508 105.161 23.7402 105.009 23.2949L105.003 23.2832H103.556V23.2949C103.679 24.3789 104.663 25.1289 106.292 25.1289ZM112.816 25.1289C114.556 25.1289 115.411 24.127 115.617 23.3008L115.634 23.248H114.245L114.228 23.2891C114.087 23.582 113.636 23.9805 112.845 23.9805C111.855 23.9805 111.234 23.3125 111.216 22.1641H115.693V21.6836C115.693 19.75 114.568 18.4727 112.745 18.4727C110.923 18.4727 109.757 19.791 109.757 21.8066V21.8125C109.757 23.8516 110.911 25.1289 112.816 25.1289ZM112.763 19.6152C113.577 19.6152 114.169 20.1367 114.269 21.1855H111.228C111.339 20.166 111.949 19.6152 112.763 19.6152ZM121.955 25.1289C123.531 25.1289 124.674 24.3145 124.674 23.0957V23.084C124.674 22.1523 124.082 21.6191 122.828 21.3379L121.791 21.1094C121.099 20.9512 120.83 20.7227 120.83 20.3477V20.3418C120.83 19.8613 121.299 19.5449 121.949 19.5449C122.635 19.5449 123.056 19.873 123.162 20.2773L123.168 20.2949H124.539V20.2832C124.445 19.2461 123.513 18.4727 121.955 18.4727C120.443 18.4727 119.388 19.2695 119.388 20.4238V20.4297C119.388 21.373 119.968 21.9473 121.187 22.2168L122.224 22.4512C122.927 22.6094 123.209 22.8555 123.209 23.2305V23.2422C123.209 23.7227 122.705 24.0508 121.978 24.0508C121.252 24.0508 120.824 23.7402 120.672 23.2949L120.666 23.2832H119.218V23.2949C119.342 24.3789 120.326 25.1289 121.955 25.1289ZM128.478 25.1289C130.219 25.1289 131.074 24.127 131.279 23.3008L131.297 23.248H129.908L129.891 23.2891C129.75 23.582 129.299 23.9805 128.508 23.9805C127.518 23.9805 126.896 23.3125 126.879 22.1641H131.355V21.6836C131.355 19.75 130.23 18.4727 128.408 18.4727C126.586 18.4727 125.42 19.791 125.42 21.8066V21.8125C125.42 23.8516 126.574 25.1289 128.478 25.1289ZM128.426 19.6152C129.24 19.6152 129.832 20.1367 129.932 21.1855H126.891C127.002 20.166 127.611 19.6152 128.426 19.6152ZM132.406 25H133.865V21.2676C133.865 20.3066 134.404 19.6973 135.272 19.6973C136.156 19.6973 136.561 20.2012 136.561 21.1973V25H138.02V20.8574C138.02 19.334 137.24 18.4727 135.811 18.4727C134.885 18.4727 134.27 18.8887 133.965 19.5742H133.865V18.5957H132.406V25ZM141.854 25.0293C142.135 25.0293 142.405 25.0059 142.616 24.9648V23.8398C142.44 23.8574 142.328 23.8633 142.123 23.8633C141.514 23.8633 141.262 23.5938 141.262 22.9551V19.7266H142.616V18.5957H141.262V17.0254H139.78V18.5957H138.784V19.7266H139.78V23.3008C139.78 24.5371 140.383 25.0293 141.854 25.0293ZM144.411 17.5234C144.885 17.5234 145.278 17.1426 145.278 16.6621C145.278 16.1875 144.885 15.8008 144.411 15.8008C143.93 15.8008 143.538 16.1875 143.538 16.6621C143.538 17.1426 143.93 17.5234 144.411 17.5234ZM143.678 25H145.137V18.5957H143.678V25ZM146.522 25H147.981V21.2676C147.981 20.3066 148.52 19.6973 149.387 19.6973C150.272 19.6973 150.677 20.2012 150.677 21.1973V25H152.136V20.8574C152.136 19.334 151.356 18.4727 149.927 18.4727C149.001 18.4727 148.386 18.8887 148.081 19.5742H147.981V18.5957H146.522V25ZM155.759 25.1055C156.661 25.1055 157.353 24.6953 157.704 23.998H157.804V25H159.269V16.1172H157.804V19.6152H157.704C157.37 18.9238 156.638 18.4902 155.759 18.4902C154.136 18.4902 153.134 19.7559 153.134 21.7949V21.8066C153.134 23.834 154.153 25.1055 155.759 25.1055ZM156.216 23.875C155.22 23.875 154.616 23.0957 154.616 21.8066V21.7949C154.616 20.5059 155.226 19.7207 156.216 19.7207C157.206 19.7207 157.827 20.5117 157.827 21.7949V21.8066C157.827 23.0898 157.212 23.875 156.216 23.875ZM163.46 25.1289C165.376 25.1289 166.542 23.875 166.542 21.8008V21.7891C166.542 19.7266 165.37 18.4727 163.46 18.4727C161.556 18.4727 160.378 19.7324 160.378 21.7891V21.8008C160.378 23.875 161.538 25.1289 163.46 25.1289ZM163.46 23.9453C162.446 23.9453 161.866 23.1543 161.866 21.8066V21.7949C161.866 20.4473 162.446 19.6504 163.46 19.6504C164.468 19.6504 165.048 20.4473 165.048 21.7949V21.8066C165.048 23.1543 164.474 23.9453 163.46 23.9453ZM170.449 25H171.908V21.2676C171.908 20.3066 172.447 19.6973 173.314 19.6973C174.199 19.6973 174.603 20.2012 174.603 21.1973V25H176.062V20.8574C176.062 19.334 175.283 18.4727 173.853 18.4727C172.927 18.4727 172.312 18.8887 172.007 19.5742H171.908V16.1172H170.449V25ZM180.142 25.1289C182.058 25.1289 183.224 23.875 183.224 21.8008V21.7891C183.224 19.7266 182.053 18.4727 180.142 18.4727C178.238 18.4727 177.06 19.7324 177.06 21.7891V21.8008C177.06 23.875 178.221 25.1289 180.142 25.1289ZM180.142 23.9453C179.129 23.9453 178.549 23.1543 178.549 21.8066V21.7949C178.549 20.4473 179.129 19.6504 180.142 19.6504C181.15 19.6504 181.73 20.4473 181.73 21.7949V21.8066C181.73 23.1543 181.156 23.9453 180.142 23.9453ZM185.02 17.5234C185.5 17.5234 185.893 17.1426 185.893 16.6621C185.893 16.1875 185.5 15.8008 185.02 15.8008C184.545 15.8008 184.152 16.1875 184.152 16.6621C184.152 17.1426 184.545 17.5234 185.02 17.5234ZM183.59 27.1855C185.025 27.1855 185.752 26.5586 185.752 25.2461V18.5957H184.293V25.2285C184.293 25.8203 184.047 26.0312 183.426 26.0312C183.361 26.0312 183.297 26.0312 183.238 26.0254V27.1738C183.32 27.1797 183.473 27.1855 183.59 27.1855ZM189.885 25.1289C191.625 25.1289 192.481 24.127 192.686 23.3008L192.703 23.248H191.315L191.297 23.2891C191.156 23.582 190.705 23.9805 189.914 23.9805C188.924 23.9805 188.303 23.3125 188.285 22.1641H192.762V21.6836C192.762 19.75 191.637 18.4727 189.815 18.4727C187.992 18.4727 186.826 19.791 186.826 21.8066V21.8125C186.826 23.8516 187.981 25.1289 189.885 25.1289ZM189.832 19.6152C190.647 19.6152 191.239 20.1367 191.338 21.1855H188.297C188.408 20.166 189.018 19.6152 189.832 19.6152ZM195.213 22.3633H196.573V22.0234C196.573 21.4375 196.79 21.1328 197.557 20.6875C198.354 20.2129 198.799 19.5859 198.799 18.6953V18.6836C198.799 17.4004 197.727 16.4746 196.122 16.4746C194.381 16.4746 193.426 17.4824 193.385 18.8535V18.8652L194.75 18.8594L194.762 18.8535C194.803 18.1328 195.29 17.6699 196.045 17.6699C196.784 17.6699 197.276 18.1211 197.276 18.7363V18.748C197.276 19.3223 197.03 19.6387 196.303 20.0781C195.495 20.5527 195.155 21.0801 195.207 21.9473L195.213 22.3633ZM195.957 25.1465C196.555 25.1465 196.93 24.7832 196.93 24.2266C196.93 23.6641 196.555 23.3008 195.957 23.3008C195.372 23.3008 194.985 23.6641 194.985 24.2266C194.985 24.7832 195.372 25.1465 195.957 25.1465Z" fill="#180B5A"/>
<path d="M50.2373 59H51.7686V49.1357H50.2373V59ZM53.6643 59H55.1477V54.6455C55.1477 53.4492 55.8244 52.7041 56.9113 52.7041C57.9983 52.7041 58.5109 53.3125 58.5109 54.543V59H59.9875V54.1943C59.9875 52.4238 59.0715 51.4326 57.4104 51.4326C56.3303 51.4326 55.6193 51.9111 55.257 52.7041H55.1477V51.5762H53.6643V59ZM64.7748 59.1436C66.6137 59.1436 67.6733 58.1523 67.9399 56.71L67.9535 56.6484H66.5317L66.518 56.6826C66.2787 57.4824 65.7045 57.9062 64.7748 57.9062C63.5512 57.9062 62.7924 56.9082 62.7924 55.2676V55.2539C62.7924 53.6543 63.5375 52.6699 64.7748 52.6699C65.7592 52.6699 66.3608 53.2168 66.5248 53.9482L66.5317 53.9688L67.9535 53.9619V53.9277C67.7485 52.4854 66.6342 51.4326 64.768 51.4326C62.601 51.4326 61.2817 52.9023 61.2817 55.2539V55.2676C61.2817 57.667 62.6078 59.1436 64.7748 59.1436ZM69.2272 59H70.7106V54.5635C70.7106 53.4902 71.483 52.793 72.6178 52.793C72.8981 52.793 73.151 52.8271 73.4176 52.8818V51.5146C73.2672 51.4805 73.0074 51.4463 72.7682 51.4463C71.777 51.4463 71.0865 51.9111 70.8199 52.6973H70.7106V51.5762H69.2272V59ZM75.6893 50.5508L77.3026 48.1992H75.7235L74.5203 50.5508H75.6893ZM74.452 59H75.9285V51.5762H74.452V59ZM79.7246 59H81.3037L83.9834 51.5762H82.4248L80.5791 57.4961H80.4629L78.6104 51.5762H77.0381L79.7246 59ZM87.8958 59.1436C89.7961 59.1436 90.8215 58.0498 91.0676 57.0723L91.0813 57.0107L89.6526 57.0176L89.6252 57.0723C89.4475 57.4551 88.8801 57.9268 87.9299 57.9268C86.7063 57.9268 85.927 57.0996 85.8997 55.6777H91.1633V55.1582C91.1633 52.9297 89.8918 51.4326 87.8206 51.4326C85.7493 51.4326 84.4094 52.9844 84.4094 55.3018V55.3086C84.4094 57.6602 85.7219 59.1436 87.8958 59.1436ZM87.8274 52.6494C88.8323 52.6494 89.5774 53.292 89.6936 54.6182H85.9202C86.05 53.3398 86.8157 52.6494 87.8274 52.6494ZM92.5874 59H94.0708V48.6641H92.5874V59ZM50.2373 85H54.291C56.3965 85 57.6611 83.9473 57.6611 82.2178V82.2041C57.6611 80.9189 56.7725 79.9756 55.4395 79.832V79.7158C56.4102 79.5518 57.1689 78.6289 57.1689 77.6035V77.5898C57.1689 76.0791 56.0547 75.1357 54.2021 75.1357H50.2373V85ZM53.8467 76.3867C54.9814 76.3867 55.6445 76.9268 55.6445 77.8564V77.8701C55.6445 78.8271 54.9404 79.333 53.5869 79.333H51.7686V76.3867H53.8467ZM53.8945 80.502C55.3369 80.502 56.0957 81.0488 56.0957 82.1084V82.1221C56.0957 83.1816 55.3643 83.749 53.9834 83.749H51.7686V80.502H53.8945ZM62.1682 85.1436C64.0686 85.1436 65.094 84.0498 65.34 83.0723L65.3537 83.0107L63.925 83.0176L63.8977 83.0723C63.7199 83.4551 63.1525 83.9268 62.2024 83.9268C60.9787 83.9268 60.1994 83.0996 60.1721 81.6777H65.4358V81.1582C65.4358 78.9297 64.1643 77.4326 62.093 77.4326C60.0217 77.4326 58.6818 78.9844 58.6818 81.3018V81.3086C58.6818 83.6602 59.9943 85.1436 62.1682 85.1436ZM62.0998 78.6494C63.1047 78.6494 63.8498 79.292 63.966 80.6182H60.1926C60.3225 79.3398 61.0881 78.6494 62.0998 78.6494ZM66.7914 85H68.2748V80.4404C68.2748 79.4697 68.9379 78.7041 69.8334 78.7041C70.7084 78.7041 71.2621 79.2373 71.2621 80.085V85H72.7387V80.3037C72.7387 79.4082 73.3608 78.7041 74.3041 78.7041C75.2748 78.7041 75.7397 79.21 75.7397 80.2354V85H77.2162V79.8799C77.2162 78.335 76.3412 77.4326 74.8442 77.4326C73.8119 77.4326 72.9574 77.959 72.5815 78.7588H72.4653C72.1371 77.959 71.4194 77.4326 70.4076 77.4326C69.4369 77.4326 68.7123 77.9043 68.3842 78.7178H68.2748V77.5762H66.7914V85ZM50.2373 112H51.7686V108.206H53.9287L55.9385 112H57.709L55.4941 107.967C56.6973 107.563 57.4082 106.483 57.4082 105.157V105.144C57.4082 103.312 56.1504 102.136 54.127 102.136H50.2373V112ZM51.7686 106.962V103.421H53.9287C55.1113 103.421 55.8359 104.091 55.8359 105.185V105.198C55.8359 106.319 55.1523 106.962 53.9766 106.962H51.7686ZM61.4846 112.144C62.5647 112.144 63.3166 111.679 63.6721 110.879H63.7883V112H65.2649V104.576H63.7883V108.931C63.7883 110.127 63.1525 110.872 61.9631 110.872C60.8762 110.872 60.425 110.264 60.425 109.033V104.576H58.9416V109.382C58.9416 111.139 59.8098 112.144 61.4846 112.144ZM67.769 103.25C68.2748 103.25 68.6986 102.833 68.6986 102.327C68.6986 101.814 68.2748 101.397 67.769 101.397C67.2563 101.397 66.8393 101.814 66.8393 102.327C66.8393 102.833 67.2563 103.25 67.769 103.25ZM67.0238 112H68.5004V104.576H67.0238V112ZM70.2526 112H71.736V107.44C71.736 106.47 72.399 105.704 73.2946 105.704C74.1696 105.704 74.7233 106.237 74.7233 107.085V112H76.1998V107.304C76.1998 106.408 76.8219 105.704 77.7653 105.704C78.736 105.704 79.2008 106.21 79.2008 107.235V112H80.6774V106.88C80.6774 105.335 79.8024 104.433 78.3053 104.433C77.2731 104.433 76.4186 104.959 76.0426 105.759H75.9264C75.5983 104.959 74.8805 104.433 73.8688 104.433C72.8981 104.433 72.1735 104.904 71.8453 105.718H71.736V104.576H70.2526V112Z" fill="#180B5A"/>
<path d="M25 64C30.4706 64 35 59.4608 35 54C35 48.5294 30.4608 44 24.9902 44C19.5294 44 15 48.5294 15 54C15 59.4608 19.5392 64 25 64ZM25 62.3333C20.3725 62.3333 16.6765 58.6275 16.6765 54C16.6765 49.3725 20.3627 45.6667 24.9902 45.6667C29.6176 45.6667 33.3235 49.3725 33.3333 54C33.3431 58.6275 29.6275 62.3333 25 62.3333Z" fill="#180B5A"/>
<path d="M25 117C30.4706 117 35 112.461 35 107C35 101.529 30.4608 97 24.9902 97C19.5294 97 15 101.529 15 107C15 112.461 19.5392 117 25 117ZM25 115.333C20.3725 115.333 16.6765 111.627 16.6765 107C16.6765 102.373 20.3627 98.6667 24.9902 98.6667C29.6176 98.6667 33.3235 102.373 33.3333 107C33.3431 111.627 29.6275 115.333 25 115.333Z" fill="#180B5A"/>
<path d="M25 91C30.4706 91 35 86.4608 35 81C35 75.5294 30.4608 71 24.9902 71C19.5294 71 15 75.5294 15 81C15 86.4608 19.5392 91 25 91ZM25 89.3333C20.3725 89.3333 16.6765 85.6275 16.6765 81C16.6765 76.3725 20.3627 72.6667 24.9902 72.6667C29.6176 72.6667 33.3235 76.3725 33.3333 81C33.3431 85.6275 29.6275 89.3333 25 89.3333ZM24.9804 87.8431C28.7941 87.8431 31.8333 84.7941 31.8235 80.9902C31.8137 77.1961 28.7745 74.1471 24.9706 74.1471C21.1667 74.1471 18.1471 77.1863 18.1471 80.9902C18.1471 84.8039 21.1765 87.8431 24.9804 87.8431Z" fill="#180B5A"/>
</svg>
