<svg width="250" height="184" viewBox="0 0 250 184" fill="none" xmlns="http://www.w3.org/2000/svg">
<path d="M0 10C0 4.47715 4.47715 0 10 0H240C245.523 0 250 4.47715 250 10V174C250 179.523 245.523 184 240 184H10C4.47716 184 0 179.523 0 174V10Z" fill="#FAF9FF"/>
<rect x="19" y="25" width="212" height="135" rx="5" fill="#EBEBFF"/>
<path d="M35.5703 50.2109C37.5215 50.2109 38.9219 49.0801 39.1445 47.3867V47.3457H37.6621L37.6562 47.375C37.4395 48.3066 36.6426 48.9043 35.5703 48.9043C34.1289 48.9043 33.2324 47.7031 33.2324 45.7754V45.7637C33.2324 43.8418 34.1289 42.6406 35.5645 42.6406C36.6309 42.6406 37.4395 43.3027 37.6562 44.3047L37.6621 44.3281H39.1445V44.2812C38.9453 42.5527 37.4863 41.334 35.5645 41.334C33.168 41.334 31.6855 43.0273 31.6855 45.7695V45.7812C31.6855 48.5117 33.1738 50.2109 35.5703 50.2109ZM43.0373 50.1289C44.9533 50.1289 46.1193 48.875 46.1193 46.8008V46.7891C46.1193 44.7266 44.9475 43.4727 43.0373 43.4727C41.133 43.4727 39.9553 44.7324 39.9553 46.7891V46.8008C39.9553 48.875 41.1154 50.1289 43.0373 50.1289ZM43.0373 48.9453C42.0236 48.9453 41.4436 48.1543 41.4436 46.8066V46.7949C41.4436 45.4473 42.0236 44.6504 43.0373 44.6504C44.0451 44.6504 44.6252 45.4473 44.6252 46.7949V46.8066C44.6252 48.1543 44.051 48.9453 43.0373 48.9453ZM47.1762 50H48.6352V46.1035C48.6352 45.3066 49.1625 44.6973 49.8832 44.6973C50.5981 44.6973 51.0375 45.1367 51.0375 45.8457V50H52.4965V45.998C52.4965 45.2656 52.9887 44.6973 53.7504 44.6973C54.5297 44.6973 54.9106 45.1191 54.9106 45.9512V50H56.3695V45.5938C56.3695 44.2637 55.5961 43.4727 54.307 43.4727C53.4164 43.4727 52.6781 43.9297 52.3676 44.627H52.268C51.9926 43.918 51.3598 43.4727 50.4926 43.4727C49.6547 43.4727 49.0102 43.877 48.7348 44.5918H48.6352V43.5957H47.1762V50ZM60.4557 50.1289C62.3717 50.1289 63.5377 48.875 63.5377 46.8008V46.7891C63.5377 44.7266 62.3658 43.4727 60.4557 43.4727C58.5514 43.4727 57.3737 44.7324 57.3737 46.7891V46.8008C57.3737 48.875 58.5338 50.1289 60.4557 50.1289ZM60.4557 48.9453C59.442 48.9453 58.8619 48.1543 58.8619 46.8066V46.7949C58.8619 45.4473 59.442 44.6504 60.4557 44.6504C61.4635 44.6504 62.0436 45.4473 62.0436 46.7949V46.8066C62.0436 48.1543 61.4694 48.9453 60.4557 48.9453ZM69.1084 50H70.708L72.9756 43.5957H71.4405L69.9698 48.5762H69.8702L68.3877 43.5957H66.8291L69.1084 50ZM76.3059 50.1289C78.2219 50.1289 79.3879 48.875 79.3879 46.8008V46.7891C79.3879 44.7266 78.2161 43.4727 76.3059 43.4727C74.4016 43.4727 73.2239 44.7324 73.2239 46.7891V46.8008C73.2239 48.875 74.384 50.1289 76.3059 50.1289ZM76.3059 48.9453C75.2922 48.9453 74.7122 48.1543 74.7122 46.8066V46.7949C74.7122 45.4473 75.2922 44.6504 76.3059 44.6504C77.3137 44.6504 77.8938 45.4473 77.8938 46.7949V46.8066C77.8938 48.1543 77.3196 48.9453 76.3059 48.9453ZM83.1928 50.1289C84.8159 50.1289 85.7592 49.2559 85.9702 47.9434L85.9819 47.8965L84.6049 47.9023L84.5932 47.9258C84.4116 48.5996 83.9487 48.9453 83.1928 48.9453C82.2026 48.9453 81.6108 48.1484 81.6108 46.7891V46.7773C81.6108 45.4355 82.1967 44.6504 83.1928 44.6504C83.9897 44.6504 84.4643 45.0957 84.5991 45.7168L84.6049 45.7344H85.9819V45.7109C85.8178 44.3867 84.8335 43.4727 83.187 43.4727C81.2592 43.4727 80.1284 44.709 80.1284 46.7773V46.7891C80.1284 48.8809 81.2651 50.1289 83.1928 50.1289ZM87.4137 42.7285H88.738L89.6169 41.457H89.7165L90.6012 42.7285H91.9255L90.443 40.6895H88.8962L87.4137 42.7285ZM89.7048 50.1289C91.445 50.1289 92.3005 49.127 92.5055 48.3008L92.5231 48.248H91.1344L91.1169 48.2891C90.9762 48.582 90.5251 48.9805 89.734 48.9805C88.7438 48.9805 88.1227 48.3125 88.1051 47.1641H92.5817V46.6836C92.5817 44.75 91.4567 43.4727 89.6344 43.4727C87.8122 43.4727 86.6462 44.791 86.6462 46.8066V46.8125C86.6462 48.8516 87.8005 50.1289 89.7048 50.1289ZM89.652 44.6152C90.4665 44.6152 91.0583 45.1367 91.1579 46.1855H88.1169C88.2282 45.166 88.8376 44.6152 89.652 44.6152ZM99.1661 50.1289C100.906 50.1289 101.762 49.127 101.967 48.3008L101.984 48.248H100.596L100.578 48.2891C100.438 48.582 99.9864 48.9805 99.1954 48.9805C98.2052 48.9805 97.5841 48.3125 97.5665 47.1641H102.043V46.6836C102.043 44.75 100.918 43.4727 99.0958 43.4727C97.2735 43.4727 96.1075 44.791 96.1075 46.8066V46.8125C96.1075 48.8516 97.2618 50.1289 99.1661 50.1289ZM99.1134 44.6152C99.9278 44.6152 100.52 45.1367 100.619 46.1855H97.5782C97.6895 45.166 98.2989 44.6152 99.1134 44.6152ZM105.514 50.1289C107.09 50.1289 108.233 49.3145 108.233 48.0957V48.084C108.233 47.1523 107.641 46.6191 106.387 46.3379L105.35 46.1094C104.658 45.9512 104.389 45.7227 104.389 45.3477V45.3418C104.389 44.8613 104.858 44.5449 105.508 44.5449C106.194 44.5449 106.616 44.873 106.721 45.2773L106.727 45.2949H108.098V45.2832C108.004 44.2461 107.073 43.4727 105.514 43.4727C104.002 43.4727 102.948 44.2695 102.948 45.4238V45.4297C102.948 46.373 103.528 46.9473 104.746 47.2168L105.783 47.4512C106.487 47.6094 106.768 47.8555 106.768 48.2305V48.2422C106.768 48.7227 106.264 49.0508 105.537 49.0508C104.811 49.0508 104.383 48.7402 104.231 48.2949L104.225 48.2832H102.778V48.2949C102.901 49.3789 103.885 50.1289 105.514 50.1289ZM111.768 50.0293C112.049 50.0293 112.319 50.0059 112.53 49.9648V48.8398C112.354 48.8574 112.243 48.8633 112.038 48.8633C111.428 48.8633 111.176 48.5938 111.176 47.9551V44.7266H112.53V43.5957H111.176V42.0254H109.694V43.5957H108.698V44.7266H109.694V48.3008C109.694 49.5371 110.297 50.0293 111.768 50.0293ZM116.622 42.7285L118.022 40.6895H116.557L115.532 42.7285H116.622ZM115.321 50.1055C116.165 50.1055 116.844 49.7422 117.196 49.1211H117.296V50H118.737V45.623C118.737 44.2695 117.811 43.4727 116.165 43.4727C114.641 43.4727 113.61 44.1875 113.469 45.2656L113.464 45.3184H114.841L114.846 45.2949C114.993 44.873 115.426 44.6328 116.094 44.6328C116.88 44.6328 117.296 44.9844 117.296 45.623V46.1738L115.649 46.2734C114.091 46.3672 113.217 47.0352 113.217 48.1777V48.1895C113.217 49.3555 114.102 50.1055 115.321 50.1055ZM114.659 48.1191V48.1074C114.659 47.5801 115.04 47.2812 115.854 47.2285L117.296 47.1348V47.6504C117.296 48.4121 116.645 48.9863 115.766 48.9863C115.122 48.9863 114.659 48.6641 114.659 48.1191ZM125.292 50.1289C126.868 50.1289 128.011 49.3145 128.011 48.0957V48.084C128.011 47.1523 127.419 46.6191 126.165 46.3379L125.128 46.1094C124.437 45.9512 124.167 45.7227 124.167 45.3477V45.3418C124.167 44.8613 124.636 44.5449 125.286 44.5449C125.972 44.5449 126.394 44.873 126.499 45.2773L126.505 45.2949H127.876V45.2832C127.782 44.2461 126.851 43.4727 125.292 43.4727C123.78 43.4727 122.726 44.2695 122.726 45.4238V45.4297C122.726 46.373 123.306 46.9473 124.525 47.2168L125.562 47.4512C126.265 47.6094 126.546 47.8555 126.546 48.2305V48.2422C126.546 48.7227 126.042 49.0508 125.316 49.0508C124.589 49.0508 124.161 48.7402 124.009 48.2949L124.003 48.2832H122.556V48.2949C122.679 49.3789 123.663 50.1289 125.292 50.1289ZM131.816 50.1289C133.556 50.1289 134.411 49.127 134.617 48.3008L134.634 48.248H133.245L133.228 48.2891C133.087 48.582 132.636 48.9805 131.845 48.9805C130.855 48.9805 130.234 48.3125 130.216 47.1641H134.693V46.6836C134.693 44.75 133.568 43.4727 131.745 43.4727C129.923 43.4727 128.757 44.791 128.757 46.8066V46.8125C128.757 48.8516 129.911 50.1289 131.816 50.1289ZM131.763 44.6152C132.577 44.6152 133.169 45.1367 133.269 46.1855H130.228C130.339 45.166 130.949 44.6152 131.763 44.6152ZM140.955 50.1289C142.531 50.1289 143.674 49.3145 143.674 48.0957V48.084C143.674 47.1523 143.082 46.6191 141.828 46.3379L140.791 46.1094C140.099 45.9512 139.83 45.7227 139.83 45.3477V45.3418C139.83 44.8613 140.299 44.5449 140.949 44.5449C141.635 44.5449 142.056 44.873 142.162 45.2773L142.168 45.2949H143.539V45.2832C143.445 44.2461 142.513 43.4727 140.955 43.4727C139.443 43.4727 138.388 44.2695 138.388 45.4238V45.4297C138.388 46.373 138.968 46.9473 140.187 47.2168L141.224 47.4512C141.927 47.6094 142.209 47.8555 142.209 48.2305V48.2422C142.209 48.7227 141.705 49.0508 140.978 49.0508C140.252 49.0508 139.824 48.7402 139.672 48.2949L139.666 48.2832H138.218V48.2949C138.342 49.3789 139.326 50.1289 140.955 50.1289ZM147.478 50.1289C149.219 50.1289 150.074 49.127 150.279 48.3008L150.297 48.248H148.908L148.891 48.2891C148.75 48.582 148.299 48.9805 147.508 48.9805C146.518 48.9805 145.896 48.3125 145.879 47.1641H150.355V46.6836C150.355 44.75 149.23 43.4727 147.408 43.4727C145.586 43.4727 144.42 44.791 144.42 46.8066V46.8125C144.42 48.8516 145.574 50.1289 147.478 50.1289ZM147.426 44.6152C148.24 44.6152 148.832 45.1367 148.932 46.1855H145.891C146.002 45.166 146.611 44.6152 147.426 44.6152ZM151.406 50H152.865V46.2676C152.865 45.3066 153.404 44.6973 154.272 44.6973C155.156 44.6973 155.561 45.2012 155.561 46.1973V50H157.02V45.8574C157.02 44.334 156.24 43.4727 154.811 43.4727C153.885 43.4727 153.27 43.8887 152.965 44.5742H152.865V43.5957H151.406V50ZM160.854 50.0293C161.135 50.0293 161.405 50.0059 161.616 49.9648V48.8398C161.44 48.8574 161.328 48.8633 161.123 48.8633C160.514 48.8633 160.262 48.5938 160.262 47.9551V44.7266H161.616V43.5957H160.262V42.0254H158.78V43.5957H157.784V44.7266H158.78V48.3008C158.78 49.5371 159.383 50.0293 160.854 50.0293ZM163.411 42.5234C163.885 42.5234 164.278 42.1426 164.278 41.6621C164.278 41.1875 163.885 40.8008 163.411 40.8008C162.93 40.8008 162.538 41.1875 162.538 41.6621C162.538 42.1426 162.93 42.5234 163.411 42.5234ZM162.678 50H164.137V43.5957H162.678V50ZM165.522 50H166.981V46.2676C166.981 45.3066 167.52 44.6973 168.387 44.6973C169.272 44.6973 169.677 45.2012 169.677 46.1973V50H171.136V45.8574C171.136 44.334 170.356 43.4727 168.927 43.4727C168.001 43.4727 167.386 43.8887 167.081 44.5742H166.981V43.5957H165.522V50ZM174.759 50.1055C175.661 50.1055 176.353 49.6953 176.704 48.998H176.804V50H178.269V41.1172H176.804V44.6152H176.704C176.37 43.9238 175.638 43.4902 174.759 43.4902C173.136 43.4902 172.134 44.7559 172.134 46.7949V46.8066C172.134 48.834 173.153 50.1055 174.759 50.1055ZM175.216 48.875C174.22 48.875 173.616 48.0957 173.616 46.8066V46.7949C173.616 45.5059 174.226 44.7207 175.216 44.7207C176.206 44.7207 176.827 45.5117 176.827 46.7949V46.8066C176.827 48.0898 176.212 48.875 175.216 48.875ZM182.46 50.1289C184.376 50.1289 185.542 48.875 185.542 46.8008V46.7891C185.542 44.7266 184.37 43.4727 182.46 43.4727C180.556 43.4727 179.378 44.7324 179.378 46.7891V46.8008C179.378 48.875 180.538 50.1289 182.46 50.1289ZM182.46 48.9453C181.446 48.9453 180.866 48.1543 180.866 46.8066V46.7949C180.866 45.4473 181.446 44.6504 182.46 44.6504C183.468 44.6504 184.048 45.4473 184.048 46.7949V46.8066C184.048 48.1543 183.474 48.9453 182.46 48.9453ZM189.449 50H190.908V46.2676C190.908 45.3066 191.447 44.6973 192.314 44.6973C193.199 44.6973 193.603 45.2012 193.603 46.1973V50H195.062V45.8574C195.062 44.334 194.283 43.4727 192.853 43.4727C191.927 43.4727 191.312 43.8887 191.007 44.5742H190.908V41.1172H189.449V50ZM199.142 50.1289C201.058 50.1289 202.224 48.875 202.224 46.8008V46.7891C202.224 44.7266 201.053 43.4727 199.142 43.4727C197.238 43.4727 196.06 44.7324 196.06 46.7891V46.8008C196.06 48.875 197.221 50.1289 199.142 50.1289ZM199.142 48.9453C198.129 48.9453 197.549 48.1543 197.549 46.8066V46.7949C197.549 45.4473 198.129 44.6504 199.142 44.6504C200.15 44.6504 200.73 45.4473 200.73 46.7949V46.8066C200.73 48.1543 200.156 48.9453 199.142 48.9453ZM204.02 42.5234C204.5 42.5234 204.893 42.1426 204.893 41.6621C204.893 41.1875 204.5 40.8008 204.02 40.8008C203.545 40.8008 203.152 41.1875 203.152 41.6621C203.152 42.1426 203.545 42.5234 204.02 42.5234ZM202.59 52.1855C204.025 52.1855 204.752 51.5586 204.752 50.2461V43.5957H203.293V50.2285C203.293 50.8203 203.047 51.0312 202.426 51.0312C202.361 51.0312 202.297 51.0312 202.238 51.0254V52.1738C202.32 52.1797 202.473 52.1855 202.59 52.1855ZM208.885 50.1289C210.625 50.1289 211.481 49.127 211.686 48.3008L211.703 48.248H210.315L210.297 48.2891C210.156 48.582 209.705 48.9805 208.914 48.9805C207.924 48.9805 207.303 48.3125 207.285 47.1641H211.762V46.6836C211.762 44.75 210.637 43.4727 208.815 43.4727C206.992 43.4727 205.826 44.791 205.826 46.8066V46.8125C205.826 48.8516 206.981 50.1289 208.885 50.1289ZM208.832 44.6152C209.647 44.6152 210.239 45.1367 210.338 46.1855H207.297C207.408 45.166 208.018 44.6152 208.832 44.6152ZM214.213 47.3633H215.573V47.0234C215.573 46.4375 215.79 46.1328 216.557 45.6875C217.354 45.2129 217.799 44.5859 217.799 43.6953V43.6836C217.799 42.4004 216.727 41.4746 215.122 41.4746C213.381 41.4746 212.426 42.4824 212.385 43.8535V43.8652L213.75 43.8594L213.762 43.8535C213.803 43.1328 214.29 42.6699 215.045 42.6699C215.784 42.6699 216.276 43.1211 216.276 43.7363V43.748C216.276 44.3223 216.03 44.6387 215.303 45.0781C214.495 45.5527 214.155 46.0801 214.207 46.9473L214.213 47.3633ZM214.957 50.1465C215.555 50.1465 215.93 49.7832 215.93 49.2266C215.93 48.6641 215.555 48.3008 214.957 48.3008C214.372 48.3008 213.985 48.6641 213.985 49.2266C213.985 49.7832 214.372 50.1465 214.957 50.1465Z" fill="#180B5A"/>
<path d="M69.2373 84H70.7686V74.1357H69.2373V84ZM72.6643 84H74.1477V79.6455C74.1477 78.4492 74.8244 77.7041 75.9113 77.7041C76.9983 77.7041 77.5109 78.3125 77.5109 79.543V84H78.9875V79.1943C78.9875 77.4238 78.0715 76.4326 76.4104 76.4326C75.3303 76.4326 74.6193 76.9111 74.257 77.7041H74.1477V76.5762H72.6643V84ZM83.7748 84.1436C85.6137 84.1436 86.6733 83.1523 86.9399 81.71L86.9535 81.6484H85.5317L85.518 81.6826C85.2787 82.4824 84.7045 82.9062 83.7748 82.9062C82.5512 82.9062 81.7924 81.9082 81.7924 80.2676V80.2539C81.7924 78.6543 82.5375 77.6699 83.7748 77.6699C84.7592 77.6699 85.3608 78.2168 85.5248 78.9482L85.5317 78.9688L86.9535 78.9619V78.9277C86.7485 77.4854 85.6342 76.4326 83.768 76.4326C81.601 76.4326 80.2817 77.9023 80.2817 80.2539V80.2676C80.2817 82.667 81.6078 84.1436 83.7748 84.1436ZM88.2272 84H89.7106V79.5635C89.7106 78.4902 90.483 77.793 91.6178 77.793C91.8981 77.793 92.151 77.8271 92.4176 77.8818V76.5146C92.2672 76.4805 92.0074 76.4463 91.7682 76.4463C90.777 76.4463 90.0865 76.9111 89.8199 77.6973H89.7106V76.5762H88.2272V84ZM94.6893 75.5508L96.3026 73.1992H94.7235L93.5203 75.5508H94.6893ZM93.452 84H94.9285V76.5762H93.452V84ZM98.7246 84H100.304L102.983 76.5762H101.425L99.5791 82.4961H99.4629L97.6104 76.5762H96.0381L98.7246 84ZM106.896 84.1436C108.796 84.1436 109.822 83.0498 110.068 82.0723L110.081 82.0107L108.653 82.0176L108.625 82.0723C108.448 82.4551 107.88 82.9268 106.93 82.9268C105.706 82.9268 104.927 82.0996 104.9 80.6777H110.163V80.1582C110.163 77.9297 108.892 76.4326 106.821 76.4326C104.749 76.4326 103.409 77.9844 103.409 80.3018V80.3086C103.409 82.6602 104.722 84.1436 106.896 84.1436ZM106.827 77.6494C107.832 77.6494 108.577 78.292 108.694 79.6182H104.92C105.05 78.3398 105.816 77.6494 106.827 77.6494ZM111.587 84H113.071V73.6641H111.587V84ZM69.2373 110H73.291C75.3965 110 76.6611 108.947 76.6611 107.218V107.204C76.6611 105.919 75.7725 104.976 74.4395 104.832V104.716C75.4102 104.552 76.1689 103.629 76.1689 102.604V102.59C76.1689 101.079 75.0547 100.136 73.2021 100.136H69.2373V110ZM72.8467 101.387C73.9814 101.387 74.6445 101.927 74.6445 102.856V102.87C74.6445 103.827 73.9404 104.333 72.5869 104.333H70.7686V101.387H72.8467ZM72.8945 105.502C74.3369 105.502 75.0957 106.049 75.0957 107.108V107.122C75.0957 108.182 74.3643 108.749 72.9834 108.749H70.7686V105.502H72.8945ZM81.1682 110.144C83.0686 110.144 84.094 109.05 84.34 108.072L84.3537 108.011L82.925 108.018L82.8977 108.072C82.7199 108.455 82.1525 108.927 81.2024 108.927C79.9787 108.927 79.1994 108.1 79.1721 106.678H84.4358V106.158C84.4358 103.93 83.1643 102.433 81.093 102.433C79.0217 102.433 77.6818 103.984 77.6818 106.302V106.309C77.6818 108.66 78.9943 110.144 81.1682 110.144ZM81.0998 103.649C82.1047 103.649 82.8498 104.292 82.966 105.618H79.1926C79.3225 104.34 80.0881 103.649 81.0998 103.649ZM85.7914 110H87.2748V105.44C87.2748 104.47 87.9379 103.704 88.8334 103.704C89.7084 103.704 90.2621 104.237 90.2621 105.085V110H91.7387V105.304C91.7387 104.408 92.3608 103.704 93.3041 103.704C94.2748 103.704 94.7397 104.21 94.7397 105.235V110H96.2162V104.88C96.2162 103.335 95.3412 102.433 93.8442 102.433C92.8119 102.433 91.9574 102.959 91.5815 103.759H91.4653C91.1371 102.959 90.4194 102.433 89.4076 102.433C88.4369 102.433 87.7123 102.904 87.3842 103.718H87.2748V102.576H85.7914V110ZM69.2373 137H70.7686V133.206H72.9287L74.9385 137H76.709L74.4941 132.967C75.6973 132.563 76.4082 131.483 76.4082 130.157V130.144C76.4082 128.312 75.1504 127.136 73.127 127.136H69.2373V137ZM70.7686 131.962V128.421H72.9287C74.1113 128.421 74.8359 129.091 74.8359 130.185V130.198C74.8359 131.319 74.1523 131.962 72.9766 131.962H70.7686ZM80.4846 137.144C81.5647 137.144 82.3166 136.679 82.6721 135.879H82.7883V137H84.2649V129.576H82.7883V133.931C82.7883 135.127 82.1525 135.872 80.9631 135.872C79.8762 135.872 79.425 135.264 79.425 134.033V129.576H77.9416V134.382C77.9416 136.139 78.8098 137.144 80.4846 137.144ZM86.769 128.25C87.2748 128.25 87.6986 127.833 87.6986 127.327C87.6986 126.814 87.2748 126.397 86.769 126.397C86.2563 126.397 85.8393 126.814 85.8393 127.327C85.8393 127.833 86.2563 128.25 86.769 128.25ZM86.0238 137H87.5004V129.576H86.0238V137ZM89.2526 137H90.736V132.44C90.736 131.47 91.399 130.704 92.2946 130.704C93.1696 130.704 93.7233 131.237 93.7233 132.085V137H95.1998V132.304C95.1998 131.408 95.8219 130.704 96.7653 130.704C97.736 130.704 98.2008 131.21 98.2008 132.235V137H99.6774V131.88C99.6774 130.335 98.8024 129.433 97.3053 129.433C96.2731 129.433 95.4186 129.959 95.0426 130.759H94.9264C94.5983 129.959 93.8805 129.433 92.8688 129.433C91.8981 129.433 91.1735 129.904 90.8453 130.718H90.736V129.576H89.2526V137Z" fill="#180B5A"/>
<path d="M44 89C49.4706 89 54 84.4608 54 79C54 73.5294 49.4608 69 43.9902 69C38.5294 69 34 73.5294 34 79C34 84.4608 38.5392 89 44 89ZM44 87.3333C39.3725 87.3333 35.6765 83.6275 35.6765 79C35.6765 74.3725 39.3627 70.6667 43.9902 70.6667C48.6176 70.6667 52.3235 74.3725 52.3333 79C52.3431 83.6275 48.6275 87.3333 44 87.3333Z" fill="#180B5A"/>
<path d="M44 142C49.4706 142 54 137.461 54 132C54 126.529 49.4608 122 43.9902 122C38.5294 122 34 126.529 34 132C34 137.461 38.5392 142 44 142ZM44 140.333C39.3725 140.333 35.6765 136.627 35.6765 132C35.6765 127.373 39.3627 123.667 43.9902 123.667C48.6176 123.667 52.3235 127.373 52.3333 132C52.3431 136.627 48.6275 140.333 44 140.333Z" fill="#180B5A"/>
<path d="M44 116C49.4706 116 54 111.461 54 106C54 100.529 49.4608 96 43.9902 96C38.5294 96 34 100.529 34 106C34 111.461 38.5392 116 44 116ZM44 114.333C39.3725 114.333 35.6765 110.627 35.6765 106C35.6765 101.373 39.3627 97.6667 43.9902 97.6667C48.6176 97.6667 52.3235 101.373 52.3333 106C52.3431 110.627 48.6275 114.333 44 114.333ZM43.9804 112.843C47.7941 112.843 50.8333 109.794 50.8235 105.99C50.8137 102.196 47.7745 99.1471 43.9706 99.1471C40.1667 99.1471 37.1471 102.186 37.1471 105.99C37.1471 109.804 40.1765 112.843 43.9804 112.843Z" fill="#180B5A"/>
</svg>
